<?xml version="1.0" encoding="utf-8"?>
<svg xmlns="http://www.w3.org/2000/svg" xmlns:xlink="http://www.w3.org/1999/xlink" width="600" height="400" viewBox="0 0 2400 1600">
<defs>
  <clipPath id="clip890">
    <rect x="0" y="0" width="2400" height="1600"/>
  </clipPath>
</defs>
<path clip-path="url(#clip890)" d="M0 1600 L2400 1600 L2400 0 L0 0  Z" fill="#ffffff" fill-rule="evenodd" fill-opacity="1"/>
<defs>
  <clipPath id="clip891">
    <rect x="480" y="0" width="1681" height="1600"/>
  </clipPath>
</defs>
<path clip-path="url(#clip890)" d="M147.478 1486.45 L2352.76 1486.45 L2352.76 123.472 L147.478 123.472  Z" fill="#ffffff" fill-rule="evenodd" fill-opacity="1"/>
<defs>
  <clipPath id="clip892">
    <rect x="147" y="123" width="2206" height="1364"/>
  </clipPath>
</defs>
<polyline clip-path="url(#clip892)" style="stroke:#000000; stroke-linecap:round; stroke-linejoin:round; stroke-width:2; stroke-opacity:0.1; fill:none" points="428.886,1486.45 428.886,123.472 "/>
<polyline clip-path="url(#clip892)" style="stroke:#000000; stroke-linecap:round; stroke-linejoin:round; stroke-width:2; stroke-opacity:0.1; fill:none" points="976.373,1486.45 976.373,123.472 "/>
<polyline clip-path="url(#clip892)" style="stroke:#000000; stroke-linecap:round; stroke-linejoin:round; stroke-width:2; stroke-opacity:0.1; fill:none" points="1523.86,1486.45 1523.86,123.472 "/>
<polyline clip-path="url(#clip892)" style="stroke:#000000; stroke-linecap:round; stroke-linejoin:round; stroke-width:2; stroke-opacity:0.1; fill:none" points="2071.35,1486.45 2071.35,123.472 "/>
<polyline clip-path="url(#clip892)" style="stroke:#000000; stroke-linecap:round; stroke-linejoin:round; stroke-width:2; stroke-opacity:0.1; fill:none" points="147.478,1430.48 2352.76,1430.48 "/>
<polyline clip-path="url(#clip892)" style="stroke:#000000; stroke-linecap:round; stroke-linejoin:round; stroke-width:2; stroke-opacity:0.1; fill:none" points="147.478,1223.18 2352.76,1223.18 "/>
<polyline clip-path="url(#clip892)" style="stroke:#000000; stroke-linecap:round; stroke-linejoin:round; stroke-width:2; stroke-opacity:0.1; fill:none" points="147.478,1015.89 2352.76,1015.89 "/>
<polyline clip-path="url(#clip892)" style="stroke:#000000; stroke-linecap:round; stroke-linejoin:round; stroke-width:2; stroke-opacity:0.1; fill:none" points="147.478,808.593 2352.76,808.593 "/>
<polyline clip-path="url(#clip892)" style="stroke:#000000; stroke-linecap:round; stroke-linejoin:round; stroke-width:2; stroke-opacity:0.1; fill:none" points="147.478,601.299 2352.76,601.299 "/>
<polyline clip-path="url(#clip892)" style="stroke:#000000; stroke-linecap:round; stroke-linejoin:round; stroke-width:2; stroke-opacity:0.1; fill:none" points="147.478,394.005 2352.76,394.005 "/>
<polyline clip-path="url(#clip892)" style="stroke:#000000; stroke-linecap:round; stroke-linejoin:round; stroke-width:2; stroke-opacity:0.1; fill:none" points="147.478,186.711 2352.76,186.711 "/>
<polyline clip-path="url(#clip890)" style="stroke:#000000; stroke-linecap:round; stroke-linejoin:round; stroke-width:4; stroke-opacity:1; fill:none" points="147.478,1486.45 2352.76,1486.45 "/>
<polyline clip-path="url(#clip890)" style="stroke:#000000; stroke-linecap:round; stroke-linejoin:round; stroke-width:4; stroke-opacity:1; fill:none" points="428.886,1486.45 428.886,1467.55 "/>
<polyline clip-path="url(#clip890)" style="stroke:#000000; stroke-linecap:round; stroke-linejoin:round; stroke-width:4; stroke-opacity:1; fill:none" points="976.373,1486.45 976.373,1467.55 "/>
<polyline clip-path="url(#clip890)" style="stroke:#000000; stroke-linecap:round; stroke-linejoin:round; stroke-width:4; stroke-opacity:1; fill:none" points="1523.86,1486.45 1523.86,1467.55 "/>
<polyline clip-path="url(#clip890)" style="stroke:#000000; stroke-linecap:round; stroke-linejoin:round; stroke-width:4; stroke-opacity:1; fill:none" points="2071.35,1486.45 2071.35,1467.55 "/>
<path clip-path="url(#clip890)" d="M428.886 1518.89 L422.544 1536.09 L435.252 1536.09 L428.886 1518.89 M426.247 1514.29 L431.548 1514.29 L444.72 1548.85 L439.858 1548.85 L436.71 1539.98 L421.132 1539.98 L417.984 1548.85 L413.053 1548.85 L426.247 1514.29 Z" fill="#000000" fill-rule="nonzero" fill-opacity="1" /><path clip-path="url(#clip890)" d="M968.792 1532.34 L968.792 1545.01 L976.292 1545.01 Q980.065 1545.01 981.871 1543.45 Q983.7 1541.88 983.7 1538.66 Q983.7 1535.42 981.871 1533.89 Q980.065 1532.34 976.292 1532.34 L968.792 1532.34 M968.792 1518.13 L968.792 1528.55 L975.714 1528.55 Q979.14 1528.55 980.806 1527.27 Q982.496 1525.98 982.496 1523.34 Q982.496 1520.72 980.806 1519.43 Q979.14 1518.13 975.714 1518.13 L968.792 1518.13 M964.116 1514.29 L976.061 1514.29 Q981.408 1514.29 984.302 1516.51 Q987.195 1518.73 987.195 1522.83 Q987.195 1526 985.714 1527.88 Q984.232 1529.75 981.362 1530.21 Q984.811 1530.95 986.709 1533.32 Q988.63 1535.65 988.63 1539.17 Q988.63 1543.8 985.482 1546.32 Q982.334 1548.85 976.524 1548.85 L964.116 1548.85 L964.116 1514.29 Z" fill="#000000" fill-rule="nonzero" fill-opacity="1" /><path clip-path="url(#clip890)" d="M1537.8 1516.95 L1537.8 1521.88 Q1535.43 1519.68 1532.75 1518.59 Q1530.09 1517.51 1527.08 1517.51 Q1521.15 1517.51 1518 1521.14 Q1514.86 1524.75 1514.86 1531.6 Q1514.86 1538.43 1518 1542.07 Q1521.15 1545.68 1527.08 1545.68 Q1530.09 1545.68 1532.75 1544.59 Q1535.43 1543.5 1537.8 1541.3 L1537.8 1546.19 Q1535.34 1547.85 1532.59 1548.69 Q1529.86 1549.52 1526.8 1549.52 Q1518.95 1549.52 1514.44 1544.73 Q1509.93 1539.91 1509.93 1531.6 Q1509.93 1523.27 1514.44 1518.48 Q1518.95 1513.66 1526.8 1513.66 Q1529.9 1513.66 1532.63 1514.5 Q1535.39 1515.31 1537.8 1516.95 Z" fill="#000000" fill-rule="nonzero" fill-opacity="1" /><path clip-path="url(#clip890)" d="M2061.5 1518.13 L2061.5 1545.01 L2067.15 1545.01 Q2074.3 1545.01 2077.61 1541.76 Q2080.94 1538.52 2080.94 1531.53 Q2080.94 1524.59 2077.61 1521.37 Q2074.3 1518.13 2067.15 1518.13 L2061.5 1518.13 M2056.82 1514.29 L2066.43 1514.29 Q2076.47 1514.29 2081.17 1518.48 Q2085.87 1522.64 2085.87 1531.53 Q2085.87 1540.47 2081.15 1544.66 Q2076.43 1548.85 2066.43 1548.85 L2056.82 1548.85 L2056.82 1514.29 Z" fill="#000000" fill-rule="nonzero" fill-opacity="1" /><polyline clip-path="url(#clip890)" style="stroke:#000000; stroke-linecap:round; stroke-linejoin:round; stroke-width:4; stroke-opacity:1; fill:none" points="147.478,1486.45 147.478,123.472 "/>
<polyline clip-path="url(#clip890)" style="stroke:#000000; stroke-linecap:round; stroke-linejoin:round; stroke-width:4; stroke-opacity:1; fill:none" points="147.478,1430.48 166.376,1430.48 "/>
<polyline clip-path="url(#clip890)" style="stroke:#000000; stroke-linecap:round; stroke-linejoin:round; stroke-width:4; stroke-opacity:1; fill:none" points="147.478,1223.18 166.376,1223.18 "/>
<polyline clip-path="url(#clip890)" style="stroke:#000000; stroke-linecap:round; stroke-linejoin:round; stroke-width:4; stroke-opacity:1; fill:none" points="147.478,1015.89 166.376,1015.89 "/>
<polyline clip-path="url(#clip890)" style="stroke:#000000; stroke-linecap:round; stroke-linejoin:round; stroke-width:4; stroke-opacity:1; fill:none" points="147.478,808.593 166.376,808.593 "/>
<polyline clip-path="url(#clip890)" style="stroke:#000000; stroke-linecap:round; stroke-linejoin:round; stroke-width:4; stroke-opacity:1; fill:none" points="147.478,601.299 166.376,601.299 "/>
<polyline clip-path="url(#clip890)" style="stroke:#000000; stroke-linecap:round; stroke-linejoin:round; stroke-width:4; stroke-opacity:1; fill:none" points="147.478,394.005 166.376,394.005 "/>
<polyline clip-path="url(#clip890)" style="stroke:#000000; stroke-linecap:round; stroke-linejoin:round; stroke-width:4; stroke-opacity:1; fill:none" points="147.478,186.711 166.376,186.711 "/>
<path clip-path="url(#clip890)" d="M50.9921 1430.93 L80.6679 1430.93 L80.6679 1434.86 L50.9921 1434.86 L50.9921 1430.93 Z" fill="#000000" fill-rule="nonzero" fill-opacity="1" /><path clip-path="url(#clip890)" d="M91.5706 1443.82 L99.2095 1443.82 L99.2095 1417.46 L90.8993 1419.12 L90.8993 1414.86 L99.1632 1413.2 L103.839 1413.2 L103.839 1443.82 L111.478 1443.82 L111.478 1447.76 L91.5706 1447.76 L91.5706 1443.82 Z" fill="#000000" fill-rule="nonzero" fill-opacity="1" /><path clip-path="url(#clip890)" d="M99.5335 1208.98 Q95.9224 1208.98 94.0937 1212.55 Q92.2882 1216.09 92.2882 1223.22 Q92.2882 1230.32 94.0937 1233.89 Q95.9224 1237.43 99.5335 1237.43 Q103.168 1237.43 104.973 1233.89 Q106.802 1230.32 106.802 1223.22 Q106.802 1216.09 104.973 1212.55 Q103.168 1208.98 99.5335 1208.98 M99.5335 1205.28 Q105.344 1205.28 108.399 1209.88 Q111.478 1214.47 111.478 1223.22 Q111.478 1231.94 108.399 1236.55 Q105.344 1241.13 99.5335 1241.13 Q93.7234 1241.13 90.6447 1236.55 Q87.5892 1231.94 87.5892 1223.22 Q87.5892 1214.47 90.6447 1209.88 Q93.7234 1205.28 99.5335 1205.28 Z" fill="#000000" fill-rule="nonzero" fill-opacity="1" /><path clip-path="url(#clip890)" d="M91.5706 1029.23 L99.2095 1029.23 L99.2095 1002.87 L90.8993 1004.53 L90.8993 1000.27 L99.1632 998.608 L103.839 998.608 L103.839 1029.23 L111.478 1029.23 L111.478 1033.17 L91.5706 1033.17 L91.5706 1029.23 Z" fill="#000000" fill-rule="nonzero" fill-opacity="1" /><path clip-path="url(#clip890)" d="M95.1586 821.938 L111.478 821.938 L111.478 825.873 L89.5336 825.873 L89.5336 821.938 Q92.1956 819.184 96.7789 814.554 Q101.385 809.901 102.566 808.559 Q104.811 806.036 105.691 804.3 Q106.594 802.54 106.594 800.85 Q106.594 798.096 104.649 796.36 Q102.728 794.624 99.6261 794.624 Q97.4271 794.624 94.9734 795.388 Q92.5428 796.151 89.7651 797.702 L89.7651 792.98 Q92.5891 791.846 95.0428 791.267 Q97.4965 790.688 99.5335 790.688 Q104.904 790.688 108.098 793.374 Q111.293 796.059 111.293 800.55 Q111.293 802.679 110.483 804.6 Q109.696 806.499 107.589 809.091 Q107.01 809.762 103.909 812.98 Q100.807 816.174 95.1586 821.938 Z" fill="#000000" fill-rule="nonzero" fill-opacity="1" /><path clip-path="url(#clip890)" d="M104.348 599.945 Q107.705 600.663 109.58 602.931 Q111.478 605.2 111.478 608.533 Q111.478 613.649 107.959 616.45 Q104.441 619.251 97.9595 619.251 Q95.7836 619.251 93.4688 618.811 Q91.1771 618.394 88.7234 617.538 L88.7234 613.024 Q90.6678 614.158 92.9826 614.737 Q95.2974 615.315 97.8206 615.315 Q102.219 615.315 104.51 613.579 Q106.825 611.843 106.825 608.533 Q106.825 605.478 104.672 603.765 Q102.543 602.028 98.7234 602.028 L94.6956 602.028 L94.6956 598.186 L98.9085 598.186 Q102.358 598.186 104.186 596.82 Q106.015 595.431 106.015 592.839 Q106.015 590.177 104.117 588.765 Q102.242 587.329 98.7234 587.329 Q96.8021 587.329 94.603 587.746 Q92.4039 588.163 89.7651 589.042 L89.7651 584.876 Q92.4271 584.135 94.7419 583.765 Q97.0798 583.394 99.14 583.394 Q104.464 583.394 107.566 585.825 Q110.668 588.232 110.668 592.353 Q110.668 595.223 109.024 597.214 Q107.381 599.181 104.348 599.945 Z" fill="#000000" fill-rule="nonzero" fill-opacity="1" /><path clip-path="url(#clip890)" d="M101.895 380.799 L90.0891 399.248 L101.895 399.248 L101.895 380.799 M100.668 376.725 L106.547 376.725 L106.547 399.248 L111.478 399.248 L111.478 403.137 L106.547 403.137 L106.547 411.285 L101.895 411.285 L101.895 403.137 L86.2929 403.137 L86.2929 398.623 L100.668 376.725 Z" fill="#000000" fill-rule="nonzero" fill-opacity="1" /><path clip-path="url(#clip890)" d="M90.5752 169.431 L108.932 169.431 L108.932 173.366 L94.8576 173.366 L94.8576 181.838 Q95.8761 181.491 96.8947 181.329 Q97.9132 181.144 98.9317 181.144 Q104.719 181.144 108.098 184.315 Q111.478 187.486 111.478 192.903 Q111.478 198.482 108.006 201.584 Q104.534 204.662 98.2141 204.662 Q96.0382 204.662 93.7697 204.292 Q91.5243 203.921 89.1169 203.181 L89.1169 198.482 Q91.2002 199.616 93.4225 200.171 Q95.6447 200.727 98.1215 200.727 Q102.126 200.727 104.464 198.621 Q106.802 196.514 106.802 192.903 Q106.802 189.292 104.464 187.185 Q102.126 185.079 98.1215 185.079 Q96.2465 185.079 94.3715 185.496 Q92.5197 185.912 90.5752 186.792 L90.5752 169.431 Z" fill="#000000" fill-rule="nonzero" fill-opacity="1" /><path clip-path="url(#clip890)" d="M1146.98 16.7545 L1146.98 25.383 Q1142.85 21.5346 1138.15 19.6307 Q1133.49 17.7268 1128.23 17.7268 Q1117.85 17.7268 1112.35 24.0867 Q1106.84 30.4061 1106.84 42.3968 Q1106.84 54.3469 1112.35 60.7069 Q1117.85 67.0263 1128.23 67.0263 Q1133.49 67.0263 1138.15 65.1223 Q1142.85 63.2184 1146.98 59.3701 L1146.98 67.9175 Q1142.69 70.8341 1137.87 72.2924 Q1133.09 73.7508 1127.74 73.7508 Q1114.01 73.7508 1106.11 65.3654 Q1098.21 56.9395 1098.21 42.3968 Q1098.21 27.8135 1106.11 19.4281 Q1114.01 11.0023 1127.74 11.0023 Q1133.17 11.0023 1137.95 12.4606 Q1142.77 13.8784 1146.98 16.7545 Z" fill="#000000" fill-rule="nonzero" fill-opacity="1" /><path clip-path="url(#clip890)" d="M1197.01 45.1919 L1197.01 72.576 L1189.56 72.576 L1189.56 45.4349 Q1189.56 38.994 1187.04 35.7938 Q1184.53 32.5936 1179.51 32.5936 Q1173.47 32.5936 1169.99 36.4419 Q1166.51 40.2903 1166.51 46.9338 L1166.51 72.576 L1159.01 72.576 L1159.01 9.54393 L1166.51 9.54393 L1166.51 34.2544 Q1169.18 30.163 1172.79 28.1376 Q1176.43 26.1121 1181.17 26.1121 Q1188.99 26.1121 1193 30.9732 Q1197.01 35.7938 1197.01 45.1919 Z" fill="#000000" fill-rule="nonzero" fill-opacity="1" /><path clip-path="url(#clip890)" d="M1232.5 49.7694 Q1223.46 49.7694 1219.98 51.8354 Q1216.49 53.9013 1216.49 58.8839 Q1216.49 62.8538 1219.09 65.2034 Q1221.72 67.5124 1226.22 67.5124 Q1232.41 67.5124 1236.14 63.1374 Q1239.91 58.7219 1239.91 51.4303 L1239.91 49.7694 L1232.5 49.7694 M1247.36 46.6907 L1247.36 72.576 L1239.91 72.576 L1239.91 65.6895 Q1237.36 69.8214 1233.55 71.8063 Q1229.74 73.7508 1224.23 73.7508 Q1217.26 73.7508 1213.13 69.8619 Q1209.04 65.9325 1209.04 59.3701 Q1209.04 51.7138 1214.14 47.825 Q1219.29 43.9361 1229.46 43.9361 L1239.91 43.9361 L1239.91 43.2069 Q1239.91 38.0623 1236.51 35.2672 Q1233.14 32.4315 1227.03 32.4315 Q1223.14 32.4315 1219.45 33.3632 Q1215.77 34.295 1212.36 36.1584 L1212.36 29.2718 Q1216.45 27.692 1220.3 26.9223 Q1224.15 26.1121 1227.8 26.1121 Q1237.64 26.1121 1242.5 31.2163 Q1247.36 36.3204 1247.36 46.6907 Z" fill="#000000" fill-rule="nonzero" fill-opacity="1" /><path clip-path="url(#clip890)" d="M1262.72 27.2059 L1270.17 27.2059 L1270.17 72.576 L1262.72 72.576 L1262.72 27.2059 M1262.72 9.54393 L1270.17 9.54393 L1270.17 18.9825 L1262.72 18.9825 L1262.72 9.54393 Z" fill="#000000" fill-rule="nonzero" fill-opacity="1" /><path clip-path="url(#clip890)" d="M1323.48 45.1919 L1323.48 72.576 L1316.03 72.576 L1316.03 45.4349 Q1316.03 38.994 1313.51 35.7938 Q1311 32.5936 1305.98 32.5936 Q1299.94 32.5936 1296.46 36.4419 Q1292.98 40.2903 1292.98 46.9338 L1292.98 72.576 L1285.48 72.576 L1285.48 27.2059 L1292.98 27.2059 L1292.98 34.2544 Q1295.65 30.163 1299.25 28.1376 Q1302.9 26.1121 1307.64 26.1121 Q1315.46 26.1121 1319.47 30.9732 Q1323.48 35.7938 1323.48 45.1919 Z" fill="#000000" fill-rule="nonzero" fill-opacity="1" /><path clip-path="url(#clip890)" d="M1367.19 65.6895 L1380.56 65.6895 L1380.56 19.5497 L1366.01 22.4663 L1366.01 15.0127 L1380.48 12.096 L1388.66 12.096 L1388.66 65.6895 L1402.03 65.6895 L1402.03 72.576 L1367.19 72.576 L1367.19 65.6895 Z" fill="#000000" fill-rule="nonzero" fill-opacity="1" /><path clip-path="url(#clip892)" d="M472.283 1442.99 L474.256 1436.24 L475.988 1429.5 L477.482 1422.75 L478.756 1416 L479.84 1409.25 L480.774 1402.5 L481.607 1395.75 L482.395 1389 L483.2 1382.25 L484.087 1375.5 L485.122 1368.75 L486.369 1362 L487.893 1355.25 L489.754 1348.51 L492.008 1341.76 L494.704 1335.01 L497.886 1328.26 L501.587 1321.51 L505.83 1314.76 L510.627 1308.01 L515.975 1301.26 L521.856 1294.51 L528.238 1287.76 L535.07 1281.01 L542.289 1274.27 L549.816 1267.52 L557.562 1260.77 L565.428 1254.02 L573.313 1247.27 L581.115 1240.52 L588.736 1233.77 L596.085 1227.02 L603.084 1220.27 L609.665 1213.52 L615.778 1206.77 L621.385 1200.02 L626.461 1193.28 L630.995 1186.53 L634.982 1179.78 L638.423 1173.03 L641.323 1166.28 L643.688 1159.53 L645.523 1152.78 L646.831 1146.03 L647.616 1139.28 L647.881 1132.53 L647.632 1125.78 L646.881 1119.03 L645.647 1112.29 L643.959 1105.54 L641.857 1098.79 L639.397 1092.04 L636.642 1085.29 L633.669 1078.54 L630.563 1071.79 L627.413 1065.04 L624.308 1058.29 L621.335 1051.54 L618.573 1044.79 L616.089 1038.04 L613.939 1031.3 L612.159 1024.55 L610.771 1017.8 L609.78 1011.05 L609.175 1004.3 L608.932 997.55 L609.016 990.8 L609.384 984.051 L609.989 977.302 L610.779 970.553 L611.706 963.804 L612.722 957.055 L613.784 950.306 L614.857 943.556 L615.908 936.807 L616.915 930.058 L617.861 923.309 L618.736 916.56 L619.538 909.811 L620.268 903.061 L620.935 896.312 L621.55 889.563 L622.129 882.814 L622.684 876.065 L623.23 869.316 L623.774 862.566 L624.318 855.817 L624.853 849.068 L625.36 842.319 L625.805 835.57 L626.141 828.821 L626.307 822.072 L626.231 815.322 L625.832 808.573 L625.023 801.824 L623.719 795.075 L621.842 788.326 L619.324 781.577 L616.117 774.827 L612.194 768.078 L607.551 761.329 L602.212 754.58 L596.229 747.831 L589.674 741.082 L582.64 734.333 L575.236 727.583 L567.579 720.834 L559.789 714.085 L551.983 707.336 L544.269 700.587 L536.743 693.838 L529.486 687.088 L522.56 680.339 L516.011 673.59 L509.865 666.841 L504.134 660.092 L498.815 653.343 L493.894 646.593 L489.348 639.844 L485.147 633.095 L481.256 626.346 L477.641 619.597 L474.265 612.848 L471.093 606.099 L468.095 599.349 L465.241 592.6 L462.509 585.851 L395.264 585.851 L392.532 592.6 L389.678 599.349 L386.679 606.099 L383.508 612.848 L380.131 619.597 L376.516 626.346 L372.626 633.095 L368.425 639.844 L363.879 646.593 L358.958 653.343 L353.639 660.092 L347.908 666.841 L341.762 673.59 L335.212 680.339 L328.286 687.088 L321.029 693.838 L313.504 700.587 L305.79 707.336 L297.983 714.085 L290.193 720.834 L282.537 727.583 L275.133 734.333 L268.099 741.082 L261.544 747.831 L255.56 754.58 L250.222 761.329 L245.579 768.078 L241.655 774.827 L238.448 781.577 L235.931 788.326 L234.053 795.075 L232.75 801.824 L231.941 808.573 L231.541 815.322 L231.465 822.072 L231.632 828.821 L231.968 835.57 L232.413 842.319 L232.92 849.068 L233.455 855.817 L233.998 862.566 L234.542 869.316 L235.088 876.065 L235.644 882.814 L236.222 889.563 L236.838 896.312 L237.505 903.061 L238.235 909.811 L239.036 916.56 L239.911 923.309 L240.857 930.058 L241.864 936.807 L242.916 943.556 L243.988 950.306 L245.051 957.055 L246.067 963.804 L246.994 970.553 L247.784 977.302 L248.388 984.051 L248.756 990.8 L248.84 997.55 L248.597 1004.3 L247.992 1011.05 L247.001 1017.8 L245.614 1024.55 L243.834 1031.3 L241.683 1038.04 L239.2 1044.79 L236.438 1051.54 L233.465 1058.29 L230.36 1065.04 L227.209 1071.79 L224.103 1078.54 L221.131 1085.29 L218.376 1092.04 L215.915 1098.79 L213.814 1105.54 L212.126 1112.29 L210.892 1119.03 L210.14 1125.78 L209.891 1132.53 L210.156 1139.28 L210.941 1146.03 L212.25 1152.78 L214.084 1159.53 L216.45 1166.28 L219.35 1173.03 L222.791 1179.78 L226.778 1186.53 L231.311 1193.28 L236.388 1200.02 L241.995 1206.77 L248.108 1213.52 L254.689 1220.27 L261.687 1227.02 L269.036 1233.77 L276.657 1240.52 L284.459 1247.27 L292.345 1254.02 L300.211 1260.77 L307.956 1267.52 L315.483 1274.27 L322.702 1281.01 L329.535 1287.76 L335.916 1294.51 L341.798 1301.26 L347.146 1308.01 L351.943 1314.76 L356.186 1321.51 L359.887 1328.26 L363.068 1335.01 L365.765 1341.76 L368.018 1348.51 L369.879 1355.25 L371.403 1362 L372.651 1368.75 L373.685 1375.5 L374.572 1382.25 L375.378 1389 L376.166 1395.75 L376.999 1402.5 L377.933 1409.25 L379.017 1416 L380.291 1422.75 L381.785 1429.5 L383.516 1436.24 L385.49 1442.99 L472.283 1442.99  Z" fill="#009af9" fill-rule="evenodd" fill-opacity="1"/>
<polyline clip-path="url(#clip892)" style="stroke:#000000; stroke-linecap:round; stroke-linejoin:round; stroke-width:4; stroke-opacity:1; fill:none" points="472.283,1442.99 474.256,1436.24 475.988,1429.5 477.482,1422.75 478.756,1416 479.84,1409.25 480.774,1402.5 481.607,1395.75 482.395,1389 483.2,1382.25 484.087,1375.5 485.122,1368.75 486.369,1362 487.893,1355.25 489.754,1348.51 492.008,1341.76 494.704,1335.01 497.886,1328.26 501.587,1321.51 505.83,1314.76 510.627,1308.01 515.975,1301.26 521.856,1294.51 528.238,1287.76 535.07,1281.01 542.289,1274.27 549.816,1267.52 557.562,1260.77 565.428,1254.02 573.313,1247.27 581.115,1240.52 588.736,1233.77 596.085,1227.02 603.084,1220.27 609.665,1213.52 615.778,1206.77 621.385,1200.02 626.461,1193.28 630.995,1186.53 634.982,1179.78 638.423,1173.03 641.323,1166.28 643.688,1159.53 645.523,1152.78 646.831,1146.03 647.616,1139.28 647.881,1132.53 647.632,1125.78 646.881,1119.03 645.647,1112.29 643.959,1105.54 641.857,1098.79 639.397,1092.04 636.642,1085.29 633.669,1078.54 630.563,1071.79 627.413,1065.04 624.308,1058.29 621.335,1051.54 618.573,1044.79 616.089,1038.04 613.939,1031.3 612.159,1024.55 610.771,1017.8 609.78,1011.05 609.175,1004.3 608.932,997.55 609.016,990.8 609.384,984.051 609.989,977.302 610.779,970.553 611.706,963.804 612.722,957.055 613.784,950.306 614.857,943.556 615.908,936.807 616.915,930.058 617.861,923.309 618.736,916.56 619.538,909.811 620.268,903.061 620.935,896.312 621.55,889.563 622.129,882.814 622.684,876.065 623.23,869.316 623.774,862.566 624.318,855.817 624.853,849.068 625.36,842.319 625.805,835.57 626.141,828.821 626.307,822.072 626.231,815.322 625.832,808.573 625.023,801.824 623.719,795.075 621.842,788.326 619.324,781.577 616.117,774.827 612.194,768.078 607.551,761.329 602.212,754.58 596.229,747.831 589.674,741.082 582.64,734.333 575.236,727.583 567.579,720.834 559.789,714.085 551.983,707.336 544.269,700.587 536.743,693.838 529.486,687.088 522.56,680.339 516.011,673.59 509.865,666.841 504.134,660.092 498.815,653.343 493.894,646.593 489.348,639.844 485.147,633.095 481.256,626.346 477.641,619.597 474.265,612.848 471.093,606.099 468.095,599.349 465.241,592.6 462.509,585.851 395.264,585.851 392.532,592.6 389.678,599.349 386.679,606.099 383.508,612.848 380.131,619.597 376.516,626.346 372.626,633.095 368.425,639.844 363.879,646.593 358.958,653.343 353.639,660.092 347.908,666.841 341.762,673.59 335.212,680.339 328.286,687.088 321.029,693.838 313.504,700.587 305.79,707.336 297.983,714.085 290.193,720.834 282.537,727.583 275.133,734.333 268.099,741.082 261.544,747.831 255.56,754.58 250.222,761.329 245.579,768.078 241.655,774.827 238.448,781.577 235.931,788.326 234.053,795.075 232.75,801.824 231.941,808.573 231.541,815.322 231.465,822.072 231.632,828.821 231.968,835.57 232.413,842.319 232.92,849.068 233.455,855.817 233.998,862.566 234.542,869.316 235.088,876.065 235.644,882.814 236.222,889.563 236.838,896.312 237.505,903.061 238.235,909.811 239.036,916.56 239.911,923.309 240.857,930.058 241.864,936.807 242.916,943.556 243.988,950.306 245.051,957.055 246.067,963.804 246.994,970.553 247.784,977.302 248.388,984.051 248.756,990.8 248.84,997.55 248.597,1004.3 247.992,1011.05 247.001,1017.8 245.614,1024.55 243.834,1031.3 241.683,1038.04 239.2,1044.79 236.438,1051.54 233.465,1058.29 230.36,1065.04 227.209,1071.79 224.103,1078.54 221.131,1085.29 218.376,1092.04 215.915,1098.79 213.814,1105.54 212.126,1112.29 210.892,1119.03 210.14,1125.78 209.891,1132.53 210.156,1139.28 210.941,1146.03 212.25,1152.78 214.084,1159.53 216.45,1166.28 219.35,1173.03 222.791,1179.78 226.778,1186.53 231.311,1193.28 236.388,1200.02 241.995,1206.77 248.108,1213.52 254.689,1220.27 261.687,1227.02 269.036,1233.77 276.657,1240.52 284.459,1247.27 292.345,1254.02 300.211,1260.77 307.956,1267.52 315.483,1274.27 322.702,1281.01 329.535,1287.76 335.916,1294.51 341.798,1301.26 347.146,1308.01 351.943,1314.76 356.186,1321.51 359.887,1328.26 363.068,1335.01 365.765,1341.76 368.018,1348.51 369.879,1355.25 371.403,1362 372.651,1368.75 373.685,1375.5 374.572,1382.25 375.378,1389 376.166,1395.75 376.999,1402.5 377.933,1409.25 379.017,1416 380.291,1422.75 381.785,1429.5 383.516,1436.24 385.49,1442.99 472.283,1442.99 "/>
<path clip-path="url(#clip892)" d="M992.835 1418.33 L993.604 1410.86 L994.221 1403.38 L994.682 1395.9 L994.99 1388.42 L995.157 1380.94 L995.202 1373.46 L995.154 1365.98 L995.046 1358.5 L994.918 1351.02 L994.814 1343.54 L994.778 1336.07 L994.857 1328.59 L995.094 1321.11 L995.529 1313.63 L996.198 1306.15 L997.127 1298.67 L998.335 1291.19 L999.831 1283.71 L1001.61 1276.23 L1003.67 1268.75 L1006 1261.28 L1008.55 1253.8 L1011.32 1246.32 L1014.27 1238.84 L1017.37 1231.36 L1020.6 1223.88 L1023.95 1216.4 L1027.4 1208.92 L1030.95 1201.44 L1034.62 1193.97 L1038.4 1186.49 L1042.31 1179.01 L1046.37 1171.53 L1050.58 1164.05 L1054.95 1156.57 L1059.48 1149.09 L1064.15 1141.61 L1068.93 1134.13 L1073.77 1126.65 L1078.63 1119.18 L1083.44 1111.7 L1088.12 1104.22 L1092.6 1096.74 L1096.81 1089.26 L1100.66 1081.78 L1104.1 1074.3 L1107.09 1066.82 L1109.59 1059.34 L1111.59 1051.87 L1113.1 1044.39 L1114.16 1036.91 L1114.84 1029.43 L1115.19 1021.95 L1115.32 1014.47 L1115.33 1006.99 L1115.34 999.512 L1115.44 992.033 L1115.75 984.555 L1116.38 977.076 L1117.4 969.597 L1118.89 962.118 L1120.9 954.639 L1123.45 947.16 L1126.56 939.681 L1130.2 932.202 L1134.35 924.723 L1138.94 917.244 L1143.91 909.765 L1149.17 902.286 L1154.64 894.807 L1160.19 887.328 L1165.73 879.849 L1171.14 872.37 L1176.28 864.891 L1181.04 857.412 L1185.31 849.933 L1188.95 842.454 L1191.86 834.975 L1193.96 827.496 L1195.14 820.017 L1195.37 812.539 L1194.59 805.06 L1192.79 797.581 L1189.99 790.102 L1186.22 782.623 L1181.55 775.144 L1176.06 767.665 L1169.85 760.186 L1163.04 752.707 L1155.77 745.228 L1148.16 737.749 L1140.34 730.27 L1132.47 722.791 L1124.65 715.312 L1117.02 707.833 L1109.68 700.354 L1102.73 692.875 L1096.25 685.396 L1090.29 677.917 L1084.92 670.438 L1080.14 662.959 L1075.98 655.48 L1072.43 648.001 L1069.46 640.523 L1067.03 633.044 L1065.11 625.565 L1063.64 618.086 L1062.54 610.607 L1061.76 603.128 L1061.22 595.649 L1060.86 588.17 L1060.61 580.691 L1060.42 573.212 L1060.23 565.733 L1059.99 558.254 L1059.65 550.775 L1059.19 543.296 L1058.57 535.817 L1057.76 528.338 L1056.76 520.859 L1055.54 513.38 L1054.11 505.901 L1052.46 498.422 L1050.58 490.943 L1048.47 483.464 L1046.15 475.985 L1043.6 468.507 L1040.85 461.028 L1037.9 453.549 L1034.75 446.07 L1031.43 438.591 L1027.96 431.112 L1024.37 423.633 L1020.68 416.154 L1016.94 408.675 L935.808 408.675 L932.067 416.154 L928.379 423.633 L924.784 431.112 L921.313 438.591 L917.995 446.07 L914.85 453.549 L911.895 461.028 L909.142 468.507 L906.6 475.985 L904.275 483.464 L902.171 490.943 L900.291 498.422 L898.635 505.901 L897.203 513.38 L895.989 520.859 L894.986 528.338 L894.182 535.817 L893.559 543.296 L893.095 550.775 L892.759 558.254 L892.516 565.733 L892.324 573.212 L892.133 580.691 L891.888 588.17 L891.528 595.649 L890.991 603.128 L890.208 610.607 L889.111 618.086 L887.634 625.565 L885.713 633.044 L883.291 640.523 L880.321 648.001 L876.767 655.48 L872.606 662.959 L867.831 670.438 L862.453 677.917 L856.498 685.396 L850.014 692.875 L843.062 700.354 L835.724 707.833 L828.093 715.312 L820.279 722.791 L812.402 730.27 L804.59 737.749 L796.978 745.228 L789.702 752.707 L782.896 760.186 L776.688 767.665 L771.197 775.144 L766.525 782.623 L762.757 790.102 L759.956 797.581 L758.159 805.06 L757.379 812.539 L757.602 820.017 L758.79 827.496 L760.882 834.975 L763.798 842.454 L767.441 849.933 L771.703 857.412 L776.466 864.891 L781.611 872.37 L787.013 879.849 L792.552 887.328 L798.109 894.807 L803.573 902.286 L808.838 909.765 L813.809 917.244 L818.401 924.723 L822.546 932.202 L826.189 939.681 L829.294 947.16 L831.847 954.639 L833.855 962.118 L835.345 969.597 L836.368 977.076 L836.994 984.555 L837.308 992.033 L837.411 999.512 L837.412 1006.99 L837.423 1014.47 L837.554 1021.95 L837.91 1029.43 L838.582 1036.91 L839.647 1044.39 L841.162 1051.87 L843.161 1059.34 L845.657 1066.82 L848.642 1074.3 L852.085 1081.78 L855.94 1089.26 L860.144 1096.74 L864.626 1104.22 L869.309 1111.7 L874.117 1119.18 L878.976 1126.65 L883.822 1134.13 L888.599 1141.61 L893.267 1149.09 L897.795 1156.57 L902.168 1164.05 L906.381 1171.53 L910.438 1179.01 L914.35 1186.49 L918.131 1193.97 L921.793 1201.44 L925.348 1208.92 L928.799 1216.4 L932.146 1223.88 L935.378 1231.36 L938.479 1238.84 L941.427 1246.32 L944.193 1253.8 L946.751 1261.28 L949.072 1268.75 L951.133 1276.23 L952.916 1283.71 L954.412 1291.19 L955.62 1298.67 L956.549 1306.15 L957.217 1313.63 L957.653 1321.11 L957.89 1328.59 L957.969 1336.07 L957.933 1343.54 L957.829 1351.02 L957.701 1358.5 L957.593 1365.98 L957.544 1373.46 L957.59 1380.94 L957.756 1388.42 L958.065 1395.9 L958.526 1403.38 L959.143 1410.86 L959.912 1418.33 L992.835 1418.33  Z" fill="#009af9" fill-rule="evenodd" fill-opacity="1"/>
<polyline clip-path="url(#clip892)" style="stroke:#000000; stroke-linecap:round; stroke-linejoin:round; stroke-width:4; stroke-opacity:1; fill:none" points="992.835,1418.33 993.604,1410.86 994.221,1403.38 994.682,1395.9 994.99,1388.42 995.157,1380.94 995.202,1373.46 995.154,1365.98 995.046,1358.5 994.918,1351.02 994.814,1343.54 994.778,1336.07 994.857,1328.59 995.094,1321.11 995.529,1313.63 996.198,1306.15 997.127,1298.67 998.335,1291.19 999.831,1283.71 1001.61,1276.23 1003.67,1268.75 1006,1261.28 1008.55,1253.8 1011.32,1246.32 1014.27,1238.84 1017.37,1231.36 1020.6,1223.88 1023.95,1216.4 1027.4,1208.92 1030.95,1201.44 1034.62,1193.97 1038.4,1186.49 1042.31,1179.01 1046.37,1171.53 1050.58,1164.05 1054.95,1156.57 1059.48,1149.09 1064.15,1141.61 1068.93,1134.13 1073.77,1126.65 1078.63,1119.18 1083.44,1111.7 1088.12,1104.22 1092.6,1096.74 1096.81,1089.26 1100.66,1081.78 1104.1,1074.3 1107.09,1066.82 1109.59,1059.34 1111.59,1051.87 1113.1,1044.39 1114.16,1036.91 1114.84,1029.43 1115.19,1021.95 1115.32,1014.47 1115.33,1006.99 1115.34,999.512 1115.44,992.033 1115.75,984.555 1116.38,977.076 1117.4,969.597 1118.89,962.118 1120.9,954.639 1123.45,947.16 1126.56,939.681 1130.2,932.202 1134.35,924.723 1138.94,917.244 1143.91,909.765 1149.17,902.286 1154.64,894.807 1160.19,887.328 1165.73,879.849 1171.14,872.37 1176.28,864.891 1181.04,857.412 1185.31,849.933 1188.95,842.454 1191.86,834.975 1193.96,827.496 1195.14,820.017 1195.37,812.539 1194.59,805.06 1192.79,797.581 1189.99,790.102 1186.22,782.623 1181.55,775.144 1176.06,767.665 1169.85,760.186 1163.04,752.707 1155.77,745.228 1148.16,737.749 1140.34,730.27 1132.47,722.791 1124.65,715.312 1117.02,707.833 1109.68,700.354 1102.73,692.875 1096.25,685.396 1090.29,677.917 1084.92,670.438 1080.14,662.959 1075.98,655.48 1072.43,648.001 1069.46,640.523 1067.03,633.044 1065.11,625.565 1063.64,618.086 1062.54,610.607 1061.76,603.128 1061.22,595.649 1060.86,588.17 1060.61,580.691 1060.42,573.212 1060.23,565.733 1059.99,558.254 1059.65,550.775 1059.19,543.296 1058.57,535.817 1057.76,528.338 1056.76,520.859 1055.54,513.38 1054.11,505.901 1052.46,498.422 1050.58,490.943 1048.47,483.464 1046.15,475.985 1043.6,468.507 1040.85,461.028 1037.9,453.549 1034.75,446.07 1031.43,438.591 1027.96,431.112 1024.37,423.633 1020.68,416.154 1016.94,408.675 935.808,408.675 932.067,416.154 928.379,423.633 924.784,431.112 921.313,438.591 917.995,446.07 914.85,453.549 911.895,461.028 909.142,468.507 906.6,475.985 904.275,483.464 902.171,490.943 900.291,498.422 898.635,505.901 897.203,513.38 895.989,520.859 894.986,528.338 894.182,535.817 893.559,543.296 893.095,550.775 892.759,558.254 892.516,565.733 892.324,573.212 892.133,580.691 891.888,588.17 891.528,595.649 890.991,603.128 890.208,610.607 889.111,618.086 887.634,625.565 885.713,633.044 883.291,640.523 880.321,648.001 876.767,655.48 872.606,662.959 867.831,670.438 862.453,677.917 856.498,685.396 850.014,692.875 843.062,700.354 835.724,707.833 828.093,715.312 820.279,722.791 812.402,730.27 804.59,737.749 796.978,745.228 789.702,752.707 782.896,760.186 776.688,767.665 771.197,775.144 766.525,782.623 762.757,790.102 759.956,797.581 758.159,805.06 757.379,812.539 757.602,820.017 758.79,827.496 760.882,834.975 763.798,842.454 767.441,849.933 771.703,857.412 776.466,864.891 781.611,872.37 787.013,879.849 792.552,887.328 798.109,894.807 803.573,902.286 808.838,909.765 813.809,917.244 818.401,924.723 822.546,932.202 826.189,939.681 829.294,947.16 831.847,954.639 833.855,962.118 835.345,969.597 836.368,977.076 836.994,984.555 837.308,992.033 837.411,999.512 837.412,1006.99 837.423,1014.47 837.554,1021.95 837.91,1029.43 838.582,1036.91 839.647,1044.39 841.162,1051.87 843.161,1059.34 845.657,1066.82 848.642,1074.3 852.085,1081.78 855.94,1089.26 860.144,1096.74 864.626,1104.22 869.309,1111.7 874.117,1119.18 878.976,1126.65 883.822,1134.13 888.599,1141.61 893.267,1149.09 897.795,1156.57 902.168,1164.05 906.381,1171.53 910.438,1179.01 914.35,1186.49 918.131,1193.97 921.793,1201.44 925.348,1208.92 928.799,1216.4 932.146,1223.88 935.378,1231.36 938.479,1238.84 941.427,1246.32 944.193,1253.8 946.751,1261.28 949.072,1268.75 951.133,1276.23 952.916,1283.71 954.412,1291.19 955.62,1298.67 956.549,1306.15 957.217,1313.63 957.653,1321.11 957.89,1328.59 957.969,1336.07 957.933,1343.54 957.829,1351.02 957.701,1358.5 957.593,1365.98 957.544,1373.46 957.59,1380.94 957.756,1388.42 958.065,1395.9 958.526,1403.38 959.143,1410.86 959.912,1418.33 992.835,1418.33 "/>
<path clip-path="url(#clip892)" d="M1533.73 1308.25 L1534.02 1300.06 L1534.24 1291.87 L1534.41 1283.68 L1534.53 1275.49 L1534.61 1267.3 L1534.67 1259.1 L1534.7 1250.91 L1534.72 1242.72 L1534.74 1234.53 L1534.74 1226.34 L1534.74 1218.15 L1534.75 1209.96 L1534.79 1201.77 L1534.86 1193.58 L1535.01 1185.39 L1535.24 1177.19 L1535.6 1169 L1536.09 1160.81 L1536.75 1152.62 L1537.56 1144.43 L1538.53 1136.24 L1539.64 1128.05 L1540.86 1119.86 L1542.13 1111.67 L1543.41 1103.47 L1544.65 1095.28 L1545.78 1087.09 L1546.77 1078.9 L1547.58 1070.71 L1548.19 1062.52 L1548.61 1054.33 L1548.87 1046.14 L1549.01 1037.95 L1549.09 1029.75 L1549.2 1021.56 L1549.42 1013.37 L1549.84 1005.18 L1550.54 996.99 L1551.59 988.799 L1553.05 980.608 L1554.97 972.417 L1557.36 964.225 L1560.25 956.034 L1563.63 947.843 L1567.5 939.652 L1571.85 931.461 L1576.65 923.27 L1581.91 915.079 L1587.62 906.888 L1593.75 898.697 L1600.3 890.506 L1607.27 882.315 L1614.61 874.123 L1622.3 865.932 L1630.29 857.741 L1638.52 849.55 L1646.9 841.359 L1655.34 833.168 L1663.74 824.977 L1671.98 816.786 L1679.94 808.595 L1687.52 800.404 L1694.62 792.213 L1701.15 784.021 L1707.06 775.83 L1712.32 767.639 L1716.93 759.448 L1720.92 751.257 L1724.33 743.066 L1727.25 734.875 L1729.74 726.684 L1731.91 718.493 L1733.83 710.302 L1735.57 702.11 L1737.17 693.919 L1738.65 685.728 L1740 677.537 L1741.17 669.346 L1742.1 661.155 L1742.7 652.964 L1742.86 644.773 L1742.47 636.582 L1741.46 628.391 L1739.74 620.2 L1737.28 612.008 L1734.09 603.817 L1730.21 595.626 L1725.75 587.435 L1720.84 579.244 L1715.67 571.053 L1710.47 562.862 L1705.44 554.671 L1700.82 546.48 L1696.82 538.289 L1693.61 530.097 L1691.32 521.906 L1690.02 513.715 L1689.7 505.524 L1690.32 497.333 L1691.74 489.142 L1693.8 480.951 L1696.27 472.76 L1698.93 464.569 L1701.53 456.378 L1703.81 448.187 L1705.54 439.995 L1706.54 431.804 L1706.62 423.613 L1705.67 415.422 L1703.61 407.231 L1700.41 399.04 L1696.09 390.849 L1690.7 382.658 L1684.35 374.467 L1677.14 366.276 L1669.25 358.084 L1660.82 349.893 L1652.04 341.702 L1643.06 333.511 L1634.03 325.32 L1625.1 317.129 L1616.38 308.938 L1607.96 300.747 L1599.92 292.556 L1592.31 284.365 L1585.17 276.174 L1578.53 267.982 L1572.41 259.791 L1566.82 251.6 L1561.76 243.409 L1557.23 235.218 L1553.22 227.027 L1549.71 218.836 L1546.67 210.645 L1544.07 202.454 L1541.85 194.263 L1539.95 186.072 L1538.34 177.88 L1536.94 169.689 L1510.78 169.689 L1509.38 177.88 L1507.77 186.072 L1505.88 194.263 L1503.65 202.454 L1501.05 210.645 L1498.01 218.836 L1494.5 227.027 L1490.49 235.218 L1485.96 243.409 L1480.9 251.6 L1475.31 259.791 L1469.19 267.982 L1462.55 276.174 L1455.41 284.365 L1447.8 292.556 L1439.76 300.747 L1431.34 308.938 L1422.62 317.129 L1413.69 325.32 L1404.67 333.511 L1395.68 341.702 L1386.9 349.893 L1378.47 358.084 L1370.58 366.276 L1363.38 374.467 L1357.02 382.658 L1351.63 390.849 L1347.31 399.04 L1344.11 407.231 L1342.05 415.422 L1341.1 423.613 L1341.19 431.804 L1342.18 439.995 L1343.91 448.187 L1346.19 456.378 L1348.79 464.569 L1351.45 472.76 L1353.92 480.951 L1355.98 489.142 L1357.4 497.333 L1358.02 505.524 L1357.7 513.715 L1356.4 521.906 L1354.11 530.097 L1350.9 538.289 L1346.9 546.48 L1342.28 554.671 L1337.26 562.862 L1332.05 571.053 L1326.88 579.244 L1321.97 587.435 L1317.51 595.626 L1313.63 603.817 L1310.44 612.008 L1307.98 620.2 L1306.26 628.391 L1305.25 636.582 L1304.87 644.773 L1305.02 652.964 L1305.62 661.155 L1306.55 669.346 L1307.72 677.537 L1309.07 685.728 L1310.55 693.919 L1312.15 702.11 L1313.89 710.302 L1315.81 718.493 L1317.98 726.684 L1320.47 734.875 L1323.39 743.066 L1326.8 751.257 L1330.79 759.448 L1335.4 767.639 L1340.66 775.83 L1346.57 784.021 L1353.1 792.213 L1360.2 800.404 L1367.78 808.595 L1375.74 816.786 L1383.98 824.977 L1392.38 833.168 L1400.82 841.359 L1409.2 849.55 L1417.43 857.741 L1425.42 865.932 L1433.11 874.123 L1440.46 882.315 L1447.42 890.506 L1453.97 898.697 L1460.11 906.888 L1465.81 915.079 L1471.07 923.27 L1475.87 931.461 L1480.22 939.652 L1484.09 947.843 L1487.47 956.034 L1490.36 964.225 L1492.75 972.417 L1494.67 980.608 L1496.13 988.799 L1497.18 996.99 L1497.88 1005.18 L1498.3 1013.37 L1498.52 1021.56 L1498.63 1029.75 L1498.71 1037.95 L1498.85 1046.14 L1499.11 1054.33 L1499.53 1062.52 L1500.14 1070.71 L1500.95 1078.9 L1501.94 1087.09 L1503.07 1095.28 L1504.31 1103.47 L1505.59 1111.67 L1506.86 1119.86 L1508.08 1128.05 L1509.19 1136.24 L1510.16 1144.43 L1510.98 1152.62 L1511.63 1160.81 L1512.12 1169 L1512.48 1177.19 L1512.71 1185.39 L1512.86 1193.58 L1512.94 1201.77 L1512.97 1209.96 L1512.98 1218.15 L1512.98 1226.34 L1512.99 1234.53 L1513 1242.72 L1513.02 1250.91 L1513.06 1259.1 L1513.11 1267.3 L1513.2 1275.49 L1513.31 1283.68 L1513.48 1291.87 L1513.7 1300.06 L1514 1308.25 L1533.73 1308.25  Z" fill="#009af9" fill-rule="evenodd" fill-opacity="1"/>
<polyline clip-path="url(#clip892)" style="stroke:#000000; stroke-linecap:round; stroke-linejoin:round; stroke-width:4; stroke-opacity:1; fill:none" points="1533.73,1308.25 1534.02,1300.06 1534.24,1291.87 1534.41,1283.68 1534.53,1275.49 1534.61,1267.3 1534.67,1259.1 1534.7,1250.91 1534.72,1242.72 1534.74,1234.53 1534.74,1226.34 1534.74,1218.15 1534.75,1209.96 1534.79,1201.77 1534.86,1193.58 1535.01,1185.39 1535.24,1177.19 1535.6,1169 1536.09,1160.81 1536.75,1152.62 1537.56,1144.43 1538.53,1136.24 1539.64,1128.05 1540.86,1119.86 1542.13,1111.67 1543.41,1103.47 1544.65,1095.28 1545.78,1087.09 1546.77,1078.9 1547.58,1070.71 1548.19,1062.52 1548.61,1054.33 1548.87,1046.14 1549.01,1037.95 1549.09,1029.75 1549.2,1021.56 1549.42,1013.37 1549.84,1005.18 1550.54,996.99 1551.59,988.799 1553.05,980.608 1554.97,972.417 1557.36,964.225 1560.25,956.034 1563.63,947.843 1567.5,939.652 1571.85,931.461 1576.65,923.27 1581.91,915.079 1587.62,906.888 1593.75,898.697 1600.3,890.506 1607.27,882.315 1614.61,874.123 1622.3,865.932 1630.29,857.741 1638.52,849.55 1646.9,841.359 1655.34,833.168 1663.74,824.977 1671.98,816.786 1679.94,808.595 1687.52,800.404 1694.62,792.213 1701.15,784.021 1707.06,775.83 1712.32,767.639 1716.93,759.448 1720.92,751.257 1724.33,743.066 1727.25,734.875 1729.74,726.684 1731.91,718.493 1733.83,710.302 1735.57,702.11 1737.17,693.919 1738.65,685.728 1740,677.537 1741.17,669.346 1742.1,661.155 1742.7,652.964 1742.86,644.773 1742.47,636.582 1741.46,628.391 1739.74,620.2 1737.28,612.008 1734.09,603.817 1730.21,595.626 1725.75,587.435 1720.84,579.244 1715.67,571.053 1710.47,562.862 1705.44,554.671 1700.82,546.48 1696.82,538.289 1693.61,530.097 1691.32,521.906 1690.02,513.715 1689.7,505.524 1690.32,497.333 1691.74,489.142 1693.8,480.951 1696.27,472.76 1698.93,464.569 1701.53,456.378 1703.81,448.187 1705.54,439.995 1706.54,431.804 1706.62,423.613 1705.67,415.422 1703.61,407.231 1700.41,399.04 1696.09,390.849 1690.7,382.658 1684.35,374.467 1677.14,366.276 1669.25,358.084 1660.82,349.893 1652.04,341.702 1643.06,333.511 1634.03,325.32 1625.1,317.129 1616.38,308.938 1607.96,300.747 1599.92,292.556 1592.31,284.365 1585.17,276.174 1578.53,267.982 1572.41,259.791 1566.82,251.6 1561.76,243.409 1557.23,235.218 1553.22,227.027 1549.71,218.836 1546.67,210.645 1544.07,202.454 1541.85,194.263 1539.95,186.072 1538.34,177.88 1536.94,169.689 1510.78,169.689 1509.38,177.88 1507.77,186.072 1505.88,194.263 1503.65,202.454 1501.05,210.645 1498.01,218.836 1494.5,227.027 1490.49,235.218 1485.96,243.409 1480.9,251.6 1475.31,259.791 1469.19,267.982 1462.55,276.174 1455.41,284.365 1447.8,292.556 1439.76,300.747 1431.34,308.938 1422.62,317.129 1413.69,325.32 1404.67,333.511 1395.68,341.702 1386.9,349.893 1378.47,358.084 1370.58,366.276 1363.38,374.467 1357.02,382.658 1351.63,390.849 1347.31,399.04 1344.11,407.231 1342.05,415.422 1341.1,423.613 1341.19,431.804 1342.18,439.995 1343.91,448.187 1346.19,456.378 1348.79,464.569 1351.45,472.76 1353.92,480.951 1355.98,489.142 1357.4,497.333 1358.02,505.524 1357.7,513.715 1356.4,521.906 1354.11,530.097 1350.9,538.289 1346.9,546.48 1342.28,554.671 1337.26,562.862 1332.05,571.053 1326.88,579.244 1321.97,587.435 1317.51,595.626 1313.63,603.817 1310.44,612.008 1307.98,620.2 1306.26,628.391 1305.25,636.582 1304.87,644.773 1305.02,652.964 1305.62,661.155 1306.55,669.346 1307.72,677.537 1309.07,685.728 1310.55,693.919 1312.15,702.11 1313.89,710.302 1315.81,718.493 1317.98,726.684 1320.47,734.875 1323.39,743.066 1326.8,751.257 1330.79,759.448 1335.4,767.639 1340.66,775.83 1346.57,784.021 1353.1,792.213 1360.2,800.404 1367.78,808.595 1375.74,816.786 1383.98,824.977 1392.38,833.168 1400.82,841.359 1409.2,849.55 1417.43,857.741 1425.42,865.932 1433.11,874.123 1440.46,882.315 1447.42,890.506 1453.97,898.697 1460.11,906.888 1465.81,915.079 1471.07,923.27 1475.87,931.461 1480.22,939.652 1484.09,947.843 1487.47,956.034 1490.36,964.225 1492.75,972.417 1494.67,980.608 1496.13,988.799 1497.18,996.99 1497.88,1005.18 1498.3,1013.37 1498.52,1021.56 1498.63,1029.75 1498.71,1037.95 1498.85,1046.14 1499.11,1054.33 1499.53,1062.52 1500.14,1070.71 1500.95,1078.9 1501.94,1087.09 1503.07,1095.28 1504.31,1103.47 1505.59,1111.67 1506.86,1119.86 1508.08,1128.05 1509.19,1136.24 1510.16,1144.43 1510.98,1152.62 1511.63,1160.81 1512.12,1169 1512.48,1177.19 1512.71,1185.39 1512.86,1193.58 1512.94,1201.77 1512.97,1209.96 1512.98,1218.15 1512.98,1226.34 1512.99,1234.53 1513,1242.72 1513.02,1250.91 1513.06,1259.1 1513.11,1267.3 1513.2,1275.49 1513.31,1283.68 1513.48,1291.87 1513.7,1300.06 1514,1308.25 1533.73,1308.25 "/>
<path clip-path="url(#clip892)" d="M2290.34 1013.56 L2289.62 1010.13 L2288.2 1006.69 L2286.11 1003.26 L2283.37 999.822 L2280.02 996.387 L2276.11 992.952 L2271.67 989.518 L2266.76 986.083 L2261.44 982.649 L2255.76 979.214 L2249.8 975.78 L2243.62 972.345 L2237.29 968.911 L2230.89 965.476 L2224.47 962.042 L2218.11 958.607 L2211.88 955.172 L2205.84 951.738 L2200.06 948.303 L2194.6 944.869 L2189.52 941.434 L2184.86 938 L2180.68 934.565 L2177.01 931.131 L2173.9 927.696 L2171.38 924.262 L2169.46 920.827 L2168.17 917.392 L2167.52 913.958 L2167.52 910.523 L2168.17 907.089 L2169.46 903.654 L2171.38 900.22 L2173.9 896.785 L2177.01 893.351 L2180.68 889.916 L2184.86 886.481 L2189.52 883.047 L2194.6 879.612 L2200.06 876.178 L2205.84 872.743 L2211.88 869.309 L2218.11 865.874 L2224.47 862.44 L2230.89 859.005 L2237.29 855.571 L2243.62 852.136 L2249.8 848.701 L2255.76 845.267 L2261.44 841.832 L2266.76 838.398 L2271.67 834.963 L2276.11 831.529 L2280.02 828.094 L2283.37 824.66 L2286.11 821.225 L2288.2 817.791 L2289.62 814.356 L2290.34 810.921 L1852.35 810.921 L1853.08 814.356 L1854.5 817.791 L1856.59 821.225 L1859.32 824.66 L1862.67 828.094 L1866.59 831.529 L1871.03 834.963 L1875.93 838.398 L1881.26 841.832 L1886.93 845.267 L1892.89 848.701 L1899.07 852.136 L1905.4 855.571 L1911.81 859.005 L1918.23 862.44 L1924.59 865.874 L1930.82 869.309 L1936.86 872.743 L1942.63 876.178 L1948.09 879.612 L1953.18 883.047 L1957.83 886.481 L1962.02 889.916 L1965.68 893.351 L1968.79 896.785 L1971.32 900.22 L1973.24 903.654 L1974.53 907.089 L1975.17 910.523 L1975.17 913.958 L1974.53 917.392 L1973.24 920.827 L1971.32 924.262 L1968.79 927.696 L1965.68 931.131 L1962.02 934.565 L1957.83 938 L1953.18 941.434 L1948.09 944.869 L1942.63 948.303 L1936.86 951.738 L1930.82 955.172 L1924.59 958.607 L1918.23 962.042 L1911.81 965.476 L1905.4 968.911 L1899.07 972.345 L1892.89 975.78 L1886.93 979.214 L1881.26 982.649 L1875.93 986.083 L1871.03 989.518 L1866.59 992.952 L1862.67 996.387 L1859.32 999.822 L1856.59 1003.26 L1854.5 1006.69 L1853.08 1010.13 L1852.35 1013.56 L2290.34 1013.56  Z" fill="#009af9" fill-rule="evenodd" fill-opacity="1"/>
<polyline clip-path="url(#clip892)" style="stroke:#000000; stroke-linecap:round; stroke-linejoin:round; stroke-width:4; stroke-opacity:1; fill:none" points="2290.34,1013.56 2289.62,1010.13 2288.2,1006.69 2286.11,1003.26 2283.37,999.822 2280.02,996.387 2276.11,992.952 2271.67,989.518 2266.76,986.083 2261.44,982.649 2255.76,979.214 2249.8,975.78 2243.62,972.345 2237.29,968.911 2230.89,965.476 2224.47,962.042 2218.11,958.607 2211.88,955.172 2205.84,951.738 2200.06,948.303 2194.6,944.869 2189.52,941.434 2184.86,938 2180.68,934.565 2177.01,931.131 2173.9,927.696 2171.38,924.262 2169.46,920.827 2168.17,917.392 2167.52,913.958 2167.52,910.523 2168.17,907.089 2169.46,903.654 2171.38,900.22 2173.9,896.785 2177.01,893.351 2180.68,889.916 2184.86,886.481 2189.52,883.047 2194.6,879.612 2200.06,876.178 2205.84,872.743 2211.88,869.309 2218.11,865.874 2224.47,862.44 2230.89,859.005 2237.29,855.571 2243.62,852.136 2249.8,848.701 2255.76,845.267 2261.44,841.832 2266.76,838.398 2271.67,834.963 2276.11,831.529 2280.02,828.094 2283.37,824.66 2286.11,821.225 2288.2,817.791 2289.62,814.356 2290.34,810.921 1852.35,810.921 1853.08,814.356 1854.5,817.791 1856.59,821.225 1859.32,824.66 1862.67,828.094 1866.59,831.529 1871.03,834.963 1875.93,838.398 1881.26,841.832 1886.93,845.267 1892.89,848.701 1899.07,852.136 1905.4,855.571 1911.81,859.005 1918.23,862.44 1924.59,865.874 1930.82,869.309 1936.86,872.743 1942.63,876.178 1948.09,879.612 1953.18,883.047 1957.83,886.481 1962.02,889.916 1965.68,893.351 1968.79,896.785 1971.32,900.22 1973.24,903.654 1974.53,907.089 1975.17,910.523 1975.17,913.958 1974.53,917.392 1973.24,920.827 1971.32,924.262 1968.79,927.696 1965.68,931.131 1962.02,934.565 1957.83,938 1953.18,941.434 1948.09,944.869 1942.63,948.303 1936.86,951.738 1930.82,955.172 1924.59,958.607 1918.23,962.042 1911.81,965.476 1905.4,968.911 1899.07,972.345 1892.89,975.78 1886.93,979.214 1881.26,982.649 1875.93,986.083 1871.03,989.518 1866.59,992.952 1862.67,996.387 1859.32,999.822 1856.59,1003.26 1854.5,1006.69 1853.08,1010.13 1852.35,1013.56 2290.34,1013.56 "/>
<path clip-path="url(#clip892)" d="M428.886 1447.87 L415.199 1447.87 L442.573 1447.87 L428.886 1447.87 L428.886 1161.99 L428.886 1447.87  Z" fill="#e26f46" fill-rule="evenodd" fill-opacity="0.8"/>
<polyline clip-path="url(#clip892)" style="stroke:#000000; stroke-linecap:round; stroke-linejoin:round; stroke-width:8; stroke-opacity:1; fill:none" points="428.886,1447.87 415.199,1447.87 442.573,1447.87 428.886,1447.87 428.886,1161.99 428.886,1447.87 "/>
<path clip-path="url(#clip892)" d="M456.261 1161.99 L456.261 1001.69 L401.512 1001.69 L401.512 1161.99 L456.261 1161.99 L456.261 1001.69 L456.261 1161.99  Z" fill="#e26f46" fill-rule="evenodd" fill-opacity="0.8"/>
<polyline clip-path="url(#clip892)" style="stroke:#000000; stroke-linecap:round; stroke-linejoin:round; stroke-width:8; stroke-opacity:1; fill:none" points="456.261,1161.99 456.261,1001.69 401.512,1001.69 401.512,1161.99 456.261,1161.99 456.261,1001.69 456.261,1161.99 "/>
<path clip-path="url(#clip892)" d="M456.261 842.35 L401.512 842.35 L401.512 1001.69 L456.261 1001.69 L456.261 842.35 L428.886 842.35 L456.261 842.35  Z" fill="#e26f46" fill-rule="evenodd" fill-opacity="0.8"/>
<polyline clip-path="url(#clip892)" style="stroke:#000000; stroke-linecap:round; stroke-linejoin:round; stroke-width:8; stroke-opacity:1; fill:none" points="456.261,842.35 401.512,842.35 401.512,1001.69 456.261,1001.69 456.261,842.35 428.886,842.35 456.261,842.35 "/>
<path clip-path="url(#clip892)" d="M428.886 580.972 L415.199 580.972 L442.573 580.972 L428.886 580.972 L428.886 842.35 L428.886 580.972  Z" fill="#e26f46" fill-rule="evenodd" fill-opacity="0.8"/>
<polyline clip-path="url(#clip892)" style="stroke:#000000; stroke-linecap:round; stroke-linejoin:round; stroke-width:8; stroke-opacity:1; fill:none" points="428.886,580.972 415.199,580.972 442.573,580.972 428.886,580.972 428.886,842.35 428.886,580.972 "/>
<path clip-path="url(#clip892)" d="M976.373 1419.57 L962.686 1419.57 L990.061 1419.57 L976.373 1419.57 L976.373 1012.41 L976.373 1419.57  Z" fill="#e26f46" fill-rule="evenodd" fill-opacity="0.8"/>
<polyline clip-path="url(#clip892)" style="stroke:#000000; stroke-linecap:round; stroke-linejoin:round; stroke-width:8; stroke-opacity:1; fill:none" points="976.373,1419.57 962.686,1419.57 990.061,1419.57 976.373,1419.57 976.373,1012.41 976.373,1419.57 "/>
<path clip-path="url(#clip892)" d="M1003.75 1012.41 L1003.75 830.797 L948.999 830.797 L948.999 1012.41 L1003.75 1012.41 L1003.75 830.797 L1003.75 1012.41  Z" fill="#e26f46" fill-rule="evenodd" fill-opacity="0.8"/>
<polyline clip-path="url(#clip892)" style="stroke:#000000; stroke-linecap:round; stroke-linejoin:round; stroke-width:8; stroke-opacity:1; fill:none" points="1003.75,1012.41 1003.75,830.797 948.999,830.797 948.999,1012.41 1003.75,1012.41 1003.75,830.797 1003.75,1012.41 "/>
<path clip-path="url(#clip892)" d="M1003.75 725.039 L948.999 725.039 L948.999 830.797 L1003.75 830.797 L1003.75 725.039 L976.373 725.039 L1003.75 725.039  Z" fill="#e26f46" fill-rule="evenodd" fill-opacity="0.8"/>
<polyline clip-path="url(#clip892)" style="stroke:#000000; stroke-linecap:round; stroke-linejoin:round; stroke-width:8; stroke-opacity:1; fill:none" points="1003.75,725.039 948.999,725.039 948.999,830.797 1003.75,830.797 1003.75,725.039 976.373,725.039 1003.75,725.039 "/>
<path clip-path="url(#clip892)" d="M976.373 407.439 L962.686 407.439 L990.061 407.439 L976.373 407.439 L976.373 725.039 L976.373 407.439  Z" fill="#e26f46" fill-rule="evenodd" fill-opacity="0.8"/>
<polyline clip-path="url(#clip892)" style="stroke:#000000; stroke-linecap:round; stroke-linejoin:round; stroke-width:8; stroke-opacity:1; fill:none" points="976.373,407.439 962.686,407.439 990.061,407.439 976.373,407.439 976.373,725.039 976.373,407.439 "/>
<path clip-path="url(#clip892)" d="M1523.86 1210.5 L1510.17 1210.5 L1537.55 1210.5 L1523.86 1210.5 L1523.86 758.922 L1523.86 1210.5  Z" fill="#e26f46" fill-rule="evenodd" fill-opacity="0.8"/>
<polyline clip-path="url(#clip892)" style="stroke:#000000; stroke-linecap:round; stroke-linejoin:round; stroke-width:8; stroke-opacity:1; fill:none" points="1523.86,1210.5 1510.17,1210.5 1537.55,1210.5 1523.86,1210.5 1523.86,758.922 1523.86,1210.5 "/>
<path clip-path="url(#clip892)" d="M1551.23 758.922 L1551.23 623.717 L1496.49 623.717 L1496.49 758.922 L1551.23 758.922 L1551.23 623.717 L1551.23 758.922  Z" fill="#e26f46" fill-rule="evenodd" fill-opacity="0.8"/>
<polyline clip-path="url(#clip892)" style="stroke:#000000; stroke-linecap:round; stroke-linejoin:round; stroke-width:8; stroke-opacity:1; fill:none" points="1551.23,758.922 1551.23,623.717 1496.49,623.717 1496.49,758.922 1551.23,758.922 1551.23,623.717 1551.23,758.922 "/>
<path clip-path="url(#clip892)" d="M1551.23 454.221 L1496.49 454.221 L1496.49 623.717 L1551.23 623.717 L1551.23 454.221 L1523.86 454.221 L1551.23 454.221  Z" fill="#e26f46" fill-rule="evenodd" fill-opacity="0.8"/>
<polyline clip-path="url(#clip892)" style="stroke:#000000; stroke-linecap:round; stroke-linejoin:round; stroke-width:8; stroke-opacity:1; fill:none" points="1551.23,454.221 1496.49,454.221 1496.49,623.717 1551.23,623.717 1551.23,454.221 1523.86,454.221 1551.23,454.221 "/>
<path clip-path="url(#clip892)" d="M1523.86 162.047 L1510.17 162.047 L1537.55 162.047 L1523.86 162.047 L1523.86 454.221 L1523.86 162.047  Z" fill="#e26f46" fill-rule="evenodd" fill-opacity="0.8"/>
<polyline clip-path="url(#clip892)" style="stroke:#000000; stroke-linecap:round; stroke-linejoin:round; stroke-width:8; stroke-opacity:1; fill:none" points="1523.86,162.047 1510.17,162.047 1537.55,162.047 1523.86,162.047 1523.86,454.221 1523.86,162.047 "/>
<path clip-path="url(#clip892)" d="M2071.35 1015.89 L2057.66 1015.89 L2085.03 1015.89 L2071.35 1015.89 L2071.35 1015.89 L2071.35 1015.89  Z" fill="#e26f46" fill-rule="evenodd" fill-opacity="0.8"/>
<polyline clip-path="url(#clip892)" style="stroke:#000000; stroke-linecap:round; stroke-linejoin:round; stroke-width:8; stroke-opacity:1; fill:none" points="2071.35,1015.89 2057.66,1015.89 2085.03,1015.89 2071.35,1015.89 "/>
<path clip-path="url(#clip892)" d="M2098.72 1015.89 L2098.72 912.241 L2043.97 912.241 L2043.97 1015.89 L2098.72 1015.89 L2098.72 912.241 L2098.72 1015.89  Z" fill="#e26f46" fill-rule="evenodd" fill-opacity="0.8"/>
<polyline clip-path="url(#clip892)" style="stroke:#000000; stroke-linecap:round; stroke-linejoin:round; stroke-width:8; stroke-opacity:1; fill:none" points="2098.72,1015.89 2098.72,912.241 2043.97,912.241 2043.97,1015.89 2098.72,1015.89 2098.72,912.241 2098.72,1015.89 "/>
<path clip-path="url(#clip892)" d="M2098.72 808.593 L2043.97 808.593 L2043.97 912.241 L2098.72 912.241 L2098.72 808.593 L2071.35 808.593 L2098.72 808.593  Z" fill="#e26f46" fill-rule="evenodd" fill-opacity="0.8"/>
<polyline clip-path="url(#clip892)" style="stroke:#000000; stroke-linecap:round; stroke-linejoin:round; stroke-width:8; stroke-opacity:1; fill:none" points="2098.72,808.593 2043.97,808.593 2043.97,912.241 2098.72,912.241 2098.72,808.593 2071.35,808.593 2098.72,808.593 "/>
<path clip-path="url(#clip892)" d="M2071.35 808.593 L2057.66 808.593 L2085.03 808.593 L2071.35 808.593 L2071.35 808.593 L2071.35 808.593  Z" fill="#e26f46" fill-rule="evenodd" fill-opacity="0.8"/>
<polyline clip-path="url(#clip892)" style="stroke:#000000; stroke-linecap:round; stroke-linejoin:round; stroke-width:8; stroke-opacity:1; fill:none" points="2071.35,808.593 2057.66,808.593 2085.03,808.593 2071.35,808.593 "/>
<circle clip-path="url(#clip892)" cx="1523.86" cy="1315.89" r="14.4" fill="#e26f46" fill-rule="evenodd" fill-opacity="1" stroke="#000000" stroke-opacity="1" stroke-width="3.2"/>
<polyline clip-path="url(#clip892)" style="stroke:#e26f46; stroke-linecap:round; stroke-linejoin:round; stroke-width:0; stroke-opacity:1; fill:none" points="428.886,1447.87 415.199,1447.87 442.573,1447.87 428.886,1447.87 428.886,1161.99 "/>
<polyline clip-path="url(#clip892)" style="stroke:#e26f46; stroke-linecap:round; stroke-linejoin:round; stroke-width:0; stroke-opacity:1; fill:none" points="456.261,1161.99 456.261,1001.69 401.512,1001.69 401.512,1161.99 456.261,1161.99 456.261,1001.69 "/>
<polyline clip-path="url(#clip892)" style="stroke:#e26f46; stroke-linecap:round; stroke-linejoin:round; stroke-width:0; stroke-opacity:1; fill:none" points="456.261,842.35 401.512,842.35 401.512,1001.69 456.261,1001.69 456.261,842.35 428.886,842.35 "/>
<polyline clip-path="url(#clip892)" style="stroke:#e26f46; stroke-linecap:round; stroke-linejoin:round; stroke-width:0; stroke-opacity:1; fill:none" points="428.886,580.972 415.199,580.972 442.573,580.972 428.886,580.972 428.886,842.35 "/>
<polyline clip-path="url(#clip892)" style="stroke:#e26f46; stroke-linecap:round; stroke-linejoin:round; stroke-width:0; stroke-opacity:1; fill:none" points="976.373,1419.57 962.686,1419.57 990.061,1419.57 976.373,1419.57 976.373,1012.41 "/>
<polyline clip-path="url(#clip892)" style="stroke:#e26f46; stroke-linecap:round; stroke-linejoin:round; stroke-width:0; stroke-opacity:1; fill:none" points="1003.75,1012.41 1003.75,830.797 948.999,830.797 948.999,1012.41 1003.75,1012.41 1003.75,830.797 "/>
<polyline clip-path="url(#clip892)" style="stroke:#e26f46; stroke-linecap:round; stroke-linejoin:round; stroke-width:0; stroke-opacity:1; fill:none" points="1003.75,725.039 948.999,725.039 948.999,830.797 1003.75,830.797 1003.75,725.039 976.373,725.039 "/>
<polyline clip-path="url(#clip892)" style="stroke:#e26f46; stroke-linecap:round; stroke-linejoin:round; stroke-width:0; stroke-opacity:1; fill:none" points="976.373,407.439 962.686,407.439 990.061,407.439 976.373,407.439 976.373,725.039 "/>
<polyline clip-path="url(#clip892)" style="stroke:#e26f46; stroke-linecap:round; stroke-linejoin:round; stroke-width:0; stroke-opacity:1; fill:none" points="1523.86,1210.5 1510.17,1210.5 1537.55,1210.5 1523.86,1210.5 1523.86,758.922 "/>
<polyline clip-path="url(#clip892)" style="stroke:#e26f46; stroke-linecap:round; stroke-linejoin:round; stroke-width:0; stroke-opacity:1; fill:none" points="1551.23,758.922 1551.23,623.717 1496.49,623.717 1496.49,758.922 1551.23,758.922 1551.23,623.717 "/>
<polyline clip-path="url(#clip892)" style="stroke:#e26f46; stroke-linecap:round; stroke-linejoin:round; stroke-width:0; stroke-opacity:1; fill:none" points="1551.23,454.221 1496.49,454.221 1496.49,623.717 1551.23,623.717 1551.23,454.221 1523.86,454.221 "/>
<polyline clip-path="url(#clip892)" style="stroke:#e26f46; stroke-linecap:round; stroke-linejoin:round; stroke-width:0; stroke-opacity:1; fill:none" points="1523.86,162.047 1510.17,162.047 1537.55,162.047 1523.86,162.047 1523.86,454.221 "/>
<polyline clip-path="url(#clip892)" style="stroke:#e26f46; stroke-linecap:round; stroke-linejoin:round; stroke-width:0; stroke-opacity:1; fill:none" points="2071.35,1015.89 2057.66,1015.89 2085.03,1015.89 2071.35,1015.89 "/>
<polyline clip-path="url(#clip892)" style="stroke:#e26f46; stroke-linecap:round; stroke-linejoin:round; stroke-width:0; stroke-opacity:1; fill:none" points="2098.72,1015.89 2098.72,912.241 2043.97,912.241 2043.97,1015.89 2098.72,1015.89 2098.72,912.241 "/>
<polyline clip-path="url(#clip892)" style="stroke:#e26f46; stroke-linecap:round; stroke-linejoin:round; stroke-width:0; stroke-opacity:1; fill:none" points="2098.72,808.593 2043.97,808.593 2043.97,912.241 2098.72,912.241 2098.72,808.593 2071.35,808.593 "/>
<polyline clip-path="url(#clip892)" style="stroke:#e26f46; stroke-linecap:round; stroke-linejoin:round; stroke-width:0; stroke-opacity:1; fill:none" points="2071.35,808.593 2057.66,808.593 2085.03,808.593 2071.35,808.593 "/>
</svg>
