<?xml version="1.0" encoding="UTF-8"?>
<svg xmlns="http://www.w3.org/2000/svg"
     xmlns:xlink="http://www.w3.org/1999/xlink"
     xmlns:gadfly="http://www.gadflyjl.org/ns"
     version="1.2"
     width="141.42mm" height="100mm" viewBox="0 0 141.42 100"
     stroke="none"
     fill="#000000"
     stroke-width="0.3"
     font-size="3.88"
>
<defs>
  <marker id="arrow" markerWidth="15" markerHeight="7" refX="5" refY="3.5" orient="auto" markerUnits="strokeWidth">
    <path d="M0,0 L15,3.5 L0,7 z" stroke="context-stroke" fill="context-stroke"/>
  </marker>
</defs>
<g class="plotroot xscalable yscalable" id="img-006337b8-1">
  <g font-size="3.88" font-family="'PT Sans','Helvetica Neue','Helvetica',sans-serif" fill="#564A55" stroke="#000000" stroke-opacity="0.000" id="img-006337b8-2">
    <g transform="translate(74.52,88.39)">
      <g class="primitive">
        <text text-anchor="middle" dy="0.6em">Parameter</text>
      </g>
    </g>
  </g>
  <g clip-path="url(#img-006337b8-3)">
    <g id="img-006337b8-4">
      <g class="plotpanel" id="img-006337b8-5">
        <metadata>
          <boundingbox value="12.611666666666665mm 5.0mm 123.80968957064285mm 80.38833333333332mm"/>
          <unitbox value="0.0 0.0 1.0 1.0"/>
        </metadata>
        <g font-size="3.88" font-family="'PT Sans','Helvetica Neue','Helvetica',sans-serif" fill="#564A55" stroke="#000000" stroke-opacity="0.000" id="img-006337b8-6">
          <g transform="translate(108.5,78.78)" id="img-006337b8-7">
            <g class="primitive">
              <text text-anchor="middle" dy="0.6em">B</text>
            </g>
          </g>
        </g>
        <g font-size="3.88" font-family="'PT Sans','Helvetica Neue','Helvetica',sans-serif" fill="#564A55" stroke="#000000" stroke-opacity="0.000" id="img-006337b8-8">
          <g transform="translate(51.67,78.78)" id="img-006337b8-9">
            <g class="primitive">
              <text text-anchor="middle" dy="0.6em">A</text>
            </g>
          </g>
        </g>
        <g class="guide xlabels" font-size="2.82" font-family="'PT Sans Caption','Helvetica Neue','Helvetica',sans-serif" fill="#6C606B" id="img-006337b8-10">
          <g transform="translate(84.59,72.1)" id="img-006337b8-11">
            <g class="primitive">
              <text text-anchor="middle" dy="0.6em">-5</text>
            </g>
          </g>
          <g transform="translate(108.5,72.1)" id="img-006337b8-12">
            <g class="primitive">
              <text text-anchor="middle" dy="0.6em">0</text>
            </g>
          </g>
          <g transform="translate(132.42,72.1)" id="img-006337b8-13">
            <g class="primitive">
              <text text-anchor="middle" dy="0.6em">5</text>
            </g>
          </g>
        </g>
        <g class="guide xlabels" font-size="2.82" font-family="'PT Sans Caption','Helvetica Neue','Helvetica',sans-serif" fill="#6C606B" id="img-006337b8-14">
          <g transform="translate(26.75,72.1)" id="img-006337b8-15">
            <g class="primitive">
              <text text-anchor="middle" dy="0.6em">-5</text>
            </g>
          </g>
          <g transform="translate(51.67,72.1)" id="img-006337b8-16">
            <g class="primitive">
              <text text-anchor="middle" dy="0.6em">0</text>
            </g>
          </g>
          <g transform="translate(76.59,72.1)" id="img-006337b8-17">
            <g class="primitive">
              <text text-anchor="middle" dy="0.6em">5</text>
            </g>
          </g>
        </g>
        <g clip-path="url(#img-006337b8-18)">
          <g id="img-006337b8-19">
            <g pointer-events="visible" stroke-width="0.3" fill="#000000" fill-opacity="0.000" stroke="#000000" stroke-opacity="0.000" class="guide background" id="img-006337b8-20">
              <g transform="translate(108.5,55.58)" id="img-006337b8-21">
                <path d="M-25.92,-15.53 L25.92,-15.53 25.92,15.53 -25.92,15.53  z" class="primitive"/>
              </g>
            </g>
            <g class="guide ygridlines xfixed" stroke-dasharray="0.5,0.5" stroke-width="0.2" stroke="#D0D0E0" id="img-006337b8-22">
              <g transform="translate(108.5,69.1)" id="img-006337b8-23">
                <path fill="none" d="M-25.92,0 L25.92,0 " class="primitive"/>
              </g>
              <g transform="translate(108.5,63.69)" id="img-006337b8-24">
                <path fill="none" d="M-25.92,0 L25.92,0 " class="primitive"/>
              </g>
              <g transform="translate(108.5,58.28)" id="img-006337b8-25">
                <path fill="none" d="M-25.92,0 L25.92,0 " class="primitive"/>
              </g>
              <g transform="translate(108.5,52.87)" id="img-006337b8-26">
                <path fill="none" d="M-25.92,0 L25.92,0 " class="primitive"/>
              </g>
              <g transform="translate(108.5,47.46)" id="img-006337b8-27">
                <path fill="none" d="M-25.92,0 L25.92,0 " class="primitive"/>
              </g>
              <g transform="translate(108.5,42.05)" id="img-006337b8-28">
                <path fill="none" d="M-25.92,0 L25.92,0 " class="primitive"/>
              </g>
            </g>
            <g class="guide xgridlines yfixed" stroke-dasharray="0.5,0.5" stroke-width="0.2" stroke="#D0D0E0" id="img-006337b8-29">
              <g transform="translate(84.59,55.58)" id="img-006337b8-30">
                <path fill="none" d="M0,-15.53 L0,15.53 " class="primitive"/>
              </g>
              <g transform="translate(108.5,55.58)" id="img-006337b8-31">
                <path fill="none" d="M0,-15.53 L0,15.53 " class="primitive"/>
              </g>
              <g transform="translate(132.42,55.58)" id="img-006337b8-32">
                <path fill="none" d="M0,-15.53 L0,15.53 " class="primitive"/>
              </g>
            </g>
            <g class="plotpanel" id="img-006337b8-33">
              <metadata>
                <boundingbox value="82.5852614519881mm 40.05166666666666mm 51.83609478532142mm 31.051666666666662mm"/>
                <unitbox value="-5.418094330019119 0.5369662990573594 10.836188660038237 -0.5739325981147188"/>
              </metadata>
              <g stroke-width="0.3" fill="#000000" fill-opacity="0.000" class="geometry" id="img-006337b8-34">
                <g class="color_LCHab{Float32}(70.0f0,60.0f0,240.0f0)" stroke-dasharray="none" stroke-opacity="1" stroke="#00BFFF" id="img-006337b8-35">
                  <g transform="translate(110.05,61.84)" id="img-006337b8-36">
                    <path fill="none" d="M-17.75,7.26 L-17.61,7.26 -17.47,7.26 -17.33,7.26 -17.19,7.26 -17.05,7.26 -16.91,7.26 -16.77,7.26 -16.63,7.26 -16.49,7.26 -16.35,7.26 -16.22,7.26 -16.08,7.26 -15.94,7.25 -15.8,7.25 -15.66,7.25 -15.52,7.24 -15.38,7.24 -15.24,7.23 -15.1,7.23 -14.96,7.22 -14.82,7.21 -14.68,7.2 -14.55,7.18 -14.41,7.16 -14.27,7.15 -14.13,7.12 -13.99,7.1 -13.85,7.07 -13.71,7.03 -13.57,7 -13.43,6.95 -13.29,6.91 -13.15,6.85 -13.01,6.79 -12.88,6.73 -12.74,6.66 -12.6,6.58 -12.46,6.5 -12.32,6.41 -12.18,6.31 -12.04,6.21 -11.9,6.09 -11.76,5.97 -11.62,5.85 -11.48,5.71 -11.34,5.57 -11.2,5.41 -11.07,5.25 -10.93,5.08 -10.79,4.9 -10.65,4.71 -10.51,4.51 -10.37,4.29 -10.23,4.07 -10.09,3.83 -9.95,3.57 -9.81,3.3 -9.67,3.02 -9.53,2.72 -9.4,2.41 -9.26,2.08 -9.12,1.74 -8.98,1.38 -8.84,1 -8.7,0.61 -8.56,0.21 -8.42,-0.2 -8.28,-0.63 -8.14,-1.06 -8,-1.5 -7.86,-1.95 -7.73,-2.39 -7.59,-2.84 -7.45,-3.28 -7.31,-3.72 -7.17,-4.15 -7.03,-4.57 -6.89,-4.97 -6.75,-5.36 -6.61,-5.73 -6.47,-6.08 -6.33,-6.42 -6.19,-6.73 -6.05,-7.02 -5.92,-7.3 -5.78,-7.55 -5.64,-7.79 -5.5,-8 -5.36,-8.2 -5.22,-8.39 -5.08,-8.56 -4.94,-8.73 -4.8,-8.88 -4.66,-9.03 -4.52,-9.18 -4.38,-9.32 -4.25,-9.47 -4.11,-9.61 -3.97,-9.76 -3.83,-9.92 -3.69,-10.07 -3.55,-10.23 -3.41,-10.39 -3.27,-10.56 -3.13,-10.73 -2.99,-10.89 -2.85,-11.05 -2.71,-11.21 -2.58,-11.35 -2.44,-11.49 -2.3,-11.61 -2.16,-11.72 -2.02,-11.8 -1.88,-11.86 -1.74,-11.9 -1.6,-11.92 -1.46,-11.9 -1.32,-11.86 -1.18,-11.79 -1.04,-11.7 -0.9,-11.57 -0.77,-11.43 -0.63,-11.26 -0.49,-11.07 -0.35,-10.86 -0.21,-10.64 -0.07,-10.41 0.07,-10.18 0.21,-9.93 0.35,-9.69 0.49,-9.45 0.63,-9.22 0.77,-8.99 0.9,-8.78 1.04,-8.57 1.18,-8.38 1.32,-8.2 1.46,-8.04 1.6,-7.89 1.74,-7.75 1.88,-7.63 2.02,-7.51 2.16,-7.41 2.3,-7.32 2.44,-7.24 2.58,-7.16 2.71,-7.08 2.85,-7.01 2.99,-6.94 3.13,-6.87 3.27,-6.79 3.41,-6.71 3.55,-6.62 3.69,-6.53 3.83,-6.42 3.97,-6.31 4.11,-6.18 4.25,-6.05 4.38,-5.9 4.52,-5.73 4.66,-5.55 4.8,-5.36 4.94,-5.16 5.08,-4.94 5.22,-4.71 5.36,-4.46 5.5,-4.2 5.64,-3.93 5.78,-3.64 5.92,-3.35 6.05,-3.05 6.19,-2.73 6.33,-2.41 6.47,-2.08 6.61,-1.75 6.75,-1.41 6.89,-1.07 7.03,-0.73 7.17,-0.38 7.31,-0.04 7.45,0.3 7.59,0.63 7.73,0.96 7.86,1.28 8,1.6 8.14,1.9 8.28,2.2 8.42,2.49 8.56,2.76 8.7,3.03 8.84,3.28 8.98,3.52 9.12,3.74 9.26,3.96 9.4,4.16 9.53,4.35 9.67,4.53 9.81,4.7 9.95,4.86 10.09,5.02 10.23,5.16 10.37,5.29 10.51,5.42 10.65,5.54 10.79,5.65 10.93,5.76 11.07,5.87 11.2,5.97 11.34,6.06 11.48,6.15 11.62,6.24 11.76,6.32 11.9,6.4 12.04,6.47 12.18,6.54 12.32,6.61 12.46,6.67 12.6,6.73 12.74,6.79 12.88,6.84 13.01,6.89 13.15,6.93 13.29,6.97 13.43,7.01 13.57,7.04 13.71,7.07 13.85,7.1 13.99,7.12 14.13,7.14 14.27,7.16 14.41,7.18 14.55,7.19 14.68,7.2 14.82,7.21 14.96,7.22 15.1,7.23 15.24,7.24 15.38,7.24 15.52,7.25 15.66,7.25 15.8,7.25 15.94,7.25 16.08,7.26 16.22,7.26 16.35,7.26 16.49,7.26 16.63,7.26 16.77,7.26 16.91,7.26 17.05,7.26 17.19,7.26 17.33,7.26 17.47,7.26 17.61,7.26 17.75,7.26 " class="primitive"/>
                  </g>
                </g>
              </g>
            </g>
          </g>
        </g>
        <g clip-path="url(#img-006337b8-37)">
          <g id="img-006337b8-38">
            <g pointer-events="visible" stroke-width="0.3" fill="#000000" fill-opacity="0.000" stroke="#000000" stroke-opacity="0.000" class="guide background" id="img-006337b8-39">
              <g transform="translate(51.67,55.58)" id="img-006337b8-40">
                <path d="M-26.92,-15.53 L26.92,-15.53 26.92,15.53 -26.92,15.53  z" class="primitive"/>
              </g>
            </g>
            <g class="guide ygridlines xfixed" stroke-dasharray="0.5,0.5" stroke-width="0.2" stroke="#D0D0E0" id="img-006337b8-41">
              <g transform="translate(51.67,69.1)" id="img-006337b8-42">
                <path fill="none" d="M-26.92,0 L26.92,0 " class="primitive"/>
              </g>
              <g transform="translate(51.67,63.69)" id="img-006337b8-43">
                <path fill="none" d="M-26.92,0 L26.92,0 " class="primitive"/>
              </g>
              <g transform="translate(51.67,58.28)" id="img-006337b8-44">
                <path fill="none" d="M-26.92,0 L26.92,0 " class="primitive"/>
              </g>
              <g transform="translate(51.67,52.87)" id="img-006337b8-45">
                <path fill="none" d="M-26.92,0 L26.92,0 " class="primitive"/>
              </g>
              <g transform="translate(51.67,47.46)" id="img-006337b8-46">
                <path fill="none" d="M-26.92,0 L26.92,0 " class="primitive"/>
              </g>
              <g transform="translate(51.67,42.05)" id="img-006337b8-47">
                <path fill="none" d="M-26.92,0 L26.92,0 " class="primitive"/>
              </g>
            </g>
            <g class="guide xgridlines yfixed" stroke-dasharray="0.5,0.5" stroke-width="0.2" stroke="#D0D0E0" id="img-006337b8-48">
              <g transform="translate(26.75,55.58)" id="img-006337b8-49">
                <path fill="none" d="M0,-15.53 L0,15.53 " class="primitive"/>
              </g>
              <g transform="translate(51.67,55.58)" id="img-006337b8-50">
                <path fill="none" d="M0,-15.53 L0,15.53 " class="primitive"/>
              </g>
              <g transform="translate(76.59,55.58)" id="img-006337b8-51">
                <path fill="none" d="M0,-15.53 L0,15.53 " class="primitive"/>
              </g>
            </g>
            <g class="plotpanel" id="img-006337b8-52">
              <metadata>
                <boundingbox value="24.749166666666667mm 40.05166666666666mm 53.83609478532142mm 31.051666666666662mm"/>
                <unitbox value="-5.401315554241436 0.5369662990573594 10.802631108482872 -0.5739325981147188"/>
              </metadata>
              <g stroke-width="0.3" fill="#000000" fill-opacity="0.000" class="geometry" id="img-006337b8-53">
                <g class="color_LCHab{Float32}(70.0f0,60.0f0,240.0f0)" stroke-dasharray="none" stroke-opacity="1" stroke="#00BFFF" id="img-006337b8-54">
                  <g transform="translate(53.59,63.18)" id="img-006337b8-55">
                    <path fill="none" d="M-22.67,5.92 L-22.5,5.92 -22.32,5.92 -22.14,5.92 -21.96,5.92 -21.78,5.92 -21.61,5.92 -21.43,5.92 -21.25,5.92 -21.07,5.92 -20.9,5.92 -20.72,5.91 -20.54,5.91 -20.36,5.9 -20.18,5.9 -20.01,5.89 -19.83,5.88 -19.65,5.87 -19.47,5.86 -19.29,5.84 -19.12,5.83 -18.94,5.81 -18.76,5.78 -18.58,5.76 -18.41,5.73 -18.23,5.69 -18.05,5.66 -17.87,5.62 -17.69,5.58 -17.52,5.54 -17.34,5.5 -17.16,5.46 -16.98,5.42 -16.81,5.39 -16.63,5.35 -16.45,5.32 -16.27,5.29 -16.09,5.27 -15.92,5.25 -15.74,5.23 -15.56,5.22 -15.38,5.21 -15.2,5.2 -15.03,5.2 -14.85,5.19 -14.67,5.18 -14.49,5.16 -14.32,5.14 -14.14,5.11 -13.96,5.08 -13.78,5.03 -13.6,4.98 -13.43,4.91 -13.25,4.83 -13.07,4.74 -12.89,4.63 -12.71,4.51 -12.54,4.38 -12.36,4.24 -12.18,4.09 -12,3.93 -11.83,3.77 -11.65,3.6 -11.47,3.43 -11.29,3.26 -11.11,3.09 -10.94,2.92 -10.76,2.76 -10.58,2.6 -10.4,2.44 -10.23,2.29 -10.05,2.15 -9.87,2 -9.69,1.85 -9.51,1.7 -9.34,1.55 -9.16,1.38 -8.98,1.2 -8.8,0.99 -8.62,0.77 -8.45,0.52 -8.27,0.23 -8.09,-0.08 -7.91,-0.43 -7.74,-0.83 -7.56,-1.26 -7.38,-1.73 -7.2,-2.25 -7.02,-2.81 -6.85,-3.41 -6.67,-4.04 -6.49,-4.72 -6.31,-5.42 -6.14,-6.15 -5.96,-6.91 -5.78,-7.68 -5.6,-8.47 -5.42,-9.26 -5.25,-10.04 -5.07,-10.82 -4.89,-11.59 -4.71,-12.33 -4.53,-13.04 -4.36,-13.71 -4.18,-14.34 -4,-14.92 -3.82,-15.44 -3.65,-15.9 -3.47,-16.29 -3.29,-16.62 -3.11,-16.87 -2.93,-17.05 -2.76,-17.15 -2.58,-17.18 -2.4,-17.13 -2.22,-17.02 -2.05,-16.84 -1.87,-16.59 -1.69,-16.29 -1.51,-15.94 -1.33,-15.55 -1.16,-15.13 -0.98,-14.68 -0.8,-14.21 -0.62,-13.74 -0.44,-13.27 -0.27,-12.81 -0.09,-12.37 0.09,-11.96 0.27,-11.58 0.44,-11.23 0.62,-10.92 0.8,-10.66 0.98,-10.43 1.16,-10.25 1.33,-10.1 1.51,-9.98 1.69,-9.9 1.87,-9.83 2.05,-9.79 2.22,-9.75 2.4,-9.71 2.58,-9.66 2.76,-9.6 2.93,-9.52 3.11,-9.41 3.29,-9.27 3.47,-9.09 3.65,-8.88 3.82,-8.62 4,-8.32 4.18,-7.97 4.36,-7.59 4.53,-7.17 4.71,-6.71 4.89,-6.23 5.07,-5.72 5.25,-5.19 5.42,-4.66 5.6,-4.11 5.78,-3.57 5.96,-3.02 6.14,-2.49 6.31,-1.97 6.49,-1.47 6.67,-0.99 6.85,-0.52 7.02,-0.08 7.2,0.34 7.38,0.74 7.56,1.12 7.74,1.48 7.91,1.82 8.09,2.15 8.27,2.45 8.45,2.74 8.62,3.02 8.8,3.28 8.98,3.52 9.16,3.75 9.34,3.96 9.51,4.15 9.69,4.33 9.87,4.49 10.05,4.64 10.23,4.76 10.4,4.87 10.58,4.96 10.76,5.04 10.94,5.09 11.11,5.14 11.29,5.17 11.47,5.19 11.65,5.2 11.83,5.2 12,5.19 12.18,5.18 12.36,5.16 12.54,5.15 12.71,5.13 12.89,5.11 13.07,5.09 13.25,5.07 13.43,5.06 13.6,5.04 13.78,5.03 13.96,5.03 14.14,5.02 14.32,5.02 14.49,5.02 14.67,5.03 14.85,5.03 15.03,5.04 15.2,5.06 15.38,5.08 15.56,5.1 15.74,5.12 15.92,5.15 16.09,5.19 16.27,5.22 16.45,5.26 16.63,5.3 16.81,5.35 16.98,5.39 17.16,5.44 17.34,5.48 17.52,5.53 17.69,5.57 17.87,5.61 18.05,5.65 18.23,5.69 18.41,5.72 18.58,5.75 18.76,5.78 18.94,5.8 19.12,5.83 19.29,5.84 19.47,5.86 19.65,5.87 19.83,5.88 20.01,5.89 20.18,5.9 20.36,5.9 20.54,5.91 20.72,5.91 20.9,5.91 21.07,5.92 21.25,5.92 21.43,5.92 21.61,5.92 21.78,5.92 21.96,5.92 22.14,5.92 22.32,5.92 22.5,5.92 22.67,5.92 " class="primitive"/>
                  </g>
                </g>
              </g>
            </g>
          </g>
        </g>
        <g class="guide ylabels" font-size="2.82" font-family="'PT Sans Caption','Helvetica Neue','Helvetica',sans-serif" fill="#6C606B" id="img-006337b8-56">
          <g transform="translate(23.75,69.1)" id="img-006337b8-57">
            <g class="primitive">
              <text text-anchor="end" dy="0.35em">0.0</text>
            </g>
          </g>
          <g transform="translate(23.75,63.69)" id="img-006337b8-58">
            <g class="primitive">
              <text text-anchor="end" dy="0.35em">0.1</text>
            </g>
          </g>
          <g transform="translate(23.75,58.28)" id="img-006337b8-59">
            <g class="primitive">
              <text text-anchor="end" dy="0.35em">0.2</text>
            </g>
          </g>
          <g transform="translate(23.75,52.87)" id="img-006337b8-60">
            <g class="primitive">
              <text text-anchor="end" dy="0.35em">0.3</text>
            </g>
          </g>
          <g transform="translate(23.75,47.46)" id="img-006337b8-61">
            <g class="primitive">
              <text text-anchor="end" dy="0.35em">0.4</text>
            </g>
          </g>
          <g transform="translate(23.75,42.05)" id="img-006337b8-62">
            <g class="primitive">
              <text text-anchor="end" dy="0.35em">0.5</text>
            </g>
          </g>
        </g>
        <g font-size="3.88" font-family="'PT Sans','Helvetica Neue','Helvetica',sans-serif" fill="#564A55" stroke="#000000" stroke-opacity="0.000" id="img-006337b8-63">
          <g transform="translate(16.73,55.58)" id="img-006337b8-64">
            <g class="primitive">
              <text text-anchor="end" dy="0.35em">2</text>
            </g>
          </g>
        </g>
        <g clip-path="url(#img-006337b8-65)">
          <g id="img-006337b8-66">
            <g pointer-events="visible" stroke-width="0.3" fill="#000000" fill-opacity="0.000" stroke="#000000" stroke-opacity="0.000" class="guide background" id="img-006337b8-67">
              <g transform="translate(108.5,21.53)" id="img-006337b8-68">
                <path d="M-25.92,-14.53 L25.92,-14.53 25.92,14.53 -25.92,14.53  z" class="primitive"/>
              </g>
            </g>
            <g class="guide ygridlines xfixed" stroke-dasharray="0.5,0.5" stroke-width="0.2" stroke="#D0D0E0" id="img-006337b8-69">
              <g transform="translate(108.5,34.05)" id="img-006337b8-70">
                <path fill="none" d="M-25.92,0 L25.92,0 " class="primitive"/>
              </g>
              <g transform="translate(108.5,29.04)" id="img-006337b8-71">
                <path fill="none" d="M-25.92,0 L25.92,0 " class="primitive"/>
              </g>
              <g transform="translate(108.5,24.03)" id="img-006337b8-72">
                <path fill="none" d="M-25.92,0 L25.92,0 " class="primitive"/>
              </g>
              <g transform="translate(108.5,19.02)" id="img-006337b8-73">
                <path fill="none" d="M-25.92,0 L25.92,0 " class="primitive"/>
              </g>
              <g transform="translate(108.5,14.01)" id="img-006337b8-74">
                <path fill="none" d="M-25.92,0 L25.92,0 " class="primitive"/>
              </g>
              <g transform="translate(108.5,9)" id="img-006337b8-75">
                <path fill="none" d="M-25.92,0 L25.92,0 " class="primitive"/>
              </g>
            </g>
            <g class="guide xgridlines yfixed" stroke-dasharray="0.5,0.5" stroke-width="0.2" stroke="#D0D0E0" id="img-006337b8-76">
              <g transform="translate(84.59,21.53)" id="img-006337b8-77">
                <path fill="none" d="M0,-14.53 L0,14.53 " class="primitive"/>
              </g>
              <g transform="translate(108.5,21.53)" id="img-006337b8-78">
                <path fill="none" d="M0,-14.53 L0,14.53 " class="primitive"/>
              </g>
              <g transform="translate(132.42,21.53)" id="img-006337b8-79">
                <path fill="none" d="M0,-14.53 L0,14.53 " class="primitive"/>
              </g>
            </g>
            <g class="plotpanel" id="img-006337b8-80">
              <metadata>
                <boundingbox value="82.5852614519881mm 7.0mm 51.83609478532142mm 29.051666666666662mm"/>
                <unitbox value="-5.418094330019119 0.5399175038254275 10.836188660038237 -0.5798350076508549"/>
              </metadata>
              <g stroke-width="0.3" fill="#000000" fill-opacity="0.000" class="geometry" id="img-006337b8-81">
                <g class="color_LCHab{Float32}(70.0f0,60.0f0,240.0f0)" stroke-dasharray="none" stroke-opacity="1" stroke="#00BFFF" id="img-006337b8-82">
                  <g transform="translate(110.2,27.09)" id="img-006337b8-83">
                    <path fill="none" d="M-17.16,6.96 L-17.02,6.96 -16.89,6.96 -16.75,6.96 -16.62,6.95 -16.49,6.95 -16.35,6.95 -16.22,6.95 -16.08,6.95 -15.95,6.95 -15.81,6.94 -15.68,6.94 -15.54,6.93 -15.41,6.92 -15.27,6.91 -15.14,6.89 -15.01,6.88 -14.87,6.85 -14.74,6.83 -14.6,6.79 -14.47,6.75 -14.33,6.7 -14.2,6.65 -14.06,6.58 -13.93,6.5 -13.79,6.41 -13.66,6.31 -13.52,6.19 -13.39,6.06 -13.26,5.92 -13.12,5.76 -12.99,5.59 -12.85,5.4 -12.72,5.21 -12.58,5 -12.45,4.78 -12.31,4.56 -12.18,4.34 -12.04,4.11 -11.91,3.88 -11.78,3.65 -11.64,3.43 -11.51,3.22 -11.37,3.02 -11.24,2.83 -11.1,2.66 -10.97,2.5 -10.83,2.36 -10.7,2.23 -10.56,2.12 -10.43,2.03 -10.3,1.94 -10.16,1.88 -10.03,1.82 -9.89,1.77 -9.76,1.72 -9.62,1.68 -9.49,1.63 -9.35,1.58 -9.22,1.52 -9.08,1.45 -8.95,1.36 -8.81,1.24 -8.68,1.1 -8.55,0.94 -8.41,0.74 -8.28,0.51 -8.14,0.24 -8.01,-0.07 -7.87,-0.42 -7.74,-0.81 -7.6,-1.25 -7.47,-1.72 -7.33,-2.23 -7.2,-2.77 -7.07,-3.35 -6.93,-3.96 -6.8,-4.59 -6.66,-5.24 -6.53,-5.9 -6.39,-6.57 -6.26,-7.23 -6.12,-7.9 -5.99,-8.55 -5.85,-9.18 -5.72,-9.8 -5.58,-10.38 -5.45,-10.94 -5.32,-11.45 -5.18,-11.94 -5.05,-12.38 -4.91,-12.79 -4.78,-13.16 -4.64,-13.49 -4.51,-13.79 -4.37,-14.05 -4.24,-14.29 -4.1,-14.49 -3.97,-14.68 -3.84,-14.84 -3.7,-14.98 -3.57,-15.1 -3.43,-15.2 -3.3,-15.29 -3.16,-15.37 -3.03,-15.43 -2.89,-15.47 -2.76,-15.49 -2.62,-15.5 -2.49,-15.48 -2.36,-15.43 -2.22,-15.36 -2.09,-15.26 -1.95,-15.12 -1.82,-14.95 -1.68,-14.75 -1.55,-14.51 -1.41,-14.24 -1.28,-13.93 -1.14,-13.59 -1.01,-13.22 -0.87,-12.83 -0.74,-12.4 -0.61,-11.96 -0.47,-11.49 -0.34,-11.01 -0.2,-10.52 -0.07,-10.01 0.07,-9.5 0.2,-8.98 0.34,-8.45 0.47,-7.93 0.61,-7.4 0.74,-6.88 0.87,-6.37 1.01,-5.86 1.14,-5.35 1.28,-4.86 1.41,-4.38 1.55,-3.92 1.68,-3.47 1.82,-3.04 1.95,-2.63 2.09,-2.24 2.22,-1.88 2.36,-1.54 2.49,-1.23 2.62,-0.94 2.76,-0.67 2.89,-0.44 3.03,-0.22 3.16,-0.03 3.3,0.14 3.43,0.3 3.57,0.44 3.7,0.57 3.84,0.69 3.97,0.8 4.1,0.92 4.24,1.02 4.37,1.13 4.51,1.24 4.64,1.36 4.78,1.47 4.91,1.59 5.05,1.7 5.18,1.82 5.32,1.93 5.45,2.04 5.58,2.14 5.72,2.23 5.85,2.32 5.99,2.39 6.12,2.45 6.26,2.5 6.39,2.54 6.53,2.56 6.66,2.57 6.8,2.57 6.93,2.56 7.07,2.54 7.2,2.52 7.33,2.51 7.47,2.49 7.6,2.48 7.74,2.48 7.87,2.48 8.01,2.5 8.14,2.54 8.28,2.58 8.41,2.65 8.55,2.73 8.68,2.82 8.81,2.93 8.95,3.05 9.08,3.18 9.22,3.32 9.35,3.47 9.49,3.63 9.62,3.78 9.76,3.94 9.89,4.1 10.03,4.26 10.16,4.41 10.3,4.56 10.43,4.71 10.56,4.85 10.7,4.98 10.83,5.11 10.97,5.23 11.1,5.35 11.24,5.46 11.37,5.57 11.51,5.67 11.64,5.77 11.78,5.86 11.91,5.95 12.04,6.04 12.18,6.12 12.31,6.2 12.45,6.27 12.58,6.34 12.72,6.4 12.85,6.46 12.99,6.52 13.12,6.57 13.26,6.62 13.39,6.67 13.52,6.71 13.66,6.74 13.79,6.77 13.93,6.8 14.06,6.83 14.2,6.85 14.33,6.87 14.47,6.88 14.6,6.9 14.74,6.91 14.87,6.92 15.01,6.93 15.14,6.93 15.27,6.94 15.41,6.94 15.54,6.95 15.68,6.95 15.81,6.95 15.95,6.95 16.08,6.95 16.22,6.95 16.35,6.96 16.49,6.96 16.62,6.96 16.75,6.96 16.89,6.96 17.02,6.96 17.16,6.96 " class="primitive"/>
                  </g>
                </g>
              </g>
            </g>
          </g>
        </g>
        <g clip-path="url(#img-006337b8-84)">
          <g id="img-006337b8-85">
            <g pointer-events="visible" stroke-width="0.3" fill="#000000" fill-opacity="0.000" stroke="#000000" stroke-opacity="0.000" class="guide background" id="img-006337b8-86">
              <g transform="translate(51.67,21.53)" id="img-006337b8-87">
                <path d="M-26.92,-14.53 L26.92,-14.53 26.92,14.53 -26.92,14.53  z" class="primitive"/>
              </g>
            </g>
            <g class="guide ygridlines xfixed" stroke-dasharray="0.5,0.5" stroke-width="0.2" stroke="#D0D0E0" id="img-006337b8-88">
              <g transform="translate(51.67,34.05)" id="img-006337b8-89">
                <path fill="none" d="M-26.92,0 L26.92,0 " class="primitive"/>
              </g>
              <g transform="translate(51.67,29.04)" id="img-006337b8-90">
                <path fill="none" d="M-26.92,0 L26.92,0 " class="primitive"/>
              </g>
              <g transform="translate(51.67,24.03)" id="img-006337b8-91">
                <path fill="none" d="M-26.92,0 L26.92,0 " class="primitive"/>
              </g>
              <g transform="translate(51.67,19.02)" id="img-006337b8-92">
                <path fill="none" d="M-26.92,0 L26.92,0 " class="primitive"/>
              </g>
              <g transform="translate(51.67,14.01)" id="img-006337b8-93">
                <path fill="none" d="M-26.92,0 L26.92,0 " class="primitive"/>
              </g>
              <g transform="translate(51.67,9)" id="img-006337b8-94">
                <path fill="none" d="M-26.92,0 L26.92,0 " class="primitive"/>
              </g>
            </g>
            <g class="guide xgridlines yfixed" stroke-dasharray="0.5,0.5" stroke-width="0.2" stroke="#D0D0E0" id="img-006337b8-95">
              <g transform="translate(26.75,21.53)" id="img-006337b8-96">
                <path fill="none" d="M0,-14.53 L0,14.53 " class="primitive"/>
              </g>
              <g transform="translate(51.67,21.53)" id="img-006337b8-97">
                <path fill="none" d="M0,-14.53 L0,14.53 " class="primitive"/>
              </g>
              <g transform="translate(76.59,21.53)" id="img-006337b8-98">
                <path fill="none" d="M0,-14.53 L0,14.53 " class="primitive"/>
              </g>
            </g>
            <g class="plotpanel" id="img-006337b8-99">
              <metadata>
                <boundingbox value="24.749166666666667mm 7.0mm 53.83609478532142mm 29.051666666666662mm"/>
                <unitbox value="-5.401315554241436 0.5399175038254275 10.802631108482872 -0.5798350076508549"/>
              </metadata>
              <g stroke-width="0.3" fill="#000000" fill-opacity="0.000" class="geometry" id="img-006337b8-100">
                <g class="color_LCHab{Float32}(70.0f0,60.0f0,240.0f0)" stroke-dasharray="none" stroke-opacity="1" stroke="#00BFFF" id="img-006337b8-101">
                  <g transform="translate(51.45,27.71)" id="img-006337b8-102">
                    <path fill="none" d="M-19.61,6.34 L-19.45,6.34 -19.3,6.34 -19.14,6.34 -18.99,6.34 -18.84,6.34 -18.68,6.34 -18.53,6.34 -18.38,6.34 -18.22,6.34 -18.07,6.34 -17.91,6.34 -17.76,6.33 -17.61,6.33 -17.45,6.33 -17.3,6.32 -17.15,6.32 -16.99,6.31 -16.84,6.3 -16.68,6.29 -16.53,6.28 -16.38,6.27 -16.22,6.25 -16.07,6.24 -15.92,6.22 -15.76,6.19 -15.61,6.16 -15.45,6.13 -15.3,6.1 -15.15,6.06 -14.99,6.02 -14.84,5.98 -14.68,5.93 -14.53,5.88 -14.38,5.83 -14.22,5.77 -14.07,5.71 -13.92,5.64 -13.76,5.58 -13.61,5.51 -13.45,5.44 -13.3,5.37 -13.15,5.3 -12.99,5.22 -12.84,5.14 -12.69,5.06 -12.53,4.98 -12.38,4.9 -12.22,4.82 -12.07,4.73 -11.92,4.64 -11.76,4.55 -11.61,4.46 -11.46,4.36 -11.3,4.27 -11.15,4.17 -10.99,4.07 -10.84,3.97 -10.69,3.86 -10.53,3.75 -10.38,3.64 -10.23,3.52 -10.07,3.4 -9.92,3.27 -9.76,3.14 -9.61,3 -9.46,2.85 -9.3,2.68 -9.15,2.51 -9,2.32 -8.84,2.12 -8.69,1.9 -8.53,1.66 -8.38,1.4 -8.23,1.12 -8.07,0.82 -7.92,0.51 -7.77,0.17 -7.61,-0.18 -7.46,-0.56 -7.3,-0.95 -7.15,-1.35 -7,-1.77 -6.84,-2.19 -6.69,-2.62 -6.54,-3.06 -6.38,-3.5 -6.23,-3.94 -6.07,-4.37 -5.92,-4.8 -5.77,-5.23 -5.61,-5.64 -5.46,-6.05 -5.31,-6.45 -5.15,-6.83 -5,-7.21 -4.84,-7.57 -4.69,-7.93 -4.54,-8.28 -4.38,-8.62 -4.23,-8.95 -4.07,-9.28 -3.92,-9.61 -3.77,-9.93 -3.61,-10.25 -3.46,-10.57 -3.31,-10.89 -3.15,-11.21 -3,-11.53 -2.84,-11.84 -2.69,-12.14 -2.54,-12.44 -2.38,-12.73 -2.23,-13.01 -2.08,-13.27 -1.92,-13.51 -1.77,-13.72 -1.61,-13.91 -1.46,-14.07 -1.31,-14.19 -1.15,-14.28 -1,-14.33 -0.85,-14.35 -0.69,-14.32 -0.54,-14.26 -0.38,-14.16 -0.23,-14.02 -0.08,-13.85 0.08,-13.64 0.23,-13.41 0.38,-13.15 0.54,-12.87 0.69,-12.58 0.85,-12.26 1,-11.94 1.15,-11.6 1.31,-11.26 1.46,-10.91 1.61,-10.56 1.77,-10.21 1.92,-9.86 2.08,-9.51 2.23,-9.17 2.38,-8.82 2.54,-8.48 2.69,-8.15 2.84,-7.81 3,-7.48 3.15,-7.15 3.31,-6.82 3.46,-6.5 3.61,-6.17 3.77,-5.85 3.92,-5.52 4.07,-5.2 4.23,-4.87 4.38,-4.54 4.54,-4.22 4.69,-3.89 4.84,-3.57 5,-3.25 5.15,-2.93 5.31,-2.61 5.46,-2.3 5.61,-2 5.77,-1.7 5.92,-1.42 6.07,-1.14 6.23,-0.88 6.38,-0.63 6.54,-0.39 6.69,-0.16 6.84,0.06 7,0.26 7.15,0.45 7.3,0.63 7.46,0.81 7.61,0.97 7.77,1.13 7.92,1.29 8.07,1.44 8.23,1.58 8.38,1.72 8.53,1.86 8.69,2 8.84,2.13 9,2.26 9.15,2.38 9.3,2.5 9.46,2.62 9.61,2.73 9.76,2.83 9.92,2.93 10.07,3.03 10.23,3.11 10.38,3.2 10.53,3.27 10.69,3.35 10.84,3.42 10.99,3.49 11.15,3.56 11.3,3.63 11.46,3.7 11.61,3.77 11.76,3.85 11.92,3.93 12.07,4.02 12.22,4.11 12.38,4.2 12.53,4.3 12.69,4.4 12.84,4.51 12.99,4.62 13.15,4.73 13.3,4.84 13.45,4.95 13.61,5.06 13.76,5.17 13.92,5.28 14.07,5.38 14.22,5.48 14.38,5.57 14.53,5.66 14.68,5.74 14.84,5.82 14.99,5.89 15.15,5.95 15.3,6.01 15.45,6.06 15.61,6.1 15.76,6.14 15.92,6.17 16.07,6.2 16.22,6.23 16.38,6.25 16.53,6.27 16.68,6.28 16.84,6.29 16.99,6.3 17.15,6.31 17.3,6.32 17.45,6.32 17.61,6.33 17.76,6.33 17.91,6.33 18.07,6.34 18.22,6.34 18.38,6.34 18.53,6.34 18.68,6.34 18.84,6.34 18.99,6.34 19.14,6.34 19.3,6.34 19.45,6.34 19.61,6.34 " class="primitive"/>
                  </g>
                </g>
              </g>
            </g>
          </g>
        </g>
        <g class="guide ylabels" font-size="2.82" font-family="'PT Sans Caption','Helvetica Neue','Helvetica',sans-serif" fill="#6C606B" id="img-006337b8-103">
          <g transform="translate(23.75,34.05)" id="img-006337b8-104">
            <g class="primitive">
              <text text-anchor="end" dy="0.35em">0.0</text>
            </g>
          </g>
          <g transform="translate(23.75,29.04)" id="img-006337b8-105">
            <g class="primitive">
              <text text-anchor="end" dy="0.35em">0.1</text>
            </g>
          </g>
          <g transform="translate(23.75,24.03)" id="img-006337b8-106">
            <g class="primitive">
              <text text-anchor="end" dy="0.35em">0.2</text>
            </g>
          </g>
          <g transform="translate(23.75,19.02)" id="img-006337b8-107">
            <g class="primitive">
              <text text-anchor="end" dy="0.35em">0.3</text>
            </g>
          </g>
          <g transform="translate(23.75,14.01)" id="img-006337b8-108">
            <g class="primitive">
              <text text-anchor="end" dy="0.35em">0.4</text>
            </g>
          </g>
          <g transform="translate(23.75,9)" id="img-006337b8-109">
            <g class="primitive">
              <text text-anchor="end" dy="0.35em">0.5</text>
            </g>
          </g>
        </g>
        <g font-size="3.88" font-family="'PT Sans','Helvetica Neue','Helvetica',sans-serif" fill="#564A55" stroke="#000000" stroke-opacity="0.000" id="img-006337b8-110">
          <g transform="translate(16.73,21.53)" id="img-006337b8-111">
            <g class="primitive">
              <text text-anchor="end" dy="0.35em">1</text>
            </g>
          </g>
        </g>
      </g>
    </g>
  </g>
  <g font-size="3.88" font-family="'PT Sans','Helvetica Neue','Helvetica',sans-serif" fill="#564A55" stroke="#000000" stroke-opacity="0.000" id="img-006337b8-112">
    <g transform="translate(8.81,43.19)" id="img-006337b8-113">
      <g class="primitive">
        <text text-anchor="middle" dy="0.35em" transform="rotate(-90,0, 2)">Chain</text>
      </g>
    </g>
  </g>
</g>
<defs>
  <clipPath id="img-006337b8-3">
    <path d="M12.61,5 L136.42,5 136.42,85.39 12.61,85.39 " />
  </clipPath>
  <clipPath id="img-006337b8-18">
    <path d="M82.59,40.05 L134.42,40.05 134.42,71.1 82.59,71.1 " />
  </clipPath>
  <clipPath id="img-006337b8-37">
    <path d="M24.75,40.05 L78.59,40.05 78.59,71.1 24.75,71.1 " />
  </clipPath>
  <clipPath id="img-006337b8-65">
    <path d="M82.59,7 L134.42,7 134.42,36.05 82.59,36.05 " />
  </clipPath>
  <clipPath id="img-006337b8-84">
    <path d="M24.75,7 L78.59,7 78.59,36.05 24.75,36.05 " />
  </clipPath>
</defs>
</svg>
