<?xml version="1.0" encoding="UTF-8"?>
<svg xmlns="http://www.w3.org/2000/svg"
     xmlns:xlink="http://www.w3.org/1999/xlink"
     xmlns:gadfly="http://www.gadflyjl.org/ns"
     version="1.2"
     width="141.42mm" height="100mm" viewBox="0 0 141.42 100"
     stroke="none"
     fill="#000000"
     stroke-width="0.3"
     font-size="3.88"
>
<defs>
  <marker id="arrow" markerWidth="15" markerHeight="7" refX="5" refY="3.5" orient="auto" markerUnits="strokeWidth">
    <path d="M0,0 L15,3.5 L0,7 z" stroke="context-stroke" fill="context-stroke"/>
  </marker>
</defs>
<g class="plotroot xscalable yscalable" id="img-ca17287f-1">
  <g font-size="3.88" font-family="'PT Sans','Helvetica Neue','Helvetica',sans-serif" fill="#564A55" stroke="#000000" stroke-opacity="0.000" id="img-ca17287f-2">
    <g transform="translate(70.04,88.39)">
      <g class="primitive">
        <text text-anchor="middle" dy="0.6em">value</text>
      </g>
    </g>
  </g>
  <g class="guide colorkey" id="img-ca17287f-3">
    <g fill="#4C404B" font-size="2.82" font-family="'PT Sans','Helvetica Neue','Helvetica',sans-serif" id="img-ca17287f-4">
      <g transform="translate(131.29,43.38)" id="img-ca17287f-5" class="color_1">
        <g class="primitive">
          <text dy="0.35em">1</text>
        </g>
      </g>
      <g transform="translate(131.29,47.01)" id="img-ca17287f-6" class="color_2">
        <g class="primitive">
          <text dy="0.35em">2</text>
        </g>
      </g>
      <g transform="translate(131.29,50.63)" id="img-ca17287f-7" class="color_3">
        <g class="primitive">
          <text dy="0.35em">3</text>
        </g>
      </g>
    </g>
    <g fill-opacity="1" id="img-ca17287f-8">
      <g transform="translate(129.38,43.38)" id="img-ca17287f-9" stroke="#FFFFFF" fill="#00BFFF" class="color_1">
        <path d="M-0.91,-0.91 L0.91,-0.91 0.91,0.91 -0.91,0.91  z" class="primitive"/>
      </g>
      <g transform="translate(129.38,47.01)" id="img-ca17287f-10" stroke="#FFFFFF" fill="#D4CA3A" class="color_2">
        <path d="M-0.91,-0.91 L0.91,-0.91 0.91,0.91 -0.91,0.91  z" class="primitive"/>
      </g>
      <g transform="translate(129.38,50.63)" id="img-ca17287f-11" stroke="#FFFFFF" fill="#FF6DAE" class="color_3">
        <path d="M-0.91,-0.91 L0.91,-0.91 0.91,0.91 -0.91,0.91  z" class="primitive"/>
      </g>
    </g>
    <g fill="#362A35" font-size="3.88" font-family="'PT Sans','Helvetica Neue','Helvetica',sans-serif" stroke="#000000" stroke-opacity="0.000" id="img-ca17287f-12">
      <g transform="translate(128.47,39.56)" id="img-ca17287f-13">
        <g class="primitive">
          <text dy="-0em">chain</text>
        </g>
      </g>
    </g>
  </g>
  <g clip-path="url(#img-ca17287f-14)">
    <g id="img-ca17287f-15">
      <g class="plotpanel" id="img-ca17287f-16">
        <metadata>
          <boundingbox value="12.611666666666665mm 5.0mm 114.86302290397617mm 80.38833333333334mm"/>
          <unitbox value="0.0 0.0 1.0 1.0"/>
        </metadata>
        <g class="guide xlabels" font-size="2.82" font-family="'PT Sans Caption','Helvetica Neue','Helvetica',sans-serif" fill="#6C606B" id="img-ca17287f-17">
          <g transform="translate(26.9,81.72)" id="img-ca17287f-18">
            <g class="primitive">
              <text text-anchor="middle" dy="0.6em">-5</text>
            </g>
          </g>
          <g transform="translate(75.19,81.72)" id="img-ca17287f-19">
            <g class="primitive">
              <text text-anchor="middle" dy="0.6em">0</text>
            </g>
          </g>
          <g transform="translate(123.47,81.72)" id="img-ca17287f-20">
            <g class="primitive">
              <text text-anchor="middle" dy="0.6em">5</text>
            </g>
          </g>
        </g>
        <g clip-path="url(#img-ca17287f-21)">
          <g id="img-ca17287f-22">
            <g pointer-events="visible" stroke-width="0.3" fill="#000000" fill-opacity="0.000" stroke="#000000" stroke-opacity="0.000" class="guide background" id="img-ca17287f-23">
              <g transform="translate(75.19,62.79)" id="img-ca17287f-24">
                <path d="M-50.28,-17.93 L50.28,-17.93 50.28,17.93 -50.28,17.93  z" class="primitive"/>
              </g>
            </g>
            <g class="guide ygridlines xfixed" stroke-dasharray="0.5,0.5" stroke-width="0.2" stroke="#D0D0E0" id="img-ca17287f-25">
              <g transform="translate(75.19,78.72)" id="img-ca17287f-26">
                <path fill="none" d="M-50.28,0 L50.28,0 " class="primitive"/>
              </g>
              <g transform="translate(75.19,72.34)" id="img-ca17287f-27">
                <path fill="none" d="M-50.28,0 L50.28,0 " class="primitive"/>
              </g>
              <g transform="translate(75.19,65.97)" id="img-ca17287f-28">
                <path fill="none" d="M-50.28,0 L50.28,0 " class="primitive"/>
              </g>
              <g transform="translate(75.19,59.6)" id="img-ca17287f-29">
                <path fill="none" d="M-50.28,0 L50.28,0 " class="primitive"/>
              </g>
              <g transform="translate(75.19,53.23)" id="img-ca17287f-30">
                <path fill="none" d="M-50.28,0 L50.28,0 " class="primitive"/>
              </g>
              <g transform="translate(75.19,46.86)" id="img-ca17287f-31">
                <path fill="none" d="M-50.28,0 L50.28,0 " class="primitive"/>
              </g>
            </g>
            <g class="guide xgridlines yfixed" stroke-dasharray="0.5,0.5" stroke-width="0.2" stroke="#D0D0E0" id="img-ca17287f-32">
              <g transform="translate(26.9,62.79)" id="img-ca17287f-33">
                <path fill="none" d="M0,-17.93 L0,17.93 " class="primitive"/>
              </g>
              <g transform="translate(75.19,62.79)" id="img-ca17287f-34">
                <path fill="none" d="M0,-17.93 L0,17.93 " class="primitive"/>
              </g>
              <g transform="translate(123.47,62.79)" id="img-ca17287f-35">
                <path fill="none" d="M0,-17.93 L0,17.93 " class="primitive"/>
              </g>
            </g>
            <g class="plotpanel" id="img-ca17287f-36">
              <metadata>
                <boundingbox value="24.904999999999987mm 44.8575mm 100.56968957064285mm 35.8575mm"/>
                <unitbox value="-5.207104321127279 0.5313897826257553 10.414208642254557 -0.5627795652515106"/>
              </metadata>
              <g stroke-width="0.3" fill="#000000" fill-opacity="0.000" class="geometry" id="img-ca17287f-37">
                <g transform="translate(77.59,70.34)" id="img-ca17287f-38" class="color_3" stroke-opacity="1" stroke="#FF6DAE" stroke-dasharray="none">
                  <path fill="none" d="M-36.58,8.38 L-36.3,8.38 -36.01,8.38 -35.72,8.37 -35.44,8.37 -35.15,8.37 -34.86,8.37 -34.58,8.37 -34.29,8.37 -34,8.37 -33.72,8.37 -33.43,8.36 -33.14,8.36 -32.85,8.35 -32.57,8.35 -32.28,8.34 -31.99,8.33 -31.71,8.32 -31.42,8.3 -31.13,8.29 -30.85,8.26 -30.56,8.24 -30.27,8.21 -29.99,8.17 -29.7,8.13 -29.41,8.08 -29.12,8.02 -28.84,7.95 -28.55,7.88 -28.26,7.79 -27.98,7.69 -27.69,7.58 -27.4,7.45 -27.12,7.31 -26.83,7.16 -26.54,6.99 -26.25,6.81 -25.97,6.61 -25.68,6.4 -25.39,6.18 -25.11,5.94 -24.82,5.68 -24.53,5.42 -24.25,5.14 -23.96,4.86 -23.67,4.57 -23.39,4.27 -23.1,3.97 -22.81,3.67 -22.52,3.36 -22.24,3.06 -21.95,2.76 -21.66,2.47 -21.38,2.18 -21.09,1.9 -20.8,1.63 -20.52,1.36 -20.23,1.1 -19.94,0.85 -19.66,0.61 -19.37,0.37 -19.08,0.13 -18.79,-0.1 -18.51,-0.33 -18.22,-0.56 -17.93,-0.79 -17.65,-1.03 -17.36,-1.27 -17.07,-1.52 -16.79,-1.78 -16.5,-2.06 -16.21,-2.34 -15.93,-2.64 -15.64,-2.96 -15.35,-3.29 -15.06,-3.63 -14.78,-3.99 -14.49,-4.36 -14.2,-4.74 -13.92,-5.14 -13.63,-5.54 -13.34,-5.95 -13.06,-6.37 -12.77,-6.78 -12.48,-7.2 -12.19,-7.62 -11.91,-8.03 -11.62,-8.44 -11.33,-8.84 -11.05,-9.22 -10.76,-9.59 -10.47,-9.95 -10.19,-10.29 -9.9,-10.61 -9.61,-10.92 -9.33,-11.2 -9.04,-11.46 -8.75,-11.7 -8.46,-11.92 -8.18,-12.12 -7.89,-12.29 -7.6,-12.45 -7.32,-12.58 -7.03,-12.69 -6.74,-12.79 -6.46,-12.86 -6.17,-12.92 -5.88,-12.97 -5.6,-13 -5.31,-13.02 -5.02,-13.04 -4.73,-13.04 -4.45,-13.04 -4.16,-13.03 -3.87,-13.02 -3.59,-13.01 -3.3,-12.99 -3.01,-12.97 -2.73,-12.96 -2.44,-12.94 -2.15,-12.92 -1.87,-12.9 -1.58,-12.88 -1.29,-12.85 -1,-12.82 -0.72,-12.78 -0.43,-12.73 -0.14,-12.67 0.14,-12.59 0.43,-12.51 0.72,-12.4 1,-12.28 1.29,-12.14 1.58,-11.99 1.87,-11.81 2.15,-11.62 2.44,-11.4 2.73,-11.18 3.01,-10.93 3.3,-10.67 3.59,-10.4 3.87,-10.12 4.16,-9.83 4.45,-9.54 4.73,-9.24 5.02,-8.93 5.31,-8.63 5.6,-8.33 5.88,-8.02 6.17,-7.72 6.46,-7.41 6.74,-7.11 7.03,-6.8 7.32,-6.49 7.6,-6.17 7.89,-5.85 8.18,-5.52 8.46,-5.18 8.75,-4.83 9.04,-4.47 9.33,-4.1 9.61,-3.72 9.9,-3.32 10.19,-2.91 10.47,-2.49 10.76,-2.06 11.05,-1.62 11.33,-1.18 11.62,-0.74 11.91,-0.3 12.19,0.13 12.48,0.55 12.77,0.97 13.06,1.36 13.34,1.74 13.63,2.09 13.92,2.43 14.2,2.73 14.49,3.01 14.78,3.26 15.06,3.48 15.35,3.67 15.64,3.83 15.93,3.96 16.21,4.08 16.5,4.16 16.79,4.23 17.07,4.28 17.36,4.32 17.65,4.35 17.93,4.36 18.22,4.38 18.51,4.39 18.79,4.4 19.08,4.42 19.37,4.44 19.66,4.47 19.94,4.51 20.23,4.56 20.52,4.63 20.8,4.7 21.09,4.79 21.38,4.89 21.66,5 21.95,5.13 22.24,5.26 22.52,5.4 22.81,5.55 23.1,5.7 23.39,5.86 23.67,6.02 23.96,6.18 24.25,6.35 24.53,6.5 24.82,6.66 25.11,6.81 25.39,6.96 25.68,7.09 25.97,7.23 26.25,7.35 26.54,7.46 26.83,7.57 27.12,7.67 27.4,7.76 27.69,7.84 27.98,7.91 28.26,7.98 28.55,8.04 28.84,8.09 29.12,8.13 29.41,8.17 29.7,8.2 29.99,8.23 30.27,8.26 30.56,8.28 30.85,8.3 31.13,8.31 31.42,8.32 31.71,8.33 31.99,8.34 32.28,8.35 32.57,8.36 32.85,8.36 33.14,8.36 33.43,8.37 33.72,8.37 34,8.37 34.29,8.37 34.58,8.37 34.86,8.37 35.15,8.37 35.44,8.37 35.72,8.38 36.01,8.38 36.3,8.38 36.58,8.38 " class="primitive"/>
                </g>
                <g transform="translate(78.62,69.87)" id="img-ca17287f-39" class="color_1" stroke-opacity="1" stroke="#00BFFF" stroke-dasharray="none">
                  <path fill="none" d="M-34.64,8.85 L-34.37,8.85 -34.1,8.85 -33.82,8.84 -33.55,8.84 -33.28,8.84 -33.01,8.84 -32.74,8.84 -32.47,8.84 -32.19,8.83 -31.92,8.83 -31.65,8.82 -31.38,8.81 -31.11,8.8 -30.84,8.79 -30.56,8.77 -30.29,8.74 -30.02,8.72 -29.75,8.68 -29.48,8.64 -29.21,8.59 -28.93,8.53 -28.66,8.45 -28.39,8.37 -28.12,8.27 -27.85,8.15 -27.58,8.02 -27.3,7.88 -27.03,7.71 -26.76,7.53 -26.49,7.33 -26.22,7.11 -25.95,6.87 -25.67,6.62 -25.4,6.36 -25.13,6.08 -24.86,5.8 -24.59,5.51 -24.32,5.22 -24.04,4.93 -23.77,4.64 -23.5,4.36 -23.23,4.1 -22.96,3.84 -22.69,3.6 -22.41,3.38 -22.14,3.18 -21.87,3 -21.6,2.84 -21.33,2.7 -21.06,2.58 -20.78,2.47 -20.51,2.39 -20.24,2.31 -19.97,2.25 -19.7,2.19 -19.42,2.14 -19.15,2.08 -18.88,2.01 -18.61,1.94 -18.34,1.84 -18.07,1.72 -17.79,1.58 -17.52,1.41 -17.25,1.19 -16.98,0.94 -16.71,0.64 -16.44,0.3 -16.16,-0.09 -15.89,-0.54 -15.62,-1.03 -15.35,-1.58 -15.08,-2.18 -14.81,-2.83 -14.53,-3.53 -14.26,-4.26 -13.99,-5.03 -13.72,-5.83 -13.45,-6.66 -13.18,-7.5 -12.9,-8.35 -12.63,-9.2 -12.36,-10.04 -12.09,-10.87 -11.82,-11.68 -11.55,-12.46 -11.27,-13.2 -11,-13.91 -10.73,-14.57 -10.46,-15.18 -10.19,-15.75 -9.92,-16.27 -9.64,-16.74 -9.37,-17.16 -9.1,-17.54 -8.83,-17.87 -8.56,-18.17 -8.29,-18.43 -8.01,-18.66 -7.74,-18.87 -7.47,-19.04 -7.2,-19.2 -6.93,-19.33 -6.66,-19.45 -6.38,-19.54 -6.11,-19.62 -5.84,-19.67 -5.57,-19.7 -5.3,-19.71 -5.03,-19.68 -4.75,-19.63 -4.48,-19.53 -4.21,-19.4 -3.94,-19.23 -3.67,-19.01 -3.4,-18.76 -3.12,-18.45 -2.85,-18.11 -2.58,-17.72 -2.31,-17.29 -2.04,-16.82 -1.77,-16.31 -1.49,-15.77 -1.22,-15.21 -0.95,-14.62 -0.68,-14 -0.41,-13.37 -0.14,-12.73 0.14,-12.08 0.41,-11.41 0.68,-10.75 0.95,-10.08 1.22,-9.42 1.49,-8.75 1.77,-8.1 2.04,-7.45 2.31,-6.81 2.58,-6.18 2.85,-5.57 3.12,-4.98 3.4,-4.41 3.67,-3.86 3.94,-3.34 4.21,-2.85 4.48,-2.39 4.75,-1.96 5.03,-1.56 5.3,-1.19 5.57,-0.86 5.84,-0.56 6.11,-0.28 6.38,-0.04 6.66,0.18 6.93,0.38 7.2,0.56 7.47,0.72 7.74,0.88 8.01,1.02 8.29,1.16 8.56,1.3 8.83,1.44 9.1,1.58 9.37,1.72 9.64,1.87 9.92,2.02 10.19,2.16 10.46,2.31 10.73,2.45 11,2.59 11.27,2.72 11.55,2.84 11.82,2.95 12.09,3.04 12.36,3.12 12.63,3.18 12.9,3.22 13.18,3.25 13.45,3.26 13.72,3.26 13.99,3.25 14.26,3.23 14.53,3.21 14.81,3.19 15.08,3.17 15.35,3.15 15.62,3.15 15.89,3.16 16.16,3.18 16.44,3.23 16.71,3.29 16.98,3.37 17.25,3.47 17.52,3.59 17.79,3.73 18.07,3.88 18.34,4.05 18.61,4.23 18.88,4.42 19.15,4.61 19.42,4.81 19.7,5.01 19.97,5.21 20.24,5.41 20.51,5.61 20.78,5.8 21.06,5.99 21.33,6.17 21.6,6.34 21.87,6.5 22.14,6.66 22.41,6.81 22.69,6.95 22.96,7.09 23.23,7.21 23.5,7.34 23.77,7.46 24.04,7.57 24.32,7.68 24.59,7.78 24.86,7.88 25.13,7.97 25.4,8.06 25.67,8.14 25.95,8.22 26.22,8.29 26.49,8.36 26.76,8.42 27.03,8.48 27.3,8.53 27.58,8.57 27.85,8.62 28.12,8.65 28.39,8.68 28.66,8.71 28.93,8.74 29.21,8.76 29.48,8.77 29.75,8.79 30.02,8.8 30.29,8.81 30.56,8.82 30.84,8.82 31.11,8.83 31.38,8.83 31.65,8.84 31.92,8.84 32.19,8.84 32.47,8.84 32.74,8.84 33.01,8.84 33.28,8.85 33.55,8.85 33.82,8.85 34.1,8.85 34.37,8.85 34.64,8.85 " class="primitive"/>
                </g>
                <g transform="translate(78.32,70.16)" id="img-ca17287f-40" class="color_2" stroke-opacity="1" stroke="#D4CA3A" stroke-dasharray="none">
                  <path fill="none" d="M-35.83,8.55 L-35.55,8.55 -35.26,8.55 -34.98,8.55 -34.7,8.55 -34.42,8.55 -34.14,8.55 -33.86,8.55 -33.58,8.55 -33.3,8.55 -33.02,8.55 -32.74,8.55 -32.45,8.55 -32.17,8.54 -31.89,8.54 -31.61,8.54 -31.33,8.53 -31.05,8.53 -30.77,8.52 -30.49,8.51 -30.21,8.5 -29.93,8.49 -29.64,8.47 -29.36,8.46 -29.08,8.44 -28.8,8.41 -28.52,8.39 -28.24,8.36 -27.96,8.32 -27.68,8.28 -27.4,8.24 -27.12,8.19 -26.83,8.13 -26.55,8.07 -26.27,8 -25.99,7.92 -25.71,7.84 -25.43,7.75 -25.15,7.65 -24.87,7.55 -24.59,7.43 -24.31,7.31 -24.02,7.18 -23.74,7.04 -23.46,6.89 -23.18,6.73 -22.9,6.56 -22.62,6.38 -22.34,6.19 -22.06,5.98 -21.78,5.77 -21.5,5.55 -21.21,5.31 -20.93,5.05 -20.65,4.79 -20.37,4.51 -20.09,4.21 -19.81,3.89 -19.53,3.56 -19.25,3.21 -18.97,2.84 -18.69,2.45 -18.4,2.05 -18.12,1.62 -17.84,1.18 -17.56,0.72 -17.28,0.25 -17,-0.24 -16.72,-0.74 -16.44,-1.25 -16.16,-1.77 -15.88,-2.29 -15.59,-2.82 -15.31,-3.34 -15.03,-3.87 -14.75,-4.38 -14.47,-4.88 -14.19,-5.38 -13.91,-5.85 -13.63,-6.31 -13.35,-6.75 -13.07,-7.16 -12.79,-7.56 -12.5,-7.93 -12.22,-8.27 -11.94,-8.59 -11.66,-8.89 -11.38,-9.17 -11.1,-9.42 -10.82,-9.66 -10.54,-9.88 -10.26,-10.08 -9.98,-10.28 -9.69,-10.46 -9.41,-10.64 -9.13,-10.81 -8.85,-10.98 -8.57,-11.15 -8.29,-11.32 -8.01,-11.5 -7.73,-11.68 -7.45,-11.86 -7.17,-12.05 -6.88,-12.24 -6.6,-12.44 -6.32,-12.63 -6.04,-12.82 -5.76,-13.01 -5.48,-13.2 -5.2,-13.37 -4.92,-13.53 -4.64,-13.67 -4.36,-13.8 -4.07,-13.9 -3.79,-13.97 -3.51,-14.02 -3.23,-14.03 -2.95,-14.02 -2.67,-13.97 -2.39,-13.89 -2.11,-13.77 -1.83,-13.63 -1.55,-13.46 -1.26,-13.26 -0.98,-13.04 -0.7,-12.79 -0.42,-12.53 -0.14,-12.26 0.14,-11.98 0.42,-11.7 0.7,-11.41 0.98,-11.13 1.26,-10.86 1.55,-10.59 1.83,-10.34 2.11,-10.09 2.39,-9.87 2.67,-9.66 2.95,-9.46 3.23,-9.29 3.51,-9.13 3.79,-8.98 4.07,-8.85 4.36,-8.73 4.64,-8.62 4.92,-8.52 5.2,-8.43 5.48,-8.34 5.76,-8.26 6.04,-8.17 6.32,-8.09 6.6,-8 6.88,-7.9 7.17,-7.8 7.45,-7.69 7.73,-7.56 8.01,-7.43 8.29,-7.28 8.57,-7.12 8.85,-6.94 9.13,-6.75 9.41,-6.54 9.69,-6.32 9.98,-6.07 10.26,-5.82 10.54,-5.54 10.82,-5.25 11.1,-4.95 11.38,-4.63 11.66,-4.29 11.94,-3.95 12.22,-3.59 12.5,-3.22 12.79,-2.84 13.07,-2.45 13.35,-2.06 13.63,-1.66 13.91,-1.26 14.19,-0.86 14.47,-0.45 14.75,-0.05 15.03,0.35 15.31,0.74 15.59,1.13 15.88,1.51 16.16,1.88 16.44,2.24 16.72,2.59 17,2.93 17.28,3.25 17.56,3.56 17.84,3.86 18.12,4.14 18.4,4.41 18.69,4.66 18.97,4.9 19.25,5.13 19.53,5.34 19.81,5.54 20.09,5.73 20.37,5.91 20.65,6.07 20.93,6.23 21.21,6.38 21.5,6.52 21.78,6.66 22.06,6.79 22.34,6.91 22.62,7.02 22.9,7.14 23.18,7.24 23.46,7.34 23.74,7.44 24.02,7.53 24.31,7.62 24.59,7.7 24.87,7.78 25.15,7.86 25.43,7.93 25.71,7.99 25.99,8.05 26.27,8.11 26.55,8.16 26.83,8.21 27.12,8.25 27.4,8.29 27.68,8.33 27.96,8.36 28.24,8.39 28.52,8.41 28.8,8.43 29.08,8.45 29.36,8.47 29.64,8.48 29.93,8.5 30.21,8.51 30.49,8.52 30.77,8.52 31.05,8.53 31.33,8.53 31.61,8.54 31.89,8.54 32.17,8.54 32.45,8.55 32.74,8.55 33.02,8.55 33.3,8.55 33.58,8.55 33.86,8.55 34.14,8.55 34.42,8.55 34.7,8.55 34.98,8.55 35.26,8.55 35.55,8.55 35.83,8.55 " class="primitive"/>
                </g>
              </g>
            </g>
          </g>
        </g>
        <g class="guide ylabels" font-size="2.82" font-family="'PT Sans Caption','Helvetica Neue','Helvetica',sans-serif" fill="#6C606B" id="img-ca17287f-41">
          <g transform="translate(23.9,78.72)" id="img-ca17287f-42">
            <g class="primitive">
              <text text-anchor="end" dy="0.35em">0.0</text>
            </g>
          </g>
          <g transform="translate(23.9,72.34)" id="img-ca17287f-43">
            <g class="primitive">
              <text text-anchor="end" dy="0.35em">0.1</text>
            </g>
          </g>
          <g transform="translate(23.9,65.97)" id="img-ca17287f-44">
            <g class="primitive">
              <text text-anchor="end" dy="0.35em">0.2</text>
            </g>
          </g>
          <g transform="translate(23.9,59.6)" id="img-ca17287f-45">
            <g class="primitive">
              <text text-anchor="end" dy="0.35em">0.3</text>
            </g>
          </g>
          <g transform="translate(23.9,53.23)" id="img-ca17287f-46">
            <g class="primitive">
              <text text-anchor="end" dy="0.35em">0.4</text>
            </g>
          </g>
          <g transform="translate(23.9,46.86)" id="img-ca17287f-47">
            <g class="primitive">
              <text text-anchor="end" dy="0.35em">0.5</text>
            </g>
          </g>
        </g>
        <g font-size="3.88" font-family="'PT Sans','Helvetica Neue','Helvetica',sans-serif" fill="#564A55" stroke="#000000" stroke-opacity="0.000" id="img-ca17287f-48">
          <g transform="translate(16.88,62.79)" id="img-ca17287f-49">
            <g class="primitive">
              <text text-anchor="end" dy="0.35em">B</text>
            </g>
          </g>
        </g>
        <g clip-path="url(#img-ca17287f-50)">
          <g id="img-ca17287f-51">
            <g pointer-events="visible" stroke-width="0.3" fill="#000000" fill-opacity="0.000" stroke="#000000" stroke-opacity="0.000" class="guide background" id="img-ca17287f-52">
              <g transform="translate(75.19,23.93)" id="img-ca17287f-53">
                <path d="M-50.28,-16.93 L50.28,-16.93 50.28,16.93 -50.28,16.93  z" class="primitive"/>
              </g>
            </g>
            <g class="guide ygridlines xfixed" stroke-dasharray="0.5,0.5" stroke-width="0.2" stroke="#D0D0E0" id="img-ca17287f-54">
              <g transform="translate(75.19,38.86)" id="img-ca17287f-55">
                <path fill="none" d="M-50.28,0 L50.28,0 " class="primitive"/>
              </g>
              <g transform="translate(75.19,32.89)" id="img-ca17287f-56">
                <path fill="none" d="M-50.28,0 L50.28,0 " class="primitive"/>
              </g>
              <g transform="translate(75.19,26.91)" id="img-ca17287f-57">
                <path fill="none" d="M-50.28,0 L50.28,0 " class="primitive"/>
              </g>
              <g transform="translate(75.19,20.94)" id="img-ca17287f-58">
                <path fill="none" d="M-50.28,0 L50.28,0 " class="primitive"/>
              </g>
              <g transform="translate(75.19,14.97)" id="img-ca17287f-59">
                <path fill="none" d="M-50.28,0 L50.28,0 " class="primitive"/>
              </g>
              <g transform="translate(75.19,9)" id="img-ca17287f-60">
                <path fill="none" d="M-50.28,0 L50.28,0 " class="primitive"/>
              </g>
            </g>
            <g class="guide xgridlines yfixed" stroke-dasharray="0.5,0.5" stroke-width="0.2" stroke="#D0D0E0" id="img-ca17287f-61">
              <g transform="translate(26.9,23.93)" id="img-ca17287f-62">
                <path fill="none" d="M0,-16.93 L0,16.93 " class="primitive"/>
              </g>
              <g transform="translate(75.19,23.93)" id="img-ca17287f-63">
                <path fill="none" d="M0,-16.93 L0,16.93 " class="primitive"/>
              </g>
              <g transform="translate(123.47,23.93)" id="img-ca17287f-64">
                <path fill="none" d="M0,-16.93 L0,16.93 " class="primitive"/>
              </g>
            </g>
            <g class="plotpanel" id="img-ca17287f-65">
              <metadata>
                <boundingbox value="24.904999999999987mm 7.0mm 100.56968957064285mm 33.8575mm"/>
                <unitbox value="-5.207104321127279 0.5334924223394457 10.414208642254557 -0.5669848446788914"/>
              </metadata>
              <g stroke-width="0.3" fill="#000000" fill-opacity="0.000" class="geometry" id="img-ca17287f-66">
                <g transform="translate(73.02,30.61)" id="img-ca17287f-67" class="color_3" stroke-opacity="1" stroke="#FF6DAE" stroke-dasharray="none">
                  <path fill="none" d="M-34.84,8.24 L-34.56,8.24 -34.29,8.24 -34.02,8.24 -33.74,8.24 -33.47,8.24 -33.2,8.24 -32.92,8.24 -32.65,8.24 -32.38,8.24 -32.1,8.23 -31.83,8.23 -31.56,8.23 -31.28,8.22 -31.01,8.21 -30.74,8.21 -30.46,8.2 -30.19,8.18 -29.92,8.17 -29.64,8.15 -29.37,8.12 -29.1,8.09 -28.82,8.06 -28.55,8.02 -28.28,7.97 -28,7.92 -27.73,7.86 -27.46,7.79 -27.19,7.71 -26.91,7.63 -26.64,7.53 -26.37,7.42 -26.09,7.31 -25.82,7.18 -25.55,7.05 -25.27,6.9 -25,6.75 -24.73,6.6 -24.45,6.44 -24.18,6.27 -23.91,6.11 -23.63,5.94 -23.36,5.77 -23.09,5.61 -22.81,5.45 -22.54,5.3 -22.27,5.15 -21.99,5.02 -21.72,4.9 -21.45,4.78 -21.17,4.69 -20.9,4.6 -20.63,4.53 -20.35,4.47 -20.08,4.43 -19.81,4.4 -19.54,4.38 -19.26,4.37 -18.99,4.38 -18.72,4.39 -18.44,4.41 -18.17,4.43 -17.9,4.46 -17.62,4.49 -17.35,4.52 -17.08,4.55 -16.8,4.57 -16.53,4.58 -16.26,4.59 -15.98,4.58 -15.71,4.56 -15.44,4.52 -15.16,4.46 -14.89,4.38 -14.62,4.28 -14.34,4.16 -14.07,4.01 -13.8,3.84 -13.52,3.65 -13.25,3.43 -12.98,3.18 -12.7,2.92 -12.43,2.63 -12.16,2.33 -11.88,2.01 -11.61,1.67 -11.34,1.33 -11.07,0.97 -10.79,0.62 -10.52,0.25 -10.25,-0.11 -9.97,-0.48 -9.7,-0.84 -9.43,-1.21 -9.15,-1.57 -8.88,-1.94 -8.61,-2.31 -8.33,-2.69 -8.06,-3.08 -7.79,-3.47 -7.51,-3.89 -7.24,-4.32 -6.97,-4.78 -6.69,-5.26 -6.42,-5.77 -6.15,-6.31 -5.87,-6.88 -5.6,-7.48 -5.33,-8.11 -5.05,-8.76 -4.78,-9.43 -4.51,-10.11 -4.23,-10.81 -3.96,-11.51 -3.69,-12.2 -3.42,-12.88 -3.14,-13.54 -2.87,-14.17 -2.6,-14.76 -2.32,-15.3 -2.05,-15.79 -1.78,-16.22 -1.5,-16.58 -1.23,-16.87 -0.96,-17.09 -0.68,-17.23 -0.41,-17.31 -0.14,-17.31 0.14,-17.25 0.41,-17.12 0.68,-16.94 0.96,-16.72 1.23,-16.45 1.5,-16.15 1.78,-15.84 2.05,-15.51 2.32,-15.17 2.6,-14.84 2.87,-14.53 3.14,-14.24 3.42,-13.97 3.69,-13.73 3.96,-13.52 4.23,-13.35 4.51,-13.21 4.78,-13.1 5.05,-13.02 5.33,-12.96 5.6,-12.92 5.87,-12.9 6.15,-12.88 6.42,-12.85 6.69,-12.82 6.97,-12.78 7.24,-12.71 7.51,-12.62 7.79,-12.5 8.06,-12.34 8.33,-12.14 8.61,-11.91 8.88,-11.64 9.15,-11.33 9.43,-10.99 9.7,-10.61 9.97,-10.19 10.25,-9.75 10.52,-9.29 10.79,-8.8 11.07,-8.3 11.34,-7.78 11.61,-7.26 11.88,-6.73 12.16,-6.2 12.43,-5.66 12.7,-5.14 12.98,-4.62 13.25,-4.1 13.52,-3.6 13.8,-3.11 14.07,-2.63 14.34,-2.17 14.62,-1.72 14.89,-1.29 15.16,-0.88 15.44,-0.48 15.71,-0.11 15.98,0.25 16.26,0.59 16.53,0.91 16.8,1.21 17.08,1.5 17.35,1.76 17.62,2.02 17.9,2.25 18.17,2.48 18.44,2.69 18.72,2.9 18.99,3.1 19.26,3.29 19.54,3.47 19.81,3.66 20.08,3.84 20.35,4.02 20.63,4.2 20.9,4.38 21.17,4.57 21.45,4.75 21.72,4.94 21.99,5.13 22.27,5.32 22.54,5.51 22.81,5.7 23.09,5.88 23.36,6.07 23.63,6.24 23.91,6.42 24.18,6.58 24.45,6.74 24.73,6.9 25,7.04 25.27,7.17 25.55,7.3 25.82,7.41 26.09,7.52 26.37,7.61 26.64,7.7 26.91,7.78 27.19,7.85 27.46,7.91 27.73,7.96 28,8.01 28.28,8.05 28.55,8.08 28.82,8.11 29.1,8.14 29.37,8.16 29.64,8.17 29.92,8.19 30.19,8.2 30.46,8.21 30.74,8.22 31.01,8.22 31.28,8.23 31.56,8.23 31.83,8.24 32.1,8.24 32.38,8.24 32.65,8.24 32.92,8.24 33.2,8.24 33.47,8.24 33.74,8.24 34.02,8.24 34.29,8.24 34.56,8.24 34.84,8.24 " class="primitive"/>
                </g>
                <g transform="translate(74.78,31.3)" id="img-ca17287f-68" class="color_1" stroke-opacity="1" stroke="#00BFFF" stroke-dasharray="none">
                  <path fill="none" d="M-37.99,7.56 L-37.69,7.56 -37.39,7.56 -37.1,7.56 -36.8,7.56 -36.5,7.56 -36.2,7.56 -35.9,7.56 -35.61,7.56 -35.31,7.56 -35.01,7.55 -34.71,7.55 -34.42,7.55 -34.12,7.55 -33.82,7.54 -33.52,7.54 -33.22,7.53 -32.93,7.52 -32.63,7.51 -32.33,7.5 -32.03,7.49 -31.73,7.47 -31.44,7.45 -31.14,7.43 -30.84,7.41 -30.54,7.38 -30.24,7.35 -29.95,7.31 -29.65,7.27 -29.35,7.23 -29.05,7.18 -28.75,7.13 -28.46,7.07 -28.16,7.01 -27.86,6.94 -27.56,6.87 -27.26,6.8 -26.97,6.73 -26.67,6.65 -26.37,6.57 -26.07,6.48 -25.77,6.4 -25.48,6.31 -25.18,6.22 -24.88,6.13 -24.58,6.03 -24.28,5.94 -23.99,5.84 -23.69,5.74 -23.39,5.64 -23.09,5.53 -22.79,5.42 -22.5,5.31 -22.2,5.2 -21.9,5.09 -21.6,4.97 -21.3,4.85 -21.01,4.73 -20.71,4.6 -20.41,4.47 -20.11,4.34 -19.81,4.2 -19.52,4.05 -19.22,3.9 -18.92,3.74 -18.62,3.57 -18.32,3.39 -18.03,3.2 -17.73,2.99 -17.43,2.77 -17.13,2.52 -16.84,2.26 -16.54,1.97 -16.24,1.67 -15.94,1.34 -15.64,0.98 -15.35,0.6 -15.05,0.2 -14.75,-0.22 -14.45,-0.66 -14.15,-1.13 -13.86,-1.61 -13.56,-2.1 -13.26,-2.61 -12.96,-3.13 -12.66,-3.65 -12.37,-4.17 -12.07,-4.69 -11.77,-5.21 -11.47,-5.72 -11.17,-6.23 -10.88,-6.72 -10.58,-7.21 -10.28,-7.68 -9.98,-8.14 -9.68,-8.59 -9.39,-9.03 -9.09,-9.45 -8.79,-9.87 -8.49,-10.27 -8.19,-10.67 -7.9,-11.06 -7.6,-11.45 -7.3,-11.84 -7,-12.22 -6.7,-12.6 -6.41,-12.98 -6.11,-13.36 -5.81,-13.74 -5.51,-14.11 -5.21,-14.47 -4.92,-14.83 -4.62,-15.17 -4.32,-15.5 -4.02,-15.81 -3.72,-16.1 -3.43,-16.35 -3.13,-16.58 -2.83,-16.77 -2.53,-16.91 -2.23,-17.02 -1.94,-17.08 -1.64,-17.1 -1.34,-17.07 -1.04,-16.99 -0.74,-16.87 -0.45,-16.71 -0.15,-16.5 0.15,-16.26 0.45,-15.98 0.74,-15.68 1.04,-15.34 1.34,-14.99 1.64,-14.61 1.94,-14.23 2.23,-13.83 2.53,-13.42 2.83,-13 3.13,-12.59 3.43,-12.17 3.72,-11.75 4.02,-11.34 4.32,-10.93 4.62,-10.52 4.92,-10.11 5.21,-9.71 5.51,-9.31 5.81,-8.91 6.11,-8.52 6.41,-8.13 6.7,-7.74 7,-7.35 7.3,-6.97 7.6,-6.58 7.9,-6.19 8.19,-5.8 8.49,-5.42 8.79,-5.03 9.09,-4.64 9.39,-4.25 9.68,-3.87 9.98,-3.49 10.28,-3.11 10.58,-2.74 10.88,-2.38 11.17,-2.03 11.47,-1.69 11.77,-1.36 12.07,-1.05 12.37,-0.75 12.66,-0.46 12.96,-0.19 13.26,0.07 13.56,0.31 13.86,0.54 14.15,0.76 14.45,0.96 14.75,1.16 15.05,1.35 15.35,1.54 15.64,1.71 15.94,1.89 16.24,2.05 16.54,2.22 16.84,2.38 17.13,2.54 17.43,2.69 17.73,2.84 18.03,2.98 18.32,3.12 18.62,3.25 18.92,3.38 19.22,3.5 19.52,3.61 19.81,3.71 20.11,3.81 20.41,3.9 20.71,3.99 21.01,4.08 21.3,4.16 21.6,4.24 21.9,4.33 22.2,4.41 22.5,4.5 22.79,4.59 23.09,4.69 23.39,4.79 23.69,4.89 23.99,5.01 24.28,5.12 24.58,5.25 24.88,5.37 25.18,5.5 25.48,5.64 25.77,5.77 26.07,5.9 26.37,6.04 26.67,6.17 26.97,6.29 27.26,6.41 27.56,6.53 27.86,6.64 28.16,6.75 28.46,6.84 28.75,6.93 29.05,7.02 29.35,7.09 29.65,7.16 29.95,7.22 30.24,7.27 30.54,7.32 30.84,7.36 31.14,7.39 31.44,7.42 31.73,7.45 32.03,7.47 32.33,7.49 32.63,7.5 32.93,7.51 33.22,7.52 33.52,7.53 33.82,7.54 34.12,7.54 34.42,7.55 34.71,7.55 35.01,7.55 35.31,7.55 35.61,7.56 35.9,7.56 36.2,7.56 36.5,7.56 36.8,7.56 37.1,7.56 37.39,7.56 37.69,7.56 37.99,7.56 " class="primitive"/>
                </g>
                <g transform="translate(78.92,32.32)" id="img-ca17287f-69" class="color_2" stroke-opacity="1" stroke="#D4CA3A" stroke-dasharray="none">
                  <path fill="none" d="M-43.94,6.54 L-43.59,6.54 -43.25,6.54 -42.9,6.54 -42.56,6.54 -42.21,6.54 -41.87,6.53 -41.52,6.53 -41.18,6.53 -40.83,6.53 -40.49,6.53 -40.15,6.53 -39.8,6.52 -39.46,6.52 -39.11,6.51 -38.77,6.5 -38.42,6.49 -38.08,6.48 -37.73,6.47 -37.39,6.45 -37.04,6.43 -36.7,6.41 -36.35,6.38 -36.01,6.35 -35.67,6.32 -35.32,6.28 -34.98,6.25 -34.63,6.21 -34.29,6.16 -33.94,6.12 -33.6,6.07 -33.25,6.03 -32.91,5.99 -32.56,5.95 -32.22,5.91 -31.87,5.87 -31.53,5.84 -31.19,5.82 -30.84,5.8 -30.5,5.78 -30.15,5.76 -29.81,5.75 -29.46,5.74 -29.12,5.74 -28.77,5.73 -28.43,5.71 -28.08,5.7 -27.74,5.68 -27.4,5.65 -27.05,5.61 -26.71,5.56 -26.36,5.49 -26.02,5.42 -25.67,5.33 -25.33,5.23 -24.98,5.11 -24.64,4.98 -24.29,4.84 -23.95,4.68 -23.6,4.52 -23.26,4.34 -22.92,4.16 -22.57,3.98 -22.23,3.79 -21.88,3.6 -21.54,3.41 -21.19,3.23 -20.85,3.04 -20.5,2.87 -20.16,2.7 -19.81,2.53 -19.47,2.37 -19.12,2.21 -18.78,2.05 -18.44,1.88 -18.09,1.71 -17.75,1.52 -17.4,1.32 -17.06,1.1 -16.71,0.85 -16.37,0.57 -16.02,0.26 -15.68,-0.09 -15.33,-0.48 -14.99,-0.91 -14.65,-1.39 -14.3,-1.91 -13.96,-2.48 -13.61,-3.1 -13.27,-3.76 -12.92,-4.46 -12.58,-5.2 -12.23,-5.98 -11.89,-6.79 -11.54,-7.62 -11.2,-8.48 -10.85,-9.34 -10.51,-10.22 -10.17,-11.09 -9.82,-11.95 -9.48,-12.79 -9.13,-13.61 -8.79,-14.39 -8.44,-15.14 -8.1,-15.83 -7.75,-16.47 -7.41,-17.04 -7.06,-17.55 -6.72,-17.98 -6.37,-18.34 -6.03,-18.62 -5.69,-18.82 -5.34,-18.93 -5,-18.96 -4.65,-18.91 -4.31,-18.79 -3.96,-18.58 -3.62,-18.32 -3.27,-17.98 -2.93,-17.6 -2.58,-17.17 -2.24,-16.7 -1.9,-16.2 -1.55,-15.69 -1.21,-15.17 -0.86,-14.65 -0.52,-14.14 -0.17,-13.66 0.17,-13.2 0.52,-12.78 0.86,-12.39 1.21,-12.06 1.55,-11.76 1.9,-11.51 2.24,-11.31 2.58,-11.15 2.93,-11.02 3.27,-10.93 3.62,-10.85 3.96,-10.8 4.31,-10.76 4.65,-10.71 5,-10.66 5.34,-10.6 5.69,-10.51 6.03,-10.39 6.37,-10.23 6.72,-10.04 7.06,-9.8 7.41,-9.51 7.75,-9.18 8.1,-8.8 8.44,-8.38 8.79,-7.91 9.13,-7.41 9.48,-6.87 9.82,-6.31 10.17,-5.73 10.51,-5.14 10.85,-4.54 11.2,-3.94 11.54,-3.34 11.89,-2.75 12.23,-2.18 12.58,-1.62 12.92,-1.09 13.27,-0.58 13.61,-0.09 13.96,0.38 14.3,0.82 14.65,1.24 14.99,1.64 15.33,2.01 15.68,2.37 16.02,2.71 16.37,3.03 16.71,3.33 17.06,3.62 17.4,3.89 17.75,4.14 18.09,4.37 18.44,4.58 18.78,4.78 19.12,4.96 19.47,5.12 19.81,5.26 20.16,5.38 20.5,5.48 20.85,5.56 21.19,5.62 21.54,5.67 21.88,5.71 22.23,5.73 22.57,5.74 22.92,5.74 23.26,5.73 23.6,5.72 23.95,5.7 24.29,5.68 24.64,5.66 24.98,5.64 25.33,5.62 25.67,5.6 26.02,5.58 26.36,5.57 26.71,5.56 27.05,5.55 27.4,5.54 27.74,5.54 28.08,5.54 28.43,5.55 28.77,5.55 29.12,5.57 29.46,5.58 29.81,5.6 30.15,5.63 30.5,5.65 30.84,5.69 31.19,5.72 31.53,5.76 31.87,5.81 32.22,5.85 32.56,5.9 32.91,5.95 33.25,6 33.6,6.05 33.94,6.1 34.29,6.15 34.63,6.19 34.98,6.24 35.32,6.28 35.67,6.32 36.01,6.35 36.35,6.38 36.7,6.41 37.04,6.43 37.39,6.45 37.73,6.47 38.08,6.48 38.42,6.49 38.77,6.5 39.11,6.51 39.46,6.52 39.8,6.52 40.15,6.53 40.49,6.53 40.83,6.53 41.18,6.53 41.52,6.53 41.87,6.53 42.21,6.54 42.56,6.54 42.9,6.54 43.25,6.54 43.59,6.54 43.94,6.54 " class="primitive"/>
                </g>
              </g>
            </g>
          </g>
        </g>
        <g class="guide ylabels" font-size="2.82" font-family="'PT Sans Caption','Helvetica Neue','Helvetica',sans-serif" fill="#6C606B" id="img-ca17287f-70">
          <g transform="translate(23.9,38.86)" id="img-ca17287f-71">
            <g class="primitive">
              <text text-anchor="end" dy="0.35em">0.0</text>
            </g>
          </g>
          <g transform="translate(23.9,32.89)" id="img-ca17287f-72">
            <g class="primitive">
              <text text-anchor="end" dy="0.35em">0.1</text>
            </g>
          </g>
          <g transform="translate(23.9,26.91)" id="img-ca17287f-73">
            <g class="primitive">
              <text text-anchor="end" dy="0.35em">0.2</text>
            </g>
          </g>
          <g transform="translate(23.9,20.94)" id="img-ca17287f-74">
            <g class="primitive">
              <text text-anchor="end" dy="0.35em">0.3</text>
            </g>
          </g>
          <g transform="translate(23.9,14.97)" id="img-ca17287f-75">
            <g class="primitive">
              <text text-anchor="end" dy="0.35em">0.4</text>
            </g>
          </g>
          <g transform="translate(23.9,9)" id="img-ca17287f-76">
            <g class="primitive">
              <text text-anchor="end" dy="0.35em">0.5</text>
            </g>
          </g>
        </g>
        <g font-size="3.88" font-family="'PT Sans','Helvetica Neue','Helvetica',sans-serif" fill="#564A55" stroke="#000000" stroke-opacity="0.000" id="img-ca17287f-77">
          <g transform="translate(16.88,23.93)" id="img-ca17287f-78">
            <g class="primitive">
              <text text-anchor="end" dy="0.35em">A</text>
            </g>
          </g>
        </g>
      </g>
    </g>
  </g>
  <g font-size="3.88" font-family="'PT Sans','Helvetica Neue','Helvetica',sans-serif" fill="#564A55" stroke="#000000" stroke-opacity="0.000" id="img-ca17287f-79">
    <g transform="translate(8.81,43.19)" id="img-ca17287f-80">
      <g class="primitive">
        <text text-anchor="middle" dy="0.35em" transform="rotate(-90,0, 2)">Density</text>
      </g>
    </g>
  </g>
</g>
<defs>
  <clipPath id="img-ca17287f-14">
    <path d="M12.61,5 L127.47,5 127.47,85.39 12.61,85.39 " />
  </clipPath>
  <clipPath id="img-ca17287f-21">
    <path d="M24.9,44.86 L125.47,44.86 125.47,80.72 24.9,80.72 " />
  </clipPath>
  <clipPath id="img-ca17287f-50">
    <path d="M24.9,7 L125.47,7 125.47,40.86 24.9,40.86 " />
  </clipPath>
</defs>
</svg>
