<?xml version="1.0" encoding="UTF-8"?>
<svg xmlns="http://www.w3.org/2000/svg"
     xmlns:xlink="http://www.w3.org/1999/xlink"
     xmlns:gadfly="http://www.gadflyjl.org/ns"
     version="1.2"
     width="141.42mm" height="100mm" viewBox="0 0 141.42 100"
     stroke="none"
     fill="#000000"
     stroke-width="0.3"
     font-size="3.88"
>
<defs>
  <marker id="arrow" markerWidth="15" markerHeight="7" refX="5" refY="3.5" orient="auto" markerUnits="strokeWidth">
    <path d="M0,0 L15,3.5 L0,7 z" stroke="context-stroke" fill="context-stroke"/>
  </marker>
</defs>
<g class="plotroot xscalable yscalable" id="img-11cbaf23-1">
  <g font-size="3.88" font-family="'PT Sans','Helvetica Neue','Helvetica',sans-serif" fill="#564A55" stroke="#000000" stroke-opacity="0.000" id="img-11cbaf23-2">
    <g transform="translate(73.05,88.39)">
      <g class="primitive">
        <text text-anchor="middle" dy="0.6em">A</text>
      </g>
    </g>
  </g>
  <g class="guide xlabels" font-size="2.82" font-family="'PT Sans Caption','Helvetica Neue','Helvetica',sans-serif" fill="#6C606B" id="img-11cbaf23-3">
    <g transform="translate(20.63,81.72)">
      <g class="primitive">
        <text text-anchor="middle" dy="0.6em">-5</text>
      </g>
    </g>
    <g transform="translate(73.05,81.72)">
      <g class="primitive">
        <text text-anchor="middle" dy="0.6em">0</text>
      </g>
    </g>
    <g transform="translate(125.47,81.72)">
      <g class="primitive">
        <text text-anchor="middle" dy="0.6em">5</text>
      </g>
    </g>
  </g>
  <g class="guide colorkey" id="img-11cbaf23-4">
    <g fill="#4C404B" font-size="2.82" font-family="'PT Sans','Helvetica Neue','Helvetica',sans-serif" id="img-11cbaf23-5">
      <g transform="translate(131.29,41.04)" id="img-11cbaf23-6" class="color_1">
        <g class="primitive">
          <text dy="0.35em">1</text>
        </g>
      </g>
      <g transform="translate(131.29,44.67)" id="img-11cbaf23-7" class="color_2">
        <g class="primitive">
          <text dy="0.35em">2</text>
        </g>
      </g>
      <g transform="translate(131.29,48.3)" id="img-11cbaf23-8" class="color_3">
        <g class="primitive">
          <text dy="0.35em">3</text>
        </g>
      </g>
    </g>
    <g fill-opacity="1" id="img-11cbaf23-9">
      <g transform="translate(129.38,41.04)" id="img-11cbaf23-10" stroke="#FFFFFF" fill="#00BFFF" class="color_1">
        <path d="M-0.91,-0.91 L0.91,-0.91 0.91,0.91 -0.91,0.91  z" class="primitive"/>
      </g>
      <g transform="translate(129.38,44.67)" id="img-11cbaf23-11" stroke="#FFFFFF" fill="#D4CA3A" class="color_2">
        <path d="M-0.91,-0.91 L0.91,-0.91 0.91,0.91 -0.91,0.91  z" class="primitive"/>
      </g>
      <g transform="translate(129.38,48.3)" id="img-11cbaf23-12" stroke="#FFFFFF" fill="#FF6DAE" class="color_3">
        <path d="M-0.91,-0.91 L0.91,-0.91 0.91,0.91 -0.91,0.91  z" class="primitive"/>
      </g>
    </g>
    <g fill="#362A35" font-size="3.88" font-family="'PT Sans','Helvetica Neue','Helvetica',sans-serif" stroke="#000000" stroke-opacity="0.000" id="img-11cbaf23-13">
      <g transform="translate(128.47,37.22)" id="img-11cbaf23-14">
        <g class="primitive">
          <text dy="-0em">chain</text>
        </g>
      </g>
    </g>
  </g>
  <g clip-path="url(#img-11cbaf23-15)">
    <g id="img-11cbaf23-16">
      <g pointer-events="visible" stroke-width="0.3" fill="#000000" fill-opacity="0.000" stroke="#000000" stroke-opacity="0.000" class="guide background" id="img-11cbaf23-17">
        <g transform="translate(73.05,42.86)" id="img-11cbaf23-18">
          <path d="M-54.42,-37.86 L54.42,-37.86 54.42,37.86 -54.42,37.86  z" class="primitive"/>
        </g>
      </g>
      <g class="guide ygridlines xfixed" stroke-dasharray="0.5,0.5" stroke-width="0.2" stroke="#D0D0E0" id="img-11cbaf23-19">
        <g transform="translate(73.05,78.71)" id="img-11cbaf23-20">
          <path fill="none" d="M-54.42,0 L54.42,0 " class="primitive"/>
        </g>
        <g transform="translate(73.05,64.37)" id="img-11cbaf23-21">
          <path fill="none" d="M-54.42,0 L54.42,0 " class="primitive"/>
        </g>
        <g transform="translate(73.05,50.03)" id="img-11cbaf23-22">
          <path fill="none" d="M-54.42,0 L54.42,0 " class="primitive"/>
        </g>
        <g transform="translate(73.05,35.69)" id="img-11cbaf23-23">
          <path fill="none" d="M-54.42,0 L54.42,0 " class="primitive"/>
        </g>
        <g transform="translate(73.05,21.34)" id="img-11cbaf23-24">
          <path fill="none" d="M-54.42,0 L54.42,0 " class="primitive"/>
        </g>
        <g transform="translate(73.05,7)" id="img-11cbaf23-25">
          <path fill="none" d="M-54.42,0 L54.42,0 " class="primitive"/>
        </g>
      </g>
      <g class="guide xgridlines yfixed" stroke-dasharray="0.5,0.5" stroke-width="0.2" stroke="#D0D0E0" id="img-11cbaf23-26">
        <g transform="translate(20.63,42.86)" id="img-11cbaf23-27">
          <path fill="none" d="M0,-37.86 L0,37.86 " class="primitive"/>
        </g>
        <g transform="translate(73.05,42.86)" id="img-11cbaf23-28">
          <path fill="none" d="M0,-37.86 L0,37.86 " class="primitive"/>
        </g>
        <g transform="translate(125.47,42.86)" id="img-11cbaf23-29">
          <path fill="none" d="M0,-37.86 L0,37.86 " class="primitive"/>
        </g>
      </g>
      <g class="plotpanel" id="img-11cbaf23-30">
        <metadata>
          <boundingbox value="18.63166666666666mm 5.0mm 108.84302290397619mm 75.715mm"/>
          <unitbox value="-5.190761382551108 0.5139440842222687 10.381522765102215 -0.5278881684445375"/>
        </metadata>
        <g stroke-width="0.3" fill="#000000" fill-opacity="0.000" class="geometry" id="img-11cbaf23-31">
          <g transform="translate(70.7,58.91)" id="img-11cbaf23-32" class="color_3" stroke-opacity="1" stroke="#FF6DAE" stroke-dasharray="none">
            <path fill="none" d="M-37.82,19.8 L-37.52,19.8 -37.23,19.8 -36.93,19.8 -36.63,19.8 -36.34,19.8 -36.04,19.8 -35.74,19.79 -35.45,19.79 -35.15,19.78 -34.85,19.78 -34.56,19.77 -34.26,19.76 -33.96,19.75 -33.67,19.73 -33.37,19.71 -33.07,19.68 -32.78,19.65 -32.48,19.61 -32.18,19.57 -31.89,19.51 -31.59,19.44 -31.29,19.36 -31,19.27 -30.7,19.15 -30.4,19.03 -30.11,18.88 -29.81,18.71 -29.51,18.53 -29.22,18.32 -28.92,18.08 -28.62,17.83 -28.33,17.55 -28.03,17.25 -27.73,16.93 -27.44,16.58 -27.14,16.22 -26.84,15.85 -26.55,15.46 -26.25,15.07 -25.95,14.67 -25.66,14.26 -25.36,13.86 -25.06,13.47 -24.77,13.09 -24.47,12.73 -24.17,12.38 -23.88,12.06 -23.58,11.76 -23.29,11.49 -22.99,11.26 -22.69,11.05 -22.4,10.88 -22.1,10.74 -21.8,10.64 -21.51,10.56 -21.21,10.52 -20.91,10.5 -20.62,10.51 -20.32,10.54 -20.02,10.59 -19.73,10.65 -19.43,10.72 -19.13,10.79 -18.84,10.86 -18.54,10.93 -18.24,10.98 -17.95,11.01 -17.65,11.02 -17.35,11 -17.06,10.95 -16.76,10.85 -16.46,10.71 -16.17,10.53 -15.87,10.29 -15.57,9.99 -15.28,9.64 -14.98,9.23 -14.68,8.76 -14.39,8.23 -14.09,7.64 -13.79,7.01 -13.5,6.32 -13.2,5.59 -12.9,4.82 -12.61,4.02 -12.31,3.19 -12.01,2.34 -11.72,1.48 -11.42,0.61 -11.12,-0.27 -10.83,-1.15 -10.53,-2.02 -10.23,-2.9 -9.94,-3.78 -9.64,-4.66 -9.34,-5.55 -9.05,-6.46 -8.75,-7.39 -8.45,-8.35 -8.16,-9.34 -7.86,-10.39 -7.56,-11.49 -7.27,-12.64 -6.97,-13.87 -6.67,-15.17 -6.38,-16.53 -6.08,-17.97 -5.78,-19.47 -5.49,-21.03 -5.19,-22.65 -4.89,-24.29 -4.6,-25.97 -4.3,-27.65 -4,-29.31 -3.71,-30.95 -3.41,-32.53 -3.11,-34.04 -2.82,-35.45 -2.52,-36.75 -2.22,-37.92 -1.93,-38.95 -1.63,-39.82 -1.33,-40.52 -1.04,-41.05 -0.74,-41.4 -0.44,-41.57 -0.15,-41.58 0.15,-41.43 0.44,-41.13 0.74,-40.7 1.04,-40.15 1.33,-39.51 1.63,-38.8 1.93,-38.03 2.22,-37.24 2.52,-36.44 2.82,-35.66 3.11,-34.9 3.41,-34.2 3.71,-33.55 4,-32.98 4.3,-32.48 4.6,-32.07 4.89,-31.73 5.19,-31.47 5.49,-31.27 5.78,-31.14 6.08,-31.04 6.38,-30.98 6.67,-30.93 6.97,-30.87 7.27,-30.8 7.56,-30.69 7.86,-30.53 8.16,-30.31 8.45,-30.01 8.75,-29.64 9.05,-29.17 9.34,-28.61 9.64,-27.96 9.94,-27.22 10.23,-26.39 10.53,-25.48 10.83,-24.48 11.12,-23.43 11.42,-22.31 11.72,-21.14 12.01,-19.93 12.31,-18.69 12.61,-17.43 12.9,-16.16 13.2,-14.88 13.5,-13.6 13.79,-12.34 14.09,-11.09 14.39,-9.85 14.68,-8.65 14.98,-7.47 15.28,-6.32 15.57,-5.21 15.87,-4.13 16.17,-3.1 16.46,-2.11 16.76,-1.16 17.06,-0.26 17.35,0.6 17.65,1.42 17.95,2.19 18.24,2.91 18.54,3.6 18.84,4.24 19.13,4.84 19.43,5.42 19.73,5.96 20.02,6.47 20.32,6.96 20.62,7.43 20.91,7.89 21.21,8.34 21.51,8.78 21.8,9.22 22.1,9.65 22.4,10.09 22.69,10.53 22.99,10.97 23.29,11.42 23.58,11.87 23.88,12.32 24.17,12.78 24.47,13.23 24.77,13.69 25.06,14.13 25.36,14.57 25.66,15 25.95,15.41 26.25,15.81 26.55,16.2 26.84,16.56 27.14,16.91 27.44,17.23 27.73,17.53 28.03,17.8 28.33,18.06 28.62,18.29 28.92,18.5 29.22,18.68 29.51,18.85 29.81,18.99 30.11,19.12 30.4,19.23 30.7,19.33 31,19.41 31.29,19.48 31.59,19.54 31.89,19.59 32.18,19.63 32.48,19.67 32.78,19.7 33.07,19.72 33.37,19.74 33.67,19.75 33.96,19.76 34.26,19.77 34.56,19.78 34.85,19.79 35.15,19.79 35.45,19.79 35.74,19.8 36.04,19.8 36.34,19.8 36.63,19.8 36.93,19.8 37.23,19.8 37.52,19.8 37.82,19.8 " class="primitive"/>
          </g>
          <g transform="translate(72.6,60.56)" id="img-11cbaf23-33" class="color_1" stroke-opacity="1" stroke="#00BFFF" stroke-dasharray="none">
            <path fill="none" d="M-41.25,18.16 L-40.92,18.16 -40.6,18.16 -40.27,18.16 -39.95,18.16 -39.63,18.15 -39.3,18.15 -38.98,18.15 -38.66,18.15 -38.33,18.15 -38.01,18.14 -37.69,18.14 -37.36,18.13 -37.04,18.12 -36.72,18.11 -36.39,18.1 -36.07,18.09 -35.75,18.07 -35.42,18.05 -35.1,18.02 -34.78,17.99 -34.45,17.95 -34.13,17.9 -33.81,17.85 -33.48,17.79 -33.16,17.72 -32.83,17.65 -32.51,17.56 -32.19,17.46 -31.86,17.36 -31.54,17.24 -31.22,17.11 -30.89,16.98 -30.57,16.83 -30.25,16.68 -29.92,16.51 -29.6,16.34 -29.28,16.16 -28.95,15.97 -28.63,15.78 -28.31,15.58 -27.98,15.37 -27.66,15.16 -27.34,14.94 -27.01,14.72 -26.69,14.49 -26.36,14.26 -26.04,14.03 -25.72,13.78 -25.39,13.54 -25.07,13.29 -24.75,13.03 -24.42,12.76 -24.1,12.49 -23.78,12.22 -23.45,11.94 -23.13,11.65 -22.81,11.36 -22.48,11.05 -22.16,10.74 -21.84,10.42 -21.51,10.09 -21.19,9.74 -20.87,9.37 -20.54,8.99 -20.22,8.58 -19.89,8.15 -19.57,7.68 -19.25,7.18 -18.92,6.64 -18.6,6.06 -18.28,5.43 -17.95,4.74 -17.63,4 -17.31,3.21 -16.98,2.36 -16.66,1.45 -16.34,0.49 -16.01,-0.53 -15.69,-1.6 -15.37,-2.71 -15.04,-3.87 -14.72,-5.05 -14.4,-6.27 -14.07,-7.51 -13.75,-8.76 -13.42,-10.01 -13.1,-11.27 -12.78,-12.52 -12.45,-13.75 -12.13,-14.96 -11.81,-16.15 -11.48,-17.32 -11.16,-18.45 -10.84,-19.56 -10.51,-20.63 -10.19,-21.68 -9.87,-22.7 -9.54,-23.7 -9.22,-24.67 -8.9,-25.63 -8.57,-26.57 -8.25,-27.51 -7.93,-28.43 -7.6,-29.35 -7.28,-30.27 -6.96,-31.18 -6.63,-32.09 -6.31,-33 -5.98,-33.89 -5.66,-34.77 -5.34,-35.62 -5.01,-36.45 -4.69,-37.24 -4.37,-37.98 -4.04,-38.66 -3.72,-39.28 -3.4,-39.82 -3.07,-40.27 -2.75,-40.63 -2.43,-40.88 -2.1,-41.03 -1.78,-41.07 -1.46,-41 -1.13,-40.82 -0.81,-40.53 -0.49,-40.13 -0.16,-39.64 0.16,-39.06 0.49,-38.39 0.81,-37.66 1.13,-36.86 1.46,-36 1.78,-35.1 2.1,-34.17 2.43,-33.21 2.75,-32.23 3.07,-31.24 3.4,-30.23 3.72,-29.23 4.04,-28.23 4.37,-27.23 4.69,-26.24 5.01,-25.26 5.34,-24.28 5.66,-23.32 5.98,-22.36 6.31,-21.41 6.63,-20.47 6.96,-19.53 7.28,-18.59 7.6,-17.66 7.93,-16.73 8.25,-15.8 8.57,-14.87 8.9,-13.94 9.22,-13.01 9.54,-12.07 9.87,-11.14 10.19,-10.21 10.51,-9.29 10.84,-8.38 11.16,-7.47 11.48,-6.59 11.81,-5.72 12.13,-4.88 12.45,-4.06 12.78,-3.27 13.1,-2.52 13.42,-1.79 13.75,-1.11 14.07,-0.46 14.4,0.16 14.72,0.74 15.04,1.29 15.37,1.82 15.69,2.31 16.01,2.79 16.34,3.25 16.66,3.69 16.98,4.11 17.31,4.53 17.63,4.94 17.95,5.33 18.28,5.72 18.6,6.1 18.92,6.47 19.25,6.82 19.57,7.17 19.89,7.5 20.22,7.81 20.54,8.11 20.87,8.4 21.19,8.66 21.51,8.91 21.84,9.15 22.16,9.37 22.48,9.59 22.81,9.79 23.13,9.99 23.45,10.19 23.78,10.39 24.1,10.59 24.42,10.8 24.75,11.02 25.07,11.25 25.39,11.5 25.72,11.75 26.04,12.03 26.36,12.31 26.69,12.6 27.01,12.91 27.34,13.22 27.66,13.54 27.98,13.86 28.31,14.18 28.63,14.5 28.95,14.81 29.28,15.11 29.6,15.41 29.92,15.69 30.25,15.95 30.57,16.2 30.89,16.44 31.22,16.65 31.54,16.85 31.86,17.03 32.19,17.19 32.51,17.33 32.83,17.46 33.16,17.57 33.48,17.67 33.81,17.76 34.13,17.83 34.45,17.89 34.78,17.94 35.1,17.98 35.42,18.02 35.75,18.05 36.07,18.07 36.39,18.09 36.72,18.11 37.04,18.12 37.36,18.13 37.69,18.14 38.01,18.14 38.33,18.15 38.66,18.15 38.98,18.15 39.3,18.15 39.63,18.15 39.95,18.16 40.27,18.16 40.6,18.16 40.92,18.16 41.25,18.16 " class="primitive"/>
          </g>
          <g transform="translate(77.1,63.01)" id="img-11cbaf23-34" class="color_2" stroke-opacity="1" stroke="#D4CA3A" stroke-dasharray="none">
            <path fill="none" d="M-47.7,15.7 L-47.33,15.7 -46.95,15.7 -46.58,15.7 -46.2,15.7 -45.83,15.7 -45.45,15.7 -45.08,15.69 -44.71,15.69 -44.33,15.69 -43.96,15.68 -43.58,15.67 -43.21,15.66 -42.84,15.65 -42.46,15.64 -42.09,15.62 -41.71,15.6 -41.34,15.57 -40.97,15.53 -40.59,15.49 -40.22,15.45 -39.84,15.39 -39.47,15.33 -39.09,15.26 -38.72,15.18 -38.35,15.1 -37.97,15 -37.6,14.9 -37.22,14.8 -36.85,14.7 -36.48,14.59 -36.1,14.48 -35.73,14.38 -35.35,14.28 -34.98,14.19 -34.61,14.11 -34.23,14.04 -33.86,13.97 -33.48,13.92 -33.11,13.88 -32.74,13.84 -32.36,13.82 -31.99,13.8 -31.61,13.78 -31.24,13.75 -30.86,13.72 -30.49,13.69 -30.12,13.63 -29.74,13.56 -29.37,13.47 -28.99,13.35 -28.62,13.2 -28.25,13.02 -27.87,12.8 -27.5,12.56 -27.12,12.27 -26.75,11.96 -26.38,11.62 -26,11.25 -25.63,10.85 -25.25,10.43 -24.88,9.99 -24.5,9.55 -24.13,9.1 -23.76,8.64 -23.38,8.19 -23.01,7.75 -22.63,7.31 -22.26,6.89 -21.89,6.48 -21.51,6.08 -21.14,5.69 -20.76,5.31 -20.39,4.92 -20.02,4.52 -19.64,4.1 -19.27,3.66 -18.89,3.17 -18.52,2.64 -18.14,2.04 -17.77,1.37 -17.4,0.62 -17.02,-0.22 -16.65,-1.15 -16.27,-2.19 -15.9,-3.34 -15.53,-4.6 -15.15,-5.97 -14.78,-7.45 -14.4,-9.03 -14.03,-10.72 -13.66,-12.5 -13.28,-14.37 -12.91,-16.31 -12.53,-18.31 -12.16,-20.36 -11.78,-22.44 -11.41,-24.54 -11.04,-26.63 -10.66,-28.7 -10.29,-30.72 -9.91,-32.69 -9.54,-34.57 -9.17,-36.36 -8.79,-38.02 -8.42,-39.55 -8.04,-40.93 -7.67,-42.15 -7.3,-43.2 -6.92,-44.06 -6.55,-44.72 -6.17,-45.19 -5.8,-45.47 -5.42,-45.54 -5.05,-45.42 -4.68,-45.12 -4.3,-44.64 -3.93,-43.99 -3.55,-43.2 -3.18,-42.27 -2.81,-41.23 -2.43,-40.11 -2.06,-38.91 -1.68,-37.68 -1.31,-36.43 -0.94,-35.18 -0.56,-33.96 -0.19,-32.8 0.19,-31.7 0.56,-30.69 0.94,-29.77 1.31,-28.96 1.68,-28.25 2.06,-27.66 2.43,-27.17 2.81,-26.77 3.18,-26.47 3.55,-26.24 3.93,-26.07 4.3,-25.94 4.68,-25.84 5.05,-25.73 5.42,-25.61 5.8,-25.45 6.17,-25.24 6.55,-24.95 6.92,-24.58 7.3,-24.11 7.67,-23.53 8.04,-22.85 8.42,-22.05 8.79,-21.14 9.17,-20.12 9.54,-19 9.91,-17.8 10.29,-16.51 10.66,-15.16 11.04,-13.77 11.41,-12.34 11.78,-10.9 12.16,-9.45 12.53,-8.02 12.91,-6.61 13.28,-5.23 13.66,-3.9 14.03,-2.62 14.4,-1.39 14.78,-0.21 15.15,0.91 15.53,1.97 15.9,2.98 16.27,3.93 16.65,4.84 17.02,5.69 17.4,6.51 17.77,7.28 18.14,8 18.52,8.69 18.89,9.33 19.27,9.93 19.64,10.49 20.02,11.01 20.39,11.48 20.76,11.91 21.14,12.29 21.51,12.62 21.89,12.91 22.26,13.15 22.63,13.35 23.01,13.51 23.38,13.62 23.76,13.7 24.13,13.76 24.5,13.78 24.88,13.78 25.25,13.76 25.63,13.73 26,13.69 26.38,13.64 26.75,13.59 27.12,13.54 27.5,13.49 27.87,13.44 28.25,13.4 28.62,13.37 28.99,13.34 29.37,13.32 29.74,13.31 30.12,13.31 30.49,13.31 30.86,13.32 31.24,13.34 31.61,13.37 31.99,13.41 32.36,13.46 32.74,13.51 33.11,13.58 33.48,13.66 33.86,13.75 34.23,13.84 34.61,13.95 34.98,14.06 35.35,14.17 35.73,14.29 36.1,14.41 36.48,14.53 36.85,14.65 37.22,14.77 37.6,14.88 37.97,14.98 38.35,15.08 38.72,15.17 39.09,15.25 39.47,15.32 39.84,15.39 40.22,15.44 40.59,15.49 40.97,15.53 41.34,15.57 41.71,15.6 42.09,15.62 42.46,15.64 42.84,15.65 43.21,15.66 43.58,15.67 43.96,15.68 44.33,15.69 44.71,15.69 45.08,15.69 45.45,15.7 45.83,15.7 46.2,15.7 46.58,15.7 46.95,15.7 47.33,15.7 47.7,15.7 " class="primitive"/>
          </g>
        </g>
      </g>
    </g>
  </g>
  <g class="guide ylabels" font-size="2.82" font-family="'PT Sans Caption','Helvetica Neue','Helvetica',sans-serif" fill="#6C606B" id="img-11cbaf23-35">
    <g transform="translate(17.63,78.71)" id="img-11cbaf23-36">
      <g class="primitive">
        <text text-anchor="end" dy="0.35em">0.0</text>
      </g>
    </g>
    <g transform="translate(17.63,64.37)" id="img-11cbaf23-37">
      <g class="primitive">
        <text text-anchor="end" dy="0.35em">0.1</text>
      </g>
    </g>
    <g transform="translate(17.63,50.03)" id="img-11cbaf23-38">
      <g class="primitive">
        <text text-anchor="end" dy="0.35em">0.2</text>
      </g>
    </g>
    <g transform="translate(17.63,35.69)" id="img-11cbaf23-39">
      <g class="primitive">
        <text text-anchor="end" dy="0.35em">0.3</text>
      </g>
    </g>
    <g transform="translate(17.63,21.34)" id="img-11cbaf23-40">
      <g class="primitive">
        <text text-anchor="end" dy="0.35em">0.4</text>
      </g>
    </g>
    <g transform="translate(17.63,7)" id="img-11cbaf23-41">
      <g class="primitive">
        <text text-anchor="end" dy="0.35em">0.5</text>
      </g>
    </g>
  </g>
  <g font-size="3.88" font-family="'PT Sans','Helvetica Neue','Helvetica',sans-serif" fill="#564A55" stroke="#000000" stroke-opacity="0.000" id="img-11cbaf23-42">
    <g transform="translate(8.81,40.86)" id="img-11cbaf23-43">
      <g class="primitive">
        <text text-anchor="middle" dy="0.35em" transform="rotate(-90,0, 2)">Density</text>
      </g>
    </g>
  </g>
</g>
<defs>
  <clipPath id="img-11cbaf23-15">
    <path d="M18.63,5 L127.47,5 127.47,80.72 18.63,80.72 " />
  </clipPath>
</defs>
</svg>
