<?xml version="1.0" encoding="utf-8"?>
<svg xmlns="http://www.w3.org/2000/svg" xmlns:xlink="http://www.w3.org/1999/xlink" width="600" height="400" viewBox="0 0 2400 1600">
<defs>
  <clipPath id="clip840">
    <rect x="0" y="0" width="2400" height="1600"/>
  </clipPath>
</defs>
<path clip-path="url(#clip840)" d="M0 1600 L2400 1600 L2400 0 L0 0  Z" fill="#ffffff" fill-rule="evenodd" fill-opacity="1"/>
<defs>
  <clipPath id="clip841">
    <rect x="480" y="0" width="1681" height="1600"/>
  </clipPath>
</defs>
<path clip-path="url(#clip840)" d="M181.927 1486.45 L2352.76 1486.45 L2352.76 47.2441 L181.927 47.2441  Z" fill="#ffffff" fill-rule="evenodd" fill-opacity="1"/>
<defs>
  <clipPath id="clip842">
    <rect x="181" y="47" width="2172" height="1440"/>
  </clipPath>
</defs>
<polyline clip-path="url(#clip842)" style="stroke:#000000; stroke-linecap:round; stroke-linejoin:round; stroke-width:2; stroke-opacity:0.1; fill:none" points="254.601,1486.45 254.601,47.2441 "/>
<polyline clip-path="url(#clip842)" style="stroke:#000000; stroke-linecap:round; stroke-linejoin:round; stroke-width:2; stroke-opacity:0.1; fill:none" points="612.576,1486.45 612.576,47.2441 "/>
<polyline clip-path="url(#clip842)" style="stroke:#000000; stroke-linecap:round; stroke-linejoin:round; stroke-width:2; stroke-opacity:0.1; fill:none" points="970.551,1486.45 970.551,47.2441 "/>
<polyline clip-path="url(#clip842)" style="stroke:#000000; stroke-linecap:round; stroke-linejoin:round; stroke-width:2; stroke-opacity:0.1; fill:none" points="1328.53,1486.45 1328.53,47.2441 "/>
<polyline clip-path="url(#clip842)" style="stroke:#000000; stroke-linecap:round; stroke-linejoin:round; stroke-width:2; stroke-opacity:0.1; fill:none" points="1686.5,1486.45 1686.5,47.2441 "/>
<polyline clip-path="url(#clip842)" style="stroke:#000000; stroke-linecap:round; stroke-linejoin:round; stroke-width:2; stroke-opacity:0.1; fill:none" points="2044.48,1486.45 2044.48,47.2441 "/>
<polyline clip-path="url(#clip842)" style="stroke:#000000; stroke-linecap:round; stroke-linejoin:round; stroke-width:2; stroke-opacity:0.1; fill:none" points="181.927,1445.72 2352.76,1445.72 "/>
<polyline clip-path="url(#clip842)" style="stroke:#000000; stroke-linecap:round; stroke-linejoin:round; stroke-width:2; stroke-opacity:0.1; fill:none" points="181.927,993.136 2352.76,993.136 "/>
<polyline clip-path="url(#clip842)" style="stroke:#000000; stroke-linecap:round; stroke-linejoin:round; stroke-width:2; stroke-opacity:0.1; fill:none" points="181.927,540.556 2352.76,540.556 "/>
<polyline clip-path="url(#clip842)" style="stroke:#000000; stroke-linecap:round; stroke-linejoin:round; stroke-width:2; stroke-opacity:0.1; fill:none" points="181.927,87.9763 2352.76,87.9763 "/>
<polyline clip-path="url(#clip840)" style="stroke:#000000; stroke-linecap:round; stroke-linejoin:round; stroke-width:4; stroke-opacity:1; fill:none" points="181.927,1486.45 2352.76,1486.45 "/>
<polyline clip-path="url(#clip840)" style="stroke:#000000; stroke-linecap:round; stroke-linejoin:round; stroke-width:4; stroke-opacity:1; fill:none" points="254.601,1486.45 254.601,1467.55 "/>
<polyline clip-path="url(#clip840)" style="stroke:#000000; stroke-linecap:round; stroke-linejoin:round; stroke-width:4; stroke-opacity:1; fill:none" points="612.576,1486.45 612.576,1467.55 "/>
<polyline clip-path="url(#clip840)" style="stroke:#000000; stroke-linecap:round; stroke-linejoin:round; stroke-width:4; stroke-opacity:1; fill:none" points="970.551,1486.45 970.551,1467.55 "/>
<polyline clip-path="url(#clip840)" style="stroke:#000000; stroke-linecap:round; stroke-linejoin:round; stroke-width:4; stroke-opacity:1; fill:none" points="1328.53,1486.45 1328.53,1467.55 "/>
<polyline clip-path="url(#clip840)" style="stroke:#000000; stroke-linecap:round; stroke-linejoin:round; stroke-width:4; stroke-opacity:1; fill:none" points="1686.5,1486.45 1686.5,1467.55 "/>
<polyline clip-path="url(#clip840)" style="stroke:#000000; stroke-linecap:round; stroke-linejoin:round; stroke-width:4; stroke-opacity:1; fill:none" points="2044.48,1486.45 2044.48,1467.55 "/>
<path clip-path="url(#clip840)" d="M224.359 1532.02 L254.034 1532.02 L254.034 1535.95 L224.359 1535.95 L224.359 1532.02 Z" fill="#000000" fill-rule="nonzero" fill-opacity="1" /><path clip-path="url(#clip840)" d="M264.937 1544.91 L272.576 1544.91 L272.576 1518.55 L264.266 1520.21 L264.266 1515.95 L272.53 1514.29 L277.205 1514.29 L277.205 1544.91 L284.844 1544.91 L284.844 1548.85 L264.937 1548.85 L264.937 1544.91 Z" fill="#000000" fill-rule="nonzero" fill-opacity="1" /><path clip-path="url(#clip840)" d="M612.576 1517.37 Q608.965 1517.37 607.137 1520.93 Q605.331 1524.47 605.331 1531.6 Q605.331 1538.71 607.137 1542.27 Q608.965 1545.82 612.576 1545.82 Q616.211 1545.82 618.016 1542.27 Q619.845 1538.71 619.845 1531.6 Q619.845 1524.47 618.016 1520.93 Q616.211 1517.37 612.576 1517.37 M612.576 1513.66 Q618.386 1513.66 621.442 1518.27 Q624.521 1522.85 624.521 1531.6 Q624.521 1540.33 621.442 1544.94 Q618.386 1549.52 612.576 1549.52 Q606.766 1549.52 603.688 1544.94 Q600.632 1540.33 600.632 1531.6 Q600.632 1522.85 603.688 1518.27 Q606.766 1513.66 612.576 1513.66 Z" fill="#000000" fill-rule="nonzero" fill-opacity="1" /><path clip-path="url(#clip840)" d="M960.933 1544.91 L968.572 1544.91 L968.572 1518.55 L960.262 1520.21 L960.262 1515.95 L968.526 1514.29 L973.202 1514.29 L973.202 1544.91 L980.841 1544.91 L980.841 1548.85 L960.933 1548.85 L960.933 1544.91 Z" fill="#000000" fill-rule="nonzero" fill-opacity="1" /><path clip-path="url(#clip840)" d="M1323.18 1544.91 L1339.5 1544.91 L1339.5 1548.85 L1317.55 1548.85 L1317.55 1544.91 Q1320.22 1542.16 1324.8 1537.53 Q1329.41 1532.88 1330.59 1531.53 Q1332.83 1529.01 1333.71 1527.27 Q1334.61 1525.51 1334.61 1523.82 Q1334.61 1521.07 1332.67 1519.33 Q1330.75 1517.6 1327.65 1517.6 Q1325.45 1517.6 1322.99 1518.36 Q1320.56 1519.13 1317.79 1520.68 L1317.79 1515.95 Q1320.61 1514.82 1323.06 1514.24 Q1325.52 1513.66 1327.55 1513.66 Q1332.92 1513.66 1336.12 1516.35 Q1339.31 1519.03 1339.31 1523.52 Q1339.31 1525.65 1338.5 1527.57 Q1337.72 1529.47 1335.61 1532.07 Q1335.03 1532.74 1331.93 1535.95 Q1328.83 1539.15 1323.18 1544.91 Z" fill="#000000" fill-rule="nonzero" fill-opacity="1" /><path clip-path="url(#clip840)" d="M1690.75 1530.21 Q1694.11 1530.93 1695.98 1533.2 Q1697.88 1535.47 1697.88 1538.8 Q1697.88 1543.92 1694.36 1546.72 Q1690.84 1549.52 1684.36 1549.52 Q1682.18 1549.52 1679.87 1549.08 Q1677.58 1548.66 1675.12 1547.81 L1675.12 1543.29 Q1677.07 1544.43 1679.38 1545.01 Q1681.7 1545.58 1684.22 1545.58 Q1688.62 1545.58 1690.91 1543.85 Q1693.23 1542.11 1693.23 1538.8 Q1693.23 1535.75 1691.07 1534.03 Q1688.94 1532.3 1685.12 1532.3 L1681.1 1532.3 L1681.1 1528.45 L1685.31 1528.45 Q1688.76 1528.45 1690.59 1527.09 Q1692.42 1525.7 1692.42 1523.11 Q1692.42 1520.45 1690.52 1519.03 Q1688.64 1517.6 1685.12 1517.6 Q1683.2 1517.6 1681 1518.01 Q1678.8 1518.43 1676.17 1519.31 L1676.17 1515.14 Q1678.83 1514.4 1681.14 1514.03 Q1683.48 1513.66 1685.54 1513.66 Q1690.86 1513.66 1693.97 1516.09 Q1697.07 1518.5 1697.07 1522.62 Q1697.07 1525.49 1695.42 1527.48 Q1693.78 1529.45 1690.75 1530.21 Z" fill="#000000" fill-rule="nonzero" fill-opacity="1" /><path clip-path="url(#clip840)" d="M2047.49 1518.36 L2035.68 1536.81 L2047.49 1536.81 L2047.49 1518.36 M2046.26 1514.29 L2052.14 1514.29 L2052.14 1536.81 L2057.07 1536.81 L2057.07 1540.7 L2052.14 1540.7 L2052.14 1548.85 L2047.49 1548.85 L2047.49 1540.7 L2031.88 1540.7 L2031.88 1536.19 L2046.26 1514.29 Z" fill="#000000" fill-rule="nonzero" fill-opacity="1" /><polyline clip-path="url(#clip840)" style="stroke:#000000; stroke-linecap:round; stroke-linejoin:round; stroke-width:4; stroke-opacity:1; fill:none" points="181.927,1486.45 181.927,47.2441 "/>
<polyline clip-path="url(#clip840)" style="stroke:#000000; stroke-linecap:round; stroke-linejoin:round; stroke-width:4; stroke-opacity:1; fill:none" points="181.927,1445.72 200.824,1445.72 "/>
<polyline clip-path="url(#clip840)" style="stroke:#000000; stroke-linecap:round; stroke-linejoin:round; stroke-width:4; stroke-opacity:1; fill:none" points="181.927,993.136 200.824,993.136 "/>
<polyline clip-path="url(#clip840)" style="stroke:#000000; stroke-linecap:round; stroke-linejoin:round; stroke-width:4; stroke-opacity:1; fill:none" points="181.927,540.556 200.824,540.556 "/>
<polyline clip-path="url(#clip840)" style="stroke:#000000; stroke-linecap:round; stroke-linejoin:round; stroke-width:4; stroke-opacity:1; fill:none" points="181.927,87.9763 200.824,87.9763 "/>
<path clip-path="url(#clip840)" d="M121.552 1432.28 L121.552 1459.15 L127.2 1459.15 Q134.353 1459.15 137.663 1455.91 Q140.996 1452.67 140.996 1445.68 Q140.996 1438.74 137.663 1435.52 Q134.353 1432.28 127.2 1432.28 L121.552 1432.28 M116.876 1428.44 L126.482 1428.44 Q136.529 1428.44 141.228 1432.63 Q145.927 1436.79 145.927 1445.68 Q145.927 1454.62 141.204 1458.81 Q136.482 1463 126.482 1463 L116.876 1463 L116.876 1428.44 Z" fill="#000000" fill-rule="nonzero" fill-opacity="1" /><path clip-path="url(#clip840)" d="M130.093 980.462 L123.751 997.661 L136.459 997.661 L130.093 980.462 M127.455 975.856 L132.755 975.856 L145.927 1010.42 L141.066 1010.42 L137.917 1001.55 L122.339 1001.55 L119.191 1010.42 L114.26 1010.42 L127.455 975.856 Z" fill="#000000" fill-rule="nonzero" fill-opacity="1" /><path clip-path="url(#clip840)" d="M126.089 541.332 L126.089 553.994 L133.589 553.994 Q137.362 553.994 139.167 552.443 Q140.996 550.869 140.996 547.651 Q140.996 544.41 139.167 542.882 Q137.362 541.332 133.589 541.332 L126.089 541.332 M126.089 527.119 L126.089 537.535 L133.01 537.535 Q136.436 537.535 138.103 536.262 Q139.792 534.966 139.792 532.327 Q139.792 529.711 138.103 528.415 Q136.436 527.119 133.01 527.119 L126.089 527.119 M121.413 523.276 L133.357 523.276 Q138.704 523.276 141.598 525.498 Q144.491 527.721 144.491 531.818 Q144.491 534.989 143.01 536.864 Q141.529 538.739 138.658 539.202 Q142.107 539.943 144.005 542.304 Q145.927 544.642 145.927 548.16 Q145.927 552.79 142.779 555.313 Q139.63 557.836 133.82 557.836 L121.413 557.836 L121.413 523.276 Z" fill="#000000" fill-rule="nonzero" fill-opacity="1" /><path clip-path="url(#clip840)" d="M145.927 73.3583 L145.927 78.2888 Q143.566 76.0898 140.88 75.0018 Q138.218 73.9139 135.209 73.9139 Q129.283 73.9139 126.135 77.5481 Q122.987 81.1592 122.987 88.011 Q122.987 94.8397 126.135 98.4739 Q129.283 102.085 135.209 102.085 Q138.218 102.085 140.88 100.997 Q143.566 99.9091 145.927 97.71 L145.927 102.594 Q143.473 104.261 140.718 105.094 Q137.987 105.928 134.931 105.928 Q127.084 105.928 122.57 101.136 Q118.056 96.3211 118.056 88.011 Q118.056 79.6777 122.57 74.8861 Q127.084 70.0713 134.931 70.0713 Q138.033 70.0713 140.765 70.9046 Q143.519 71.7148 145.927 73.3583 Z" fill="#000000" fill-rule="nonzero" fill-opacity="1" /><path clip-path="url(#clip840)" d="M21.7677 942.173 L39.6235 942.173 L39.6235 934.089 Q39.6235 929.601 37.3 927.15 Q34.9765 924.7 30.6797 924.7 Q26.4147 924.7 24.0912 927.15 Q21.7677 929.601 21.7677 934.089 L21.7677 942.173 M16.4842 948.603 L16.4842 934.089 Q16.4842 926.1 20.1126 922.026 Q23.7092 917.92 30.6797 917.92 Q37.7138 917.92 41.3104 922.026 Q44.907 926.1 44.907 934.089 L44.907 942.173 L64.0042 942.173 L64.0042 948.603 L16.4842 948.603 Z" fill="#000000" fill-rule="nonzero" fill-opacity="1" /><path clip-path="url(#clip840)" d="M46.0847 896.277 Q46.0847 903.374 47.7079 906.112 Q49.3312 908.849 53.2461 908.849 Q56.3653 908.849 58.2114 906.812 Q60.0256 904.743 60.0256 901.21 Q60.0256 896.34 56.5881 893.412 Q53.1188 890.452 47.3897 890.452 L46.0847 890.452 L46.0847 896.277 M43.6657 884.596 L64.0042 884.596 L64.0042 890.452 L58.5933 890.452 Q61.8398 892.457 63.3994 895.449 Q64.9272 898.441 64.9272 902.77 Q64.9272 908.244 61.8716 911.491 Q58.7843 914.705 53.6281 914.705 Q47.6125 914.705 44.5569 910.695 Q41.5014 906.653 41.5014 898.664 L41.5014 890.452 L40.9285 890.452 Q36.8862 890.452 34.6901 893.126 Q32.4621 895.767 32.4621 900.574 Q32.4621 903.629 33.1941 906.526 Q33.9262 909.422 35.3903 912.095 L29.9795 912.095 Q28.7381 908.881 28.1334 905.857 Q27.4968 902.833 27.4968 899.969 Q27.4968 892.234 31.5072 888.415 Q35.5176 884.596 43.6657 884.596 Z" fill="#000000" fill-rule="nonzero" fill-opacity="1" /><path clip-path="url(#clip840)" d="M33.8307 851.876 Q33.2578 852.863 33.0032 854.04 Q32.7167 855.186 32.7167 856.587 Q32.7167 861.552 35.9632 864.225 Q39.1779 866.867 45.2253 866.867 L64.0042 866.867 L64.0042 872.755 L28.3562 872.755 L28.3562 866.867 L33.8944 866.867 Q30.6479 865.021 29.0883 862.061 Q27.4968 859.101 27.4968 854.868 Q27.4968 854.263 27.5923 853.531 Q27.656 852.799 27.8151 851.908 L33.8307 851.876 Z" fill="#000000" fill-rule="nonzero" fill-opacity="1" /><path clip-path="url(#clip840)" d="M46.0847 829.532 Q46.0847 836.63 47.7079 839.367 Q49.3312 842.105 53.2461 842.105 Q56.3653 842.105 58.2114 840.068 Q60.0256 837.999 60.0256 834.466 Q60.0256 829.596 56.5881 826.668 Q53.1188 823.708 47.3897 823.708 L46.0847 823.708 L46.0847 829.532 M43.6657 817.851 L64.0042 817.851 L64.0042 823.708 L58.5933 823.708 Q61.8398 825.713 63.3994 828.705 Q64.9272 831.697 64.9272 836.025 Q64.9272 841.5 61.8716 844.746 Q58.7843 847.961 53.6281 847.961 Q47.6125 847.961 44.5569 843.951 Q41.5014 839.908 41.5014 831.919 L41.5014 823.708 L40.9285 823.708 Q36.8862 823.708 34.6901 826.381 Q32.4621 829.023 32.4621 833.829 Q32.4621 836.885 33.1941 839.781 Q33.9262 842.677 35.3903 845.351 L29.9795 845.351 Q28.7381 842.136 28.1334 839.113 Q27.4968 836.089 27.4968 833.224 Q27.4968 825.49 31.5072 821.671 Q35.5176 817.851 43.6657 817.851 Z" fill="#000000" fill-rule="nonzero" fill-opacity="1" /><path clip-path="url(#clip840)" d="M35.1993 778.034 Q31.2526 775.838 29.3747 772.782 Q27.4968 769.726 27.4968 765.589 Q27.4968 760.019 31.4117 756.995 Q35.2948 753.971 42.4881 753.971 L64.0042 753.971 L64.0042 759.86 L42.679 759.86 Q37.5546 759.86 35.072 761.674 Q32.5894 763.488 32.5894 767.212 Q32.5894 771.763 35.6131 774.405 Q38.6368 777.047 43.8567 777.047 L64.0042 777.047 L64.0042 782.935 L42.679 782.935 Q37.5228 782.935 35.072 784.75 Q32.5894 786.564 32.5894 790.351 Q32.5894 794.839 35.6449 797.481 Q38.6686 800.123 43.8567 800.123 L64.0042 800.123 L64.0042 806.011 L28.3562 806.011 L28.3562 800.123 L33.8944 800.123 Q30.616 798.118 29.0564 795.317 Q27.4968 792.516 27.4968 788.664 Q27.4968 784.781 29.4702 782.076 Q31.4436 779.339 35.1993 778.034 Z" fill="#000000" fill-rule="nonzero" fill-opacity="1" /><path clip-path="url(#clip840)" d="M44.7161 711.799 L47.5806 711.799 L47.5806 738.725 Q53.6281 738.344 56.8109 735.097 Q59.9619 731.819 59.9619 725.994 Q59.9619 722.62 59.1344 719.469 Q58.3069 716.286 56.6518 713.167 L62.1899 713.167 Q63.5267 716.318 64.227 719.628 Q64.9272 722.939 64.9272 726.344 Q64.9272 734.874 59.9619 739.871 Q54.9967 744.837 46.5303 744.837 Q37.7774 744.837 32.6531 740.126 Q27.4968 735.383 27.4968 727.363 Q27.4968 720.169 32.1438 716 Q36.7589 711.799 44.7161 711.799 M42.9973 717.655 Q38.1912 717.719 35.3266 720.36 Q32.4621 722.97 32.4621 727.299 Q32.4621 732.201 35.2312 735.161 Q38.0002 738.089 43.0292 738.535 L42.9973 717.655 Z" fill="#000000" fill-rule="nonzero" fill-opacity="1" /><path clip-path="url(#clip840)" d="M18.2347 696.394 L28.3562 696.394 L28.3562 684.331 L32.9077 684.331 L32.9077 696.394 L52.2594 696.394 Q56.6199 696.394 57.8613 695.216 Q59.1026 694.006 59.1026 690.346 L59.1026 684.331 L64.0042 684.331 L64.0042 690.346 Q64.0042 697.126 61.4897 699.704 Q58.9434 702.282 52.2594 702.282 L32.9077 702.282 L32.9077 706.579 L28.3562 706.579 L28.3562 702.282 L18.2347 702.282 L18.2347 696.394 Z" fill="#000000" fill-rule="nonzero" fill-opacity="1" /><path clip-path="url(#clip840)" d="M44.7161 646.136 L47.5806 646.136 L47.5806 673.063 Q53.6281 672.681 56.8109 669.435 Q59.9619 666.156 59.9619 660.332 Q59.9619 656.958 59.1344 653.807 Q58.3069 650.624 56.6518 647.505 L62.1899 647.505 Q63.5267 650.656 64.227 653.966 Q64.9272 657.276 64.9272 660.682 Q64.9272 669.212 59.9619 674.209 Q54.9967 679.174 46.5303 679.174 Q37.7774 679.174 32.6531 674.464 Q27.4968 669.721 27.4968 661.7 Q27.4968 654.507 32.1438 650.338 Q36.7589 646.136 44.7161 646.136 M42.9973 651.993 Q38.1912 652.056 35.3266 654.698 Q32.4621 657.308 32.4621 661.637 Q32.4621 666.538 35.2312 669.498 Q38.0002 672.427 43.0292 672.872 L42.9973 651.993 Z" fill="#000000" fill-rule="nonzero" fill-opacity="1" /><path clip-path="url(#clip840)" d="M33.8307 615.867 Q33.2578 616.854 33.0032 618.032 Q32.7167 619.178 32.7167 620.578 Q32.7167 625.543 35.9632 628.217 Q39.1779 630.859 45.2253 630.859 L64.0042 630.859 L64.0042 636.747 L28.3562 636.747 L28.3562 630.859 L33.8944 630.859 Q30.6479 629.013 29.0883 626.052 Q27.4968 623.092 27.4968 618.859 Q27.4968 618.254 27.5923 617.522 Q27.656 616.79 27.8151 615.899 L33.8307 615.867 Z" fill="#000000" fill-rule="nonzero" fill-opacity="1" /><path clip-path="url(#clip840)" d="M29.4065 586.999 L34.9447 586.999 Q33.6716 589.481 33.035 592.155 Q32.3984 594.829 32.3984 597.693 Q32.3984 602.054 33.7352 604.25 Q35.072 606.414 37.7456 606.414 Q39.7826 606.414 40.9603 604.855 Q42.1061 603.295 43.1565 598.584 L43.6021 596.579 Q44.9389 590.341 47.3897 587.731 Q49.8086 585.089 54.1691 585.089 Q59.1344 585.089 62.0308 589.036 Q64.9272 592.951 64.9272 599.826 Q64.9272 602.69 64.3543 605.81 Q63.8132 608.897 62.6992 612.334 L56.6518 612.334 Q58.3387 609.088 59.198 605.937 Q60.0256 602.786 60.0256 599.698 Q60.0256 595.561 58.6251 593.333 Q57.1929 591.105 54.6147 591.105 Q52.2276 591.105 50.9545 592.728 Q49.6813 594.319 48.5037 599.762 L48.0262 601.799 Q46.8804 607.242 44.5251 609.661 Q42.138 612.08 38.0002 612.08 Q32.9713 612.08 30.2341 608.515 Q27.4968 604.95 27.4968 598.393 Q27.4968 595.147 27.9743 592.282 Q28.4517 589.418 29.4065 586.999 Z" fill="#000000" fill-rule="nonzero" fill-opacity="1" /><polyline clip-path="url(#clip842)" style="stroke:#009af9; stroke-linecap:round; stroke-linejoin:round; stroke-width:6; stroke-opacity:0.8; fill:none" points="970.551,1445.72 1328.53,1445.72 "/>
<polyline clip-path="url(#clip842)" style="stroke:#e26f46; stroke-linecap:round; stroke-linejoin:round; stroke-width:12; stroke-opacity:0.8; fill:none" points="970.551,1445.72 1328.53,1445.72 "/>
<polyline clip-path="url(#clip842)" style="stroke:#3da44d; stroke-linecap:round; stroke-linejoin:round; stroke-width:18; stroke-opacity:0.8; fill:none" points="970.551,1445.72 1328.53,1445.72 "/>
<path clip-path="url(#clip842)" d="M970.551 1433.72 L958.551 1445.72 L970.551 1457.72 L982.551 1445.72 L970.551 1433.72 Z" fill="#000000" fill-rule="evenodd" fill-opacity="1" stroke="none"/>
<circle clip-path="url(#clip842)" cx="1137.01" cy="1445.72" r="10.8" fill="#808080" fill-rule="evenodd" fill-opacity="1" stroke="#000000" stroke-opacity="1" stroke-width="3.2"/>
<circle clip-path="url(#clip842)" style="fill:#000000; stroke:none; fill-opacity:1" cx="970.551" cy="1445.72" r="2"/>
<polyline clip-path="url(#clip842)" style="stroke:#000000; stroke-linecap:round; stroke-linejoin:round; stroke-width:0; stroke-opacity:1; fill:none" points="970.551,1445.72 1328.53,1445.72 "/>
<polyline clip-path="url(#clip842)" style="stroke:#009af9; stroke-linecap:round; stroke-linejoin:round; stroke-width:6; stroke-opacity:0.8; fill:none" points="243.365,993.136 1601.92,993.136 "/>
<polyline clip-path="url(#clip842)" style="stroke:#e26f46; stroke-linecap:round; stroke-linejoin:round; stroke-width:12; stroke-opacity:0.8; fill:none" points="526.013,993.136 1492.02,993.136 "/>
<polyline clip-path="url(#clip842)" style="stroke:#3da44d; stroke-linecap:round; stroke-linejoin:round; stroke-width:18; stroke-opacity:0.8; fill:none" points="607.272,993.136 1402.17,993.136 "/>
<path clip-path="url(#clip842)" d="M985.679 981.136 L973.679 993.136 L985.679 1005.14 L997.679 993.136 L985.679 981.136 Z" fill="#000000" fill-rule="evenodd" fill-opacity="1" stroke="none"/>
<circle clip-path="url(#clip842)" cx="992.873" cy="993.136" r="10.8" fill="#808080" fill-rule="evenodd" fill-opacity="1" stroke="#000000" stroke-opacity="1" stroke-width="3.2"/>
<circle clip-path="url(#clip842)" style="fill:#000000; stroke:none; fill-opacity:1" cx="985.679" cy="993.136" r="2"/>
<polyline clip-path="url(#clip842)" style="stroke:#000000; stroke-linecap:round; stroke-linejoin:round; stroke-width:0; stroke-opacity:1; fill:none" points="586.573,993.136 1451.26,993.136 "/>
<polyline clip-path="url(#clip842)" style="stroke:#009af9; stroke-linecap:round; stroke-linejoin:round; stroke-width:6; stroke-opacity:0.8; fill:none" points="701.837,540.556 1984.33,540.556 "/>
<polyline clip-path="url(#clip842)" style="stroke:#e26f46; stroke-linecap:round; stroke-linejoin:round; stroke-width:12; stroke-opacity:0.8; fill:none" points="773.412,540.556 1813.56,540.556 "/>
<polyline clip-path="url(#clip842)" style="stroke:#3da44d; stroke-linecap:round; stroke-linejoin:round; stroke-width:18; stroke-opacity:0.8; fill:none" points="892.231,540.556 1737.29,540.556 "/>
<path clip-path="url(#clip842)" d="M1322.78 528.556 L1310.78 540.556 L1322.78 552.556 L1334.78 540.556 L1322.78 528.556 Z" fill="#000000" fill-rule="evenodd" fill-opacity="1" stroke="none"/>
<circle clip-path="url(#clip842)" cx="1322.25" cy="540.556" r="10.8" fill="#808080" fill-rule="evenodd" fill-opacity="1" stroke="#000000" stroke-opacity="1" stroke-width="3.2"/>
<circle clip-path="url(#clip842)" style="fill:#000000; stroke:none; fill-opacity:1" cx="1322.78" cy="540.556" r="2"/>
<polyline clip-path="url(#clip842)" style="stroke:#000000; stroke-linecap:round; stroke-linejoin:round; stroke-width:0; stroke-opacity:1; fill:none" points="855.146,540.556 1797.85,540.556 "/>
<polyline clip-path="url(#clip842)" style="stroke:#009af9; stroke-linecap:round; stroke-linejoin:round; stroke-width:6; stroke-opacity:0.8; fill:none" points="904.094,87.9763 2291.32,87.9763 "/>
<polyline clip-path="url(#clip842)" style="stroke:#e26f46; stroke-linecap:round; stroke-linejoin:round; stroke-width:12; stroke-opacity:0.8; fill:none" points="1245.19,87.9763 2257.35,87.9763 "/>
<polyline clip-path="url(#clip842)" style="stroke:#3da44d; stroke-linecap:round; stroke-linejoin:round; stroke-width:18; stroke-opacity:0.8; fill:none" points="1297.75,87.9763 2087.69,87.9763 "/>
<path clip-path="url(#clip842)" d="M1685.3 75.9763 L1673.3 87.9763 L1685.3 99.9763 L1697.3 87.9763 L1685.3 75.9763 Z" fill="#000000" fill-rule="evenodd" fill-opacity="1" stroke="none"/>
<circle clip-path="url(#clip842)" cx="1663.17" cy="87.9763" r="10.8" fill="#808080" fill-rule="evenodd" fill-opacity="1" stroke="#000000" stroke-opacity="1" stroke-width="3.2"/>
<circle clip-path="url(#clip842)" style="fill:#000000; stroke:none; fill-opacity:1" cx="1685.3" cy="87.9763" r="2"/>
<polyline clip-path="url(#clip842)" style="stroke:#000000; stroke-linecap:round; stroke-linejoin:round; stroke-width:0; stroke-opacity:1; fill:none" points="1219.18,87.9763 2089.76,87.9763 "/>
<path clip-path="url(#clip840)" d="M254.288 406.258 L698.892 406.258 L698.892 95.2176 L254.288 95.2176  Z" fill="#ffffff" fill-rule="evenodd" fill-opacity="1"/>
<polyline clip-path="url(#clip840)" style="stroke:#000000; stroke-linecap:round; stroke-linejoin:round; stroke-width:4; stroke-opacity:1; fill:none" points="254.288,406.258 698.892,406.258 698.892,95.2176 254.288,95.2176 254.288,406.258 "/>
<polyline clip-path="url(#clip840)" style="stroke:#009af9; stroke-linecap:round; stroke-linejoin:round; stroke-width:6; stroke-opacity:0.8; fill:none" points="278.408,147.058 423.13,147.058 "/>
<path clip-path="url(#clip840)" d="M449.472 163.62 L449.472 159.361 Q451.232 160.194 453.037 160.634 Q454.843 161.074 456.579 161.074 Q461.208 161.074 463.639 157.972 Q466.093 154.847 466.44 148.504 Q465.097 150.495 463.037 151.56 Q460.977 152.625 458.477 152.625 Q453.292 152.625 450.259 149.5 Q447.25 146.352 447.25 140.912 Q447.25 135.588 450.398 132.37 Q453.546 129.153 458.778 129.153 Q464.773 129.153 467.921 133.759 Q471.093 138.342 471.093 147.092 Q471.093 155.264 467.204 160.148 Q463.338 165.009 456.787 165.009 Q455.028 165.009 453.222 164.662 Q451.417 164.314 449.472 163.62 M458.778 148.967 Q461.926 148.967 463.755 146.814 Q465.607 144.662 465.607 140.912 Q465.607 137.185 463.755 135.032 Q461.926 132.856 458.778 132.856 Q455.63 132.856 453.778 135.032 Q451.949 137.185 451.949 140.912 Q451.949 144.662 453.778 146.814 Q455.63 148.967 458.778 148.967 Z" fill="#000000" fill-rule="nonzero" fill-opacity="1" /><path clip-path="url(#clip840)" d="M479.542 129.778 L497.898 129.778 L497.898 133.713 L483.824 133.713 L483.824 142.185 Q484.843 141.838 485.861 141.676 Q486.88 141.49 487.898 141.49 Q493.685 141.49 497.065 144.662 Q500.444 147.833 500.444 153.25 Q500.444 158.828 496.972 161.93 Q493.5 165.009 487.181 165.009 Q485.005 165.009 482.736 164.638 Q480.491 164.268 478.083 163.527 L478.083 158.828 Q480.167 159.963 482.389 160.518 Q484.611 161.074 487.088 161.074 Q491.093 161.074 493.431 158.967 Q495.768 156.861 495.768 153.25 Q495.768 149.639 493.431 147.532 Q491.093 145.426 487.088 145.426 Q485.213 145.426 483.338 145.842 Q481.486 146.259 479.542 147.139 L479.542 129.778 Z" fill="#000000" fill-rule="nonzero" fill-opacity="1" /><path clip-path="url(#clip840)" d="M539.055 149.129 Q537.041 149.129 535.884 150.842 Q534.75 152.555 534.75 155.611 Q534.75 158.62 535.884 160.356 Q537.041 162.069 539.055 162.069 Q541.023 162.069 542.157 160.356 Q543.315 158.62 543.315 155.611 Q543.315 152.578 542.157 150.865 Q541.023 149.129 539.055 149.129 M539.055 146.19 Q542.713 146.19 544.865 148.736 Q547.018 151.282 547.018 155.611 Q547.018 159.939 544.842 162.486 Q542.69 165.009 539.055 165.009 Q535.352 165.009 533.199 162.486 Q531.046 159.939 531.046 155.611 Q531.046 151.259 533.199 148.736 Q535.375 146.19 539.055 146.19 M515.167 132.092 Q513.176 132.092 512.018 133.828 Q510.884 135.541 510.884 138.551 Q510.884 141.606 512.018 143.319 Q513.153 145.032 515.167 145.032 Q517.18 145.032 518.315 143.319 Q519.472 141.606 519.472 138.551 Q519.472 135.565 518.315 133.828 Q517.157 132.092 515.167 132.092 M536.069 129.153 L539.773 129.153 L518.153 165.009 L514.449 165.009 L536.069 129.153 M515.167 129.153 Q518.824 129.153 521 131.699 Q523.176 134.222 523.176 138.551 Q523.176 142.926 521 145.449 Q518.847 147.972 515.167 147.972 Q511.486 147.972 509.333 145.449 Q507.204 142.902 507.204 138.551 Q507.204 134.245 509.356 131.699 Q511.509 129.153 515.167 129.153 Z" fill="#000000" fill-rule="nonzero" fill-opacity="1" /><path clip-path="url(#clip840)" d="M569.356 129.778 L574.032 129.778 L574.032 143.944 L591.023 143.944 L591.023 129.778 L595.699 129.778 L595.699 164.338 L591.023 164.338 L591.023 147.879 L574.032 147.879 L574.032 164.338 L569.356 164.338 L569.356 129.778 Z" fill="#000000" fill-rule="nonzero" fill-opacity="1" /><path clip-path="url(#clip840)" d="M609.68 133.62 L609.68 146.606 L615.56 146.606 Q618.823 146.606 620.606 144.916 Q622.388 143.227 622.388 140.102 Q622.388 137 620.606 135.31 Q618.823 133.62 615.56 133.62 L609.68 133.62 M605.004 129.778 L615.56 129.778 Q621.37 129.778 624.333 132.416 Q627.319 135.032 627.319 140.102 Q627.319 145.217 624.333 147.833 Q621.37 150.449 615.56 150.449 L609.68 150.449 L609.68 164.338 L605.004 164.338 L605.004 129.778 Z" fill="#000000" fill-rule="nonzero" fill-opacity="1" /><path clip-path="url(#clip840)" d="M638.268 133.62 L638.268 160.495 L643.916 160.495 Q651.069 160.495 654.379 157.254 Q657.712 154.014 657.712 147.023 Q657.712 140.078 654.379 136.861 Q651.069 133.62 643.916 133.62 L638.268 133.62 M633.592 129.778 L643.198 129.778 Q653.244 129.778 657.944 133.967 Q662.643 138.134 662.643 147.023 Q662.643 155.958 657.92 160.148 Q653.198 164.338 643.198 164.338 L633.592 164.338 L633.592 129.778 Z" fill="#000000" fill-rule="nonzero" fill-opacity="1" /><path clip-path="url(#clip840)" d="M670.096 129.778 L674.772 129.778 L674.772 164.338 L670.096 164.338 L670.096 129.778 Z" fill="#000000" fill-rule="nonzero" fill-opacity="1" /><polyline clip-path="url(#clip840)" style="stroke:#e26f46; stroke-linecap:round; stroke-linejoin:round; stroke-width:12; stroke-opacity:0.8; fill:none" points="278.408,198.898 423.13,198.898 "/>
<path clip-path="url(#clip840)" d="M459.102 199.766 Q455.769 199.766 453.847 201.548 Q451.949 203.33 451.949 206.455 Q451.949 209.58 453.847 211.363 Q455.769 213.145 459.102 213.145 Q462.435 213.145 464.357 211.363 Q466.278 209.557 466.278 206.455 Q466.278 203.33 464.357 201.548 Q462.458 199.766 459.102 199.766 M454.426 197.775 Q451.417 197.034 449.727 194.974 Q448.06 192.914 448.06 189.951 Q448.06 185.807 451 183.4 Q453.963 180.993 459.102 180.993 Q464.264 180.993 467.204 183.4 Q470.144 185.807 470.144 189.951 Q470.144 192.914 468.454 194.974 Q466.787 197.034 463.801 197.775 Q467.181 198.562 469.056 200.854 Q470.954 203.145 470.954 206.455 Q470.954 211.479 467.875 214.164 Q464.82 216.849 459.102 216.849 Q453.384 216.849 450.306 214.164 Q447.25 211.479 447.25 206.455 Q447.25 203.145 449.148 200.854 Q451.047 198.562 454.426 197.775 M452.713 190.391 Q452.713 193.076 454.38 194.58 Q456.07 196.085 459.102 196.085 Q462.111 196.085 463.801 194.58 Q465.514 193.076 465.514 190.391 Q465.514 187.705 463.801 186.201 Q462.111 184.696 459.102 184.696 Q456.07 184.696 454.38 186.201 Q452.713 187.705 452.713 190.391 Z" fill="#000000" fill-rule="nonzero" fill-opacity="1" /><path clip-path="url(#clip840)" d="M479.31 181.618 L497.667 181.618 L497.667 185.553 L483.593 185.553 L483.593 194.025 Q484.611 193.678 485.63 193.516 Q486.648 193.33 487.667 193.33 Q493.454 193.33 496.833 196.502 Q500.213 199.673 500.213 205.09 Q500.213 210.668 496.741 213.77 Q493.269 216.849 486.949 216.849 Q484.773 216.849 482.505 216.478 Q480.259 216.108 477.852 215.367 L477.852 210.668 Q479.935 211.803 482.157 212.358 Q484.38 212.914 486.856 212.914 Q490.861 212.914 493.199 210.807 Q495.537 208.701 495.537 205.09 Q495.537 201.479 493.199 199.372 Q490.861 197.266 486.856 197.266 Q484.982 197.266 483.107 197.682 Q481.255 198.099 479.31 198.979 L479.31 181.618 Z" fill="#000000" fill-rule="nonzero" fill-opacity="1" /><path clip-path="url(#clip840)" d="M538.824 200.969 Q536.81 200.969 535.653 202.682 Q534.518 204.395 534.518 207.451 Q534.518 210.46 535.653 212.196 Q536.81 213.909 538.824 213.909 Q540.791 213.909 541.926 212.196 Q543.083 210.46 543.083 207.451 Q543.083 204.418 541.926 202.705 Q540.791 200.969 538.824 200.969 M538.824 198.03 Q542.481 198.03 544.634 200.576 Q546.787 203.122 546.787 207.451 Q546.787 211.779 544.611 214.326 Q542.458 216.849 538.824 216.849 Q535.12 216.849 532.967 214.326 Q530.815 211.779 530.815 207.451 Q530.815 203.099 532.967 200.576 Q535.143 198.03 538.824 198.03 M514.935 183.932 Q512.944 183.932 511.787 185.668 Q510.653 187.381 510.653 190.391 Q510.653 193.446 511.787 195.159 Q512.921 196.872 514.935 196.872 Q516.949 196.872 518.083 195.159 Q519.241 193.446 519.241 190.391 Q519.241 187.405 518.083 185.668 Q516.926 183.932 514.935 183.932 M535.838 180.993 L539.541 180.993 L517.921 216.849 L514.217 216.849 L535.838 180.993 M514.935 180.993 Q518.592 180.993 520.768 183.539 Q522.944 186.062 522.944 190.391 Q522.944 194.766 520.768 197.289 Q518.616 199.812 514.935 199.812 Q511.255 199.812 509.102 197.289 Q506.972 194.742 506.972 190.391 Q506.972 186.085 509.125 183.539 Q511.278 180.993 514.935 180.993 Z" fill="#000000" fill-rule="nonzero" fill-opacity="1" /><path clip-path="url(#clip840)" d="M569.125 181.618 L573.8 181.618 L573.8 195.784 L590.791 195.784 L590.791 181.618 L595.467 181.618 L595.467 216.178 L590.791 216.178 L590.791 199.719 L573.8 199.719 L573.8 216.178 L569.125 216.178 L569.125 181.618 Z" fill="#000000" fill-rule="nonzero" fill-opacity="1" /><path clip-path="url(#clip840)" d="M609.448 185.46 L609.448 198.446 L615.328 198.446 Q618.592 198.446 620.374 196.756 Q622.157 195.067 622.157 191.942 Q622.157 188.84 620.374 187.15 Q618.592 185.46 615.328 185.46 L609.448 185.46 M604.773 181.618 L615.328 181.618 Q621.138 181.618 624.101 184.256 Q627.087 186.872 627.087 191.942 Q627.087 197.057 624.101 199.673 Q621.138 202.289 615.328 202.289 L609.448 202.289 L609.448 216.178 L604.773 216.178 L604.773 181.618 Z" fill="#000000" fill-rule="nonzero" fill-opacity="1" /><path clip-path="url(#clip840)" d="M638.036 185.46 L638.036 212.335 L643.684 212.335 Q650.837 212.335 654.147 209.094 Q657.481 205.854 657.481 198.863 Q657.481 191.918 654.147 188.701 Q650.837 185.46 643.684 185.46 L638.036 185.46 M633.36 181.618 L642.967 181.618 Q653.013 181.618 657.712 185.807 Q662.411 189.974 662.411 198.863 Q662.411 207.798 657.689 211.988 Q652.967 216.178 642.967 216.178 L633.36 216.178 L633.36 181.618 Z" fill="#000000" fill-rule="nonzero" fill-opacity="1" /><path clip-path="url(#clip840)" d="M669.865 181.618 L674.541 181.618 L674.541 216.178 L669.865 216.178 L669.865 181.618 Z" fill="#000000" fill-rule="nonzero" fill-opacity="1" /><polyline clip-path="url(#clip840)" style="stroke:#3da44d; stroke-linecap:round; stroke-linejoin:round; stroke-width:18; stroke-opacity:0.8; fill:none" points="278.408,250.738 423.13,250.738 "/>
<path clip-path="url(#clip840)" d="M447.25 233.458 L469.472 233.458 L469.472 235.448 L456.926 268.018 L452.042 268.018 L463.847 237.393 L447.25 237.393 L447.25 233.458 Z" fill="#000000" fill-rule="nonzero" fill-opacity="1" /><path clip-path="url(#clip840)" d="M478.639 233.458 L496.995 233.458 L496.995 237.393 L482.921 237.393 L482.921 245.865 Q483.94 245.518 484.958 245.356 Q485.977 245.17 486.995 245.17 Q492.782 245.17 496.162 248.342 Q499.542 251.513 499.542 256.93 Q499.542 262.508 496.069 265.61 Q492.597 268.689 486.278 268.689 Q484.102 268.689 481.833 268.318 Q479.588 267.948 477.181 267.207 L477.181 262.508 Q479.264 263.643 481.486 264.198 Q483.708 264.754 486.185 264.754 Q490.19 264.754 492.528 262.647 Q494.866 260.541 494.866 256.93 Q494.866 253.319 492.528 251.212 Q490.19 249.106 486.185 249.106 Q484.31 249.106 482.435 249.522 Q480.583 249.939 478.639 250.819 L478.639 233.458 Z" fill="#000000" fill-rule="nonzero" fill-opacity="1" /><path clip-path="url(#clip840)" d="M538.153 252.809 Q536.139 252.809 534.981 254.522 Q533.847 256.235 533.847 259.291 Q533.847 262.3 534.981 264.036 Q536.139 265.749 538.153 265.749 Q540.12 265.749 541.254 264.036 Q542.412 262.3 542.412 259.291 Q542.412 256.258 541.254 254.545 Q540.12 252.809 538.153 252.809 M538.153 249.87 Q541.81 249.87 543.963 252.416 Q546.115 254.962 546.115 259.291 Q546.115 263.619 543.94 266.166 Q541.787 268.689 538.153 268.689 Q534.449 268.689 532.296 266.166 Q530.143 263.619 530.143 259.291 Q530.143 254.939 532.296 252.416 Q534.472 249.87 538.153 249.87 M514.264 235.772 Q512.273 235.772 511.116 237.508 Q509.981 239.221 509.981 242.231 Q509.981 245.286 511.116 246.999 Q512.25 248.712 514.264 248.712 Q516.278 248.712 517.412 246.999 Q518.569 245.286 518.569 242.231 Q518.569 239.245 517.412 237.508 Q516.254 235.772 514.264 235.772 M535.166 232.833 L538.87 232.833 L517.25 268.689 L513.546 268.689 L535.166 232.833 M514.264 232.833 Q517.921 232.833 520.097 235.379 Q522.273 237.902 522.273 242.231 Q522.273 246.606 520.097 249.129 Q517.944 251.652 514.264 251.652 Q510.583 251.652 508.43 249.129 Q506.301 246.582 506.301 242.231 Q506.301 237.925 508.454 235.379 Q510.606 232.833 514.264 232.833 Z" fill="#000000" fill-rule="nonzero" fill-opacity="1" /><path clip-path="url(#clip840)" d="M568.453 233.458 L573.129 233.458 L573.129 247.624 L590.12 247.624 L590.12 233.458 L594.796 233.458 L594.796 268.018 L590.12 268.018 L590.12 251.559 L573.129 251.559 L573.129 268.018 L568.453 268.018 L568.453 233.458 Z" fill="#000000" fill-rule="nonzero" fill-opacity="1" /><path clip-path="url(#clip840)" d="M608.777 237.3 L608.777 250.286 L614.657 250.286 Q617.921 250.286 619.703 248.596 Q621.485 246.907 621.485 243.782 Q621.485 240.68 619.703 238.99 Q617.921 237.3 614.657 237.3 L608.777 237.3 M604.101 233.458 L614.657 233.458 Q620.467 233.458 623.43 236.096 Q626.416 238.712 626.416 243.782 Q626.416 248.897 623.43 251.513 Q620.467 254.129 614.657 254.129 L608.777 254.129 L608.777 268.018 L604.101 268.018 L604.101 233.458 Z" fill="#000000" fill-rule="nonzero" fill-opacity="1" /><path clip-path="url(#clip840)" d="M637.365 237.3 L637.365 264.175 L643.013 264.175 Q650.166 264.175 653.476 260.934 Q656.809 257.694 656.809 250.703 Q656.809 243.758 653.476 240.541 Q650.166 237.3 643.013 237.3 L637.365 237.3 M632.689 233.458 L642.295 233.458 Q652.342 233.458 657.041 237.647 Q661.74 241.814 661.74 250.703 Q661.74 259.638 657.018 263.828 Q652.295 268.018 642.295 268.018 L632.689 268.018 L632.689 233.458 Z" fill="#000000" fill-rule="nonzero" fill-opacity="1" /><path clip-path="url(#clip840)" d="M669.193 233.458 L673.869 233.458 L673.869 268.018 L669.193 268.018 L669.193 233.458 Z" fill="#000000" fill-rule="nonzero" fill-opacity="1" /><path clip-path="url(#clip840)" d="M350.769 280.635 L328.826 302.578 L350.769 324.52 L372.712 302.578 L350.769 280.635 Z" fill="#000000" fill-rule="evenodd" fill-opacity="1" stroke="none"/>
<path clip-path="url(#clip840)" d="M447.25 285.298 L454.218 285.298 L463.037 308.816 L471.903 285.298 L478.87 285.298 L478.87 319.858 L474.31 319.858 L474.31 289.51 L465.398 313.214 L460.699 313.214 L451.787 289.51 L451.787 319.858 L447.25 319.858 L447.25 285.298 Z" fill="#000000" fill-rule="nonzero" fill-opacity="1" /><path clip-path="url(#clip840)" d="M510.143 305.83 L510.143 307.913 L490.56 307.913 Q490.838 312.311 493.199 314.626 Q495.583 316.918 499.819 316.918 Q502.273 316.918 504.565 316.316 Q506.88 315.714 509.148 314.51 L509.148 318.538 Q506.856 319.51 504.449 320.02 Q502.042 320.529 499.565 320.529 Q493.361 320.529 489.727 316.918 Q486.116 313.307 486.116 307.149 Q486.116 300.784 489.542 297.057 Q492.991 293.307 498.824 293.307 Q504.055 293.307 507.088 296.686 Q510.143 300.043 510.143 305.83 M505.884 304.58 Q505.838 301.085 503.917 299.001 Q502.018 296.918 498.87 296.918 Q495.306 296.918 493.153 298.932 Q491.023 300.946 490.699 304.603 L505.884 304.58 Z" fill="#000000" fill-rule="nonzero" fill-opacity="1" /><path clip-path="url(#clip840)" d="M534.194 297.867 L534.194 283.839 L538.453 283.839 L538.453 319.858 L534.194 319.858 L534.194 315.969 Q532.852 318.283 530.791 319.418 Q528.754 320.529 525.884 320.529 Q521.185 320.529 518.222 316.779 Q515.282 313.029 515.282 306.918 Q515.282 300.807 518.222 297.057 Q521.185 293.307 525.884 293.307 Q528.754 293.307 530.791 294.441 Q532.852 295.552 534.194 297.867 M519.68 306.918 Q519.68 311.617 521.602 314.302 Q523.546 316.964 526.926 316.964 Q530.305 316.964 532.25 314.302 Q534.194 311.617 534.194 306.918 Q534.194 302.219 532.25 299.557 Q530.305 296.872 526.926 296.872 Q523.546 296.872 521.602 299.557 Q519.68 302.219 519.68 306.918 Z" fill="#000000" fill-rule="nonzero" fill-opacity="1" /><path clip-path="url(#clip840)" d="M547.227 293.932 L551.486 293.932 L551.486 319.858 L547.227 319.858 L547.227 293.932 M547.227 283.839 L551.486 283.839 L551.486 289.233 L547.227 289.233 L547.227 283.839 Z" fill="#000000" fill-rule="nonzero" fill-opacity="1" /><path clip-path="url(#clip840)" d="M572.18 306.825 Q567.018 306.825 565.027 308.006 Q563.037 309.186 563.037 312.034 Q563.037 314.302 564.518 315.645 Q566.023 316.964 568.592 316.964 Q572.134 316.964 574.263 314.464 Q576.416 311.941 576.416 307.774 L576.416 306.825 L572.18 306.825 M580.675 305.066 L580.675 319.858 L576.416 319.858 L576.416 315.922 Q574.958 318.283 572.782 319.418 Q570.606 320.529 567.458 320.529 Q563.476 320.529 561.115 318.307 Q558.777 316.061 558.777 312.311 Q558.777 307.936 561.694 305.714 Q564.634 303.492 570.444 303.492 L576.416 303.492 L576.416 303.075 Q576.416 300.135 574.472 298.538 Q572.55 296.918 569.055 296.918 Q566.833 296.918 564.726 297.45 Q562.62 297.983 560.676 299.047 L560.676 295.112 Q563.013 294.21 565.213 293.77 Q567.412 293.307 569.495 293.307 Q575.12 293.307 577.898 296.223 Q580.675 299.14 580.675 305.066 Z" fill="#000000" fill-rule="nonzero" fill-opacity="1" /><path clip-path="url(#clip840)" d="M610.999 304.209 L610.999 319.858 L606.74 319.858 L606.74 304.348 Q606.74 300.668 605.305 298.839 Q603.87 297.01 600.999 297.01 Q597.55 297.01 595.56 299.21 Q593.569 301.409 593.569 305.205 L593.569 319.858 L589.287 319.858 L589.287 293.932 L593.569 293.932 L593.569 297.96 Q595.097 295.622 597.157 294.464 Q599.24 293.307 601.948 293.307 Q606.416 293.307 608.708 296.085 Q610.999 298.839 610.999 304.209 Z" fill="#000000" fill-rule="nonzero" fill-opacity="1" /><circle clip-path="url(#clip840)" cx="350.769" cy="354.418" r="19.7486" fill="#808080" fill-rule="evenodd" fill-opacity="1" stroke="#000000" stroke-opacity="1" stroke-width="5.85143"/>
<path clip-path="url(#clip840)" d="M447.25 337.138 L454.218 337.138 L463.037 360.656 L471.903 337.138 L478.87 337.138 L478.87 371.698 L474.31 371.698 L474.31 341.35 L465.398 365.054 L460.699 365.054 L451.787 341.35 L451.787 371.698 L447.25 371.698 L447.25 337.138 Z" fill="#000000" fill-rule="nonzero" fill-opacity="1" /><path clip-path="url(#clip840)" d="M510.143 357.67 L510.143 359.753 L490.56 359.753 Q490.838 364.151 493.199 366.466 Q495.583 368.758 499.819 368.758 Q502.273 368.758 504.565 368.156 Q506.88 367.554 509.148 366.35 L509.148 370.378 Q506.856 371.35 504.449 371.86 Q502.042 372.369 499.565 372.369 Q493.361 372.369 489.727 368.758 Q486.116 365.147 486.116 358.989 Q486.116 352.624 489.542 348.897 Q492.991 345.147 498.824 345.147 Q504.055 345.147 507.088 348.526 Q510.143 351.883 510.143 357.67 M505.884 356.42 Q505.838 352.925 503.917 350.841 Q502.018 348.758 498.87 348.758 Q495.306 348.758 493.153 350.772 Q491.023 352.786 490.699 356.443 L505.884 356.42 Z" fill="#000000" fill-rule="nonzero" fill-opacity="1" /><path clip-path="url(#clip840)" d="M528.916 358.665 Q523.754 358.665 521.764 359.846 Q519.773 361.026 519.773 363.874 Q519.773 366.142 521.254 367.485 Q522.759 368.804 525.329 368.804 Q528.87 368.804 531 366.304 Q533.153 363.781 533.153 359.614 L533.153 358.665 L528.916 358.665 M537.412 356.906 L537.412 371.698 L533.153 371.698 L533.153 367.762 Q531.694 370.123 529.518 371.258 Q527.342 372.369 524.194 372.369 Q520.213 372.369 517.852 370.147 Q515.514 367.901 515.514 364.151 Q515.514 359.776 518.43 357.554 Q521.37 355.332 527.18 355.332 L533.153 355.332 L533.153 354.915 Q533.153 351.975 531.208 350.378 Q529.287 348.758 525.791 348.758 Q523.569 348.758 521.463 349.29 Q519.356 349.823 517.412 350.887 L517.412 346.952 Q519.75 346.05 521.949 345.61 Q524.148 345.147 526.231 345.147 Q531.856 345.147 534.634 348.063 Q537.412 350.98 537.412 356.906 Z" fill="#000000" fill-rule="nonzero" fill-opacity="1" /><path clip-path="url(#clip840)" d="M567.736 356.049 L567.736 371.698 L563.476 371.698 L563.476 356.188 Q563.476 352.508 562.041 350.679 Q560.606 348.85 557.736 348.85 Q554.287 348.85 552.296 351.05 Q550.305 353.249 550.305 357.045 L550.305 371.698 L546.023 371.698 L546.023 345.772 L550.305 345.772 L550.305 349.8 Q551.833 347.462 553.893 346.304 Q555.976 345.147 558.685 345.147 Q563.152 345.147 565.444 347.925 Q567.736 350.679 567.736 356.049 Z" fill="#000000" fill-rule="nonzero" fill-opacity="1" /></svg>
