<?xml version="1.0" encoding="utf-8"?>
<svg xmlns="http://www.w3.org/2000/svg" xmlns:xlink="http://www.w3.org/1999/xlink" width="600" height="400" viewBox="0 0 2400 1600">
<defs>
  <clipPath id="clip730">
    <rect x="0" y="0" width="2400" height="1600"/>
  </clipPath>
</defs>
<path clip-path="url(#clip730)" d="M0 1600 L2400 1600 L2400 0 L0 0  Z" fill="#ffffff" fill-rule="evenodd" fill-opacity="1"/>
<defs>
  <clipPath id="clip731">
    <rect x="480" y="0" width="1681" height="1600"/>
  </clipPath>
</defs>
<path clip-path="url(#clip730)" d="M181.927 1486.45 L2352.76 1486.45 L2352.76 47.2441 L181.927 47.2441  Z" fill="#ffffff" fill-rule="evenodd" fill-opacity="1"/>
<defs>
  <clipPath id="clip732">
    <rect x="181" y="47" width="2172" height="1440"/>
  </clipPath>
</defs>
<polyline clip-path="url(#clip732)" style="stroke:#000000; stroke-linecap:round; stroke-linejoin:round; stroke-width:2; stroke-opacity:0.1; fill:none" points="254.601,1486.45 254.601,47.2441 "/>
<polyline clip-path="url(#clip732)" style="stroke:#000000; stroke-linecap:round; stroke-linejoin:round; stroke-width:2; stroke-opacity:0.1; fill:none" points="612.576,1486.45 612.576,47.2441 "/>
<polyline clip-path="url(#clip732)" style="stroke:#000000; stroke-linecap:round; stroke-linejoin:round; stroke-width:2; stroke-opacity:0.1; fill:none" points="970.551,1486.45 970.551,47.2441 "/>
<polyline clip-path="url(#clip732)" style="stroke:#000000; stroke-linecap:round; stroke-linejoin:round; stroke-width:2; stroke-opacity:0.1; fill:none" points="1328.53,1486.45 1328.53,47.2441 "/>
<polyline clip-path="url(#clip732)" style="stroke:#000000; stroke-linecap:round; stroke-linejoin:round; stroke-width:2; stroke-opacity:0.1; fill:none" points="1686.5,1486.45 1686.5,47.2441 "/>
<polyline clip-path="url(#clip732)" style="stroke:#000000; stroke-linecap:round; stroke-linejoin:round; stroke-width:2; stroke-opacity:0.1; fill:none" points="2044.48,1486.45 2044.48,47.2441 "/>
<polyline clip-path="url(#clip732)" style="stroke:#000000; stroke-linecap:round; stroke-linejoin:round; stroke-width:2; stroke-opacity:0.1; fill:none" points="181.927,1445.72 2352.76,1445.72 "/>
<polyline clip-path="url(#clip732)" style="stroke:#000000; stroke-linecap:round; stroke-linejoin:round; stroke-width:2; stroke-opacity:0.1; fill:none" points="181.927,766.846 2352.76,766.846 "/>
<polyline clip-path="url(#clip732)" style="stroke:#000000; stroke-linecap:round; stroke-linejoin:round; stroke-width:2; stroke-opacity:0.1; fill:none" points="181.927,87.9763 2352.76,87.9763 "/>
<polyline clip-path="url(#clip730)" style="stroke:#000000; stroke-linecap:round; stroke-linejoin:round; stroke-width:4; stroke-opacity:1; fill:none" points="181.927,1486.45 2352.76,1486.45 "/>
<polyline clip-path="url(#clip730)" style="stroke:#000000; stroke-linecap:round; stroke-linejoin:round; stroke-width:4; stroke-opacity:1; fill:none" points="254.601,1486.45 254.601,1467.55 "/>
<polyline clip-path="url(#clip730)" style="stroke:#000000; stroke-linecap:round; stroke-linejoin:round; stroke-width:4; stroke-opacity:1; fill:none" points="612.576,1486.45 612.576,1467.55 "/>
<polyline clip-path="url(#clip730)" style="stroke:#000000; stroke-linecap:round; stroke-linejoin:round; stroke-width:4; stroke-opacity:1; fill:none" points="970.551,1486.45 970.551,1467.55 "/>
<polyline clip-path="url(#clip730)" style="stroke:#000000; stroke-linecap:round; stroke-linejoin:round; stroke-width:4; stroke-opacity:1; fill:none" points="1328.53,1486.45 1328.53,1467.55 "/>
<polyline clip-path="url(#clip730)" style="stroke:#000000; stroke-linecap:round; stroke-linejoin:round; stroke-width:4; stroke-opacity:1; fill:none" points="1686.5,1486.45 1686.5,1467.55 "/>
<polyline clip-path="url(#clip730)" style="stroke:#000000; stroke-linecap:round; stroke-linejoin:round; stroke-width:4; stroke-opacity:1; fill:none" points="2044.48,1486.45 2044.48,1467.55 "/>
<path clip-path="url(#clip730)" d="M224.359 1532.02 L254.034 1532.02 L254.034 1535.95 L224.359 1535.95 L224.359 1532.02 Z" fill="#000000" fill-rule="nonzero" fill-opacity="1" /><path clip-path="url(#clip730)" d="M264.937 1544.91 L272.576 1544.91 L272.576 1518.55 L264.266 1520.21 L264.266 1515.95 L272.53 1514.29 L277.205 1514.29 L277.205 1544.91 L284.844 1544.91 L284.844 1548.85 L264.937 1548.85 L264.937 1544.91 Z" fill="#000000" fill-rule="nonzero" fill-opacity="1" /><path clip-path="url(#clip730)" d="M612.576 1517.37 Q608.965 1517.37 607.137 1520.93 Q605.331 1524.47 605.331 1531.6 Q605.331 1538.71 607.137 1542.27 Q608.965 1545.82 612.576 1545.82 Q616.211 1545.82 618.016 1542.27 Q619.845 1538.71 619.845 1531.6 Q619.845 1524.47 618.016 1520.93 Q616.211 1517.37 612.576 1517.37 M612.576 1513.66 Q618.386 1513.66 621.442 1518.27 Q624.521 1522.85 624.521 1531.6 Q624.521 1540.33 621.442 1544.94 Q618.386 1549.52 612.576 1549.52 Q606.766 1549.52 603.688 1544.94 Q600.632 1540.33 600.632 1531.6 Q600.632 1522.85 603.688 1518.27 Q606.766 1513.66 612.576 1513.66 Z" fill="#000000" fill-rule="nonzero" fill-opacity="1" /><path clip-path="url(#clip730)" d="M960.933 1544.91 L968.572 1544.91 L968.572 1518.55 L960.262 1520.21 L960.262 1515.95 L968.526 1514.29 L973.202 1514.29 L973.202 1544.91 L980.841 1544.91 L980.841 1548.85 L960.933 1548.85 L960.933 1544.91 Z" fill="#000000" fill-rule="nonzero" fill-opacity="1" /><path clip-path="url(#clip730)" d="M1323.18 1544.91 L1339.5 1544.91 L1339.5 1548.85 L1317.55 1548.85 L1317.55 1544.91 Q1320.22 1542.16 1324.8 1537.53 Q1329.41 1532.88 1330.59 1531.53 Q1332.83 1529.01 1333.71 1527.27 Q1334.61 1525.51 1334.61 1523.82 Q1334.61 1521.07 1332.67 1519.33 Q1330.75 1517.6 1327.65 1517.6 Q1325.45 1517.6 1322.99 1518.36 Q1320.56 1519.13 1317.79 1520.68 L1317.79 1515.95 Q1320.61 1514.82 1323.06 1514.24 Q1325.52 1513.66 1327.55 1513.66 Q1332.92 1513.66 1336.12 1516.35 Q1339.31 1519.03 1339.31 1523.52 Q1339.31 1525.65 1338.5 1527.57 Q1337.72 1529.47 1335.61 1532.07 Q1335.03 1532.74 1331.93 1535.95 Q1328.83 1539.15 1323.18 1544.91 Z" fill="#000000" fill-rule="nonzero" fill-opacity="1" /><path clip-path="url(#clip730)" d="M1690.75 1530.21 Q1694.11 1530.93 1695.98 1533.2 Q1697.88 1535.47 1697.88 1538.8 Q1697.88 1543.92 1694.36 1546.72 Q1690.84 1549.52 1684.36 1549.52 Q1682.18 1549.52 1679.87 1549.08 Q1677.58 1548.66 1675.12 1547.81 L1675.12 1543.29 Q1677.07 1544.43 1679.38 1545.01 Q1681.7 1545.58 1684.22 1545.58 Q1688.62 1545.58 1690.91 1543.85 Q1693.23 1542.11 1693.23 1538.8 Q1693.23 1535.75 1691.07 1534.03 Q1688.94 1532.3 1685.12 1532.3 L1681.1 1532.3 L1681.1 1528.45 L1685.31 1528.45 Q1688.76 1528.45 1690.59 1527.09 Q1692.42 1525.7 1692.42 1523.11 Q1692.42 1520.45 1690.52 1519.03 Q1688.64 1517.6 1685.12 1517.6 Q1683.2 1517.6 1681 1518.01 Q1678.8 1518.43 1676.17 1519.31 L1676.17 1515.14 Q1678.83 1514.4 1681.14 1514.03 Q1683.48 1513.66 1685.54 1513.66 Q1690.86 1513.66 1693.97 1516.09 Q1697.07 1518.5 1697.07 1522.62 Q1697.07 1525.49 1695.42 1527.48 Q1693.78 1529.45 1690.75 1530.21 Z" fill="#000000" fill-rule="nonzero" fill-opacity="1" /><path clip-path="url(#clip730)" d="M2047.49 1518.36 L2035.68 1536.81 L2047.49 1536.81 L2047.49 1518.36 M2046.26 1514.29 L2052.14 1514.29 L2052.14 1536.81 L2057.07 1536.81 L2057.07 1540.7 L2052.14 1540.7 L2052.14 1548.85 L2047.49 1548.85 L2047.49 1540.7 L2031.88 1540.7 L2031.88 1536.19 L2046.26 1514.29 Z" fill="#000000" fill-rule="nonzero" fill-opacity="1" /><polyline clip-path="url(#clip730)" style="stroke:#000000; stroke-linecap:round; stroke-linejoin:round; stroke-width:4; stroke-opacity:1; fill:none" points="181.927,1486.45 181.927,47.2441 "/>
<polyline clip-path="url(#clip730)" style="stroke:#000000; stroke-linecap:round; stroke-linejoin:round; stroke-width:4; stroke-opacity:1; fill:none" points="181.927,1445.72 200.824,1445.72 "/>
<polyline clip-path="url(#clip730)" style="stroke:#000000; stroke-linecap:round; stroke-linejoin:round; stroke-width:4; stroke-opacity:1; fill:none" points="181.927,766.846 200.824,766.846 "/>
<polyline clip-path="url(#clip730)" style="stroke:#000000; stroke-linecap:round; stroke-linejoin:round; stroke-width:4; stroke-opacity:1; fill:none" points="181.927,87.9763 200.824,87.9763 "/>
<path clip-path="url(#clip730)" d="M145.927 1431.1 L145.927 1436.03 Q143.566 1433.83 140.88 1432.74 Q138.218 1431.65 135.209 1431.65 Q129.283 1431.65 126.135 1435.29 Q122.987 1438.9 122.987 1445.75 Q122.987 1452.58 126.135 1456.21 Q129.283 1459.82 135.209 1459.82 Q138.218 1459.82 140.88 1458.74 Q143.566 1457.65 145.927 1455.45 L145.927 1460.33 Q143.473 1462 140.718 1462.83 Q137.987 1463.67 134.931 1463.67 Q127.084 1463.67 122.57 1458.88 Q118.056 1454.06 118.056 1445.75 Q118.056 1437.42 122.57 1432.63 Q127.084 1427.81 134.931 1427.81 Q138.033 1427.81 140.765 1428.64 Q143.519 1429.45 145.927 1431.1 Z" fill="#000000" fill-rule="nonzero" fill-opacity="1" /><path clip-path="url(#clip730)" d="M126.089 767.621 L126.089 780.283 L133.589 780.283 Q137.362 780.283 139.167 778.732 Q140.996 777.158 140.996 773.941 Q140.996 770.7 139.167 769.172 Q137.362 767.621 133.589 767.621 L126.089 767.621 M126.089 753.409 L126.089 763.825 L133.01 763.825 Q136.436 763.825 138.103 762.552 Q139.792 761.256 139.792 758.617 Q139.792 756.001 138.103 754.705 Q136.436 753.409 133.01 753.409 L126.089 753.409 M121.413 749.566 L133.357 749.566 Q138.704 749.566 141.598 751.788 Q144.491 754.01 144.491 758.108 Q144.491 761.279 143.01 763.154 Q141.529 765.029 138.658 765.492 Q142.107 766.233 144.005 768.594 Q145.927 770.932 145.927 774.45 Q145.927 779.08 142.779 781.603 Q139.63 784.126 133.82 784.126 L121.413 784.126 L121.413 749.566 Z" fill="#000000" fill-rule="nonzero" fill-opacity="1" /><path clip-path="url(#clip730)" d="M130.093 75.3027 L123.751 92.5017 L136.459 92.5017 L130.093 75.3027 M127.455 70.6963 L132.755 70.6963 L145.927 105.256 L141.066 105.256 L137.917 96.3906 L122.339 96.3906 L119.191 105.256 L114.26 105.256 L127.455 70.6963 Z" fill="#000000" fill-rule="nonzero" fill-opacity="1" /><path clip-path="url(#clip730)" d="M21.7677 942.173 L39.6235 942.173 L39.6235 934.089 Q39.6235 929.601 37.3 927.15 Q34.9765 924.7 30.6797 924.7 Q26.4147 924.7 24.0912 927.15 Q21.7677 929.601 21.7677 934.089 L21.7677 942.173 M16.4842 948.603 L16.4842 934.089 Q16.4842 926.1 20.1126 922.026 Q23.7092 917.92 30.6797 917.92 Q37.7138 917.92 41.3104 922.026 Q44.907 926.1 44.907 934.089 L44.907 942.173 L64.0042 942.173 L64.0042 948.603 L16.4842 948.603 Z" fill="#000000" fill-rule="nonzero" fill-opacity="1" /><path clip-path="url(#clip730)" d="M46.0847 896.277 Q46.0847 903.374 47.7079 906.112 Q49.3312 908.849 53.2461 908.849 Q56.3653 908.849 58.2114 906.812 Q60.0256 904.743 60.0256 901.21 Q60.0256 896.34 56.5881 893.412 Q53.1188 890.452 47.3897 890.452 L46.0847 890.452 L46.0847 896.277 M43.6657 884.596 L64.0042 884.596 L64.0042 890.452 L58.5933 890.452 Q61.8398 892.457 63.3994 895.449 Q64.9272 898.441 64.9272 902.77 Q64.9272 908.244 61.8716 911.491 Q58.7843 914.705 53.6281 914.705 Q47.6125 914.705 44.5569 910.695 Q41.5014 906.653 41.5014 898.664 L41.5014 890.452 L40.9285 890.452 Q36.8862 890.452 34.6901 893.126 Q32.4621 895.767 32.4621 900.574 Q32.4621 903.629 33.1941 906.526 Q33.9262 909.422 35.3903 912.095 L29.9795 912.095 Q28.7381 908.881 28.1334 905.857 Q27.4968 902.833 27.4968 899.969 Q27.4968 892.234 31.5072 888.415 Q35.5176 884.596 43.6657 884.596 Z" fill="#000000" fill-rule="nonzero" fill-opacity="1" /><path clip-path="url(#clip730)" d="M33.8307 851.876 Q33.2578 852.863 33.0032 854.04 Q32.7167 855.186 32.7167 856.587 Q32.7167 861.552 35.9632 864.225 Q39.1779 866.867 45.2253 866.867 L64.0042 866.867 L64.0042 872.755 L28.3562 872.755 L28.3562 866.867 L33.8944 866.867 Q30.6479 865.021 29.0883 862.061 Q27.4968 859.101 27.4968 854.868 Q27.4968 854.263 27.5923 853.531 Q27.656 852.799 27.8151 851.908 L33.8307 851.876 Z" fill="#000000" fill-rule="nonzero" fill-opacity="1" /><path clip-path="url(#clip730)" d="M46.0847 829.532 Q46.0847 836.63 47.7079 839.367 Q49.3312 842.105 53.2461 842.105 Q56.3653 842.105 58.2114 840.068 Q60.0256 837.999 60.0256 834.466 Q60.0256 829.596 56.5881 826.668 Q53.1188 823.708 47.3897 823.708 L46.0847 823.708 L46.0847 829.532 M43.6657 817.851 L64.0042 817.851 L64.0042 823.708 L58.5933 823.708 Q61.8398 825.713 63.3994 828.705 Q64.9272 831.697 64.9272 836.025 Q64.9272 841.5 61.8716 844.746 Q58.7843 847.961 53.6281 847.961 Q47.6125 847.961 44.5569 843.951 Q41.5014 839.908 41.5014 831.919 L41.5014 823.708 L40.9285 823.708 Q36.8862 823.708 34.6901 826.381 Q32.4621 829.023 32.4621 833.829 Q32.4621 836.885 33.1941 839.781 Q33.9262 842.677 35.3903 845.351 L29.9795 845.351 Q28.7381 842.136 28.1334 839.113 Q27.4968 836.089 27.4968 833.224 Q27.4968 825.49 31.5072 821.671 Q35.5176 817.851 43.6657 817.851 Z" fill="#000000" fill-rule="nonzero" fill-opacity="1" /><path clip-path="url(#clip730)" d="M35.1993 778.034 Q31.2526 775.838 29.3747 772.782 Q27.4968 769.726 27.4968 765.589 Q27.4968 760.019 31.4117 756.995 Q35.2948 753.971 42.4881 753.971 L64.0042 753.971 L64.0042 759.86 L42.679 759.86 Q37.5546 759.86 35.072 761.674 Q32.5894 763.488 32.5894 767.212 Q32.5894 771.763 35.6131 774.405 Q38.6368 777.047 43.8567 777.047 L64.0042 777.047 L64.0042 782.935 L42.679 782.935 Q37.5228 782.935 35.072 784.75 Q32.5894 786.564 32.5894 790.351 Q32.5894 794.839 35.6449 797.481 Q38.6686 800.123 43.8567 800.123 L64.0042 800.123 L64.0042 806.011 L28.3562 806.011 L28.3562 800.123 L33.8944 800.123 Q30.616 798.118 29.0564 795.317 Q27.4968 792.516 27.4968 788.664 Q27.4968 784.781 29.4702 782.076 Q31.4436 779.339 35.1993 778.034 Z" fill="#000000" fill-rule="nonzero" fill-opacity="1" /><path clip-path="url(#clip730)" d="M44.7161 711.799 L47.5806 711.799 L47.5806 738.725 Q53.6281 738.344 56.8109 735.097 Q59.9619 731.819 59.9619 725.994 Q59.9619 722.62 59.1344 719.469 Q58.3069 716.286 56.6518 713.167 L62.1899 713.167 Q63.5267 716.318 64.227 719.628 Q64.9272 722.939 64.9272 726.344 Q64.9272 734.874 59.9619 739.871 Q54.9967 744.837 46.5303 744.837 Q37.7774 744.837 32.6531 740.126 Q27.4968 735.383 27.4968 727.363 Q27.4968 720.169 32.1438 716 Q36.7589 711.799 44.7161 711.799 M42.9973 717.655 Q38.1912 717.719 35.3266 720.36 Q32.4621 722.97 32.4621 727.299 Q32.4621 732.201 35.2312 735.161 Q38.0002 738.089 43.0292 738.535 L42.9973 717.655 Z" fill="#000000" fill-rule="nonzero" fill-opacity="1" /><path clip-path="url(#clip730)" d="M18.2347 696.394 L28.3562 696.394 L28.3562 684.331 L32.9077 684.331 L32.9077 696.394 L52.2594 696.394 Q56.6199 696.394 57.8613 695.216 Q59.1026 694.006 59.1026 690.346 L59.1026 684.331 L64.0042 684.331 L64.0042 690.346 Q64.0042 697.126 61.4897 699.704 Q58.9434 702.282 52.2594 702.282 L32.9077 702.282 L32.9077 706.579 L28.3562 706.579 L28.3562 702.282 L18.2347 702.282 L18.2347 696.394 Z" fill="#000000" fill-rule="nonzero" fill-opacity="1" /><path clip-path="url(#clip730)" d="M44.7161 646.136 L47.5806 646.136 L47.5806 673.063 Q53.6281 672.681 56.8109 669.435 Q59.9619 666.156 59.9619 660.332 Q59.9619 656.958 59.1344 653.807 Q58.3069 650.624 56.6518 647.505 L62.1899 647.505 Q63.5267 650.656 64.227 653.966 Q64.9272 657.276 64.9272 660.682 Q64.9272 669.212 59.9619 674.209 Q54.9967 679.174 46.5303 679.174 Q37.7774 679.174 32.6531 674.464 Q27.4968 669.721 27.4968 661.7 Q27.4968 654.507 32.1438 650.338 Q36.7589 646.136 44.7161 646.136 M42.9973 651.993 Q38.1912 652.056 35.3266 654.698 Q32.4621 657.308 32.4621 661.637 Q32.4621 666.538 35.2312 669.498 Q38.0002 672.427 43.0292 672.872 L42.9973 651.993 Z" fill="#000000" fill-rule="nonzero" fill-opacity="1" /><path clip-path="url(#clip730)" d="M33.8307 615.867 Q33.2578 616.854 33.0032 618.032 Q32.7167 619.178 32.7167 620.578 Q32.7167 625.543 35.9632 628.217 Q39.1779 630.859 45.2253 630.859 L64.0042 630.859 L64.0042 636.747 L28.3562 636.747 L28.3562 630.859 L33.8944 630.859 Q30.6479 629.013 29.0883 626.052 Q27.4968 623.092 27.4968 618.859 Q27.4968 618.254 27.5923 617.522 Q27.656 616.79 27.8151 615.899 L33.8307 615.867 Z" fill="#000000" fill-rule="nonzero" fill-opacity="1" /><path clip-path="url(#clip730)" d="M29.4065 586.999 L34.9447 586.999 Q33.6716 589.481 33.035 592.155 Q32.3984 594.829 32.3984 597.693 Q32.3984 602.054 33.7352 604.25 Q35.072 606.414 37.7456 606.414 Q39.7826 606.414 40.9603 604.855 Q42.1061 603.295 43.1565 598.584 L43.6021 596.579 Q44.9389 590.341 47.3897 587.731 Q49.8086 585.089 54.1691 585.089 Q59.1344 585.089 62.0308 589.036 Q64.9272 592.951 64.9272 599.826 Q64.9272 602.69 64.3543 605.81 Q63.8132 608.897 62.6992 612.334 L56.6518 612.334 Q58.3387 609.088 59.198 605.937 Q60.0256 602.786 60.0256 599.698 Q60.0256 595.561 58.6251 593.333 Q57.1929 591.105 54.6147 591.105 Q52.2276 591.105 50.9545 592.728 Q49.6813 594.319 48.5037 599.762 L48.0262 601.799 Q46.8804 607.242 44.5251 609.661 Q42.138 612.08 38.0002 612.08 Q32.9713 612.08 30.2341 608.515 Q27.4968 604.95 27.4968 598.393 Q27.4968 595.147 27.9743 592.282 Q28.4517 589.418 29.4065 586.999 Z" fill="#000000" fill-rule="nonzero" fill-opacity="1" /><polyline clip-path="url(#clip732)" style="stroke:#009af9; stroke-linecap:round; stroke-linejoin:round; stroke-width:6; stroke-opacity:0.8; fill:none" points="904.094,1445.72 2291.32,1445.72 "/>
<polyline clip-path="url(#clip732)" style="stroke:#e26f46; stroke-linecap:round; stroke-linejoin:round; stroke-width:12; stroke-opacity:0.8; fill:none" points="1245.19,1445.72 2257.35,1445.72 "/>
<polyline clip-path="url(#clip732)" style="stroke:#3da44d; stroke-linecap:round; stroke-linejoin:round; stroke-width:18; stroke-opacity:0.8; fill:none" points="1297.75,1445.72 2087.69,1445.72 "/>
<path clip-path="url(#clip732)" d="M1685.3 1433.72 L1673.3 1445.72 L1685.3 1457.72 L1697.3 1445.72 L1685.3 1433.72 Z" fill="#000000" fill-rule="evenodd" fill-opacity="1" stroke="none"/>
<circle clip-path="url(#clip732)" cx="1663.17" cy="1445.72" r="10.8" fill="#808080" fill-rule="evenodd" fill-opacity="1" stroke="#000000" stroke-opacity="1" stroke-width="3.2"/>
<circle clip-path="url(#clip732)" style="fill:#000000; stroke:none; fill-opacity:1" cx="1685.3" cy="1445.72" r="2"/>
<polyline clip-path="url(#clip732)" style="stroke:#000000; stroke-linecap:round; stroke-linejoin:round; stroke-width:0; stroke-opacity:1; fill:none" points="1219.18,1445.72 2089.76,1445.72 "/>
<polyline clip-path="url(#clip732)" style="stroke:#009af9; stroke-linecap:round; stroke-linejoin:round; stroke-width:6; stroke-opacity:0.8; fill:none" points="701.837,766.846 1984.33,766.846 "/>
<polyline clip-path="url(#clip732)" style="stroke:#e26f46; stroke-linecap:round; stroke-linejoin:round; stroke-width:12; stroke-opacity:0.8; fill:none" points="773.412,766.846 1813.56,766.846 "/>
<polyline clip-path="url(#clip732)" style="stroke:#3da44d; stroke-linecap:round; stroke-linejoin:round; stroke-width:18; stroke-opacity:0.8; fill:none" points="892.231,766.846 1737.29,766.846 "/>
<path clip-path="url(#clip732)" d="M1322.78 754.846 L1310.78 766.846 L1322.78 778.846 L1334.78 766.846 L1322.78 754.846 Z" fill="#000000" fill-rule="evenodd" fill-opacity="1" stroke="none"/>
<circle clip-path="url(#clip732)" cx="1322.25" cy="766.846" r="10.8" fill="#808080" fill-rule="evenodd" fill-opacity="1" stroke="#000000" stroke-opacity="1" stroke-width="3.2"/>
<circle clip-path="url(#clip732)" style="fill:#000000; stroke:none; fill-opacity:1" cx="1322.78" cy="766.846" r="2"/>
<polyline clip-path="url(#clip732)" style="stroke:#000000; stroke-linecap:round; stroke-linejoin:round; stroke-width:0; stroke-opacity:1; fill:none" points="855.146,766.846 1797.85,766.846 "/>
<polyline clip-path="url(#clip732)" style="stroke:#009af9; stroke-linecap:round; stroke-linejoin:round; stroke-width:6; stroke-opacity:0.8; fill:none" points="243.365,87.9763 1601.92,87.9763 "/>
<polyline clip-path="url(#clip732)" style="stroke:#e26f46; stroke-linecap:round; stroke-linejoin:round; stroke-width:12; stroke-opacity:0.8; fill:none" points="526.013,87.9763 1492.02,87.9763 "/>
<polyline clip-path="url(#clip732)" style="stroke:#3da44d; stroke-linecap:round; stroke-linejoin:round; stroke-width:18; stroke-opacity:0.8; fill:none" points="607.272,87.9763 1402.17,87.9763 "/>
<path clip-path="url(#clip732)" d="M985.679 75.9763 L973.679 87.9763 L985.679 99.9763 L997.679 87.9763 L985.679 75.9763 Z" fill="#000000" fill-rule="evenodd" fill-opacity="1" stroke="none"/>
<circle clip-path="url(#clip732)" cx="992.873" cy="87.9763" r="10.8" fill="#808080" fill-rule="evenodd" fill-opacity="1" stroke="#000000" stroke-opacity="1" stroke-width="3.2"/>
<circle clip-path="url(#clip732)" style="fill:#000000; stroke:none; fill-opacity:1" cx="985.679" cy="87.9763" r="2"/>
<polyline clip-path="url(#clip732)" style="stroke:#000000; stroke-linecap:round; stroke-linejoin:round; stroke-width:0; stroke-opacity:1; fill:none" points="586.573,87.9763 1451.26,87.9763 "/>
<path clip-path="url(#clip730)" d="M1835.79 406.258 L2280.39 406.258 L2280.39 95.2176 L1835.79 95.2176  Z" fill="#ffffff" fill-rule="evenodd" fill-opacity="1"/>
<polyline clip-path="url(#clip730)" style="stroke:#000000; stroke-linecap:round; stroke-linejoin:round; stroke-width:4; stroke-opacity:1; fill:none" points="1835.79,406.258 2280.39,406.258 2280.39,95.2176 1835.79,95.2176 1835.79,406.258 "/>
<polyline clip-path="url(#clip730)" style="stroke:#009af9; stroke-linecap:round; stroke-linejoin:round; stroke-width:6; stroke-opacity:0.8; fill:none" points="1859.91,147.058 2004.63,147.058 "/>
<path clip-path="url(#clip730)" d="M2030.97 163.62 L2030.97 159.361 Q2032.73 160.194 2034.54 160.634 Q2036.35 161.074 2038.08 161.074 Q2042.71 161.074 2045.14 157.972 Q2047.6 154.847 2047.94 148.504 Q2046.6 150.495 2044.54 151.56 Q2042.48 152.625 2039.98 152.625 Q2034.79 152.625 2031.76 149.5 Q2028.75 146.352 2028.75 140.912 Q2028.75 135.588 2031.9 132.37 Q2035.05 129.153 2040.28 129.153 Q2046.28 129.153 2049.42 133.759 Q2052.6 138.342 2052.6 147.092 Q2052.6 155.264 2048.71 160.148 Q2044.84 165.009 2038.29 165.009 Q2036.53 165.009 2034.72 164.662 Q2032.92 164.314 2030.97 163.62 M2040.28 148.967 Q2043.43 148.967 2045.26 146.814 Q2047.11 144.662 2047.11 140.912 Q2047.11 137.185 2045.26 135.032 Q2043.43 132.856 2040.28 132.856 Q2037.13 132.856 2035.28 135.032 Q2033.45 137.185 2033.45 140.912 Q2033.45 144.662 2035.28 146.814 Q2037.13 148.967 2040.28 148.967 Z" fill="#000000" fill-rule="nonzero" fill-opacity="1" /><path clip-path="url(#clip730)" d="M2061.04 129.778 L2079.4 129.778 L2079.4 133.713 L2065.33 133.713 L2065.33 142.185 Q2066.35 141.838 2067.36 141.676 Q2068.38 141.49 2069.4 141.49 Q2075.19 141.49 2078.57 144.662 Q2081.95 147.833 2081.95 153.25 Q2081.95 158.828 2078.47 161.93 Q2075 165.009 2068.68 165.009 Q2066.51 165.009 2064.24 164.638 Q2061.99 164.268 2059.59 163.527 L2059.59 158.828 Q2061.67 159.963 2063.89 160.518 Q2066.11 161.074 2068.59 161.074 Q2072.6 161.074 2074.93 158.967 Q2077.27 156.861 2077.27 153.25 Q2077.27 149.639 2074.93 147.532 Q2072.6 145.426 2068.59 145.426 Q2066.72 145.426 2064.84 145.842 Q2062.99 146.259 2061.04 147.139 L2061.04 129.778 Z" fill="#000000" fill-rule="nonzero" fill-opacity="1" /><path clip-path="url(#clip730)" d="M2120.56 149.129 Q2118.54 149.129 2117.39 150.842 Q2116.25 152.555 2116.25 155.611 Q2116.25 158.62 2117.39 160.356 Q2118.54 162.069 2120.56 162.069 Q2122.53 162.069 2123.66 160.356 Q2124.82 158.62 2124.82 155.611 Q2124.82 152.578 2123.66 150.865 Q2122.53 149.129 2120.56 149.129 M2120.56 146.19 Q2124.22 146.19 2126.37 148.736 Q2128.52 151.282 2128.52 155.611 Q2128.52 159.939 2126.34 162.486 Q2124.19 165.009 2120.56 165.009 Q2116.85 165.009 2114.7 162.486 Q2112.55 159.939 2112.55 155.611 Q2112.55 151.259 2114.7 148.736 Q2116.88 146.19 2120.56 146.19 M2096.67 132.092 Q2094.68 132.092 2093.52 133.828 Q2092.39 135.541 2092.39 138.551 Q2092.39 141.606 2093.52 143.319 Q2094.66 145.032 2096.67 145.032 Q2098.68 145.032 2099.82 143.319 Q2100.97 141.606 2100.97 138.551 Q2100.97 135.565 2099.82 133.828 Q2098.66 132.092 2096.67 132.092 M2117.57 129.153 L2121.28 129.153 L2099.66 165.009 L2095.95 165.009 L2117.57 129.153 M2096.67 129.153 Q2100.33 129.153 2102.5 131.699 Q2104.68 134.222 2104.68 138.551 Q2104.68 142.926 2102.5 145.449 Q2100.35 147.972 2096.67 147.972 Q2092.99 147.972 2090.84 145.449 Q2088.71 142.902 2088.71 138.551 Q2088.71 134.245 2090.86 131.699 Q2093.01 129.153 2096.67 129.153 Z" fill="#000000" fill-rule="nonzero" fill-opacity="1" /><path clip-path="url(#clip730)" d="M2150.86 129.778 L2155.53 129.778 L2155.53 143.944 L2172.53 143.944 L2172.53 129.778 L2177.2 129.778 L2177.2 164.338 L2172.53 164.338 L2172.53 147.879 L2155.53 147.879 L2155.53 164.338 L2150.86 164.338 L2150.86 129.778 Z" fill="#000000" fill-rule="nonzero" fill-opacity="1" /><path clip-path="url(#clip730)" d="M2191.18 133.62 L2191.18 146.606 L2197.06 146.606 Q2200.33 146.606 2202.11 144.916 Q2203.89 143.227 2203.89 140.102 Q2203.89 137 2202.11 135.31 Q2200.33 133.62 2197.06 133.62 L2191.18 133.62 M2186.51 129.778 L2197.06 129.778 Q2202.87 129.778 2205.84 132.416 Q2208.82 135.032 2208.82 140.102 Q2208.82 145.217 2205.84 147.833 Q2202.87 150.449 2197.06 150.449 L2191.18 150.449 L2191.18 164.338 L2186.51 164.338 L2186.51 129.778 Z" fill="#000000" fill-rule="nonzero" fill-opacity="1" /><path clip-path="url(#clip730)" d="M2219.77 133.62 L2219.77 160.495 L2225.42 160.495 Q2232.57 160.495 2235.88 157.254 Q2239.21 154.014 2239.21 147.023 Q2239.21 140.078 2235.88 136.861 Q2232.57 133.62 2225.42 133.62 L2219.77 133.62 M2215.09 129.778 L2224.7 129.778 Q2234.75 129.778 2239.45 133.967 Q2244.15 138.134 2244.15 147.023 Q2244.15 155.958 2239.42 160.148 Q2234.7 164.338 2224.7 164.338 L2215.09 164.338 L2215.09 129.778 Z" fill="#000000" fill-rule="nonzero" fill-opacity="1" /><path clip-path="url(#clip730)" d="M2251.6 129.778 L2256.27 129.778 L2256.27 164.338 L2251.6 164.338 L2251.6 129.778 Z" fill="#000000" fill-rule="nonzero" fill-opacity="1" /><polyline clip-path="url(#clip730)" style="stroke:#e26f46; stroke-linecap:round; stroke-linejoin:round; stroke-width:12; stroke-opacity:0.8; fill:none" points="1859.91,198.898 2004.63,198.898 "/>
<path clip-path="url(#clip730)" d="M2040.6 199.766 Q2037.27 199.766 2035.35 201.548 Q2033.45 203.33 2033.45 206.455 Q2033.45 209.58 2035.35 211.363 Q2037.27 213.145 2040.6 213.145 Q2043.94 213.145 2045.86 211.363 Q2047.78 209.557 2047.78 206.455 Q2047.78 203.33 2045.86 201.548 Q2043.96 199.766 2040.6 199.766 M2035.93 197.775 Q2032.92 197.034 2031.23 194.974 Q2029.56 192.914 2029.56 189.951 Q2029.56 185.807 2032.5 183.4 Q2035.47 180.993 2040.6 180.993 Q2045.77 180.993 2048.71 183.4 Q2051.65 185.807 2051.65 189.951 Q2051.65 192.914 2049.96 194.974 Q2048.29 197.034 2045.3 197.775 Q2048.68 198.562 2050.56 200.854 Q2052.46 203.145 2052.46 206.455 Q2052.46 211.479 2049.38 214.164 Q2046.32 216.849 2040.6 216.849 Q2034.89 216.849 2031.81 214.164 Q2028.75 211.479 2028.75 206.455 Q2028.75 203.145 2030.65 200.854 Q2032.55 198.562 2035.93 197.775 M2034.22 190.391 Q2034.22 193.076 2035.88 194.58 Q2037.57 196.085 2040.6 196.085 Q2043.61 196.085 2045.3 194.58 Q2047.02 193.076 2047.02 190.391 Q2047.02 187.705 2045.3 186.201 Q2043.61 184.696 2040.6 184.696 Q2037.57 184.696 2035.88 186.201 Q2034.22 187.705 2034.22 190.391 Z" fill="#000000" fill-rule="nonzero" fill-opacity="1" /><path clip-path="url(#clip730)" d="M2060.81 181.618 L2079.17 181.618 L2079.17 185.553 L2065.1 185.553 L2065.1 194.025 Q2066.11 193.678 2067.13 193.516 Q2068.15 193.33 2069.17 193.33 Q2074.96 193.33 2078.34 196.502 Q2081.72 199.673 2081.72 205.09 Q2081.72 210.668 2078.24 213.77 Q2074.77 216.849 2068.45 216.849 Q2066.28 216.849 2064.01 216.478 Q2061.76 216.108 2059.35 215.367 L2059.35 210.668 Q2061.44 211.803 2063.66 212.358 Q2065.88 212.914 2068.36 212.914 Q2072.36 212.914 2074.7 210.807 Q2077.04 208.701 2077.04 205.09 Q2077.04 201.479 2074.7 199.372 Q2072.36 197.266 2068.36 197.266 Q2066.48 197.266 2064.61 197.682 Q2062.76 198.099 2060.81 198.979 L2060.81 181.618 Z" fill="#000000" fill-rule="nonzero" fill-opacity="1" /><path clip-path="url(#clip730)" d="M2120.33 200.969 Q2118.31 200.969 2117.15 202.682 Q2116.02 204.395 2116.02 207.451 Q2116.02 210.46 2117.15 212.196 Q2118.31 213.909 2120.33 213.909 Q2122.29 213.909 2123.43 212.196 Q2124.59 210.46 2124.59 207.451 Q2124.59 204.418 2123.43 202.705 Q2122.29 200.969 2120.33 200.969 M2120.33 198.03 Q2123.98 198.03 2126.14 200.576 Q2128.29 203.122 2128.29 207.451 Q2128.29 211.779 2126.11 214.326 Q2123.96 216.849 2120.33 216.849 Q2116.62 216.849 2114.47 214.326 Q2112.32 211.779 2112.32 207.451 Q2112.32 203.099 2114.47 200.576 Q2116.65 198.03 2120.33 198.03 M2096.44 183.932 Q2094.45 183.932 2093.29 185.668 Q2092.16 187.381 2092.16 190.391 Q2092.16 193.446 2093.29 195.159 Q2094.42 196.872 2096.44 196.872 Q2098.45 196.872 2099.59 195.159 Q2100.74 193.446 2100.74 190.391 Q2100.74 187.405 2099.59 185.668 Q2098.43 183.932 2096.44 183.932 M2117.34 180.993 L2121.04 180.993 L2099.42 216.849 L2095.72 216.849 L2117.34 180.993 M2096.44 180.993 Q2100.09 180.993 2102.27 183.539 Q2104.45 186.062 2104.45 190.391 Q2104.45 194.766 2102.27 197.289 Q2100.12 199.812 2096.44 199.812 Q2092.76 199.812 2090.6 197.289 Q2088.47 194.742 2088.47 190.391 Q2088.47 186.085 2090.63 183.539 Q2092.78 180.993 2096.44 180.993 Z" fill="#000000" fill-rule="nonzero" fill-opacity="1" /><path clip-path="url(#clip730)" d="M2150.63 181.618 L2155.3 181.618 L2155.3 195.784 L2172.29 195.784 L2172.29 181.618 L2176.97 181.618 L2176.97 216.178 L2172.29 216.178 L2172.29 199.719 L2155.3 199.719 L2155.3 216.178 L2150.63 216.178 L2150.63 181.618 Z" fill="#000000" fill-rule="nonzero" fill-opacity="1" /><path clip-path="url(#clip730)" d="M2190.95 185.46 L2190.95 198.446 L2196.83 198.446 Q2200.09 198.446 2201.88 196.756 Q2203.66 195.067 2203.66 191.942 Q2203.66 188.84 2201.88 187.15 Q2200.09 185.46 2196.83 185.46 L2190.95 185.46 M2186.27 181.618 L2196.83 181.618 Q2202.64 181.618 2205.6 184.256 Q2208.59 186.872 2208.59 191.942 Q2208.59 197.057 2205.6 199.673 Q2202.64 202.289 2196.83 202.289 L2190.95 202.289 L2190.95 216.178 L2186.27 216.178 L2186.27 181.618 Z" fill="#000000" fill-rule="nonzero" fill-opacity="1" /><path clip-path="url(#clip730)" d="M2219.54 185.46 L2219.54 212.335 L2225.19 212.335 Q2232.34 212.335 2235.65 209.094 Q2238.98 205.854 2238.98 198.863 Q2238.98 191.918 2235.65 188.701 Q2232.34 185.46 2225.19 185.46 L2219.54 185.46 M2214.86 181.618 L2224.47 181.618 Q2234.52 181.618 2239.21 185.807 Q2243.91 189.974 2243.91 198.863 Q2243.91 207.798 2239.19 211.988 Q2234.47 216.178 2224.47 216.178 L2214.86 216.178 L2214.86 181.618 Z" fill="#000000" fill-rule="nonzero" fill-opacity="1" /><path clip-path="url(#clip730)" d="M2251.37 181.618 L2256.04 181.618 L2256.04 216.178 L2251.37 216.178 L2251.37 181.618 Z" fill="#000000" fill-rule="nonzero" fill-opacity="1" /><polyline clip-path="url(#clip730)" style="stroke:#3da44d; stroke-linecap:round; stroke-linejoin:round; stroke-width:18; stroke-opacity:0.8; fill:none" points="1859.91,250.738 2004.63,250.738 "/>
<path clip-path="url(#clip730)" d="M2028.75 233.458 L2050.97 233.458 L2050.97 235.448 L2038.43 268.018 L2033.54 268.018 L2045.35 237.393 L2028.75 237.393 L2028.75 233.458 Z" fill="#000000" fill-rule="nonzero" fill-opacity="1" /><path clip-path="url(#clip730)" d="M2060.14 233.458 L2078.5 233.458 L2078.5 237.393 L2064.42 237.393 L2064.42 245.865 Q2065.44 245.518 2066.46 245.356 Q2067.48 245.17 2068.5 245.17 Q2074.28 245.17 2077.66 248.342 Q2081.04 251.513 2081.04 256.93 Q2081.04 262.508 2077.57 265.61 Q2074.1 268.689 2067.78 268.689 Q2065.6 268.689 2063.34 268.318 Q2061.09 267.948 2058.68 267.207 L2058.68 262.508 Q2060.77 263.643 2062.99 264.198 Q2065.21 264.754 2067.69 264.754 Q2071.69 264.754 2074.03 262.647 Q2076.37 260.541 2076.37 256.93 Q2076.37 253.319 2074.03 251.212 Q2071.69 249.106 2067.69 249.106 Q2065.81 249.106 2063.94 249.522 Q2062.09 249.939 2060.14 250.819 L2060.14 233.458 Z" fill="#000000" fill-rule="nonzero" fill-opacity="1" /><path clip-path="url(#clip730)" d="M2119.65 252.809 Q2117.64 252.809 2116.48 254.522 Q2115.35 256.235 2115.35 259.291 Q2115.35 262.3 2116.48 264.036 Q2117.64 265.749 2119.65 265.749 Q2121.62 265.749 2122.76 264.036 Q2123.91 262.3 2123.91 259.291 Q2123.91 256.258 2122.76 254.545 Q2121.62 252.809 2119.65 252.809 M2119.65 249.87 Q2123.31 249.87 2125.47 252.416 Q2127.62 254.962 2127.62 259.291 Q2127.62 263.619 2125.44 266.166 Q2123.29 268.689 2119.65 268.689 Q2115.95 268.689 2113.8 266.166 Q2111.65 263.619 2111.65 259.291 Q2111.65 254.939 2113.8 252.416 Q2115.97 249.87 2119.65 249.87 M2095.77 235.772 Q2093.78 235.772 2092.62 237.508 Q2091.48 239.221 2091.48 242.231 Q2091.48 245.286 2092.62 246.999 Q2093.75 248.712 2095.77 248.712 Q2097.78 248.712 2098.91 246.999 Q2100.07 245.286 2100.07 242.231 Q2100.07 239.245 2098.91 237.508 Q2097.76 235.772 2095.77 235.772 M2116.67 232.833 L2120.37 232.833 L2098.75 268.689 L2095.05 268.689 L2116.67 232.833 M2095.77 232.833 Q2099.42 232.833 2101.6 235.379 Q2103.78 237.902 2103.78 242.231 Q2103.78 246.606 2101.6 249.129 Q2099.45 251.652 2095.77 251.652 Q2092.09 251.652 2089.93 249.129 Q2087.8 246.582 2087.8 242.231 Q2087.8 237.925 2089.96 235.379 Q2092.11 232.833 2095.77 232.833 Z" fill="#000000" fill-rule="nonzero" fill-opacity="1" /><path clip-path="url(#clip730)" d="M2149.96 233.458 L2154.63 233.458 L2154.63 247.624 L2171.62 247.624 L2171.62 233.458 L2176.3 233.458 L2176.3 268.018 L2171.62 268.018 L2171.62 251.559 L2154.63 251.559 L2154.63 268.018 L2149.96 268.018 L2149.96 233.458 Z" fill="#000000" fill-rule="nonzero" fill-opacity="1" /><path clip-path="url(#clip730)" d="M2190.28 237.3 L2190.28 250.286 L2196.16 250.286 Q2199.42 250.286 2201.21 248.596 Q2202.99 246.907 2202.99 243.782 Q2202.99 240.68 2201.21 238.99 Q2199.42 237.3 2196.16 237.3 L2190.28 237.3 M2185.6 233.458 L2196.16 233.458 Q2201.97 233.458 2204.93 236.096 Q2207.92 238.712 2207.92 243.782 Q2207.92 248.897 2204.93 251.513 Q2201.97 254.129 2196.16 254.129 L2190.28 254.129 L2190.28 268.018 L2185.6 268.018 L2185.6 233.458 Z" fill="#000000" fill-rule="nonzero" fill-opacity="1" /><path clip-path="url(#clip730)" d="M2218.87 237.3 L2218.87 264.175 L2224.52 264.175 Q2231.67 264.175 2234.98 260.934 Q2238.31 257.694 2238.31 250.703 Q2238.31 243.758 2234.98 240.541 Q2231.67 237.3 2224.52 237.3 L2218.87 237.3 M2214.19 233.458 L2223.8 233.458 Q2233.84 233.458 2238.54 237.647 Q2243.24 241.814 2243.24 250.703 Q2243.24 259.638 2238.52 263.828 Q2233.8 268.018 2223.8 268.018 L2214.19 268.018 L2214.19 233.458 Z" fill="#000000" fill-rule="nonzero" fill-opacity="1" /><path clip-path="url(#clip730)" d="M2250.7 233.458 L2255.37 233.458 L2255.37 268.018 L2250.7 268.018 L2250.7 233.458 Z" fill="#000000" fill-rule="nonzero" fill-opacity="1" /><path clip-path="url(#clip730)" d="M1932.27 280.635 L1910.33 302.578 L1932.27 324.52 L1954.21 302.578 L1932.27 280.635 Z" fill="#000000" fill-rule="evenodd" fill-opacity="1" stroke="none"/>
<path clip-path="url(#clip730)" d="M2028.75 285.298 L2035.72 285.298 L2044.54 308.816 L2053.41 285.298 L2060.37 285.298 L2060.37 319.858 L2055.81 319.858 L2055.81 289.51 L2046.9 313.214 L2042.2 313.214 L2033.29 289.51 L2033.29 319.858 L2028.75 319.858 L2028.75 285.298 Z" fill="#000000" fill-rule="nonzero" fill-opacity="1" /><path clip-path="url(#clip730)" d="M2091.65 305.83 L2091.65 307.913 L2072.06 307.913 Q2072.34 312.311 2074.7 314.626 Q2077.09 316.918 2081.32 316.918 Q2083.78 316.918 2086.07 316.316 Q2088.38 315.714 2090.65 314.51 L2090.65 318.538 Q2088.36 319.51 2085.95 320.02 Q2083.54 320.529 2081.07 320.529 Q2074.86 320.529 2071.23 316.918 Q2067.62 313.307 2067.62 307.149 Q2067.62 300.784 2071.04 297.057 Q2074.49 293.307 2080.33 293.307 Q2085.56 293.307 2088.59 296.686 Q2091.65 300.043 2091.65 305.83 M2087.39 304.58 Q2087.34 301.085 2085.42 299.001 Q2083.52 296.918 2080.37 296.918 Q2076.81 296.918 2074.66 298.932 Q2072.53 300.946 2072.2 304.603 L2087.39 304.58 Z" fill="#000000" fill-rule="nonzero" fill-opacity="1" /><path clip-path="url(#clip730)" d="M2115.7 297.867 L2115.7 283.839 L2119.96 283.839 L2119.96 319.858 L2115.7 319.858 L2115.7 315.969 Q2114.35 318.283 2112.29 319.418 Q2110.26 320.529 2107.39 320.529 Q2102.69 320.529 2099.72 316.779 Q2096.78 313.029 2096.78 306.918 Q2096.78 300.807 2099.72 297.057 Q2102.69 293.307 2107.39 293.307 Q2110.26 293.307 2112.29 294.441 Q2114.35 295.552 2115.7 297.867 M2101.18 306.918 Q2101.18 311.617 2103.1 314.302 Q2105.05 316.964 2108.43 316.964 Q2111.81 316.964 2113.75 314.302 Q2115.7 311.617 2115.7 306.918 Q2115.7 302.219 2113.75 299.557 Q2111.81 296.872 2108.43 296.872 Q2105.05 296.872 2103.1 299.557 Q2101.18 302.219 2101.18 306.918 Z" fill="#000000" fill-rule="nonzero" fill-opacity="1" /><path clip-path="url(#clip730)" d="M2128.73 293.932 L2132.99 293.932 L2132.99 319.858 L2128.73 319.858 L2128.73 293.932 M2128.73 283.839 L2132.99 283.839 L2132.99 289.233 L2128.73 289.233 L2128.73 283.839 Z" fill="#000000" fill-rule="nonzero" fill-opacity="1" /><path clip-path="url(#clip730)" d="M2153.68 306.825 Q2148.52 306.825 2146.53 308.006 Q2144.54 309.186 2144.54 312.034 Q2144.54 314.302 2146.02 315.645 Q2147.53 316.964 2150.09 316.964 Q2153.64 316.964 2155.77 314.464 Q2157.92 311.941 2157.92 307.774 L2157.92 306.825 L2153.68 306.825 M2162.18 305.066 L2162.18 319.858 L2157.92 319.858 L2157.92 315.922 Q2156.46 318.283 2154.28 319.418 Q2152.11 320.529 2148.96 320.529 Q2144.98 320.529 2142.62 318.307 Q2140.28 316.061 2140.28 312.311 Q2140.28 307.936 2143.2 305.714 Q2146.14 303.492 2151.95 303.492 L2157.92 303.492 L2157.92 303.075 Q2157.92 300.135 2155.97 298.538 Q2154.05 296.918 2150.56 296.918 Q2148.34 296.918 2146.23 297.45 Q2144.12 297.983 2142.18 299.047 L2142.18 295.112 Q2144.52 294.21 2146.72 293.77 Q2148.91 293.307 2151 293.307 Q2156.62 293.307 2159.4 296.223 Q2162.18 299.14 2162.18 305.066 Z" fill="#000000" fill-rule="nonzero" fill-opacity="1" /><path clip-path="url(#clip730)" d="M2192.5 304.209 L2192.5 319.858 L2188.24 319.858 L2188.24 304.348 Q2188.24 300.668 2186.81 298.839 Q2185.37 297.01 2182.5 297.01 Q2179.05 297.01 2177.06 299.21 Q2175.07 301.409 2175.07 305.205 L2175.07 319.858 L2170.79 319.858 L2170.79 293.932 L2175.07 293.932 L2175.07 297.96 Q2176.6 295.622 2178.66 294.464 Q2180.74 293.307 2183.45 293.307 Q2187.92 293.307 2190.21 296.085 Q2192.5 298.839 2192.5 304.209 Z" fill="#000000" fill-rule="nonzero" fill-opacity="1" /><circle clip-path="url(#clip730)" cx="1932.27" cy="354.418" r="19.7486" fill="#808080" fill-rule="evenodd" fill-opacity="1" stroke="#000000" stroke-opacity="1" stroke-width="5.85143"/>
<path clip-path="url(#clip730)" d="M2028.75 337.138 L2035.72 337.138 L2044.54 360.656 L2053.41 337.138 L2060.37 337.138 L2060.37 371.698 L2055.81 371.698 L2055.81 341.35 L2046.9 365.054 L2042.2 365.054 L2033.29 341.35 L2033.29 371.698 L2028.75 371.698 L2028.75 337.138 Z" fill="#000000" fill-rule="nonzero" fill-opacity="1" /><path clip-path="url(#clip730)" d="M2091.65 357.67 L2091.65 359.753 L2072.06 359.753 Q2072.34 364.151 2074.7 366.466 Q2077.09 368.758 2081.32 368.758 Q2083.78 368.758 2086.07 368.156 Q2088.38 367.554 2090.65 366.35 L2090.65 370.378 Q2088.36 371.35 2085.95 371.86 Q2083.54 372.369 2081.07 372.369 Q2074.86 372.369 2071.23 368.758 Q2067.62 365.147 2067.62 358.989 Q2067.62 352.624 2071.04 348.897 Q2074.49 345.147 2080.33 345.147 Q2085.56 345.147 2088.59 348.526 Q2091.65 351.883 2091.65 357.67 M2087.39 356.42 Q2087.34 352.925 2085.42 350.841 Q2083.52 348.758 2080.37 348.758 Q2076.81 348.758 2074.66 350.772 Q2072.53 352.786 2072.2 356.443 L2087.39 356.42 Z" fill="#000000" fill-rule="nonzero" fill-opacity="1" /><path clip-path="url(#clip730)" d="M2110.42 358.665 Q2105.26 358.665 2103.27 359.846 Q2101.28 361.026 2101.28 363.874 Q2101.28 366.142 2102.76 367.485 Q2104.26 368.804 2106.83 368.804 Q2110.37 368.804 2112.5 366.304 Q2114.65 363.781 2114.65 359.614 L2114.65 358.665 L2110.42 358.665 M2118.91 356.906 L2118.91 371.698 L2114.65 371.698 L2114.65 367.762 Q2113.2 370.123 2111.02 371.258 Q2108.84 372.369 2105.7 372.369 Q2101.72 372.369 2099.35 370.147 Q2097.02 367.901 2097.02 364.151 Q2097.02 359.776 2099.93 357.554 Q2102.87 355.332 2108.68 355.332 L2114.65 355.332 L2114.65 354.915 Q2114.65 351.975 2112.71 350.378 Q2110.79 348.758 2107.29 348.758 Q2105.07 348.758 2102.97 349.29 Q2100.86 349.823 2098.91 350.887 L2098.91 346.952 Q2101.25 346.05 2103.45 345.61 Q2105.65 345.147 2107.73 345.147 Q2113.36 345.147 2116.14 348.063 Q2118.91 350.98 2118.91 356.906 Z" fill="#000000" fill-rule="nonzero" fill-opacity="1" /><path clip-path="url(#clip730)" d="M2149.24 356.049 L2149.24 371.698 L2144.98 371.698 L2144.98 356.188 Q2144.98 352.508 2143.54 350.679 Q2142.11 348.85 2139.24 348.85 Q2135.79 348.85 2133.8 351.05 Q2131.81 353.249 2131.81 357.045 L2131.81 371.698 L2127.53 371.698 L2127.53 345.772 L2131.81 345.772 L2131.81 349.8 Q2133.34 347.462 2135.4 346.304 Q2137.48 345.147 2140.19 345.147 Q2144.65 345.147 2146.95 347.925 Q2149.24 350.679 2149.24 356.049 Z" fill="#000000" fill-rule="nonzero" fill-opacity="1" /></svg>
