<?xml version="1.0" encoding="UTF-8"?>
<svg xmlns="http://www.w3.org/2000/svg"
     xmlns:xlink="http://www.w3.org/1999/xlink"
     xmlns:gadfly="http://www.gadflyjl.org/ns"
     version="1.2"
     width="141.42mm" height="100mm" viewBox="0 0 141.42 100"
     stroke="none"
     fill="#000000"
     stroke-width="0.3"
     font-size="3.88"
>
<defs>
  <marker id="arrow" markerWidth="15" markerHeight="7" refX="5" refY="3.5" orient="auto" markerUnits="strokeWidth">
    <path d="M0,0 L15,3.5 L0,7 z" stroke="context-stroke" fill="context-stroke"/>
  </marker>
</defs>
<g class="plotroot xscalable yscalable" id="img-030385ef-1">
  <g font-size="3.88" font-family="'PT Sans','Helvetica Neue','Helvetica',sans-serif" fill="#564A55" stroke="#000000" stroke-opacity="0.000" id="img-030385ef-2">
    <g transform="translate(73.05,88.39)">
      <g class="primitive">
        <text text-anchor="middle" dy="0.6em">A</text>
      </g>
    </g>
  </g>
  <g class="guide xlabels" font-size="2.82" font-family="'PT Sans Caption','Helvetica Neue','Helvetica',sans-serif" fill="#6C606B" id="img-030385ef-3">
    <g transform="translate(20.63,81.72)">
      <g class="primitive">
        <text text-anchor="middle" dy="0.6em">-5</text>
      </g>
    </g>
    <g transform="translate(73.05,81.72)">
      <g class="primitive">
        <text text-anchor="middle" dy="0.6em">0</text>
      </g>
    </g>
    <g transform="translate(125.47,81.72)">
      <g class="primitive">
        <text text-anchor="middle" dy="0.6em">5</text>
      </g>
    </g>
  </g>
  <g class="guide colorkey" id="img-030385ef-4">
    <g fill="#4C404B" font-size="2.82" font-family="'PT Sans','Helvetica Neue','Helvetica',sans-serif" id="img-030385ef-5">
      <g transform="translate(131.29,41.04)" id="img-030385ef-6" class="color_1">
        <g class="primitive">
          <text dy="0.35em">1</text>
        </g>
      </g>
      <g transform="translate(131.29,44.67)" id="img-030385ef-7" class="color_2">
        <g class="primitive">
          <text dy="0.35em">2</text>
        </g>
      </g>
      <g transform="translate(131.29,48.3)" id="img-030385ef-8" class="color_3">
        <g class="primitive">
          <text dy="0.35em">3</text>
        </g>
      </g>
    </g>
    <g fill-opacity="1" id="img-030385ef-9">
      <g transform="translate(129.38,41.04)" id="img-030385ef-10" class="color_1" fill="#00BFFF" stroke="#FFFFFF">
        <path d="M-0.91,-0.91 L0.91,-0.91 0.91,0.91 -0.91,0.91  z" class="primitive"/>
      </g>
      <g transform="translate(129.38,44.67)" id="img-030385ef-11" class="color_2" fill="#D4CA3A" stroke="#FFFFFF">
        <path d="M-0.91,-0.91 L0.91,-0.91 0.91,0.91 -0.91,0.91  z" class="primitive"/>
      </g>
      <g transform="translate(129.38,48.3)" id="img-030385ef-12" class="color_3" fill="#FF6DAE" stroke="#FFFFFF">
        <path d="M-0.91,-0.91 L0.91,-0.91 0.91,0.91 -0.91,0.91  z" class="primitive"/>
      </g>
    </g>
    <g fill="#362A35" font-size="3.88" font-family="'PT Sans','Helvetica Neue','Helvetica',sans-serif" stroke="#000000" stroke-opacity="0.000" id="img-030385ef-13">
      <g transform="translate(128.47,37.22)" id="img-030385ef-14">
        <g class="primitive">
          <text dy="-0em">chain</text>
        </g>
      </g>
    </g>
  </g>
  <g clip-path="url(#img-030385ef-15)">
    <g id="img-030385ef-16">
      <g pointer-events="visible" stroke-width="0.3" fill="#000000" fill-opacity="0.000" stroke="#000000" stroke-opacity="0.000" class="guide background" id="img-030385ef-17">
        <g transform="translate(73.05,42.86)" id="img-030385ef-18">
          <path d="M-54.42,-37.86 L54.42,-37.86 54.42,37.86 -54.42,37.86  z" class="primitive"/>
        </g>
      </g>
      <g class="guide ygridlines xfixed" stroke-dasharray="0.5,0.5" stroke-width="0.2" stroke="#D0D0E0" id="img-030385ef-19">
        <g transform="translate(73.05,78.71)" id="img-030385ef-20">
          <path fill="none" d="M-54.42,0 L54.42,0 " class="primitive"/>
        </g>
        <g transform="translate(73.05,64.37)" id="img-030385ef-21">
          <path fill="none" d="M-54.42,0 L54.42,0 " class="primitive"/>
        </g>
        <g transform="translate(73.05,50.03)" id="img-030385ef-22">
          <path fill="none" d="M-54.42,0 L54.42,0 " class="primitive"/>
        </g>
        <g transform="translate(73.05,35.69)" id="img-030385ef-23">
          <path fill="none" d="M-54.42,0 L54.42,0 " class="primitive"/>
        </g>
        <g transform="translate(73.05,21.34)" id="img-030385ef-24">
          <path fill="none" d="M-54.42,0 L54.42,0 " class="primitive"/>
        </g>
        <g transform="translate(73.05,7)" id="img-030385ef-25">
          <path fill="none" d="M-54.42,0 L54.42,0 " class="primitive"/>
        </g>
      </g>
      <g class="guide xgridlines yfixed" stroke-dasharray="0.5,0.5" stroke-width="0.2" stroke="#D0D0E0" id="img-030385ef-26">
        <g transform="translate(20.63,42.86)" id="img-030385ef-27">
          <path fill="none" d="M0,-37.86 L0,37.86 " class="primitive"/>
        </g>
        <g transform="translate(73.05,42.86)" id="img-030385ef-28">
          <path fill="none" d="M0,-37.86 L0,37.86 " class="primitive"/>
        </g>
        <g transform="translate(125.47,42.86)" id="img-030385ef-29">
          <path fill="none" d="M0,-37.86 L0,37.86 " class="primitive"/>
        </g>
      </g>
      <g class="plotpanel" id="img-030385ef-30">
        <metadata>
          <boundingbox value="18.63166666666666mm 5.0mm 108.84302290397619mm 75.715mm"/>
          <unitbox value="-5.190761382551108 0.5139440842222687 10.381522765102215 -0.5278881684445375"/>
        </metadata>
        <g stroke-width="0.3" fill="#000000" fill-opacity="0.000" class="geometry" id="img-030385ef-31">
          <g transform="translate(74.95,56.65)" id="img-030385ef-32" stroke-dasharray="none" stroke="#FF6DAE" class="color_3" stroke-opacity="1">
            <path fill="none" d="M-33.95,22.06 L-33.68,22.06 -33.42,22.06 -33.15,22.06 -32.88,22.06 -32.62,22.06 -32.35,22.05 -32.08,22.05 -31.82,22.05 -31.55,22.04 -31.29,22.04 -31.02,22.03 -30.75,22.02 -30.49,22.01 -30.22,22 -29.95,21.98 -29.69,21.96 -29.42,21.93 -29.16,21.9 -28.89,21.86 -28.62,21.82 -28.36,21.76 -28.09,21.7 -27.82,21.62 -27.56,21.52 -27.29,21.42 -27.03,21.29 -26.76,21.14 -26.49,20.97 -26.23,20.78 -25.96,20.55 -25.69,20.3 -25.43,20.02 -25.16,19.7 -24.9,19.34 -24.63,18.95 -24.36,18.52 -24.1,18.04 -23.83,17.53 -23.56,16.97 -23.3,16.36 -23.03,15.72 -22.77,15.03 -22.5,14.3 -22.23,13.53 -21.97,12.72 -21.7,11.88 -21.43,11.01 -21.17,10.11 -20.9,9.18 -20.64,8.24 -20.37,7.28 -20.1,6.32 -19.84,5.34 -19.57,4.37 -19.3,3.4 -19.04,2.44 -18.77,1.49 -18.51,0.56 -18.24,-0.34 -17.97,-1.23 -17.71,-2.08 -17.44,-2.9 -17.17,-3.69 -16.91,-4.45 -16.64,-5.16 -16.38,-5.85 -16.11,-6.49 -15.84,-7.1 -15.58,-7.67 -15.31,-8.22 -15.04,-8.73 -14.78,-9.21 -14.51,-9.67 -14.25,-10.11 -13.98,-10.53 -13.71,-10.94 -13.45,-11.35 -13.18,-11.76 -12.91,-12.16 -12.65,-12.58 -12.38,-13.01 -12.12,-13.46 -11.85,-13.94 -11.58,-14.43 -11.32,-14.96 -11.05,-15.51 -10.78,-16.1 -10.52,-16.72 -10.25,-17.37 -9.98,-18.05 -9.72,-18.76 -9.45,-19.49 -9.19,-20.25 -8.92,-21.02 -8.65,-21.8 -8.39,-22.59 -8.12,-23.38 -7.85,-24.16 -7.59,-24.93 -7.32,-25.69 -7.06,-26.42 -6.79,-27.13 -6.52,-27.8 -6.26,-28.44 -5.99,-29.03 -5.72,-29.58 -5.46,-30.08 -5.19,-30.54 -4.93,-30.95 -4.66,-31.3 -4.39,-31.61 -4.13,-31.87 -3.86,-32.09 -3.59,-32.25 -3.33,-32.38 -3.06,-32.46 -2.8,-32.51 -2.53,-32.51 -2.26,-32.49 -2,-32.43 -1.73,-32.34 -1.46,-32.22 -1.2,-32.07 -0.93,-31.89 -0.67,-31.68 -0.4,-31.45 -0.13,-31.2 0.13,-30.91 0.4,-30.6 0.67,-30.27 0.93,-29.9 1.2,-29.52 1.46,-29.1 1.73,-28.66 2,-28.2 2.26,-27.71 2.53,-27.2 2.8,-26.66 3.06,-26.1 3.33,-25.53 3.59,-24.94 3.86,-24.33 4.13,-23.7 4.39,-23.06 4.66,-22.42 4.93,-21.76 5.19,-21.09 5.46,-20.42 5.72,-19.75 5.99,-19.07 6.26,-18.4 6.52,-17.72 6.79,-17.05 7.06,-16.39 7.32,-15.73 7.59,-15.07 7.85,-14.43 8.12,-13.8 8.39,-13.17 8.65,-12.56 8.92,-11.97 9.19,-11.38 9.45,-10.8 9.72,-10.24 9.98,-9.69 10.25,-9.15 10.52,-8.61 10.78,-8.09 11.05,-7.56 11.32,-7.04 11.58,-6.52 11.85,-5.99 12.12,-5.46 12.38,-4.92 12.65,-4.37 12.91,-3.81 13.18,-3.23 13.45,-2.63 13.71,-2.02 13.98,-1.39 14.25,-0.74 14.51,-0.07 14.78,0.61 15.04,1.31 15.31,2.02 15.58,2.75 15.84,3.49 16.11,4.23 16.38,4.98 16.64,5.73 16.91,6.49 17.17,7.24 17.44,7.98 17.71,8.71 17.97,9.44 18.24,10.15 18.51,10.84 18.77,11.52 19.04,12.18 19.3,12.82 19.57,13.44 19.84,14.04 20.1,14.62 20.37,15.17 20.64,15.69 20.9,16.2 21.17,16.67 21.43,17.13 21.7,17.55 21.97,17.96 22.23,18.34 22.5,18.69 22.77,19.02 23.03,19.33 23.3,19.62 23.56,19.88 23.83,20.12 24.1,20.35 24.36,20.55 24.63,20.73 24.9,20.9 25.16,21.05 25.43,21.19 25.69,21.3 25.96,21.41 26.23,21.51 26.49,21.59 26.76,21.66 27.03,21.72 27.29,21.78 27.56,21.82 27.82,21.86 28.09,21.9 28.36,21.93 28.62,21.95 28.89,21.97 29.16,21.99 29.42,22 29.69,22.01 29.95,22.02 30.22,22.03 30.49,22.04 30.75,22.04 31.02,22.05 31.29,22.05 31.55,22.05 31.82,22.05 32.08,22.06 32.35,22.06 32.62,22.06 32.88,22.06 33.15,22.06 33.42,22.06 33.68,22.06 33.95,22.06 " class="primitive"/>
          </g>
          <g transform="translate(68.88,62.26)" id="img-030385ef-33" stroke-dasharray="none" stroke="#00BFFF" class="color_1" stroke-opacity="1">
            <path fill="none" d="M-45.51,16.46 L-45.15,16.45 -44.8,16.45 -44.44,16.45 -44.08,16.45 -43.73,16.45 -43.37,16.45 -43.01,16.45 -42.66,16.45 -42.3,16.44 -41.94,16.44 -41.59,16.43 -41.23,16.42 -40.87,16.41 -40.51,16.39 -40.16,16.38 -39.8,16.35 -39.44,16.33 -39.09,16.29 -38.73,16.26 -38.37,16.21 -38.02,16.16 -37.66,16.1 -37.3,16.03 -36.94,15.95 -36.59,15.87 -36.23,15.78 -35.87,15.69 -35.52,15.58 -35.16,15.48 -34.8,15.38 -34.45,15.27 -34.09,15.17 -33.73,15.08 -33.38,14.99 -33.02,14.91 -32.66,14.85 -32.3,14.8 -31.95,14.76 -31.59,14.74 -31.23,14.74 -30.88,14.75 -30.52,14.77 -30.16,14.81 -29.81,14.86 -29.45,14.92 -29.09,14.98 -28.73,15.04 -28.38,15.11 -28.02,15.16 -27.66,15.21 -27.31,15.25 -26.95,15.27 -26.59,15.27 -26.24,15.26 -25.88,15.22 -25.52,15.16 -25.17,15.08 -24.81,14.97 -24.45,14.84 -24.09,14.69 -23.74,14.52 -23.38,14.33 -23.02,14.13 -22.67,13.91 -22.31,13.68 -21.95,13.44 -21.6,13.19 -21.24,12.93 -20.88,12.67 -20.52,12.41 -20.17,12.14 -19.81,11.87 -19.45,11.6 -19.1,11.32 -18.74,11.04 -18.38,10.75 -18.03,10.45 -17.67,10.15 -17.31,9.84 -16.96,9.52 -16.6,9.19 -16.24,8.84 -15.88,8.48 -15.53,8.11 -15.17,7.72 -14.81,7.31 -14.46,6.88 -14.1,6.42 -13.74,5.94 -13.39,5.41 -13.03,4.85 -12.67,4.24 -12.31,3.57 -11.96,2.85 -11.6,2.07 -11.24,1.22 -10.89,0.3 -10.53,-0.68 -10.17,-1.72 -9.82,-2.82 -9.46,-3.97 -9.1,-5.16 -8.75,-6.38 -8.39,-7.61 -8.03,-8.86 -7.67,-10.09 -7.32,-11.31 -6.96,-12.5 -6.6,-13.65 -6.25,-14.76 -5.89,-15.82 -5.53,-16.82 -5.18,-17.78 -4.82,-18.69 -4.46,-19.56 -4.1,-20.39 -3.75,-21.18 -3.39,-21.95 -3.03,-22.71 -2.68,-23.46 -2.32,-24.2 -1.96,-24.95 -1.61,-25.7 -1.25,-26.47 -0.89,-27.24 -0.54,-28.03 -0.18,-28.84 0.18,-29.65 0.54,-30.48 0.89,-31.31 1.25,-32.14 1.61,-32.96 1.96,-33.78 2.32,-34.58 2.68,-35.36 3.03,-36.12 3.39,-36.84 3.75,-37.52 4.1,-38.16 4.46,-38.76 4.82,-39.3 5.18,-39.78 5.53,-40.2 5.89,-40.56 6.25,-40.85 6.6,-41.07 6.96,-41.22 7.32,-41.29 7.67,-41.29 8.03,-41.21 8.39,-41.06 8.75,-40.84 9.1,-40.55 9.46,-40.19 9.82,-39.77 10.17,-39.29 10.53,-38.75 10.89,-38.15 11.24,-37.5 11.6,-36.79 11.96,-36.03 12.31,-35.22 12.67,-34.34 13.03,-33.41 13.39,-32.4 13.74,-31.33 14.1,-30.17 14.46,-28.94 14.81,-27.62 15.17,-26.2 15.53,-24.71 15.88,-23.12 16.24,-21.45 16.6,-19.71 16.96,-17.9 17.31,-16.04 17.67,-14.14 18.03,-12.22 18.38,-10.29 18.74,-8.38 19.1,-6.49 19.45,-4.66 19.81,-2.89 20.17,-1.19 20.52,0.41 20.88,1.91 21.24,3.31 21.6,4.59 21.95,5.76 22.31,6.81 22.67,7.75 23.02,8.58 23.38,9.3 23.74,9.92 24.09,10.45 24.45,10.9 24.81,11.27 25.17,11.57 25.52,11.81 25.88,12 26.24,12.15 26.59,12.25 26.95,12.33 27.31,12.39 27.66,12.43 28.02,12.46 28.38,12.49 28.73,12.52 29.09,12.55 29.45,12.6 29.81,12.65 30.16,12.73 30.52,12.82 30.88,12.92 31.23,13.05 31.59,13.19 31.95,13.35 32.3,13.52 32.66,13.71 33.02,13.9 33.38,14.1 33.73,14.3 34.09,14.5 34.45,14.7 34.8,14.89 35.16,15.07 35.52,15.24 35.87,15.4 36.23,15.55 36.59,15.69 36.94,15.81 37.3,15.91 37.66,16.01 38.02,16.09 38.37,16.16 38.73,16.21 39.09,16.26 39.44,16.3 39.8,16.34 40.16,16.36 40.51,16.39 40.87,16.4 41.23,16.42 41.59,16.43 41.94,16.43 42.3,16.44 42.66,16.44 43.01,16.45 43.37,16.45 43.73,16.45 44.08,16.45 44.44,16.45 44.8,16.45 45.15,16.45 45.51,16.46 " class="primitive"/>
          </g>
          <g transform="translate(73.87,62.89)" id="img-030385ef-34" stroke-dasharray="none" stroke="#D4CA3A" class="color_2" stroke-opacity="1">
            <path fill="none" d="M-47.33,15.82 L-46.96,15.82 -46.59,15.82 -46.22,15.82 -45.85,15.82 -45.48,15.82 -45.11,15.82 -44.74,15.81 -44.36,15.81 -43.99,15.81 -43.62,15.8 -43.25,15.79 -42.88,15.78 -42.51,15.77 -42.14,15.75 -41.77,15.73 -41.39,15.7 -41.02,15.67 -40.65,15.63 -40.28,15.58 -39.91,15.53 -39.54,15.47 -39.17,15.4 -38.8,15.32 -38.42,15.23 -38.05,15.13 -37.68,15.03 -37.31,14.93 -36.94,14.82 -36.57,14.71 -36.2,14.6 -35.83,14.49 -35.45,14.39 -35.08,14.31 -34.71,14.23 -34.34,14.16 -33.97,14.11 -33.6,14.08 -33.23,14.06 -32.86,14.06 -32.48,14.07 -32.11,14.09 -31.74,14.12 -31.37,14.16 -31,14.2 -30.63,14.23 -30.26,14.26 -29.89,14.28 -29.51,14.29 -29.14,14.28 -28.77,14.24 -28.4,14.18 -28.03,14.1 -27.66,13.98 -27.29,13.84 -26.92,13.67 -26.54,13.47 -26.17,13.23 -25.8,12.97 -25.43,12.68 -25.06,12.37 -24.69,12.02 -24.32,11.65 -23.95,11.26 -23.57,10.83 -23.2,10.39 -22.83,9.92 -22.46,9.42 -22.09,8.91 -21.72,8.37 -21.35,7.82 -20.98,7.25 -20.6,6.67 -20.23,6.08 -19.86,5.48 -19.49,4.88 -19.12,4.28 -18.75,3.68 -18.38,3.08 -18.01,2.49 -17.63,1.89 -17.26,1.28 -16.89,0.66 -16.52,0.03 -16.15,-0.63 -15.78,-1.33 -15.41,-2.06 -15.04,-2.85 -14.66,-3.71 -14.29,-4.62 -13.92,-5.61 -13.55,-6.67 -13.18,-7.8 -12.81,-9 -12.44,-10.25 -12.07,-11.56 -11.69,-12.91 -11.32,-14.28 -10.95,-15.66 -10.58,-17.04 -10.21,-18.4 -9.84,-19.72 -9.47,-20.99 -9.1,-22.21 -8.72,-23.36 -8.35,-24.45 -7.98,-25.46 -7.61,-26.4 -7.24,-27.27 -6.87,-28.09 -6.5,-28.85 -6.13,-29.58 -5.75,-30.28 -5.38,-30.96 -5.01,-31.64 -4.64,-32.32 -4.27,-33.02 -3.9,-33.75 -3.53,-34.5 -3.16,-35.28 -2.78,-36.09 -2.41,-36.92 -2.04,-37.78 -1.67,-38.64 -1.3,-39.49 -0.93,-40.33 -0.56,-41.13 -0.19,-41.88 0.19,-42.55 0.56,-43.14 0.93,-43.6 1.3,-43.94 1.67,-44.13 2.04,-44.16 2.41,-44.02 2.78,-43.7 3.16,-43.2 3.53,-42.51 3.9,-41.64 4.27,-40.6 4.64,-39.4 5.01,-38.05 5.38,-36.56 5.75,-34.97 6.13,-33.29 6.5,-31.54 6.87,-29.74 7.24,-27.93 7.61,-26.12 7.98,-24.33 8.35,-22.58 8.72,-20.89 9.1,-19.25 9.47,-17.7 9.84,-16.22 10.21,-14.83 10.58,-13.52 10.95,-12.3 11.32,-11.16 11.69,-10.1 12.07,-9.11 12.44,-8.18 12.81,-7.31 13.18,-6.5 13.55,-5.73 13.92,-5 14.29,-4.31 14.66,-3.64 15.04,-2.99 15.41,-2.35 15.78,-1.72 16.15,-1.1 16.52,-0.47 16.89,0.17 17.26,0.8 17.63,1.45 18.01,2.09 18.38,2.74 18.75,3.39 19.12,4.02 19.49,4.64 19.86,5.25 20.23,5.83 20.6,6.38 20.98,6.9 21.35,7.39 21.72,7.84 22.09,8.26 22.46,8.65 22.83,9 23.2,9.33 23.57,9.63 23.95,9.91 24.32,10.18 24.69,10.43 25.06,10.67 25.43,10.9 25.8,11.12 26.17,11.34 26.54,11.54 26.92,11.75 27.29,11.94 27.66,12.13 28.03,12.3 28.4,12.47 28.77,12.62 29.14,12.76 29.51,12.89 29.89,13 30.26,13.1 30.63,13.2 31,13.28 31.37,13.35 31.74,13.42 32.11,13.49 32.48,13.56 32.86,13.63 33.23,13.71 33.6,13.79 33.97,13.88 34.34,13.97 34.71,14.08 35.08,14.19 35.45,14.3 35.83,14.42 36.2,14.54 36.57,14.67 36.94,14.79 37.31,14.9 37.68,15.02 38.05,15.12 38.42,15.22 38.8,15.31 39.17,15.39 39.54,15.46 39.91,15.53 40.28,15.58 40.65,15.63 41.02,15.67 41.39,15.7 41.77,15.73 42.14,15.75 42.51,15.77 42.88,15.78 43.25,15.79 43.62,15.8 43.99,15.81 44.36,15.81 44.74,15.81 45.11,15.82 45.48,15.82 45.85,15.82 46.22,15.82 46.59,15.82 46.96,15.82 47.33,15.82 " class="primitive"/>
          </g>
        </g>
      </g>
    </g>
  </g>
  <g class="guide ylabels" font-size="2.82" font-family="'PT Sans Caption','Helvetica Neue','Helvetica',sans-serif" fill="#6C606B" id="img-030385ef-35">
    <g transform="translate(17.63,78.71)" id="img-030385ef-36">
      <g class="primitive">
        <text text-anchor="end" dy="0.35em">0.0</text>
      </g>
    </g>
    <g transform="translate(17.63,64.37)" id="img-030385ef-37">
      <g class="primitive">
        <text text-anchor="end" dy="0.35em">0.1</text>
      </g>
    </g>
    <g transform="translate(17.63,50.03)" id="img-030385ef-38">
      <g class="primitive">
        <text text-anchor="end" dy="0.35em">0.2</text>
      </g>
    </g>
    <g transform="translate(17.63,35.69)" id="img-030385ef-39">
      <g class="primitive">
        <text text-anchor="end" dy="0.35em">0.3</text>
      </g>
    </g>
    <g transform="translate(17.63,21.34)" id="img-030385ef-40">
      <g class="primitive">
        <text text-anchor="end" dy="0.35em">0.4</text>
      </g>
    </g>
    <g transform="translate(17.63,7)" id="img-030385ef-41">
      <g class="primitive">
        <text text-anchor="end" dy="0.35em">0.5</text>
      </g>
    </g>
  </g>
  <g font-size="3.88" font-family="'PT Sans','Helvetica Neue','Helvetica',sans-serif" fill="#564A55" stroke="#000000" stroke-opacity="0.000" id="img-030385ef-42">
    <g transform="translate(8.81,40.86)" id="img-030385ef-43">
      <g class="primitive">
        <text text-anchor="middle" dy="0.35em" transform="rotate(-90,0, 2)">Density</text>
      </g>
    </g>
  </g>
</g>
<defs>
  <clipPath id="img-030385ef-15">
    <path d="M18.63,5 L127.47,5 127.47,80.72 18.63,80.72 " />
  </clipPath>
</defs>
</svg>
