<?xml version="1.0" encoding="UTF-8"?>
<svg xmlns="http://www.w3.org/2000/svg"
     xmlns:xlink="http://www.w3.org/1999/xlink"
     xmlns:gadfly="http://www.gadflyjl.org/ns"
     version="1.2"
     width="141.42mm" height="100mm" viewBox="0 0 141.42 100"
     stroke="none"
     fill="#000000"
     stroke-width="0.3"
     font-size="3.88"
>
<defs>
  <marker id="arrow" markerWidth="15" markerHeight="7" refX="5" refY="3.5" orient="auto" markerUnits="strokeWidth">
    <path d="M0,0 L15,3.5 L0,7 z" stroke="context-stroke" fill="context-stroke"/>
  </marker>
</defs>
<g class="plotroot xscalable yscalable" id="img-3a939971-1">
  <g font-size="3.88" font-family="'PT Sans','Helvetica Neue','Helvetica',sans-serif" fill="#564A55" stroke="#000000" stroke-opacity="0.000" id="img-3a939971-2">
    <g transform="translate(70.04,88.39)">
      <g class="primitive">
        <text text-anchor="middle" dy="0.6em">value</text>
      </g>
    </g>
  </g>
  <g class="guide colorkey" id="img-3a939971-3">
    <g fill="#4C404B" font-size="2.82" font-family="'PT Sans','Helvetica Neue','Helvetica',sans-serif" id="img-3a939971-4">
      <g transform="translate(131.29,43.38)" id="img-3a939971-5" class="color_1">
        <g class="primitive">
          <text dy="0.35em">1</text>
        </g>
      </g>
      <g transform="translate(131.29,47.01)" id="img-3a939971-6" class="color_2">
        <g class="primitive">
          <text dy="0.35em">2</text>
        </g>
      </g>
      <g transform="translate(131.29,50.63)" id="img-3a939971-7" class="color_3">
        <g class="primitive">
          <text dy="0.35em">3</text>
        </g>
      </g>
    </g>
    <g fill-opacity="1" id="img-3a939971-8">
      <g transform="translate(129.38,43.38)" id="img-3a939971-9" class="color_1" fill="#00BFFF" stroke="#FFFFFF">
        <path d="M-0.91,-0.91 L0.91,-0.91 0.91,0.91 -0.91,0.91  z" class="primitive"/>
      </g>
      <g transform="translate(129.38,47.01)" id="img-3a939971-10" class="color_2" fill="#D4CA3A" stroke="#FFFFFF">
        <path d="M-0.91,-0.91 L0.91,-0.91 0.91,0.91 -0.91,0.91  z" class="primitive"/>
      </g>
      <g transform="translate(129.38,50.63)" id="img-3a939971-11" class="color_3" fill="#FF6DAE" stroke="#FFFFFF">
        <path d="M-0.91,-0.91 L0.91,-0.91 0.91,0.91 -0.91,0.91  z" class="primitive"/>
      </g>
    </g>
    <g fill="#362A35" font-size="3.88" font-family="'PT Sans','Helvetica Neue','Helvetica',sans-serif" stroke="#000000" stroke-opacity="0.000" id="img-3a939971-12">
      <g transform="translate(128.47,39.56)" id="img-3a939971-13">
        <g class="primitive">
          <text dy="-0em">chain</text>
        </g>
      </g>
    </g>
  </g>
  <g clip-path="url(#img-3a939971-14)">
    <g id="img-3a939971-15">
      <g class="plotpanel" id="img-3a939971-16">
        <metadata>
          <boundingbox value="12.611666666666665mm 5.0mm 114.86302290397617mm 80.38833333333334mm"/>
          <unitbox value="0.0 0.0 1.0 1.0"/>
        </metadata>
        <g class="guide xlabels" font-size="2.82" font-family="'PT Sans Caption','Helvetica Neue','Helvetica',sans-serif" fill="#6C606B" id="img-3a939971-17">
          <g transform="translate(26.9,81.72)" id="img-3a939971-18">
            <g class="primitive">
              <text text-anchor="middle" dy="0.6em">-5</text>
            </g>
          </g>
          <g transform="translate(75.19,81.72)" id="img-3a939971-19">
            <g class="primitive">
              <text text-anchor="middle" dy="0.6em">0</text>
            </g>
          </g>
          <g transform="translate(123.47,81.72)" id="img-3a939971-20">
            <g class="primitive">
              <text text-anchor="middle" dy="0.6em">5</text>
            </g>
          </g>
        </g>
        <g clip-path="url(#img-3a939971-21)">
          <g id="img-3a939971-22">
            <g pointer-events="visible" stroke-width="0.3" fill="#000000" fill-opacity="0.000" stroke="#000000" stroke-opacity="0.000" class="guide background" id="img-3a939971-23">
              <g transform="translate(75.19,62.79)" id="img-3a939971-24">
                <path d="M-50.28,-17.93 L50.28,-17.93 50.28,17.93 -50.28,17.93  z" class="primitive"/>
              </g>
            </g>
            <g class="guide ygridlines xfixed" stroke-dasharray="0.5,0.5" stroke-width="0.2" stroke="#D0D0E0" id="img-3a939971-25">
              <g transform="translate(75.19,78.72)" id="img-3a939971-26">
                <path fill="none" d="M-50.28,0 L50.28,0 " class="primitive"/>
              </g>
              <g transform="translate(75.19,72.34)" id="img-3a939971-27">
                <path fill="none" d="M-50.28,0 L50.28,0 " class="primitive"/>
              </g>
              <g transform="translate(75.19,65.97)" id="img-3a939971-28">
                <path fill="none" d="M-50.28,0 L50.28,0 " class="primitive"/>
              </g>
              <g transform="translate(75.19,59.6)" id="img-3a939971-29">
                <path fill="none" d="M-50.28,0 L50.28,0 " class="primitive"/>
              </g>
              <g transform="translate(75.19,53.23)" id="img-3a939971-30">
                <path fill="none" d="M-50.28,0 L50.28,0 " class="primitive"/>
              </g>
              <g transform="translate(75.19,46.86)" id="img-3a939971-31">
                <path fill="none" d="M-50.28,0 L50.28,0 " class="primitive"/>
              </g>
            </g>
            <g class="guide xgridlines yfixed" stroke-dasharray="0.5,0.5" stroke-width="0.2" stroke="#D0D0E0" id="img-3a939971-32">
              <g transform="translate(26.9,62.79)" id="img-3a939971-33">
                <path fill="none" d="M0,-17.93 L0,17.93 " class="primitive"/>
              </g>
              <g transform="translate(75.19,62.79)" id="img-3a939971-34">
                <path fill="none" d="M0,-17.93 L0,17.93 " class="primitive"/>
              </g>
              <g transform="translate(123.47,62.79)" id="img-3a939971-35">
                <path fill="none" d="M0,-17.93 L0,17.93 " class="primitive"/>
              </g>
            </g>
            <g class="plotpanel" id="img-3a939971-36">
              <metadata>
                <boundingbox value="24.904999999999987mm 44.8575mm 100.56968957064285mm 35.8575mm"/>
                <unitbox value="-5.207104321127279 0.5313897826257553 10.414208642254557 -0.5627795652515106"/>
              </metadata>
              <g stroke-width="0.3" fill="#000000" fill-opacity="0.000" class="geometry" id="img-3a939971-37">
                <g transform="translate(76.73,69.09)" id="img-3a939971-38" stroke-dasharray="none" stroke="#FF6DAE" class="color_3" stroke-opacity="1">
                  <path fill="none" d="M-31.85,9.62 L-31.6,9.62 -31.35,9.62 -31.1,9.62 -30.85,9.62 -30.6,9.62 -30.35,9.62 -30.1,9.62 -29.85,9.62 -29.61,9.61 -29.36,9.61 -29.11,9.61 -28.86,9.61 -28.61,9.6 -28.36,9.6 -28.11,9.59 -27.86,9.58 -27.61,9.57 -27.36,9.56 -27.11,9.54 -26.86,9.52 -26.61,9.5 -26.36,9.47 -26.11,9.44 -25.86,9.4 -25.61,9.36 -25.36,9.31 -25.11,9.25 -24.86,9.18 -24.61,9.11 -24.36,9.02 -24.11,8.92 -23.86,8.81 -23.61,8.7 -23.36,8.57 -23.11,8.42 -22.86,8.27 -22.61,8.1 -22.36,7.92 -22.11,7.73 -21.86,7.53 -21.61,7.33 -21.36,7.11 -21.11,6.88 -20.86,6.65 -20.61,6.41 -20.36,6.17 -20.11,5.93 -19.86,5.69 -19.61,5.45 -19.36,5.21 -19.11,4.97 -18.86,4.74 -18.61,4.51 -18.36,4.28 -18.11,4.06 -17.86,3.84 -17.61,3.63 -17.36,3.42 -17.11,3.21 -16.86,3.01 -16.61,2.8 -16.36,2.59 -16.11,2.37 -15.86,2.15 -15.61,1.92 -15.36,1.67 -15.11,1.41 -14.86,1.14 -14.62,0.85 -14.37,0.54 -14.12,0.2 -13.87,-0.15 -13.62,-0.53 -13.37,-0.93 -13.12,-1.36 -12.87,-1.81 -12.62,-2.27 -12.37,-2.76 -12.12,-3.26 -11.87,-3.78 -11.62,-4.31 -11.37,-4.85 -11.12,-5.39 -10.87,-5.93 -10.62,-6.47 -10.37,-7.01 -10.12,-7.53 -9.87,-8.05 -9.62,-8.54 -9.37,-9.02 -9.12,-9.48 -8.87,-9.92 -8.62,-10.33 -8.37,-10.72 -8.12,-11.09 -7.87,-11.44 -7.62,-11.77 -7.37,-12.08 -7.12,-12.36 -6.87,-12.64 -6.62,-12.89 -6.37,-13.14 -6.12,-13.37 -5.87,-13.6 -5.62,-13.81 -5.37,-14.02 -5.12,-14.22 -4.87,-14.42 -4.62,-14.61 -4.37,-14.79 -4.12,-14.97 -3.87,-15.14 -3.62,-15.3 -3.37,-15.45 -3.12,-15.58 -2.87,-15.71 -2.62,-15.82 -2.37,-15.91 -2.12,-15.99 -1.87,-16.05 -1.62,-16.08 -1.37,-16.1 -1.12,-16.09 -0.87,-16.07 -0.62,-16.02 -0.37,-15.95 -0.12,-15.86 0.12,-15.75 0.37,-15.62 0.62,-15.47 0.87,-15.3 1.12,-15.12 1.37,-14.93 1.62,-14.72 1.87,-14.51 2.12,-14.28 2.37,-14.04 2.62,-13.8 2.87,-13.55 3.12,-13.29 3.37,-13.03 3.62,-12.77 3.87,-12.49 4.12,-12.21 4.37,-11.93 4.62,-11.64 4.87,-11.35 5.12,-11.05 5.37,-10.74 5.62,-10.43 5.87,-10.12 6.12,-9.81 6.37,-9.49 6.62,-9.16 6.87,-8.84 7.12,-8.51 7.37,-8.19 7.62,-7.86 7.87,-7.53 8.12,-7.2 8.37,-6.87 8.62,-6.54 8.87,-6.21 9.12,-5.88 9.37,-5.54 9.62,-5.2 9.87,-4.86 10.12,-4.51 10.37,-4.15 10.62,-3.79 10.87,-3.42 11.12,-3.04 11.37,-2.65 11.62,-2.26 11.87,-1.85 12.12,-1.44 12.37,-1.03 12.62,-0.61 12.87,-0.19 13.12,0.23 13.37,0.65 13.62,1.07 13.87,1.48 14.12,1.88 14.37,2.28 14.62,2.66 14.86,3.03 15.11,3.39 15.36,3.73 15.61,4.06 15.86,4.37 16.11,4.66 16.36,4.93 16.61,5.19 16.86,5.44 17.11,5.67 17.36,5.88 17.61,6.09 17.86,6.28 18.11,6.46 18.36,6.63 18.61,6.79 18.86,6.95 19.11,7.1 19.36,7.24 19.61,7.38 19.86,7.52 20.11,7.65 20.36,7.78 20.61,7.9 20.86,8.02 21.11,8.14 21.36,8.25 21.61,8.37 21.86,8.47 22.11,8.57 22.36,8.67 22.61,8.76 22.86,8.85 23.11,8.93 23.36,9.01 23.61,9.08 23.86,9.15 24.11,9.21 24.36,9.26 24.61,9.31 24.86,9.35 25.11,9.39 25.36,9.43 25.61,9.46 25.86,9.48 26.11,9.51 26.36,9.53 26.61,9.54 26.86,9.56 27.11,9.57 27.36,9.58 27.61,9.59 27.86,9.59 28.11,9.6 28.36,9.6 28.61,9.61 28.86,9.61 29.11,9.61 29.36,9.61 29.61,9.62 29.85,9.62 30.1,9.62 30.35,9.62 30.6,9.62 30.85,9.62 31.1,9.62 31.35,9.62 31.6,9.62 31.85,9.62 " class="primitive"/>
                </g>
                <g transform="translate(74.81,70.44)" id="img-3a939971-39" stroke-dasharray="none" stroke="#00BFFF" class="color_1" stroke-opacity="1">
                  <path fill="none" d="M-37.01,8.28 L-36.72,8.28 -36.43,8.28 -36.14,8.28 -35.85,8.28 -35.56,8.28 -35.27,8.28 -34.98,8.28 -34.69,8.28 -34.4,8.28 -34.11,8.27 -33.82,8.27 -33.53,8.27 -33.24,8.27 -32.95,8.26 -32.66,8.26 -32.37,8.25 -32.08,8.25 -31.79,8.24 -31.5,8.23 -31.21,8.21 -30.92,8.2 -30.62,8.18 -30.33,8.16 -30.04,8.14 -29.75,8.11 -29.46,8.08 -29.17,8.04 -28.88,8 -28.59,7.95 -28.3,7.9 -28.01,7.85 -27.72,7.78 -27.43,7.72 -27.14,7.64 -26.85,7.56 -26.56,7.48 -26.27,7.39 -25.98,7.29 -25.69,7.2 -25.4,7.09 -25.11,6.99 -24.82,6.88 -24.53,6.76 -24.24,6.65 -23.95,6.54 -23.66,6.42 -23.37,6.3 -23.08,6.18 -22.79,6.06 -22.5,5.94 -22.21,5.82 -21.92,5.69 -21.63,5.57 -21.34,5.44 -21.05,5.31 -20.76,5.17 -20.46,5.03 -20.17,4.88 -19.88,4.73 -19.59,4.57 -19.3,4.4 -19.01,4.22 -18.72,4.03 -18.43,3.83 -18.14,3.62 -17.85,3.39 -17.56,3.15 -17.27,2.89 -16.98,2.62 -16.69,2.33 -16.4,2.02 -16.11,1.7 -15.82,1.36 -15.53,1 -15.24,0.62 -14.95,0.22 -14.66,-0.19 -14.37,-0.63 -14.08,-1.08 -13.79,-1.54 -13.5,-2.02 -13.21,-2.52 -12.92,-3.03 -12.63,-3.54 -12.34,-4.07 -12.05,-4.6 -11.76,-5.14 -11.47,-5.68 -11.18,-6.21 -10.89,-6.75 -10.6,-7.27 -10.31,-7.79 -10.01,-8.31 -9.72,-8.8 -9.43,-9.29 -9.14,-9.76 -8.85,-10.21 -8.56,-10.65 -8.27,-11.07 -7.98,-11.46 -7.69,-11.84 -7.4,-12.19 -7.11,-12.53 -6.82,-12.84 -6.53,-13.13 -6.24,-13.4 -5.95,-13.65 -5.66,-13.88 -5.37,-14.09 -5.08,-14.29 -4.79,-14.46 -4.5,-14.62 -4.21,-14.76 -3.92,-14.88 -3.63,-14.99 -3.34,-15.09 -3.05,-15.17 -2.76,-15.24 -2.47,-15.3 -2.18,-15.34 -1.89,-15.36 -1.6,-15.38 -1.31,-15.37 -1.02,-15.35 -0.73,-15.3 -0.44,-15.24 -0.15,-15.16 0.15,-15.05 0.44,-14.92 0.73,-14.76 1.02,-14.57 1.31,-14.36 1.6,-14.13 1.89,-13.87 2.18,-13.58 2.47,-13.28 2.76,-12.95 3.05,-12.61 3.34,-12.26 3.63,-11.9 3.92,-11.53 4.21,-11.16 4.5,-10.79 4.79,-10.43 5.08,-10.07 5.37,-9.73 5.66,-9.39 5.95,-9.07 6.24,-8.77 6.53,-8.47 6.82,-8.19 7.11,-7.93 7.4,-7.68 7.69,-7.43 7.98,-7.2 8.27,-6.97 8.56,-6.75 8.85,-6.53 9.14,-6.31 9.43,-6.08 9.72,-5.86 10.01,-5.63 10.31,-5.4 10.6,-5.16 10.89,-4.91 11.18,-4.66 11.47,-4.4 11.76,-4.13 12.05,-3.86 12.34,-3.59 12.63,-3.31 12.92,-3.03 13.21,-2.74 13.5,-2.45 13.79,-2.16 14.08,-1.87 14.37,-1.58 14.66,-1.29 14.95,-1 15.24,-0.71 15.53,-0.42 15.82,-0.13 16.11,0.16 16.4,0.44 16.69,0.73 16.98,1.01 17.27,1.29 17.56,1.57 17.85,1.84 18.14,2.12 18.43,2.39 18.72,2.65 19.01,2.91 19.3,3.17 19.59,3.43 19.88,3.67 20.17,3.92 20.46,4.16 20.76,4.39 21.05,4.62 21.34,4.84 21.63,5.05 21.92,5.26 22.21,5.46 22.5,5.66 22.79,5.85 23.08,6.03 23.37,6.2 23.66,6.36 23.95,6.52 24.24,6.67 24.53,6.81 24.82,6.94 25.11,7.07 25.4,7.18 25.69,7.29 25.98,7.4 26.27,7.49 26.56,7.58 26.85,7.66 27.14,7.73 27.43,7.8 27.72,7.86 28.01,7.92 28.3,7.97 28.59,8.01 28.88,8.05 29.17,8.08 29.46,8.11 29.75,8.14 30.04,8.16 30.33,8.18 30.62,8.2 30.92,8.21 31.21,8.23 31.5,8.24 31.79,8.24 32.08,8.25 32.37,8.26 32.66,8.26 32.95,8.27 33.24,8.27 33.53,8.27 33.82,8.27 34.11,8.27 34.4,8.28 34.69,8.28 34.98,8.28 35.27,8.28 35.56,8.28 35.85,8.28 36.14,8.28 36.43,8.28 36.72,8.28 37.01,8.28 " class="primitive"/>
                </g>
                <g transform="translate(76.09,70.99)" id="img-3a939971-40" stroke-dasharray="none" stroke="#D4CA3A" class="color_2" stroke-opacity="1">
                  <path fill="none" d="M-39.67,7.72 L-39.36,7.72 -39.05,7.72 -38.74,7.72 -38.43,7.72 -38.12,7.72 -37.8,7.72 -37.49,7.72 -37.18,7.72 -36.87,7.72 -36.56,7.72 -36.25,7.72 -35.94,7.71 -35.63,7.71 -35.31,7.71 -35,7.7 -34.69,7.69 -34.38,7.69 -34.07,7.68 -33.76,7.67 -33.45,7.65 -33.14,7.64 -32.83,7.62 -32.51,7.6 -32.2,7.57 -31.89,7.55 -31.58,7.52 -31.27,7.49 -30.96,7.45 -30.65,7.42 -30.34,7.38 -30.03,7.33 -29.71,7.29 -29.4,7.25 -29.09,7.21 -28.78,7.16 -28.47,7.12 -28.16,7.08 -27.85,7.04 -27.54,7 -27.23,6.96 -26.91,6.93 -26.6,6.89 -26.29,6.86 -25.98,6.83 -25.67,6.8 -25.36,6.76 -25.05,6.72 -24.74,6.68 -24.42,6.63 -24.11,6.57 -23.8,6.5 -23.49,6.42 -23.18,6.32 -22.87,6.21 -22.56,6.08 -22.25,5.93 -21.94,5.76 -21.62,5.57 -21.31,5.36 -21,5.13 -20.69,4.88 -20.38,4.61 -20.07,4.32 -19.76,4.02 -19.45,3.71 -19.14,3.38 -18.82,3.04 -18.51,2.7 -18.2,2.35 -17.89,2.01 -17.58,1.66 -17.27,1.31 -16.96,0.98 -16.65,0.64 -16.34,0.32 -16.02,0 -15.71,-0.3 -15.4,-0.6 -15.09,-0.88 -14.78,-1.16 -14.47,-1.43 -14.16,-1.69 -13.85,-1.95 -13.53,-2.21 -13.22,-2.47 -12.91,-2.73 -12.6,-3 -12.29,-3.28 -11.98,-3.57 -11.67,-3.86 -11.36,-4.18 -11.05,-4.5 -10.73,-4.84 -10.42,-5.2 -10.11,-5.56 -9.8,-5.95 -9.49,-6.34 -9.18,-6.74 -8.87,-7.16 -8.56,-7.58 -8.25,-8 -7.93,-8.43 -7.62,-8.86 -7.31,-9.29 -7,-9.71 -6.69,-10.13 -6.38,-10.55 -6.07,-10.97 -5.76,-11.38 -5.45,-11.78 -5.13,-12.18 -4.82,-12.56 -4.51,-12.95 -4.2,-13.32 -3.89,-13.68 -3.58,-14.04 -3.27,-14.38 -2.96,-14.71 -2.64,-15.03 -2.33,-15.33 -2.02,-15.62 -1.71,-15.89 -1.4,-16.14 -1.09,-16.37 -0.78,-16.58 -0.47,-16.76 -0.16,-16.93 0.16,-17.07 0.47,-17.18 0.78,-17.26 1.09,-17.32 1.4,-17.35 1.71,-17.35 2.02,-17.32 2.33,-17.25 2.64,-17.16 2.96,-17.03 3.27,-16.87 3.58,-16.68 3.89,-16.46 4.2,-16.2 4.51,-15.91 4.82,-15.59 5.13,-15.23 5.45,-14.85 5.76,-14.44 6.07,-14.01 6.38,-13.55 6.69,-13.07 7,-12.57 7.31,-12.05 7.62,-11.52 7.93,-10.98 8.25,-10.43 8.56,-9.88 8.87,-9.34 9.18,-8.79 9.49,-8.25 9.8,-7.73 10.11,-7.21 10.42,-6.72 10.73,-6.23 11.05,-5.77 11.36,-5.33 11.67,-4.9 11.98,-4.5 12.29,-4.11 12.6,-3.74 12.91,-3.38 13.22,-3.03 13.53,-2.69 13.85,-2.36 14.16,-2.03 14.47,-1.7 14.78,-1.36 15.09,-1.02 15.4,-0.67 15.71,-0.32 16.02,0.05 16.34,0.42 16.65,0.81 16.96,1.2 17.27,1.59 17.58,1.99 17.89,2.38 18.2,2.78 18.51,3.16 18.82,3.54 19.14,3.9 19.45,4.25 19.76,4.58 20.07,4.88 20.38,5.17 20.69,5.43 21,5.67 21.31,5.88 21.62,6.06 21.94,6.22 22.25,6.36 22.56,6.48 22.87,6.57 23.18,6.65 23.49,6.72 23.8,6.76 24.11,6.8 24.42,6.83 24.74,6.85 25.05,6.87 25.36,6.89 25.67,6.9 25.98,6.92 26.29,6.93 26.6,6.95 26.91,6.97 27.23,7 27.54,7.03 27.85,7.06 28.16,7.1 28.47,7.13 28.78,7.17 29.09,7.21 29.4,7.26 29.71,7.3 30.03,7.34 30.34,7.38 30.65,7.42 30.96,7.45 31.27,7.49 31.58,7.52 31.89,7.55 32.2,7.57 32.51,7.6 32.83,7.62 33.14,7.64 33.45,7.65 33.76,7.67 34.07,7.68 34.38,7.69 34.69,7.69 35,7.7 35.31,7.71 35.63,7.71 35.94,7.71 36.25,7.72 36.56,7.72 36.87,7.72 37.18,7.72 37.49,7.72 37.8,7.72 38.12,7.72 38.43,7.72 38.74,7.72 39.05,7.72 39.36,7.72 39.67,7.72 " class="primitive"/>
                </g>
              </g>
            </g>
          </g>
        </g>
        <g class="guide ylabels" font-size="2.82" font-family="'PT Sans Caption','Helvetica Neue','Helvetica',sans-serif" fill="#6C606B" id="img-3a939971-41">
          <g transform="translate(23.9,78.72)" id="img-3a939971-42">
            <g class="primitive">
              <text text-anchor="end" dy="0.35em">0.0</text>
            </g>
          </g>
          <g transform="translate(23.9,72.34)" id="img-3a939971-43">
            <g class="primitive">
              <text text-anchor="end" dy="0.35em">0.1</text>
            </g>
          </g>
          <g transform="translate(23.9,65.97)" id="img-3a939971-44">
            <g class="primitive">
              <text text-anchor="end" dy="0.35em">0.2</text>
            </g>
          </g>
          <g transform="translate(23.9,59.6)" id="img-3a939971-45">
            <g class="primitive">
              <text text-anchor="end" dy="0.35em">0.3</text>
            </g>
          </g>
          <g transform="translate(23.9,53.23)" id="img-3a939971-46">
            <g class="primitive">
              <text text-anchor="end" dy="0.35em">0.4</text>
            </g>
          </g>
          <g transform="translate(23.9,46.86)" id="img-3a939971-47">
            <g class="primitive">
              <text text-anchor="end" dy="0.35em">0.5</text>
            </g>
          </g>
        </g>
        <g font-size="3.88" font-family="'PT Sans','Helvetica Neue','Helvetica',sans-serif" fill="#564A55" stroke="#000000" stroke-opacity="0.000" id="img-3a939971-48">
          <g transform="translate(16.88,62.79)" id="img-3a939971-49">
            <g class="primitive">
              <text text-anchor="end" dy="0.35em">B</text>
            </g>
          </g>
        </g>
        <g clip-path="url(#img-3a939971-50)">
          <g id="img-3a939971-51">
            <g pointer-events="visible" stroke-width="0.3" fill="#000000" fill-opacity="0.000" stroke="#000000" stroke-opacity="0.000" class="guide background" id="img-3a939971-52">
              <g transform="translate(75.19,23.93)" id="img-3a939971-53">
                <path d="M-50.28,-16.93 L50.28,-16.93 50.28,16.93 -50.28,16.93  z" class="primitive"/>
              </g>
            </g>
            <g class="guide ygridlines xfixed" stroke-dasharray="0.5,0.5" stroke-width="0.2" stroke="#D0D0E0" id="img-3a939971-54">
              <g transform="translate(75.19,38.86)" id="img-3a939971-55">
                <path fill="none" d="M-50.28,0 L50.28,0 " class="primitive"/>
              </g>
              <g transform="translate(75.19,32.89)" id="img-3a939971-56">
                <path fill="none" d="M-50.28,0 L50.28,0 " class="primitive"/>
              </g>
              <g transform="translate(75.19,26.91)" id="img-3a939971-57">
                <path fill="none" d="M-50.28,0 L50.28,0 " class="primitive"/>
              </g>
              <g transform="translate(75.19,20.94)" id="img-3a939971-58">
                <path fill="none" d="M-50.28,0 L50.28,0 " class="primitive"/>
              </g>
              <g transform="translate(75.19,14.97)" id="img-3a939971-59">
                <path fill="none" d="M-50.28,0 L50.28,0 " class="primitive"/>
              </g>
              <g transform="translate(75.19,9)" id="img-3a939971-60">
                <path fill="none" d="M-50.28,0 L50.28,0 " class="primitive"/>
              </g>
            </g>
            <g class="guide xgridlines yfixed" stroke-dasharray="0.5,0.5" stroke-width="0.2" stroke="#D0D0E0" id="img-3a939971-61">
              <g transform="translate(26.9,23.93)" id="img-3a939971-62">
                <path fill="none" d="M0,-16.93 L0,16.93 " class="primitive"/>
              </g>
              <g transform="translate(75.19,23.93)" id="img-3a939971-63">
                <path fill="none" d="M0,-16.93 L0,16.93 " class="primitive"/>
              </g>
              <g transform="translate(123.47,23.93)" id="img-3a939971-64">
                <path fill="none" d="M0,-16.93 L0,16.93 " class="primitive"/>
              </g>
            </g>
            <g class="plotpanel" id="img-3a939971-65">
              <metadata>
                <boundingbox value="24.904999999999987mm 7.0mm 100.56968957064285mm 33.8575mm"/>
                <unitbox value="-5.207104321127279 0.5334924223394457 10.414208642254557 -0.5669848446788914"/>
              </metadata>
              <g stroke-width="0.3" fill="#000000" fill-opacity="0.000" class="geometry" id="img-3a939971-66">
                <g transform="translate(76.93,29.67)" id="img-3a939971-67" stroke-dasharray="none" stroke="#FF6DAE" class="color_3" stroke-opacity="1">
                  <path fill="none" d="M-31.27,9.18 L-31.02,9.18 -30.78,9.18 -30.53,9.18 -30.29,9.18 -30.04,9.18 -29.8,9.18 -29.55,9.18 -29.31,9.18 -29.06,9.18 -28.82,9.18 -28.57,9.17 -28.33,9.17 -28.08,9.16 -27.84,9.16 -27.59,9.15 -27.35,9.14 -27.1,9.13 -26.86,9.12 -26.61,9.1 -26.36,9.08 -26.12,9.06 -25.87,9.03 -25.63,9 -25.38,8.96 -25.14,8.92 -24.89,8.86 -24.65,8.8 -24.4,8.73 -24.16,8.65 -23.91,8.56 -23.67,8.45 -23.42,8.33 -23.18,8.2 -22.93,8.05 -22.69,7.89 -22.44,7.71 -22.2,7.51 -21.95,7.3 -21.7,7.06 -21.46,6.81 -21.21,6.54 -20.97,6.26 -20.72,5.95 -20.48,5.63 -20.23,5.3 -19.99,4.95 -19.74,4.58 -19.5,4.21 -19.25,3.82 -19.01,3.43 -18.76,3.03 -18.52,2.63 -18.27,2.22 -18.03,1.82 -17.78,1.42 -17.54,1.02 -17.29,0.62 -17.05,0.23 -16.8,-0.14 -16.55,-0.51 -16.31,-0.87 -16.06,-1.21 -15.82,-1.54 -15.57,-1.85 -15.33,-2.15 -15.08,-2.43 -14.84,-2.7 -14.59,-2.96 -14.35,-3.19 -14.1,-3.42 -13.86,-3.63 -13.61,-3.83 -13.37,-4.03 -13.12,-4.21 -12.88,-4.38 -12.63,-4.56 -12.39,-4.73 -12.14,-4.89 -11.89,-5.06 -11.65,-5.24 -11.4,-5.42 -11.16,-5.61 -10.91,-5.8 -10.67,-6.01 -10.42,-6.23 -10.18,-6.46 -9.93,-6.7 -9.69,-6.96 -9.44,-7.23 -9.2,-7.52 -8.95,-7.81 -8.71,-8.12 -8.46,-8.43 -8.22,-8.75 -7.97,-9.08 -7.73,-9.4 -7.48,-9.73 -7.23,-10.06 -6.99,-10.38 -6.74,-10.7 -6.5,-11 -6.25,-11.29 -6.01,-11.57 -5.76,-11.84 -5.52,-12.09 -5.27,-12.32 -5.03,-12.52 -4.78,-12.71 -4.54,-12.88 -4.29,-13.03 -4.05,-13.16 -3.8,-13.27 -3.56,-13.36 -3.31,-13.43 -3.07,-13.48 -2.82,-13.52 -2.58,-13.53 -2.33,-13.54 -2.08,-13.53 -1.84,-13.5 -1.59,-13.46 -1.35,-13.41 -1.1,-13.35 -0.86,-13.28 -0.61,-13.19 -0.37,-13.1 -0.12,-12.99 0.12,-12.87 0.37,-12.74 0.61,-12.6 0.86,-12.45 1.1,-12.29 1.35,-12.12 1.59,-11.93 1.84,-11.74 2.08,-11.54 2.33,-11.32 2.58,-11.1 2.82,-10.87 3.07,-10.63 3.31,-10.38 3.56,-10.13 3.8,-9.87 4.05,-9.6 4.29,-9.33 4.54,-9.06 4.78,-8.78 5.03,-8.5 5.27,-8.22 5.52,-7.94 5.76,-7.66 6.01,-7.38 6.25,-7.1 6.5,-6.82 6.74,-6.55 6.99,-6.28 7.23,-6.01 7.48,-5.74 7.73,-5.49 7.97,-5.23 8.22,-4.98 8.46,-4.74 8.71,-4.5 8.95,-4.26 9.2,-4.03 9.44,-3.81 9.69,-3.59 9.93,-3.37 10.18,-3.15 10.42,-2.93 10.67,-2.71 10.91,-2.5 11.16,-2.27 11.4,-2.05 11.65,-1.82 11.89,-1.58 12.14,-1.34 12.39,-1.1 12.63,-0.84 12.88,-0.58 13.12,-0.31 13.37,-0.03 13.61,0.25 13.86,0.55 14.1,0.84 14.35,1.15 14.59,1.45 14.84,1.76 15.08,2.07 15.33,2.39 15.57,2.7 15.82,3.01 16.06,3.32 16.31,3.63 16.55,3.93 16.8,4.23 17.05,4.52 17.29,4.8 17.54,5.07 17.78,5.34 18.03,5.6 18.27,5.85 18.52,6.09 18.76,6.31 19.01,6.53 19.25,6.74 19.5,6.94 19.74,7.13 19.99,7.31 20.23,7.48 20.48,7.63 20.72,7.78 20.97,7.92 21.21,8.05 21.46,8.17 21.7,8.28 21.95,8.38 22.2,8.47 22.44,8.56 22.69,8.63 22.93,8.7 23.18,8.76 23.42,8.82 23.67,8.87 23.91,8.91 24.16,8.95 24.4,8.99 24.65,9.02 24.89,9.04 25.14,9.07 25.38,9.09 25.63,9.1 25.87,9.12 26.12,9.13 26.36,9.14 26.61,9.15 26.86,9.15 27.1,9.16 27.35,9.17 27.59,9.17 27.84,9.17 28.08,9.17 28.33,9.18 28.57,9.18 28.82,9.18 29.06,9.18 29.31,9.18 29.55,9.18 29.8,9.18 30.04,9.18 30.29,9.18 30.53,9.18 30.78,9.18 31.02,9.18 31.27,9.18 " class="primitive"/>
                </g>
                <g transform="translate(71.35,32.01)" id="img-3a939971-68" stroke-dasharray="none" stroke="#00BFFF" class="color_1" stroke-opacity="1">
                  <path fill="none" d="M-41.92,6.85 L-41.59,6.85 -41.26,6.85 -40.93,6.85 -40.61,6.85 -40.28,6.85 -39.95,6.85 -39.62,6.85 -39.29,6.85 -38.96,6.85 -38.63,6.84 -38.3,6.84 -37.97,6.84 -37.65,6.83 -37.32,6.83 -36.99,6.82 -36.66,6.81 -36.33,6.8 -36,6.78 -35.67,6.77 -35.34,6.75 -35.02,6.73 -34.69,6.7 -34.36,6.67 -34.03,6.64 -33.7,6.61 -33.37,6.57 -33.04,6.53 -32.71,6.49 -32.39,6.45 -32.06,6.4 -31.73,6.36 -31.4,6.32 -31.07,6.28 -30.74,6.24 -30.41,6.21 -30.08,6.18 -29.76,6.16 -29.43,6.15 -29.1,6.14 -28.77,6.13 -28.44,6.14 -28.11,6.15 -27.78,6.17 -27.45,6.19 -27.12,6.21 -26.8,6.24 -26.47,6.26 -26.14,6.29 -25.81,6.31 -25.48,6.33 -25.15,6.35 -24.82,6.36 -24.49,6.36 -24.17,6.35 -23.84,6.34 -23.51,6.31 -23.18,6.28 -22.85,6.23 -22.52,6.18 -22.19,6.12 -21.86,6.05 -21.54,5.97 -21.21,5.88 -20.88,5.79 -20.55,5.69 -20.22,5.59 -19.89,5.49 -19.56,5.38 -19.23,5.28 -18.91,5.17 -18.58,5.05 -18.25,4.94 -17.92,4.83 -17.59,4.71 -17.26,4.6 -16.93,4.48 -16.6,4.35 -16.27,4.23 -15.95,4.1 -15.62,3.96 -15.29,3.82 -14.96,3.68 -14.63,3.53 -14.3,3.38 -13.97,3.21 -13.64,3.04 -13.32,2.87 -12.99,2.67 -12.66,2.47 -12.33,2.25 -12,2.02 -11.67,1.76 -11.34,1.49 -11.01,1.19 -10.69,0.86 -10.36,0.51 -10.03,0.13 -9.7,-0.28 -9.37,-0.72 -9.04,-1.17 -8.71,-1.65 -8.38,-2.15 -8.06,-2.65 -7.73,-3.17 -7.4,-3.69 -7.07,-4.2 -6.74,-4.71 -6.41,-5.2 -6.08,-5.68 -5.75,-6.14 -5.42,-6.58 -5.1,-7 -4.77,-7.4 -4.44,-7.78 -4.11,-8.14 -3.78,-8.49 -3.45,-8.82 -3.12,-9.14 -2.79,-9.46 -2.47,-9.77 -2.14,-10.08 -1.81,-10.39 -1.48,-10.7 -1.15,-11.02 -0.82,-11.34 -0.49,-11.67 -0.16,-12.01 0.16,-12.35 0.49,-12.69 0.82,-13.03 1.15,-13.38 1.48,-13.72 1.81,-14.06 2.14,-14.4 2.47,-14.72 2.79,-15.04 3.12,-15.34 3.45,-15.62 3.78,-15.89 4.11,-16.14 4.44,-16.36 4.77,-16.56 5.1,-16.74 5.42,-16.89 5.75,-17.01 6.08,-17.1 6.41,-17.16 6.74,-17.19 7.07,-17.19 7.4,-17.16 7.73,-17.1 8.06,-17 8.38,-16.88 8.71,-16.73 9.04,-16.56 9.37,-16.36 9.7,-16.13 10.03,-15.88 10.36,-15.61 10.69,-15.32 11.01,-15 11.34,-14.66 11.67,-14.3 12,-13.91 12.33,-13.49 12.66,-13.04 12.99,-12.56 13.32,-12.05 13.64,-11.5 13.97,-10.91 14.3,-10.29 14.63,-9.63 14.96,-8.93 15.29,-8.2 15.62,-7.45 15.95,-6.68 16.27,-5.89 16.6,-5.09 16.93,-4.28 17.26,-3.49 17.59,-2.7 17.92,-1.94 18.25,-1.2 18.58,-0.5 18.91,0.17 19.23,0.8 19.56,1.38 19.89,1.91 20.22,2.4 20.55,2.84 20.88,3.23 21.21,3.57 21.54,3.87 21.86,4.13 22.19,4.35 22.52,4.54 22.85,4.69 23.18,4.82 23.51,4.92 23.84,5 24.17,5.06 24.49,5.1 24.82,5.13 25.15,5.16 25.48,5.18 25.81,5.19 26.14,5.2 26.47,5.21 26.8,5.23 27.12,5.24 27.45,5.27 27.78,5.3 28.11,5.34 28.44,5.38 28.77,5.43 29.1,5.49 29.43,5.56 29.76,5.63 30.08,5.71 30.41,5.79 30.74,5.87 31.07,5.95 31.4,6.04 31.73,6.12 32.06,6.2 32.39,6.27 32.71,6.35 33.04,6.41 33.37,6.47 33.7,6.53 34.03,6.58 34.36,6.62 34.69,6.66 35.02,6.7 35.34,6.73 35.67,6.75 36,6.77 36.33,6.79 36.66,6.8 36.99,6.81 37.32,6.82 37.65,6.83 37.97,6.83 38.3,6.84 38.63,6.84 38.96,6.84 39.29,6.85 39.62,6.85 39.95,6.85 40.28,6.85 40.61,6.85 40.93,6.85 41.26,6.85 41.59,6.85 41.92,6.85 " class="primitive"/>
                </g>
                <g transform="translate(75.94,32.27)" id="img-3a939971-69" stroke-dasharray="none" stroke="#D4CA3A" class="color_2" stroke-opacity="1">
                  <path fill="none" d="M-43.6,6.59 L-43.26,6.59 -42.92,6.59 -42.57,6.59 -42.23,6.59 -41.89,6.59 -41.55,6.58 -41.21,6.58 -40.86,6.58 -40.52,6.58 -40.18,6.58 -39.84,6.57 -39.5,6.57 -39.15,6.56 -38.81,6.56 -38.47,6.55 -38.13,6.54 -37.79,6.52 -37.44,6.51 -37.1,6.49 -36.76,6.47 -36.42,6.44 -36.08,6.41 -35.73,6.38 -35.39,6.34 -35.05,6.3 -34.71,6.26 -34.37,6.21 -34.02,6.17 -33.68,6.12 -33.34,6.08 -33,6.03 -32.66,5.99 -32.31,5.96 -31.97,5.92 -31.63,5.9 -31.29,5.88 -30.95,5.86 -30.61,5.85 -30.26,5.85 -29.92,5.86 -29.58,5.87 -29.24,5.88 -28.9,5.89 -28.55,5.91 -28.21,5.93 -27.87,5.94 -27.53,5.95 -27.19,5.95 -26.84,5.94 -26.5,5.93 -26.16,5.9 -25.82,5.87 -25.48,5.82 -25.13,5.76 -24.79,5.69 -24.45,5.61 -24.11,5.51 -23.77,5.4 -23.42,5.28 -23.08,5.15 -22.74,5.01 -22.4,4.85 -22.06,4.69 -21.71,4.51 -21.37,4.32 -21.03,4.13 -20.69,3.92 -20.35,3.71 -20,3.49 -19.66,3.25 -19.32,3.02 -18.98,2.78 -18.64,2.53 -18.29,2.28 -17.95,2.03 -17.61,1.78 -17.27,1.53 -16.93,1.28 -16.58,1.04 -16.24,0.79 -15.9,0.53 -15.56,0.28 -15.22,0.01 -14.88,-0.26 -14.53,-0.55 -14.19,-0.86 -13.85,-1.19 -13.51,-1.54 -13.17,-1.92 -12.82,-2.34 -12.48,-2.78 -12.14,-3.25 -11.8,-3.75 -11.46,-4.27 -11.11,-4.81 -10.77,-5.37 -10.43,-5.95 -10.09,-6.52 -9.75,-7.09 -9.4,-7.66 -9.06,-8.21 -8.72,-8.74 -8.38,-9.25 -8.04,-9.73 -7.69,-10.18 -7.35,-10.6 -7.01,-10.99 -6.67,-11.35 -6.33,-11.69 -5.98,-12.01 -5.64,-12.32 -5.3,-12.61 -4.96,-12.89 -4.62,-13.17 -4.27,-13.46 -3.93,-13.75 -3.59,-14.05 -3.25,-14.36 -2.91,-14.69 -2.56,-15.02 -2.22,-15.37 -1.88,-15.73 -1.54,-16.09 -1.2,-16.44 -0.85,-16.79 -0.51,-17.13 -0.17,-17.44 0.17,-17.72 0.51,-17.96 0.85,-18.15 1.2,-18.29 1.54,-18.37 1.88,-18.39 2.22,-18.33 2.56,-18.2 2.91,-17.99 3.25,-17.7 3.59,-17.34 3.93,-16.9 4.27,-16.4 4.62,-15.84 4.96,-15.22 5.3,-14.56 5.64,-13.86 5.98,-13.13 6.33,-12.38 6.67,-11.63 7.01,-10.88 7.35,-10.13 7.69,-9.4 8.04,-8.7 8.38,-8.02 8.72,-7.37 9.06,-6.75 9.4,-6.17 9.75,-5.63 10.09,-5.12 10.43,-4.65 10.77,-4.2 11.11,-3.79 11.46,-3.41 11.8,-3.04 12.14,-2.71 12.48,-2.39 12.82,-2.08 13.17,-1.79 13.51,-1.52 13.85,-1.24 14.19,-0.98 14.53,-0.72 14.88,-0.46 15.22,-0.19 15.56,0.07 15.9,0.34 16.24,0.6 16.58,0.87 16.93,1.14 17.27,1.41 17.61,1.67 17.95,1.93 18.29,2.18 18.64,2.43 18.98,2.66 19.32,2.87 19.66,3.08 20,3.26 20.35,3.44 20.69,3.6 21.03,3.75 21.37,3.88 21.71,4.01 22.06,4.13 22.4,4.24 22.74,4.34 23.08,4.44 23.42,4.54 23.77,4.63 24.11,4.72 24.45,4.81 24.79,4.89 25.13,4.97 25.48,5.05 25.82,5.12 26.16,5.19 26.5,5.25 26.84,5.31 27.19,5.37 27.53,5.41 27.87,5.46 28.21,5.49 28.55,5.53 28.9,5.56 29.24,5.59 29.58,5.62 29.92,5.65 30.26,5.67 30.61,5.71 30.95,5.74 31.29,5.78 31.63,5.82 31.97,5.86 32.31,5.91 32.66,5.95 33,6 33.34,6.06 33.68,6.11 34.02,6.16 34.37,6.21 34.71,6.25 35.05,6.3 35.39,6.34 35.73,6.37 36.08,6.41 36.42,6.44 36.76,6.46 37.1,6.49 37.44,6.51 37.79,6.52 38.13,6.54 38.47,6.55 38.81,6.56 39.15,6.56 39.5,6.57 39.84,6.57 40.18,6.58 40.52,6.58 40.86,6.58 41.21,6.58 41.55,6.58 41.89,6.59 42.23,6.59 42.57,6.59 42.92,6.59 43.26,6.59 43.6,6.59 " class="primitive"/>
                </g>
              </g>
            </g>
          </g>
        </g>
        <g class="guide ylabels" font-size="2.82" font-family="'PT Sans Caption','Helvetica Neue','Helvetica',sans-serif" fill="#6C606B" id="img-3a939971-70">
          <g transform="translate(23.9,38.86)" id="img-3a939971-71">
            <g class="primitive">
              <text text-anchor="end" dy="0.35em">0.0</text>
            </g>
          </g>
          <g transform="translate(23.9,32.89)" id="img-3a939971-72">
            <g class="primitive">
              <text text-anchor="end" dy="0.35em">0.1</text>
            </g>
          </g>
          <g transform="translate(23.9,26.91)" id="img-3a939971-73">
            <g class="primitive">
              <text text-anchor="end" dy="0.35em">0.2</text>
            </g>
          </g>
          <g transform="translate(23.9,20.94)" id="img-3a939971-74">
            <g class="primitive">
              <text text-anchor="end" dy="0.35em">0.3</text>
            </g>
          </g>
          <g transform="translate(23.9,14.97)" id="img-3a939971-75">
            <g class="primitive">
              <text text-anchor="end" dy="0.35em">0.4</text>
            </g>
          </g>
          <g transform="translate(23.9,9)" id="img-3a939971-76">
            <g class="primitive">
              <text text-anchor="end" dy="0.35em">0.5</text>
            </g>
          </g>
        </g>
        <g font-size="3.88" font-family="'PT Sans','Helvetica Neue','Helvetica',sans-serif" fill="#564A55" stroke="#000000" stroke-opacity="0.000" id="img-3a939971-77">
          <g transform="translate(16.88,23.93)" id="img-3a939971-78">
            <g class="primitive">
              <text text-anchor="end" dy="0.35em">A</text>
            </g>
          </g>
        </g>
      </g>
    </g>
  </g>
  <g font-size="3.88" font-family="'PT Sans','Helvetica Neue','Helvetica',sans-serif" fill="#564A55" stroke="#000000" stroke-opacity="0.000" id="img-3a939971-79">
    <g transform="translate(8.81,43.19)" id="img-3a939971-80">
      <g class="primitive">
        <text text-anchor="middle" dy="0.35em" transform="rotate(-90,0, 2)">Density</text>
      </g>
    </g>
  </g>
</g>
<defs>
  <clipPath id="img-3a939971-14">
    <path d="M12.61,5 L127.47,5 127.47,85.39 12.61,85.39 " />
  </clipPath>
  <clipPath id="img-3a939971-21">
    <path d="M24.9,44.86 L125.47,44.86 125.47,80.72 24.9,80.72 " />
  </clipPath>
  <clipPath id="img-3a939971-50">
    <path d="M24.9,7 L125.47,7 125.47,40.86 24.9,40.86 " />
  </clipPath>
</defs>
</svg>
