<?xml version="1.0" encoding="utf-8"?>
<svg xmlns="http://www.w3.org/2000/svg" xmlns:xlink="http://www.w3.org/1999/xlink" width="600" height="400" viewBox="0 0 2400 1600">
<defs>
  <clipPath id="clip890">
    <rect x="0" y="0" width="2400" height="1600"/>
  </clipPath>
</defs>
<path clip-path="url(#clip890)" d="M0 1600 L2400 1600 L2400 0 L0 0  Z" fill="#ffffff" fill-rule="evenodd" fill-opacity="1"/>
<defs>
  <clipPath id="clip891">
    <rect x="480" y="0" width="1681" height="1600"/>
  </clipPath>
</defs>
<path clip-path="url(#clip890)" d="M219.866 1423.18 L2352.76 1423.18 L2352.76 123.472 L219.866 123.472  Z" fill="#ffffff" fill-rule="evenodd" fill-opacity="1"/>
<defs>
  <clipPath id="clip892">
    <rect x="219" y="123" width="2134" height="1301"/>
  </clipPath>
</defs>
<polyline clip-path="url(#clip892)" style="stroke:#000000; stroke-linecap:round; stroke-linejoin:round; stroke-width:2; stroke-opacity:0.1; fill:none" points="452.225,1423.18 452.225,123.472 "/>
<polyline clip-path="url(#clip892)" style="stroke:#000000; stroke-linecap:round; stroke-linejoin:round; stroke-width:2; stroke-opacity:0.1; fill:none" points="739.841,1423.18 739.841,123.472 "/>
<polyline clip-path="url(#clip892)" style="stroke:#000000; stroke-linecap:round; stroke-linejoin:round; stroke-width:2; stroke-opacity:0.1; fill:none" points="1027.46,1423.18 1027.46,123.472 "/>
<polyline clip-path="url(#clip892)" style="stroke:#000000; stroke-linecap:round; stroke-linejoin:round; stroke-width:2; stroke-opacity:0.1; fill:none" points="1315.07,1423.18 1315.07,123.472 "/>
<polyline clip-path="url(#clip892)" style="stroke:#000000; stroke-linecap:round; stroke-linejoin:round; stroke-width:2; stroke-opacity:0.1; fill:none" points="1602.69,1423.18 1602.69,123.472 "/>
<polyline clip-path="url(#clip892)" style="stroke:#000000; stroke-linecap:round; stroke-linejoin:round; stroke-width:2; stroke-opacity:0.1; fill:none" points="1890.3,1423.18 1890.3,123.472 "/>
<polyline clip-path="url(#clip892)" style="stroke:#000000; stroke-linecap:round; stroke-linejoin:round; stroke-width:2; stroke-opacity:0.1; fill:none" points="2177.92,1423.18 2177.92,123.472 "/>
<polyline clip-path="url(#clip892)" style="stroke:#000000; stroke-linecap:round; stroke-linejoin:round; stroke-width:2; stroke-opacity:0.1; fill:none" points="219.866,1423.18 2352.76,1423.18 "/>
<polyline clip-path="url(#clip892)" style="stroke:#000000; stroke-linecap:round; stroke-linejoin:round; stroke-width:2; stroke-opacity:0.1; fill:none" points="219.866,1104.23 2352.76,1104.23 "/>
<polyline clip-path="url(#clip892)" style="stroke:#000000; stroke-linecap:round; stroke-linejoin:round; stroke-width:2; stroke-opacity:0.1; fill:none" points="219.866,785.286 2352.76,785.286 "/>
<polyline clip-path="url(#clip892)" style="stroke:#000000; stroke-linecap:round; stroke-linejoin:round; stroke-width:2; stroke-opacity:0.1; fill:none" points="219.866,466.34 2352.76,466.34 "/>
<polyline clip-path="url(#clip892)" style="stroke:#000000; stroke-linecap:round; stroke-linejoin:round; stroke-width:2; stroke-opacity:0.1; fill:none" points="219.866,147.393 2352.76,147.393 "/>
<polyline clip-path="url(#clip890)" style="stroke:#000000; stroke-linecap:round; stroke-linejoin:round; stroke-width:4; stroke-opacity:1; fill:none" points="219.866,1423.18 2352.76,1423.18 "/>
<polyline clip-path="url(#clip890)" style="stroke:#000000; stroke-linecap:round; stroke-linejoin:round; stroke-width:4; stroke-opacity:1; fill:none" points="452.225,1423.18 452.225,1404.28 "/>
<polyline clip-path="url(#clip890)" style="stroke:#000000; stroke-linecap:round; stroke-linejoin:round; stroke-width:4; stroke-opacity:1; fill:none" points="739.841,1423.18 739.841,1404.28 "/>
<polyline clip-path="url(#clip890)" style="stroke:#000000; stroke-linecap:round; stroke-linejoin:round; stroke-width:4; stroke-opacity:1; fill:none" points="1027.46,1423.18 1027.46,1404.28 "/>
<polyline clip-path="url(#clip890)" style="stroke:#000000; stroke-linecap:round; stroke-linejoin:round; stroke-width:4; stroke-opacity:1; fill:none" points="1315.07,1423.18 1315.07,1404.28 "/>
<polyline clip-path="url(#clip890)" style="stroke:#000000; stroke-linecap:round; stroke-linejoin:round; stroke-width:4; stroke-opacity:1; fill:none" points="1602.69,1423.18 1602.69,1404.28 "/>
<polyline clip-path="url(#clip890)" style="stroke:#000000; stroke-linecap:round; stroke-linejoin:round; stroke-width:4; stroke-opacity:1; fill:none" points="1890.3,1423.18 1890.3,1404.28 "/>
<polyline clip-path="url(#clip890)" style="stroke:#000000; stroke-linecap:round; stroke-linejoin:round; stroke-width:4; stroke-opacity:1; fill:none" points="2177.92,1423.18 2177.92,1404.28 "/>
<path clip-path="url(#clip890)" d="M421.693 1468.75 L451.369 1468.75 L451.369 1472.69 L421.693 1472.69 L421.693 1468.75 Z" fill="#000000" fill-rule="nonzero" fill-opacity="1" /><path clip-path="url(#clip890)" d="M475.628 1466.95 Q478.984 1467.66 480.859 1469.93 Q482.758 1472.2 482.758 1475.53 Q482.758 1480.65 479.239 1483.45 Q475.721 1486.25 469.239 1486.25 Q467.063 1486.25 464.748 1485.81 Q462.457 1485.39 460.003 1484.54 L460.003 1480.02 Q461.947 1481.16 464.262 1481.74 Q466.577 1482.32 469.1 1482.32 Q473.498 1482.32 475.79 1480.58 Q478.105 1478.84 478.105 1475.53 Q478.105 1472.48 475.952 1470.77 Q473.822 1469.03 470.003 1469.03 L465.975 1469.03 L465.975 1465.19 L470.188 1465.19 Q473.637 1465.19 475.466 1463.82 Q477.295 1462.43 477.295 1459.84 Q477.295 1457.18 475.396 1455.77 Q473.521 1454.33 470.003 1454.33 Q468.082 1454.33 465.883 1454.75 Q463.684 1455.16 461.045 1456.04 L461.045 1451.88 Q463.707 1451.14 466.022 1450.77 Q468.359 1450.39 470.42 1450.39 Q475.744 1450.39 478.846 1452.83 Q481.947 1455.23 481.947 1459.35 Q481.947 1462.22 480.304 1464.21 Q478.66 1466.18 475.628 1466.95 Z" fill="#000000" fill-rule="nonzero" fill-opacity="1" /><path clip-path="url(#clip890)" d="M709.783 1468.75 L739.459 1468.75 L739.459 1472.69 L709.783 1472.69 L709.783 1468.75 Z" fill="#000000" fill-rule="nonzero" fill-opacity="1" /><path clip-path="url(#clip890)" d="M753.579 1481.64 L769.899 1481.64 L769.899 1485.58 L747.954 1485.58 L747.954 1481.64 Q750.616 1478.89 755.2 1474.26 Q759.806 1469.61 760.987 1468.27 Q763.232 1465.74 764.112 1464.01 Q765.015 1462.25 765.015 1460.56 Q765.015 1457.8 763.07 1456.07 Q761.149 1454.33 758.047 1454.33 Q755.848 1454.33 753.394 1455.09 Q750.964 1455.86 748.186 1457.41 L748.186 1452.69 Q751.01 1451.55 753.464 1450.97 Q755.917 1450.39 757.954 1450.39 Q763.325 1450.39 766.519 1453.08 Q769.714 1455.77 769.714 1460.26 Q769.714 1462.39 768.903 1464.31 Q768.116 1466.2 766.01 1468.8 Q765.431 1469.47 762.329 1472.69 Q759.228 1475.88 753.579 1481.64 Z" fill="#000000" fill-rule="nonzero" fill-opacity="1" /><path clip-path="url(#clip890)" d="M997.214 1468.75 L1026.89 1468.75 L1026.89 1472.69 L997.214 1472.69 L997.214 1468.75 Z" fill="#000000" fill-rule="nonzero" fill-opacity="1" /><path clip-path="url(#clip890)" d="M1037.79 1481.64 L1045.43 1481.64 L1045.43 1455.28 L1037.12 1456.95 L1037.12 1452.69 L1045.39 1451.02 L1050.06 1451.02 L1050.06 1481.64 L1057.7 1481.64 L1057.7 1485.58 L1037.79 1485.58 L1037.79 1481.64 Z" fill="#000000" fill-rule="nonzero" fill-opacity="1" /><path clip-path="url(#clip890)" d="M1315.07 1454.1 Q1311.46 1454.1 1309.63 1457.66 Q1307.83 1461.2 1307.83 1468.33 Q1307.83 1475.44 1309.63 1479.01 Q1311.46 1482.55 1315.07 1482.55 Q1318.71 1482.55 1320.51 1479.01 Q1322.34 1475.44 1322.34 1468.33 Q1322.34 1461.2 1320.51 1457.66 Q1318.71 1454.1 1315.07 1454.1 M1315.07 1450.39 Q1320.88 1450.39 1323.94 1455 Q1327.02 1459.58 1327.02 1468.33 Q1327.02 1477.06 1323.94 1481.67 Q1320.88 1486.25 1315.07 1486.25 Q1309.26 1486.25 1306.18 1481.67 Q1303.13 1477.06 1303.13 1468.33 Q1303.13 1459.58 1306.18 1455 Q1309.26 1450.39 1315.07 1450.39 Z" fill="#000000" fill-rule="nonzero" fill-opacity="1" /><path clip-path="url(#clip890)" d="M1593.07 1481.64 L1600.71 1481.64 L1600.71 1455.28 L1592.4 1456.95 L1592.4 1452.69 L1600.66 1451.02 L1605.34 1451.02 L1605.34 1481.64 L1612.98 1481.64 L1612.98 1485.58 L1593.07 1485.58 L1593.07 1481.64 Z" fill="#000000" fill-rule="nonzero" fill-opacity="1" /><path clip-path="url(#clip890)" d="M1884.96 1481.64 L1901.28 1481.64 L1901.28 1485.58 L1879.33 1485.58 L1879.33 1481.64 Q1881.99 1478.89 1886.58 1474.26 Q1891.18 1469.61 1892.36 1468.27 Q1894.61 1465.74 1895.49 1464.01 Q1896.39 1462.25 1896.39 1460.56 Q1896.39 1457.8 1894.45 1456.07 Q1892.53 1454.33 1889.42 1454.33 Q1887.23 1454.33 1884.77 1455.09 Q1882.34 1455.86 1879.56 1457.41 L1879.56 1452.69 Q1882.39 1451.55 1884.84 1450.97 Q1887.29 1450.39 1889.33 1450.39 Q1894.7 1450.39 1897.9 1453.08 Q1901.09 1455.77 1901.09 1460.26 Q1901.09 1462.39 1900.28 1464.31 Q1899.49 1466.2 1897.39 1468.8 Q1896.81 1469.47 1893.71 1472.69 Q1890.61 1475.88 1884.96 1481.64 Z" fill="#000000" fill-rule="nonzero" fill-opacity="1" /><path clip-path="url(#clip890)" d="M2182.17 1466.95 Q2185.52 1467.66 2187.4 1469.93 Q2189.3 1472.2 2189.3 1475.53 Q2189.3 1480.65 2185.78 1483.45 Q2182.26 1486.25 2175.78 1486.25 Q2173.6 1486.25 2171.29 1485.81 Q2169 1485.39 2166.54 1484.54 L2166.54 1480.02 Q2168.49 1481.16 2170.8 1481.74 Q2173.12 1482.32 2175.64 1482.32 Q2180.04 1482.32 2182.33 1480.58 Q2184.64 1478.84 2184.64 1475.53 Q2184.64 1472.48 2182.49 1470.77 Q2180.36 1469.03 2176.54 1469.03 L2172.51 1469.03 L2172.51 1465.19 L2176.73 1465.19 Q2180.18 1465.19 2182.01 1463.82 Q2183.83 1462.43 2183.83 1459.84 Q2183.83 1457.18 2181.94 1455.77 Q2180.06 1454.33 2176.54 1454.33 Q2174.62 1454.33 2172.42 1454.75 Q2170.22 1455.16 2167.58 1456.04 L2167.58 1451.88 Q2170.25 1451.14 2172.56 1450.77 Q2174.9 1450.39 2176.96 1450.39 Q2182.28 1450.39 2185.39 1452.83 Q2188.49 1455.23 2188.49 1459.35 Q2188.49 1462.22 2186.84 1464.21 Q2185.2 1466.18 2182.17 1466.95 Z" fill="#000000" fill-rule="nonzero" fill-opacity="1" /><path clip-path="url(#clip890)" d="M980.375 1522.08 L980.375 1528.35 Q976.715 1526.6 973.468 1525.74 Q970.222 1524.88 967.198 1524.88 Q961.947 1524.88 959.082 1526.92 Q956.249 1528.96 956.249 1532.71 Q956.249 1535.87 958.127 1537.49 Q960.037 1539.08 965.32 1540.07 L969.203 1540.86 Q976.397 1542.23 979.802 1545.7 Q983.24 1549.14 983.24 1554.93 Q983.24 1561.84 978.593 1565.4 Q973.978 1568.97 965.034 1568.97 Q961.66 1568.97 957.841 1568.2 Q954.053 1567.44 949.979 1565.94 L949.979 1559.32 Q953.894 1561.52 957.65 1562.63 Q961.405 1563.75 965.034 1563.75 Q970.54 1563.75 973.532 1561.58 Q976.524 1559.42 976.524 1555.41 Q976.524 1551.91 974.36 1549.93 Q972.227 1547.96 967.326 1546.97 L963.411 1546.21 Q956.217 1544.78 953.003 1541.72 Q949.788 1538.67 949.788 1533.22 Q949.788 1526.92 954.212 1523.29 Q958.668 1519.66 966.466 1519.66 Q969.808 1519.66 973.277 1520.27 Q976.747 1520.87 980.375 1522.08 Z" fill="#000000" fill-rule="nonzero" fill-opacity="1" /><path clip-path="url(#clip890)" d="M998.804 1522.27 L998.804 1532.4 L1010.87 1532.4 L1010.87 1536.95 L998.804 1536.95 L998.804 1556.3 Q998.804 1560.66 999.982 1561.9 Q1001.19 1563.14 1004.85 1563.14 L1010.87 1563.14 L1010.87 1568.04 L1004.85 1568.04 Q998.072 1568.04 995.494 1565.53 Q992.916 1562.98 992.916 1556.3 L992.916 1536.95 L988.619 1536.95 L988.619 1532.4 L992.916 1532.4 L992.916 1522.27 L998.804 1522.27 Z" fill="#000000" fill-rule="nonzero" fill-opacity="1" /><path clip-path="url(#clip890)" d="M1034.77 1550.12 Q1027.67 1550.12 1024.94 1551.75 Q1022.2 1553.37 1022.2 1557.29 Q1022.2 1560.4 1024.23 1562.25 Q1026.3 1564.07 1029.84 1564.07 Q1034.71 1564.07 1037.63 1560.63 Q1040.59 1557.16 1040.59 1551.43 L1040.59 1550.12 L1034.77 1550.12 M1046.45 1547.71 L1046.45 1568.04 L1040.59 1568.04 L1040.59 1562.63 Q1038.59 1565.88 1035.6 1567.44 Q1032.61 1568.97 1028.28 1568.97 Q1022.8 1568.97 1019.56 1565.91 Q1016.34 1562.82 1016.34 1557.67 Q1016.34 1551.65 1020.35 1548.6 Q1024.39 1545.54 1032.38 1545.54 L1040.59 1545.54 L1040.59 1544.97 Q1040.59 1540.93 1037.92 1538.73 Q1035.28 1536.5 1030.47 1536.5 Q1027.42 1536.5 1024.52 1537.23 Q1021.63 1537.97 1018.95 1539.43 L1018.95 1534.02 Q1022.17 1532.78 1025.19 1532.17 Q1028.21 1531.54 1031.08 1531.54 Q1038.81 1531.54 1042.63 1535.55 Q1046.45 1539.56 1046.45 1547.71 Z" fill="#000000" fill-rule="nonzero" fill-opacity="1" /><path clip-path="url(#clip890)" d="M1088.15 1546.53 L1088.15 1568.04 L1082.29 1568.04 L1082.29 1546.72 Q1082.29 1541.66 1080.32 1539.14 Q1078.34 1536.63 1074.4 1536.63 Q1069.65 1536.63 1066.92 1539.65 Q1064.18 1542.68 1064.18 1547.9 L1064.18 1568.04 L1058.29 1568.04 L1058.29 1532.4 L1064.18 1532.4 L1064.18 1537.93 Q1066.28 1534.72 1069.11 1533.13 Q1071.98 1531.54 1075.7 1531.54 Q1081.84 1531.54 1085 1535.36 Q1088.15 1539.14 1088.15 1546.53 Z" fill="#000000" fill-rule="nonzero" fill-opacity="1" /><path clip-path="url(#clip890)" d="M1123.29 1537.81 L1123.29 1518.52 L1129.14 1518.52 L1129.14 1568.04 L1123.29 1568.04 L1123.29 1562.7 Q1121.44 1565.88 1118.61 1567.44 Q1115.81 1568.97 1111.86 1568.97 Q1105.4 1568.97 1101.32 1563.81 Q1097.28 1558.65 1097.28 1550.25 Q1097.28 1541.85 1101.32 1536.69 Q1105.4 1531.54 1111.86 1531.54 Q1115.81 1531.54 1118.61 1533.1 Q1121.44 1534.62 1123.29 1537.81 M1103.33 1550.25 Q1103.33 1556.71 1105.97 1560.4 Q1108.64 1564.07 1113.29 1564.07 Q1117.94 1564.07 1120.61 1560.4 Q1123.29 1556.71 1123.29 1550.25 Q1123.29 1543.79 1120.61 1540.13 Q1117.94 1536.44 1113.29 1536.44 Q1108.64 1536.44 1105.97 1540.13 Q1103.33 1543.79 1103.33 1550.25 Z" fill="#000000" fill-rule="nonzero" fill-opacity="1" /><path clip-path="url(#clip890)" d="M1157.41 1550.12 Q1150.31 1550.12 1147.57 1551.75 Q1144.83 1553.37 1144.83 1557.29 Q1144.83 1560.4 1146.87 1562.25 Q1148.94 1564.07 1152.47 1564.07 Q1157.34 1564.07 1160.27 1560.63 Q1163.23 1557.16 1163.23 1551.43 L1163.23 1550.12 L1157.41 1550.12 M1169.09 1547.71 L1169.09 1568.04 L1163.23 1568.04 L1163.23 1562.63 Q1161.22 1565.88 1158.23 1567.44 Q1155.24 1568.97 1150.91 1568.97 Q1145.44 1568.97 1142.19 1565.91 Q1138.98 1562.82 1138.98 1557.67 Q1138.98 1551.65 1142.99 1548.6 Q1147.03 1545.54 1155.02 1545.54 L1163.23 1545.54 L1163.23 1544.97 Q1163.23 1540.93 1160.56 1538.73 Q1157.91 1536.5 1153.11 1536.5 Q1150.05 1536.5 1147.16 1537.23 Q1144.26 1537.97 1141.59 1539.43 L1141.59 1534.02 Q1144.8 1532.78 1147.83 1532.17 Q1150.85 1531.54 1153.71 1531.54 Q1161.45 1531.54 1165.27 1535.55 Q1169.09 1539.56 1169.09 1547.71 Z" fill="#000000" fill-rule="nonzero" fill-opacity="1" /><path clip-path="url(#clip890)" d="M1201.81 1537.87 Q1200.82 1537.3 1199.64 1537.04 Q1198.5 1536.76 1197.1 1536.76 Q1192.13 1536.76 1189.46 1540 Q1186.82 1543.22 1186.82 1549.27 L1186.82 1568.04 L1180.93 1568.04 L1180.93 1532.4 L1186.82 1532.4 L1186.82 1537.93 Q1188.66 1534.69 1191.62 1533.13 Q1194.58 1531.54 1198.81 1531.54 Q1199.42 1531.54 1200.15 1531.63 Q1200.88 1531.7 1201.77 1531.85 L1201.81 1537.87 Z" fill="#000000" fill-rule="nonzero" fill-opacity="1" /><path clip-path="url(#clip890)" d="M1230.26 1537.81 L1230.26 1518.52 L1236.12 1518.52 L1236.12 1568.04 L1230.26 1568.04 L1230.26 1562.7 Q1228.41 1565.88 1225.58 1567.44 Q1222.78 1568.97 1218.83 1568.97 Q1212.37 1568.97 1208.3 1563.81 Q1204.26 1558.65 1204.26 1550.25 Q1204.26 1541.85 1208.3 1536.69 Q1212.37 1531.54 1218.83 1531.54 Q1222.78 1531.54 1225.58 1533.1 Q1228.41 1534.62 1230.26 1537.81 M1210.3 1550.25 Q1210.3 1556.71 1212.95 1560.4 Q1215.62 1564.07 1220.27 1564.07 Q1224.91 1564.07 1227.59 1560.4 Q1230.26 1556.71 1230.26 1550.25 Q1230.26 1543.79 1227.59 1540.13 Q1224.91 1536.44 1220.27 1536.44 Q1215.62 1536.44 1212.95 1540.13 Q1210.3 1543.79 1210.3 1550.25 Z" fill="#000000" fill-rule="nonzero" fill-opacity="1" /><path clip-path="url(#clip890)" d="M1248.18 1532.4 L1254.04 1532.4 L1254.04 1568.04 L1248.18 1568.04 L1248.18 1532.4 M1248.18 1518.52 L1254.04 1518.52 L1254.04 1525.93 L1248.18 1525.93 L1248.18 1518.52 Z" fill="#000000" fill-rule="nonzero" fill-opacity="1" /><path clip-path="url(#clip890)" d="M1263.74 1532.4 L1291.56 1532.4 L1291.56 1537.74 L1269.54 1563.37 L1291.56 1563.37 L1291.56 1568.04 L1262.95 1568.04 L1262.95 1562.7 L1284.97 1537.07 L1263.74 1537.07 L1263.74 1532.4 Z" fill="#000000" fill-rule="nonzero" fill-opacity="1" /><path clip-path="url(#clip890)" d="M1331 1548.76 L1331 1551.62 L1304.07 1551.62 Q1304.45 1557.67 1307.7 1560.85 Q1310.98 1564 1316.8 1564 Q1320.18 1564 1323.33 1563.17 Q1326.51 1562.35 1329.63 1560.69 L1329.63 1566.23 Q1326.48 1567.57 1323.17 1568.27 Q1319.86 1568.97 1316.45 1568.97 Q1307.92 1568.97 1302.93 1564 Q1297.96 1559.04 1297.96 1550.57 Q1297.96 1541.82 1302.67 1536.69 Q1307.41 1531.54 1315.43 1531.54 Q1322.63 1531.54 1326.8 1536.18 Q1331 1540.8 1331 1548.76 M1325.14 1547.04 Q1325.08 1542.23 1322.44 1539.37 Q1319.83 1536.5 1315.5 1536.5 Q1310.6 1536.5 1307.64 1539.27 Q1304.71 1542.04 1304.26 1547.07 L1325.14 1547.04 Z" fill="#000000" fill-rule="nonzero" fill-opacity="1" /><path clip-path="url(#clip890)" d="M1364.07 1537.81 L1364.07 1518.52 L1369.92 1518.52 L1369.92 1568.04 L1364.07 1568.04 L1364.07 1562.7 Q1362.22 1565.88 1359.39 1567.44 Q1356.59 1568.97 1352.64 1568.97 Q1346.18 1568.97 1342.11 1563.81 Q1338.06 1558.65 1338.06 1550.25 Q1338.06 1541.85 1342.11 1536.69 Q1346.18 1531.54 1352.64 1531.54 Q1356.59 1531.54 1359.39 1533.1 Q1362.22 1534.62 1364.07 1537.81 M1344.11 1550.25 Q1344.11 1556.71 1346.75 1560.4 Q1349.43 1564.07 1354.07 1564.07 Q1358.72 1564.07 1361.39 1560.4 Q1364.07 1556.71 1364.07 1550.25 Q1364.07 1543.79 1361.39 1540.13 Q1358.72 1536.44 1354.07 1536.44 Q1349.43 1536.44 1346.75 1540.13 Q1344.11 1543.79 1344.11 1550.25 Z" fill="#000000" fill-rule="nonzero" fill-opacity="1" /><path clip-path="url(#clip890)" d="M1402.96 1520.52 L1433.01 1520.52 L1433.01 1525.93 L1409.39 1525.93 L1409.39 1540 L1432.02 1540 L1432.02 1545.41 L1409.39 1545.41 L1409.39 1562.63 L1433.58 1562.63 L1433.58 1568.04 L1402.96 1568.04 L1402.96 1520.52 Z" fill="#000000" fill-rule="nonzero" fill-opacity="1" /><path clip-path="url(#clip890)" d="M1473.53 1546.53 L1473.53 1568.04 L1467.67 1568.04 L1467.67 1546.72 Q1467.67 1541.66 1465.7 1539.14 Q1463.72 1536.63 1459.78 1536.63 Q1455.03 1536.63 1452.3 1539.65 Q1449.56 1542.68 1449.56 1547.9 L1449.56 1568.04 L1443.67 1568.04 L1443.67 1532.4 L1449.56 1532.4 L1449.56 1537.93 Q1451.66 1534.72 1454.49 1533.13 Q1457.36 1531.54 1461.08 1531.54 Q1467.22 1531.54 1470.38 1535.36 Q1473.53 1539.14 1473.53 1546.53 Z" fill="#000000" fill-rule="nonzero" fill-opacity="1" /><path clip-path="url(#clip890)" d="M1515.7 1548.76 L1515.7 1551.62 L1488.77 1551.62 Q1489.15 1557.67 1492.4 1560.85 Q1495.68 1564 1501.5 1564 Q1504.88 1564 1508.03 1563.17 Q1511.21 1562.35 1514.33 1560.69 L1514.33 1566.23 Q1511.18 1567.57 1507.87 1568.27 Q1504.56 1568.97 1501.15 1568.97 Q1492.62 1568.97 1487.63 1564 Q1482.66 1559.04 1482.66 1550.57 Q1482.66 1541.82 1487.37 1536.69 Q1492.11 1531.54 1500.14 1531.54 Q1507.33 1531.54 1511.5 1536.18 Q1515.7 1540.8 1515.7 1548.76 M1509.84 1547.04 Q1509.78 1542.23 1507.14 1539.37 Q1504.53 1536.5 1500.2 1536.5 Q1495.3 1536.5 1492.34 1539.27 Q1489.41 1542.04 1488.96 1547.07 L1509.84 1547.04 Z" fill="#000000" fill-rule="nonzero" fill-opacity="1" /><path clip-path="url(#clip890)" d="M1545.97 1537.87 Q1544.98 1537.3 1543.8 1537.04 Q1542.66 1536.76 1541.26 1536.76 Q1536.29 1536.76 1533.62 1540 Q1530.98 1543.22 1530.98 1549.27 L1530.98 1568.04 L1525.09 1568.04 L1525.09 1532.4 L1530.98 1532.4 L1530.98 1537.93 Q1532.82 1534.69 1535.78 1533.13 Q1538.74 1531.54 1542.98 1531.54 Q1543.58 1531.54 1544.31 1531.63 Q1545.05 1531.7 1545.94 1531.85 L1545.97 1537.87 Z" fill="#000000" fill-rule="nonzero" fill-opacity="1" /><path clip-path="url(#clip890)" d="M1574.42 1549.81 Q1574.42 1543.44 1571.78 1539.94 Q1569.17 1536.44 1564.43 1536.44 Q1559.72 1536.44 1557.08 1539.94 Q1554.47 1543.44 1554.47 1549.81 Q1554.47 1556.14 1557.08 1559.64 Q1559.72 1563.14 1564.43 1563.14 Q1569.17 1563.14 1571.78 1559.64 Q1574.42 1556.14 1574.42 1549.81 M1580.28 1563.62 Q1580.28 1572.72 1576.24 1577.15 Q1572.19 1581.6 1563.86 1581.6 Q1560.77 1581.6 1558.03 1581.13 Q1555.29 1580.68 1552.72 1579.72 L1552.72 1574.03 Q1555.29 1575.43 1557.81 1576.1 Q1560.32 1576.76 1562.93 1576.76 Q1568.69 1576.76 1571.56 1573.74 Q1574.42 1570.75 1574.42 1564.67 L1574.42 1561.77 Q1572.61 1564.92 1569.78 1566.48 Q1566.94 1568.04 1563 1568.04 Q1556.44 1568.04 1552.43 1563.05 Q1548.42 1558.05 1548.42 1549.81 Q1548.42 1541.53 1552.43 1536.53 Q1556.44 1531.54 1563 1531.54 Q1566.94 1531.54 1569.78 1533.1 Q1572.61 1534.66 1574.42 1537.81 L1574.42 1532.4 L1580.28 1532.4 L1580.28 1563.62 Z" fill="#000000" fill-rule="nonzero" fill-opacity="1" /><path clip-path="url(#clip890)" d="M1607.17 1571.35 Q1604.69 1577.72 1602.34 1579.66 Q1599.98 1581.6 1596.03 1581.6 L1591.36 1581.6 L1591.36 1576.7 L1594.79 1576.7 Q1597.21 1576.7 1598.55 1575.56 Q1599.89 1574.41 1601.51 1570.14 L1602.56 1567.47 L1588.14 1532.4 L1594.35 1532.4 L1605.49 1560.28 L1616.63 1532.4 L1622.83 1532.4 L1607.17 1571.35 Z" fill="#000000" fill-rule="nonzero" fill-opacity="1" /><polyline clip-path="url(#clip890)" style="stroke:#000000; stroke-linecap:round; stroke-linejoin:round; stroke-width:4; stroke-opacity:1; fill:none" points="219.866,1423.18 219.866,123.472 "/>
<polyline clip-path="url(#clip890)" style="stroke:#000000; stroke-linecap:round; stroke-linejoin:round; stroke-width:4; stroke-opacity:1; fill:none" points="219.866,1423.18 238.764,1423.18 "/>
<polyline clip-path="url(#clip890)" style="stroke:#000000; stroke-linecap:round; stroke-linejoin:round; stroke-width:4; stroke-opacity:1; fill:none" points="219.866,1104.23 238.764,1104.23 "/>
<polyline clip-path="url(#clip890)" style="stroke:#000000; stroke-linecap:round; stroke-linejoin:round; stroke-width:4; stroke-opacity:1; fill:none" points="219.866,785.286 238.764,785.286 "/>
<polyline clip-path="url(#clip890)" style="stroke:#000000; stroke-linecap:round; stroke-linejoin:round; stroke-width:4; stroke-opacity:1; fill:none" points="219.866,466.34 238.764,466.34 "/>
<polyline clip-path="url(#clip890)" style="stroke:#000000; stroke-linecap:round; stroke-linejoin:round; stroke-width:4; stroke-opacity:1; fill:none" points="219.866,147.393 238.764,147.393 "/>
<path clip-path="url(#clip890)" d="M126.691 1408.98 Q123.08 1408.98 121.251 1412.54 Q119.445 1416.08 119.445 1423.21 Q119.445 1430.32 121.251 1433.89 Q123.08 1437.43 126.691 1437.43 Q130.325 1437.43 132.13 1433.89 Q133.959 1430.32 133.959 1423.21 Q133.959 1416.08 132.13 1412.54 Q130.325 1408.98 126.691 1408.98 M126.691 1405.27 Q132.501 1405.27 135.556 1409.88 Q138.635 1414.46 138.635 1423.21 Q138.635 1431.94 135.556 1436.55 Q132.501 1441.13 126.691 1441.13 Q120.88 1441.13 117.802 1436.55 Q114.746 1431.94 114.746 1423.21 Q114.746 1414.46 117.802 1409.88 Q120.88 1405.27 126.691 1405.27 Z" fill="#000000" fill-rule="nonzero" fill-opacity="1" /><path clip-path="url(#clip890)" d="M146.853 1434.58 L151.737 1434.58 L151.737 1440.46 L146.853 1440.46 L146.853 1434.58 Z" fill="#000000" fill-rule="nonzero" fill-opacity="1" /><path clip-path="url(#clip890)" d="M171.922 1408.98 Q168.311 1408.98 166.482 1412.54 Q164.677 1416.08 164.677 1423.21 Q164.677 1430.32 166.482 1433.89 Q168.311 1437.43 171.922 1437.43 Q175.556 1437.43 177.362 1433.89 Q179.19 1430.32 179.19 1423.21 Q179.19 1416.08 177.362 1412.54 Q175.556 1408.98 171.922 1408.98 M171.922 1405.27 Q177.732 1405.27 180.788 1409.88 Q183.866 1414.46 183.866 1423.21 Q183.866 1431.94 180.788 1436.55 Q177.732 1441.13 171.922 1441.13 Q166.112 1441.13 163.033 1436.55 Q159.978 1431.94 159.978 1423.21 Q159.978 1414.46 163.033 1409.88 Q166.112 1405.27 171.922 1405.27 Z" fill="#000000" fill-rule="nonzero" fill-opacity="1" /><path clip-path="url(#clip890)" d="M128.288 1090.03 Q124.677 1090.03 122.848 1093.6 Q121.043 1097.14 121.043 1104.27 Q121.043 1111.37 122.848 1114.94 Q124.677 1118.48 128.288 1118.48 Q131.922 1118.48 133.728 1114.94 Q135.556 1111.37 135.556 1104.27 Q135.556 1097.14 133.728 1093.6 Q131.922 1090.03 128.288 1090.03 M128.288 1086.33 Q134.098 1086.33 137.154 1090.93 Q140.232 1095.52 140.232 1104.27 Q140.232 1112.99 137.154 1117.6 Q134.098 1122.18 128.288 1122.18 Q122.478 1122.18 119.399 1117.6 Q116.343 1112.99 116.343 1104.27 Q116.343 1095.52 119.399 1090.93 Q122.478 1086.33 128.288 1086.33 Z" fill="#000000" fill-rule="nonzero" fill-opacity="1" /><path clip-path="url(#clip890)" d="M148.45 1115.63 L153.334 1115.63 L153.334 1121.51 L148.45 1121.51 L148.45 1115.63 Z" fill="#000000" fill-rule="nonzero" fill-opacity="1" /><path clip-path="url(#clip890)" d="M167.547 1117.58 L183.866 1117.58 L183.866 1121.51 L161.922 1121.51 L161.922 1117.58 Q164.584 1114.82 169.167 1110.19 Q173.774 1105.54 174.954 1104.2 Q177.2 1101.68 178.079 1099.94 Q178.982 1098.18 178.982 1096.49 Q178.982 1093.74 177.038 1092 Q175.116 1090.26 172.014 1090.26 Q169.815 1090.26 167.362 1091.03 Q164.931 1091.79 162.153 1093.34 L162.153 1088.62 Q164.977 1087.49 167.431 1086.91 Q169.885 1086.33 171.922 1086.33 Q177.292 1086.33 180.487 1089.01 Q183.681 1091.7 183.681 1096.19 Q183.681 1098.32 182.871 1100.24 Q182.084 1102.14 179.977 1104.73 Q179.399 1105.4 176.297 1108.62 Q173.195 1111.81 167.547 1117.58 Z" fill="#000000" fill-rule="nonzero" fill-opacity="1" /><path clip-path="url(#clip890)" d="M126.205 771.085 Q122.593 771.085 120.765 774.65 Q118.959 778.192 118.959 785.321 Q118.959 792.428 120.765 795.992 Q122.593 799.534 126.205 799.534 Q129.839 799.534 131.644 795.992 Q133.473 792.428 133.473 785.321 Q133.473 778.192 131.644 774.65 Q129.839 771.085 126.205 771.085 M126.205 767.381 Q132.015 767.381 135.07 771.988 Q138.149 776.571 138.149 785.321 Q138.149 794.048 135.07 798.654 Q132.015 803.238 126.205 803.238 Q120.394 803.238 117.316 798.654 Q114.26 794.048 114.26 785.321 Q114.26 776.571 117.316 771.988 Q120.394 767.381 126.205 767.381 Z" fill="#000000" fill-rule="nonzero" fill-opacity="1" /><path clip-path="url(#clip890)" d="M146.366 796.687 L151.251 796.687 L151.251 802.566 L146.366 802.566 L146.366 796.687 Z" fill="#000000" fill-rule="nonzero" fill-opacity="1" /><path clip-path="url(#clip890)" d="M174.283 772.081 L162.477 790.53 L174.283 790.53 L174.283 772.081 M173.056 768.006 L178.936 768.006 L178.936 790.53 L183.866 790.53 L183.866 794.418 L178.936 794.418 L178.936 802.566 L174.283 802.566 L174.283 794.418 L158.681 794.418 L158.681 789.905 L173.056 768.006 Z" fill="#000000" fill-rule="nonzero" fill-opacity="1" /><path clip-path="url(#clip890)" d="M126.529 452.138 Q122.918 452.138 121.089 455.703 Q119.283 459.245 119.283 466.375 Q119.283 473.481 121.089 477.046 Q122.918 480.587 126.529 480.587 Q130.163 480.587 131.968 477.046 Q133.797 473.481 133.797 466.375 Q133.797 459.245 131.968 455.703 Q130.163 452.138 126.529 452.138 M126.529 448.435 Q132.339 448.435 135.394 453.041 Q138.473 457.625 138.473 466.375 Q138.473 475.101 135.394 479.708 Q132.339 484.291 126.529 484.291 Q120.718 484.291 117.64 479.708 Q114.584 475.101 114.584 466.375 Q114.584 457.625 117.64 453.041 Q120.718 448.435 126.529 448.435 Z" fill="#000000" fill-rule="nonzero" fill-opacity="1" /><path clip-path="url(#clip890)" d="M146.691 477.74 L151.575 477.74 L151.575 483.62 L146.691 483.62 L146.691 477.74 Z" fill="#000000" fill-rule="nonzero" fill-opacity="1" /><path clip-path="url(#clip890)" d="M172.339 464.476 Q169.19 464.476 167.339 466.629 Q165.51 468.782 165.51 472.532 Q165.51 476.259 167.339 478.435 Q169.19 480.587 172.339 480.587 Q175.487 480.587 177.315 478.435 Q179.167 476.259 179.167 472.532 Q179.167 468.782 177.315 466.629 Q175.487 464.476 172.339 464.476 M181.621 449.824 L181.621 454.083 Q179.862 453.25 178.056 452.81 Q176.274 452.37 174.514 452.37 Q169.885 452.37 167.431 455.495 Q165.001 458.62 164.653 464.939 Q166.019 462.925 168.079 461.861 Q170.139 460.773 172.616 460.773 Q177.825 460.773 180.834 463.944 Q183.866 467.092 183.866 472.532 Q183.866 477.856 180.718 481.074 Q177.57 484.291 172.339 484.291 Q166.343 484.291 163.172 479.708 Q160.001 475.101 160.001 466.375 Q160.001 458.18 163.89 453.319 Q167.778 448.435 174.329 448.435 Q176.089 448.435 177.871 448.782 Q179.676 449.129 181.621 449.824 Z" fill="#000000" fill-rule="nonzero" fill-opacity="1" /><path clip-path="url(#clip890)" d="M126.783 133.192 Q123.172 133.192 121.343 136.757 Q119.538 140.298 119.538 147.428 Q119.538 154.534 121.343 158.099 Q123.172 161.641 126.783 161.641 Q130.417 161.641 132.223 158.099 Q134.052 154.534 134.052 147.428 Q134.052 140.298 132.223 136.757 Q130.417 133.192 126.783 133.192 M126.783 129.488 Q132.593 129.488 135.649 134.095 Q138.728 138.678 138.728 147.428 Q138.728 156.155 135.649 160.761 Q132.593 165.344 126.783 165.344 Q120.973 165.344 117.894 160.761 Q114.839 156.155 114.839 147.428 Q114.839 138.678 117.894 134.095 Q120.973 129.488 126.783 129.488 Z" fill="#000000" fill-rule="nonzero" fill-opacity="1" /><path clip-path="url(#clip890)" d="M146.945 158.794 L151.829 158.794 L151.829 164.673 L146.945 164.673 L146.945 158.794 Z" fill="#000000" fill-rule="nonzero" fill-opacity="1" /><path clip-path="url(#clip890)" d="M172.014 148.261 Q168.681 148.261 166.76 150.044 Q164.862 151.826 164.862 154.951 Q164.862 158.076 166.76 159.858 Q168.681 161.641 172.014 161.641 Q175.348 161.641 177.269 159.858 Q179.19 158.053 179.19 154.951 Q179.19 151.826 177.269 150.044 Q175.371 148.261 172.014 148.261 M167.339 146.27 Q164.329 145.53 162.64 143.47 Q160.973 141.409 160.973 138.446 Q160.973 134.303 163.913 131.896 Q166.876 129.488 172.014 129.488 Q177.176 129.488 180.116 131.896 Q183.056 134.303 183.056 138.446 Q183.056 141.409 181.366 143.47 Q179.7 145.53 176.714 146.27 Q180.093 147.057 181.968 149.349 Q183.866 151.641 183.866 154.951 Q183.866 159.974 180.788 162.659 Q177.732 165.344 172.014 165.344 Q166.297 165.344 163.218 162.659 Q160.163 159.974 160.163 154.951 Q160.163 151.641 162.061 149.349 Q163.959 147.057 167.339 146.27 M165.626 138.886 Q165.626 141.571 167.292 143.076 Q168.982 144.581 172.014 144.581 Q175.024 144.581 176.714 143.076 Q178.426 141.571 178.426 138.886 Q178.426 136.201 176.714 134.696 Q175.024 133.192 172.014 133.192 Q168.982 133.192 167.292 134.696 Q165.626 136.201 165.626 138.886 Z" fill="#000000" fill-rule="nonzero" fill-opacity="1" /><path clip-path="url(#clip890)" d="M21.7677 886.636 L58.7206 886.636 L58.7206 878.869 Q58.7206 869.034 54.2646 864.483 Q49.8086 859.9 40.1964 859.9 Q30.6479 859.9 26.2237 864.483 Q21.7677 869.034 21.7677 878.869 L21.7677 886.636 M16.4842 893.065 L16.4842 879.856 Q16.4842 866.043 22.2451 859.581 Q27.9743 853.12 40.1964 853.12 Q52.4822 853.12 58.2432 859.613 Q64.0042 866.106 64.0042 879.856 L64.0042 893.065 L16.4842 893.065 Z" fill="#000000" fill-rule="nonzero" fill-opacity="1" /><path clip-path="url(#clip890)" d="M44.7161 812.634 L47.5806 812.634 L47.5806 839.561 Q53.6281 839.179 56.8109 835.933 Q59.9619 832.654 59.9619 826.83 Q59.9619 823.456 59.1344 820.305 Q58.3069 817.122 56.6518 814.003 L62.1899 814.003 Q63.5267 817.154 64.227 820.464 Q64.9272 823.774 64.9272 827.18 Q64.9272 835.71 59.9619 840.707 Q54.9967 845.672 46.5303 845.672 Q37.7774 845.672 32.6531 840.962 Q27.4968 836.219 27.4968 828.198 Q27.4968 821.005 32.1438 816.836 Q36.7589 812.634 44.7161 812.634 M42.9973 818.491 Q38.1912 818.554 35.3266 821.196 Q32.4621 823.806 32.4621 828.135 Q32.4621 833.036 35.2312 835.996 Q38.0002 838.925 43.0292 839.37 L42.9973 818.491 Z" fill="#000000" fill-rule="nonzero" fill-opacity="1" /><path clip-path="url(#clip890)" d="M42.4881 773.39 L64.0042 773.39 L64.0042 779.246 L42.679 779.246 Q37.6183 779.246 35.1038 781.219 Q32.5894 783.193 32.5894 787.14 Q32.5894 791.882 35.6131 794.619 Q38.6368 797.357 43.8567 797.357 L64.0042 797.357 L64.0042 803.245 L28.3562 803.245 L28.3562 797.357 L33.8944 797.357 Q30.6797 795.256 29.0883 792.423 Q27.4968 789.559 27.4968 785.835 Q27.4968 779.692 31.3163 776.541 Q35.1038 773.39 42.4881 773.39 Z" fill="#000000" fill-rule="nonzero" fill-opacity="1" /><path clip-path="url(#clip890)" d="M29.4065 738.983 L34.9447 738.983 Q33.6716 741.466 33.035 744.139 Q32.3984 746.813 32.3984 749.677 Q32.3984 754.038 33.7352 756.234 Q35.072 758.398 37.7456 758.398 Q39.7826 758.398 40.9603 756.839 Q42.1061 755.279 43.1565 750.569 L43.6021 748.563 Q44.9389 742.325 47.3897 739.715 Q49.8086 737.073 54.1691 737.073 Q59.1344 737.073 62.0308 741.02 Q64.9272 744.935 64.9272 751.81 Q64.9272 754.674 64.3543 757.794 Q63.8132 760.881 62.6992 764.319 L56.6518 764.319 Q58.3387 761.072 59.198 757.921 Q60.0256 754.77 60.0256 751.683 Q60.0256 747.545 58.6251 745.317 Q57.1929 743.089 54.6147 743.089 Q52.2276 743.089 50.9545 744.712 Q49.6813 746.304 48.5037 751.746 L48.0262 753.783 Q46.8804 759.226 44.5251 761.645 Q42.138 764.064 38.0002 764.064 Q32.9713 764.064 30.2341 760.499 Q27.4968 756.934 27.4968 750.378 Q27.4968 747.131 27.9743 744.267 Q28.4517 741.402 29.4065 738.983 Z" fill="#000000" fill-rule="nonzero" fill-opacity="1" /><path clip-path="url(#clip890)" d="M28.3562 727.748 L28.3562 721.891 L64.0042 721.891 L64.0042 727.748 L28.3562 727.748 M14.479 727.748 L14.479 721.891 L21.895 721.891 L21.895 727.748 L14.479 727.748 Z" fill="#000000" fill-rule="nonzero" fill-opacity="1" /><path clip-path="url(#clip890)" d="M18.2347 703.844 L28.3562 703.844 L28.3562 691.781 L32.9077 691.781 L32.9077 703.844 L52.2594 703.844 Q56.6199 703.844 57.8613 702.667 Q59.1026 701.457 59.1026 697.797 L59.1026 691.781 L64.0042 691.781 L64.0042 697.797 Q64.0042 704.576 61.4897 707.154 Q58.9434 709.733 52.2594 709.733 L32.9077 709.733 L32.9077 714.029 L28.3562 714.029 L28.3562 709.733 L18.2347 709.733 L18.2347 703.844 Z" fill="#000000" fill-rule="nonzero" fill-opacity="1" /><path clip-path="url(#clip890)" d="M67.3143 669.247 Q73.68 671.729 75.6216 674.085 Q77.5631 676.44 77.5631 680.387 L77.5631 685.065 L72.6615 685.065 L72.6615 681.628 Q72.6615 679.209 71.5157 677.872 Q70.3699 676.535 66.1048 674.912 L63.4312 673.862 L28.3562 688.28 L28.3562 682.074 L56.238 670.934 L28.3562 659.794 L28.3562 653.587 L67.3143 669.247 Z" fill="#000000" fill-rule="nonzero" fill-opacity="1" /><path clip-path="url(#clip890)" d="M1054.78 12.096 L1093.02 12.096 L1093.02 18.9825 L1062.96 18.9825 L1062.96 36.8875 L1091.77 36.8875 L1091.77 43.7741 L1062.96 43.7741 L1062.96 65.6895 L1093.75 65.6895 L1093.75 72.576 L1054.78 72.576 L1054.78 12.096 Z" fill="#000000" fill-rule="nonzero" fill-opacity="1" /><path clip-path="url(#clip890)" d="M1144.59 45.1919 L1144.59 72.576 L1137.14 72.576 L1137.14 45.4349 Q1137.14 38.994 1134.62 35.7938 Q1132.11 32.5936 1127.09 32.5936 Q1121.05 32.5936 1117.57 36.4419 Q1114.09 40.2903 1114.09 46.9338 L1114.09 72.576 L1106.59 72.576 L1106.59 27.2059 L1114.09 27.2059 L1114.09 34.2544 Q1116.76 30.163 1120.37 28.1376 Q1124.01 26.1121 1128.75 26.1121 Q1136.57 26.1121 1140.58 30.9732 Q1144.59 35.7938 1144.59 45.1919 Z" fill="#000000" fill-rule="nonzero" fill-opacity="1" /><path clip-path="url(#clip890)" d="M1198.26 48.0275 L1198.26 51.6733 L1163.99 51.6733 Q1164.48 59.3701 1168.61 63.421 Q1172.78 67.4314 1180.2 67.4314 Q1184.49 67.4314 1188.5 66.3781 Q1192.55 65.3249 1196.52 63.2184 L1196.52 70.267 Q1192.51 71.9684 1188.3 72.8596 Q1184.09 73.7508 1179.75 73.7508 Q1168.9 73.7508 1162.54 67.4314 Q1156.22 61.1119 1156.22 50.3365 Q1156.22 39.1965 1162.21 32.6746 Q1168.25 26.1121 1178.46 26.1121 Q1187.61 26.1121 1192.92 32.0264 Q1198.26 37.9003 1198.26 48.0275 M1190.81 45.84 Q1190.73 39.7232 1187.37 36.0774 Q1184.05 32.4315 1178.54 32.4315 Q1172.3 32.4315 1168.53 35.9558 Q1164.8 39.4801 1164.24 45.8805 L1190.81 45.84 Z" fill="#000000" fill-rule="nonzero" fill-opacity="1" /><path clip-path="url(#clip890)" d="M1236.79 34.1734 Q1235.53 33.4443 1234.03 33.1202 Q1232.58 32.7556 1230.79 32.7556 Q1224.47 32.7556 1221.07 36.8875 Q1217.71 40.9789 1217.71 48.6757 L1217.71 72.576 L1210.21 72.576 L1210.21 27.2059 L1217.71 27.2059 L1217.71 34.2544 Q1220.06 30.1225 1223.83 28.1376 Q1227.59 26.1121 1232.98 26.1121 Q1233.75 26.1121 1234.68 26.2337 Q1235.61 26.3147 1236.75 26.5172 L1236.79 34.1734 Z" fill="#000000" fill-rule="nonzero" fill-opacity="1" /><path clip-path="url(#clip890)" d="M1273 49.3643 Q1273 41.2625 1269.64 36.8065 Q1266.32 32.3505 1260.28 32.3505 Q1254.29 32.3505 1250.93 36.8065 Q1247.6 41.2625 1247.6 49.3643 Q1247.6 57.4256 1250.93 61.8816 Q1254.29 66.3376 1260.28 66.3376 Q1266.32 66.3376 1269.64 61.8816 Q1273 57.4256 1273 49.3643 M1280.46 66.9452 Q1280.46 78.5308 1275.31 84.1616 Q1270.17 89.8329 1259.55 89.8329 Q1255.63 89.8329 1252.14 89.2252 Q1248.66 88.6581 1245.38 87.4428 L1245.38 80.1917 Q1248.66 81.9741 1251.86 82.8248 Q1255.06 83.6755 1258.38 83.6755 Q1265.71 83.6755 1269.36 79.8271 Q1273 76.0193 1273 68.282 L1273 64.5957 Q1270.69 68.6061 1267.09 70.5911 Q1263.48 72.576 1258.46 72.576 Q1250.12 72.576 1245.01 66.2161 Q1239.91 59.8562 1239.91 49.3643 Q1239.91 38.832 1245.01 32.472 Q1250.12 26.1121 1258.46 26.1121 Q1263.48 26.1121 1267.09 28.0971 Q1270.69 30.082 1273 34.0924 L1273 27.2059 L1280.46 27.2059 L1280.46 66.9452 Z" fill="#000000" fill-rule="nonzero" fill-opacity="1" /><path clip-path="url(#clip890)" d="M1314.69 76.7889 Q1311.53 84.8907 1308.53 87.3618 Q1305.53 89.8329 1300.51 89.8329 L1294.55 89.8329 L1294.55 83.5945 L1298.93 83.5945 Q1302.01 83.5945 1303.71 82.1361 Q1305.41 80.6778 1307.48 75.2496 L1308.81 71.8468 L1290.46 27.2059 L1298.36 27.2059 L1312.54 62.6918 L1326.72 27.2059 L1334.62 27.2059 L1314.69 76.7889 Z" fill="#000000" fill-rule="nonzero" fill-opacity="1" /><path clip-path="url(#clip890)" d="M1379.79 18.8205 L1379.79 41.5461 L1390.07 41.5461 Q1395.79 41.5461 1398.91 38.5889 Q1402.03 35.6318 1402.03 30.163 Q1402.03 24.7348 1398.91 21.7777 Q1395.79 18.8205 1390.07 18.8205 L1379.79 18.8205 M1371.6 12.096 L1390.07 12.096 Q1400.24 12.096 1405.43 16.714 Q1410.65 21.2916 1410.65 30.163 Q1410.65 39.1155 1405.43 43.6931 Q1400.24 48.2706 1390.07 48.2706 L1379.79 48.2706 L1379.79 72.576 L1371.6 72.576 L1371.6 12.096 Z" fill="#000000" fill-rule="nonzero" fill-opacity="1" /><path clip-path="url(#clip890)" d="M1421.31 9.54393 L1428.76 9.54393 L1428.76 72.576 L1421.31 72.576 L1421.31 9.54393 Z" fill="#000000" fill-rule="nonzero" fill-opacity="1" /><path clip-path="url(#clip890)" d="M1461.94 32.4315 Q1455.94 32.4315 1452.46 37.1306 Q1448.98 41.7891 1448.98 49.9314 Q1448.98 58.0738 1452.42 62.7728 Q1455.9 67.4314 1461.94 67.4314 Q1467.89 67.4314 1471.38 62.7323 Q1474.86 58.0333 1474.86 49.9314 Q1474.86 41.8701 1471.38 37.1711 Q1467.89 32.4315 1461.94 32.4315 M1461.94 26.1121 Q1471.66 26.1121 1477.21 32.4315 Q1482.76 38.7509 1482.76 49.9314 Q1482.76 61.0714 1477.21 67.4314 Q1471.66 73.7508 1461.94 73.7508 Q1452.18 73.7508 1446.63 67.4314 Q1441.12 61.0714 1441.12 49.9314 Q1441.12 38.7509 1446.63 32.4315 Q1452.18 26.1121 1461.94 26.1121 Z" fill="#000000" fill-rule="nonzero" fill-opacity="1" /><path clip-path="url(#clip890)" d="M1502.49 14.324 L1502.49 27.2059 L1517.84 27.2059 L1517.84 32.9987 L1502.49 32.9987 L1502.49 57.6282 Q1502.49 63.1779 1503.99 64.7578 Q1505.53 66.3376 1510.18 66.3376 L1517.84 66.3376 L1517.84 72.576 L1510.18 72.576 Q1501.56 72.576 1498.27 69.3758 Q1494.99 66.1351 1494.99 57.6282 L1494.99 32.9987 L1489.52 32.9987 L1489.52 27.2059 L1494.99 27.2059 L1494.99 14.324 L1502.49 14.324 Z" fill="#000000" fill-rule="nonzero" fill-opacity="1" /><path clip-path="url(#clip892)" d="M337.179 1417.2 L337.179 1423.18 L394.702 1423.18 L394.702 1417.2 L337.179 1417.2 L337.179 1417.2  Z" fill="#009af9" fill-rule="evenodd" fill-opacity="0.5"/>
<polyline clip-path="url(#clip892)" style="stroke:#000000; stroke-linecap:round; stroke-linejoin:round; stroke-width:4; stroke-opacity:1; fill:none" points="337.179,1417.2 337.179,1423.18 394.702,1423.18 394.702,1417.2 337.179,1417.2 "/>
<path clip-path="url(#clip892)" d="M394.702 1421.19 L394.702 1423.18 L452.225 1423.18 L452.225 1421.19 L394.702 1421.19 L394.702 1421.19  Z" fill="#009af9" fill-rule="evenodd" fill-opacity="0.5"/>
<polyline clip-path="url(#clip892)" style="stroke:#000000; stroke-linecap:round; stroke-linejoin:round; stroke-width:4; stroke-opacity:1; fill:none" points="394.702,1421.19 394.702,1423.18 452.225,1423.18 452.225,1421.19 394.702,1421.19 "/>
<path clip-path="url(#clip892)" d="M452.225 1417.2 L452.225 1423.18 L509.748 1423.18 L509.748 1417.2 L452.225 1417.2 L452.225 1417.2  Z" fill="#009af9" fill-rule="evenodd" fill-opacity="0.5"/>
<polyline clip-path="url(#clip892)" style="stroke:#000000; stroke-linecap:round; stroke-linejoin:round; stroke-width:4; stroke-opacity:1; fill:none" points="452.225,1417.2 452.225,1423.18 509.748,1423.18 509.748,1417.2 452.225,1417.2 "/>
<path clip-path="url(#clip892)" d="M509.748 1417.2 L509.748 1423.18 L567.272 1423.18 L567.272 1417.2 L509.748 1417.2 L509.748 1417.2  Z" fill="#009af9" fill-rule="evenodd" fill-opacity="0.5"/>
<polyline clip-path="url(#clip892)" style="stroke:#000000; stroke-linecap:round; stroke-linejoin:round; stroke-width:4; stroke-opacity:1; fill:none" points="509.748,1417.2 509.748,1423.18 567.272,1423.18 567.272,1417.2 509.748,1417.2 "/>
<path clip-path="url(#clip892)" d="M567.272 1379.32 L567.272 1423.18 L624.795 1423.18 L624.795 1379.32 L567.272 1379.32 L567.272 1379.32  Z" fill="#009af9" fill-rule="evenodd" fill-opacity="0.5"/>
<polyline clip-path="url(#clip892)" style="stroke:#000000; stroke-linecap:round; stroke-linejoin:round; stroke-width:4; stroke-opacity:1; fill:none" points="567.272,1379.32 567.272,1423.18 624.795,1423.18 624.795,1379.32 567.272,1379.32 "/>
<path clip-path="url(#clip892)" d="M624.795 1375.34 L624.795 1423.18 L682.318 1423.18 L682.318 1375.34 L624.795 1375.34 L624.795 1375.34  Z" fill="#009af9" fill-rule="evenodd" fill-opacity="0.5"/>
<polyline clip-path="url(#clip892)" style="stroke:#000000; stroke-linecap:round; stroke-linejoin:round; stroke-width:4; stroke-opacity:1; fill:none" points="624.795,1375.34 624.795,1423.18 682.318,1423.18 682.318,1375.34 624.795,1375.34 "/>
<path clip-path="url(#clip892)" d="M682.318 1363.38 L682.318 1423.18 L739.841 1423.18 L739.841 1363.38 L682.318 1363.38 L682.318 1363.38  Z" fill="#009af9" fill-rule="evenodd" fill-opacity="0.5"/>
<polyline clip-path="url(#clip892)" style="stroke:#000000; stroke-linecap:round; stroke-linejoin:round; stroke-width:4; stroke-opacity:1; fill:none" points="682.318,1363.38 682.318,1423.18 739.841,1423.18 739.841,1363.38 682.318,1363.38 "/>
<path clip-path="url(#clip892)" d="M739.841 1317.53 L739.841 1423.18 L797.364 1423.18 L797.364 1317.53 L739.841 1317.53 L739.841 1317.53  Z" fill="#009af9" fill-rule="evenodd" fill-opacity="0.5"/>
<polyline clip-path="url(#clip892)" style="stroke:#000000; stroke-linecap:round; stroke-linejoin:round; stroke-width:4; stroke-opacity:1; fill:none" points="739.841,1317.53 739.841,1423.18 797.364,1423.18 797.364,1317.53 739.841,1317.53 "/>
<path clip-path="url(#clip892)" d="M797.364 1227.83 L797.364 1423.18 L854.887 1423.18 L854.887 1227.83 L797.364 1227.83 L797.364 1227.83  Z" fill="#009af9" fill-rule="evenodd" fill-opacity="0.5"/>
<polyline clip-path="url(#clip892)" style="stroke:#000000; stroke-linecap:round; stroke-linejoin:round; stroke-width:4; stroke-opacity:1; fill:none" points="797.364,1227.83 797.364,1423.18 854.887,1423.18 854.887,1227.83 797.364,1227.83 "/>
<path clip-path="url(#clip892)" d="M854.887 1253.74 L854.887 1423.18 L912.411 1423.18 L912.411 1253.74 L854.887 1253.74 L854.887 1253.74  Z" fill="#009af9" fill-rule="evenodd" fill-opacity="0.5"/>
<polyline clip-path="url(#clip892)" style="stroke:#000000; stroke-linecap:round; stroke-linejoin:round; stroke-width:4; stroke-opacity:1; fill:none" points="854.887,1253.74 854.887,1423.18 912.411,1423.18 912.411,1253.74 854.887,1253.74 "/>
<path clip-path="url(#clip892)" d="M912.411 1134.13 L912.411 1423.18 L969.934 1423.18 L969.934 1134.13 L912.411 1134.13 L912.411 1134.13  Z" fill="#009af9" fill-rule="evenodd" fill-opacity="0.5"/>
<polyline clip-path="url(#clip892)" style="stroke:#000000; stroke-linecap:round; stroke-linejoin:round; stroke-width:4; stroke-opacity:1; fill:none" points="912.411,1134.13 912.411,1423.18 969.934,1423.18 969.934,1134.13 912.411,1134.13 "/>
<path clip-path="url(#clip892)" d="M969.934 1124.17 L969.934 1423.18 L1027.46 1423.18 L1027.46 1124.17 L969.934 1124.17 L969.934 1124.17  Z" fill="#009af9" fill-rule="evenodd" fill-opacity="0.5"/>
<polyline clip-path="url(#clip892)" style="stroke:#000000; stroke-linecap:round; stroke-linejoin:round; stroke-width:4; stroke-opacity:1; fill:none" points="969.934,1124.17 969.934,1423.18 1027.46,1423.18 1027.46,1124.17 969.934,1124.17 "/>
<path clip-path="url(#clip892)" d="M1027.46 990.608 L1027.46 1423.18 L1084.98 1423.18 L1084.98 990.608 L1027.46 990.608 L1027.46 990.608  Z" fill="#009af9" fill-rule="evenodd" fill-opacity="0.5"/>
<polyline clip-path="url(#clip892)" style="stroke:#000000; stroke-linecap:round; stroke-linejoin:round; stroke-width:4; stroke-opacity:1; fill:none" points="1027.46,990.608 1027.46,1423.18 1084.98,1423.18 1084.98,990.608 1027.46,990.608 "/>
<path clip-path="url(#clip892)" d="M1084.98 890.938 L1084.98 1423.18 L1142.5 1423.18 L1142.5 890.938 L1084.98 890.938 L1084.98 890.938  Z" fill="#009af9" fill-rule="evenodd" fill-opacity="0.5"/>
<polyline clip-path="url(#clip892)" style="stroke:#000000; stroke-linecap:round; stroke-linejoin:round; stroke-width:4; stroke-opacity:1; fill:none" points="1084.98,890.938 1084.98,1423.18 1142.5,1423.18 1142.5,890.938 1084.98,890.938 "/>
<path clip-path="url(#clip892)" d="M1142.5 829.142 L1142.5 1423.18 L1200.03 1423.18 L1200.03 829.142 L1142.5 829.142 L1142.5 829.142  Z" fill="#009af9" fill-rule="evenodd" fill-opacity="0.5"/>
<polyline clip-path="url(#clip892)" style="stroke:#000000; stroke-linecap:round; stroke-linejoin:round; stroke-width:4; stroke-opacity:1; fill:none" points="1142.5,829.142 1142.5,1423.18 1200.03,1423.18 1200.03,829.142 1142.5,829.142 "/>
<path clip-path="url(#clip892)" d="M1200.03 819.175 L1200.03 1423.18 L1257.55 1423.18 L1257.55 819.175 L1200.03 819.175 L1200.03 819.175  Z" fill="#009af9" fill-rule="evenodd" fill-opacity="0.5"/>
<polyline clip-path="url(#clip892)" style="stroke:#000000; stroke-linecap:round; stroke-linejoin:round; stroke-width:4; stroke-opacity:1; fill:none" points="1200.03,819.175 1200.03,1423.18 1257.55,1423.18 1257.55,819.175 1200.03,819.175 "/>
<path clip-path="url(#clip892)" d="M1257.55 769.339 L1257.55 1423.18 L1315.07 1423.18 L1315.07 769.339 L1257.55 769.339 L1257.55 769.339  Z" fill="#009af9" fill-rule="evenodd" fill-opacity="0.5"/>
<polyline clip-path="url(#clip892)" style="stroke:#000000; stroke-linecap:round; stroke-linejoin:round; stroke-width:4; stroke-opacity:1; fill:none" points="1257.55,769.339 1257.55,1423.18 1315.07,1423.18 1315.07,769.339 1257.55,769.339 "/>
<path clip-path="url(#clip892)" d="M1315.07 839.109 L1315.07 1423.18 L1372.6 1423.18 L1372.6 839.109 L1315.07 839.109 L1315.07 839.109  Z" fill="#009af9" fill-rule="evenodd" fill-opacity="0.5"/>
<polyline clip-path="url(#clip892)" style="stroke:#000000; stroke-linecap:round; stroke-linejoin:round; stroke-width:4; stroke-opacity:1; fill:none" points="1315.07,839.109 1315.07,1423.18 1372.6,1423.18 1372.6,839.109 1315.07,839.109 "/>
<path clip-path="url(#clip892)" d="M1372.6 771.333 L1372.6 1423.18 L1430.12 1423.18 L1430.12 771.333 L1372.6 771.333 L1372.6 771.333  Z" fill="#009af9" fill-rule="evenodd" fill-opacity="0.5"/>
<polyline clip-path="url(#clip892)" style="stroke:#000000; stroke-linecap:round; stroke-linejoin:round; stroke-width:4; stroke-opacity:1; fill:none" points="1372.6,771.333 1372.6,1423.18 1430.12,1423.18 1430.12,771.333 1372.6,771.333 "/>
<path clip-path="url(#clip892)" d="M1430.12 928.812 L1430.12 1423.18 L1487.64 1423.18 L1487.64 928.812 L1430.12 928.812 L1430.12 928.812  Z" fill="#009af9" fill-rule="evenodd" fill-opacity="0.5"/>
<polyline clip-path="url(#clip892)" style="stroke:#000000; stroke-linecap:round; stroke-linejoin:round; stroke-width:4; stroke-opacity:1; fill:none" points="1430.12,928.812 1430.12,1423.18 1487.64,1423.18 1487.64,928.812 1430.12,928.812 "/>
<path clip-path="url(#clip892)" d="M1487.64 914.859 L1487.64 1423.18 L1545.17 1423.18 L1545.17 914.859 L1487.64 914.859 L1487.64 914.859  Z" fill="#009af9" fill-rule="evenodd" fill-opacity="0.5"/>
<polyline clip-path="url(#clip892)" style="stroke:#000000; stroke-linecap:round; stroke-linejoin:round; stroke-width:4; stroke-opacity:1; fill:none" points="1487.64,914.859 1487.64,1423.18 1545.17,1423.18 1545.17,914.859 1487.64,914.859 "/>
<path clip-path="url(#clip892)" d="M1545.17 1006.56 L1545.17 1423.18 L1602.69 1423.18 L1602.69 1006.56 L1545.17 1006.56 L1545.17 1006.56  Z" fill="#009af9" fill-rule="evenodd" fill-opacity="0.5"/>
<polyline clip-path="url(#clip892)" style="stroke:#000000; stroke-linecap:round; stroke-linejoin:round; stroke-width:4; stroke-opacity:1; fill:none" points="1545.17,1006.56 1545.17,1423.18 1602.69,1423.18 1602.69,1006.56 1545.17,1006.56 "/>
<path clip-path="url(#clip892)" d="M1602.69 1090.28 L1602.69 1423.18 L1660.21 1423.18 L1660.21 1090.28 L1602.69 1090.28 L1602.69 1090.28  Z" fill="#009af9" fill-rule="evenodd" fill-opacity="0.5"/>
<polyline clip-path="url(#clip892)" style="stroke:#000000; stroke-linecap:round; stroke-linejoin:round; stroke-width:4; stroke-opacity:1; fill:none" points="1602.69,1090.28 1602.69,1423.18 1660.21,1423.18 1660.21,1090.28 1602.69,1090.28 "/>
<path clip-path="url(#clip892)" d="M1660.21 1170.02 L1660.21 1423.18 L1717.73 1423.18 L1717.73 1170.02 L1660.21 1170.02 L1660.21 1170.02  Z" fill="#009af9" fill-rule="evenodd" fill-opacity="0.5"/>
<polyline clip-path="url(#clip892)" style="stroke:#000000; stroke-linecap:round; stroke-linejoin:round; stroke-width:4; stroke-opacity:1; fill:none" points="1660.21,1170.02 1660.21,1423.18 1717.73,1423.18 1717.73,1170.02 1660.21,1170.02 "/>
<path clip-path="url(#clip892)" d="M1717.73 1223.84 L1717.73 1423.18 L1775.26 1423.18 L1775.26 1223.84 L1717.73 1223.84 L1717.73 1223.84  Z" fill="#009af9" fill-rule="evenodd" fill-opacity="0.5"/>
<polyline clip-path="url(#clip892)" style="stroke:#000000; stroke-linecap:round; stroke-linejoin:round; stroke-width:4; stroke-opacity:1; fill:none" points="1717.73,1223.84 1717.73,1423.18 1775.26,1423.18 1775.26,1223.84 1717.73,1223.84 "/>
<path clip-path="url(#clip892)" d="M1775.26 1233.81 L1775.26 1423.18 L1832.78 1423.18 L1832.78 1233.81 L1775.26 1233.81 L1775.26 1233.81  Z" fill="#009af9" fill-rule="evenodd" fill-opacity="0.5"/>
<polyline clip-path="url(#clip892)" style="stroke:#000000; stroke-linecap:round; stroke-linejoin:round; stroke-width:4; stroke-opacity:1; fill:none" points="1775.26,1233.81 1775.26,1423.18 1832.78,1423.18 1832.78,1233.81 1775.26,1233.81 "/>
<path clip-path="url(#clip892)" d="M1832.78 1309.56 L1832.78 1423.18 L1890.3 1423.18 L1890.3 1309.56 L1832.78 1309.56 L1832.78 1309.56  Z" fill="#009af9" fill-rule="evenodd" fill-opacity="0.5"/>
<polyline clip-path="url(#clip892)" style="stroke:#000000; stroke-linecap:round; stroke-linejoin:round; stroke-width:4; stroke-opacity:1; fill:none" points="1832.78,1309.56 1832.78,1423.18 1890.3,1423.18 1890.3,1309.56 1832.78,1309.56 "/>
<path clip-path="url(#clip892)" d="M1890.3 1351.42 L1890.3 1423.18 L1947.83 1423.18 L1947.83 1351.42 L1890.3 1351.42 L1890.3 1351.42  Z" fill="#009af9" fill-rule="evenodd" fill-opacity="0.5"/>
<polyline clip-path="url(#clip892)" style="stroke:#000000; stroke-linecap:round; stroke-linejoin:round; stroke-width:4; stroke-opacity:1; fill:none" points="1890.3,1351.42 1890.3,1423.18 1947.83,1423.18 1947.83,1351.42 1890.3,1351.42 "/>
<path clip-path="url(#clip892)" d="M1947.83 1387.3 L1947.83 1423.18 L2005.35 1423.18 L2005.35 1387.3 L1947.83 1387.3 L1947.83 1387.3  Z" fill="#009af9" fill-rule="evenodd" fill-opacity="0.5"/>
<polyline clip-path="url(#clip892)" style="stroke:#000000; stroke-linecap:round; stroke-linejoin:round; stroke-width:4; stroke-opacity:1; fill:none" points="1947.83,1387.3 1947.83,1423.18 2005.35,1423.18 2005.35,1387.3 1947.83,1387.3 "/>
<path clip-path="url(#clip892)" d="M2005.35 1385.3 L2005.35 1423.18 L2062.87 1423.18 L2062.87 1385.3 L2005.35 1385.3 L2005.35 1385.3  Z" fill="#009af9" fill-rule="evenodd" fill-opacity="0.5"/>
<polyline clip-path="url(#clip892)" style="stroke:#000000; stroke-linecap:round; stroke-linejoin:round; stroke-width:4; stroke-opacity:1; fill:none" points="2005.35,1385.3 2005.35,1423.18 2062.87,1423.18 2062.87,1385.3 2005.35,1385.3 "/>
<path clip-path="url(#clip892)" d="M2062.87 1399.26 L2062.87 1423.18 L2120.4 1423.18 L2120.4 1399.26 L2062.87 1399.26 L2062.87 1399.26  Z" fill="#009af9" fill-rule="evenodd" fill-opacity="0.5"/>
<polyline clip-path="url(#clip892)" style="stroke:#000000; stroke-linecap:round; stroke-linejoin:round; stroke-width:4; stroke-opacity:1; fill:none" points="2062.87,1399.26 2062.87,1423.18 2120.4,1423.18 2120.4,1399.26 2062.87,1399.26 "/>
<path clip-path="url(#clip892)" d="M2120.4 1413.21 L2120.4 1423.18 L2177.92 1423.18 L2177.92 1413.21 L2120.4 1413.21 L2120.4 1413.21  Z" fill="#009af9" fill-rule="evenodd" fill-opacity="0.5"/>
<polyline clip-path="url(#clip892)" style="stroke:#000000; stroke-linecap:round; stroke-linejoin:round; stroke-width:4; stroke-opacity:1; fill:none" points="2120.4,1413.21 2120.4,1423.18 2177.92,1423.18 2177.92,1413.21 2120.4,1413.21 "/>
<path clip-path="url(#clip892)" d="M2177.92 1419.19 L2177.92 1423.18 L2235.44 1423.18 L2235.44 1419.19 L2177.92 1419.19 L2177.92 1419.19  Z" fill="#009af9" fill-rule="evenodd" fill-opacity="0.5"/>
<polyline clip-path="url(#clip892)" style="stroke:#000000; stroke-linecap:round; stroke-linejoin:round; stroke-width:4; stroke-opacity:1; fill:none" points="2177.92,1419.19 2177.92,1423.18 2235.44,1423.18 2235.44,1419.19 2177.92,1419.19 "/>
<circle clip-path="url(#clip892)" style="fill:#009af9; stroke:none; fill-opacity:0" cx="365.941" cy="1417.2" r="2"/>
<circle clip-path="url(#clip892)" style="fill:#009af9; stroke:none; fill-opacity:0" cx="423.464" cy="1421.19" r="2"/>
<circle clip-path="url(#clip892)" style="fill:#009af9; stroke:none; fill-opacity:0" cx="480.987" cy="1417.2" r="2"/>
<circle clip-path="url(#clip892)" style="fill:#009af9; stroke:none; fill-opacity:0" cx="538.51" cy="1417.2" r="2"/>
<circle clip-path="url(#clip892)" style="fill:#009af9; stroke:none; fill-opacity:0" cx="596.033" cy="1379.32" r="2"/>
<circle clip-path="url(#clip892)" style="fill:#009af9; stroke:none; fill-opacity:0" cx="653.556" cy="1375.34" r="2"/>
<circle clip-path="url(#clip892)" style="fill:#009af9; stroke:none; fill-opacity:0" cx="711.08" cy="1363.38" r="2"/>
<circle clip-path="url(#clip892)" style="fill:#009af9; stroke:none; fill-opacity:0" cx="768.603" cy="1317.53" r="2"/>
<circle clip-path="url(#clip892)" style="fill:#009af9; stroke:none; fill-opacity:0" cx="826.126" cy="1227.83" r="2"/>
<circle clip-path="url(#clip892)" style="fill:#009af9; stroke:none; fill-opacity:0" cx="883.649" cy="1253.74" r="2"/>
<circle clip-path="url(#clip892)" style="fill:#009af9; stroke:none; fill-opacity:0" cx="941.172" cy="1134.13" r="2"/>
<circle clip-path="url(#clip892)" style="fill:#009af9; stroke:none; fill-opacity:0" cx="998.695" cy="1124.17" r="2"/>
<circle clip-path="url(#clip892)" style="fill:#009af9; stroke:none; fill-opacity:0" cx="1056.22" cy="990.608" r="2"/>
<circle clip-path="url(#clip892)" style="fill:#009af9; stroke:none; fill-opacity:0" cx="1113.74" cy="890.938" r="2"/>
<circle clip-path="url(#clip892)" style="fill:#009af9; stroke:none; fill-opacity:0" cx="1171.26" cy="829.142" r="2"/>
<circle clip-path="url(#clip892)" style="fill:#009af9; stroke:none; fill-opacity:0" cx="1228.79" cy="819.175" r="2"/>
<circle clip-path="url(#clip892)" style="fill:#009af9; stroke:none; fill-opacity:0" cx="1286.31" cy="769.339" r="2"/>
<circle clip-path="url(#clip892)" style="fill:#009af9; stroke:none; fill-opacity:0" cx="1343.83" cy="839.109" r="2"/>
<circle clip-path="url(#clip892)" style="fill:#009af9; stroke:none; fill-opacity:0" cx="1401.36" cy="771.333" r="2"/>
<circle clip-path="url(#clip892)" style="fill:#009af9; stroke:none; fill-opacity:0" cx="1458.88" cy="928.812" r="2"/>
<circle clip-path="url(#clip892)" style="fill:#009af9; stroke:none; fill-opacity:0" cx="1516.4" cy="914.859" r="2"/>
<circle clip-path="url(#clip892)" style="fill:#009af9; stroke:none; fill-opacity:0" cx="1573.93" cy="1006.56" r="2"/>
<circle clip-path="url(#clip892)" style="fill:#009af9; stroke:none; fill-opacity:0" cx="1631.45" cy="1090.28" r="2"/>
<circle clip-path="url(#clip892)" style="fill:#009af9; stroke:none; fill-opacity:0" cx="1688.97" cy="1170.02" r="2"/>
<circle clip-path="url(#clip892)" style="fill:#009af9; stroke:none; fill-opacity:0" cx="1746.5" cy="1223.84" r="2"/>
<circle clip-path="url(#clip892)" style="fill:#009af9; stroke:none; fill-opacity:0" cx="1804.02" cy="1233.81" r="2"/>
<circle clip-path="url(#clip892)" style="fill:#009af9; stroke:none; fill-opacity:0" cx="1861.54" cy="1309.56" r="2"/>
<circle clip-path="url(#clip892)" style="fill:#009af9; stroke:none; fill-opacity:0" cx="1919.07" cy="1351.42" r="2"/>
<circle clip-path="url(#clip892)" style="fill:#009af9; stroke:none; fill-opacity:0" cx="1976.59" cy="1387.3" r="2"/>
<circle clip-path="url(#clip892)" style="fill:#009af9; stroke:none; fill-opacity:0" cx="2034.11" cy="1385.3" r="2"/>
<circle clip-path="url(#clip892)" style="fill:#009af9; stroke:none; fill-opacity:0" cx="2091.64" cy="1399.26" r="2"/>
<circle clip-path="url(#clip892)" style="fill:#009af9; stroke:none; fill-opacity:0" cx="2149.16" cy="1413.21" r="2"/>
<circle clip-path="url(#clip892)" style="fill:#009af9; stroke:none; fill-opacity:0" cx="2206.68" cy="1419.19" r="2"/>
<path clip-path="url(#clip892)" d="M826.126 1407.23 L826.126 1423.18 L854.887 1423.18 L854.887 1407.23 L826.126 1407.23 L826.126 1407.23  Z" fill="#e26f46" fill-rule="evenodd" fill-opacity="0.5"/>
<polyline clip-path="url(#clip892)" style="stroke:#000000; stroke-linecap:round; stroke-linejoin:round; stroke-width:4; stroke-opacity:1; fill:none" points="826.126,1407.23 826.126,1423.18 854.887,1423.18 854.887,1407.23 826.126,1407.23 "/>
<path clip-path="url(#clip892)" d="M854.887 1403.25 L854.887 1423.18 L883.649 1423.18 L883.649 1403.25 L854.887 1403.25 L854.887 1403.25  Z" fill="#e26f46" fill-rule="evenodd" fill-opacity="0.5"/>
<polyline clip-path="url(#clip892)" style="stroke:#000000; stroke-linecap:round; stroke-linejoin:round; stroke-width:4; stroke-opacity:1; fill:none" points="854.887,1403.25 854.887,1423.18 883.649,1423.18 883.649,1403.25 854.887,1403.25 "/>
<path clip-path="url(#clip892)" d="M883.649 1399.26 L883.649 1423.18 L912.411 1423.18 L912.411 1399.26 L883.649 1399.26 L883.649 1399.26  Z" fill="#e26f46" fill-rule="evenodd" fill-opacity="0.5"/>
<polyline clip-path="url(#clip892)" style="stroke:#000000; stroke-linecap:round; stroke-linejoin:round; stroke-width:4; stroke-opacity:1; fill:none" points="883.649,1399.26 883.649,1423.18 912.411,1423.18 912.411,1399.26 883.649,1399.26 "/>
<path clip-path="url(#clip892)" d="M912.411 1403.25 L912.411 1423.18 L941.172 1423.18 L941.172 1403.25 L912.411 1403.25 L912.411 1403.25  Z" fill="#e26f46" fill-rule="evenodd" fill-opacity="0.5"/>
<polyline clip-path="url(#clip892)" style="stroke:#000000; stroke-linecap:round; stroke-linejoin:round; stroke-width:4; stroke-opacity:1; fill:none" points="912.411,1403.25 912.411,1423.18 941.172,1423.18 941.172,1403.25 912.411,1403.25 "/>
<path clip-path="url(#clip892)" d="M941.172 1367.36 L941.172 1423.18 L969.934 1423.18 L969.934 1367.36 L941.172 1367.36 L941.172 1367.36  Z" fill="#e26f46" fill-rule="evenodd" fill-opacity="0.5"/>
<polyline clip-path="url(#clip892)" style="stroke:#000000; stroke-linecap:round; stroke-linejoin:round; stroke-width:4; stroke-opacity:1; fill:none" points="941.172,1367.36 941.172,1423.18 969.934,1423.18 969.934,1367.36 941.172,1367.36 "/>
<path clip-path="url(#clip892)" d="M969.934 1331.48 L969.934 1423.18 L998.695 1423.18 L998.695 1331.48 L969.934 1331.48 L969.934 1331.48  Z" fill="#e26f46" fill-rule="evenodd" fill-opacity="0.5"/>
<polyline clip-path="url(#clip892)" style="stroke:#000000; stroke-linecap:round; stroke-linejoin:round; stroke-width:4; stroke-opacity:1; fill:none" points="969.934,1331.48 969.934,1423.18 998.695,1423.18 998.695,1331.48 969.934,1331.48 "/>
<path clip-path="url(#clip892)" d="M998.695 1279.65 L998.695 1423.18 L1027.46 1423.18 L1027.46 1279.65 L998.695 1279.65 L998.695 1279.65  Z" fill="#e26f46" fill-rule="evenodd" fill-opacity="0.5"/>
<polyline clip-path="url(#clip892)" style="stroke:#000000; stroke-linecap:round; stroke-linejoin:round; stroke-width:4; stroke-opacity:1; fill:none" points="998.695,1279.65 998.695,1423.18 1027.46,1423.18 1027.46,1279.65 998.695,1279.65 "/>
<path clip-path="url(#clip892)" d="M1027.46 1239.79 L1027.46 1423.18 L1056.22 1423.18 L1056.22 1239.79 L1027.46 1239.79 L1027.46 1239.79  Z" fill="#e26f46" fill-rule="evenodd" fill-opacity="0.5"/>
<polyline clip-path="url(#clip892)" style="stroke:#000000; stroke-linecap:round; stroke-linejoin:round; stroke-width:4; stroke-opacity:1; fill:none" points="1027.46,1239.79 1027.46,1423.18 1056.22,1423.18 1056.22,1239.79 1027.46,1239.79 "/>
<path clip-path="url(#clip892)" d="M1056.22 1100.25 L1056.22 1423.18 L1084.98 1423.18 L1084.98 1100.25 L1056.22 1100.25 L1056.22 1100.25  Z" fill="#e26f46" fill-rule="evenodd" fill-opacity="0.5"/>
<polyline clip-path="url(#clip892)" style="stroke:#000000; stroke-linecap:round; stroke-linejoin:round; stroke-width:4; stroke-opacity:1; fill:none" points="1056.22,1100.25 1056.22,1423.18 1084.98,1423.18 1084.98,1100.25 1056.22,1100.25 "/>
<path clip-path="url(#clip892)" d="M1084.98 1044.43 L1084.98 1423.18 L1113.74 1423.18 L1113.74 1044.43 L1084.98 1044.43 L1084.98 1044.43  Z" fill="#e26f46" fill-rule="evenodd" fill-opacity="0.5"/>
<polyline clip-path="url(#clip892)" style="stroke:#000000; stroke-linecap:round; stroke-linejoin:round; stroke-width:4; stroke-opacity:1; fill:none" points="1084.98,1044.43 1084.98,1423.18 1113.74,1423.18 1113.74,1044.43 1084.98,1044.43 "/>
<path clip-path="url(#clip892)" d="M1113.74 845.089 L1113.74 1423.18 L1142.5 1423.18 L1142.5 845.089 L1113.74 845.089 L1113.74 845.089  Z" fill="#e26f46" fill-rule="evenodd" fill-opacity="0.5"/>
<polyline clip-path="url(#clip892)" style="stroke:#000000; stroke-linecap:round; stroke-linejoin:round; stroke-width:4; stroke-opacity:1; fill:none" points="1113.74,845.089 1113.74,1423.18 1142.5,1423.18 1142.5,845.089 1113.74,845.089 "/>
<path clip-path="url(#clip892)" d="M1142.5 721.497 L1142.5 1423.18 L1171.26 1423.18 L1171.26 721.497 L1142.5 721.497 L1142.5 721.497  Z" fill="#e26f46" fill-rule="evenodd" fill-opacity="0.5"/>
<polyline clip-path="url(#clip892)" style="stroke:#000000; stroke-linecap:round; stroke-linejoin:round; stroke-width:4; stroke-opacity:1; fill:none" points="1142.5,721.497 1142.5,1423.18 1171.26,1423.18 1171.26,721.497 1142.5,721.497 "/>
<path clip-path="url(#clip892)" d="M1171.26 478.3 L1171.26 1423.18 L1200.03 1423.18 L1200.03 478.3 L1171.26 478.3 L1171.26 478.3  Z" fill="#e26f46" fill-rule="evenodd" fill-opacity="0.5"/>
<polyline clip-path="url(#clip892)" style="stroke:#000000; stroke-linecap:round; stroke-linejoin:round; stroke-width:4; stroke-opacity:1; fill:none" points="1171.26,478.3 1171.26,1423.18 1200.03,1423.18 1200.03,478.3 1171.26,478.3 "/>
<path clip-path="url(#clip892)" d="M1200.03 478.3 L1200.03 1423.18 L1228.79 1423.18 L1228.79 478.3 L1200.03 478.3 L1200.03 478.3  Z" fill="#e26f46" fill-rule="evenodd" fill-opacity="0.5"/>
<polyline clip-path="url(#clip892)" style="stroke:#000000; stroke-linecap:round; stroke-linejoin:round; stroke-width:4; stroke-opacity:1; fill:none" points="1200.03,478.3 1200.03,1423.18 1228.79,1423.18 1228.79,478.3 1200.03,478.3 "/>
<path clip-path="url(#clip892)" d="M1228.79 294.906 L1228.79 1423.18 L1257.55 1423.18 L1257.55 294.906 L1228.79 294.906 L1228.79 294.906  Z" fill="#e26f46" fill-rule="evenodd" fill-opacity="0.5"/>
<polyline clip-path="url(#clip892)" style="stroke:#000000; stroke-linecap:round; stroke-linejoin:round; stroke-width:4; stroke-opacity:1; fill:none" points="1228.79,294.906 1228.79,1423.18 1257.55,1423.18 1257.55,294.906 1228.79,294.906 "/>
<path clip-path="url(#clip892)" d="M1257.55 263.011 L1257.55 1423.18 L1286.31 1423.18 L1286.31 263.011 L1257.55 263.011 L1257.55 263.011  Z" fill="#e26f46" fill-rule="evenodd" fill-opacity="0.5"/>
<polyline clip-path="url(#clip892)" style="stroke:#000000; stroke-linecap:round; stroke-linejoin:round; stroke-width:4; stroke-opacity:1; fill:none" points="1257.55,263.011 1257.55,1423.18 1286.31,1423.18 1286.31,263.011 1257.55,263.011 "/>
<path clip-path="url(#clip892)" d="M1286.31 171.314 L1286.31 1423.18 L1315.07 1423.18 L1315.07 171.314 L1286.31 171.314 L1286.31 171.314  Z" fill="#e26f46" fill-rule="evenodd" fill-opacity="0.5"/>
<polyline clip-path="url(#clip892)" style="stroke:#000000; stroke-linecap:round; stroke-linejoin:round; stroke-width:4; stroke-opacity:1; fill:none" points="1286.31,171.314 1286.31,1423.18 1315.07,1423.18 1315.07,171.314 1286.31,171.314 "/>
<path clip-path="url(#clip892)" d="M1315.07 167.327 L1315.07 1423.18 L1343.83 1423.18 L1343.83 167.327 L1315.07 167.327 L1315.07 167.327  Z" fill="#e26f46" fill-rule="evenodd" fill-opacity="0.5"/>
<polyline clip-path="url(#clip892)" style="stroke:#000000; stroke-linecap:round; stroke-linejoin:round; stroke-width:4; stroke-opacity:1; fill:none" points="1315.07,167.327 1315.07,1423.18 1343.83,1423.18 1343.83,167.327 1315.07,167.327 "/>
<path clip-path="url(#clip892)" d="M1343.83 123.472 L1343.83 1423.18 L1372.6 1423.18 L1372.6 123.472 L1343.83 123.472 L1343.83 123.472  Z" fill="#e26f46" fill-rule="evenodd" fill-opacity="0.5"/>
<polyline clip-path="url(#clip892)" style="stroke:#000000; stroke-linecap:round; stroke-linejoin:round; stroke-width:4; stroke-opacity:1; fill:none" points="1343.83,123.472 1343.83,1423.18 1372.6,1423.18 1372.6,123.472 1343.83,123.472 "/>
<path clip-path="url(#clip892)" d="M1372.6 298.893 L1372.6 1423.18 L1401.36 1423.18 L1401.36 298.893 L1372.6 298.893 L1372.6 298.893  Z" fill="#e26f46" fill-rule="evenodd" fill-opacity="0.5"/>
<polyline clip-path="url(#clip892)" style="stroke:#000000; stroke-linecap:round; stroke-linejoin:round; stroke-width:4; stroke-opacity:1; fill:none" points="1372.6,298.893 1372.6,1423.18 1401.36,1423.18 1401.36,298.893 1372.6,298.893 "/>
<path clip-path="url(#clip892)" d="M1401.36 378.629 L1401.36 1423.18 L1430.12 1423.18 L1430.12 378.629 L1401.36 378.629 L1401.36 378.629  Z" fill="#e26f46" fill-rule="evenodd" fill-opacity="0.5"/>
<polyline clip-path="url(#clip892)" style="stroke:#000000; stroke-linecap:round; stroke-linejoin:round; stroke-width:4; stroke-opacity:1; fill:none" points="1401.36,378.629 1401.36,1423.18 1430.12,1423.18 1430.12,378.629 1401.36,378.629 "/>
<path clip-path="url(#clip892)" d="M1430.12 482.287 L1430.12 1423.18 L1458.88 1423.18 L1458.88 482.287 L1430.12 482.287 L1430.12 482.287  Z" fill="#e26f46" fill-rule="evenodd" fill-opacity="0.5"/>
<polyline clip-path="url(#clip892)" style="stroke:#000000; stroke-linecap:round; stroke-linejoin:round; stroke-width:4; stroke-opacity:1; fill:none" points="1430.12,482.287 1430.12,1423.18 1458.88,1423.18 1458.88,482.287 1430.12,482.287 "/>
<path clip-path="url(#clip892)" d="M1458.88 861.036 L1458.88 1423.18 L1487.64 1423.18 L1487.64 861.036 L1458.88 861.036 L1458.88 861.036  Z" fill="#e26f46" fill-rule="evenodd" fill-opacity="0.5"/>
<polyline clip-path="url(#clip892)" style="stroke:#000000; stroke-linecap:round; stroke-linejoin:round; stroke-width:4; stroke-opacity:1; fill:none" points="1458.88,861.036 1458.88,1423.18 1487.64,1423.18 1487.64,861.036 1458.88,861.036 "/>
<path clip-path="url(#clip892)" d="M1487.64 904.891 L1487.64 1423.18 L1516.4 1423.18 L1516.4 904.891 L1487.64 904.891 L1487.64 904.891  Z" fill="#e26f46" fill-rule="evenodd" fill-opacity="0.5"/>
<polyline clip-path="url(#clip892)" style="stroke:#000000; stroke-linecap:round; stroke-linejoin:round; stroke-width:4; stroke-opacity:1; fill:none" points="1487.64,904.891 1487.64,1423.18 1516.4,1423.18 1516.4,904.891 1487.64,904.891 "/>
<path clip-path="url(#clip892)" d="M1516.4 1016.52 L1516.4 1423.18 L1545.17 1423.18 L1545.17 1016.52 L1516.4 1016.52 L1516.4 1016.52  Z" fill="#e26f46" fill-rule="evenodd" fill-opacity="0.5"/>
<polyline clip-path="url(#clip892)" style="stroke:#000000; stroke-linecap:round; stroke-linejoin:round; stroke-width:4; stroke-opacity:1; fill:none" points="1516.4,1016.52 1516.4,1423.18 1545.17,1423.18 1545.17,1016.52 1516.4,1016.52 "/>
<path clip-path="url(#clip892)" d="M1545.17 1168.02 L1545.17 1423.18 L1573.93 1423.18 L1573.93 1168.02 L1545.17 1168.02 L1545.17 1168.02  Z" fill="#e26f46" fill-rule="evenodd" fill-opacity="0.5"/>
<polyline clip-path="url(#clip892)" style="stroke:#000000; stroke-linecap:round; stroke-linejoin:round; stroke-width:4; stroke-opacity:1; fill:none" points="1545.17,1168.02 1545.17,1423.18 1573.93,1423.18 1573.93,1168.02 1545.17,1168.02 "/>
<path clip-path="url(#clip892)" d="M1573.93 1195.93 L1573.93 1423.18 L1602.69 1423.18 L1602.69 1195.93 L1573.93 1195.93 L1573.93 1195.93  Z" fill="#e26f46" fill-rule="evenodd" fill-opacity="0.5"/>
<polyline clip-path="url(#clip892)" style="stroke:#000000; stroke-linecap:round; stroke-linejoin:round; stroke-width:4; stroke-opacity:1; fill:none" points="1573.93,1195.93 1573.93,1423.18 1602.69,1423.18 1602.69,1195.93 1573.93,1195.93 "/>
<path clip-path="url(#clip892)" d="M1602.69 1295.6 L1602.69 1423.18 L1631.45 1423.18 L1631.45 1295.6 L1602.69 1295.6 L1602.69 1295.6  Z" fill="#e26f46" fill-rule="evenodd" fill-opacity="0.5"/>
<polyline clip-path="url(#clip892)" style="stroke:#000000; stroke-linecap:round; stroke-linejoin:round; stroke-width:4; stroke-opacity:1; fill:none" points="1602.69,1295.6 1602.69,1423.18 1631.45,1423.18 1631.45,1295.6 1602.69,1295.6 "/>
<path clip-path="url(#clip892)" d="M1631.45 1355.4 L1631.45 1423.18 L1660.21 1423.18 L1660.21 1355.4 L1631.45 1355.4 L1631.45 1355.4  Z" fill="#e26f46" fill-rule="evenodd" fill-opacity="0.5"/>
<polyline clip-path="url(#clip892)" style="stroke:#000000; stroke-linecap:round; stroke-linejoin:round; stroke-width:4; stroke-opacity:1; fill:none" points="1631.45,1355.4 1631.45,1423.18 1660.21,1423.18 1660.21,1355.4 1631.45,1355.4 "/>
<path clip-path="url(#clip892)" d="M1660.21 1375.34 L1660.21 1423.18 L1688.97 1423.18 L1688.97 1375.34 L1660.21 1375.34 L1660.21 1375.34  Z" fill="#e26f46" fill-rule="evenodd" fill-opacity="0.5"/>
<polyline clip-path="url(#clip892)" style="stroke:#000000; stroke-linecap:round; stroke-linejoin:round; stroke-width:4; stroke-opacity:1; fill:none" points="1660.21,1375.34 1660.21,1423.18 1688.97,1423.18 1688.97,1375.34 1660.21,1375.34 "/>
<path clip-path="url(#clip892)" d="M1688.97 1367.36 L1688.97 1423.18 L1717.73 1423.18 L1717.73 1367.36 L1688.97 1367.36 L1688.97 1367.36  Z" fill="#e26f46" fill-rule="evenodd" fill-opacity="0.5"/>
<polyline clip-path="url(#clip892)" style="stroke:#000000; stroke-linecap:round; stroke-linejoin:round; stroke-width:4; stroke-opacity:1; fill:none" points="1688.97,1367.36 1688.97,1423.18 1717.73,1423.18 1717.73,1367.36 1688.97,1367.36 "/>
<path clip-path="url(#clip892)" d="M1717.73 1407.23 L1717.73 1423.18 L1746.5 1423.18 L1746.5 1407.23 L1717.73 1407.23 L1717.73 1407.23  Z" fill="#e26f46" fill-rule="evenodd" fill-opacity="0.5"/>
<polyline clip-path="url(#clip892)" style="stroke:#000000; stroke-linecap:round; stroke-linejoin:round; stroke-width:4; stroke-opacity:1; fill:none" points="1717.73,1407.23 1717.73,1423.18 1746.5,1423.18 1746.5,1407.23 1717.73,1407.23 "/>
<path clip-path="url(#clip892)" d="M1746.5 1403.25 L1746.5 1423.18 L1775.26 1423.18 L1775.26 1403.25 L1746.5 1403.25 L1746.5 1403.25  Z" fill="#e26f46" fill-rule="evenodd" fill-opacity="0.5"/>
<polyline clip-path="url(#clip892)" style="stroke:#000000; stroke-linecap:round; stroke-linejoin:round; stroke-width:4; stroke-opacity:1; fill:none" points="1746.5,1403.25 1746.5,1423.18 1775.26,1423.18 1775.26,1403.25 1746.5,1403.25 "/>
<path clip-path="url(#clip892)" d="M1775.26 1423.18 L1775.26 1423.18 L1804.02 1423.18 L1804.02 1423.18 L1775.26 1423.18 L1775.26 1423.18  Z" fill="#e26f46" fill-rule="evenodd" fill-opacity="0.5"/>
<polyline clip-path="url(#clip892)" style="stroke:#000000; stroke-linecap:round; stroke-linejoin:round; stroke-width:4; stroke-opacity:1; fill:none" points="1775.26,1423.18 1775.26,1423.18 1804.02,1423.18 1775.26,1423.18 "/>
<path clip-path="url(#clip892)" d="M1804.02 1419.19 L1804.02 1423.18 L1832.78 1423.18 L1832.78 1419.19 L1804.02 1419.19 L1804.02 1419.19  Z" fill="#e26f46" fill-rule="evenodd" fill-opacity="0.5"/>
<polyline clip-path="url(#clip892)" style="stroke:#000000; stroke-linecap:round; stroke-linejoin:round; stroke-width:4; stroke-opacity:1; fill:none" points="1804.02,1419.19 1804.02,1423.18 1832.78,1423.18 1832.78,1419.19 1804.02,1419.19 "/>
<path clip-path="url(#clip892)" d="M1832.78 1419.19 L1832.78 1423.18 L1861.54 1423.18 L1861.54 1419.19 L1832.78 1419.19 L1832.78 1419.19  Z" fill="#e26f46" fill-rule="evenodd" fill-opacity="0.5"/>
<polyline clip-path="url(#clip892)" style="stroke:#000000; stroke-linecap:round; stroke-linejoin:round; stroke-width:4; stroke-opacity:1; fill:none" points="1832.78,1419.19 1832.78,1423.18 1861.54,1423.18 1861.54,1419.19 1832.78,1419.19 "/>
<path clip-path="url(#clip892)" d="M1861.54 1423.18 L1861.54 1423.18 L1890.3 1423.18 L1890.3 1423.18 L1861.54 1423.18 L1861.54 1423.18  Z" fill="#e26f46" fill-rule="evenodd" fill-opacity="0.5"/>
<polyline clip-path="url(#clip892)" style="stroke:#000000; stroke-linecap:round; stroke-linejoin:round; stroke-width:4; stroke-opacity:1; fill:none" points="1861.54,1423.18 1861.54,1423.18 1890.3,1423.18 1861.54,1423.18 "/>
<path clip-path="url(#clip892)" d="M1890.3 1419.19 L1890.3 1423.18 L1919.07 1423.18 L1919.07 1419.19 L1890.3 1419.19 L1890.3 1419.19  Z" fill="#e26f46" fill-rule="evenodd" fill-opacity="0.5"/>
<polyline clip-path="url(#clip892)" style="stroke:#000000; stroke-linecap:round; stroke-linejoin:round; stroke-width:4; stroke-opacity:1; fill:none" points="1890.3,1419.19 1890.3,1423.18 1919.07,1423.18 1919.07,1419.19 1890.3,1419.19 "/>
<circle clip-path="url(#clip892)" style="fill:#e26f46; stroke:none; fill-opacity:0" cx="840.507" cy="1407.23" r="2"/>
<circle clip-path="url(#clip892)" style="fill:#e26f46; stroke:none; fill-opacity:0" cx="869.268" cy="1403.25" r="2"/>
<circle clip-path="url(#clip892)" style="fill:#e26f46; stroke:none; fill-opacity:0" cx="898.03" cy="1399.26" r="2"/>
<circle clip-path="url(#clip892)" style="fill:#e26f46; stroke:none; fill-opacity:0" cx="926.791" cy="1403.25" r="2"/>
<circle clip-path="url(#clip892)" style="fill:#e26f46; stroke:none; fill-opacity:0" cx="955.553" cy="1367.36" r="2"/>
<circle clip-path="url(#clip892)" style="fill:#e26f46; stroke:none; fill-opacity:0" cx="984.315" cy="1331.48" r="2"/>
<circle clip-path="url(#clip892)" style="fill:#e26f46; stroke:none; fill-opacity:0" cx="1013.08" cy="1279.65" r="2"/>
<circle clip-path="url(#clip892)" style="fill:#e26f46; stroke:none; fill-opacity:0" cx="1041.84" cy="1239.79" r="2"/>
<circle clip-path="url(#clip892)" style="fill:#e26f46; stroke:none; fill-opacity:0" cx="1070.6" cy="1100.25" r="2"/>
<circle clip-path="url(#clip892)" style="fill:#e26f46; stroke:none; fill-opacity:0" cx="1099.36" cy="1044.43" r="2"/>
<circle clip-path="url(#clip892)" style="fill:#e26f46; stroke:none; fill-opacity:0" cx="1128.12" cy="845.089" r="2"/>
<circle clip-path="url(#clip892)" style="fill:#e26f46; stroke:none; fill-opacity:0" cx="1156.88" cy="721.497" r="2"/>
<circle clip-path="url(#clip892)" style="fill:#e26f46; stroke:none; fill-opacity:0" cx="1185.65" cy="478.3" r="2"/>
<circle clip-path="url(#clip892)" style="fill:#e26f46; stroke:none; fill-opacity:0" cx="1214.41" cy="478.3" r="2"/>
<circle clip-path="url(#clip892)" style="fill:#e26f46; stroke:none; fill-opacity:0" cx="1243.17" cy="294.906" r="2"/>
<circle clip-path="url(#clip892)" style="fill:#e26f46; stroke:none; fill-opacity:0" cx="1271.93" cy="263.011" r="2"/>
<circle clip-path="url(#clip892)" style="fill:#e26f46; stroke:none; fill-opacity:0" cx="1300.69" cy="171.314" r="2"/>
<circle clip-path="url(#clip892)" style="fill:#e26f46; stroke:none; fill-opacity:0" cx="1329.45" cy="167.327" r="2"/>
<circle clip-path="url(#clip892)" style="fill:#e26f46; stroke:none; fill-opacity:0" cx="1358.22" cy="123.472" r="2"/>
<circle clip-path="url(#clip892)" style="fill:#e26f46; stroke:none; fill-opacity:0" cx="1386.98" cy="298.893" r="2"/>
<circle clip-path="url(#clip892)" style="fill:#e26f46; stroke:none; fill-opacity:0" cx="1415.74" cy="378.629" r="2"/>
<circle clip-path="url(#clip892)" style="fill:#e26f46; stroke:none; fill-opacity:0" cx="1444.5" cy="482.287" r="2"/>
<circle clip-path="url(#clip892)" style="fill:#e26f46; stroke:none; fill-opacity:0" cx="1473.26" cy="861.036" r="2"/>
<circle clip-path="url(#clip892)" style="fill:#e26f46; stroke:none; fill-opacity:0" cx="1502.02" cy="904.891" r="2"/>
<circle clip-path="url(#clip892)" style="fill:#e26f46; stroke:none; fill-opacity:0" cx="1530.78" cy="1016.52" r="2"/>
<circle clip-path="url(#clip892)" style="fill:#e26f46; stroke:none; fill-opacity:0" cx="1559.55" cy="1168.02" r="2"/>
<circle clip-path="url(#clip892)" style="fill:#e26f46; stroke:none; fill-opacity:0" cx="1588.31" cy="1195.93" r="2"/>
<circle clip-path="url(#clip892)" style="fill:#e26f46; stroke:none; fill-opacity:0" cx="1617.07" cy="1295.6" r="2"/>
<circle clip-path="url(#clip892)" style="fill:#e26f46; stroke:none; fill-opacity:0" cx="1645.83" cy="1355.4" r="2"/>
<circle clip-path="url(#clip892)" style="fill:#e26f46; stroke:none; fill-opacity:0" cx="1674.59" cy="1375.34" r="2"/>
<circle clip-path="url(#clip892)" style="fill:#e26f46; stroke:none; fill-opacity:0" cx="1703.35" cy="1367.36" r="2"/>
<circle clip-path="url(#clip892)" style="fill:#e26f46; stroke:none; fill-opacity:0" cx="1732.12" cy="1407.23" r="2"/>
<circle clip-path="url(#clip892)" style="fill:#e26f46; stroke:none; fill-opacity:0" cx="1760.88" cy="1403.25" r="2"/>
<circle clip-path="url(#clip892)" style="fill:#e26f46; stroke:none; fill-opacity:0" cx="1789.64" cy="1423.18" r="2"/>
<circle clip-path="url(#clip892)" style="fill:#e26f46; stroke:none; fill-opacity:0" cx="1818.4" cy="1419.19" r="2"/>
<circle clip-path="url(#clip892)" style="fill:#e26f46; stroke:none; fill-opacity:0" cx="1847.16" cy="1419.19" r="2"/>
<circle clip-path="url(#clip892)" style="fill:#e26f46; stroke:none; fill-opacity:0" cx="1875.92" cy="1423.18" r="2"/>
<circle clip-path="url(#clip892)" style="fill:#e26f46; stroke:none; fill-opacity:0" cx="1904.69" cy="1419.19" r="2"/>
<path clip-path="url(#clip890)" d="M1666.75 322.316 L2281.66 322.316 L2281.66 166.796 L1666.75 166.796  Z" fill="#ffffff" fill-rule="evenodd" fill-opacity="1"/>
<polyline clip-path="url(#clip890)" style="stroke:#000000; stroke-linecap:round; stroke-linejoin:round; stroke-width:4; stroke-opacity:1; fill:none" points="1666.75,322.316 2281.66,322.316 2281.66,166.796 1666.75,166.796 1666.75,322.316 "/>
<path clip-path="url(#clip890)" d="M1690.45 239.372 L1832.64 239.372 L1832.64 197.9 L1690.45 197.9 L1690.45 239.372  Z" fill="#009af9" fill-rule="evenodd" fill-opacity="0.5"/>
<polyline clip-path="url(#clip890)" style="stroke:#000000; stroke-linecap:round; stroke-linejoin:round; stroke-width:4; stroke-opacity:1; fill:none" points="1690.45,239.372 1832.64,239.372 1832.64,197.9 1690.45,197.9 1690.45,239.372 "/>
<path clip-path="url(#clip890)" d="M1856.34 201.356 L1863.31 201.356 L1872.13 224.874 L1881 201.356 L1887.96 201.356 L1887.96 235.916 L1883.4 235.916 L1883.4 205.569 L1874.49 229.272 L1869.79 229.272 L1860.88 205.569 L1860.88 235.916 L1856.34 235.916 L1856.34 201.356 Z" fill="#000000" fill-rule="nonzero" fill-opacity="1" /><path clip-path="url(#clip890)" d="M1908.84 222.883 Q1903.68 222.883 1901.69 224.064 Q1899.7 225.244 1899.7 228.092 Q1899.7 230.36 1901.18 231.703 Q1902.68 233.022 1905.25 233.022 Q1908.8 233.022 1910.93 230.522 Q1913.08 227.999 1913.08 223.832 L1913.08 222.883 L1908.84 222.883 M1917.34 221.124 L1917.34 235.916 L1913.08 235.916 L1913.08 231.981 Q1911.62 234.342 1909.44 235.476 Q1907.27 236.587 1904.12 236.587 Q1900.14 236.587 1897.78 234.365 Q1895.44 232.119 1895.44 228.369 Q1895.44 223.994 1898.36 221.772 Q1901.3 219.55 1907.11 219.55 L1913.08 219.55 L1913.08 219.133 Q1913.08 216.194 1911.13 214.596 Q1909.21 212.976 1905.72 212.976 Q1903.5 212.976 1901.39 213.508 Q1899.28 214.041 1897.34 215.106 L1897.34 211.17 Q1899.68 210.268 1901.87 209.828 Q1904.07 209.365 1906.16 209.365 Q1911.78 209.365 1914.56 212.282 Q1917.34 215.198 1917.34 221.124 Z" fill="#000000" fill-rule="nonzero" fill-opacity="1" /><path clip-path="url(#clip890)" d="M1941.13 213.971 Q1940.42 213.555 1939.56 213.37 Q1938.73 213.161 1937.71 213.161 Q1934.1 213.161 1932.15 215.522 Q1930.23 217.86 1930.23 222.258 L1930.23 235.916 L1925.95 235.916 L1925.95 209.99 L1930.23 209.99 L1930.23 214.018 Q1931.57 211.657 1933.73 210.522 Q1935.88 209.365 1938.96 209.365 Q1939.4 209.365 1939.93 209.434 Q1940.46 209.481 1941.11 209.596 L1941.13 213.971 Z" fill="#000000" fill-rule="nonzero" fill-opacity="1" /><path clip-path="url(#clip890)" d="M1961.83 222.652 Q1961.83 218.022 1959.91 215.476 Q1958.01 212.93 1954.56 212.93 Q1951.13 212.93 1949.21 215.476 Q1947.31 218.022 1947.31 222.652 Q1947.31 227.258 1949.21 229.805 Q1951.13 232.351 1954.56 232.351 Q1958.01 232.351 1959.91 229.805 Q1961.83 227.258 1961.83 222.652 M1966.09 232.698 Q1966.09 239.318 1963.15 242.536 Q1960.21 245.777 1954.14 245.777 Q1951.9 245.777 1949.91 245.43 Q1947.92 245.105 1946.04 244.411 L1946.04 240.268 Q1947.92 241.286 1949.74 241.772 Q1951.57 242.258 1953.47 242.258 Q1957.66 242.258 1959.74 240.059 Q1961.83 237.883 1961.83 233.462 L1961.83 231.356 Q1960.51 233.647 1958.45 234.781 Q1956.39 235.916 1953.52 235.916 Q1948.75 235.916 1945.83 232.281 Q1942.92 228.647 1942.92 222.652 Q1942.92 216.633 1945.83 212.999 Q1948.75 209.365 1953.52 209.365 Q1956.39 209.365 1958.45 210.499 Q1960.51 211.633 1961.83 213.925 L1961.83 209.99 L1966.09 209.99 L1966.09 232.698 Z" fill="#000000" fill-rule="nonzero" fill-opacity="1" /><path clip-path="url(#clip890)" d="M1974.86 209.99 L1979.12 209.99 L1979.12 235.916 L1974.86 235.916 L1974.86 209.99 M1974.86 199.897 L1979.12 199.897 L1979.12 205.291 L1974.86 205.291 L1974.86 199.897 Z" fill="#000000" fill-rule="nonzero" fill-opacity="1" /><path clip-path="url(#clip890)" d="M2009.58 220.268 L2009.58 235.916 L2005.32 235.916 L2005.32 220.407 Q2005.32 216.726 2003.89 214.897 Q2002.45 213.069 1999.58 213.069 Q1996.13 213.069 1994.14 215.268 Q1992.15 217.467 1992.15 221.263 L1992.15 235.916 L1987.87 235.916 L1987.87 209.99 L1992.15 209.99 L1992.15 214.018 Q1993.68 211.68 1995.74 210.522 Q1997.82 209.365 2000.53 209.365 Q2005 209.365 2007.29 212.143 Q2009.58 214.897 2009.58 220.268 Z" fill="#000000" fill-rule="nonzero" fill-opacity="1" /><path clip-path="url(#clip890)" d="M2029.86 222.883 Q2024.7 222.883 2022.71 224.064 Q2020.72 225.244 2020.72 228.092 Q2020.72 230.36 2022.2 231.703 Q2023.7 233.022 2026.27 233.022 Q2029.81 233.022 2031.94 230.522 Q2034.1 227.999 2034.1 223.832 L2034.1 222.883 L2029.86 222.883 M2038.36 221.124 L2038.36 235.916 L2034.1 235.916 L2034.1 231.981 Q2032.64 234.342 2030.46 235.476 Q2028.29 236.587 2025.14 236.587 Q2021.16 236.587 2018.8 234.365 Q2016.46 232.119 2016.46 228.369 Q2016.46 223.994 2019.37 221.772 Q2022.31 219.55 2028.12 219.55 L2034.1 219.55 L2034.1 219.133 Q2034.1 216.194 2032.15 214.596 Q2030.23 212.976 2026.74 212.976 Q2024.51 212.976 2022.41 213.508 Q2020.3 214.041 2018.36 215.106 L2018.36 211.17 Q2020.69 210.268 2022.89 209.828 Q2025.09 209.365 2027.18 209.365 Q2032.8 209.365 2035.58 212.282 Q2038.36 215.198 2038.36 221.124 Z" fill="#000000" fill-rule="nonzero" fill-opacity="1" /><path clip-path="url(#clip890)" d="M2047.13 199.897 L2051.39 199.897 L2051.39 235.916 L2047.13 235.916 L2047.13 199.897 Z" fill="#000000" fill-rule="nonzero" fill-opacity="1" /><path clip-path="url(#clip890)" d="M2075.55 201.356 L2097.41 201.356 L2097.41 205.291 L2080.23 205.291 L2080.23 215.522 L2096.69 215.522 L2096.69 219.457 L2080.23 219.457 L2080.23 231.981 L2097.82 231.981 L2097.82 235.916 L2075.55 235.916 L2075.55 201.356 Z" fill="#000000" fill-rule="nonzero" fill-opacity="1" /><path clip-path="url(#clip890)" d="M2126.87 220.268 L2126.87 235.916 L2122.61 235.916 L2122.61 220.407 Q2122.61 216.726 2121.18 214.897 Q2119.74 213.069 2116.87 213.069 Q2113.42 213.069 2111.43 215.268 Q2109.44 217.467 2109.44 221.263 L2109.44 235.916 L2105.16 235.916 L2105.16 209.99 L2109.44 209.99 L2109.44 214.018 Q2110.97 211.68 2113.03 210.522 Q2115.11 209.365 2117.82 209.365 Q2122.29 209.365 2124.58 212.143 Q2126.87 214.897 2126.87 220.268 Z" fill="#000000" fill-rule="nonzero" fill-opacity="1" /><path clip-path="url(#clip890)" d="M2157.54 221.888 L2157.54 223.971 L2137.96 223.971 Q2138.24 228.369 2140.6 230.684 Q2142.98 232.976 2147.22 232.976 Q2149.67 232.976 2151.97 232.374 Q2154.28 231.772 2156.55 230.569 L2156.55 234.596 Q2154.26 235.568 2151.85 236.078 Q2149.44 236.587 2146.97 236.587 Q2140.76 236.587 2137.13 232.976 Q2133.52 229.365 2133.52 223.207 Q2133.52 216.842 2136.94 213.115 Q2140.39 209.365 2146.23 209.365 Q2151.46 209.365 2154.49 212.745 Q2157.54 216.101 2157.54 221.888 M2153.29 220.638 Q2153.24 217.143 2151.32 215.059 Q2149.42 212.976 2146.27 212.976 Q2142.71 212.976 2140.55 214.99 Q2138.42 217.004 2138.1 220.661 L2153.29 220.638 Z" fill="#000000" fill-rule="nonzero" fill-opacity="1" /><path clip-path="url(#clip890)" d="M2179.56 213.971 Q2178.84 213.555 2177.98 213.37 Q2177.15 213.161 2176.13 213.161 Q2172.52 213.161 2170.58 215.522 Q2168.66 217.86 2168.66 222.258 L2168.66 235.916 L2164.37 235.916 L2164.37 209.99 L2168.66 209.99 L2168.66 214.018 Q2170 211.657 2172.15 210.522 Q2174.3 209.365 2177.38 209.365 Q2177.82 209.365 2178.35 209.434 Q2178.89 209.481 2179.54 209.596 L2179.56 213.971 Z" fill="#000000" fill-rule="nonzero" fill-opacity="1" /><path clip-path="url(#clip890)" d="M2200.25 222.652 Q2200.25 218.022 2198.33 215.476 Q2196.43 212.93 2192.98 212.93 Q2189.56 212.93 2187.64 215.476 Q2185.74 218.022 2185.74 222.652 Q2185.74 227.258 2187.64 229.805 Q2189.56 232.351 2192.98 232.351 Q2196.43 232.351 2198.33 229.805 Q2200.25 227.258 2200.25 222.652 M2204.51 232.698 Q2204.51 239.318 2201.57 242.536 Q2198.63 245.777 2192.57 245.777 Q2190.32 245.777 2188.33 245.43 Q2186.34 245.105 2184.47 244.411 L2184.47 240.268 Q2186.34 241.286 2188.17 241.772 Q2190 242.258 2191.9 242.258 Q2196.09 242.258 2198.17 240.059 Q2200.25 237.883 2200.25 233.462 L2200.25 231.356 Q2198.93 233.647 2196.87 234.781 Q2194.81 235.916 2191.94 235.916 Q2187.17 235.916 2184.26 232.281 Q2181.34 228.647 2181.34 222.652 Q2181.34 216.633 2184.26 212.999 Q2187.17 209.365 2191.94 209.365 Q2194.81 209.365 2196.87 210.499 Q2198.93 211.633 2200.25 213.925 L2200.25 209.99 L2204.51 209.99 L2204.51 232.698 Z" fill="#000000" fill-rule="nonzero" fill-opacity="1" /><path clip-path="url(#clip890)" d="M2224.07 238.323 Q2222.27 242.953 2220.55 244.365 Q2218.84 245.777 2215.97 245.777 L2212.57 245.777 L2212.57 242.212 L2215.07 242.212 Q2216.83 242.212 2217.8 241.379 Q2218.77 240.545 2219.95 237.443 L2220.72 235.499 L2210.23 209.99 L2214.74 209.99 L2222.85 230.268 L2230.95 209.99 L2235.46 209.99 L2224.07 238.323 Z" fill="#000000" fill-rule="nonzero" fill-opacity="1" /><path clip-path="url(#clip890)" d="M1690.45 291.212 L1832.64 291.212 L1832.64 249.74 L1690.45 249.74 L1690.45 291.212  Z" fill="#e26f46" fill-rule="evenodd" fill-opacity="0.5"/>
<polyline clip-path="url(#clip890)" style="stroke:#000000; stroke-linecap:round; stroke-linejoin:round; stroke-width:4; stroke-opacity:1; fill:none" points="1690.45,291.212 1832.64,291.212 1832.64,249.74 1690.45,249.74 1690.45,291.212 "/>
<path clip-path="url(#clip890)" d="M1856.34 253.196 L1878.19 253.196 L1878.19 257.131 L1861.02 257.131 L1861.02 267.362 L1877.48 267.362 L1877.48 271.297 L1861.02 271.297 L1861.02 283.821 L1878.61 283.821 L1878.61 287.756 L1856.34 287.756 L1856.34 253.196 Z" fill="#000000" fill-rule="nonzero" fill-opacity="1" /><path clip-path="url(#clip890)" d="M1907.66 272.108 L1907.66 287.756 L1903.4 287.756 L1903.4 272.247 Q1903.4 268.566 1901.97 266.737 Q1900.53 264.909 1897.66 264.909 Q1894.21 264.909 1892.22 267.108 Q1890.23 269.307 1890.23 273.103 L1890.23 287.756 L1885.95 287.756 L1885.95 261.83 L1890.23 261.83 L1890.23 265.858 Q1891.76 263.52 1893.82 262.362 Q1895.9 261.205 1898.61 261.205 Q1903.08 261.205 1905.37 263.983 Q1907.66 266.737 1907.66 272.108 Z" fill="#000000" fill-rule="nonzero" fill-opacity="1" /><path clip-path="url(#clip890)" d="M1938.33 273.728 L1938.33 275.811 L1918.75 275.811 Q1919.03 280.209 1921.39 282.524 Q1923.77 284.816 1928.01 284.816 Q1930.46 284.816 1932.75 284.214 Q1935.07 283.612 1937.34 282.409 L1937.34 286.436 Q1935.05 287.408 1932.64 287.918 Q1930.23 288.427 1927.75 288.427 Q1921.55 288.427 1917.92 284.816 Q1914.31 281.205 1914.31 275.047 Q1914.31 268.682 1917.73 264.955 Q1921.18 261.205 1927.01 261.205 Q1932.24 261.205 1935.28 264.585 Q1938.33 267.941 1938.33 273.728 M1934.07 272.478 Q1934.03 268.983 1932.11 266.899 Q1930.21 264.816 1927.06 264.816 Q1923.5 264.816 1921.34 266.83 Q1919.21 268.844 1918.89 272.501 L1934.07 272.478 Z" fill="#000000" fill-rule="nonzero" fill-opacity="1" /><path clip-path="url(#clip890)" d="M1960.35 265.811 Q1959.63 265.395 1958.77 265.21 Q1957.94 265.001 1956.92 265.001 Q1953.31 265.001 1951.37 267.362 Q1949.44 269.7 1949.44 274.098 L1949.44 287.756 L1945.16 287.756 L1945.16 261.83 L1949.44 261.83 L1949.44 265.858 Q1950.79 263.497 1952.94 262.362 Q1955.09 261.205 1958.17 261.205 Q1958.61 261.205 1959.14 261.274 Q1959.68 261.321 1960.32 261.436 L1960.35 265.811 Z" fill="#000000" fill-rule="nonzero" fill-opacity="1" /><path clip-path="url(#clip890)" d="M1981.04 274.492 Q1981.04 269.862 1979.12 267.316 Q1977.22 264.77 1973.77 264.77 Q1970.35 264.77 1968.43 267.316 Q1966.53 269.862 1966.53 274.492 Q1966.53 279.098 1968.43 281.645 Q1970.35 284.191 1973.77 284.191 Q1977.22 284.191 1979.12 281.645 Q1981.04 279.098 1981.04 274.492 M1985.3 284.538 Q1985.3 291.158 1982.36 294.376 Q1979.42 297.617 1973.36 297.617 Q1971.11 297.617 1969.12 297.27 Q1967.13 296.945 1965.25 296.251 L1965.25 292.108 Q1967.13 293.126 1968.96 293.612 Q1970.79 294.098 1972.68 294.098 Q1976.87 294.098 1978.96 291.899 Q1981.04 289.723 1981.04 285.302 L1981.04 283.196 Q1979.72 285.487 1977.66 286.621 Q1975.6 287.756 1972.73 287.756 Q1967.96 287.756 1965.05 284.121 Q1962.13 280.487 1962.13 274.492 Q1962.13 268.473 1965.05 264.839 Q1967.96 261.205 1972.73 261.205 Q1975.6 261.205 1977.66 262.339 Q1979.72 263.473 1981.04 265.765 L1981.04 261.83 L1985.3 261.83 L1985.3 284.538 Z" fill="#000000" fill-rule="nonzero" fill-opacity="1" /><path clip-path="url(#clip890)" d="M2004.86 290.163 Q2003.05 294.793 2001.34 296.205 Q1999.63 297.617 1996.76 297.617 L1993.36 297.617 L1993.36 294.052 L1995.86 294.052 Q1997.61 294.052 1998.59 293.219 Q1999.56 292.385 2000.74 289.283 L2001.5 287.339 L1991.02 261.83 L1995.53 261.83 L2003.63 282.108 L2011.74 261.83 L2016.25 261.83 L2004.86 290.163 Z" fill="#000000" fill-rule="nonzero" fill-opacity="1" /><path clip-path="url(#clip890)" d="M2032.59 253.196 L2061.83 253.196 L2061.83 257.131 L2049.56 257.131 L2049.56 287.756 L2044.86 287.756 L2044.86 257.131 L2032.59 257.131 L2032.59 253.196 Z" fill="#000000" fill-rule="nonzero" fill-opacity="1" /><path clip-path="url(#clip890)" d="M2074.21 265.811 Q2073.49 265.395 2072.64 265.21 Q2071.8 265.001 2070.79 265.001 Q2067.17 265.001 2065.23 267.362 Q2063.31 269.7 2063.31 274.098 L2063.31 287.756 L2059.03 287.756 L2059.03 261.83 L2063.31 261.83 L2063.31 265.858 Q2064.65 263.497 2066.8 262.362 Q2068.96 261.205 2072.04 261.205 Q2072.48 261.205 2073.01 261.274 Q2073.54 261.321 2074.19 261.436 L2074.21 265.811 Z" fill="#000000" fill-rule="nonzero" fill-opacity="1" /><path clip-path="url(#clip890)" d="M2090.46 274.723 Q2085.3 274.723 2083.31 275.904 Q2081.32 277.084 2081.32 279.932 Q2081.32 282.2 2082.8 283.543 Q2084.3 284.862 2086.87 284.862 Q2090.42 284.862 2092.55 282.362 Q2094.7 279.839 2094.7 275.672 L2094.7 274.723 L2090.46 274.723 M2098.96 272.964 L2098.96 287.756 L2094.7 287.756 L2094.7 283.821 Q2093.24 286.182 2091.06 287.316 Q2088.89 288.427 2085.74 288.427 Q2081.76 288.427 2079.4 286.205 Q2077.06 283.959 2077.06 280.209 Q2077.06 275.834 2079.98 273.612 Q2082.92 271.39 2088.73 271.39 L2094.7 271.39 L2094.7 270.973 Q2094.7 268.034 2092.75 266.436 Q2090.83 264.816 2087.34 264.816 Q2085.11 264.816 2083.01 265.348 Q2080.9 265.881 2078.96 266.946 L2078.96 263.01 Q2081.3 262.108 2083.49 261.668 Q2085.69 261.205 2087.78 261.205 Q2093.4 261.205 2096.18 264.122 Q2098.96 267.038 2098.96 272.964 Z" fill="#000000" fill-rule="nonzero" fill-opacity="1" /><path clip-path="url(#clip890)" d="M2129.28 272.108 L2129.28 287.756 L2125.02 287.756 L2125.02 272.247 Q2125.02 268.566 2123.59 266.737 Q2122.15 264.909 2119.28 264.909 Q2115.83 264.909 2113.84 267.108 Q2111.85 269.307 2111.85 273.103 L2111.85 287.756 L2107.57 287.756 L2107.57 261.83 L2111.85 261.83 L2111.85 265.858 Q2113.38 263.52 2115.44 262.362 Q2117.52 261.205 2120.23 261.205 Q2124.7 261.205 2126.99 263.983 Q2129.28 266.737 2129.28 272.108 Z" fill="#000000" fill-rule="nonzero" fill-opacity="1" /><path clip-path="url(#clip890)" d="M2154.3 262.594 L2154.3 266.622 Q2152.5 265.696 2150.55 265.233 Q2148.61 264.77 2146.53 264.77 Q2143.35 264.77 2141.76 265.742 Q2140.18 266.714 2140.18 268.659 Q2140.18 270.14 2141.32 270.997 Q2142.45 271.83 2145.88 272.594 L2147.34 272.918 Q2151.87 273.89 2153.77 275.672 Q2155.69 277.432 2155.69 280.603 Q2155.69 284.214 2152.82 286.321 Q2149.98 288.427 2144.98 288.427 Q2142.89 288.427 2140.62 288.01 Q2138.38 287.617 2135.88 286.807 L2135.88 282.409 Q2138.24 283.635 2140.53 284.26 Q2142.82 284.862 2145.07 284.862 Q2148.08 284.862 2149.7 283.844 Q2151.32 282.802 2151.32 280.927 Q2151.32 279.191 2150.14 278.265 Q2148.98 277.339 2145.02 276.483 L2143.54 276.135 Q2139.58 275.302 2137.82 273.589 Q2136.06 271.853 2136.06 268.844 Q2136.06 265.186 2138.66 263.196 Q2141.25 261.205 2146.02 261.205 Q2148.38 261.205 2150.46 261.552 Q2152.54 261.899 2154.3 262.594 Z" fill="#000000" fill-rule="nonzero" fill-opacity="1" /><path clip-path="url(#clip890)" d="M2162.48 261.83 L2166.73 261.83 L2166.73 287.756 L2162.48 287.756 L2162.48 261.83 M2162.48 251.737 L2166.73 251.737 L2166.73 257.131 L2162.48 257.131 L2162.48 251.737 Z" fill="#000000" fill-rule="nonzero" fill-opacity="1" /><path clip-path="url(#clip890)" d="M2179.86 254.469 L2179.86 261.83 L2188.63 261.83 L2188.63 265.14 L2179.86 265.14 L2179.86 279.214 Q2179.86 282.385 2180.72 283.288 Q2181.6 284.191 2184.26 284.191 L2188.63 284.191 L2188.63 287.756 L2184.26 287.756 Q2179.33 287.756 2177.45 285.927 Q2175.58 284.075 2175.58 279.214 L2175.58 265.14 L2172.45 265.14 L2172.45 261.83 L2175.58 261.83 L2175.58 254.469 L2179.86 254.469 Z" fill="#000000" fill-rule="nonzero" fill-opacity="1" /><path clip-path="url(#clip890)" d="M2194.23 261.83 L2198.49 261.83 L2198.49 287.756 L2194.23 287.756 L2194.23 261.83 M2194.23 251.737 L2198.49 251.737 L2198.49 257.131 L2194.23 257.131 L2194.23 251.737 Z" fill="#000000" fill-rule="nonzero" fill-opacity="1" /><path clip-path="url(#clip890)" d="M2217.45 264.816 Q2214.03 264.816 2212.04 267.501 Q2210.04 270.163 2210.04 274.816 Q2210.04 279.469 2212.01 282.154 Q2214 284.816 2217.45 284.816 Q2220.85 284.816 2222.85 282.131 Q2224.84 279.446 2224.84 274.816 Q2224.84 270.21 2222.85 267.524 Q2220.85 264.816 2217.45 264.816 M2217.45 261.205 Q2223.01 261.205 2226.18 264.816 Q2229.35 268.427 2229.35 274.816 Q2229.35 281.182 2226.18 284.816 Q2223.01 288.427 2217.45 288.427 Q2211.87 288.427 2208.7 284.816 Q2205.55 281.182 2205.55 274.816 Q2205.55 268.427 2208.7 264.816 Q2211.87 261.205 2217.45 261.205 Z" fill="#000000" fill-rule="nonzero" fill-opacity="1" /><path clip-path="url(#clip890)" d="M2257.96 272.108 L2257.96 287.756 L2253.7 287.756 L2253.7 272.247 Q2253.7 268.566 2252.27 266.737 Q2250.83 264.909 2247.96 264.909 Q2244.51 264.909 2242.52 267.108 Q2240.53 269.307 2240.53 273.103 L2240.53 287.756 L2236.25 287.756 L2236.25 261.83 L2240.53 261.83 L2240.53 265.858 Q2242.06 263.52 2244.12 262.362 Q2246.2 261.205 2248.91 261.205 Q2253.38 261.205 2255.67 263.983 Q2257.96 266.737 2257.96 272.108 Z" fill="#000000" fill-rule="nonzero" fill-opacity="1" /></svg>
