<?xml version="1.0" encoding="UTF-8"?>
<svg xmlns="http://www.w3.org/2000/svg"
     xmlns:xlink="http://www.w3.org/1999/xlink"
     xmlns:gadfly="http://www.gadflyjl.org/ns"
     version="1.2"
     width="141.42mm" height="100mm" viewBox="0 0 141.42 100"
     stroke="none"
     fill="#000000"
     stroke-width="0.3"
     font-size="3.88"
>
<defs>
  <marker id="arrow" markerWidth="15" markerHeight="7" refX="5" refY="3.5" orient="auto" markerUnits="strokeWidth">
    <path d="M0,0 L15,3.5 L0,7 z" stroke="context-stroke" fill="context-stroke"/>
  </marker>
</defs>
<g class="plotroot xscalable yscalable" id="img-df7fd5d5-1">
  <g font-size="3.88" font-family="'PT Sans','Helvetica Neue','Helvetica',sans-serif" fill="#564A55" stroke="#000000" stroke-opacity="0.000" id="img-df7fd5d5-2">
    <g transform="translate(74.52,88.39)">
      <g class="primitive">
        <text text-anchor="middle" dy="0.6em">Parameter</text>
      </g>
    </g>
  </g>
  <g clip-path="url(#img-df7fd5d5-3)">
    <g id="img-df7fd5d5-4">
      <g class="plotpanel" id="img-df7fd5d5-5">
        <metadata>
          <boundingbox value="12.611666666666665mm 5.0mm 123.80968957064285mm 80.38833333333332mm"/>
          <unitbox value="0.0 0.0 1.0 1.0"/>
        </metadata>
        <g font-size="3.88" font-family="'PT Sans','Helvetica Neue','Helvetica',sans-serif" fill="#564A55" stroke="#000000" stroke-opacity="0.000" id="img-df7fd5d5-6">
          <g transform="translate(108.5,78.78)" id="img-df7fd5d5-7">
            <g class="primitive">
              <text text-anchor="middle" dy="0.6em">B</text>
            </g>
          </g>
        </g>
        <g font-size="3.88" font-family="'PT Sans','Helvetica Neue','Helvetica',sans-serif" fill="#564A55" stroke="#000000" stroke-opacity="0.000" id="img-df7fd5d5-8">
          <g transform="translate(51.67,78.78)" id="img-df7fd5d5-9">
            <g class="primitive">
              <text text-anchor="middle" dy="0.6em">A</text>
            </g>
          </g>
        </g>
        <g class="guide xlabels" font-size="2.82" font-family="'PT Sans Caption','Helvetica Neue','Helvetica',sans-serif" fill="#6C606B" id="img-df7fd5d5-10">
          <g transform="translate(84.59,72.1)" id="img-df7fd5d5-11">
            <g class="primitive">
              <text text-anchor="middle" dy="0.6em">-5.0</text>
            </g>
          </g>
          <g transform="translate(96.54,72.1)" id="img-df7fd5d5-12">
            <g class="primitive">
              <text text-anchor="middle" dy="0.6em">-2.5</text>
            </g>
          </g>
          <g transform="translate(108.5,72.1)" id="img-df7fd5d5-13">
            <g class="primitive">
              <text text-anchor="middle" dy="0.6em">0.0</text>
            </g>
          </g>
          <g transform="translate(120.46,72.1)" id="img-df7fd5d5-14">
            <g class="primitive">
              <text text-anchor="middle" dy="0.6em">2.5</text>
            </g>
          </g>
          <g transform="translate(132.42,72.1)" id="img-df7fd5d5-15">
            <g class="primitive">
              <text text-anchor="middle" dy="0.6em">5.0</text>
            </g>
          </g>
        </g>
        <g class="guide xlabels" font-size="2.82" font-family="'PT Sans Caption','Helvetica Neue','Helvetica',sans-serif" fill="#6C606B" id="img-df7fd5d5-16">
          <g transform="translate(26.75,72.1)" id="img-df7fd5d5-17">
            <g class="primitive">
              <text text-anchor="middle" dy="0.6em">-5.0</text>
            </g>
          </g>
          <g transform="translate(39.21,72.1)" id="img-df7fd5d5-18">
            <g class="primitive">
              <text text-anchor="middle" dy="0.6em">-2.5</text>
            </g>
          </g>
          <g transform="translate(51.67,72.1)" id="img-df7fd5d5-19">
            <g class="primitive">
              <text text-anchor="middle" dy="0.6em">0.0</text>
            </g>
          </g>
          <g transform="translate(64.13,72.1)" id="img-df7fd5d5-20">
            <g class="primitive">
              <text text-anchor="middle" dy="0.6em">2.5</text>
            </g>
          </g>
          <g transform="translate(76.59,72.1)" id="img-df7fd5d5-21">
            <g class="primitive">
              <text text-anchor="middle" dy="0.6em">5.0</text>
            </g>
          </g>
        </g>
        <g clip-path="url(#img-df7fd5d5-22)">
          <g id="img-df7fd5d5-23">
            <g pointer-events="visible" stroke-width="0.3" fill="#000000" fill-opacity="0.000" stroke="#000000" stroke-opacity="0.000" class="guide background" id="img-df7fd5d5-24">
              <g transform="translate(108.5,55.58)" id="img-df7fd5d5-25">
                <path d="M-25.92,-15.53 L25.92,-15.53 25.92,15.53 -25.92,15.53  z" class="primitive"/>
              </g>
            </g>
            <g class="guide ygridlines xfixed" stroke-dasharray="0.5,0.5" stroke-width="0.2" stroke="#D0D0E0" id="img-df7fd5d5-26">
              <g transform="translate(108.5,69.1)" id="img-df7fd5d5-27">
                <path fill="none" d="M-25.92,0 L25.92,0 " class="primitive"/>
              </g>
              <g transform="translate(108.5,63.69)" id="img-df7fd5d5-28">
                <path fill="none" d="M-25.92,0 L25.92,0 " class="primitive"/>
              </g>
              <g transform="translate(108.5,58.28)" id="img-df7fd5d5-29">
                <path fill="none" d="M-25.92,0 L25.92,0 " class="primitive"/>
              </g>
              <g transform="translate(108.5,52.87)" id="img-df7fd5d5-30">
                <path fill="none" d="M-25.92,0 L25.92,0 " class="primitive"/>
              </g>
              <g transform="translate(108.5,47.46)" id="img-df7fd5d5-31">
                <path fill="none" d="M-25.92,0 L25.92,0 " class="primitive"/>
              </g>
              <g transform="translate(108.5,42.05)" id="img-df7fd5d5-32">
                <path fill="none" d="M-25.92,0 L25.92,0 " class="primitive"/>
              </g>
            </g>
            <g class="guide xgridlines yfixed" stroke-dasharray="0.5,0.5" stroke-width="0.2" stroke="#D0D0E0" id="img-df7fd5d5-33">
              <g transform="translate(84.59,55.58)" id="img-df7fd5d5-34">
                <path fill="none" d="M0,-15.53 L0,15.53 " class="primitive"/>
              </g>
              <g transform="translate(96.54,55.58)" id="img-df7fd5d5-35">
                <path fill="none" d="M0,-15.53 L0,15.53 " class="primitive"/>
              </g>
              <g transform="translate(108.5,55.58)" id="img-df7fd5d5-36">
                <path fill="none" d="M0,-15.53 L0,15.53 " class="primitive"/>
              </g>
              <g transform="translate(120.46,55.58)" id="img-df7fd5d5-37">
                <path fill="none" d="M0,-15.53 L0,15.53 " class="primitive"/>
              </g>
              <g transform="translate(132.42,55.58)" id="img-df7fd5d5-38">
                <path fill="none" d="M0,-15.53 L0,15.53 " class="primitive"/>
              </g>
            </g>
            <g class="plotpanel" id="img-df7fd5d5-39">
              <metadata>
                <boundingbox value="82.5852614519881mm 40.05166666666666mm 51.83609478532142mm 31.051666666666662mm"/>
                <unitbox value="-5.418094330019119 0.5369662990573594 10.836188660038237 -0.5739325981147188"/>
              </metadata>
              <g stroke-width="0.3" fill="#000000" fill-opacity="0.000" class="geometry" id="img-df7fd5d5-40">
                <g class="color_LCHab{Float32}(70.0f0,60.0f0,240.0f0)" stroke-dasharray="none" stroke-opacity="1" stroke="#00BFFF" id="img-df7fd5d5-41">
                  <g transform="translate(105.47,62.21)" id="img-df7fd5d5-42">
                    <path fill="none" d="M-18.69,6.89 L-18.55,6.9 -18.4,6.89 -18.25,6.89 -18.11,6.89 -17.96,6.89 -17.81,6.89 -17.67,6.89 -17.52,6.89 -17.37,6.89 -17.23,6.89 -17.08,6.89 -16.93,6.89 -16.79,6.89 -16.64,6.89 -16.49,6.88 -16.35,6.88 -16.2,6.88 -16.05,6.87 -15.91,6.87 -15.76,6.86 -15.61,6.85 -15.47,6.85 -15.32,6.84 -15.17,6.82 -15.03,6.81 -14.88,6.8 -14.73,6.78 -14.59,6.76 -14.44,6.74 -14.29,6.71 -14.15,6.69 -14,6.66 -13.85,6.62 -13.71,6.59 -13.56,6.55 -13.42,6.51 -13.27,6.46 -13.12,6.41 -12.98,6.36 -12.83,6.3 -12.68,6.24 -12.54,6.18 -12.39,6.11 -12.24,6.04 -12.1,5.97 -11.95,5.89 -11.8,5.81 -11.66,5.73 -11.51,5.65 -11.36,5.56 -11.22,5.47 -11.07,5.38 -10.92,5.28 -10.78,5.19 -10.63,5.1 -10.48,5 -10.34,4.91 -10.19,4.81 -10.04,4.72 -9.9,4.63 -9.75,4.55 -9.6,4.46 -9.46,4.38 -9.31,4.3 -9.16,4.23 -9.02,4.16 -8.87,4.09 -8.72,4.02 -8.58,3.95 -8.43,3.88 -8.28,3.82 -8.14,3.74 -7.99,3.67 -7.84,3.59 -7.7,3.5 -7.55,3.4 -7.4,3.29 -7.26,3.17 -7.11,3.03 -6.96,2.88 -6.82,2.72 -6.67,2.53 -6.52,2.33 -6.38,2.11 -6.23,1.88 -6.08,1.63 -5.94,1.37 -5.79,1.09 -5.64,0.8 -5.5,0.5 -5.35,0.2 -5.2,-0.11 -5.06,-0.41 -4.91,-0.71 -4.76,-1.01 -4.62,-1.3 -4.47,-1.58 -4.33,-1.85 -4.18,-2.1 -4.03,-2.34 -3.89,-2.56 -3.74,-2.76 -3.59,-2.95 -3.45,-3.12 -3.3,-3.28 -3.15,-3.43 -3.01,-3.57 -2.86,-3.7 -2.71,-3.84 -2.57,-3.97 -2.42,-4.11 -2.27,-4.26 -2.13,-4.41 -1.98,-4.59 -1.83,-4.78 -1.69,-5 -1.54,-5.23 -1.39,-5.49 -1.25,-5.77 -1.1,-6.08 -0.95,-6.4 -0.81,-6.75 -0.66,-7.12 -0.51,-7.5 -0.37,-7.89 -0.22,-8.29 -0.07,-8.69 0.07,-9.09 0.22,-9.49 0.37,-9.87 0.51,-10.24 0.66,-10.59 0.81,-10.92 0.95,-11.22 1.1,-11.49 1.25,-11.72 1.39,-11.92 1.54,-12.07 1.69,-12.19 1.83,-12.27 1.98,-12.32 2.13,-12.32 2.27,-12.29 2.42,-12.22 2.57,-12.12 2.71,-12 2.86,-11.85 3.01,-11.68 3.15,-11.49 3.3,-11.28 3.45,-11.07 3.59,-10.86 3.74,-10.64 3.89,-10.42 4.03,-10.22 4.18,-10.02 4.33,-9.83 4.47,-9.66 4.62,-9.5 4.76,-9.36 4.91,-9.24 5.06,-9.14 5.2,-9.06 5.35,-8.99 5.5,-8.94 5.64,-8.9 5.79,-8.87 5.94,-8.85 6.08,-8.83 6.23,-8.82 6.38,-8.8 6.52,-8.78 6.67,-8.75 6.82,-8.7 6.96,-8.64 7.11,-8.57 7.26,-8.47 7.4,-8.35 7.55,-8.21 7.7,-8.04 7.84,-7.85 7.99,-7.63 8.14,-7.38 8.28,-7.11 8.43,-6.82 8.58,-6.5 8.72,-6.16 8.87,-5.79 9.02,-5.41 9.16,-5.02 9.31,-4.61 9.46,-4.18 9.6,-3.75 9.75,-3.31 9.9,-2.87 10.04,-2.42 10.19,-1.97 10.34,-1.52 10.48,-1.08 10.63,-0.64 10.78,-0.2 10.92,0.23 11.07,0.64 11.22,1.05 11.36,1.45 11.51,1.84 11.66,2.22 11.8,2.58 11.95,2.92 12.1,3.26 12.24,3.57 12.39,3.87 12.54,4.15 12.68,4.42 12.83,4.67 12.98,4.9 13.12,5.12 13.27,5.32 13.42,5.5 13.56,5.67 13.71,5.83 13.85,5.96 14,6.09 14.15,6.2 14.29,6.3 14.44,6.39 14.59,6.46 14.73,6.53 14.88,6.59 15.03,6.64 15.17,6.68 15.32,6.72 15.47,6.75 15.61,6.78 15.76,6.8 15.91,6.82 16.05,6.83 16.2,6.85 16.35,6.86 16.49,6.86 16.64,6.87 16.79,6.88 16.93,6.88 17.08,6.88 17.23,6.89 17.37,6.89 17.52,6.89 17.67,6.89 17.81,6.89 17.96,6.89 18.11,6.89 18.25,6.89 18.4,6.89 18.55,6.89 18.69,6.89 " class="primitive"/>
                  </g>
                </g>
              </g>
            </g>
          </g>
        </g>
        <g clip-path="url(#img-df7fd5d5-43)">
          <g id="img-df7fd5d5-44">
            <g pointer-events="visible" stroke-width="0.3" fill="#000000" fill-opacity="0.000" stroke="#000000" stroke-opacity="0.000" class="guide background" id="img-df7fd5d5-45">
              <g transform="translate(51.67,55.58)" id="img-df7fd5d5-46">
                <path d="M-26.92,-15.53 L26.92,-15.53 26.92,15.53 -26.92,15.53  z" class="primitive"/>
              </g>
            </g>
            <g class="guide ygridlines xfixed" stroke-dasharray="0.5,0.5" stroke-width="0.2" stroke="#D0D0E0" id="img-df7fd5d5-47">
              <g transform="translate(51.67,69.1)" id="img-df7fd5d5-48">
                <path fill="none" d="M-26.92,0 L26.92,0 " class="primitive"/>
              </g>
              <g transform="translate(51.67,63.69)" id="img-df7fd5d5-49">
                <path fill="none" d="M-26.92,0 L26.92,0 " class="primitive"/>
              </g>
              <g transform="translate(51.67,58.28)" id="img-df7fd5d5-50">
                <path fill="none" d="M-26.92,0 L26.92,0 " class="primitive"/>
              </g>
              <g transform="translate(51.67,52.87)" id="img-df7fd5d5-51">
                <path fill="none" d="M-26.92,0 L26.92,0 " class="primitive"/>
              </g>
              <g transform="translate(51.67,47.46)" id="img-df7fd5d5-52">
                <path fill="none" d="M-26.92,0 L26.92,0 " class="primitive"/>
              </g>
              <g transform="translate(51.67,42.05)" id="img-df7fd5d5-53">
                <path fill="none" d="M-26.92,0 L26.92,0 " class="primitive"/>
              </g>
            </g>
            <g class="guide xgridlines yfixed" stroke-dasharray="0.5,0.5" stroke-width="0.2" stroke="#D0D0E0" id="img-df7fd5d5-54">
              <g transform="translate(26.75,55.58)" id="img-df7fd5d5-55">
                <path fill="none" d="M0,-15.53 L0,15.53 " class="primitive"/>
              </g>
              <g transform="translate(39.21,55.58)" id="img-df7fd5d5-56">
                <path fill="none" d="M0,-15.53 L0,15.53 " class="primitive"/>
              </g>
              <g transform="translate(51.67,55.58)" id="img-df7fd5d5-57">
                <path fill="none" d="M0,-15.53 L0,15.53 " class="primitive"/>
              </g>
              <g transform="translate(64.13,55.58)" id="img-df7fd5d5-58">
                <path fill="none" d="M0,-15.53 L0,15.53 " class="primitive"/>
              </g>
              <g transform="translate(76.59,55.58)" id="img-df7fd5d5-59">
                <path fill="none" d="M0,-15.53 L0,15.53 " class="primitive"/>
              </g>
            </g>
            <g class="plotpanel" id="img-df7fd5d5-60">
              <metadata>
                <boundingbox value="24.749166666666667mm 40.05166666666666mm 53.83609478532142mm 31.051666666666662mm"/>
                <unitbox value="-5.401315554241436 0.5369662990573594 10.802631108482872 -0.5739325981147188"/>
              </metadata>
              <g stroke-width="0.3" fill="#000000" fill-opacity="0.000" class="geometry" id="img-df7fd5d5-61">
                <g class="color_LCHab{Float32}(70.0f0,60.0f0,240.0f0)" stroke-dasharray="none" stroke-opacity="1" stroke="#00BFFF" id="img-df7fd5d5-62">
                  <g transform="translate(50.38,61.41)" id="img-df7fd5d5-63">
                    <path fill="none" d="M-17.45,7.7 L-17.31,7.7 -17.18,7.7 -17.04,7.69 -16.9,7.69 -16.77,7.69 -16.63,7.69 -16.49,7.69 -16.35,7.69 -16.22,7.69 -16.08,7.69 -15.94,7.69 -15.81,7.69 -15.67,7.69 -15.53,7.68 -15.4,7.68 -15.26,7.68 -15.12,7.67 -14.99,7.67 -14.85,7.66 -14.71,7.65 -14.58,7.64 -14.44,7.63 -14.3,7.61 -14.17,7.6 -14.03,7.58 -13.89,7.55 -13.75,7.53 -13.62,7.5 -13.48,7.47 -13.34,7.43 -13.21,7.39 -13.07,7.34 -12.93,7.29 -12.8,7.23 -12.66,7.17 -12.52,7.1 -12.39,7.03 -12.25,6.95 -12.11,6.87 -11.98,6.78 -11.84,6.68 -11.7,6.58 -11.56,6.48 -11.43,6.37 -11.29,6.25 -11.15,6.14 -11.02,6.02 -10.88,5.89 -10.74,5.76 -10.61,5.63 -10.47,5.5 -10.33,5.36 -10.2,5.22 -10.06,5.08 -9.92,4.94 -9.79,4.8 -9.65,4.65 -9.51,4.51 -9.38,4.36 -9.24,4.21 -9.1,4.06 -8.96,3.91 -8.83,3.76 -8.69,3.61 -8.55,3.46 -8.42,3.31 -8.28,3.16 -8.14,3.02 -8.01,2.87 -7.87,2.73 -7.73,2.59 -7.6,2.45 -7.46,2.31 -7.32,2.17 -7.19,2.04 -7.05,1.9 -6.91,1.77 -6.77,1.63 -6.64,1.49 -6.5,1.35 -6.36,1.21 -6.23,1.05 -6.09,0.89 -5.95,0.71 -5.82,0.53 -5.68,0.32 -5.54,0.1 -5.41,-0.14 -5.27,-0.4 -5.13,-0.68 -5,-0.98 -4.86,-1.31 -4.72,-1.67 -4.58,-2.04 -4.45,-2.44 -4.31,-2.87 -4.17,-3.31 -4.04,-3.77 -3.9,-4.25 -3.76,-4.74 -3.63,-5.24 -3.49,-5.74 -3.35,-6.24 -3.22,-6.75 -3.08,-7.24 -2.94,-7.73 -2.81,-8.21 -2.67,-8.67 -2.53,-9.1 -2.4,-9.52 -2.26,-9.92 -2.12,-10.29 -1.98,-10.63 -1.85,-10.95 -1.71,-11.25 -1.57,-11.51 -1.44,-11.76 -1.3,-11.98 -1.16,-12.17 -1.03,-12.35 -0.89,-12.5 -0.75,-12.64 -0.62,-12.76 -0.48,-12.86 -0.34,-12.95 -0.21,-13.03 -0.07,-13.09 0.07,-13.14 0.21,-13.18 0.34,-13.21 0.48,-13.23 0.62,-13.23 0.75,-13.23 0.89,-13.21 1.03,-13.19 1.16,-13.16 1.3,-13.11 1.44,-13.06 1.57,-13 1.71,-12.93 1.85,-12.85 1.98,-12.76 2.12,-12.66 2.26,-12.55 2.4,-12.44 2.53,-12.32 2.67,-12.18 2.81,-12.04 2.94,-11.9 3.08,-11.74 3.22,-11.57 3.35,-11.4 3.49,-11.21 3.63,-11.02 3.76,-10.82 3.9,-10.6 4.04,-10.38 4.17,-10.16 4.31,-9.92 4.45,-9.67 4.58,-9.42 4.72,-9.16 4.86,-8.9 5,-8.63 5.13,-8.35 5.27,-8.07 5.41,-7.79 5.54,-7.5 5.68,-7.2 5.82,-6.91 5.95,-6.6 6.09,-6.3 6.23,-5.99 6.36,-5.67 6.5,-5.35 6.64,-5.03 6.77,-4.7 6.91,-4.37 7.05,-4.03 7.19,-3.69 7.32,-3.35 7.46,-3 7.6,-2.65 7.73,-2.3 7.87,-1.95 8.01,-1.6 8.14,-1.25 8.28,-0.9 8.42,-0.55 8.55,-0.21 8.69,0.13 8.83,0.46 8.96,0.79 9.1,1.11 9.24,1.42 9.38,1.72 9.51,2.02 9.65,2.31 9.79,2.59 9.92,2.86 10.06,3.12 10.2,3.37 10.33,3.62 10.47,3.86 10.61,4.09 10.74,4.32 10.88,4.54 11.02,4.75 11.15,4.95 11.29,5.15 11.43,5.34 11.56,5.53 11.7,5.7 11.84,5.87 11.98,6.04 12.11,6.19 12.25,6.33 12.39,6.47 12.52,6.6 12.66,6.72 12.8,6.83 12.93,6.93 13.07,7.03 13.21,7.11 13.34,7.19 13.48,7.26 13.62,7.32 13.75,7.38 13.89,7.43 14.03,7.47 14.17,7.5 14.3,7.54 14.44,7.56 14.58,7.59 14.71,7.61 14.85,7.62 14.99,7.64 15.12,7.65 15.26,7.66 15.4,7.67 15.53,7.67 15.67,7.68 15.81,7.68 15.94,7.68 16.08,7.69 16.22,7.69 16.35,7.69 16.49,7.69 16.63,7.69 16.77,7.69 16.9,7.69 17.04,7.69 17.18,7.69 17.31,7.69 17.45,7.7 " class="primitive"/>
                  </g>
                </g>
              </g>
            </g>
          </g>
        </g>
        <g class="guide ylabels" font-size="2.82" font-family="'PT Sans Caption','Helvetica Neue','Helvetica',sans-serif" fill="#6C606B" id="img-df7fd5d5-64">
          <g transform="translate(23.75,69.1)" id="img-df7fd5d5-65">
            <g class="primitive">
              <text text-anchor="end" dy="0.35em">0.0</text>
            </g>
          </g>
          <g transform="translate(23.75,63.69)" id="img-df7fd5d5-66">
            <g class="primitive">
              <text text-anchor="end" dy="0.35em">0.1</text>
            </g>
          </g>
          <g transform="translate(23.75,58.28)" id="img-df7fd5d5-67">
            <g class="primitive">
              <text text-anchor="end" dy="0.35em">0.2</text>
            </g>
          </g>
          <g transform="translate(23.75,52.87)" id="img-df7fd5d5-68">
            <g class="primitive">
              <text text-anchor="end" dy="0.35em">0.3</text>
            </g>
          </g>
          <g transform="translate(23.75,47.46)" id="img-df7fd5d5-69">
            <g class="primitive">
              <text text-anchor="end" dy="0.35em">0.4</text>
            </g>
          </g>
          <g transform="translate(23.75,42.05)" id="img-df7fd5d5-70">
            <g class="primitive">
              <text text-anchor="end" dy="0.35em">0.5</text>
            </g>
          </g>
        </g>
        <g font-size="3.88" font-family="'PT Sans','Helvetica Neue','Helvetica',sans-serif" fill="#564A55" stroke="#000000" stroke-opacity="0.000" id="img-df7fd5d5-71">
          <g transform="translate(16.73,55.58)" id="img-df7fd5d5-72">
            <g class="primitive">
              <text text-anchor="end" dy="0.35em">2</text>
            </g>
          </g>
        </g>
        <g clip-path="url(#img-df7fd5d5-73)">
          <g id="img-df7fd5d5-74">
            <g pointer-events="visible" stroke-width="0.3" fill="#000000" fill-opacity="0.000" stroke="#000000" stroke-opacity="0.000" class="guide background" id="img-df7fd5d5-75">
              <g transform="translate(108.5,21.53)" id="img-df7fd5d5-76">
                <path d="M-25.92,-14.53 L25.92,-14.53 25.92,14.53 -25.92,14.53  z" class="primitive"/>
              </g>
            </g>
            <g class="guide ygridlines xfixed" stroke-dasharray="0.5,0.5" stroke-width="0.2" stroke="#D0D0E0" id="img-df7fd5d5-77">
              <g transform="translate(108.5,34.05)" id="img-df7fd5d5-78">
                <path fill="none" d="M-25.92,0 L25.92,0 " class="primitive"/>
              </g>
              <g transform="translate(108.5,29.04)" id="img-df7fd5d5-79">
                <path fill="none" d="M-25.92,0 L25.92,0 " class="primitive"/>
              </g>
              <g transform="translate(108.5,24.03)" id="img-df7fd5d5-80">
                <path fill="none" d="M-25.92,0 L25.92,0 " class="primitive"/>
              </g>
              <g transform="translate(108.5,19.02)" id="img-df7fd5d5-81">
                <path fill="none" d="M-25.92,0 L25.92,0 " class="primitive"/>
              </g>
              <g transform="translate(108.5,14.01)" id="img-df7fd5d5-82">
                <path fill="none" d="M-25.92,0 L25.92,0 " class="primitive"/>
              </g>
              <g transform="translate(108.5,9)" id="img-df7fd5d5-83">
                <path fill="none" d="M-25.92,0 L25.92,0 " class="primitive"/>
              </g>
            </g>
            <g class="guide xgridlines yfixed" stroke-dasharray="0.5,0.5" stroke-width="0.2" stroke="#D0D0E0" id="img-df7fd5d5-84">
              <g transform="translate(84.59,21.53)" id="img-df7fd5d5-85">
                <path fill="none" d="M0,-14.53 L0,14.53 " class="primitive"/>
              </g>
              <g transform="translate(96.54,21.53)" id="img-df7fd5d5-86">
                <path fill="none" d="M0,-14.53 L0,14.53 " class="primitive"/>
              </g>
              <g transform="translate(108.5,21.53)" id="img-df7fd5d5-87">
                <path fill="none" d="M0,-14.53 L0,14.53 " class="primitive"/>
              </g>
              <g transform="translate(120.46,21.53)" id="img-df7fd5d5-88">
                <path fill="none" d="M0,-14.53 L0,14.53 " class="primitive"/>
              </g>
              <g transform="translate(132.42,21.53)" id="img-df7fd5d5-89">
                <path fill="none" d="M0,-14.53 L0,14.53 " class="primitive"/>
              </g>
            </g>
            <g class="plotpanel" id="img-df7fd5d5-90">
              <metadata>
                <boundingbox value="82.5852614519881mm 7.0mm 51.83609478532142mm 29.051666666666662mm"/>
                <unitbox value="-5.418094330019119 0.5399175038254275 10.836188660038237 -0.5798350076508549"/>
              </metadata>
              <g stroke-width="0.3" fill="#000000" fill-opacity="0.000" class="geometry" id="img-df7fd5d5-91">
                <g class="color_LCHab{Float32}(70.0f0,60.0f0,240.0f0)" stroke-dasharray="none" stroke-opacity="1" stroke="#00BFFF" id="img-df7fd5d5-92">
                  <g transform="translate(108.91,27.44)" id="img-df7fd5d5-93">
                    <path fill="none" d="M-18.04,6.62 L-17.9,6.62 -17.76,6.62 -17.62,6.62 -17.48,6.62 -17.33,6.62 -17.19,6.62 -17.05,6.61 -16.91,6.61 -16.77,6.61 -16.63,6.61 -16.48,6.61 -16.34,6.61 -16.2,6.61 -16.06,6.6 -15.92,6.6 -15.78,6.6 -15.64,6.59 -15.49,6.58 -15.35,6.58 -15.21,6.57 -15.07,6.56 -14.93,6.55 -14.79,6.53 -14.65,6.51 -14.5,6.49 -14.36,6.47 -14.22,6.45 -14.08,6.42 -13.94,6.39 -13.8,6.36 -13.65,6.32 -13.51,6.28 -13.37,6.24 -13.23,6.19 -13.09,6.14 -12.95,6.09 -12.81,6.04 -12.66,5.99 -12.52,5.93 -12.38,5.87 -12.24,5.81 -12.1,5.75 -11.96,5.69 -11.82,5.63 -11.67,5.56 -11.53,5.5 -11.39,5.44 -11.25,5.37 -11.11,5.3 -10.97,5.24 -10.82,5.16 -10.68,5.09 -10.54,5.01 -10.4,4.93 -10.26,4.84 -10.12,4.75 -9.98,4.65 -9.83,4.53 -9.69,4.41 -9.55,4.28 -9.41,4.13 -9.27,3.97 -9.13,3.8 -8.99,3.61 -8.84,3.4 -8.7,3.17 -8.56,2.93 -8.42,2.66 -8.28,2.38 -8.14,2.07 -7.99,1.74 -7.85,1.4 -7.71,1.03 -7.57,0.65 -7.43,0.24 -7.29,-0.18 -7.15,-0.61 -7,-1.05 -6.86,-1.51 -6.72,-1.96 -6.58,-2.43 -6.44,-2.89 -6.3,-3.35 -6.16,-3.8 -6.01,-4.25 -5.87,-4.68 -5.73,-5.1 -5.59,-5.5 -5.45,-5.89 -5.31,-6.26 -5.16,-6.61 -5.02,-6.95 -4.88,-7.27 -4.74,-7.57 -4.6,-7.87 -4.46,-8.16 -4.32,-8.44 -4.17,-8.73 -4.03,-9.01 -3.89,-9.29 -3.75,-9.58 -3.61,-9.88 -3.47,-10.18 -3.33,-10.49 -3.18,-10.81 -3.04,-11.14 -2.9,-11.47 -2.76,-11.8 -2.62,-12.13 -2.48,-12.46 -2.33,-12.77 -2.19,-13.08 -2.05,-13.37 -1.91,-13.63 -1.77,-13.87 -1.63,-14.08 -1.49,-14.25 -1.34,-14.39 -1.2,-14.48 -1.06,-14.54 -0.92,-14.55 -0.78,-14.52 -0.64,-14.44 -0.5,-14.32 -0.35,-14.16 -0.21,-13.96 -0.07,-13.72 0.07,-13.45 0.21,-13.15 0.35,-12.82 0.5,-12.47 0.64,-12.1 0.78,-11.71 0.92,-11.31 1.06,-10.91 1.2,-10.5 1.34,-10.09 1.49,-9.68 1.63,-9.28 1.77,-8.89 1.91,-8.51 2.05,-8.15 2.19,-7.8 2.33,-7.46 2.48,-7.15 2.62,-6.85 2.76,-6.57 2.9,-6.31 3.04,-6.06 3.18,-5.82 3.33,-5.6 3.47,-5.4 3.61,-5.2 3.75,-5 3.89,-4.82 4.03,-4.63 4.17,-4.45 4.32,-4.27 4.46,-4.08 4.6,-3.89 4.74,-3.7 4.88,-3.5 5.02,-3.3 5.16,-3.09 5.31,-2.88 5.45,-2.66 5.59,-2.44 5.73,-2.22 5.87,-1.99 6.01,-1.77 6.16,-1.54 6.3,-1.32 6.44,-1.1 6.58,-0.88 6.72,-0.67 6.86,-0.47 7,-0.27 7.15,-0.07 7.29,0.12 7.43,0.3 7.57,0.48 7.71,0.65 7.85,0.82 7.99,0.98 8.14,1.15 8.28,1.31 8.42,1.47 8.56,1.63 8.7,1.79 8.84,1.95 8.99,2.11 9.13,2.27 9.27,2.43 9.41,2.6 9.55,2.77 9.69,2.93 9.83,3.1 9.98,3.27 10.12,3.44 10.26,3.61 10.4,3.77 10.54,3.94 10.68,4.1 10.82,4.26 10.97,4.41 11.11,4.56 11.25,4.71 11.39,4.85 11.53,4.98 11.67,5.11 11.82,5.24 11.96,5.35 12.1,5.46 12.24,5.57 12.38,5.67 12.52,5.76 12.66,5.85 12.81,5.93 12.95,6 13.09,6.07 13.23,6.13 13.37,6.19 13.51,6.24 13.65,6.29 13.8,6.33 13.94,6.37 14.08,6.41 14.22,6.44 14.36,6.47 14.5,6.49 14.65,6.51 14.79,6.53 14.93,6.54 15.07,6.56 15.21,6.57 15.35,6.58 15.49,6.58 15.64,6.59 15.78,6.6 15.92,6.6 16.06,6.6 16.2,6.61 16.34,6.61 16.48,6.61 16.63,6.61 16.77,6.61 16.91,6.61 17.05,6.61 17.19,6.62 17.33,6.62 17.48,6.62 17.62,6.62 17.76,6.62 17.9,6.62 18.04,6.62 " class="primitive"/>
                  </g>
                </g>
              </g>
            </g>
          </g>
        </g>
        <g clip-path="url(#img-df7fd5d5-94)">
          <g id="img-df7fd5d5-95">
            <g pointer-events="visible" stroke-width="0.3" fill="#000000" fill-opacity="0.000" stroke="#000000" stroke-opacity="0.000" class="guide background" id="img-df7fd5d5-96">
              <g transform="translate(51.67,21.53)" id="img-df7fd5d5-97">
                <path d="M-26.92,-14.53 L26.92,-14.53 26.92,14.53 -26.92,14.53  z" class="primitive"/>
              </g>
            </g>
            <g class="guide ygridlines xfixed" stroke-dasharray="0.5,0.5" stroke-width="0.2" stroke="#D0D0E0" id="img-df7fd5d5-98">
              <g transform="translate(51.67,34.05)" id="img-df7fd5d5-99">
                <path fill="none" d="M-26.92,0 L26.92,0 " class="primitive"/>
              </g>
              <g transform="translate(51.67,29.04)" id="img-df7fd5d5-100">
                <path fill="none" d="M-26.92,0 L26.92,0 " class="primitive"/>
              </g>
              <g transform="translate(51.67,24.03)" id="img-df7fd5d5-101">
                <path fill="none" d="M-26.92,0 L26.92,0 " class="primitive"/>
              </g>
              <g transform="translate(51.67,19.02)" id="img-df7fd5d5-102">
                <path fill="none" d="M-26.92,0 L26.92,0 " class="primitive"/>
              </g>
              <g transform="translate(51.67,14.01)" id="img-df7fd5d5-103">
                <path fill="none" d="M-26.92,0 L26.92,0 " class="primitive"/>
              </g>
              <g transform="translate(51.67,9)" id="img-df7fd5d5-104">
                <path fill="none" d="M-26.92,0 L26.92,0 " class="primitive"/>
              </g>
            </g>
            <g class="guide xgridlines yfixed" stroke-dasharray="0.5,0.5" stroke-width="0.2" stroke="#D0D0E0" id="img-df7fd5d5-105">
              <g transform="translate(26.75,21.53)" id="img-df7fd5d5-106">
                <path fill="none" d="M0,-14.53 L0,14.53 " class="primitive"/>
              </g>
              <g transform="translate(39.21,21.53)" id="img-df7fd5d5-107">
                <path fill="none" d="M0,-14.53 L0,14.53 " class="primitive"/>
              </g>
              <g transform="translate(51.67,21.53)" id="img-df7fd5d5-108">
                <path fill="none" d="M0,-14.53 L0,14.53 " class="primitive"/>
              </g>
              <g transform="translate(64.13,21.53)" id="img-df7fd5d5-109">
                <path fill="none" d="M0,-14.53 L0,14.53 " class="primitive"/>
              </g>
              <g transform="translate(76.59,21.53)" id="img-df7fd5d5-110">
                <path fill="none" d="M0,-14.53 L0,14.53 " class="primitive"/>
              </g>
            </g>
            <g class="plotpanel" id="img-df7fd5d5-111">
              <metadata>
                <boundingbox value="24.749166666666667mm 7.0mm 53.83609478532142mm 29.051666666666662mm"/>
                <unitbox value="-5.401315554241436 0.5399175038254275 10.802631108482872 -0.5798350076508549"/>
              </metadata>
              <g stroke-width="0.3" fill="#000000" fill-opacity="0.000" class="geometry" id="img-df7fd5d5-112">
                <g class="color_LCHab{Float32}(70.0f0,60.0f0,240.0f0)" stroke-dasharray="none" stroke-opacity="1" stroke="#00BFFF" id="img-df7fd5d5-113">
                  <g transform="translate(50.59,27.29)" id="img-df7fd5d5-114">
                    <path fill="none" d="M-18.4,6.76 L-18.25,6.76 -18.11,6.76 -17.96,6.76 -17.82,6.76 -17.67,6.76 -17.53,6.76 -17.39,6.76 -17.24,6.76 -17.1,6.76 -16.95,6.76 -16.81,6.76 -16.66,6.75 -16.52,6.75 -16.38,6.75 -16.23,6.75 -16.09,6.74 -15.94,6.74 -15.8,6.73 -15.65,6.73 -15.51,6.72 -15.37,6.71 -15.22,6.7 -15.08,6.69 -14.93,6.68 -14.79,6.66 -14.64,6.64 -14.5,6.62 -14.36,6.6 -14.21,6.58 -14.07,6.55 -13.92,6.52 -13.78,6.48 -13.63,6.45 -13.49,6.4 -13.35,6.36 -13.2,6.31 -13.06,6.26 -12.91,6.2 -12.77,6.14 -12.62,6.07 -12.48,6 -12.34,5.92 -12.19,5.84 -12.05,5.75 -11.9,5.66 -11.76,5.56 -11.61,5.45 -11.47,5.34 -11.33,5.22 -11.18,5.09 -11.04,4.95 -10.89,4.81 -10.75,4.66 -10.6,4.5 -10.46,4.34 -10.32,4.17 -10.17,4 -10.03,3.83 -9.88,3.65 -9.74,3.47 -9.59,3.29 -9.45,3.12 -9.31,2.95 -9.16,2.78 -9.02,2.62 -8.87,2.46 -8.73,2.31 -8.58,2.17 -8.44,2.04 -8.3,1.92 -8.15,1.81 -8.01,1.7 -7.86,1.61 -7.72,1.52 -7.57,1.44 -7.43,1.36 -7.29,1.28 -7.14,1.21 -7,1.13 -6.85,1.05 -6.71,0.97 -6.56,0.87 -6.42,0.77 -6.28,0.66 -6.13,0.53 -5.99,0.39 -5.84,0.24 -5.7,0.06 -5.55,-0.13 -5.41,-0.35 -5.27,-0.58 -5.12,-0.84 -4.98,-1.11 -4.83,-1.41 -4.69,-1.73 -4.54,-2.06 -4.4,-2.41 -4.26,-2.78 -4.11,-3.16 -3.97,-3.56 -3.82,-3.97 -3.68,-4.38 -3.53,-4.8 -3.39,-5.23 -3.25,-5.65 -3.1,-6.08 -2.96,-6.5 -2.81,-6.92 -2.67,-7.33 -2.52,-7.74 -2.38,-8.13 -2.24,-8.51 -2.09,-8.87 -1.95,-9.22 -1.8,-9.56 -1.66,-9.88 -1.51,-10.18 -1.37,-10.46 -1.23,-10.73 -1.08,-10.98 -0.94,-11.2 -0.79,-11.41 -0.65,-11.6 -0.5,-11.77 -0.36,-11.92 -0.22,-12.05 -0.07,-12.16 0.07,-12.25 0.22,-12.32 0.36,-12.37 0.5,-12.4 0.65,-12.41 0.79,-12.4 0.94,-12.38 1.08,-12.33 1.23,-12.27 1.37,-12.19 1.51,-12.09 1.66,-11.99 1.8,-11.86 1.95,-11.73 2.09,-11.59 2.24,-11.44 2.38,-11.28 2.52,-11.12 2.67,-10.95 2.81,-10.78 2.96,-10.6 3.1,-10.42 3.25,-10.24 3.39,-10.06 3.53,-9.87 3.68,-9.69 3.82,-9.5 3.97,-9.31 4.11,-9.12 4.26,-8.92 4.4,-8.73 4.54,-8.53 4.69,-8.33 4.83,-8.13 4.98,-7.93 5.12,-7.73 5.27,-7.52 5.41,-7.31 5.55,-7.1 5.7,-6.88 5.84,-6.66 5.99,-6.43 6.13,-6.19 6.28,-5.95 6.42,-5.7 6.56,-5.45 6.71,-5.18 6.85,-4.91 7,-4.62 7.14,-4.33 7.29,-4.03 7.43,-3.72 7.57,-3.4 7.72,-3.07 7.86,-2.74 8.01,-2.4 8.15,-2.06 8.3,-1.71 8.44,-1.37 8.58,-1.03 8.73,-0.7 8.87,-0.37 9.02,-0.04 9.16,0.27 9.31,0.58 9.45,0.88 9.59,1.17 9.74,1.45 9.88,1.71 10.03,1.97 10.17,2.22 10.32,2.46 10.46,2.69 10.6,2.91 10.75,3.12 10.89,3.33 11.04,3.53 11.18,3.73 11.33,3.92 11.47,4.1 11.61,4.28 11.76,4.46 11.9,4.63 12.05,4.79 12.19,4.95 12.34,5.1 12.48,5.25 12.62,5.39 12.77,5.52 12.91,5.65 13.06,5.77 13.2,5.88 13.35,5.98 13.49,6.07 13.63,6.16 13.78,6.24 13.92,6.31 14.07,6.37 14.21,6.43 14.36,6.48 14.5,6.52 14.64,6.56 14.79,6.59 14.93,6.62 15.08,6.64 15.22,6.67 15.37,6.68 15.51,6.7 15.65,6.71 15.8,6.72 15.94,6.73 16.09,6.74 16.23,6.74 16.38,6.74 16.52,6.75 16.66,6.75 16.81,6.75 16.95,6.75 17.1,6.76 17.24,6.76 17.39,6.76 17.53,6.76 17.67,6.76 17.82,6.76 17.96,6.76 18.11,6.76 18.25,6.76 18.4,6.76 " class="primitive"/>
                  </g>
                </g>
              </g>
            </g>
          </g>
        </g>
        <g class="guide ylabels" font-size="2.82" font-family="'PT Sans Caption','Helvetica Neue','Helvetica',sans-serif" fill="#6C606B" id="img-df7fd5d5-115">
          <g transform="translate(23.75,34.05)" id="img-df7fd5d5-116">
            <g class="primitive">
              <text text-anchor="end" dy="0.35em">0.0</text>
            </g>
          </g>
          <g transform="translate(23.75,29.04)" id="img-df7fd5d5-117">
            <g class="primitive">
              <text text-anchor="end" dy="0.35em">0.1</text>
            </g>
          </g>
          <g transform="translate(23.75,24.03)" id="img-df7fd5d5-118">
            <g class="primitive">
              <text text-anchor="end" dy="0.35em">0.2</text>
            </g>
          </g>
          <g transform="translate(23.75,19.02)" id="img-df7fd5d5-119">
            <g class="primitive">
              <text text-anchor="end" dy="0.35em">0.3</text>
            </g>
          </g>
          <g transform="translate(23.75,14.01)" id="img-df7fd5d5-120">
            <g class="primitive">
              <text text-anchor="end" dy="0.35em">0.4</text>
            </g>
          </g>
          <g transform="translate(23.75,9)" id="img-df7fd5d5-121">
            <g class="primitive">
              <text text-anchor="end" dy="0.35em">0.5</text>
            </g>
          </g>
        </g>
        <g font-size="3.88" font-family="'PT Sans','Helvetica Neue','Helvetica',sans-serif" fill="#564A55" stroke="#000000" stroke-opacity="0.000" id="img-df7fd5d5-122">
          <g transform="translate(16.73,21.53)" id="img-df7fd5d5-123">
            <g class="primitive">
              <text text-anchor="end" dy="0.35em">1</text>
            </g>
          </g>
        </g>
      </g>
    </g>
  </g>
  <g font-size="3.88" font-family="'PT Sans','Helvetica Neue','Helvetica',sans-serif" fill="#564A55" stroke="#000000" stroke-opacity="0.000" id="img-df7fd5d5-124">
    <g transform="translate(8.81,43.19)" id="img-df7fd5d5-125">
      <g class="primitive">
        <text text-anchor="middle" dy="0.35em" transform="rotate(-90,0, 2)">Chain</text>
      </g>
    </g>
  </g>
</g>
<defs>
  <clipPath id="img-df7fd5d5-3">
    <path d="M12.61,5 L136.42,5 136.42,85.39 12.61,85.39 " />
  </clipPath>
  <clipPath id="img-df7fd5d5-22">
    <path d="M82.59,40.05 L134.42,40.05 134.42,71.1 82.59,71.1 " />
  </clipPath>
  <clipPath id="img-df7fd5d5-43">
    <path d="M24.75,40.05 L78.59,40.05 78.59,71.1 24.75,71.1 " />
  </clipPath>
  <clipPath id="img-df7fd5d5-73">
    <path d="M82.59,7 L134.42,7 134.42,36.05 82.59,36.05 " />
  </clipPath>
  <clipPath id="img-df7fd5d5-94">
    <path d="M24.75,7 L78.59,7 78.59,36.05 24.75,36.05 " />
  </clipPath>
</defs>
</svg>
