<?xml version="1.0" encoding="UTF-8"?>
<svg xmlns="http://www.w3.org/2000/svg"
     xmlns:xlink="http://www.w3.org/1999/xlink"
     xmlns:gadfly="http://www.gadflyjl.org/ns"
     version="1.2"
     width="141.42mm" height="100mm" viewBox="0 0 141.42 100"
     stroke="none"
     fill="#000000"
     stroke-width="0.3"
     font-size="3.88"
>
<defs>
  <marker id="arrow" markerWidth="15" markerHeight="7" refX="5" refY="3.5" orient="auto" markerUnits="strokeWidth">
    <path d="M0,0 L15,3.5 L0,7 z" stroke="context-stroke" fill="context-stroke"/>
  </marker>
</defs>
<g class="plotroot xscalable yscalable" id="img-d221d2bd-1">
  <g font-size="3.88" font-family="'PT Sans','Helvetica Neue','Helvetica',sans-serif" fill="#564A55" stroke="#000000" stroke-opacity="0.000" id="img-d221d2bd-2">
    <g transform="translate(73.05,88.39)">
      <g class="primitive">
        <text text-anchor="middle" dy="0.6em">A</text>
      </g>
    </g>
  </g>
  <g class="guide xlabels" font-size="2.82" font-family="'PT Sans Caption','Helvetica Neue','Helvetica',sans-serif" fill="#6C606B" id="img-d221d2bd-3">
    <g transform="translate(20.63,81.72)">
      <g class="primitive">
        <text text-anchor="middle" dy="0.6em">-6</text>
      </g>
    </g>
    <g transform="translate(41.6,81.72)">
      <g class="primitive">
        <text text-anchor="middle" dy="0.6em">-4</text>
      </g>
    </g>
    <g transform="translate(62.57,81.72)">
      <g class="primitive">
        <text text-anchor="middle" dy="0.6em">-2</text>
      </g>
    </g>
    <g transform="translate(83.54,81.72)">
      <g class="primitive">
        <text text-anchor="middle" dy="0.6em">0</text>
      </g>
    </g>
    <g transform="translate(104.51,81.72)">
      <g class="primitive">
        <text text-anchor="middle" dy="0.6em">2</text>
      </g>
    </g>
    <g transform="translate(125.47,81.72)">
      <g class="primitive">
        <text text-anchor="middle" dy="0.6em">4</text>
      </g>
    </g>
  </g>
  <g class="guide colorkey" id="img-d221d2bd-4">
    <g fill="#4C404B" font-size="2.82" font-family="'PT Sans','Helvetica Neue','Helvetica',sans-serif" id="img-d221d2bd-5">
      <g transform="translate(131.29,41.04)" id="img-d221d2bd-6" class="color_1">
        <g class="primitive">
          <text dy="0.35em">1</text>
        </g>
      </g>
      <g transform="translate(131.29,44.67)" id="img-d221d2bd-7" class="color_2">
        <g class="primitive">
          <text dy="0.35em">2</text>
        </g>
      </g>
      <g transform="translate(131.29,48.3)" id="img-d221d2bd-8" class="color_3">
        <g class="primitive">
          <text dy="0.35em">3</text>
        </g>
      </g>
    </g>
    <g fill-opacity="1" id="img-d221d2bd-9">
      <g transform="translate(129.38,41.04)" id="img-d221d2bd-10" class="color_1" stroke="#FFFFFF" fill="#00BFFF">
        <path d="M-0.91,-0.91 L0.91,-0.91 0.91,0.91 -0.91,0.91  z" class="primitive"/>
      </g>
      <g transform="translate(129.38,44.67)" id="img-d221d2bd-11" class="color_2" stroke="#FFFFFF" fill="#D4CA3A">
        <path d="M-0.91,-0.91 L0.91,-0.91 0.91,0.91 -0.91,0.91  z" class="primitive"/>
      </g>
      <g transform="translate(129.38,48.3)" id="img-d221d2bd-12" class="color_3" stroke="#FFFFFF" fill="#FF6DAE">
        <path d="M-0.91,-0.91 L0.91,-0.91 0.91,0.91 -0.91,0.91  z" class="primitive"/>
      </g>
    </g>
    <g fill="#362A35" font-size="3.88" font-family="'PT Sans','Helvetica Neue','Helvetica',sans-serif" stroke="#000000" stroke-opacity="0.000" id="img-d221d2bd-13">
      <g transform="translate(128.47,37.22)" id="img-d221d2bd-14">
        <g class="primitive">
          <text dy="-0em">chain</text>
        </g>
      </g>
    </g>
  </g>
  <g clip-path="url(#img-d221d2bd-15)">
    <g id="img-d221d2bd-16">
      <g pointer-events="visible" stroke-width="0.3" fill="#000000" fill-opacity="0.000" stroke="#000000" stroke-opacity="0.000" class="guide background" id="img-d221d2bd-17">
        <g transform="translate(73.05,42.86)" id="img-d221d2bd-18">
          <path d="M-54.42,-37.86 L54.42,-37.86 54.42,37.86 -54.42,37.86  z" class="primitive"/>
        </g>
      </g>
      <g class="guide ygridlines xfixed" stroke-dasharray="0.5,0.5" stroke-width="0.2" stroke="#D0D0E0" id="img-d221d2bd-19">
        <g transform="translate(73.05,78.72)" id="img-d221d2bd-20">
          <path fill="none" d="M-54.42,0 L54.42,0 " class="primitive"/>
        </g>
        <g transform="translate(73.05,60.79)" id="img-d221d2bd-21">
          <path fill="none" d="M-54.42,0 L54.42,0 " class="primitive"/>
        </g>
        <g transform="translate(73.05,42.86)" id="img-d221d2bd-22">
          <path fill="none" d="M-54.42,0 L54.42,0 " class="primitive"/>
        </g>
        <g transform="translate(73.05,24.93)" id="img-d221d2bd-23">
          <path fill="none" d="M-54.42,0 L54.42,0 " class="primitive"/>
        </g>
        <g transform="translate(73.05,7)" id="img-d221d2bd-24">
          <path fill="none" d="M-54.42,0 L54.42,0 " class="primitive"/>
        </g>
      </g>
      <g class="guide xgridlines yfixed" stroke-dasharray="0.5,0.5" stroke-width="0.2" stroke="#D0D0E0" id="img-d221d2bd-25">
        <g transform="translate(20.63,42.86)" id="img-d221d2bd-26">
          <path fill="none" d="M0,-37.86 L0,37.86 " class="primitive"/>
        </g>
        <g transform="translate(41.6,42.86)" id="img-d221d2bd-27">
          <path fill="none" d="M0,-37.86 L0,37.86 " class="primitive"/>
        </g>
        <g transform="translate(62.57,42.86)" id="img-d221d2bd-28">
          <path fill="none" d="M0,-37.86 L0,37.86 " class="primitive"/>
        </g>
        <g transform="translate(83.54,42.86)" id="img-d221d2bd-29">
          <path fill="none" d="M0,-37.86 L0,37.86 " class="primitive"/>
        </g>
        <g transform="translate(104.51,42.86)" id="img-d221d2bd-30">
          <path fill="none" d="M0,-37.86 L0,37.86 " class="primitive"/>
        </g>
        <g transform="translate(125.47,42.86)" id="img-d221d2bd-31">
          <path fill="none" d="M0,-37.86 L0,37.86 " class="primitive"/>
        </g>
      </g>
      <g class="plotpanel" id="img-d221d2bd-32">
        <metadata>
          <boundingbox value="18.63166666666666mm 5.0mm 108.84302290397616mm 75.715mm"/>
          <unitbox value="-6.190761382551108 0.411155267377815 10.381522765102215 -0.42231053475562996"/>
        </metadata>
        <g stroke-width="0.3" fill="#000000" fill-opacity="0.000" class="geometry" id="img-d221d2bd-33">
          <g transform="translate(81.74,55.73)" id="img-d221d2bd-34" class="color_3" stroke="#FF6DAE" stroke-dasharray="none" stroke-opacity="1">
            <path fill="none" d="M-40.73,22.98 L-40.41,22.98 -40.09,22.98 -39.77,22.98 -39.45,22.98 -39.13,22.98 -38.81,22.97 -38.5,22.97 -38.18,22.97 -37.86,22.96 -37.54,22.96 -37.22,22.95 -36.9,22.94 -36.58,22.93 -36.26,22.91 -35.94,22.89 -35.62,22.87 -35.3,22.84 -34.98,22.8 -34.66,22.76 -34.34,22.71 -34.02,22.65 -33.7,22.59 -33.38,22.5 -33.06,22.41 -32.75,22.3 -32.43,22.18 -32.11,22.04 -31.79,21.88 -31.47,21.71 -31.15,21.51 -30.83,21.3 -30.51,21.06 -30.19,20.81 -29.87,20.54 -29.55,20.24 -29.23,19.94 -28.91,19.62 -28.59,19.28 -28.27,18.94 -27.95,18.59 -27.63,18.24 -27.31,17.89 -26.99,17.55 -26.68,17.21 -26.36,16.89 -26.04,16.59 -25.72,16.3 -25.4,16.04 -25.08,15.8 -24.76,15.59 -24.44,15.41 -24.12,15.25 -23.8,15.13 -23.48,15.03 -23.16,14.95 -22.84,14.89 -22.52,14.85 -22.2,14.82 -21.88,14.79 -21.56,14.76 -21.24,14.72 -20.92,14.66 -20.61,14.58 -20.29,14.47 -19.97,14.31 -19.65,14.11 -19.33,13.85 -19.01,13.54 -18.69,13.15 -18.37,12.7 -18.05,12.17 -17.73,11.55 -17.41,10.86 -17.09,10.07 -16.77,9.21 -16.45,8.25 -16.13,7.21 -15.81,6.08 -15.49,4.87 -15.17,3.58 -14.86,2.22 -14.54,0.79 -14.22,-0.71 -13.9,-2.26 -13.58,-3.87 -13.26,-5.51 -12.94,-7.19 -12.62,-8.9 -12.3,-10.62 -11.98,-12.36 -11.66,-14.08 -11.34,-15.8 -11.02,-17.49 -10.7,-19.15 -10.38,-20.76 -10.06,-22.33 -9.74,-23.83 -9.42,-25.26 -9.1,-26.61 -8.79,-27.88 -8.47,-29.06 -8.15,-30.14 -7.83,-31.12 -7.51,-31.99 -7.19,-32.76 -6.87,-33.42 -6.55,-33.97 -6.23,-34.41 -5.91,-34.75 -5.59,-35 -5.27,-35.15 -4.95,-35.21 -4.63,-35.19 -4.31,-35.11 -3.99,-34.96 -3.67,-34.76 -3.35,-34.53 -3.03,-34.26 -2.72,-33.98 -2.4,-33.68 -2.08,-33.39 -1.76,-33.11 -1.44,-32.85 -1.12,-32.62 -0.8,-32.42 -0.48,-32.25 -0.16,-32.13 0.16,-32.04 0.48,-32 0.8,-32 1.12,-32.03 1.44,-32.1 1.76,-32.19 2.08,-32.3 2.4,-32.42 2.72,-32.55 3.03,-32.68 3.35,-32.79 3.67,-32.89 3.99,-32.96 4.31,-32.99 4.63,-32.99 4.95,-32.94 5.27,-32.84 5.59,-32.68 5.91,-32.47 6.23,-32.21 6.55,-31.89 6.87,-31.51 7.19,-31.08 7.51,-30.59 7.83,-30.06 8.15,-29.48 8.47,-28.86 8.79,-28.2 9.1,-27.51 9.42,-26.79 9.74,-26.04 10.06,-25.28 10.38,-24.5 10.7,-23.7 11.02,-22.9 11.34,-22.09 11.66,-21.28 11.98,-20.47 12.3,-19.66 12.62,-18.85 12.94,-18.05 13.26,-17.25 13.58,-16.45 13.9,-15.66 14.22,-14.87 14.54,-14.09 14.86,-13.3 15.17,-12.52 15.49,-11.75 15.81,-10.97 16.13,-10.2 16.45,-9.42 16.77,-8.65 17.09,-7.87 17.41,-7.1 17.73,-6.33 18.05,-5.56 18.37,-4.78 18.69,-4.01 19.01,-3.24 19.33,-2.47 19.65,-1.7 19.97,-0.93 20.29,-0.17 20.61,0.6 20.92,1.37 21.24,2.15 21.56,2.92 21.88,3.69 22.2,4.47 22.52,5.25 22.84,6.03 23.16,6.81 23.48,7.6 23.8,8.38 24.12,9.16 24.44,9.93 24.76,10.7 25.08,11.47 25.4,12.22 25.72,12.95 26.04,13.68 26.36,14.38 26.68,15.06 26.99,15.72 27.31,16.35 27.63,16.95 27.95,17.53 28.27,18.07 28.59,18.57 28.91,19.05 29.23,19.49 29.55,19.9 29.87,20.27 30.19,20.61 30.51,20.92 30.83,21.2 31.15,21.44 31.47,21.67 31.79,21.86 32.11,22.03 32.43,22.18 32.75,22.31 33.06,22.42 33.38,22.52 33.7,22.6 34.02,22.67 34.34,22.73 34.66,22.78 34.98,22.82 35.3,22.85 35.62,22.88 35.94,22.9 36.26,22.92 36.58,22.93 36.9,22.94 37.22,22.95 37.54,22.96 37.86,22.97 38.18,22.97 38.5,22.97 38.81,22.98 39.13,22.98 39.45,22.98 39.77,22.98 40.09,22.98 40.41,22.98 40.73,22.98 " class="primitive"/>
          </g>
          <g transform="translate(81.27,54.52)" id="img-d221d2bd-35" class="color_1" stroke="#00BFFF" stroke-dasharray="none" stroke-opacity="1">
            <path fill="none" d="M-38.7,24.19 L-38.4,24.19 -38.09,24.19 -37.79,24.19 -37.49,24.19 -37.18,24.19 -36.88,24.19 -36.57,24.18 -36.27,24.18 -35.97,24.18 -35.66,24.18 -35.36,24.17 -35.06,24.17 -34.75,24.16 -34.45,24.15 -34.15,24.14 -33.84,24.13 -33.54,24.12 -33.24,24.1 -32.93,24.08 -32.63,24.05 -32.33,24.02 -32.02,23.99 -31.72,23.94 -31.42,23.9 -31.11,23.84 -30.81,23.78 -30.5,23.71 -30.2,23.63 -29.9,23.54 -29.59,23.43 -29.29,23.32 -28.99,23.2 -28.68,23.06 -28.38,22.92 -28.08,22.75 -27.77,22.58 -27.47,22.39 -27.17,22.18 -26.86,21.96 -26.56,21.72 -26.26,21.47 -25.95,21.19 -25.65,20.9 -25.34,20.58 -25.04,20.25 -24.74,19.89 -24.43,19.5 -24.13,19.1 -23.83,18.66 -23.52,18.2 -23.22,17.72 -22.92,17.2 -22.61,16.67 -22.31,16.11 -22.01,15.53 -21.7,14.93 -21.4,14.32 -21.1,13.69 -20.79,13.06 -20.49,12.42 -20.18,11.79 -19.88,11.16 -19.58,10.54 -19.27,9.94 -18.97,9.36 -18.67,8.8 -18.36,8.27 -18.06,7.77 -17.76,7.31 -17.45,6.87 -17.15,6.47 -16.85,6.1 -16.54,5.75 -16.24,5.44 -15.94,5.14 -15.63,4.86 -15.33,4.58 -15.02,4.31 -14.72,4.04 -14.42,3.76 -14.11,3.46 -13.81,3.13 -13.51,2.76 -13.2,2.36 -12.9,1.91 -12.6,1.41 -12.29,0.84 -11.99,0.21 -11.69,-0.48 -11.38,-1.25 -11.08,-2.09 -10.78,-3 -10.47,-3.99 -10.17,-5.05 -9.86,-6.18 -9.56,-7.38 -9.26,-8.64 -8.95,-9.95 -8.65,-11.32 -8.35,-12.74 -8.04,-14.19 -7.74,-15.68 -7.44,-17.19 -7.13,-18.71 -6.83,-20.23 -6.53,-21.76 -6.22,-23.27 -5.92,-24.77 -5.62,-26.24 -5.31,-27.68 -5.01,-29.08 -4.7,-30.44 -4.4,-31.75 -4.1,-33.01 -3.79,-34.21 -3.49,-35.35 -3.19,-36.42 -2.88,-37.44 -2.58,-38.39 -2.28,-39.27 -1.97,-40.09 -1.67,-40.84 -1.37,-41.52 -1.06,-42.12 -0.76,-42.66 -0.46,-43.13 -0.15,-43.52 0.15,-43.85 0.46,-44.1 0.76,-44.28 1.06,-44.38 1.37,-44.42 1.67,-44.39 1.97,-44.29 2.28,-44.12 2.58,-43.9 2.88,-43.61 3.19,-43.28 3.49,-42.89 3.79,-42.46 4.1,-41.99 4.4,-41.48 4.7,-40.94 5.01,-40.38 5.31,-39.79 5.62,-39.19 5.92,-38.57 6.22,-37.94 6.53,-37.3 6.83,-36.65 7.13,-35.99 7.44,-35.33 7.74,-34.66 8.04,-33.99 8.35,-33.31 8.65,-32.62 8.95,-31.93 9.26,-31.23 9.56,-30.53 9.86,-29.82 10.17,-29.11 10.47,-28.38 10.78,-27.65 11.08,-26.91 11.38,-26.16 11.69,-25.39 11.99,-24.61 12.29,-23.82 12.6,-23 12.9,-22.17 13.2,-21.3 13.51,-20.41 13.81,-19.5 14.11,-18.55 14.42,-17.56 14.72,-16.55 15.02,-15.49 15.33,-14.41 15.63,-13.29 15.94,-12.15 16.24,-10.98 16.54,-9.79 16.85,-8.58 17.15,-7.36 17.45,-6.14 17.76,-4.91 18.06,-3.7 18.36,-2.49 18.67,-1.31 18.97,-0.15 19.27,0.98 19.58,2.08 19.88,3.15 20.18,4.18 20.49,5.18 20.79,6.13 21.1,7.05 21.4,7.94 21.7,8.79 22.01,9.62 22.31,10.41 22.61,11.18 22.92,11.92 23.22,12.64 23.52,13.34 23.83,14.02 24.13,14.68 24.43,15.33 24.74,15.95 25.04,16.56 25.34,17.15 25.65,17.72 25.95,18.27 26.26,18.79 26.56,19.29 26.86,19.76 27.17,20.21 27.47,20.63 27.77,21.03 28.08,21.39 28.38,21.73 28.68,22.03 28.99,22.31 29.29,22.57 29.59,22.79 29.9,22.99 30.2,23.17 30.5,23.33 30.81,23.47 31.11,23.59 31.42,23.69 31.72,23.78 32.02,23.85 32.33,23.91 32.63,23.97 32.93,24.01 33.24,24.05 33.54,24.08 33.84,24.1 34.15,24.12 34.45,24.14 34.75,24.15 35.06,24.16 35.36,24.17 35.66,24.17 35.97,24.18 36.27,24.18 36.57,24.18 36.88,24.18 37.18,24.19 37.49,24.19 37.79,24.19 38.09,24.19 38.4,24.19 38.7,24.19 " class="primitive"/>
          </g>
          <g transform="translate(80.83,53.21)" id="img-d221d2bd-36" class="color_2" stroke="#D4CA3A" stroke-dasharray="none" stroke-opacity="1">
            <path fill="none" d="M-36.71,25.5 L-36.42,25.5 -36.13,25.5 -35.85,25.5 -35.56,25.5 -35.27,25.5 -34.98,25.5 -34.69,25.5 -34.41,25.49 -34.12,25.49 -33.83,25.49 -33.54,25.48 -33.26,25.48 -32.97,25.47 -32.68,25.46 -32.39,25.45 -32.1,25.44 -31.82,25.42 -31.53,25.4 -31.24,25.38 -30.95,25.35 -30.66,25.32 -30.38,25.27 -30.09,25.23 -29.8,25.17 -29.51,25.11 -29.22,25.03 -28.94,24.95 -28.65,24.85 -28.36,24.74 -28.07,24.61 -27.78,24.47 -27.5,24.32 -27.21,24.15 -26.92,23.96 -26.63,23.75 -26.35,23.53 -26.06,23.29 -25.77,23.03 -25.48,22.75 -25.19,22.45 -24.91,22.14 -24.62,21.81 -24.33,21.46 -24.04,21.1 -23.75,20.73 -23.47,20.34 -23.18,19.93 -22.89,19.52 -22.6,19.1 -22.31,18.66 -22.03,18.22 -21.74,17.77 -21.45,17.31 -21.16,16.85 -20.87,16.38 -20.59,15.9 -20.3,15.42 -20.01,14.93 -19.72,14.44 -19.43,13.95 -19.15,13.46 -18.86,12.96 -18.57,12.46 -18.28,11.97 -18,11.47 -17.71,10.98 -17.42,10.49 -17.13,10 -16.84,9.52 -16.56,9.04 -16.27,8.57 -15.98,8.11 -15.69,7.65 -15.4,7.2 -15.12,6.75 -14.83,6.31 -14.54,5.86 -14.25,5.41 -13.96,4.95 -13.68,4.48 -13.39,4 -13.1,3.48 -12.81,2.94 -12.52,2.36 -12.24,1.74 -11.95,1.07 -11.66,0.34 -11.37,-0.45 -11.09,-1.31 -10.8,-2.25 -10.51,-3.26 -10.22,-4.35 -9.93,-5.52 -9.65,-6.77 -9.36,-8.1 -9.07,-9.5 -8.78,-10.97 -8.49,-12.5 -8.21,-14.08 -7.92,-15.7 -7.63,-17.35 -7.34,-19.02 -7.05,-20.69 -6.77,-22.36 -6.48,-24.01 -6.19,-25.62 -5.9,-27.2 -5.61,-28.71 -5.33,-30.17 -5.04,-31.56 -4.75,-32.87 -4.46,-34.09 -4.17,-35.24 -3.89,-36.29 -3.6,-37.27 -3.31,-38.15 -3.02,-38.96 -2.74,-39.68 -2.45,-40.34 -2.16,-40.92 -1.87,-41.43 -1.58,-41.88 -1.3,-42.28 -1.01,-42.63 -0.72,-42.92 -0.43,-43.17 -0.14,-43.38 0.14,-43.55 0.43,-43.68 0.72,-43.77 1.01,-43.83 1.3,-43.85 1.58,-43.83 1.87,-43.79 2.16,-43.71 2.45,-43.6 2.74,-43.45 3.02,-43.28 3.31,-43.07 3.6,-42.83 3.89,-42.57 4.17,-42.27 4.46,-41.95 4.75,-41.6 5.04,-41.22 5.33,-40.81 5.61,-40.38 5.9,-39.91 6.19,-39.42 6.48,-38.9 6.77,-38.35 7.05,-37.76 7.34,-37.15 7.63,-36.51 7.92,-35.84 8.21,-35.14 8.49,-34.41 8.78,-33.65 9.07,-32.87 9.36,-32.06 9.65,-31.23 9.93,-30.37 10.22,-29.49 10.51,-28.6 10.8,-27.68 11.09,-26.75 11.37,-25.81 11.66,-24.85 11.95,-23.87 12.24,-22.89 12.52,-21.88 12.81,-20.87 13.1,-19.84 13.39,-18.8 13.68,-17.74 13.96,-16.67 14.25,-15.58 14.54,-14.48 14.83,-13.37 15.12,-12.24 15.4,-11.1 15.69,-9.95 15.98,-8.8 16.27,-7.63 16.56,-6.47 16.84,-5.3 17.13,-4.13 17.42,-2.98 17.71,-1.83 18,-0.69 18.28,0.43 18.57,1.53 18.86,2.61 19.15,3.67 19.43,4.71 19.72,5.71 20.01,6.69 20.3,7.65 20.59,8.57 20.87,9.47 21.16,10.34 21.45,11.18 21.74,12 22.03,12.8 22.31,13.57 22.6,14.31 22.89,15.04 23.18,15.74 23.47,16.42 23.75,17.07 24.04,17.71 24.33,18.32 24.62,18.9 24.91,19.47 25.19,20 25.48,20.51 25.77,20.99 26.06,21.45 26.35,21.87 26.63,22.27 26.92,22.64 27.21,22.98 27.5,23.29 27.78,23.57 28.07,23.83 28.36,24.06 28.65,24.26 28.94,24.44 29.22,24.61 29.51,24.75 29.8,24.87 30.09,24.97 30.38,25.07 30.66,25.14 30.95,25.21 31.24,25.26 31.53,25.31 31.82,25.35 32.1,25.38 32.39,25.4 32.68,25.43 32.97,25.44 33.26,25.46 33.54,25.47 33.83,25.47 34.12,25.48 34.41,25.49 34.69,25.49 34.98,25.49 35.27,25.5 35.56,25.5 35.85,25.5 36.13,25.5 36.42,25.5 36.71,25.5 " class="primitive"/>
          </g>
        </g>
      </g>
    </g>
  </g>
  <g class="guide ylabels" font-size="2.82" font-family="'PT Sans Caption','Helvetica Neue','Helvetica',sans-serif" fill="#6C606B" id="img-d221d2bd-37">
    <g transform="translate(17.63,78.72)" id="img-d221d2bd-38">
      <g class="primitive">
        <text text-anchor="end" dy="0.35em">0.0</text>
      </g>
    </g>
    <g transform="translate(17.63,60.79)" id="img-d221d2bd-39">
      <g class="primitive">
        <text text-anchor="end" dy="0.35em">0.1</text>
      </g>
    </g>
    <g transform="translate(17.63,42.86)" id="img-d221d2bd-40">
      <g class="primitive">
        <text text-anchor="end" dy="0.35em">0.2</text>
      </g>
    </g>
    <g transform="translate(17.63,24.93)" id="img-d221d2bd-41">
      <g class="primitive">
        <text text-anchor="end" dy="0.35em">0.3</text>
      </g>
    </g>
    <g transform="translate(17.63,7)" id="img-d221d2bd-42">
      <g class="primitive">
        <text text-anchor="end" dy="0.35em">0.4</text>
      </g>
    </g>
  </g>
  <g font-size="3.88" font-family="'PT Sans','Helvetica Neue','Helvetica',sans-serif" fill="#564A55" stroke="#000000" stroke-opacity="0.000" id="img-d221d2bd-43">
    <g transform="translate(8.81,40.86)" id="img-d221d2bd-44">
      <g class="primitive">
        <text text-anchor="middle" dy="0.35em" transform="rotate(-90,0, 2)">Density</text>
      </g>
    </g>
  </g>
</g>
<defs>
  <clipPath id="img-d221d2bd-15">
    <path d="M18.63,5 L127.47,5 127.47,80.72 18.63,80.72 " />
  </clipPath>
</defs>
</svg>
