<?xml version="1.0" encoding="UTF-8"?>
<svg xmlns="http://www.w3.org/2000/svg"
     xmlns:xlink="http://www.w3.org/1999/xlink"
     xmlns:gadfly="http://www.gadflyjl.org/ns"
     version="1.2"
     width="141.42mm" height="100mm" viewBox="0 0 141.42 100"
     stroke="none"
     fill="#000000"
     stroke-width="0.3"
     font-size="3.88"
>
<defs>
  <marker id="arrow" markerWidth="15" markerHeight="7" refX="5" refY="3.5" orient="auto" markerUnits="strokeWidth">
    <path d="M0,0 L15,3.5 L0,7 z" stroke="context-stroke" fill="context-stroke"/>
  </marker>
</defs>
<g class="plotroot xscalable yscalable" id="img-5da9d107-1">
  <g font-size="3.88" font-family="'PT Sans','Helvetica Neue','Helvetica',sans-serif" fill="#564A55" stroke="#000000" stroke-opacity="0.000" id="img-5da9d107-2">
    <g transform="translate(70.04,88.39)">
      <g class="primitive">
        <text text-anchor="middle" dy="0.6em">value</text>
      </g>
    </g>
  </g>
  <g class="guide colorkey" id="img-5da9d107-3">
    <g fill="#4C404B" font-size="2.82" font-family="'PT Sans','Helvetica Neue','Helvetica',sans-serif" id="img-5da9d107-4">
      <g transform="translate(131.29,43.38)" id="img-5da9d107-5" class="color_1">
        <g class="primitive">
          <text dy="0.35em">1</text>
        </g>
      </g>
      <g transform="translate(131.29,47.01)" id="img-5da9d107-6" class="color_2">
        <g class="primitive">
          <text dy="0.35em">2</text>
        </g>
      </g>
      <g transform="translate(131.29,50.63)" id="img-5da9d107-7" class="color_3">
        <g class="primitive">
          <text dy="0.35em">3</text>
        </g>
      </g>
    </g>
    <g fill-opacity="1" id="img-5da9d107-8">
      <g transform="translate(129.38,43.38)" id="img-5da9d107-9" class="color_1" stroke="#FFFFFF" fill="#00BFFF">
        <path d="M-0.91,-0.91 L0.91,-0.91 0.91,0.91 -0.91,0.91  z" class="primitive"/>
      </g>
      <g transform="translate(129.38,47.01)" id="img-5da9d107-10" class="color_2" stroke="#FFFFFF" fill="#D4CA3A">
        <path d="M-0.91,-0.91 L0.91,-0.91 0.91,0.91 -0.91,0.91  z" class="primitive"/>
      </g>
      <g transform="translate(129.38,50.63)" id="img-5da9d107-11" class="color_3" stroke="#FFFFFF" fill="#FF6DAE">
        <path d="M-0.91,-0.91 L0.91,-0.91 0.91,0.91 -0.91,0.91  z" class="primitive"/>
      </g>
    </g>
    <g fill="#362A35" font-size="3.88" font-family="'PT Sans','Helvetica Neue','Helvetica',sans-serif" stroke="#000000" stroke-opacity="0.000" id="img-5da9d107-12">
      <g transform="translate(128.47,39.56)" id="img-5da9d107-13">
        <g class="primitive">
          <text dy="-0em">chain</text>
        </g>
      </g>
    </g>
  </g>
  <g clip-path="url(#img-5da9d107-14)">
    <g id="img-5da9d107-15">
      <g class="plotpanel" id="img-5da9d107-16">
        <metadata>
          <boundingbox value="12.611666666666665mm 5.0mm 114.86302290397617mm 80.38833333333334mm"/>
          <unitbox value="0.0 0.0 1.0 1.0"/>
        </metadata>
        <g class="guide xlabels" font-size="2.82" font-family="'PT Sans Caption','Helvetica Neue','Helvetica',sans-serif" fill="#6C606B" id="img-5da9d107-17">
          <g transform="translate(26.91,81.72)" id="img-5da9d107-18">
            <g class="primitive">
              <text text-anchor="middle" dy="0.6em">-5.0</text>
            </g>
          </g>
          <g transform="translate(51.05,81.72)" id="img-5da9d107-19">
            <g class="primitive">
              <text text-anchor="middle" dy="0.6em">-2.5</text>
            </g>
          </g>
          <g transform="translate(75.19,81.72)" id="img-5da9d107-20">
            <g class="primitive">
              <text text-anchor="middle" dy="0.6em">0.0</text>
            </g>
          </g>
          <g transform="translate(99.33,81.72)" id="img-5da9d107-21">
            <g class="primitive">
              <text text-anchor="middle" dy="0.6em">2.5</text>
            </g>
          </g>
          <g transform="translate(123.47,81.72)" id="img-5da9d107-22">
            <g class="primitive">
              <text text-anchor="middle" dy="0.6em">5.0</text>
            </g>
          </g>
        </g>
        <g clip-path="url(#img-5da9d107-23)">
          <g id="img-5da9d107-24">
            <g pointer-events="visible" stroke-width="0.3" fill="#000000" fill-opacity="0.000" stroke="#000000" stroke-opacity="0.000" class="guide background" id="img-5da9d107-25">
              <g transform="translate(75.19,62.79)" id="img-5da9d107-26">
                <path d="M-50.28,-17.93 L50.28,-17.93 50.28,17.93 -50.28,17.93  z" class="primitive"/>
              </g>
            </g>
            <g class="guide ygridlines xfixed" stroke-dasharray="0.5,0.5" stroke-width="0.2" stroke="#D0D0E0" id="img-5da9d107-27">
              <g transform="translate(75.19,78.72)" id="img-5da9d107-28">
                <path fill="none" d="M-50.28,0 L50.28,0 " class="primitive"/>
              </g>
              <g transform="translate(75.19,72.34)" id="img-5da9d107-29">
                <path fill="none" d="M-50.28,0 L50.28,0 " class="primitive"/>
              </g>
              <g transform="translate(75.19,65.97)" id="img-5da9d107-30">
                <path fill="none" d="M-50.28,0 L50.28,0 " class="primitive"/>
              </g>
              <g transform="translate(75.19,59.6)" id="img-5da9d107-31">
                <path fill="none" d="M-50.28,0 L50.28,0 " class="primitive"/>
              </g>
              <g transform="translate(75.19,53.23)" id="img-5da9d107-32">
                <path fill="none" d="M-50.28,0 L50.28,0 " class="primitive"/>
              </g>
              <g transform="translate(75.19,46.86)" id="img-5da9d107-33">
                <path fill="none" d="M-50.28,0 L50.28,0 " class="primitive"/>
              </g>
            </g>
            <g class="guide xgridlines yfixed" stroke-dasharray="0.5,0.5" stroke-width="0.2" stroke="#D0D0E0" id="img-5da9d107-34">
              <g transform="translate(26.91,62.79)" id="img-5da9d107-35">
                <path fill="none" d="M0,-17.93 L0,17.93 " class="primitive"/>
              </g>
              <g transform="translate(51.05,62.79)" id="img-5da9d107-36">
                <path fill="none" d="M0,-17.93 L0,17.93 " class="primitive"/>
              </g>
              <g transform="translate(75.19,62.79)" id="img-5da9d107-37">
                <path fill="none" d="M0,-17.93 L0,17.93 " class="primitive"/>
              </g>
              <g transform="translate(99.33,62.79)" id="img-5da9d107-38">
                <path fill="none" d="M0,-17.93 L0,17.93 " class="primitive"/>
              </g>
              <g transform="translate(123.47,62.79)" id="img-5da9d107-39">
                <path fill="none" d="M0,-17.93 L0,17.93 " class="primitive"/>
              </g>
            </g>
            <g class="plotpanel" id="img-5da9d107-40">
              <metadata>
                <boundingbox value="24.905mm 44.8575mm 100.56968957064284mm 35.8575mm"/>
                <unitbox value="-5.207104321127279 0.5313897826257553 10.414208642254557 -0.5627795652515106"/>
              </metadata>
              <g stroke-width="0.3" fill="#000000" fill-opacity="0.000" class="geometry" id="img-5da9d107-41">
                <g transform="translate(74.83,69.8)" id="img-5da9d107-42" class="color_3" stroke="#FF6DAE" stroke-dasharray="none" stroke-opacity="1">
                  <path fill="none" d="M-34.39,8.91 L-34.12,8.91 -33.85,8.91 -33.58,8.91 -33.31,8.91 -33.04,8.91 -32.77,8.91 -32.5,8.91 -32.23,8.91 -31.96,8.91 -31.69,8.91 -31.42,8.91 -31.15,8.9 -30.88,8.9 -30.61,8.9 -30.34,8.9 -30.07,8.89 -29.8,8.89 -29.53,8.88 -29.26,8.88 -28.99,8.87 -28.72,8.86 -28.45,8.85 -28.18,8.83 -27.91,8.82 -27.64,8.8 -27.37,8.78 -27.11,8.76 -26.84,8.73 -26.57,8.7 -26.3,8.66 -26.03,8.62 -25.76,8.58 -25.49,8.53 -25.22,8.47 -24.95,8.41 -24.68,8.35 -24.41,8.27 -24.14,8.19 -23.87,8.11 -23.6,8.01 -23.33,7.91 -23.06,7.79 -22.79,7.67 -22.52,7.54 -22.25,7.4 -21.98,7.25 -21.71,7.08 -21.44,6.91 -21.17,6.72 -20.9,6.52 -20.63,6.3 -20.36,6.07 -20.09,5.83 -19.82,5.57 -19.55,5.29 -19.28,5 -19.01,4.69 -18.74,4.36 -18.47,4.02 -18.2,3.66 -17.94,3.29 -17.67,2.9 -17.4,2.49 -17.13,2.07 -16.86,1.64 -16.59,1.19 -16.32,0.74 -16.05,0.27 -15.78,-0.2 -15.51,-0.68 -15.24,-1.16 -14.97,-1.64 -14.7,-2.12 -14.43,-2.59 -14.16,-3.06 -13.89,-3.53 -13.62,-3.98 -13.35,-4.41 -13.08,-4.83 -12.81,-5.24 -12.54,-5.62 -12.27,-5.99 -12,-6.33 -11.73,-6.65 -11.46,-6.95 -11.19,-7.22 -10.92,-7.47 -10.65,-7.7 -10.38,-7.92 -10.11,-8.11 -9.84,-8.29 -9.57,-8.46 -9.3,-8.61 -9.04,-8.76 -8.77,-8.91 -8.5,-9.06 -8.23,-9.21 -7.96,-9.37 -7.69,-9.53 -7.42,-9.71 -7.15,-9.9 -6.88,-10.1 -6.61,-10.32 -6.34,-10.55 -6.07,-10.8 -5.8,-11.06 -5.53,-11.33 -5.26,-11.61 -4.99,-11.9 -4.72,-12.19 -4.45,-12.49 -4.18,-12.78 -3.91,-13.06 -3.64,-13.34 -3.37,-13.6 -3.1,-13.85 -2.83,-14.08 -2.56,-14.29 -2.29,-14.49 -2.02,-14.65 -1.75,-14.8 -1.48,-14.92 -1.21,-15.02 -0.94,-15.09 -0.67,-15.13 -0.4,-15.15 -0.13,-15.15 0.13,-15.12 0.4,-15.06 0.67,-14.98 0.94,-14.88 1.21,-14.74 1.48,-14.59 1.75,-14.41 2.02,-14.2 2.29,-13.97 2.56,-13.72 2.83,-13.45 3.1,-13.15 3.37,-12.83 3.64,-12.5 3.91,-12.14 4.18,-11.77 4.45,-11.39 4.72,-11 4.99,-10.6 5.26,-10.2 5.53,-9.79 5.8,-9.38 6.07,-8.97 6.34,-8.57 6.61,-8.17 6.88,-7.79 7.15,-7.41 7.42,-7.04 7.69,-6.68 7.96,-6.34 8.23,-6.01 8.5,-5.69 8.77,-5.38 9.04,-5.08 9.3,-4.8 9.57,-4.52 9.84,-4.26 10.11,-4 10.38,-3.75 10.65,-3.5 10.92,-3.26 11.19,-3.03 11.46,-2.8 11.73,-2.58 12,-2.36 12.27,-2.14 12.54,-1.92 12.81,-1.71 13.08,-1.5 13.35,-1.29 13.62,-1.09 13.89,-0.88 14.16,-0.68 14.43,-0.48 14.7,-0.28 14.97,-0.08 15.24,0.12 15.51,0.32 15.78,0.52 16.05,0.73 16.32,0.94 16.59,1.15 16.86,1.37 17.13,1.59 17.4,1.81 17.67,2.05 17.94,2.29 18.2,2.53 18.47,2.78 18.74,3.04 19.01,3.3 19.28,3.56 19.55,3.83 19.82,4.1 20.09,4.37 20.36,4.64 20.63,4.91 20.9,5.17 21.17,5.43 21.44,5.69 21.71,5.94 21.98,6.18 22.25,6.41 22.52,6.63 22.79,6.84 23.06,7.04 23.33,7.23 23.6,7.41 23.87,7.57 24.14,7.72 24.41,7.86 24.68,7.99 24.95,8.1 25.22,8.21 25.49,8.3 25.76,8.39 26.03,8.46 26.3,8.53 26.57,8.58 26.84,8.64 27.11,8.68 27.37,8.72 27.64,8.75 27.91,8.78 28.18,8.8 28.45,8.82 28.72,8.84 28.99,8.85 29.26,8.86 29.53,8.87 29.8,8.88 30.07,8.89 30.34,8.89 30.61,8.9 30.88,8.9 31.15,8.9 31.42,8.9 31.69,8.91 31.96,8.91 32.23,8.91 32.5,8.91 32.77,8.91 33.04,8.91 33.31,8.91 33.58,8.91 33.85,8.91 34.12,8.91 34.39,8.91 " class="primitive"/>
                </g>
                <g transform="translate(76.02,70.3)" id="img-5da9d107-43" class="color_1" stroke="#00BFFF" stroke-dasharray="none" stroke-opacity="1">
                  <path fill="none" d="M-36.42,8.41 L-36.14,8.41 -35.85,8.41 -35.56,8.41 -35.28,8.41 -34.99,8.41 -34.71,8.41 -34.42,8.41 -34.14,8.41 -33.85,8.41 -33.56,8.41 -33.28,8.41 -32.99,8.4 -32.71,8.4 -32.42,8.4 -32.14,8.39 -31.85,8.39 -31.56,8.38 -31.28,8.37 -30.99,8.36 -30.71,8.35 -30.42,8.34 -30.14,8.32 -29.85,8.3 -29.57,8.28 -29.28,8.26 -28.99,8.23 -28.71,8.2 -28.42,8.17 -28.14,8.13 -27.85,8.08 -27.57,8.04 -27.28,7.99 -26.99,7.93 -26.71,7.88 -26.42,7.81 -26.14,7.75 -25.85,7.68 -25.57,7.61 -25.28,7.54 -24.99,7.47 -24.71,7.39 -24.42,7.31 -24.14,7.23 -23.85,7.15 -23.57,7.07 -23.28,6.99 -23,6.91 -22.71,6.83 -22.42,6.74 -22.14,6.66 -21.85,6.57 -21.57,6.47 -21.28,6.38 -21,6.27 -20.71,6.16 -20.42,6.04 -20.14,5.91 -19.85,5.77 -19.57,5.61 -19.28,5.44 -19,5.26 -18.71,5.05 -18.42,4.83 -18.14,4.59 -17.85,4.32 -17.57,4.03 -17.28,3.72 -17,3.39 -16.71,3.02 -16.43,2.63 -16.14,2.22 -15.85,1.78 -15.57,1.31 -15.28,0.82 -15,0.31 -14.71,-0.22 -14.43,-0.77 -14.14,-1.34 -13.85,-1.91 -13.57,-2.5 -13.28,-3.09 -13,-3.67 -12.71,-4.26 -12.43,-4.84 -12.14,-5.4 -11.85,-5.95 -11.57,-6.48 -11.28,-7 -11,-7.49 -10.71,-7.96 -10.43,-8.4 -10.14,-8.83 -9.86,-9.24 -9.57,-9.63 -9.28,-10.01 -9,-10.38 -8.71,-10.74 -8.43,-11.1 -8.14,-11.45 -7.86,-11.82 -7.57,-12.18 -7.28,-12.56 -7,-12.95 -6.71,-13.34 -6.43,-13.75 -6.14,-14.16 -5.86,-14.58 -5.57,-15 -5.28,-15.43 -5,-15.84 -4.71,-16.24 -4.43,-16.63 -4.14,-17 -3.86,-17.33 -3.57,-17.64 -3.29,-17.9 -3,-18.12 -2.71,-18.29 -2.43,-18.42 -2.14,-18.49 -1.86,-18.5 -1.57,-18.46 -1.29,-18.36 -1,-18.21 -0.71,-18.01 -0.43,-17.75 -0.14,-17.45 0.14,-17.11 0.43,-16.72 0.71,-16.31 1,-15.86 1.29,-15.38 1.57,-14.89 1.86,-14.38 2.14,-13.87 2.43,-13.35 2.71,-12.83 3,-12.31 3.29,-11.8 3.57,-11.3 3.86,-10.82 4.14,-10.36 4.43,-9.91 4.71,-9.49 5,-9.09 5.28,-8.71 5.57,-8.35 5.86,-8.02 6.14,-7.7 6.43,-7.41 6.71,-7.13 7,-6.86 7.28,-6.61 7.57,-6.36 7.86,-6.13 8.14,-5.89 8.43,-5.66 8.71,-5.43 9,-5.19 9.28,-4.95 9.57,-4.71 9.86,-4.46 10.14,-4.2 10.43,-3.93 10.71,-3.66 11,-3.38 11.28,-3.1 11.57,-2.82 11.85,-2.53 12.14,-2.25 12.43,-1.96 12.71,-1.68 13,-1.4 13.28,-1.12 13.57,-0.85 13.85,-0.59 14.14,-0.34 14.43,-0.09 14.71,0.15 15,0.38 15.28,0.61 15.57,0.83 15.85,1.04 16.14,1.25 16.43,1.46 16.71,1.66 17,1.87 17.28,2.07 17.57,2.27 17.85,2.47 18.14,2.68 18.42,2.89 18.71,3.09 19,3.3 19.28,3.52 19.57,3.73 19.85,3.94 20.14,4.16 20.42,4.37 20.71,4.59 21,4.8 21.28,5.01 21.57,5.21 21.85,5.42 22.14,5.61 22.42,5.8 22.71,5.99 23,6.17 23.28,6.34 23.57,6.5 23.85,6.66 24.14,6.81 24.42,6.95 24.71,7.08 24.99,7.21 25.28,7.32 25.57,7.43 25.85,7.54 26.14,7.63 26.42,7.72 26.71,7.8 26.99,7.87 27.28,7.94 27.57,8 27.85,8.06 28.14,8.1 28.42,8.15 28.71,8.19 28.99,8.22 29.28,8.25 29.57,8.28 29.85,8.3 30.14,8.32 30.42,8.34 30.71,8.35 30.99,8.36 31.28,8.37 31.56,8.38 31.85,8.39 32.14,8.39 32.42,8.4 32.71,8.4 32.99,8.4 33.28,8.41 33.56,8.41 33.85,8.41 34.14,8.41 34.42,8.41 34.71,8.41 34.99,8.41 35.28,8.41 35.56,8.41 35.85,8.41 36.14,8.41 36.42,8.41 " class="primitive"/>
                </g>
                <g transform="translate(69.07,70.59)" id="img-5da9d107-44" class="color_2" stroke="#D4CA3A" stroke-dasharray="none" stroke-opacity="1">
                  <path fill="none" d="M-37.74,8.12 L-37.44,8.12 -37.15,8.12 -36.85,8.12 -36.55,8.12 -36.26,8.12 -35.96,8.12 -35.67,8.12 -35.37,8.12 -35.07,8.12 -34.78,8.12 -34.48,8.12 -34.19,8.11 -33.89,8.11 -33.59,8.11 -33.3,8.11 -33,8.1 -32.71,8.1 -32.41,8.09 -32.11,8.09 -31.82,8.08 -31.52,8.07 -31.23,8.06 -30.93,8.05 -30.63,8.04 -30.34,8.02 -30.04,8 -29.75,7.98 -29.45,7.96 -29.15,7.93 -28.86,7.91 -28.56,7.87 -28.27,7.84 -27.97,7.8 -27.67,7.76 -27.38,7.71 -27.08,7.66 -26.79,7.61 -26.49,7.55 -26.19,7.49 -25.9,7.42 -25.6,7.35 -25.31,7.28 -25.01,7.2 -24.71,7.12 -24.42,7.03 -24.12,6.94 -23.83,6.85 -23.53,6.75 -23.23,6.65 -22.94,6.55 -22.64,6.44 -22.35,6.33 -22.05,6.22 -21.75,6.11 -21.46,6 -21.16,5.89 -20.87,5.78 -20.57,5.67 -20.27,5.56 -19.98,5.46 -19.68,5.35 -19.39,5.26 -19.09,5.16 -18.79,5.07 -18.5,4.98 -18.2,4.89 -17.91,4.81 -17.61,4.73 -17.31,4.65 -17.02,4.57 -16.72,4.49 -16.43,4.41 -16.13,4.32 -15.83,4.22 -15.54,4.12 -15.24,4 -14.95,3.88 -14.65,3.73 -14.35,3.57 -14.06,3.4 -13.76,3.2 -13.47,2.98 -13.17,2.75 -12.88,2.49 -12.58,2.21 -12.28,1.92 -11.99,1.61 -11.69,1.28 -11.4,0.94 -11.1,0.59 -10.8,0.24 -10.51,-0.12 -10.21,-0.48 -9.92,-0.84 -9.62,-1.19 -9.32,-1.53 -9.03,-1.86 -8.73,-2.18 -8.44,-2.47 -8.14,-2.75 -7.84,-3.01 -7.55,-3.25 -7.25,-3.47 -6.96,-3.68 -6.66,-3.86 -6.36,-4.04 -6.07,-4.2 -5.77,-4.36 -5.48,-4.52 -5.18,-4.67 -4.88,-4.84 -4.59,-5.01 -4.29,-5.2 -4,-5.41 -3.7,-5.63 -3.4,-5.88 -3.11,-6.16 -2.81,-6.46 -2.52,-6.8 -2.22,-7.15 -1.92,-7.54 -1.63,-7.95 -1.33,-8.38 -1.04,-8.83 -0.74,-9.29 -0.44,-9.76 -0.15,-10.24 0.15,-10.71 0.44,-11.18 0.74,-11.63 1.04,-12.06 1.33,-12.48 1.63,-12.86 1.92,-13.21 2.22,-13.53 2.52,-13.8 2.81,-14.03 3.11,-14.22 3.4,-14.36 3.7,-14.46 4,-14.5 4.29,-14.51 4.59,-14.47 4.88,-14.39 5.18,-14.28 5.48,-14.13 5.77,-13.95 6.07,-13.75 6.36,-13.53 6.66,-13.29 6.96,-13.04 7.25,-12.78 7.55,-12.53 7.84,-12.28 8.14,-12.03 8.44,-11.8 8.73,-11.58 9.03,-11.37 9.32,-11.19 9.62,-11.03 9.92,-10.89 10.21,-10.77 10.51,-10.67 10.8,-10.59 11.1,-10.53 11.4,-10.48 11.69,-10.44 11.99,-10.42 12.28,-10.4 12.58,-10.38 12.88,-10.36 13.17,-10.34 13.47,-10.3 13.76,-10.25 14.06,-10.18 14.35,-10.09 14.65,-9.98 14.95,-9.84 15.24,-9.67 15.54,-9.47 15.83,-9.24 16.13,-8.99 16.43,-8.7 16.72,-8.38 17.02,-8.03 17.31,-7.65 17.61,-7.25 17.91,-6.82 18.2,-6.38 18.5,-5.91 18.79,-5.42 19.09,-4.93 19.39,-4.42 19.68,-3.9 19.98,-3.38 20.27,-2.85 20.57,-2.32 20.87,-1.8 21.16,-1.27 21.46,-0.75 21.75,-0.24 22.05,0.26 22.35,0.76 22.64,1.24 22.94,1.71 23.23,2.17 23.53,2.61 23.83,3.03 24.12,3.44 24.42,3.83 24.71,4.21 25.01,4.56 25.31,4.89 25.6,5.21 25.9,5.5 26.19,5.78 26.49,6.03 26.79,6.27 27.08,6.48 27.38,6.68 27.67,6.86 27.97,7.02 28.27,7.17 28.56,7.3 28.86,7.42 29.15,7.52 29.45,7.61 29.75,7.69 30.04,7.76 30.34,7.82 30.63,7.87 30.93,7.91 31.23,7.95 31.52,7.98 31.82,8.01 32.11,8.03 32.41,8.05 32.71,8.06 33,8.07 33.3,8.08 33.59,8.09 33.89,8.1 34.19,8.1 34.48,8.11 34.78,8.11 35.07,8.11 35.37,8.11 35.67,8.12 35.96,8.12 36.26,8.12 36.55,8.12 36.85,8.12 37.15,8.12 37.44,8.12 37.74,8.12 " class="primitive"/>
                </g>
              </g>
            </g>
          </g>
        </g>
        <g class="guide ylabels" font-size="2.82" font-family="'PT Sans Caption','Helvetica Neue','Helvetica',sans-serif" fill="#6C606B" id="img-5da9d107-45">
          <g transform="translate(23.9,78.72)" id="img-5da9d107-46">
            <g class="primitive">
              <text text-anchor="end" dy="0.35em">0.0</text>
            </g>
          </g>
          <g transform="translate(23.9,72.34)" id="img-5da9d107-47">
            <g class="primitive">
              <text text-anchor="end" dy="0.35em">0.1</text>
            </g>
          </g>
          <g transform="translate(23.9,65.97)" id="img-5da9d107-48">
            <g class="primitive">
              <text text-anchor="end" dy="0.35em">0.2</text>
            </g>
          </g>
          <g transform="translate(23.9,59.6)" id="img-5da9d107-49">
            <g class="primitive">
              <text text-anchor="end" dy="0.35em">0.3</text>
            </g>
          </g>
          <g transform="translate(23.9,53.23)" id="img-5da9d107-50">
            <g class="primitive">
              <text text-anchor="end" dy="0.35em">0.4</text>
            </g>
          </g>
          <g transform="translate(23.9,46.86)" id="img-5da9d107-51">
            <g class="primitive">
              <text text-anchor="end" dy="0.35em">0.5</text>
            </g>
          </g>
        </g>
        <g font-size="3.88" font-family="'PT Sans','Helvetica Neue','Helvetica',sans-serif" fill="#564A55" stroke="#000000" stroke-opacity="0.000" id="img-5da9d107-52">
          <g transform="translate(16.88,62.79)" id="img-5da9d107-53">
            <g class="primitive">
              <text text-anchor="end" dy="0.35em">B</text>
            </g>
          </g>
        </g>
        <g clip-path="url(#img-5da9d107-54)">
          <g id="img-5da9d107-55">
            <g pointer-events="visible" stroke-width="0.3" fill="#000000" fill-opacity="0.000" stroke="#000000" stroke-opacity="0.000" class="guide background" id="img-5da9d107-56">
              <g transform="translate(75.19,23.93)" id="img-5da9d107-57">
                <path d="M-50.28,-16.93 L50.28,-16.93 50.28,16.93 -50.28,16.93  z" class="primitive"/>
              </g>
            </g>
            <g class="guide ygridlines xfixed" stroke-dasharray="0.5,0.5" stroke-width="0.2" stroke="#D0D0E0" id="img-5da9d107-58">
              <g transform="translate(75.19,38.86)" id="img-5da9d107-59">
                <path fill="none" d="M-50.28,0 L50.28,0 " class="primitive"/>
              </g>
              <g transform="translate(75.19,32.89)" id="img-5da9d107-60">
                <path fill="none" d="M-50.28,0 L50.28,0 " class="primitive"/>
              </g>
              <g transform="translate(75.19,26.91)" id="img-5da9d107-61">
                <path fill="none" d="M-50.28,0 L50.28,0 " class="primitive"/>
              </g>
              <g transform="translate(75.19,20.94)" id="img-5da9d107-62">
                <path fill="none" d="M-50.28,0 L50.28,0 " class="primitive"/>
              </g>
              <g transform="translate(75.19,14.97)" id="img-5da9d107-63">
                <path fill="none" d="M-50.28,0 L50.28,0 " class="primitive"/>
              </g>
              <g transform="translate(75.19,9)" id="img-5da9d107-64">
                <path fill="none" d="M-50.28,0 L50.28,0 " class="primitive"/>
              </g>
            </g>
            <g class="guide xgridlines yfixed" stroke-dasharray="0.5,0.5" stroke-width="0.2" stroke="#D0D0E0" id="img-5da9d107-65">
              <g transform="translate(26.91,23.93)" id="img-5da9d107-66">
                <path fill="none" d="M0,-16.93 L0,16.93 " class="primitive"/>
              </g>
              <g transform="translate(51.05,23.93)" id="img-5da9d107-67">
                <path fill="none" d="M0,-16.93 L0,16.93 " class="primitive"/>
              </g>
              <g transform="translate(75.19,23.93)" id="img-5da9d107-68">
                <path fill="none" d="M0,-16.93 L0,16.93 " class="primitive"/>
              </g>
              <g transform="translate(99.33,23.93)" id="img-5da9d107-69">
                <path fill="none" d="M0,-16.93 L0,16.93 " class="primitive"/>
              </g>
              <g transform="translate(123.47,23.93)" id="img-5da9d107-70">
                <path fill="none" d="M0,-16.93 L0,16.93 " class="primitive"/>
              </g>
            </g>
            <g class="plotpanel" id="img-5da9d107-71">
              <metadata>
                <boundingbox value="24.905mm 7.0mm 100.56968957064284mm 33.8575mm"/>
                <unitbox value="-5.207104321127279 0.5334924223394457 10.414208642254557 -0.5669848446788914"/>
              </metadata>
              <g stroke-width="0.3" fill="#000000" fill-opacity="0.000" class="geometry" id="img-5da9d107-72">
                <g transform="translate(73.53,31.2)" id="img-5da9d107-73" class="color_3" stroke="#FF6DAE" stroke-dasharray="none" stroke-opacity="1">
                  <path fill="none" d="M-37.52,7.65 L-37.22,7.65 -36.93,7.65 -36.63,7.65 -36.34,7.65 -36.05,7.65 -35.75,7.65 -35.46,7.65 -35.16,7.65 -34.87,7.65 -34.57,7.65 -34.28,7.64 -33.99,7.64 -33.69,7.64 -33.4,7.63 -33.1,7.62 -32.81,7.62 -32.52,7.61 -32.22,7.6 -31.93,7.58 -31.63,7.57 -31.34,7.55 -31.04,7.52 -30.75,7.5 -30.46,7.46 -30.16,7.43 -29.87,7.39 -29.57,7.34 -29.28,7.29 -28.98,7.23 -28.69,7.16 -28.4,7.09 -28.1,7.02 -27.81,6.93 -27.51,6.84 -27.22,6.74 -26.92,6.64 -26.63,6.53 -26.34,6.42 -26.04,6.31 -25.75,6.19 -25.45,6.08 -25.16,5.96 -24.86,5.84 -24.57,5.73 -24.28,5.63 -23.98,5.52 -23.69,5.43 -23.39,5.34 -23.1,5.26 -22.8,5.19 -22.51,5.13 -22.22,5.08 -21.92,5.04 -21.63,5.01 -21.33,4.98 -21.04,4.96 -20.74,4.95 -20.45,4.94 -20.16,4.93 -19.86,4.92 -19.57,4.9 -19.27,4.88 -18.98,4.86 -18.69,4.82 -18.39,4.77 -18.1,4.7 -17.8,4.61 -17.51,4.51 -17.21,4.38 -16.92,4.23 -16.63,4.05 -16.33,3.85 -16.04,3.62 -15.74,3.36 -15.45,3.07 -15.15,2.75 -14.86,2.4 -14.57,2.03 -14.27,1.62 -13.98,1.19 -13.68,0.74 -13.39,0.26 -13.09,-0.24 -12.8,-0.75 -12.51,-1.29 -12.21,-1.84 -11.92,-2.4 -11.62,-2.96 -11.33,-3.54 -11.03,-4.12 -10.74,-4.69 -10.45,-5.26 -10.15,-5.82 -9.86,-6.38 -9.56,-6.92 -9.27,-7.44 -8.97,-7.94 -8.68,-8.41 -8.39,-8.86 -8.09,-9.29 -7.8,-9.68 -7.5,-10.04 -7.21,-10.36 -6.91,-10.66 -6.62,-10.91 -6.33,-11.13 -6.03,-11.31 -5.74,-11.46 -5.44,-11.58 -5.15,-11.66 -4.86,-11.71 -4.56,-11.73 -4.27,-11.72 -3.97,-11.69 -3.68,-11.64 -3.38,-11.58 -3.09,-11.5 -2.8,-11.41 -2.5,-11.32 -2.21,-11.22 -1.91,-11.12 -1.62,-11.03 -1.32,-10.94 -1.03,-10.86 -0.74,-10.8 -0.44,-10.74 -0.15,-10.7 0.15,-10.67 0.44,-10.66 0.74,-10.66 1.03,-10.67 1.32,-10.69 1.62,-10.72 1.91,-10.76 2.21,-10.8 2.5,-10.84 2.8,-10.88 3.09,-10.92 3.38,-10.95 3.68,-10.98 3.97,-10.99 4.27,-10.99 4.56,-10.97 4.86,-10.94 5.15,-10.89 5.44,-10.82 5.74,-10.73 6.03,-10.62 6.33,-10.49 6.62,-10.35 6.91,-10.19 7.21,-10.01 7.5,-9.82 7.8,-9.61 8.09,-9.39 8.39,-9.16 8.68,-8.92 8.97,-8.67 9.27,-8.42 9.56,-8.16 9.86,-7.89 10.15,-7.63 10.45,-7.36 10.74,-7.09 11.03,-6.82 11.33,-6.55 11.62,-6.28 11.92,-6.01 12.21,-5.74 12.51,-5.48 12.8,-5.22 13.09,-4.95 13.39,-4.69 13.68,-4.43 13.98,-4.17 14.27,-3.91 14.57,-3.65 14.86,-3.4 15.15,-3.14 15.45,-2.88 15.74,-2.62 16.04,-2.37 16.33,-2.11 16.63,-1.85 16.92,-1.59 17.21,-1.34 17.51,-1.08 17.8,-0.82 18.1,-0.57 18.39,-0.31 18.69,-0.06 18.98,0.2 19.27,0.46 19.57,0.71 19.86,0.97 20.16,1.23 20.45,1.49 20.74,1.75 21.04,2.01 21.33,2.27 21.63,2.53 21.92,2.79 22.22,3.05 22.51,3.31 22.8,3.57 23.1,3.82 23.39,4.07 23.69,4.31 23.98,4.56 24.28,4.79 24.57,5.02 24.86,5.24 25.16,5.45 25.45,5.65 25.75,5.84 26.04,6.02 26.34,6.19 26.63,6.34 26.92,6.49 27.22,6.63 27.51,6.75 27.81,6.86 28.1,6.97 28.4,7.06 28.69,7.14 28.98,7.22 29.28,7.28 29.57,7.34 29.87,7.39 30.16,7.43 30.46,7.47 30.75,7.5 31.04,7.53 31.34,7.55 31.63,7.57 31.93,7.59 32.22,7.6 32.52,7.61 32.81,7.62 33.1,7.63 33.4,7.63 33.69,7.64 33.99,7.64 34.28,7.65 34.57,7.65 34.87,7.65 35.16,7.65 35.46,7.65 35.75,7.65 36.05,7.65 36.34,7.65 36.63,7.65 36.93,7.65 37.22,7.65 37.52,7.65 " class="primitive"/>
                </g>
                <g transform="translate(73.1,30.8)" id="img-5da9d107-74" class="color_1" stroke="#00BFFF" stroke-dasharray="none" stroke-opacity="1">
                  <path fill="none" d="M-35.65,8.06 L-35.37,8.06 -35.09,8.06 -34.81,8.06 -34.53,8.06 -34.25,8.06 -33.97,8.06 -33.69,8.06 -33.41,8.05 -33.13,8.05 -32.85,8.05 -32.57,8.05 -32.29,8.05 -32.01,8.05 -31.73,8.04 -31.45,8.04 -31.17,8.04 -30.89,8.03 -30.61,8.03 -30.33,8.02 -30.05,8.01 -29.77,8 -29.5,7.99 -29.22,7.97 -28.94,7.96 -28.66,7.94 -28.38,7.92 -28.1,7.9 -27.82,7.87 -27.54,7.84 -27.26,7.81 -26.98,7.77 -26.7,7.73 -26.42,7.68 -26.14,7.63 -25.86,7.58 -25.58,7.52 -25.3,7.46 -25.02,7.39 -24.74,7.31 -24.46,7.24 -24.18,7.15 -23.9,7.06 -23.62,6.96 -23.34,6.86 -23.06,6.74 -22.79,6.62 -22.51,6.5 -22.23,6.36 -21.95,6.22 -21.67,6.06 -21.39,5.9 -21.11,5.73 -20.83,5.55 -20.55,5.37 -20.27,5.17 -19.99,4.97 -19.71,4.77 -19.43,4.56 -19.15,4.35 -18.87,4.14 -18.59,3.93 -18.31,3.72 -18.03,3.51 -17.75,3.31 -17.47,3.12 -17.19,2.93 -16.91,2.76 -16.63,2.59 -16.36,2.43 -16.08,2.29 -15.8,2.15 -15.52,2.03 -15.24,1.92 -14.96,1.81 -14.68,1.71 -14.4,1.62 -14.12,1.53 -13.84,1.44 -13.56,1.35 -13.28,1.25 -13,1.15 -12.72,1.04 -12.44,0.92 -12.16,0.79 -11.88,0.64 -11.6,0.47 -11.32,0.28 -11.04,0.07 -10.76,-0.16 -10.48,-0.42 -10.2,-0.7 -9.92,-1 -9.65,-1.33 -9.37,-1.68 -9.09,-2.06 -8.81,-2.46 -8.53,-2.88 -8.25,-3.32 -7.97,-3.77 -7.69,-4.24 -7.41,-4.73 -7.13,-5.22 -6.85,-5.72 -6.57,-6.23 -6.29,-6.74 -6.01,-7.25 -5.73,-7.75 -5.45,-8.25 -5.17,-8.74 -4.89,-9.22 -4.61,-9.69 -4.33,-10.14 -4.05,-10.57 -3.77,-10.99 -3.49,-11.39 -3.22,-11.77 -2.94,-12.13 -2.66,-12.47 -2.38,-12.79 -2.1,-13.08 -1.82,-13.35 -1.54,-13.6 -1.26,-13.83 -0.98,-14.03 -0.7,-14.21 -0.42,-14.36 -0.14,-14.5 0.14,-14.6 0.42,-14.69 0.7,-14.75 0.98,-14.78 1.26,-14.79 1.54,-14.78 1.82,-14.75 2.1,-14.7 2.38,-14.62 2.66,-14.53 2.94,-14.41 3.22,-14.28 3.49,-14.14 3.77,-13.98 4.05,-13.82 4.33,-13.64 4.61,-13.45 4.89,-13.25 5.17,-13.05 5.45,-12.85 5.73,-12.64 6.01,-12.42 6.29,-12.21 6.57,-11.99 6.85,-11.77 7.13,-11.54 7.41,-11.32 7.69,-11.09 7.97,-10.87 8.25,-10.64 8.53,-10.4 8.81,-10.17 9.09,-9.93 9.37,-9.69 9.65,-9.45 9.92,-9.21 10.2,-8.96 10.48,-8.71 10.76,-8.46 11.04,-8.2 11.32,-7.93 11.6,-7.66 11.88,-7.38 12.16,-7.1 12.44,-6.8 12.72,-6.49 13,-6.18 13.28,-5.85 13.56,-5.51 13.84,-5.16 14.12,-4.8 14.4,-4.43 14.68,-4.05 14.96,-3.66 15.24,-3.26 15.52,-2.86 15.8,-2.45 16.08,-2.04 16.36,-1.64 16.63,-1.23 16.91,-0.83 17.19,-0.44 17.47,-0.05 17.75,0.33 18.03,0.69 18.31,1.05 18.59,1.39 18.87,1.72 19.15,2.04 19.43,2.35 19.71,2.64 19.99,2.93 20.27,3.2 20.55,3.47 20.83,3.72 21.11,3.97 21.39,4.21 21.67,4.44 21.95,4.67 22.23,4.89 22.51,5.11 22.79,5.31 23.06,5.52 23.34,5.71 23.62,5.9 23.9,6.08 24.18,6.26 24.46,6.42 24.74,6.58 25.02,6.73 25.3,6.87 25.58,7 25.86,7.12 26.14,7.24 26.42,7.34 26.7,7.43 26.98,7.52 27.26,7.59 27.54,7.66 27.82,7.72 28.1,7.77 28.38,7.82 28.66,7.86 28.94,7.89 29.22,7.92 29.5,7.94 29.77,7.97 30.05,7.98 30.33,8 30.61,8.01 30.89,8.02 31.17,8.03 31.45,8.03 31.73,8.04 32.01,8.04 32.29,8.05 32.57,8.05 32.85,8.05 33.13,8.05 33.41,8.05 33.69,8.05 33.97,8.06 34.25,8.06 34.53,8.06 34.81,8.06 35.09,8.06 35.37,8.06 35.65,8.06 " class="primitive"/>
                </g>
                <g transform="translate(72.7,30.36)" id="img-5da9d107-75" class="color_2" stroke="#D4CA3A" stroke-dasharray="none" stroke-opacity="1">
                  <path fill="none" d="M-33.81,8.49 L-33.55,8.49 -33.28,8.49 -33.02,8.49 -32.75,8.49 -32.49,8.49 -32.22,8.49 -31.96,8.49 -31.69,8.49 -31.43,8.49 -31.16,8.49 -30.9,8.49 -30.63,8.49 -30.37,8.48 -30.1,8.48 -29.84,8.48 -29.57,8.47 -29.3,8.47 -29.04,8.46 -28.77,8.45 -28.51,8.44 -28.24,8.43 -27.98,8.42 -27.71,8.4 -27.45,8.38 -27.18,8.36 -26.92,8.34 -26.65,8.31 -26.39,8.28 -26.12,8.24 -25.86,8.2 -25.59,8.15 -25.33,8.1 -25.06,8.04 -24.8,7.98 -24.53,7.91 -24.27,7.84 -24,7.76 -23.74,7.67 -23.47,7.58 -23.21,7.48 -22.94,7.37 -22.67,7.26 -22.41,7.15 -22.14,7.03 -21.88,6.9 -21.61,6.77 -21.35,6.64 -21.08,6.5 -20.82,6.36 -20.55,6.22 -20.29,6.07 -20.02,5.92 -19.76,5.77 -19.49,5.61 -19.23,5.45 -18.96,5.3 -18.7,5.14 -18.43,4.97 -18.17,4.81 -17.9,4.65 -17.64,4.48 -17.37,4.32 -17.11,4.15 -16.84,3.99 -16.58,3.82 -16.31,3.66 -16.04,3.49 -15.78,3.33 -15.51,3.17 -15.25,3.01 -14.98,2.86 -14.72,2.7 -14.45,2.55 -14.19,2.4 -13.92,2.25 -13.66,2.1 -13.39,1.95 -13.13,1.8 -12.86,1.65 -12.6,1.49 -12.33,1.33 -12.07,1.16 -11.8,0.98 -11.54,0.79 -11.27,0.58 -11.01,0.36 -10.74,0.11 -10.48,-0.15 -10.21,-0.44 -9.95,-0.75 -9.68,-1.09 -9.41,-1.45 -9.15,-1.84 -8.88,-2.26 -8.62,-2.7 -8.35,-3.17 -8.09,-3.65 -7.82,-4.16 -7.56,-4.69 -7.29,-5.23 -7.03,-5.78 -6.76,-6.33 -6.5,-6.89 -6.23,-7.45 -5.97,-8 -5.7,-8.53 -5.44,-9.06 -5.17,-9.56 -4.91,-10.05 -4.64,-10.51 -4.38,-10.95 -4.11,-11.36 -3.85,-11.74 -3.58,-12.09 -3.32,-12.41 -3.05,-12.71 -2.78,-12.98 -2.52,-13.22 -2.25,-13.43 -1.99,-13.63 -1.72,-13.8 -1.46,-13.95 -1.19,-14.08 -0.93,-14.2 -0.66,-14.3 -0.4,-14.38 -0.13,-14.45 0.13,-14.5 0.4,-14.55 0.66,-14.58 0.93,-14.6 1.19,-14.6 1.46,-14.6 1.72,-14.58 1.99,-14.56 2.25,-14.52 2.52,-14.47 2.78,-14.41 3.05,-14.35 3.32,-14.27 3.58,-14.18 3.85,-14.08 4.11,-13.97 4.38,-13.86 4.64,-13.73 4.91,-13.59 5.17,-13.45 5.44,-13.29 5.7,-13.13 5.97,-12.96 6.23,-12.77 6.5,-12.58 6.76,-12.37 7.03,-12.16 7.29,-11.94 7.56,-11.7 7.82,-11.46 8.09,-11.21 8.35,-10.95 8.62,-10.68 8.88,-10.4 9.15,-10.12 9.41,-9.82 9.68,-9.53 9.95,-9.22 10.21,-8.91 10.48,-8.6 10.74,-8.28 11.01,-7.95 11.27,-7.62 11.54,-7.29 11.8,-6.95 12.07,-6.61 12.33,-6.26 12.6,-5.91 12.86,-5.55 13.13,-5.19 13.39,-4.82 13.66,-4.45 13.92,-4.08 14.19,-3.7 14.45,-3.32 14.72,-2.93 14.98,-2.54 15.25,-2.15 15.51,-1.76 15.78,-1.38 16.04,-0.99 16.31,-0.61 16.58,-0.23 16.84,0.14 17.11,0.51 17.37,0.87 17.64,1.22 17.9,1.57 18.17,1.9 18.43,2.23 18.7,2.55 18.96,2.85 19.23,3.15 19.49,3.44 19.76,3.72 20.02,4 20.29,4.26 20.55,4.52 20.82,4.77 21.08,5.01 21.35,5.24 21.61,5.47 21.88,5.69 22.14,5.9 22.41,6.1 22.67,6.3 22.94,6.48 23.21,6.66 23.47,6.83 23.74,6.99 24,7.14 24.27,7.29 24.53,7.42 24.8,7.54 25.06,7.65 25.33,7.76 25.59,7.85 25.86,7.94 26.12,8.01 26.39,8.08 26.65,8.14 26.92,8.2 27.18,8.24 27.45,8.28 27.71,8.32 27.98,8.35 28.24,8.37 28.51,8.4 28.77,8.41 29.04,8.43 29.3,8.44 29.57,8.45 29.84,8.46 30.1,8.47 30.37,8.47 30.63,8.48 30.9,8.48 31.16,8.48 31.43,8.49 31.69,8.49 31.96,8.49 32.22,8.49 32.49,8.49 32.75,8.49 33.02,8.49 33.28,8.49 33.55,8.49 33.81,8.49 " class="primitive"/>
                </g>
              </g>
            </g>
          </g>
        </g>
        <g class="guide ylabels" font-size="2.82" font-family="'PT Sans Caption','Helvetica Neue','Helvetica',sans-serif" fill="#6C606B" id="img-5da9d107-76">
          <g transform="translate(23.9,38.86)" id="img-5da9d107-77">
            <g class="primitive">
              <text text-anchor="end" dy="0.35em">0.0</text>
            </g>
          </g>
          <g transform="translate(23.9,32.89)" id="img-5da9d107-78">
            <g class="primitive">
              <text text-anchor="end" dy="0.35em">0.1</text>
            </g>
          </g>
          <g transform="translate(23.9,26.91)" id="img-5da9d107-79">
            <g class="primitive">
              <text text-anchor="end" dy="0.35em">0.2</text>
            </g>
          </g>
          <g transform="translate(23.9,20.94)" id="img-5da9d107-80">
            <g class="primitive">
              <text text-anchor="end" dy="0.35em">0.3</text>
            </g>
          </g>
          <g transform="translate(23.9,14.97)" id="img-5da9d107-81">
            <g class="primitive">
              <text text-anchor="end" dy="0.35em">0.4</text>
            </g>
          </g>
          <g transform="translate(23.9,9)" id="img-5da9d107-82">
            <g class="primitive">
              <text text-anchor="end" dy="0.35em">0.5</text>
            </g>
          </g>
        </g>
        <g font-size="3.88" font-family="'PT Sans','Helvetica Neue','Helvetica',sans-serif" fill="#564A55" stroke="#000000" stroke-opacity="0.000" id="img-5da9d107-83">
          <g transform="translate(16.88,23.93)" id="img-5da9d107-84">
            <g class="primitive">
              <text text-anchor="end" dy="0.35em">A</text>
            </g>
          </g>
        </g>
      </g>
    </g>
  </g>
  <g font-size="3.88" font-family="'PT Sans','Helvetica Neue','Helvetica',sans-serif" fill="#564A55" stroke="#000000" stroke-opacity="0.000" id="img-5da9d107-85">
    <g transform="translate(8.81,43.19)" id="img-5da9d107-86">
      <g class="primitive">
        <text text-anchor="middle" dy="0.35em" transform="rotate(-90,0, 2)">Density</text>
      </g>
    </g>
  </g>
</g>
<defs>
  <clipPath id="img-5da9d107-14">
    <path d="M12.61,5 L127.47,5 127.47,85.39 12.61,85.39 " />
  </clipPath>
  <clipPath id="img-5da9d107-23">
    <path d="M24.9,44.86 L125.47,44.86 125.47,80.72 24.9,80.72 " />
  </clipPath>
  <clipPath id="img-5da9d107-54">
    <path d="M24.9,7 L125.47,7 125.47,40.86 24.9,40.86 " />
  </clipPath>
</defs>
</svg>
