<?xml version="1.0" encoding="UTF-8"?>
<svg xmlns="http://www.w3.org/2000/svg"
     xmlns:xlink="http://www.w3.org/1999/xlink"
     xmlns:gadfly="http://www.gadflyjl.org/ns"
     version="1.2"
     width="141.42mm" height="100mm" viewBox="0 0 141.42 100"
     stroke="none"
     fill="#000000"
     stroke-width="0.3"
     font-size="3.88"
>
<defs>
  <marker id="arrow" markerWidth="15" markerHeight="7" refX="5" refY="3.5" orient="auto" markerUnits="strokeWidth">
    <path d="M0,0 L15,3.5 L0,7 z" stroke="context-stroke" fill="context-stroke"/>
  </marker>
</defs>
<g class="plotroot xscalable yscalable" id="img-574786f4-1">
  <g font-size="3.88" font-family="'PT Sans','Helvetica Neue','Helvetica',sans-serif" fill="#564A55" stroke="#000000" stroke-opacity="0.000" id="img-574786f4-2">
    <g transform="translate(73.05,88.39)">
      <g class="primitive">
        <text text-anchor="middle" dy="0.6em">A</text>
      </g>
    </g>
  </g>
  <g class="guide xlabels" font-size="2.82" font-family="'PT Sans Caption','Helvetica Neue','Helvetica',sans-serif" fill="#6C606B" id="img-574786f4-3">
    <g transform="translate(20.63,81.72)">
      <g class="primitive">
        <text text-anchor="middle" dy="0.6em">-5.0</text>
      </g>
    </g>
    <g transform="translate(46.84,81.72)">
      <g class="primitive">
        <text text-anchor="middle" dy="0.6em">-2.5</text>
      </g>
    </g>
    <g transform="translate(73.05,81.72)">
      <g class="primitive">
        <text text-anchor="middle" dy="0.6em">0.0</text>
      </g>
    </g>
    <g transform="translate(99.26,81.72)">
      <g class="primitive">
        <text text-anchor="middle" dy="0.6em">2.5</text>
      </g>
    </g>
    <g transform="translate(125.47,81.72)">
      <g class="primitive">
        <text text-anchor="middle" dy="0.6em">5.0</text>
      </g>
    </g>
  </g>
  <g class="guide colorkey" id="img-574786f4-4">
    <g fill="#4C404B" font-size="2.82" font-family="'PT Sans','Helvetica Neue','Helvetica',sans-serif" id="img-574786f4-5">
      <g transform="translate(131.29,41.04)" id="img-574786f4-6" class="color_1">
        <g class="primitive">
          <text dy="0.35em">1</text>
        </g>
      </g>
      <g transform="translate(131.29,44.67)" id="img-574786f4-7" class="color_2">
        <g class="primitive">
          <text dy="0.35em">2</text>
        </g>
      </g>
      <g transform="translate(131.29,48.3)" id="img-574786f4-8" class="color_3">
        <g class="primitive">
          <text dy="0.35em">3</text>
        </g>
      </g>
    </g>
    <g fill-opacity="1" id="img-574786f4-9">
      <g transform="translate(129.38,41.04)" id="img-574786f4-10" class="color_1" fill="#00BFFF" stroke="#FFFFFF">
        <path d="M-0.91,-0.91 L0.91,-0.91 0.91,0.91 -0.91,0.91  z" class="primitive"/>
      </g>
      <g transform="translate(129.38,44.67)" id="img-574786f4-11" class="color_2" fill="#D4CA3A" stroke="#FFFFFF">
        <path d="M-0.91,-0.91 L0.91,-0.91 0.91,0.91 -0.91,0.91  z" class="primitive"/>
      </g>
      <g transform="translate(129.38,48.3)" id="img-574786f4-12" class="color_3" fill="#FF6DAE" stroke="#FFFFFF">
        <path d="M-0.91,-0.91 L0.91,-0.91 0.91,0.91 -0.91,0.91  z" class="primitive"/>
      </g>
    </g>
    <g fill="#362A35" font-size="3.88" font-family="'PT Sans','Helvetica Neue','Helvetica',sans-serif" stroke="#000000" stroke-opacity="0.000" id="img-574786f4-13">
      <g transform="translate(128.47,37.22)" id="img-574786f4-14">
        <g class="primitive">
          <text dy="-0em">chain</text>
        </g>
      </g>
    </g>
  </g>
  <g clip-path="url(#img-574786f4-15)">
    <g id="img-574786f4-16">
      <g pointer-events="visible" stroke-width="0.3" fill="#000000" fill-opacity="0.000" stroke="#000000" stroke-opacity="0.000" class="guide background" id="img-574786f4-17">
        <g transform="translate(73.05,42.86)" id="img-574786f4-18">
          <path d="M-54.42,-37.86 L54.42,-37.86 54.42,37.86 -54.42,37.86  z" class="primitive"/>
        </g>
      </g>
      <g class="guide ygridlines xfixed" stroke-dasharray="0.5,0.5" stroke-width="0.2" stroke="#D0D0E0" id="img-574786f4-19">
        <g transform="translate(73.05,78.71)" id="img-574786f4-20">
          <path fill="none" d="M-54.42,0 L54.42,0 " class="primitive"/>
        </g>
        <g transform="translate(73.05,66.76)" id="img-574786f4-21">
          <path fill="none" d="M-54.42,0 L54.42,0 " class="primitive"/>
        </g>
        <g transform="translate(73.05,54.81)" id="img-574786f4-22">
          <path fill="none" d="M-54.42,0 L54.42,0 " class="primitive"/>
        </g>
        <g transform="translate(73.05,42.86)" id="img-574786f4-23">
          <path fill="none" d="M-54.42,0 L54.42,0 " class="primitive"/>
        </g>
        <g transform="translate(73.05,30.9)" id="img-574786f4-24">
          <path fill="none" d="M-54.42,0 L54.42,0 " class="primitive"/>
        </g>
        <g transform="translate(73.05,18.95)" id="img-574786f4-25">
          <path fill="none" d="M-54.42,0 L54.42,0 " class="primitive"/>
        </g>
        <g transform="translate(73.05,7)" id="img-574786f4-26">
          <path fill="none" d="M-54.42,0 L54.42,0 " class="primitive"/>
        </g>
      </g>
      <g class="guide xgridlines yfixed" stroke-dasharray="0.5,0.5" stroke-width="0.2" stroke="#D0D0E0" id="img-574786f4-27">
        <g transform="translate(20.63,42.86)" id="img-574786f4-28">
          <path fill="none" d="M0,-37.86 L0,37.86 " class="primitive"/>
        </g>
        <g transform="translate(46.84,42.86)" id="img-574786f4-29">
          <path fill="none" d="M0,-37.86 L0,37.86 " class="primitive"/>
        </g>
        <g transform="translate(73.05,42.86)" id="img-574786f4-30">
          <path fill="none" d="M0,-37.86 L0,37.86 " class="primitive"/>
        </g>
        <g transform="translate(99.26,42.86)" id="img-574786f4-31">
          <path fill="none" d="M0,-37.86 L0,37.86 " class="primitive"/>
        </g>
        <g transform="translate(125.47,42.86)" id="img-574786f4-32">
          <path fill="none" d="M0,-37.86 L0,37.86 " class="primitive"/>
        </g>
      </g>
      <g class="plotpanel" id="img-574786f4-33">
        <metadata>
          <boundingbox value="18.63166666666666mm 5.0mm 108.84302290397618mm 75.715mm"/>
          <unitbox value="-5.190761382551108 0.6167329010667225 10.381522765102215 -0.633465802133445"/>
        </metadata>
        <g stroke-width="0.3" fill="#000000" fill-opacity="0.000" class="geometry" id="img-574786f4-34">
          <g transform="translate(70.17,63.03)" id="img-574786f4-35" stroke-opacity="1" stroke-dasharray="none" stroke="#FF6DAE" class="color_3">
            <path fill="none" d="M-39.8,15.68 L-39.49,15.68 -39.18,15.68 -38.87,15.68 -38.55,15.68 -38.24,15.68 -37.93,15.68 -37.62,15.68 -37.31,15.67 -36.99,15.67 -36.68,15.67 -36.37,15.66 -36.06,15.66 -35.75,15.65 -35.43,15.65 -35.12,15.64 -34.81,15.63 -34.5,15.61 -34.18,15.59 -33.87,15.57 -33.56,15.55 -33.25,15.52 -32.94,15.49 -32.62,15.46 -32.31,15.41 -32,15.37 -31.69,15.32 -31.37,15.26 -31.06,15.2 -30.75,15.13 -30.44,15.06 -30.13,14.99 -29.81,14.91 -29.5,14.83 -29.19,14.75 -28.88,14.67 -28.56,14.6 -28.25,14.53 -27.94,14.46 -27.63,14.4 -27.32,14.35 -27,14.3 -26.69,14.27 -26.38,14.24 -26.07,14.23 -25.76,14.22 -25.44,14.23 -25.13,14.25 -24.82,14.27 -24.51,14.3 -24.19,14.34 -23.88,14.38 -23.57,14.42 -23.26,14.47 -22.95,14.51 -22.63,14.54 -22.32,14.57 -22.01,14.58 -21.7,14.59 -21.38,14.57 -21.07,14.54 -20.76,14.49 -20.45,14.41 -20.14,14.31 -19.82,14.18 -19.51,14.02 -19.2,13.83 -18.89,13.61 -18.57,13.36 -18.26,13.07 -17.95,12.74 -17.64,12.38 -17.33,11.99 -17.01,11.56 -16.7,11.1 -16.39,10.61 -16.08,10.08 -15.77,9.53 -15.45,8.95 -15.14,8.35 -14.83,7.74 -14.52,7.1 -14.2,6.45 -13.89,5.8 -13.58,5.13 -13.27,4.47 -12.96,3.8 -12.64,3.14 -12.33,2.47 -12.02,1.82 -11.71,1.16 -11.39,0.52 -11.08,-0.13 -10.77,-0.77 -10.46,-1.42 -10.15,-2.07 -9.83,-2.72 -9.52,-3.38 -9.21,-4.05 -8.9,-4.74 -8.59,-5.45 -8.27,-6.18 -7.96,-6.94 -7.65,-7.72 -7.34,-8.53 -7.02,-9.37 -6.71,-10.24 -6.4,-11.15 -6.09,-12.08 -5.78,-13.05 -5.46,-14.04 -5.15,-15.06 -4.84,-16.11 -4.53,-17.18 -4.21,-18.26 -3.9,-19.36 -3.59,-20.46 -3.28,-21.56 -2.97,-22.66 -2.65,-23.74 -2.34,-24.8 -2.03,-25.84 -1.72,-26.83 -1.4,-27.78 -1.09,-28.67 -0.78,-29.51 -0.47,-30.26 -0.16,-30.94 0.16,-31.54 0.47,-32.05 0.78,-32.46 1.09,-32.78 1.4,-33 1.72,-33.12 2.03,-33.16 2.34,-33.1 2.65,-32.97 2.97,-32.76 3.28,-32.49 3.59,-32.17 3.9,-31.82 4.21,-31.43 4.53,-31.03 4.84,-30.63 5.15,-30.23 5.46,-29.85 5.78,-29.5 6.09,-29.17 6.4,-28.89 6.71,-28.63 7.02,-28.41 7.34,-28.22 7.65,-28.06 7.96,-27.91 8.27,-27.76 8.59,-27.61 8.9,-27.44 9.21,-27.24 9.52,-26.99 9.83,-26.69 10.15,-26.32 10.46,-25.87 10.77,-25.35 11.08,-24.73 11.39,-24.03 11.71,-23.24 12.02,-22.37 12.33,-21.42 12.64,-20.4 12.96,-19.33 13.27,-18.21 13.58,-17.06 13.89,-15.9 14.2,-14.73 14.52,-13.59 14.83,-12.47 15.14,-11.39 15.45,-10.36 15.77,-9.38 16.08,-8.48 16.39,-7.64 16.7,-6.87 17.01,-6.17 17.33,-5.54 17.64,-4.96 17.95,-4.43 18.26,-3.95 18.57,-3.51 18.89,-3.09 19.2,-2.68 19.51,-2.29 19.82,-1.89 20.14,-1.49 20.45,-1.07 20.76,-0.63 21.07,-0.17 21.38,0.31 21.7,0.82 22.01,1.36 22.32,1.92 22.63,2.5 22.95,3.1 23.26,3.71 23.57,4.34 23.88,4.97 24.19,5.61 24.51,6.24 24.82,6.87 25.13,7.49 25.44,8.1 25.76,8.68 26.07,9.26 26.38,9.8 26.69,10.33 27,10.83 27.32,11.3 27.63,11.74 27.94,12.16 28.25,12.55 28.56,12.9 28.88,13.23 29.19,13.54 29.5,13.81 29.81,14.06 30.13,14.28 30.44,14.48 30.75,14.66 31.06,14.81 31.37,14.95 31.69,15.07 32,15.17 32.31,15.26 32.62,15.33 32.94,15.4 33.25,15.45 33.56,15.49 33.87,15.53 34.18,15.56 34.5,15.59 34.81,15.61 35.12,15.62 35.43,15.64 35.75,15.65 36.06,15.65 36.37,15.66 36.68,15.67 36.99,15.67 37.31,15.67 37.62,15.67 37.93,15.68 38.24,15.68 38.55,15.68 38.87,15.68 39.18,15.68 39.49,15.68 39.8,15.68 " class="primitive"/>
          </g>
          <g transform="translate(69.09,62.42)" id="img-574786f4-36" stroke-opacity="1" stroke-dasharray="none" stroke="#00BFFF" class="color_1">
            <path fill="none" d="M-38.3,16.29 L-38,16.29 -37.7,16.29 -37.4,16.29 -37.1,16.29 -36.8,16.29 -36.5,16.29 -36.2,16.29 -35.9,16.29 -35.6,16.28 -35.3,16.28 -35,16.27 -34.7,16.26 -34.4,16.25 -34.1,16.24 -33.8,16.23 -33.49,16.21 -33.19,16.18 -32.89,16.16 -32.59,16.12 -32.29,16.08 -31.99,16.03 -31.69,15.98 -31.39,15.92 -31.09,15.84 -30.79,15.76 -30.49,15.67 -30.19,15.58 -29.89,15.47 -29.59,15.35 -29.29,15.23 -28.99,15.1 -28.69,14.97 -28.39,14.83 -28.09,14.7 -27.79,14.56 -27.49,14.42 -27.19,14.28 -26.89,14.15 -26.59,14.03 -26.29,13.91 -25.98,13.8 -25.68,13.7 -25.38,13.61 -25.08,13.53 -24.78,13.45 -24.48,13.39 -24.18,13.32 -23.88,13.26 -23.58,13.2 -23.28,13.14 -22.98,13.08 -22.68,13 -22.38,12.91 -22.08,12.8 -21.78,12.68 -21.48,12.52 -21.18,12.34 -20.88,12.13 -20.58,11.89 -20.28,11.61 -19.98,11.29 -19.68,10.94 -19.38,10.56 -19.08,10.15 -18.78,9.71 -18.47,9.24 -18.17,8.76 -17.87,8.26 -17.57,7.75 -17.27,7.24 -16.97,6.72 -16.67,6.21 -16.37,5.71 -16.07,5.22 -15.77,4.73 -15.47,4.26 -15.17,3.79 -14.87,3.34 -14.57,2.89 -14.27,2.44 -13.97,1.99 -13.67,1.54 -13.37,1.09 -13.07,0.63 -12.77,0.17 -12.47,-0.31 -12.17,-0.79 -11.87,-1.29 -11.57,-1.79 -11.27,-2.29 -10.96,-2.8 -10.66,-3.31 -10.36,-3.82 -10.06,-4.32 -9.76,-4.81 -9.46,-5.28 -9.16,-5.74 -8.86,-6.18 -8.56,-6.59 -8.26,-6.98 -7.96,-7.34 -7.66,-7.68 -7.36,-8 -7.06,-8.3 -6.76,-8.58 -6.46,-8.85 -6.16,-9.12 -5.86,-9.39 -5.56,-9.67 -5.26,-9.97 -4.96,-10.31 -4.66,-10.68 -4.36,-11.1 -4.06,-11.58 -3.76,-12.12 -3.45,-12.74 -3.15,-13.43 -2.85,-14.21 -2.55,-15.07 -2.25,-16.02 -1.95,-17.06 -1.65,-18.18 -1.35,-19.39 -1.05,-20.68 -0.75,-22.05 -0.45,-23.49 -0.15,-24.98 0.15,-26.53 0.45,-28.12 0.75,-29.74 1.05,-31.38 1.35,-33.02 1.65,-34.65 1.95,-36.25 2.25,-37.81 2.55,-39.3 2.85,-40.7 3.15,-42 3.45,-43.18 3.76,-44.21 4.06,-45.09 4.36,-45.79 4.66,-46.29 4.96,-46.59 5.26,-46.68 5.56,-46.54 5.86,-46.18 6.16,-45.59 6.46,-44.78 6.76,-43.75 7.06,-42.51 7.36,-41.09 7.66,-39.49 7.96,-37.74 8.26,-35.85 8.56,-33.86 8.86,-31.79 9.16,-29.66 9.46,-27.51 9.76,-25.36 10.06,-23.24 10.36,-21.17 10.66,-19.18 10.96,-17.28 11.27,-15.48 11.57,-13.82 11.87,-12.28 12.17,-10.88 12.47,-9.62 12.77,-8.5 13.07,-7.51 13.37,-6.65 13.67,-5.9 13.97,-5.25 14.27,-4.7 14.57,-4.21 14.87,-3.79 15.17,-3.4 15.47,-3.05 15.77,-2.72 16.07,-2.39 16.37,-2.06 16.67,-1.72 16.97,-1.35 17.27,-0.97 17.57,-0.55 17.87,-0.11 18.17,0.37 18.47,0.87 18.78,1.41 19.08,1.97 19.38,2.55 19.68,3.15 19.98,3.76 20.28,4.39 20.58,5.02 20.88,5.65 21.18,6.27 21.48,6.89 21.78,7.49 22.08,8.08 22.38,8.64 22.68,9.18 22.98,9.7 23.28,10.18 23.58,10.64 23.88,11.06 24.18,11.46 24.48,11.82 24.78,12.16 25.08,12.48 25.38,12.77 25.68,13.03 25.98,13.28 26.29,13.52 26.59,13.73 26.89,13.94 27.19,14.13 27.49,14.32 27.79,14.49 28.09,14.66 28.39,14.81 28.69,14.96 28.99,15.11 29.29,15.24 29.59,15.36 29.89,15.48 30.19,15.59 30.49,15.68 30.79,15.77 31.09,15.85 31.39,15.92 31.69,15.98 31.99,16.04 32.29,16.08 32.59,16.12 32.89,16.16 33.19,16.19 33.49,16.21 33.8,16.23 34.1,16.24 34.4,16.25 34.7,16.26 35,16.27 35.3,16.28 35.6,16.28 35.9,16.29 36.2,16.29 36.5,16.29 36.8,16.29 37.1,16.29 37.4,16.29 37.7,16.29 38,16.29 38.3,16.29 " class="primitive"/>
          </g>
          <g transform="translate(79.81,60.95)" id="img-574786f4-37" stroke-opacity="1" stroke-dasharray="none" stroke="#D4CA3A" class="color_2">
            <path fill="none" d="M-35.12,17.77 L-34.85,17.77 -34.57,17.77 -34.3,17.77 -34.02,17.77 -33.75,17.76 -33.47,17.76 -33.19,17.76 -32.92,17.76 -32.64,17.75 -32.37,17.74 -32.09,17.74 -31.82,17.73 -31.54,17.71 -31.27,17.69 -30.99,17.67 -30.72,17.64 -30.44,17.61 -30.16,17.56 -29.89,17.51 -29.61,17.45 -29.34,17.37 -29.06,17.27 -28.79,17.16 -28.51,17.02 -28.24,16.86 -27.96,16.68 -27.68,16.46 -27.41,16.21 -27.13,15.92 -26.86,15.59 -26.58,15.21 -26.31,14.79 -26.03,14.32 -25.76,13.8 -25.48,13.22 -25.21,12.58 -24.93,11.89 -24.65,11.14 -24.38,10.33 -24.1,9.46 -23.83,8.53 -23.55,7.56 -23.28,6.53 -23,5.46 -22.73,4.34 -22.45,3.19 -22.18,2.01 -21.9,0.8 -21.62,-0.43 -21.35,-1.67 -21.07,-2.93 -20.8,-4.18 -20.52,-5.43 -20.25,-6.68 -19.97,-7.92 -19.7,-9.14 -19.42,-10.34 -19.15,-11.53 -18.87,-12.7 -18.59,-13.86 -18.32,-14.99 -18.04,-16.11 -17.77,-17.2 -17.49,-18.29 -17.22,-19.35 -16.94,-20.41 -16.67,-21.45 -16.39,-22.47 -16.12,-23.48 -15.84,-24.47 -15.56,-25.43 -15.29,-26.38 -15.01,-27.29 -14.74,-28.17 -14.46,-29.02 -14.19,-29.82 -13.91,-30.57 -13.64,-31.27 -13.36,-31.9 -13.08,-32.48 -12.81,-32.99 -12.53,-33.42 -12.26,-33.79 -11.98,-34.07 -11.71,-34.29 -11.43,-34.42 -11.16,-34.49 -10.88,-34.48 -10.61,-34.4 -10.33,-34.26 -10.05,-34.06 -9.78,-33.8 -9.5,-33.49 -9.23,-33.13 -8.95,-32.74 -8.68,-32.31 -8.4,-31.85 -8.13,-31.37 -7.85,-30.87 -7.58,-30.36 -7.3,-29.85 -7.02,-29.33 -6.75,-28.82 -6.47,-28.31 -6.2,-27.8 -5.92,-27.3 -5.65,-26.8 -5.37,-26.31 -5.1,-25.82 -4.82,-25.33 -4.55,-24.84 -4.27,-24.35 -3.99,-23.84 -3.72,-23.32 -3.44,-22.79 -3.17,-22.25 -2.89,-21.68 -2.62,-21.1 -2.34,-20.51 -2.07,-19.89 -1.79,-19.27 -1.52,-18.63 -1.24,-17.99 -0.96,-17.34 -0.69,-16.7 -0.41,-16.06 -0.14,-15.42 0.14,-14.8 0.41,-14.2 0.69,-13.61 0.96,-13.04 1.24,-12.49 1.52,-11.97 1.79,-11.46 2.07,-10.98 2.34,-10.52 2.62,-10.07 2.89,-9.64 3.17,-9.22 3.44,-8.82 3.72,-8.42 3.99,-8.03 4.27,-7.64 4.55,-7.25 4.82,-6.86 5.1,-6.46 5.37,-6.06 5.65,-5.65 5.92,-5.22 6.2,-4.78 6.47,-4.33 6.75,-3.85 7.02,-3.35 7.3,-2.83 7.58,-2.29 7.85,-1.71 8.13,-1.12 8.4,-0.49 8.68,0.16 8.95,0.84 9.23,1.54 9.5,2.26 9.78,3 10.05,3.75 10.33,4.51 10.61,5.28 10.88,6.05 11.16,6.82 11.43,7.57 11.71,8.31 11.98,9.03 12.26,9.73 12.53,10.39 12.81,11.01 13.08,11.6 13.36,12.14 13.64,12.64 13.91,13.1 14.19,13.5 14.46,13.86 14.74,14.18 15.01,14.45 15.29,14.68 15.56,14.86 15.84,15.01 16.12,15.13 16.39,15.21 16.67,15.27 16.94,15.31 17.22,15.33 17.49,15.33 17.77,15.32 18.04,15.3 18.32,15.27 18.59,15.25 18.87,15.22 19.15,15.19 19.42,15.17 19.7,15.16 19.97,15.15 20.25,15.14 20.52,15.15 20.8,15.17 21.07,15.2 21.35,15.23 21.62,15.28 21.9,15.34 22.18,15.4 22.45,15.48 22.73,15.56 23,15.65 23.28,15.75 23.55,15.85 23.83,15.96 24.1,16.07 24.38,16.19 24.65,16.3 24.93,16.41 25.21,16.53 25.48,16.64 25.76,16.75 26.03,16.85 26.31,16.95 26.58,17.04 26.86,17.12 27.13,17.2 27.41,17.28 27.68,17.34 27.96,17.41 28.24,17.46 28.51,17.51 28.79,17.55 29.06,17.59 29.34,17.62 29.61,17.64 29.89,17.67 30.16,17.69 30.44,17.7 30.72,17.72 30.99,17.73 31.27,17.74 31.54,17.74 31.82,17.75 32.09,17.75 32.37,17.76 32.64,17.76 32.92,17.76 33.19,17.76 33.47,17.77 33.75,17.77 34.02,17.77 34.3,17.77 34.57,17.77 34.85,17.77 35.12,17.77 " class="primitive"/>
          </g>
        </g>
      </g>
    </g>
  </g>
  <g class="guide ylabels" font-size="2.82" font-family="'PT Sans Caption','Helvetica Neue','Helvetica',sans-serif" fill="#6C606B" id="img-574786f4-38">
    <g transform="translate(17.63,78.71)" id="img-574786f4-39">
      <g class="primitive">
        <text text-anchor="end" dy="0.35em">0.0</text>
      </g>
    </g>
    <g transform="translate(17.63,66.76)" id="img-574786f4-40">
      <g class="primitive">
        <text text-anchor="end" dy="0.35em">0.1</text>
      </g>
    </g>
    <g transform="translate(17.63,54.81)" id="img-574786f4-41">
      <g class="primitive">
        <text text-anchor="end" dy="0.35em">0.2</text>
      </g>
    </g>
    <g transform="translate(17.63,42.86)" id="img-574786f4-42">
      <g class="primitive">
        <text text-anchor="end" dy="0.35em">0.3</text>
      </g>
    </g>
    <g transform="translate(17.63,30.9)" id="img-574786f4-43">
      <g class="primitive">
        <text text-anchor="end" dy="0.35em">0.4</text>
      </g>
    </g>
    <g transform="translate(17.63,18.95)" id="img-574786f4-44">
      <g class="primitive">
        <text text-anchor="end" dy="0.35em">0.5</text>
      </g>
    </g>
    <g transform="translate(17.63,7)" id="img-574786f4-45">
      <g class="primitive">
        <text text-anchor="end" dy="0.35em">0.6</text>
      </g>
    </g>
  </g>
  <g font-size="3.88" font-family="'PT Sans','Helvetica Neue','Helvetica',sans-serif" fill="#564A55" stroke="#000000" stroke-opacity="0.000" id="img-574786f4-46">
    <g transform="translate(8.81,40.86)" id="img-574786f4-47">
      <g class="primitive">
        <text text-anchor="middle" dy="0.35em" transform="rotate(-90,0, 2)">Density</text>
      </g>
    </g>
  </g>
</g>
<defs>
  <clipPath id="img-574786f4-15">
    <path d="M18.63,5 L127.47,5 127.47,80.72 18.63,80.72 " />
  </clipPath>
</defs>
</svg>
