<?xml version="1.0" encoding="UTF-8"?>
<svg xmlns="http://www.w3.org/2000/svg"
     xmlns:xlink="http://www.w3.org/1999/xlink"
     xmlns:gadfly="http://www.gadflyjl.org/ns"
     version="1.2"
     width="141.42mm" height="100mm" viewBox="0 0 141.42 100"
     stroke="none"
     fill="#000000"
     stroke-width="0.3"
     font-size="3.88"
>
<defs>
  <marker id="arrow" markerWidth="15" markerHeight="7" refX="5" refY="3.5" orient="auto" markerUnits="strokeWidth">
    <path d="M0,0 L15,3.5 L0,7 z" stroke="context-stroke" fill="context-stroke"/>
  </marker>
</defs>
<g class="plotroot xscalable yscalable" id="img-552e4ee7-1">
  <g font-size="3.88" font-family="'PT Sans','Helvetica Neue','Helvetica',sans-serif" fill="#564A55" stroke="#000000" stroke-opacity="0.000" id="img-552e4ee7-2">
    <g transform="translate(74.52,88.39)">
      <g class="primitive">
        <text text-anchor="middle" dy="0.6em">Parameter</text>
      </g>
    </g>
  </g>
  <g clip-path="url(#img-552e4ee7-3)">
    <g id="img-552e4ee7-4">
      <g class="plotpanel" id="img-552e4ee7-5">
        <metadata>
          <boundingbox value="12.611666666666665mm 5.0mm 123.80968957064285mm 80.38833333333332mm"/>
          <unitbox value="0.0 0.0 1.0 1.0"/>
        </metadata>
        <g font-size="3.88" font-family="'PT Sans','Helvetica Neue','Helvetica',sans-serif" fill="#564A55" stroke="#000000" stroke-opacity="0.000" id="img-552e4ee7-6">
          <g transform="translate(108.5,78.78)" id="img-552e4ee7-7">
            <g class="primitive">
              <text text-anchor="middle" dy="0.6em">B</text>
            </g>
          </g>
        </g>
        <g font-size="3.88" font-family="'PT Sans','Helvetica Neue','Helvetica',sans-serif" fill="#564A55" stroke="#000000" stroke-opacity="0.000" id="img-552e4ee7-8">
          <g transform="translate(51.67,78.78)" id="img-552e4ee7-9">
            <g class="primitive">
              <text text-anchor="middle" dy="0.6em">A</text>
            </g>
          </g>
        </g>
        <g class="guide xlabels" font-size="2.82" font-family="'PT Sans Caption','Helvetica Neue','Helvetica',sans-serif" fill="#6C606B" id="img-552e4ee7-10">
          <g transform="translate(84.59,72.1)" id="img-552e4ee7-11">
            <g class="primitive">
              <text text-anchor="middle" dy="0.6em">-5</text>
            </g>
          </g>
          <g transform="translate(108.5,72.1)" id="img-552e4ee7-12">
            <g class="primitive">
              <text text-anchor="middle" dy="0.6em">0</text>
            </g>
          </g>
          <g transform="translate(132.42,72.1)" id="img-552e4ee7-13">
            <g class="primitive">
              <text text-anchor="middle" dy="0.6em">5</text>
            </g>
          </g>
        </g>
        <g class="guide xlabels" font-size="2.82" font-family="'PT Sans Caption','Helvetica Neue','Helvetica',sans-serif" fill="#6C606B" id="img-552e4ee7-14">
          <g transform="translate(26.75,72.1)" id="img-552e4ee7-15">
            <g class="primitive">
              <text text-anchor="middle" dy="0.6em">-5</text>
            </g>
          </g>
          <g transform="translate(51.67,72.1)" id="img-552e4ee7-16">
            <g class="primitive">
              <text text-anchor="middle" dy="0.6em">0</text>
            </g>
          </g>
          <g transform="translate(76.59,72.1)" id="img-552e4ee7-17">
            <g class="primitive">
              <text text-anchor="middle" dy="0.6em">5</text>
            </g>
          </g>
        </g>
        <g clip-path="url(#img-552e4ee7-18)">
          <g id="img-552e4ee7-19">
            <g pointer-events="visible" stroke-width="0.3" fill="#000000" fill-opacity="0.000" stroke="#000000" stroke-opacity="0.000" class="guide background" id="img-552e4ee7-20">
              <g transform="translate(108.5,55.58)" id="img-552e4ee7-21">
                <path d="M-25.92,-15.53 L25.92,-15.53 25.92,15.53 -25.92,15.53  z" class="primitive"/>
              </g>
            </g>
            <g class="guide ygridlines xfixed" stroke-dasharray="0.5,0.5" stroke-width="0.2" stroke="#D0D0E0" id="img-552e4ee7-22">
              <g transform="translate(108.5,69.1)" id="img-552e4ee7-23">
                <path fill="none" d="M-25.92,0 L25.92,0 " class="primitive"/>
              </g>
              <g transform="translate(108.5,64.59)" id="img-552e4ee7-24">
                <path fill="none" d="M-25.92,0 L25.92,0 " class="primitive"/>
              </g>
              <g transform="translate(108.5,60.09)" id="img-552e4ee7-25">
                <path fill="none" d="M-25.92,0 L25.92,0 " class="primitive"/>
              </g>
              <g transform="translate(108.5,55.58)" id="img-552e4ee7-26">
                <path fill="none" d="M-25.92,0 L25.92,0 " class="primitive"/>
              </g>
              <g transform="translate(108.5,51.07)" id="img-552e4ee7-27">
                <path fill="none" d="M-25.92,0 L25.92,0 " class="primitive"/>
              </g>
              <g transform="translate(108.5,46.56)" id="img-552e4ee7-28">
                <path fill="none" d="M-25.92,0 L25.92,0 " class="primitive"/>
              </g>
              <g transform="translate(108.5,42.05)" id="img-552e4ee7-29">
                <path fill="none" d="M-25.92,0 L25.92,0 " class="primitive"/>
              </g>
            </g>
            <g class="guide xgridlines yfixed" stroke-dasharray="0.5,0.5" stroke-width="0.2" stroke="#D0D0E0" id="img-552e4ee7-30">
              <g transform="translate(84.59,55.58)" id="img-552e4ee7-31">
                <path fill="none" d="M0,-15.53 L0,15.53 " class="primitive"/>
              </g>
              <g transform="translate(108.5,55.58)" id="img-552e4ee7-32">
                <path fill="none" d="M0,-15.53 L0,15.53 " class="primitive"/>
              </g>
              <g transform="translate(132.42,55.58)" id="img-552e4ee7-33">
                <path fill="none" d="M0,-15.53 L0,15.53 " class="primitive"/>
              </g>
            </g>
            <g class="plotpanel" id="img-552e4ee7-34">
              <metadata>
                <boundingbox value="82.5852614519881mm 40.05166666666666mm 51.83609478532142mm 31.051666666666662mm"/>
                <unitbox value="-5.418094330019119 0.6443595588688313 10.836188660038237 -0.6887191177376626"/>
              </metadata>
              <g stroke-width="0.3" fill="#000000" fill-opacity="0.000" class="geometry" id="img-552e4ee7-35">
                <g class="color_LCHab{Float32}(70.0f0,60.0f0,240.0f0)" stroke-dasharray="none" stroke-opacity="1" stroke="#00BFFF" id="img-552e4ee7-36">
                  <g transform="translate(107.81,63.35)" id="img-552e4ee7-37">
                    <path fill="none" d="M-18.67,5.75 L-18.52,5.75 -18.37,5.75 -18.23,5.75 -18.08,5.75 -17.94,5.75 -17.79,5.75 -17.64,5.75 -17.5,5.75 -17.35,5.75 -17.2,5.75 -17.06,5.75 -16.91,5.75 -16.76,5.75 -16.62,5.74 -16.47,5.74 -16.32,5.74 -16.18,5.73 -16.03,5.73 -15.89,5.72 -15.74,5.71 -15.59,5.7 -15.45,5.69 -15.3,5.67 -15.15,5.65 -15.01,5.63 -14.86,5.61 -14.71,5.58 -14.57,5.55 -14.42,5.52 -14.27,5.48 -14.13,5.43 -13.98,5.38 -13.84,5.33 -13.69,5.27 -13.54,5.2 -13.4,5.13 -13.25,5.05 -13.1,4.97 -12.96,4.88 -12.81,4.78 -12.66,4.68 -12.52,4.57 -12.37,4.46 -12.23,4.35 -12.08,4.23 -11.93,4.11 -11.79,3.98 -11.64,3.86 -11.49,3.73 -11.35,3.61 -11.2,3.48 -11.05,3.36 -10.91,3.24 -10.76,3.12 -10.61,3.01 -10.47,2.9 -10.32,2.79 -10.18,2.69 -10.03,2.59 -9.88,2.49 -9.74,2.4 -9.59,2.32 -9.44,2.23 -9.3,2.15 -9.15,2.07 -9,1.99 -8.86,1.91 -8.71,1.83 -8.56,1.74 -8.42,1.64 -8.27,1.54 -8.13,1.44 -7.98,1.32 -7.83,1.19 -7.69,1.05 -7.54,0.9 -7.39,0.73 -7.25,0.55 -7.1,0.36 -6.95,0.15 -6.81,-0.07 -6.66,-0.29 -6.52,-0.53 -6.37,-0.77 -6.22,-1.02 -6.08,-1.27 -5.93,-1.51 -5.78,-1.76 -5.64,-1.99 -5.49,-2.22 -5.34,-2.43 -5.2,-2.63 -5.05,-2.82 -4.9,-2.99 -4.76,-3.13 -4.61,-3.26 -4.47,-3.37 -4.32,-3.47 -4.17,-3.54 -4.03,-3.6 -3.88,-3.65 -3.73,-3.7 -3.59,-3.73 -3.44,-3.76 -3.29,-3.8 -3.15,-3.84 -3,-3.89 -2.85,-3.96 -2.71,-4.04 -2.56,-4.15 -2.42,-4.27 -2.27,-4.43 -2.12,-4.61 -1.98,-4.83 -1.83,-5.07 -1.68,-5.34 -1.54,-5.64 -1.39,-5.97 -1.24,-6.32 -1.1,-6.7 -0.95,-7.1 -0.81,-7.51 -0.66,-7.93 -0.51,-8.36 -0.37,-8.79 -0.22,-9.23 -0.07,-9.65 0.07,-10.07 0.22,-10.48 0.37,-10.86 0.51,-11.22 0.66,-11.56 0.81,-11.87 0.95,-12.15 1.1,-12.4 1.24,-12.62 1.39,-12.8 1.54,-12.94 1.68,-13.05 1.83,-13.12 1.98,-13.15 2.12,-13.15 2.27,-13.12 2.42,-13.06 2.56,-12.96 2.71,-12.84 2.85,-12.69 3,-12.51 3.15,-12.31 3.29,-12.09 3.44,-11.84 3.59,-11.58 3.73,-11.3 3.88,-11 4.03,-10.68 4.17,-10.35 4.32,-10 4.47,-9.64 4.61,-9.26 4.76,-8.87 4.9,-8.47 5.05,-8.06 5.2,-7.63 5.34,-7.2 5.49,-6.76 5.64,-6.31 5.78,-5.85 5.93,-5.39 6.08,-4.92 6.22,-4.45 6.37,-3.99 6.52,-3.53 6.66,-3.07 6.81,-2.61 6.95,-2.17 7.1,-1.73 7.25,-1.31 7.39,-0.9 7.54,-0.51 7.69,-0.13 7.83,0.23 7.98,0.57 8.13,0.89 8.27,1.19 8.42,1.47 8.56,1.73 8.71,1.97 8.86,2.19 9,2.39 9.15,2.57 9.3,2.74 9.44,2.89 9.59,3.03 9.74,3.15 9.88,3.26 10.03,3.36 10.18,3.46 10.32,3.55 10.47,3.63 10.61,3.71 10.76,3.79 10.91,3.86 11.05,3.94 11.2,4.01 11.35,4.09 11.49,4.17 11.64,4.24 11.79,4.32 11.93,4.4 12.08,4.49 12.23,4.57 12.37,4.65 12.52,4.73 12.66,4.81 12.81,4.89 12.96,4.96 13.1,5.04 13.25,5.11 13.4,5.17 13.54,5.23 13.69,5.29 13.84,5.35 13.98,5.4 14.13,5.44 14.27,5.48 14.42,5.52 14.57,5.56 14.71,5.59 14.86,5.61 15.01,5.63 15.15,5.65 15.3,5.67 15.45,5.69 15.59,5.7 15.74,5.71 15.89,5.72 16.03,5.72 16.18,5.73 16.32,5.74 16.47,5.74 16.62,5.74 16.76,5.75 16.91,5.75 17.06,5.75 17.2,5.75 17.35,5.75 17.5,5.75 17.64,5.75 17.79,5.75 17.94,5.75 18.08,5.75 18.23,5.75 18.37,5.75 18.52,5.75 18.67,5.75 " class="primitive"/>
                  </g>
                </g>
              </g>
            </g>
          </g>
        </g>
        <g clip-path="url(#img-552e4ee7-38)">
          <g id="img-552e4ee7-39">
            <g pointer-events="visible" stroke-width="0.3" fill="#000000" fill-opacity="0.000" stroke="#000000" stroke-opacity="0.000" class="guide background" id="img-552e4ee7-40">
              <g transform="translate(51.67,55.58)" id="img-552e4ee7-41">
                <path d="M-26.92,-15.53 L26.92,-15.53 26.92,15.53 -26.92,15.53  z" class="primitive"/>
              </g>
            </g>
            <g class="guide ygridlines xfixed" stroke-dasharray="0.5,0.5" stroke-width="0.2" stroke="#D0D0E0" id="img-552e4ee7-42">
              <g transform="translate(51.67,69.1)" id="img-552e4ee7-43">
                <path fill="none" d="M-26.92,0 L26.92,0 " class="primitive"/>
              </g>
              <g transform="translate(51.67,64.59)" id="img-552e4ee7-44">
                <path fill="none" d="M-26.92,0 L26.92,0 " class="primitive"/>
              </g>
              <g transform="translate(51.67,60.09)" id="img-552e4ee7-45">
                <path fill="none" d="M-26.92,0 L26.92,0 " class="primitive"/>
              </g>
              <g transform="translate(51.67,55.58)" id="img-552e4ee7-46">
                <path fill="none" d="M-26.92,0 L26.92,0 " class="primitive"/>
              </g>
              <g transform="translate(51.67,51.07)" id="img-552e4ee7-47">
                <path fill="none" d="M-26.92,0 L26.92,0 " class="primitive"/>
              </g>
              <g transform="translate(51.67,46.56)" id="img-552e4ee7-48">
                <path fill="none" d="M-26.92,0 L26.92,0 " class="primitive"/>
              </g>
              <g transform="translate(51.67,42.05)" id="img-552e4ee7-49">
                <path fill="none" d="M-26.92,0 L26.92,0 " class="primitive"/>
              </g>
            </g>
            <g class="guide xgridlines yfixed" stroke-dasharray="0.5,0.5" stroke-width="0.2" stroke="#D0D0E0" id="img-552e4ee7-50">
              <g transform="translate(26.75,55.58)" id="img-552e4ee7-51">
                <path fill="none" d="M0,-15.53 L0,15.53 " class="primitive"/>
              </g>
              <g transform="translate(51.67,55.58)" id="img-552e4ee7-52">
                <path fill="none" d="M0,-15.53 L0,15.53 " class="primitive"/>
              </g>
              <g transform="translate(76.59,55.58)" id="img-552e4ee7-53">
                <path fill="none" d="M0,-15.53 L0,15.53 " class="primitive"/>
              </g>
            </g>
            <g class="plotpanel" id="img-552e4ee7-54">
              <metadata>
                <boundingbox value="24.749166666666667mm 40.05166666666666mm 53.83609478532142mm 31.051666666666662mm"/>
                <unitbox value="-5.401315554241436 0.6443595588688313 10.802631108482872 -0.6887191177376626"/>
              </metadata>
              <g stroke-width="0.3" fill="#000000" fill-opacity="0.000" class="geometry" id="img-552e4ee7-55">
                <g class="color_LCHab{Float32}(70.0f0,60.0f0,240.0f0)" stroke-dasharray="none" stroke-opacity="1" stroke="#00BFFF" id="img-552e4ee7-56">
                  <g transform="translate(54.88,62.4)" id="img-552e4ee7-57">
                    <path fill="none" d="M-16.7,6.7 L-16.56,6.7 -16.43,6.7 -16.3,6.7 -16.17,6.7 -16.04,6.7 -15.91,6.7 -15.78,6.7 -15.65,6.7 -15.52,6.7 -15.39,6.69 -15.25,6.69 -15.12,6.69 -14.99,6.68 -14.86,6.67 -14.73,6.67 -14.6,6.66 -14.47,6.64 -14.34,6.63 -14.21,6.61 -14.08,6.58 -13.95,6.55 -13.81,6.52 -13.68,6.47 -13.55,6.42 -13.42,6.36 -13.29,6.29 -13.16,6.21 -13.03,6.11 -12.9,6 -12.77,5.88 -12.64,5.74 -12.51,5.58 -12.37,5.4 -12.24,5.2 -12.11,4.99 -11.98,4.75 -11.85,4.48 -11.72,4.2 -11.59,3.89 -11.46,3.57 -11.33,3.22 -11.2,2.85 -11.06,2.46 -10.93,2.06 -10.8,1.64 -10.67,1.2 -10.54,0.76 -10.41,0.3 -10.28,-0.16 -10.15,-0.63 -10.02,-1.1 -9.89,-1.58 -9.76,-2.05 -9.62,-2.52 -9.49,-2.99 -9.36,-3.45 -9.23,-3.9 -9.1,-4.35 -8.97,-4.79 -8.84,-5.23 -8.71,-5.65 -8.58,-6.08 -8.45,-6.49 -8.31,-6.9 -8.18,-7.3 -8.05,-7.7 -7.92,-8.09 -7.79,-8.48 -7.66,-8.86 -7.53,-9.23 -7.4,-9.59 -7.27,-9.95 -7.14,-10.29 -7.01,-10.63 -6.87,-10.95 -6.74,-11.25 -6.61,-11.53 -6.48,-11.79 -6.35,-12.03 -6.22,-12.25 -6.09,-12.44 -5.96,-12.61 -5.83,-12.74 -5.7,-12.85 -5.57,-12.93 -5.43,-12.99 -5.3,-13.01 -5.17,-13.01 -5.04,-12.98 -4.91,-12.92 -4.78,-12.85 -4.65,-12.75 -4.52,-12.63 -4.39,-12.5 -4.26,-12.35 -4.12,-12.19 -3.99,-12.01 -3.86,-11.83 -3.73,-11.64 -3.6,-11.45 -3.47,-11.26 -3.34,-11.06 -3.21,-10.87 -3.08,-10.68 -2.95,-10.49 -2.82,-10.3 -2.68,-10.11 -2.55,-9.92 -2.42,-9.74 -2.29,-9.56 -2.16,-9.37 -2.03,-9.18 -1.9,-8.99 -1.77,-8.8 -1.64,-8.6 -1.51,-8.39 -1.37,-8.18 -1.24,-7.96 -1.11,-7.74 -0.98,-7.5 -0.85,-7.27 -0.72,-7.03 -0.59,-6.79 -0.46,-6.54 -0.33,-6.3 -0.2,-6.06 -0.07,-5.82 0.07,-5.58 0.2,-5.35 0.33,-5.13 0.46,-4.92 0.59,-4.71 0.72,-4.51 0.85,-4.32 0.98,-4.14 1.11,-3.97 1.24,-3.8 1.37,-3.64 1.51,-3.48 1.64,-3.33 1.77,-3.18 1.9,-3.03 2.03,-2.88 2.16,-2.73 2.29,-2.59 2.42,-2.44 2.55,-2.29 2.68,-2.13 2.82,-1.97 2.95,-1.8 3.08,-1.63 3.21,-1.45 3.34,-1.26 3.47,-1.07 3.6,-0.86 3.73,-0.65 3.86,-0.42 3.99,-0.19 4.12,0.06 4.26,0.32 4.39,0.58 4.52,0.85 4.65,1.13 4.78,1.41 4.91,1.7 5.04,1.99 5.17,2.28 5.3,2.57 5.43,2.86 5.57,3.14 5.7,3.41 5.83,3.67 5.96,3.92 6.09,4.15 6.22,4.37 6.35,4.58 6.48,4.77 6.61,4.94 6.74,5.09 6.87,5.23 7.01,5.35 7.14,5.45 7.27,5.54 7.4,5.61 7.53,5.66 7.66,5.71 7.79,5.74 7.92,5.76 8.05,5.78 8.18,5.78 8.31,5.78 8.45,5.78 8.58,5.77 8.71,5.76 8.84,5.75 8.97,5.74 9.1,5.73 9.23,5.72 9.36,5.72 9.49,5.71 9.62,5.71 9.76,5.72 9.89,5.72 10.02,5.73 10.15,5.75 10.28,5.76 10.41,5.78 10.54,5.81 10.67,5.84 10.8,5.87 10.93,5.9 11.06,5.94 11.2,5.98 11.33,6.02 11.46,6.06 11.59,6.11 11.72,6.15 11.85,6.19 11.98,6.23 12.11,6.28 12.24,6.32 12.37,6.36 12.51,6.39 12.64,6.43 12.77,6.46 12.9,6.49 13.03,6.52 13.16,6.54 13.29,6.57 13.42,6.59 13.55,6.6 13.68,6.62 13.81,6.63 13.95,6.65 14.08,6.66 14.21,6.66 14.34,6.67 14.47,6.68 14.6,6.68 14.73,6.69 14.86,6.69 14.99,6.69 15.12,6.7 15.25,6.7 15.39,6.7 15.52,6.7 15.65,6.7 15.78,6.7 15.91,6.7 16.04,6.7 16.17,6.7 16.3,6.7 16.43,6.7 16.56,6.7 16.7,6.7 " class="primitive"/>
                  </g>
                </g>
              </g>
            </g>
          </g>
        </g>
        <g class="guide ylabels" font-size="2.82" font-family="'PT Sans Caption','Helvetica Neue','Helvetica',sans-serif" fill="#6C606B" id="img-552e4ee7-58">
          <g transform="translate(23.75,69.1)" id="img-552e4ee7-59">
            <g class="primitive">
              <text text-anchor="end" dy="0.35em">0.0</text>
            </g>
          </g>
          <g transform="translate(23.75,64.59)" id="img-552e4ee7-60">
            <g class="primitive">
              <text text-anchor="end" dy="0.35em">0.1</text>
            </g>
          </g>
          <g transform="translate(23.75,60.09)" id="img-552e4ee7-61">
            <g class="primitive">
              <text text-anchor="end" dy="0.35em">0.2</text>
            </g>
          </g>
          <g transform="translate(23.75,55.58)" id="img-552e4ee7-62">
            <g class="primitive">
              <text text-anchor="end" dy="0.35em">0.3</text>
            </g>
          </g>
          <g transform="translate(23.75,51.07)" id="img-552e4ee7-63">
            <g class="primitive">
              <text text-anchor="end" dy="0.35em">0.4</text>
            </g>
          </g>
          <g transform="translate(23.75,46.56)" id="img-552e4ee7-64">
            <g class="primitive">
              <text text-anchor="end" dy="0.35em">0.5</text>
            </g>
          </g>
          <g transform="translate(23.75,42.05)" id="img-552e4ee7-65">
            <g class="primitive">
              <text text-anchor="end" dy="0.35em">0.6</text>
            </g>
          </g>
        </g>
        <g font-size="3.88" font-family="'PT Sans','Helvetica Neue','Helvetica',sans-serif" fill="#564A55" stroke="#000000" stroke-opacity="0.000" id="img-552e4ee7-66">
          <g transform="translate(16.73,55.58)" id="img-552e4ee7-67">
            <g class="primitive">
              <text text-anchor="end" dy="0.35em">2</text>
            </g>
          </g>
        </g>
        <g clip-path="url(#img-552e4ee7-68)">
          <g id="img-552e4ee7-69">
            <g pointer-events="visible" stroke-width="0.3" fill="#000000" fill-opacity="0.000" stroke="#000000" stroke-opacity="0.000" class="guide background" id="img-552e4ee7-70">
              <g transform="translate(108.5,21.53)" id="img-552e4ee7-71">
                <path d="M-25.92,-14.53 L25.92,-14.53 25.92,14.53 -25.92,14.53  z" class="primitive"/>
              </g>
            </g>
            <g class="guide ygridlines xfixed" stroke-dasharray="0.5,0.5" stroke-width="0.2" stroke="#D0D0E0" id="img-552e4ee7-72">
              <g transform="translate(108.5,34.05)" id="img-552e4ee7-73">
                <path fill="none" d="M-25.92,0 L25.92,0 " class="primitive"/>
              </g>
              <g transform="translate(108.5,29.88)" id="img-552e4ee7-74">
                <path fill="none" d="M-25.92,0 L25.92,0 " class="primitive"/>
              </g>
              <g transform="translate(108.5,25.7)" id="img-552e4ee7-75">
                <path fill="none" d="M-25.92,0 L25.92,0 " class="primitive"/>
              </g>
              <g transform="translate(108.5,21.53)" id="img-552e4ee7-76">
                <path fill="none" d="M-25.92,0 L25.92,0 " class="primitive"/>
              </g>
              <g transform="translate(108.5,17.35)" id="img-552e4ee7-77">
                <path fill="none" d="M-25.92,0 L25.92,0 " class="primitive"/>
              </g>
              <g transform="translate(108.5,13.18)" id="img-552e4ee7-78">
                <path fill="none" d="M-25.92,0 L25.92,0 " class="primitive"/>
              </g>
              <g transform="translate(108.5,9)" id="img-552e4ee7-79">
                <path fill="none" d="M-25.92,0 L25.92,0 " class="primitive"/>
              </g>
            </g>
            <g class="guide xgridlines yfixed" stroke-dasharray="0.5,0.5" stroke-width="0.2" stroke="#D0D0E0" id="img-552e4ee7-80">
              <g transform="translate(84.59,21.53)" id="img-552e4ee7-81">
                <path fill="none" d="M0,-14.53 L0,14.53 " class="primitive"/>
              </g>
              <g transform="translate(108.5,21.53)" id="img-552e4ee7-82">
                <path fill="none" d="M0,-14.53 L0,14.53 " class="primitive"/>
              </g>
              <g transform="translate(132.42,21.53)" id="img-552e4ee7-83">
                <path fill="none" d="M0,-14.53 L0,14.53 " class="primitive"/>
              </g>
            </g>
            <g class="plotpanel" id="img-552e4ee7-84">
              <metadata>
                <boundingbox value="82.5852614519881mm 7.0mm 51.83609478532142mm 29.051666666666662mm"/>
                <unitbox value="-5.418094330019119 0.647901004590513 10.836188660038237 -0.6958020091810261"/>
              </metadata>
              <g stroke-width="0.3" fill="#000000" fill-opacity="0.000" class="geometry" id="img-552e4ee7-85">
                <g class="color_LCHab{Float32}(70.0f0,60.0f0,240.0f0)" stroke-dasharray="none" stroke-opacity="1" stroke="#00BFFF" id="img-552e4ee7-86">
                  <g transform="translate(109.26,29.39)" id="img-552e4ee7-87">
                    <path fill="none" d="M-21.35,4.66 L-21.18,4.66 -21.01,4.66 -20.84,4.66 -20.68,4.66 -20.51,4.66 -20.34,4.66 -20.17,4.66 -20.01,4.66 -19.84,4.66 -19.67,4.66 -19.5,4.65 -19.34,4.65 -19.17,4.65 -19,4.65 -18.84,4.64 -18.67,4.64 -18.5,4.63 -18.33,4.62 -18.17,4.61 -18,4.6 -17.83,4.59 -17.66,4.58 -17.5,4.56 -17.33,4.54 -17.16,4.51 -16.99,4.49 -16.83,4.46 -16.66,4.43 -16.49,4.39 -16.32,4.35 -16.16,4.31 -15.99,4.26 -15.82,4.22 -15.65,4.17 -15.49,4.11 -15.32,4.06 -15.15,4.01 -14.98,3.95 -14.82,3.9 -14.65,3.84 -14.48,3.79 -14.31,3.74 -14.15,3.69 -13.98,3.65 -13.81,3.61 -13.65,3.57 -13.48,3.53 -13.31,3.5 -13.14,3.47 -12.98,3.44 -12.81,3.41 -12.64,3.39 -12.47,3.37 -12.31,3.35 -12.14,3.33 -11.97,3.31 -11.8,3.29 -11.64,3.26 -11.47,3.24 -11.3,3.22 -11.13,3.19 -10.97,3.16 -10.8,3.13 -10.63,3.09 -10.46,3.05 -10.3,3.01 -10.13,2.96 -9.96,2.91 -9.79,2.84 -9.63,2.77 -9.46,2.69 -9.29,2.6 -9.12,2.49 -8.96,2.37 -8.79,2.24 -8.62,2.08 -8.45,1.91 -8.29,1.71 -8.12,1.5 -7.95,1.26 -7.79,1 -7.62,0.71 -7.45,0.4 -7.28,0.07 -7.12,-0.29 -6.95,-0.67 -6.78,-1.07 -6.61,-1.48 -6.45,-1.92 -6.28,-2.36 -6.11,-2.82 -5.94,-3.28 -5.78,-3.75 -5.61,-4.21 -5.44,-4.68 -5.27,-5.13 -5.11,-5.57 -4.94,-5.99 -4.77,-6.4 -4.6,-6.78 -4.44,-7.14 -4.27,-7.47 -4.1,-7.78 -3.93,-8.06 -3.77,-8.31 -3.6,-8.54 -3.43,-8.75 -3.26,-8.93 -3.1,-9.09 -2.93,-9.23 -2.76,-9.36 -2.6,-9.48 -2.43,-9.59 -2.26,-9.7 -2.09,-9.8 -1.93,-9.89 -1.76,-9.99 -1.59,-10.09 -1.42,-10.18 -1.26,-10.28 -1.09,-10.37 -0.92,-10.46 -0.75,-10.54 -0.59,-10.62 -0.42,-10.68 -0.25,-10.73 -0.08,-10.77 0.08,-10.78 0.25,-10.77 0.42,-10.74 0.59,-10.69 0.75,-10.6 0.92,-10.49 1.09,-10.35 1.26,-10.19 1.42,-9.99 1.59,-9.77 1.76,-9.53 1.93,-9.26 2.09,-8.98 2.26,-8.67 2.43,-8.35 2.6,-8.02 2.76,-7.67 2.93,-7.32 3.1,-6.97 3.26,-6.61 3.43,-6.25 3.6,-5.9 3.77,-5.55 3.93,-5.2 4.1,-4.87 4.27,-4.54 4.44,-4.22 4.6,-3.92 4.77,-3.63 4.94,-3.36 5.11,-3.1 5.27,-2.86 5.44,-2.63 5.61,-2.42 5.78,-2.23 5.94,-2.05 6.11,-1.9 6.28,-1.75 6.45,-1.62 6.61,-1.5 6.78,-1.4 6.95,-1.3 7.12,-1.21 7.28,-1.12 7.45,-1.04 7.62,-0.96 7.79,-0.88 7.95,-0.8 8.12,-0.71 8.29,-0.61 8.45,-0.51 8.62,-0.39 8.79,-0.27 8.96,-0.14 9.12,0.01 9.29,0.17 9.46,0.34 9.63,0.52 9.79,0.71 9.96,0.9 10.13,1.11 10.3,1.31 10.46,1.52 10.63,1.73 10.8,1.94 10.97,2.14 11.13,2.34 11.3,2.53 11.47,2.71 11.64,2.88 11.8,3.03 11.97,3.18 12.14,3.31 12.31,3.43 12.47,3.53 12.64,3.63 12.81,3.71 12.98,3.79 13.14,3.85 13.31,3.91 13.48,3.96 13.65,4 13.81,4.04 13.98,4.08 14.15,4.11 14.31,4.14 14.48,4.17 14.65,4.2 14.82,4.23 14.98,4.26 15.15,4.29 15.32,4.32 15.49,4.34 15.65,4.37 15.82,4.4 15.99,4.42 16.16,4.45 16.32,4.47 16.49,4.49 16.66,4.51 16.83,4.53 16.99,4.55 17.16,4.57 17.33,4.58 17.5,4.59 17.66,4.6 17.83,4.61 18,4.62 18.17,4.63 18.33,4.63 18.5,4.64 18.67,4.64 18.84,4.65 19,4.65 19.17,4.65 19.34,4.65 19.5,4.66 19.67,4.66 19.84,4.66 20.01,4.66 20.17,4.66 20.34,4.66 20.51,4.66 20.68,4.66 20.84,4.66 21.01,4.66 21.18,4.66 21.35,4.66 " class="primitive"/>
                  </g>
                </g>
              </g>
            </g>
          </g>
        </g>
        <g clip-path="url(#img-552e4ee7-88)">
          <g id="img-552e4ee7-89">
            <g pointer-events="visible" stroke-width="0.3" fill="#000000" fill-opacity="0.000" stroke="#000000" stroke-opacity="0.000" class="guide background" id="img-552e4ee7-90">
              <g transform="translate(51.67,21.53)" id="img-552e4ee7-91">
                <path d="M-26.92,-14.53 L26.92,-14.53 26.92,14.53 -26.92,14.53  z" class="primitive"/>
              </g>
            </g>
            <g class="guide ygridlines xfixed" stroke-dasharray="0.5,0.5" stroke-width="0.2" stroke="#D0D0E0" id="img-552e4ee7-92">
              <g transform="translate(51.67,34.05)" id="img-552e4ee7-93">
                <path fill="none" d="M-26.92,0 L26.92,0 " class="primitive"/>
              </g>
              <g transform="translate(51.67,29.88)" id="img-552e4ee7-94">
                <path fill="none" d="M-26.92,0 L26.92,0 " class="primitive"/>
              </g>
              <g transform="translate(51.67,25.7)" id="img-552e4ee7-95">
                <path fill="none" d="M-26.92,0 L26.92,0 " class="primitive"/>
              </g>
              <g transform="translate(51.67,21.53)" id="img-552e4ee7-96">
                <path fill="none" d="M-26.92,0 L26.92,0 " class="primitive"/>
              </g>
              <g transform="translate(51.67,17.35)" id="img-552e4ee7-97">
                <path fill="none" d="M-26.92,0 L26.92,0 " class="primitive"/>
              </g>
              <g transform="translate(51.67,13.18)" id="img-552e4ee7-98">
                <path fill="none" d="M-26.92,0 L26.92,0 " class="primitive"/>
              </g>
              <g transform="translate(51.67,9)" id="img-552e4ee7-99">
                <path fill="none" d="M-26.92,0 L26.92,0 " class="primitive"/>
              </g>
            </g>
            <g class="guide xgridlines yfixed" stroke-dasharray="0.5,0.5" stroke-width="0.2" stroke="#D0D0E0" id="img-552e4ee7-100">
              <g transform="translate(26.75,21.53)" id="img-552e4ee7-101">
                <path fill="none" d="M0,-14.53 L0,14.53 " class="primitive"/>
              </g>
              <g transform="translate(51.67,21.53)" id="img-552e4ee7-102">
                <path fill="none" d="M0,-14.53 L0,14.53 " class="primitive"/>
              </g>
              <g transform="translate(76.59,21.53)" id="img-552e4ee7-103">
                <path fill="none" d="M0,-14.53 L0,14.53 " class="primitive"/>
              </g>
            </g>
            <g class="plotpanel" id="img-552e4ee7-104">
              <metadata>
                <boundingbox value="24.749166666666667mm 7.0mm 53.83609478532142mm 29.051666666666662mm"/>
                <unitbox value="-5.401315554241436 0.647901004590513 10.802631108482872 -0.6958020091810261"/>
              </metadata>
              <g stroke-width="0.3" fill="#000000" fill-opacity="0.000" class="geometry" id="img-552e4ee7-105">
                <g class="color_LCHab{Float32}(70.0f0,60.0f0,240.0f0)" stroke-dasharray="none" stroke-opacity="1" stroke="#00BFFF" id="img-552e4ee7-106">
                  <g transform="translate(49.79,28.36)" id="img-552e4ee7-107">
                    <path fill="none" d="M-18.21,5.69 L-18.06,5.69 -17.92,5.69 -17.78,5.69 -17.63,5.69 -17.49,5.69 -17.35,5.69 -17.21,5.69 -17.06,5.69 -16.92,5.69 -16.78,5.69 -16.64,5.68 -16.49,5.68 -16.35,5.68 -16.21,5.67 -16.06,5.67 -15.92,5.66 -15.78,5.65 -15.64,5.64 -15.49,5.63 -15.35,5.62 -15.21,5.6 -15.06,5.58 -14.92,5.56 -14.78,5.53 -14.64,5.51 -14.49,5.48 -14.35,5.44 -14.21,5.4 -14.07,5.36 -13.92,5.32 -13.78,5.28 -13.64,5.23 -13.49,5.18 -13.35,5.13 -13.21,5.09 -13.07,5.04 -12.92,4.99 -12.78,4.94 -12.64,4.9 -12.49,4.86 -12.35,4.82 -12.21,4.79 -12.07,4.76 -11.92,4.73 -11.78,4.7 -11.64,4.68 -11.49,4.65 -11.35,4.63 -11.21,4.61 -11.07,4.59 -10.92,4.57 -10.78,4.54 -10.64,4.51 -10.5,4.47 -10.35,4.43 -10.21,4.37 -10.07,4.31 -9.92,4.24 -9.78,4.15 -9.64,4.05 -9.5,3.95 -9.35,3.82 -9.21,3.69 -9.07,3.55 -8.92,3.39 -8.78,3.23 -8.64,3.06 -8.5,2.89 -8.35,2.71 -8.21,2.53 -8.07,2.35 -7.93,2.17 -7.78,2 -7.64,1.82 -7.5,1.65 -7.35,1.49 -7.21,1.32 -7.07,1.17 -6.93,1.01 -6.78,0.85 -6.64,0.7 -6.5,0.54 -6.35,0.38 -6.21,0.22 -6.07,0.06 -5.93,-0.11 -5.78,-0.28 -5.64,-0.45 -5.5,-0.62 -5.35,-0.8 -5.21,-0.98 -5.07,-1.16 -4.93,-1.33 -4.78,-1.51 -4.64,-1.68 -4.5,-1.85 -4.36,-2 -4.21,-2.16 -4.07,-2.3 -3.93,-2.44 -3.78,-2.57 -3.64,-2.68 -3.5,-2.79 -3.36,-2.9 -3.21,-3 -3.07,-3.09 -2.93,-3.18 -2.78,-3.28 -2.64,-3.38 -2.5,-3.48 -2.36,-3.6 -2.21,-3.73 -2.07,-3.88 -1.93,-4.04 -1.78,-4.23 -1.64,-4.45 -1.5,-4.69 -1.36,-4.96 -1.21,-5.26 -1.07,-5.6 -0.93,-5.96 -0.79,-6.35 -0.64,-6.77 -0.5,-7.23 -0.36,-7.7 -0.21,-8.2 -0.07,-8.73 0.07,-9.27 0.21,-9.82 0.36,-10.39 0.5,-10.96 0.64,-11.54 0.79,-12.11 0.93,-12.66 1.07,-13.21 1.21,-13.73 1.36,-14.22 1.5,-14.67 1.64,-15.08 1.78,-15.44 1.93,-15.75 2.07,-15.99 2.21,-16.17 2.36,-16.28 2.5,-16.31 2.64,-16.26 2.78,-16.13 2.93,-15.93 3.07,-15.64 3.21,-15.28 3.36,-14.85 3.5,-14.35 3.64,-13.79 3.78,-13.18 3.93,-12.52 4.07,-11.83 4.21,-11.1 4.36,-10.36 4.5,-9.61 4.64,-8.86 4.78,-8.12 4.93,-7.4 5.07,-6.7 5.21,-6.03 5.35,-5.41 5.5,-4.83 5.64,-4.29 5.78,-3.8 5.93,-3.36 6.07,-2.97 6.21,-2.62 6.35,-2.32 6.5,-2.06 6.64,-1.84 6.78,-1.64 6.93,-1.47 7.07,-1.32 7.21,-1.19 7.35,-1.07 7.5,-0.95 7.64,-0.84 7.78,-0.72 7.93,-0.6 8.07,-0.47 8.21,-0.34 8.35,-0.19 8.5,-0.04 8.64,0.13 8.78,0.31 8.92,0.49 9.07,0.69 9.21,0.89 9.35,1.1 9.5,1.31 9.64,1.53 9.78,1.75 9.92,1.97 10.07,2.19 10.21,2.41 10.35,2.62 10.5,2.82 10.64,3.02 10.78,3.21 10.92,3.39 11.07,3.56 11.21,3.72 11.35,3.86 11.49,4 11.64,4.13 11.78,4.25 11.92,4.36 12.07,4.46 12.21,4.55 12.35,4.64 12.49,4.72 12.64,4.8 12.78,4.87 12.92,4.94 13.07,5 13.21,5.06 13.35,5.12 13.49,5.18 13.64,5.23 13.78,5.28 13.92,5.32 14.07,5.37 14.21,5.41 14.35,5.44 14.49,5.48 14.64,5.51 14.78,5.54 14.92,5.56 15.06,5.58 15.21,5.6 15.35,5.62 15.49,5.63 15.64,5.64 15.78,5.65 15.92,5.66 16.06,5.67 16.21,5.67 16.35,5.68 16.49,5.68 16.64,5.68 16.78,5.69 16.92,5.69 17.06,5.69 17.21,5.69 17.35,5.69 17.49,5.69 17.63,5.69 17.78,5.69 17.92,5.69 18.06,5.69 18.21,5.69 " class="primitive"/>
                  </g>
                </g>
              </g>
            </g>
          </g>
        </g>
        <g class="guide ylabels" font-size="2.82" font-family="'PT Sans Caption','Helvetica Neue','Helvetica',sans-serif" fill="#6C606B" id="img-552e4ee7-108">
          <g transform="translate(23.75,34.05)" id="img-552e4ee7-109">
            <g class="primitive">
              <text text-anchor="end" dy="0.35em">0.0</text>
            </g>
          </g>
          <g transform="translate(23.75,29.88)" id="img-552e4ee7-110">
            <g class="primitive">
              <text text-anchor="end" dy="0.35em">0.1</text>
            </g>
          </g>
          <g transform="translate(23.75,25.7)" id="img-552e4ee7-111">
            <g class="primitive">
              <text text-anchor="end" dy="0.35em">0.2</text>
            </g>
          </g>
          <g transform="translate(23.75,21.53)" id="img-552e4ee7-112">
            <g class="primitive">
              <text text-anchor="end" dy="0.35em">0.3</text>
            </g>
          </g>
          <g transform="translate(23.75,17.35)" id="img-552e4ee7-113">
            <g class="primitive">
              <text text-anchor="end" dy="0.35em">0.4</text>
            </g>
          </g>
          <g transform="translate(23.75,13.18)" id="img-552e4ee7-114">
            <g class="primitive">
              <text text-anchor="end" dy="0.35em">0.5</text>
            </g>
          </g>
          <g transform="translate(23.75,9)" id="img-552e4ee7-115">
            <g class="primitive">
              <text text-anchor="end" dy="0.35em">0.6</text>
            </g>
          </g>
        </g>
        <g font-size="3.88" font-family="'PT Sans','Helvetica Neue','Helvetica',sans-serif" fill="#564A55" stroke="#000000" stroke-opacity="0.000" id="img-552e4ee7-116">
          <g transform="translate(16.73,21.53)" id="img-552e4ee7-117">
            <g class="primitive">
              <text text-anchor="end" dy="0.35em">1</text>
            </g>
          </g>
        </g>
      </g>
    </g>
  </g>
  <g font-size="3.88" font-family="'PT Sans','Helvetica Neue','Helvetica',sans-serif" fill="#564A55" stroke="#000000" stroke-opacity="0.000" id="img-552e4ee7-118">
    <g transform="translate(8.81,43.19)" id="img-552e4ee7-119">
      <g class="primitive">
        <text text-anchor="middle" dy="0.35em" transform="rotate(-90,0, 2)">Chain</text>
      </g>
    </g>
  </g>
</g>
<defs>
  <clipPath id="img-552e4ee7-3">
    <path d="M12.61,5 L136.42,5 136.42,85.39 12.61,85.39 " />
  </clipPath>
  <clipPath id="img-552e4ee7-18">
    <path d="M82.59,40.05 L134.42,40.05 134.42,71.1 82.59,71.1 " />
  </clipPath>
  <clipPath id="img-552e4ee7-38">
    <path d="M24.75,40.05 L78.59,40.05 78.59,71.1 24.75,71.1 " />
  </clipPath>
  <clipPath id="img-552e4ee7-68">
    <path d="M82.59,7 L134.42,7 134.42,36.05 82.59,36.05 " />
  </clipPath>
  <clipPath id="img-552e4ee7-88">
    <path d="M24.75,7 L78.59,7 78.59,36.05 24.75,36.05 " />
  </clipPath>
</defs>
</svg>
