<?xml version="1.0" encoding="UTF-8"?>
<svg xmlns="http://www.w3.org/2000/svg"
     xmlns:xlink="http://www.w3.org/1999/xlink"
     xmlns:gadfly="http://www.gadflyjl.org/ns"
     version="1.2"
     width="141.42mm" height="100mm" viewBox="0 0 141.42 100"
     stroke="none"
     fill="#000000"
     stroke-width="0.3"
     font-size="3.88"
>
<defs>
  <marker id="arrow" markerWidth="15" markerHeight="7" refX="5" refY="3.5" orient="auto" markerUnits="strokeWidth">
    <path d="M0,0 L15,3.5 L0,7 z" stroke="context-stroke" fill="context-stroke"/>
  </marker>
</defs>
<g class="plotroot xscalable yscalable" id="img-1e2f3e75-1">
  <g font-size="3.88" font-family="'PT Sans','Helvetica Neue','Helvetica',sans-serif" fill="#564A55" stroke="#000000" stroke-opacity="0.000" id="img-1e2f3e75-2">
    <g transform="translate(70.04,88.39)">
      <g class="primitive">
        <text text-anchor="middle" dy="0.6em">value</text>
      </g>
    </g>
  </g>
  <g class="guide colorkey" id="img-1e2f3e75-3">
    <g fill="#4C404B" font-size="2.82" font-family="'PT Sans','Helvetica Neue','Helvetica',sans-serif" id="img-1e2f3e75-4">
      <g transform="translate(131.29,43.38)" id="img-1e2f3e75-5" class="color_1">
        <g class="primitive">
          <text dy="0.35em">1</text>
        </g>
      </g>
      <g transform="translate(131.29,47.01)" id="img-1e2f3e75-6" class="color_2">
        <g class="primitive">
          <text dy="0.35em">2</text>
        </g>
      </g>
      <g transform="translate(131.29,50.63)" id="img-1e2f3e75-7" class="color_3">
        <g class="primitive">
          <text dy="0.35em">3</text>
        </g>
      </g>
    </g>
    <g fill-opacity="1" id="img-1e2f3e75-8">
      <g transform="translate(129.38,43.38)" id="img-1e2f3e75-9" class="color_1" fill="#00BFFF" stroke="#FFFFFF">
        <path d="M-0.91,-0.91 L0.91,-0.91 0.91,0.91 -0.91,0.91  z" class="primitive"/>
      </g>
      <g transform="translate(129.38,47.01)" id="img-1e2f3e75-10" class="color_2" fill="#D4CA3A" stroke="#FFFFFF">
        <path d="M-0.91,-0.91 L0.91,-0.91 0.91,0.91 -0.91,0.91  z" class="primitive"/>
      </g>
      <g transform="translate(129.38,50.63)" id="img-1e2f3e75-11" class="color_3" fill="#FF6DAE" stroke="#FFFFFF">
        <path d="M-0.91,-0.91 L0.91,-0.91 0.91,0.91 -0.91,0.91  z" class="primitive"/>
      </g>
    </g>
    <g fill="#362A35" font-size="3.88" font-family="'PT Sans','Helvetica Neue','Helvetica',sans-serif" stroke="#000000" stroke-opacity="0.000" id="img-1e2f3e75-12">
      <g transform="translate(128.47,39.56)" id="img-1e2f3e75-13">
        <g class="primitive">
          <text dy="-0em">chain</text>
        </g>
      </g>
    </g>
  </g>
  <g clip-path="url(#img-1e2f3e75-14)">
    <g id="img-1e2f3e75-15">
      <g class="plotpanel" id="img-1e2f3e75-16">
        <metadata>
          <boundingbox value="12.611666666666665mm 5.0mm 114.86302290397617mm 80.38833333333334mm"/>
          <unitbox value="0.0 0.0 1.0 1.0"/>
        </metadata>
        <g class="guide xlabels" font-size="2.82" font-family="'PT Sans Caption','Helvetica Neue','Helvetica',sans-serif" fill="#6C606B" id="img-1e2f3e75-17">
          <g transform="translate(26.9,81.72)" id="img-1e2f3e75-18">
            <g class="primitive">
              <text text-anchor="middle" dy="0.6em">-5</text>
            </g>
          </g>
          <g transform="translate(75.19,81.72)" id="img-1e2f3e75-19">
            <g class="primitive">
              <text text-anchor="middle" dy="0.6em">0</text>
            </g>
          </g>
          <g transform="translate(123.47,81.72)" id="img-1e2f3e75-20">
            <g class="primitive">
              <text text-anchor="middle" dy="0.6em">5</text>
            </g>
          </g>
        </g>
        <g clip-path="url(#img-1e2f3e75-21)">
          <g id="img-1e2f3e75-22">
            <g pointer-events="visible" stroke-width="0.3" fill="#000000" fill-opacity="0.000" stroke="#000000" stroke-opacity="0.000" class="guide background" id="img-1e2f3e75-23">
              <g transform="translate(75.19,62.79)" id="img-1e2f3e75-24">
                <path d="M-50.28,-17.93 L50.28,-17.93 50.28,17.93 -50.28,17.93  z" class="primitive"/>
              </g>
            </g>
            <g class="guide ygridlines xfixed" stroke-dasharray="0.5,0.5" stroke-width="0.2" stroke="#D0D0E0" id="img-1e2f3e75-25">
              <g transform="translate(75.19,78.72)" id="img-1e2f3e75-26">
                <path fill="none" d="M-50.28,0 L50.28,0 " class="primitive"/>
              </g>
              <g transform="translate(75.19,73.41)" id="img-1e2f3e75-27">
                <path fill="none" d="M-50.28,0 L50.28,0 " class="primitive"/>
              </g>
              <g transform="translate(75.19,68.1)" id="img-1e2f3e75-28">
                <path fill="none" d="M-50.28,0 L50.28,0 " class="primitive"/>
              </g>
              <g transform="translate(75.19,62.79)" id="img-1e2f3e75-29">
                <path fill="none" d="M-50.28,0 L50.28,0 " class="primitive"/>
              </g>
              <g transform="translate(75.19,57.48)" id="img-1e2f3e75-30">
                <path fill="none" d="M-50.28,0 L50.28,0 " class="primitive"/>
              </g>
              <g transform="translate(75.19,52.17)" id="img-1e2f3e75-31">
                <path fill="none" d="M-50.28,0 L50.28,0 " class="primitive"/>
              </g>
              <g transform="translate(75.19,46.86)" id="img-1e2f3e75-32">
                <path fill="none" d="M-50.28,0 L50.28,0 " class="primitive"/>
              </g>
            </g>
            <g class="guide xgridlines yfixed" stroke-dasharray="0.5,0.5" stroke-width="0.2" stroke="#D0D0E0" id="img-1e2f3e75-33">
              <g transform="translate(26.9,62.79)" id="img-1e2f3e75-34">
                <path fill="none" d="M0,-17.93 L0,17.93 " class="primitive"/>
              </g>
              <g transform="translate(75.19,62.79)" id="img-1e2f3e75-35">
                <path fill="none" d="M0,-17.93 L0,17.93 " class="primitive"/>
              </g>
              <g transform="translate(123.47,62.79)" id="img-1e2f3e75-36">
                <path fill="none" d="M0,-17.93 L0,17.93 " class="primitive"/>
              </g>
            </g>
            <g class="plotpanel" id="img-1e2f3e75-37">
              <metadata>
                <boundingbox value="24.904999999999987mm 44.8575mm 100.56968957064285mm 35.8575mm"/>
                <unitbox value="-5.207104321127279 0.6376677391509065 10.414208642254557 -0.6753354783018128"/>
              </metadata>
              <g stroke-width="0.3" fill="#000000" fill-opacity="0.000" class="geometry" id="img-1e2f3e75-38">
                <g transform="translate(73.81,71.35)" id="img-1e2f3e75-39" stroke-opacity="1" stroke-dasharray="none" stroke="#FF6DAE" class="color_3">
                  <path fill="none" d="M-34.66,7.37 L-34.38,7.37 -34.11,7.37 -33.84,7.37 -33.57,7.37 -33.3,7.37 -33.03,7.36 -32.75,7.36 -32.48,7.36 -32.21,7.36 -31.94,7.35 -31.67,7.34 -31.39,7.34 -31.12,7.33 -30.85,7.31 -30.58,7.3 -30.31,7.27 -30.04,7.25 -29.76,7.22 -29.49,7.18 -29.22,7.14 -28.95,7.09 -28.68,7.03 -28.4,6.97 -28.13,6.89 -27.86,6.81 -27.59,6.72 -27.32,6.63 -27.05,6.53 -26.77,6.42 -26.5,6.31 -26.23,6.2 -25.96,6.08 -25.69,5.97 -25.41,5.86 -25.14,5.76 -24.87,5.66 -24.6,5.56 -24.33,5.48 -24.06,5.4 -23.78,5.33 -23.51,5.27 -23.24,5.21 -22.97,5.16 -22.7,5.12 -22.42,5.08 -22.15,5.05 -21.88,5.02 -21.61,4.99 -21.34,4.96 -21.07,4.93 -20.79,4.91 -20.52,4.88 -20.25,4.85 -19.98,4.82 -19.71,4.79 -19.43,4.75 -19.16,4.71 -18.89,4.67 -18.62,4.62 -18.35,4.57 -18.08,4.51 -17.8,4.45 -17.53,4.37 -17.26,4.29 -16.99,4.2 -16.72,4.1 -16.44,3.99 -16.17,3.87 -15.9,3.73 -15.63,3.59 -15.36,3.43 -15.09,3.26 -14.81,3.08 -14.54,2.88 -14.27,2.67 -14,2.45 -13.73,2.21 -13.45,1.97 -13.18,1.71 -12.91,1.45 -12.64,1.18 -12.37,0.9 -12.1,0.62 -11.82,0.34 -11.55,0.06 -11.28,-0.21 -11.01,-0.49 -10.74,-0.76 -10.46,-1.03 -10.19,-1.3 -9.92,-1.57 -9.65,-1.85 -9.38,-2.14 -9.11,-2.44 -8.83,-2.76 -8.56,-3.11 -8.29,-3.48 -8.02,-3.89 -7.75,-4.33 -7.47,-4.81 -7.2,-5.33 -6.93,-5.89 -6.66,-6.49 -6.39,-7.12 -6.12,-7.78 -5.84,-8.47 -5.57,-9.17 -5.3,-9.88 -5.03,-10.6 -4.76,-11.3 -4.48,-11.99 -4.21,-12.65 -3.94,-13.28 -3.67,-13.88 -3.4,-14.43 -3.13,-14.94 -2.85,-15.4 -2.58,-15.82 -2.31,-16.18 -2.04,-16.5 -1.77,-16.77 -1.49,-17 -1.22,-17.2 -0.95,-17.36 -0.68,-17.49 -0.41,-17.59 -0.14,-17.66 0.14,-17.71 0.41,-17.74 0.68,-17.75 0.95,-17.73 1.22,-17.69 1.49,-17.63 1.77,-17.53 2.04,-17.4 2.31,-17.24 2.58,-17.04 2.85,-16.8 3.13,-16.51 3.4,-16.19 3.67,-15.82 3.94,-15.41 4.21,-14.95 4.48,-14.46 4.76,-13.94 5.03,-13.39 5.3,-12.81 5.57,-12.22 5.84,-11.61 6.12,-11 6.39,-10.38 6.66,-9.77 6.93,-9.17 7.2,-8.59 7.47,-8.02 7.75,-7.47 8.02,-6.95 8.29,-6.45 8.56,-5.98 8.83,-5.53 9.11,-5.11 9.38,-4.7 9.65,-4.32 9.92,-3.96 10.19,-3.61 10.46,-3.28 10.74,-2.96 11.01,-2.66 11.28,-2.36 11.55,-2.07 11.82,-1.78 12.1,-1.5 12.37,-1.23 12.64,-0.97 12.91,-0.71 13.18,-0.46 13.45,-0.21 13.73,0.03 14,0.27 14.27,0.51 14.54,0.74 14.81,0.97 15.09,1.21 15.36,1.44 15.63,1.68 15.9,1.93 16.17,2.17 16.44,2.42 16.72,2.67 16.99,2.92 17.26,3.16 17.53,3.41 17.8,3.65 18.08,3.88 18.35,4.1 18.62,4.31 18.89,4.5 19.16,4.68 19.43,4.84 19.71,4.98 19.98,5.1 20.25,5.2 20.52,5.29 20.79,5.35 21.07,5.41 21.34,5.45 21.61,5.47 21.88,5.49 22.15,5.5 22.42,5.51 22.7,5.52 22.97,5.53 23.24,5.55 23.51,5.57 23.78,5.61 24.06,5.65 24.33,5.7 24.6,5.76 24.87,5.83 25.14,5.91 25.41,6 25.69,6.09 25.96,6.19 26.23,6.29 26.5,6.39 26.77,6.49 27.05,6.59 27.32,6.68 27.59,6.77 27.86,6.86 28.13,6.93 28.4,7 28.68,7.06 28.95,7.11 29.22,7.16 29.49,7.2 29.76,7.23 30.04,7.26 30.31,7.28 30.58,7.3 30.85,7.32 31.12,7.33 31.39,7.34 31.67,7.35 31.94,7.35 32.21,7.36 32.48,7.36 32.75,7.36 33.03,7.36 33.3,7.37 33.57,7.37 33.84,7.37 34.11,7.37 34.38,7.37 34.66,7.37 " class="primitive"/>
                </g>
                <g transform="translate(76.72,72.79)" id="img-1e2f3e75-40" stroke-opacity="1" stroke-dasharray="none" stroke="#00BFFF" class="color_1">
                  <path fill="none" d="M-43.09,5.93 L-42.76,5.93 -42.42,5.93 -42.08,5.93 -41.74,5.92 -41.4,5.92 -41.07,5.92 -40.73,5.92 -40.39,5.92 -40.05,5.92 -39.71,5.92 -39.38,5.92 -39.04,5.92 -38.7,5.91 -38.36,5.91 -38.02,5.9 -37.69,5.9 -37.35,5.89 -37.01,5.88 -36.67,5.87 -36.33,5.85 -36,5.84 -35.66,5.82 -35.32,5.8 -34.98,5.77 -34.64,5.74 -34.31,5.71 -33.97,5.67 -33.63,5.63 -33.29,5.58 -32.95,5.53 -32.62,5.48 -32.28,5.42 -31.94,5.36 -31.6,5.3 -31.26,5.23 -30.93,5.16 -30.59,5.09 -30.25,5.02 -29.91,4.96 -29.57,4.89 -29.24,4.82 -28.9,4.76 -28.56,4.7 -28.22,4.64 -27.88,4.59 -27.55,4.54 -27.21,4.49 -26.87,4.45 -26.53,4.41 -26.19,4.38 -25.86,4.34 -25.52,4.31 -25.18,4.28 -24.84,4.26 -24.5,4.23 -24.17,4.2 -23.83,4.18 -23.49,4.15 -23.15,4.12 -22.81,4.09 -22.48,4.06 -22.14,4.02 -21.8,3.98 -21.46,3.93 -21.12,3.88 -20.79,3.83 -20.45,3.77 -20.11,3.7 -19.77,3.62 -19.43,3.53 -19.1,3.42 -18.76,3.3 -18.42,3.17 -18.08,3.02 -17.74,2.84 -17.41,2.65 -17.07,2.43 -16.73,2.18 -16.39,1.91 -16.05,1.6 -15.72,1.27 -15.38,0.91 -15.04,0.51 -14.7,0.09 -14.36,-0.37 -14.03,-0.85 -13.69,-1.36 -13.35,-1.89 -13.01,-2.44 -12.67,-3.01 -12.34,-3.59 -12,-4.18 -11.66,-4.77 -11.32,-5.36 -10.98,-5.95 -10.65,-6.52 -10.31,-7.08 -9.97,-7.62 -9.63,-8.13 -9.29,-8.62 -8.96,-9.08 -8.62,-9.5 -8.28,-9.89 -7.94,-10.25 -7.6,-10.57 -7.27,-10.86 -6.93,-11.12 -6.59,-11.35 -6.25,-11.56 -5.91,-11.74 -5.58,-11.91 -5.24,-12.06 -4.9,-12.2 -4.56,-12.33 -4.22,-12.46 -3.89,-12.58 -3.55,-12.7 -3.21,-12.82 -2.87,-12.95 -2.53,-13.07 -2.2,-13.19 -1.86,-13.3 -1.52,-13.41 -1.18,-13.5 -0.84,-13.58 -0.51,-13.65 -0.17,-13.69 0.17,-13.71 0.51,-13.7 0.84,-13.66 1.18,-13.59 1.52,-13.49 1.86,-13.34 2.2,-13.17 2.53,-12.96 2.87,-12.71 3.21,-12.43 3.55,-12.12 3.89,-11.78 4.22,-11.41 4.56,-11.03 4.9,-10.62 5.24,-10.2 5.58,-9.76 5.91,-9.31 6.25,-8.86 6.59,-8.41 6.93,-7.95 7.27,-7.5 7.6,-7.05 7.94,-6.62 8.28,-6.19 8.62,-5.77 8.96,-5.37 9.29,-4.98 9.63,-4.62 9.97,-4.27 10.31,-3.94 10.65,-3.63 10.98,-3.34 11.32,-3.08 11.66,-2.84 12,-2.61 12.34,-2.41 12.67,-2.23 13.01,-2.06 13.35,-1.91 13.69,-1.77 14.03,-1.65 14.36,-1.54 14.7,-1.43 15.04,-1.32 15.38,-1.22 15.72,-1.12 16.05,-1.01 16.39,-0.9 16.73,-0.78 17.07,-0.65 17.41,-0.5 17.74,-0.34 18.08,-0.17 18.42,0.01 18.76,0.22 19.1,0.43 19.43,0.66 19.77,0.9 20.11,1.15 20.45,1.41 20.79,1.67 21.12,1.94 21.46,2.2 21.8,2.47 22.14,2.73 22.48,2.98 22.81,3.21 23.15,3.44 23.49,3.66 23.83,3.86 24.17,4.04 24.5,4.21 24.84,4.36 25.18,4.49 25.52,4.61 25.86,4.72 26.19,4.81 26.53,4.9 26.87,4.97 27.21,5.03 27.55,5.09 27.88,5.14 28.22,5.19 28.56,5.23 28.9,5.27 29.24,5.31 29.57,5.35 29.91,5.38 30.25,5.42 30.59,5.45 30.93,5.49 31.26,5.52 31.6,5.56 31.94,5.59 32.28,5.63 32.62,5.66 32.95,5.69 33.29,5.71 33.63,5.74 33.97,5.76 34.31,5.79 34.64,5.81 34.98,5.82 35.32,5.84 35.66,5.85 36,5.87 36.33,5.88 36.67,5.89 37.01,5.89 37.35,5.9 37.69,5.91 38.02,5.91 38.36,5.91 38.7,5.92 39.04,5.92 39.38,5.92 39.71,5.92 40.05,5.92 40.39,5.92 40.73,5.92 41.07,5.92 41.4,5.92 41.74,5.93 42.08,5.93 42.42,5.93 42.76,5.93 43.09,5.93 " class="primitive"/>
                </g>
                <g transform="translate(73.78,71.94)" id="img-1e2f3e75-41" stroke-opacity="1" stroke-dasharray="none" stroke="#D4CA3A" class="color_2">
                  <path fill="none" d="M-37.68,6.78 L-37.39,6.78 -37.09,6.78 -36.8,6.78 -36.5,6.78 -36.21,6.78 -35.91,6.78 -35.62,6.77 -35.32,6.77 -35.02,6.77 -34.73,6.77 -34.43,6.77 -34.14,6.77 -33.84,6.77 -33.55,6.76 -33.25,6.76 -32.96,6.76 -32.66,6.75 -32.36,6.74 -32.07,6.73 -31.77,6.72 -31.48,6.71 -31.18,6.7 -30.89,6.68 -30.59,6.66 -30.3,6.64 -30,6.61 -29.7,6.58 -29.41,6.54 -29.11,6.5 -28.82,6.45 -28.52,6.4 -28.23,6.34 -27.93,6.28 -27.64,6.2 -27.34,6.13 -27.04,6.04 -26.75,5.95 -26.45,5.85 -26.16,5.74 -25.86,5.63 -25.57,5.51 -25.27,5.38 -24.98,5.25 -24.68,5.12 -24.38,4.98 -24.09,4.84 -23.79,4.69 -23.5,4.55 -23.2,4.4 -22.91,4.25 -22.61,4.1 -22.32,3.96 -22.02,3.82 -21.72,3.68 -21.43,3.54 -21.13,3.41 -20.84,3.28 -20.54,3.16 -20.25,3.05 -19.95,2.94 -19.65,2.83 -19.36,2.73 -19.06,2.63 -18.77,2.53 -18.47,2.44 -18.18,2.34 -17.88,2.25 -17.59,2.15 -17.29,2.05 -16.99,1.94 -16.7,1.82 -16.4,1.69 -16.11,1.55 -15.81,1.4 -15.52,1.24 -15.22,1.05 -14.93,0.86 -14.63,0.65 -14.33,0.42 -14.04,0.18 -13.74,-0.08 -13.45,-0.35 -13.15,-0.62 -12.86,-0.91 -12.56,-1.2 -12.27,-1.49 -11.97,-1.78 -11.67,-2.07 -11.38,-2.35 -11.08,-2.61 -10.79,-2.87 -10.49,-3.1 -10.2,-3.32 -9.9,-3.52 -9.61,-3.69 -9.31,-3.84 -9.01,-3.97 -8.72,-4.08 -8.42,-4.17 -8.13,-4.25 -7.83,-4.3 -7.54,-4.35 -7.24,-4.39 -6.95,-4.43 -6.65,-4.47 -6.35,-4.52 -6.06,-4.58 -5.76,-4.66 -5.47,-4.76 -5.17,-4.88 -4.88,-5.03 -4.58,-5.22 -4.29,-5.43 -3.99,-5.68 -3.69,-5.97 -3.4,-6.29 -3.1,-6.64 -2.81,-7.03 -2.51,-7.45 -2.22,-7.89 -1.92,-8.36 -1.63,-8.84 -1.33,-9.34 -1.03,-9.85 -0.74,-10.36 -0.44,-10.87 -0.15,-11.37 0.15,-11.86 0.44,-12.34 0.74,-12.79 1.03,-13.22 1.33,-13.62 1.63,-13.98 1.92,-14.31 2.22,-14.61 2.51,-14.86 2.81,-15.07 3.1,-15.24 3.4,-15.36 3.69,-15.45 3.99,-15.49 4.29,-15.49 4.58,-15.45 4.88,-15.38 5.17,-15.27 5.47,-15.12 5.76,-14.94 6.06,-14.73 6.35,-14.5 6.65,-14.24 6.95,-13.95 7.24,-13.64 7.54,-13.3 7.83,-12.95 8.13,-12.58 8.42,-12.19 8.72,-11.78 9.01,-11.35 9.31,-10.91 9.61,-10.45 9.9,-9.98 10.2,-9.49 10.49,-8.99 10.79,-8.48 11.08,-7.96 11.38,-7.43 11.67,-6.89 11.97,-6.34 12.27,-5.8 12.56,-5.25 12.86,-4.7 13.15,-4.15 13.45,-3.61 13.74,-3.08 14.04,-2.55 14.33,-2.04 14.63,-1.55 14.93,-1.06 15.22,-0.6 15.52,-0.16 15.81,0.27 16.11,0.67 16.4,1.05 16.7,1.4 16.99,1.73 17.29,2.04 17.59,2.32 17.88,2.58 18.18,2.82 18.47,3.03 18.77,3.23 19.06,3.4 19.36,3.56 19.65,3.71 19.95,3.84 20.25,3.96 20.54,4.07 20.84,4.18 21.13,4.27 21.43,4.37 21.72,4.46 22.02,4.55 22.32,4.64 22.61,4.72 22.91,4.81 23.2,4.91 23.5,5 23.79,5.09 24.09,5.19 24.38,5.28 24.68,5.38 24.98,5.47 25.27,5.57 25.57,5.66 25.86,5.75 26.16,5.84 26.45,5.93 26.75,6.01 27.04,6.09 27.34,6.16 27.64,6.23 27.93,6.3 28.23,6.36 28.52,6.41 28.82,6.46 29.11,6.5 29.41,6.54 29.7,6.58 30,6.61 30.3,6.63 30.59,6.66 30.89,6.68 31.18,6.7 31.48,6.71 31.77,6.72 32.07,6.73 32.36,6.74 32.66,6.75 32.96,6.75 33.25,6.76 33.55,6.76 33.84,6.77 34.14,6.77 34.43,6.77 34.73,6.77 35.02,6.77 35.32,6.77 35.62,6.77 35.91,6.78 36.21,6.78 36.5,6.78 36.8,6.78 37.09,6.78 37.39,6.78 37.68,6.78 " class="primitive"/>
                </g>
              </g>
            </g>
          </g>
        </g>
        <g class="guide ylabels" font-size="2.82" font-family="'PT Sans Caption','Helvetica Neue','Helvetica',sans-serif" fill="#6C606B" id="img-1e2f3e75-42">
          <g transform="translate(23.9,78.72)" id="img-1e2f3e75-43">
            <g class="primitive">
              <text text-anchor="end" dy="0.35em">0.0</text>
            </g>
          </g>
          <g transform="translate(23.9,73.41)" id="img-1e2f3e75-44">
            <g class="primitive">
              <text text-anchor="end" dy="0.35em">0.1</text>
            </g>
          </g>
          <g transform="translate(23.9,68.1)" id="img-1e2f3e75-45">
            <g class="primitive">
              <text text-anchor="end" dy="0.35em">0.2</text>
            </g>
          </g>
          <g transform="translate(23.9,62.79)" id="img-1e2f3e75-46">
            <g class="primitive">
              <text text-anchor="end" dy="0.35em">0.3</text>
            </g>
          </g>
          <g transform="translate(23.9,57.48)" id="img-1e2f3e75-47">
            <g class="primitive">
              <text text-anchor="end" dy="0.35em">0.4</text>
            </g>
          </g>
          <g transform="translate(23.9,52.17)" id="img-1e2f3e75-48">
            <g class="primitive">
              <text text-anchor="end" dy="0.35em">0.5</text>
            </g>
          </g>
          <g transform="translate(23.9,46.86)" id="img-1e2f3e75-49">
            <g class="primitive">
              <text text-anchor="end" dy="0.35em">0.6</text>
            </g>
          </g>
        </g>
        <g font-size="3.88" font-family="'PT Sans','Helvetica Neue','Helvetica',sans-serif" fill="#564A55" stroke="#000000" stroke-opacity="0.000" id="img-1e2f3e75-50">
          <g transform="translate(16.88,62.79)" id="img-1e2f3e75-51">
            <g class="primitive">
              <text text-anchor="end" dy="0.35em">B</text>
            </g>
          </g>
        </g>
        <g clip-path="url(#img-1e2f3e75-52)">
          <g id="img-1e2f3e75-53">
            <g pointer-events="visible" stroke-width="0.3" fill="#000000" fill-opacity="0.000" stroke="#000000" stroke-opacity="0.000" class="guide background" id="img-1e2f3e75-54">
              <g transform="translate(75.19,23.93)" id="img-1e2f3e75-55">
                <path d="M-50.28,-16.93 L50.28,-16.93 50.28,16.93 -50.28,16.93  z" class="primitive"/>
              </g>
            </g>
            <g class="guide ygridlines xfixed" stroke-dasharray="0.5,0.5" stroke-width="0.2" stroke="#D0D0E0" id="img-1e2f3e75-56">
              <g transform="translate(75.19,38.86)" id="img-1e2f3e75-57">
                <path fill="none" d="M-50.28,0 L50.28,0 " class="primitive"/>
              </g>
              <g transform="translate(75.19,33.88)" id="img-1e2f3e75-58">
                <path fill="none" d="M-50.28,0 L50.28,0 " class="primitive"/>
              </g>
              <g transform="translate(75.19,28.9)" id="img-1e2f3e75-59">
                <path fill="none" d="M-50.28,0 L50.28,0 " class="primitive"/>
              </g>
              <g transform="translate(75.19,23.93)" id="img-1e2f3e75-60">
                <path fill="none" d="M-50.28,0 L50.28,0 " class="primitive"/>
              </g>
              <g transform="translate(75.19,18.95)" id="img-1e2f3e75-61">
                <path fill="none" d="M-50.28,0 L50.28,0 " class="primitive"/>
              </g>
              <g transform="translate(75.19,13.98)" id="img-1e2f3e75-62">
                <path fill="none" d="M-50.28,0 L50.28,0 " class="primitive"/>
              </g>
              <g transform="translate(75.19,9)" id="img-1e2f3e75-63">
                <path fill="none" d="M-50.28,0 L50.28,0 " class="primitive"/>
              </g>
            </g>
            <g class="guide xgridlines yfixed" stroke-dasharray="0.5,0.5" stroke-width="0.2" stroke="#D0D0E0" id="img-1e2f3e75-64">
              <g transform="translate(26.9,23.93)" id="img-1e2f3e75-65">
                <path fill="none" d="M0,-16.93 L0,16.93 " class="primitive"/>
              </g>
              <g transform="translate(75.19,23.93)" id="img-1e2f3e75-66">
                <path fill="none" d="M0,-16.93 L0,16.93 " class="primitive"/>
              </g>
              <g transform="translate(123.47,23.93)" id="img-1e2f3e75-67">
                <path fill="none" d="M0,-16.93 L0,16.93 " class="primitive"/>
              </g>
            </g>
            <g class="plotpanel" id="img-1e2f3e75-68">
              <metadata>
                <boundingbox value="24.904999999999987mm 7.0mm 100.56968957064285mm 33.8575mm"/>
                <unitbox value="-5.207104321127279 0.6401909068073349 10.414208642254557 -0.6803818136146699"/>
              </metadata>
              <g stroke-width="0.3" fill="#000000" fill-opacity="0.000" class="geometry" id="img-1e2f3e75-69">
                <g transform="translate(72.54,32.33)" id="img-1e2f3e75-70" stroke-opacity="1" stroke-dasharray="none" stroke="#FF6DAE" class="color_3">
                  <path fill="none" d="M-36.66,6.53 L-36.37,6.53 -36.09,6.53 -35.8,6.53 -35.51,6.53 -35.22,6.53 -34.94,6.53 -34.65,6.53 -34.36,6.53 -34.07,6.52 -33.79,6.52 -33.5,6.52 -33.21,6.52 -32.92,6.52 -32.64,6.51 -32.35,6.51 -32.06,6.51 -31.77,6.5 -31.49,6.49 -31.2,6.48 -30.91,6.47 -30.62,6.46 -30.34,6.45 -30.05,6.43 -29.76,6.42 -29.47,6.4 -29.19,6.38 -28.9,6.35 -28.61,6.33 -28.32,6.3 -28.04,6.27 -27.75,6.24 -27.46,6.21 -27.17,6.17 -26.89,6.14 -26.6,6.11 -26.31,6.08 -26.02,6.05 -25.74,6.02 -25.45,5.99 -25.16,5.97 -24.87,5.95 -24.59,5.94 -24.3,5.93 -24.01,5.92 -23.72,5.92 -23.44,5.92 -23.15,5.93 -22.86,5.94 -22.57,5.95 -22.29,5.97 -22,5.99 -21.71,6.01 -21.42,6.02 -21.13,6.04 -20.85,6.05 -20.56,6.07 -20.27,6.07 -19.98,6.07 -19.7,6.07 -19.41,6.05 -19.12,6.03 -18.83,6 -18.55,5.96 -18.26,5.9 -17.97,5.84 -17.68,5.76 -17.4,5.67 -17.11,5.56 -16.82,5.44 -16.53,5.31 -16.25,5.16 -15.96,4.99 -15.67,4.81 -15.38,4.62 -15.1,4.42 -14.81,4.2 -14.52,3.97 -14.23,3.73 -13.95,3.48 -13.66,3.22 -13.37,2.96 -13.08,2.69 -12.8,2.41 -12.51,2.14 -12.22,1.86 -11.93,1.58 -11.65,1.31 -11.36,1.03 -11.07,0.76 -10.78,0.48 -10.5,0.21 -10.21,-0.05 -9.92,-0.32 -9.63,-0.59 -9.35,-0.86 -9.06,-1.13 -8.77,-1.41 -8.48,-1.69 -8.2,-1.98 -7.91,-2.27 -7.62,-2.57 -7.33,-2.89 -7.04,-3.21 -6.76,-3.55 -6.47,-3.9 -6.18,-4.26 -5.89,-4.64 -5.61,-5.03 -5.32,-5.43 -5.03,-5.85 -4.74,-6.27 -4.46,-6.71 -4.17,-7.15 -3.88,-7.6 -3.59,-8.06 -3.31,-8.52 -3.02,-8.98 -2.73,-9.43 -2.44,-9.88 -2.16,-10.33 -1.87,-10.76 -1.58,-11.17 -1.29,-11.57 -1.01,-11.94 -0.72,-12.28 -0.43,-12.6 -0.14,-12.88 0.14,-13.13 0.43,-13.34 0.72,-13.51 1.01,-13.65 1.29,-13.74 1.58,-13.79 1.87,-13.8 2.16,-13.78 2.44,-13.73 2.73,-13.64 3.02,-13.53 3.31,-13.4 3.59,-13.25 3.88,-13.09 4.17,-12.92 4.46,-12.75 4.74,-12.59 5.03,-12.43 5.32,-12.28 5.61,-12.15 5.89,-12.03 6.18,-11.92 6.47,-11.83 6.76,-11.75 7.04,-11.68 7.33,-11.62 7.62,-11.56 7.91,-11.49 8.2,-11.42 8.48,-11.34 8.77,-11.24 9.06,-11.11 9.35,-10.96 9.63,-10.77 9.92,-10.55 10.21,-10.3 10.5,-10 10.78,-9.68 11.07,-9.31 11.36,-8.92 11.65,-8.49 11.93,-8.05 12.22,-7.58 12.51,-7.1 12.8,-6.62 13.08,-6.13 13.37,-5.66 13.66,-5.19 13.95,-4.74 14.23,-4.31 14.52,-3.91 14.81,-3.53 15.1,-3.18 15.38,-2.86 15.67,-2.57 15.96,-2.3 16.25,-2.06 16.53,-1.85 16.82,-1.65 17.11,-1.46 17.4,-1.28 17.68,-1.12 17.97,-0.95 18.26,-0.79 18.55,-0.62 18.83,-0.44 19.12,-0.26 19.41,-0.07 19.7,0.13 19.98,0.34 20.27,0.57 20.56,0.8 20.85,1.04 21.13,1.29 21.42,1.55 21.71,1.81 22,2.07 22.29,2.33 22.57,2.6 22.86,2.86 23.15,3.12 23.44,3.37 23.72,3.62 24.01,3.85 24.3,4.08 24.59,4.3 24.87,4.51 25.16,4.7 25.45,4.89 25.74,5.06 26.02,5.22 26.31,5.37 26.6,5.51 26.89,5.64 27.17,5.75 27.46,5.85 27.75,5.95 28.04,6.03 28.32,6.1 28.61,6.17 28.9,6.22 29.19,6.27 29.47,6.32 29.76,6.35 30.05,6.38 30.34,6.41 30.62,6.43 30.91,6.45 31.2,6.47 31.49,6.48 31.77,6.49 32.06,6.5 32.35,6.5 32.64,6.51 32.92,6.51 33.21,6.52 33.5,6.52 33.79,6.52 34.07,6.52 34.36,6.52 34.65,6.53 34.94,6.53 35.22,6.53 35.51,6.53 35.8,6.53 36.09,6.53 36.37,6.53 36.66,6.53 " class="primitive"/>
                </g>
                <g transform="translate(71.54,32.07)" id="img-1e2f3e75-71" stroke-opacity="1" stroke-dasharray="none" stroke="#00BFFF" class="color_1">
                  <path fill="none" d="M-35.28,6.78 L-35,6.78 -34.73,6.78 -34.45,6.78 -34.17,6.78 -33.9,6.78 -33.62,6.78 -33.34,6.78 -33.07,6.78 -32.79,6.78 -32.51,6.78 -32.24,6.77 -31.96,6.77 -31.68,6.77 -31.41,6.76 -31.13,6.76 -30.85,6.75 -30.58,6.74 -30.3,6.73 -30.02,6.71 -29.74,6.7 -29.47,6.68 -29.19,6.65 -28.91,6.63 -28.64,6.6 -28.36,6.56 -28.08,6.53 -27.81,6.48 -27.53,6.44 -27.25,6.39 -26.98,6.34 -26.7,6.29 -26.42,6.23 -26.15,6.18 -25.87,6.12 -25.59,6.06 -25.32,6 -25.04,5.95 -24.76,5.89 -24.49,5.84 -24.21,5.79 -23.93,5.75 -23.66,5.71 -23.38,5.67 -23.1,5.63 -22.83,5.6 -22.55,5.57 -22.27,5.55 -22,5.52 -21.72,5.5 -21.44,5.47 -21.17,5.44 -20.89,5.41 -20.61,5.37 -20.34,5.33 -20.06,5.28 -19.78,5.21 -19.51,5.14 -19.23,5.05 -18.95,4.95 -18.68,4.83 -18.4,4.7 -18.12,4.56 -17.85,4.4 -17.57,4.23 -17.29,4.04 -17.02,3.85 -16.74,3.65 -16.46,3.44 -16.19,3.23 -15.91,3.01 -15.63,2.8 -15.36,2.59 -15.08,2.38 -14.8,2.17 -14.53,1.97 -14.25,1.77 -13.97,1.58 -13.7,1.39 -13.42,1.2 -13.14,1.02 -12.87,0.83 -12.59,0.64 -12.31,0.45 -12.04,0.26 -11.76,0.07 -11.48,-0.13 -11.21,-0.33 -10.93,-0.54 -10.65,-0.74 -10.38,-0.95 -10.1,-1.17 -9.82,-1.38 -9.55,-1.59 -9.27,-1.8 -8.99,-2 -8.72,-2.2 -8.44,-2.39 -8.16,-2.57 -7.89,-2.74 -7.61,-2.91 -7.33,-3.06 -7.06,-3.2 -6.78,-3.33 -6.5,-3.45 -6.23,-3.57 -5.95,-3.68 -5.67,-3.8 -5.4,-3.91 -5.12,-4.03 -4.84,-4.15 -4.57,-4.29 -4.29,-4.45 -4.01,-4.62 -3.74,-4.82 -3.46,-5.05 -3.18,-5.3 -2.91,-5.59 -2.63,-5.92 -2.35,-6.27 -2.08,-6.67 -1.8,-7.1 -1.52,-7.57 -1.25,-8.07 -0.97,-8.61 -0.69,-9.18 -0.42,-9.78 -0.14,-10.4 0.14,-11.05 0.42,-11.71 0.69,-12.38 0.97,-13.07 1.25,-13.75 1.52,-14.43 1.8,-15.09 2.08,-15.74 2.35,-16.36 2.63,-16.95 2.91,-17.49 3.18,-17.98 3.46,-18.41 3.74,-18.77 4.01,-19.06 4.29,-19.27 4.57,-19.4 4.84,-19.43 5.12,-19.38 5.4,-19.23 5.67,-18.98 5.95,-18.64 6.23,-18.21 6.5,-17.7 6.78,-17.11 7.06,-16.44 7.33,-15.71 7.61,-14.93 7.89,-14.1 8.16,-13.23 8.44,-12.35 8.72,-11.45 8.99,-10.56 9.27,-9.68 9.55,-8.82 9.82,-7.98 10.1,-7.19 10.38,-6.45 10.65,-5.75 10.93,-5.11 11.21,-4.53 11.48,-4.01 11.76,-3.54 12.04,-3.13 12.31,-2.77 12.59,-2.46 12.87,-2.19 13.14,-1.95 13.42,-1.75 13.7,-1.58 13.97,-1.42 14.25,-1.27 14.53,-1.13 14.8,-1 15.08,-0.86 15.36,-0.71 15.63,-0.56 15.91,-0.4 16.19,-0.23 16.46,-0.04 16.74,0.15 17.02,0.36 17.29,0.59 17.57,0.82 17.85,1.06 18.12,1.31 18.4,1.57 18.68,1.83 18.95,2.09 19.23,2.35 19.51,2.61 19.78,2.87 20.06,3.12 20.34,3.36 20.61,3.6 20.89,3.82 21.17,4.04 21.44,4.24 21.72,4.43 22,4.61 22.27,4.77 22.55,4.92 22.83,5.06 23.1,5.19 23.38,5.31 23.66,5.43 23.93,5.53 24.21,5.63 24.49,5.72 24.76,5.8 25.04,5.88 25.32,5.96 25.59,6.03 25.87,6.1 26.15,6.17 26.42,6.23 26.7,6.29 26.98,6.34 27.25,6.4 27.53,6.45 27.81,6.49 28.08,6.53 28.36,6.57 28.64,6.6 28.91,6.63 29.19,6.65 29.47,6.68 29.74,6.7 30.02,6.71 30.3,6.73 30.58,6.74 30.85,6.75 31.13,6.76 31.41,6.76 31.68,6.77 31.96,6.77 32.24,6.77 32.51,6.78 32.79,6.78 33.07,6.78 33.34,6.78 33.62,6.78 33.9,6.78 34.17,6.78 34.45,6.78 34.73,6.78 35,6.78 35.28,6.78 " class="primitive"/>
                </g>
                <g transform="translate(81.42,31.46)" id="img-1e2f3e75-72" stroke-opacity="1" stroke-dasharray="none" stroke="#D4CA3A" class="color_2">
                  <path fill="none" d="M-32.35,7.4 L-32.1,7.4 -31.84,7.4 -31.59,7.4 -31.34,7.4 -31.08,7.4 -30.83,7.4 -30.57,7.39 -30.32,7.39 -30.07,7.39 -29.81,7.39 -29.56,7.38 -29.31,7.38 -29.05,7.37 -28.8,7.37 -28.54,7.36 -28.29,7.35 -28.04,7.33 -27.78,7.31 -27.53,7.29 -27.28,7.26 -27.02,7.23 -26.77,7.19 -26.52,7.14 -26.26,7.09 -26.01,7.02 -25.75,6.94 -25.5,6.85 -25.25,6.75 -24.99,6.63 -24.74,6.49 -24.49,6.33 -24.23,6.16 -23.98,5.96 -23.72,5.74 -23.47,5.5 -23.22,5.24 -22.96,4.95 -22.71,4.64 -22.46,4.3 -22.2,3.94 -21.95,3.55 -21.69,3.15 -21.44,2.72 -21.19,2.27 -20.93,1.81 -20.68,1.33 -20.43,0.84 -20.17,0.33 -19.92,-0.18 -19.66,-0.7 -19.41,-1.22 -19.16,-1.74 -18.9,-2.26 -18.65,-2.78 -18.4,-3.3 -18.14,-3.8 -17.89,-4.31 -17.63,-4.8 -17.38,-5.29 -17.13,-5.77 -16.87,-6.24 -16.62,-6.71 -16.37,-7.16 -16.11,-7.61 -15.86,-8.06 -15.6,-8.5 -15.35,-8.93 -15.1,-9.35 -14.84,-9.77 -14.59,-10.19 -14.34,-10.59 -14.08,-10.98 -13.83,-11.36 -13.57,-11.73 -13.32,-12.08 -13.07,-12.41 -12.81,-12.73 -12.56,-13.02 -12.31,-13.28 -12.05,-13.52 -11.8,-13.73 -11.54,-13.91 -11.29,-14.07 -11.04,-14.19 -10.78,-14.27 -10.53,-14.33 -10.28,-14.36 -10.02,-14.36 -9.77,-14.32 -9.51,-14.26 -9.26,-14.18 -9.01,-14.07 -8.75,-13.94 -8.5,-13.79 -8.25,-13.63 -7.99,-13.45 -7.74,-13.26 -7.49,-13.06 -7.23,-12.85 -6.98,-12.64 -6.72,-12.43 -6.47,-12.21 -6.22,-12 -5.96,-11.78 -5.71,-11.57 -5.46,-11.36 -5.2,-11.16 -4.95,-10.95 -4.69,-10.75 -4.44,-10.55 -4.19,-10.34 -3.93,-10.14 -3.68,-9.93 -3.43,-9.71 -3.17,-9.49 -2.92,-9.26 -2.66,-9.03 -2.41,-8.79 -2.16,-8.54 -1.9,-8.28 -1.65,-8.02 -1.4,-7.76 -1.14,-7.49 -0.89,-7.22 -0.63,-6.95 -0.38,-6.68 -0.13,-6.42 0.13,-6.16 0.38,-5.91 0.63,-5.67 0.89,-5.43 1.14,-5.2 1.4,-4.98 1.65,-4.77 1.9,-4.57 2.16,-4.38 2.41,-4.19 2.66,-4.01 2.92,-3.84 3.17,-3.67 3.43,-3.5 3.68,-3.34 3.93,-3.18 4.19,-3.02 4.44,-2.86 4.69,-2.69 4.95,-2.52 5.2,-2.35 5.46,-2.17 5.71,-1.99 5.96,-1.8 6.22,-1.6 6.47,-1.4 6.72,-1.18 6.98,-0.95 7.23,-0.71 7.49,-0.46 7.74,-0.2 7.99,0.07 8.25,0.35 8.5,0.64 8.75,0.94 9.01,1.25 9.26,1.56 9.51,1.88 9.77,2.2 10.02,2.52 10.28,2.84 10.53,3.15 10.78,3.46 11.04,3.76 11.29,4.05 11.54,4.32 11.8,4.58 12.05,4.83 12.31,5.06 12.56,5.26 12.81,5.45 13.07,5.62 13.32,5.77 13.57,5.9 13.83,6.02 14.08,6.11 14.34,6.19 14.59,6.25 14.84,6.3 15.1,6.33 15.35,6.36 15.6,6.37 15.86,6.38 16.11,6.38 16.37,6.38 16.62,6.37 16.87,6.36 17.13,6.35 17.38,6.34 17.63,6.33 17.89,6.32 18.14,6.31 18.4,6.31 18.65,6.31 18.9,6.31 19.16,6.32 19.41,6.33 19.66,6.34 19.92,6.36 20.17,6.38 20.43,6.41 20.68,6.44 20.93,6.48 21.19,6.52 21.44,6.56 21.69,6.6 21.95,6.65 22.2,6.69 22.46,6.74 22.71,6.79 22.96,6.83 23.22,6.88 23.47,6.93 23.72,6.97 23.98,7.01 24.23,7.06 24.49,7.09 24.74,7.13 24.99,7.16 25.25,7.19 25.5,7.22 25.75,7.25 26.01,7.27 26.26,7.29 26.52,7.31 26.77,7.32 27.02,7.33 27.28,7.35 27.53,7.36 27.78,7.36 28.04,7.37 28.29,7.38 28.54,7.38 28.8,7.38 29.05,7.39 29.31,7.39 29.56,7.39 29.81,7.39 30.07,7.39 30.32,7.4 30.57,7.4 30.83,7.4 31.08,7.4 31.34,7.4 31.59,7.4 31.84,7.4 32.1,7.4 32.35,7.4 " class="primitive"/>
                </g>
              </g>
            </g>
          </g>
        </g>
        <g class="guide ylabels" font-size="2.82" font-family="'PT Sans Caption','Helvetica Neue','Helvetica',sans-serif" fill="#6C606B" id="img-1e2f3e75-73">
          <g transform="translate(23.9,38.86)" id="img-1e2f3e75-74">
            <g class="primitive">
              <text text-anchor="end" dy="0.35em">0.0</text>
            </g>
          </g>
          <g transform="translate(23.9,33.88)" id="img-1e2f3e75-75">
            <g class="primitive">
              <text text-anchor="end" dy="0.35em">0.1</text>
            </g>
          </g>
          <g transform="translate(23.9,28.9)" id="img-1e2f3e75-76">
            <g class="primitive">
              <text text-anchor="end" dy="0.35em">0.2</text>
            </g>
          </g>
          <g transform="translate(23.9,23.93)" id="img-1e2f3e75-77">
            <g class="primitive">
              <text text-anchor="end" dy="0.35em">0.3</text>
            </g>
          </g>
          <g transform="translate(23.9,18.95)" id="img-1e2f3e75-78">
            <g class="primitive">
              <text text-anchor="end" dy="0.35em">0.4</text>
            </g>
          </g>
          <g transform="translate(23.9,13.98)" id="img-1e2f3e75-79">
            <g class="primitive">
              <text text-anchor="end" dy="0.35em">0.5</text>
            </g>
          </g>
          <g transform="translate(23.9,9)" id="img-1e2f3e75-80">
            <g class="primitive">
              <text text-anchor="end" dy="0.35em">0.6</text>
            </g>
          </g>
        </g>
        <g font-size="3.88" font-family="'PT Sans','Helvetica Neue','Helvetica',sans-serif" fill="#564A55" stroke="#000000" stroke-opacity="0.000" id="img-1e2f3e75-81">
          <g transform="translate(16.88,23.93)" id="img-1e2f3e75-82">
            <g class="primitive">
              <text text-anchor="end" dy="0.35em">A</text>
            </g>
          </g>
        </g>
      </g>
    </g>
  </g>
  <g font-size="3.88" font-family="'PT Sans','Helvetica Neue','Helvetica',sans-serif" fill="#564A55" stroke="#000000" stroke-opacity="0.000" id="img-1e2f3e75-83">
    <g transform="translate(8.81,43.19)" id="img-1e2f3e75-84">
      <g class="primitive">
        <text text-anchor="middle" dy="0.35em" transform="rotate(-90,0, 2)">Density</text>
      </g>
    </g>
  </g>
</g>
<defs>
  <clipPath id="img-1e2f3e75-14">
    <path d="M12.61,5 L127.47,5 127.47,85.39 12.61,85.39 " />
  </clipPath>
  <clipPath id="img-1e2f3e75-21">
    <path d="M24.9,44.86 L125.47,44.86 125.47,80.72 24.9,80.72 " />
  </clipPath>
  <clipPath id="img-1e2f3e75-52">
    <path d="M24.9,7 L125.47,7 125.47,40.86 24.9,40.86 " />
  </clipPath>
</defs>
</svg>
