<?xml version="1.0" encoding="UTF-8"?>
<svg xmlns="http://www.w3.org/2000/svg"
     xmlns:xlink="http://www.w3.org/1999/xlink"
     xmlns:gadfly="http://www.gadflyjl.org/ns"
     version="1.2"
     width="141.42mm" height="100mm" viewBox="0 0 141.42 100"
     stroke="none"
     fill="#000000"
     stroke-width="0.3"
     font-size="3.88"
>
<defs>
  <marker id="arrow" markerWidth="15" markerHeight="7" refX="5" refY="3.5" orient="auto" markerUnits="strokeWidth">
    <path d="M0,0 L15,3.5 L0,7 z" stroke="context-stroke" fill="context-stroke"/>
  </marker>
</defs>
<g class="plotroot xscalable yscalable" id="img-1af254d1-1">
  <g font-size="3.88" font-family="'PT Sans','Helvetica Neue','Helvetica',sans-serif" fill="#564A55" stroke="#000000" stroke-opacity="0.000" id="img-1af254d1-2">
    <g transform="translate(73.05,88.39)">
      <g class="primitive">
        <text text-anchor="middle" dy="0.6em">A</text>
      </g>
    </g>
  </g>
  <g class="guide xlabels" font-size="2.82" font-family="'PT Sans Caption','Helvetica Neue','Helvetica',sans-serif" fill="#6C606B" id="img-1af254d1-3">
    <g transform="translate(20.63,81.72)">
      <g class="primitive">
        <text text-anchor="middle" dy="0.6em">-5.0</text>
      </g>
    </g>
    <g transform="translate(46.84,81.72)">
      <g class="primitive">
        <text text-anchor="middle" dy="0.6em">-2.5</text>
      </g>
    </g>
    <g transform="translate(73.05,81.72)">
      <g class="primitive">
        <text text-anchor="middle" dy="0.6em">0.0</text>
      </g>
    </g>
    <g transform="translate(99.26,81.72)">
      <g class="primitive">
        <text text-anchor="middle" dy="0.6em">2.5</text>
      </g>
    </g>
    <g transform="translate(125.47,81.72)">
      <g class="primitive">
        <text text-anchor="middle" dy="0.6em">5.0</text>
      </g>
    </g>
  </g>
  <g class="guide colorkey" id="img-1af254d1-4">
    <g fill="#4C404B" font-size="2.82" font-family="'PT Sans','Helvetica Neue','Helvetica',sans-serif" id="img-1af254d1-5">
      <g transform="translate(131.29,41.04)" id="img-1af254d1-6" class="color_1">
        <g class="primitive">
          <text dy="0.35em">1</text>
        </g>
      </g>
      <g transform="translate(131.29,44.67)" id="img-1af254d1-7" class="color_2">
        <g class="primitive">
          <text dy="0.35em">2</text>
        </g>
      </g>
      <g transform="translate(131.29,48.3)" id="img-1af254d1-8" class="color_3">
        <g class="primitive">
          <text dy="0.35em">3</text>
        </g>
      </g>
    </g>
    <g fill-opacity="1" id="img-1af254d1-9">
      <g transform="translate(129.38,41.04)" id="img-1af254d1-10" fill="#00BFFF" class="color_1" stroke="#FFFFFF">
        <path d="M-0.91,-0.91 L0.91,-0.91 0.91,0.91 -0.91,0.91  z" class="primitive"/>
      </g>
      <g transform="translate(129.38,44.67)" id="img-1af254d1-11" fill="#D4CA3A" class="color_2" stroke="#FFFFFF">
        <path d="M-0.91,-0.91 L0.91,-0.91 0.91,0.91 -0.91,0.91  z" class="primitive"/>
      </g>
      <g transform="translate(129.38,48.3)" id="img-1af254d1-12" fill="#FF6DAE" class="color_3" stroke="#FFFFFF">
        <path d="M-0.91,-0.91 L0.91,-0.91 0.91,0.91 -0.91,0.91  z" class="primitive"/>
      </g>
    </g>
    <g fill="#362A35" font-size="3.88" font-family="'PT Sans','Helvetica Neue','Helvetica',sans-serif" stroke="#000000" stroke-opacity="0.000" id="img-1af254d1-13">
      <g transform="translate(128.47,37.22)" id="img-1af254d1-14">
        <g class="primitive">
          <text dy="-0em">chain</text>
        </g>
      </g>
    </g>
  </g>
  <g clip-path="url(#img-1af254d1-15)">
    <g id="img-1af254d1-16">
      <g pointer-events="visible" stroke-width="0.3" fill="#000000" fill-opacity="0.000" stroke="#000000" stroke-opacity="0.000" class="guide background" id="img-1af254d1-17">
        <g transform="translate(73.05,42.86)" id="img-1af254d1-18">
          <path d="M-54.42,-37.86 L54.42,-37.86 54.42,37.86 -54.42,37.86  z" class="primitive"/>
        </g>
      </g>
      <g class="guide ygridlines xfixed" stroke-dasharray="0.5,0.5" stroke-width="0.2" stroke="#D0D0E0" id="img-1af254d1-19">
        <g transform="translate(73.05,78.71)" id="img-1af254d1-20">
          <path fill="none" d="M-54.42,0 L54.42,0 " class="primitive"/>
        </g>
        <g transform="translate(73.05,64.37)" id="img-1af254d1-21">
          <path fill="none" d="M-54.42,0 L54.42,0 " class="primitive"/>
        </g>
        <g transform="translate(73.05,50.03)" id="img-1af254d1-22">
          <path fill="none" d="M-54.42,0 L54.42,0 " class="primitive"/>
        </g>
        <g transform="translate(73.05,35.69)" id="img-1af254d1-23">
          <path fill="none" d="M-54.42,0 L54.42,0 " class="primitive"/>
        </g>
        <g transform="translate(73.05,21.34)" id="img-1af254d1-24">
          <path fill="none" d="M-54.42,0 L54.42,0 " class="primitive"/>
        </g>
        <g transform="translate(73.05,7)" id="img-1af254d1-25">
          <path fill="none" d="M-54.42,0 L54.42,0 " class="primitive"/>
        </g>
      </g>
      <g class="guide xgridlines yfixed" stroke-dasharray="0.5,0.5" stroke-width="0.2" stroke="#D0D0E0" id="img-1af254d1-26">
        <g transform="translate(20.63,42.86)" id="img-1af254d1-27">
          <path fill="none" d="M0,-37.86 L0,37.86 " class="primitive"/>
        </g>
        <g transform="translate(46.84,42.86)" id="img-1af254d1-28">
          <path fill="none" d="M0,-37.86 L0,37.86 " class="primitive"/>
        </g>
        <g transform="translate(73.05,42.86)" id="img-1af254d1-29">
          <path fill="none" d="M0,-37.86 L0,37.86 " class="primitive"/>
        </g>
        <g transform="translate(99.26,42.86)" id="img-1af254d1-30">
          <path fill="none" d="M0,-37.86 L0,37.86 " class="primitive"/>
        </g>
        <g transform="translate(125.47,42.86)" id="img-1af254d1-31">
          <path fill="none" d="M0,-37.86 L0,37.86 " class="primitive"/>
        </g>
      </g>
      <g class="plotpanel" id="img-1af254d1-32">
        <metadata>
          <boundingbox value="18.63166666666666mm 5.0mm 108.84302290397618mm 75.715mm"/>
          <unitbox value="-5.190761382551108 0.5139440842222687 10.381522765102215 -0.5278881684445375"/>
        </metadata>
        <g stroke-width="0.3" fill="#000000" fill-opacity="0.000" class="geometry" id="img-1af254d1-33">
          <g transform="translate(71.52,62.34)" id="img-1af254d1-34" stroke-opacity="1" class="color_2" stroke="#D4CA3A" stroke-dasharray="none">
            <path fill="none" d="M-45.74,16.37 L-45.38,16.37 -45.02,16.37 -44.67,16.37 -44.31,16.37 -43.95,16.37 -43.59,16.37 -43.23,16.37 -42.87,16.36 -42.51,16.36 -42.15,16.36 -41.8,16.35 -41.44,16.34 -41.08,16.33 -40.72,16.32 -40.36,16.31 -40,16.29 -39.64,16.27 -39.28,16.24 -38.93,16.21 -38.57,16.17 -38.21,16.12 -37.85,16.07 -37.49,16.01 -37.13,15.93 -36.77,15.86 -36.41,15.77 -36.06,15.67 -35.7,15.56 -35.34,15.44 -34.98,15.31 -34.62,15.18 -34.26,15.03 -33.9,14.88 -33.54,14.72 -33.19,14.56 -32.83,14.39 -32.47,14.21 -32.11,14.04 -31.75,13.86 -31.39,13.67 -31.03,13.49 -30.67,13.31 -30.32,13.12 -29.96,12.94 -29.6,12.75 -29.24,12.57 -28.88,12.38 -28.52,12.2 -28.16,12.02 -27.8,11.85 -27.45,11.67 -27.09,11.51 -26.73,11.34 -26.37,11.19 -26.01,11.04 -25.65,10.91 -25.29,10.78 -24.93,10.66 -24.58,10.55 -24.22,10.45 -23.86,10.36 -23.5,10.27 -23.14,10.19 -22.78,10.1 -22.42,10.02 -22.06,9.94 -21.7,9.85 -21.35,9.75 -20.99,9.64 -20.63,9.52 -20.27,9.39 -19.91,9.24 -19.55,9.07 -19.19,8.88 -18.83,8.67 -18.48,8.44 -18.12,8.19 -17.76,7.91 -17.4,7.61 -17.04,7.28 -16.68,6.92 -16.32,6.53 -15.96,6.11 -15.61,5.66 -15.25,5.17 -14.89,4.65 -14.53,4.08 -14.17,3.47 -13.81,2.82 -13.45,2.12 -13.09,1.37 -12.74,0.58 -12.38,-0.26 -12.02,-1.15 -11.66,-2.08 -11.3,-3.05 -10.94,-4.05 -10.58,-5.09 -10.22,-6.15 -9.87,-7.23 -9.51,-8.31 -9.15,-9.39 -8.79,-10.45 -8.43,-11.5 -8.07,-12.52 -7.71,-13.51 -7.35,-14.45 -7,-15.35 -6.64,-16.21 -6.28,-17.02 -5.92,-17.8 -5.56,-18.55 -5.2,-19.27 -4.84,-19.99 -4.48,-20.71 -4.13,-21.45 -3.77,-22.22 -3.41,-23.04 -3.05,-23.92 -2.69,-24.87 -2.33,-25.9 -1.97,-27.01 -1.61,-28.21 -1.26,-29.49 -0.9,-30.85 -0.54,-32.28 -0.18,-33.76 0.18,-35.28 0.54,-36.81 0.9,-38.34 1.26,-39.83 1.61,-41.27 1.97,-42.63 2.33,-43.88 2.69,-45 3.05,-45.97 3.41,-46.78 3.77,-47.4 4.13,-47.83 4.48,-48.05 4.84,-48.07 5.2,-47.88 5.56,-47.49 5.92,-46.89 6.28,-46.1 6.64,-45.13 7,-43.98 7.35,-42.67 7.71,-41.21 8.07,-39.63 8.43,-37.93 8.79,-36.14 9.15,-34.28 9.51,-32.35 9.87,-30.39 10.22,-28.4 10.58,-26.42 10.94,-24.45 11.3,-22.52 11.66,-20.65 12.02,-18.84 12.38,-17.11 12.74,-15.47 13.09,-13.94 13.45,-12.51 13.81,-11.19 14.17,-9.99 14.53,-8.89 14.89,-7.89 15.25,-6.99 15.61,-6.17 15.96,-5.43 16.32,-4.74 16.68,-4.11 17.04,-3.51 17.4,-2.93 17.76,-2.36 18.12,-1.79 18.48,-1.21 18.83,-0.61 19.19,0 19.55,0.64 19.91,1.3 20.27,1.99 20.63,2.68 20.99,3.39 21.35,4.1 21.7,4.81 22.06,5.51 22.42,6.18 22.78,6.83 23.14,7.44 23.5,8.01 23.86,8.53 24.22,9 24.58,9.43 24.93,9.8 25.29,10.13 25.65,10.41 26.01,10.64 26.37,10.84 26.73,11.01 27.09,11.15 27.45,11.27 27.8,11.38 28.16,11.48 28.52,11.57 28.88,11.67 29.24,11.78 29.6,11.9 29.96,12.03 30.32,12.18 30.67,12.34 31.03,12.51 31.39,12.7 31.75,12.91 32.11,13.12 32.47,13.34 32.83,13.57 33.19,13.8 33.54,14.02 33.9,14.25 34.26,14.47 34.62,14.68 34.98,14.87 35.34,15.06 35.7,15.23 36.06,15.39 36.41,15.53 36.77,15.66 37.13,15.78 37.49,15.88 37.85,15.96 38.21,16.04 38.57,16.1 38.93,16.15 39.28,16.2 39.64,16.24 40,16.27 40.36,16.29 40.72,16.31 41.08,16.32 41.44,16.34 41.8,16.35 42.15,16.35 42.51,16.36 42.87,16.36 43.23,16.37 43.59,16.37 43.95,16.37 44.31,16.37 44.67,16.37 45.02,16.37 45.38,16.37 45.74,16.37 " class="primitive"/>
          </g>
          <g transform="translate(64.26,60.27)" id="img-1af254d1-35" stroke-opacity="1" class="color_1" stroke="#00BFFF" stroke-dasharray="none">
            <path fill="none" d="M-40.61,18.44 L-40.29,18.44 -39.97,18.44 -39.65,18.44 -39.33,18.44 -39.02,18.44 -38.7,18.44 -38.38,18.44 -38.06,18.43 -37.74,18.43 -37.42,18.43 -37.1,18.42 -36.79,18.42 -36.47,18.41 -36.15,18.4 -35.83,18.39 -35.51,18.37 -35.19,18.35 -34.87,18.33 -34.56,18.3 -34.24,18.27 -33.92,18.23 -33.6,18.19 -33.28,18.14 -32.96,18.09 -32.65,18.03 -32.33,17.96 -32.01,17.88 -31.69,17.8 -31.37,17.71 -31.05,17.62 -30.73,17.53 -30.42,17.43 -30.1,17.34 -29.78,17.24 -29.46,17.15 -29.14,17.06 -28.82,16.97 -28.5,16.9 -28.19,16.83 -27.87,16.78 -27.55,16.74 -27.23,16.72 -26.91,16.7 -26.59,16.71 -26.28,16.72 -25.96,16.75 -25.64,16.8 -25.32,16.86 -25,16.92 -24.68,17 -24.36,17.08 -24.05,17.17 -23.73,17.25 -23.41,17.34 -23.09,17.43 -22.77,17.51 -22.45,17.59 -22.14,17.66 -21.82,17.72 -21.5,17.77 -21.18,17.81 -20.86,17.84 -20.54,17.85 -20.22,17.85 -19.91,17.83 -19.59,17.8 -19.27,17.76 -18.95,17.7 -18.63,17.62 -18.31,17.53 -17.99,17.42 -17.68,17.3 -17.36,17.17 -17.04,17.02 -16.72,16.87 -16.4,16.7 -16.08,16.52 -15.77,16.33 -15.45,16.13 -15.13,15.92 -14.81,15.7 -14.49,15.48 -14.17,15.25 -13.85,15.01 -13.54,14.76 -13.22,14.51 -12.9,14.24 -12.58,13.96 -12.26,13.68 -11.94,13.37 -11.62,13.05 -11.31,12.7 -10.99,12.34 -10.67,11.94 -10.35,11.51 -10.03,11.04 -9.71,10.52 -9.4,9.96 -9.08,9.35 -8.76,8.68 -8.44,7.95 -8.12,7.16 -7.8,6.3 -7.48,5.38 -7.17,4.39 -6.85,3.33 -6.53,2.21 -6.21,1.03 -5.89,-0.21 -5.57,-1.49 -5.26,-2.82 -4.94,-4.18 -4.62,-5.56 -4.3,-6.97 -3.98,-8.38 -3.66,-9.79 -3.34,-11.19 -3.03,-12.58 -2.71,-13.94 -2.39,-15.27 -2.07,-16.58 -1.75,-17.84 -1.43,-19.06 -1.11,-20.24 -0.8,-21.37 -0.48,-22.46 -0.16,-23.49 0.16,-24.47 0.48,-25.41 0.8,-26.28 1.11,-27.11 1.43,-27.87 1.75,-28.58 2.07,-29.22 2.39,-29.8 2.71,-30.32 3.03,-30.78 3.34,-31.17 3.66,-31.5 3.98,-31.77 4.3,-31.98 4.62,-32.13 4.94,-32.24 5.26,-32.31 5.57,-32.34 5.89,-32.34 6.21,-32.31 6.53,-32.28 6.85,-32.23 7.17,-32.19 7.48,-32.16 7.8,-32.14 8.12,-32.14 8.44,-32.17 8.76,-32.23 9.08,-32.33 9.4,-32.45 9.71,-32.62 10.03,-32.82 10.35,-33.05 10.67,-33.3 10.99,-33.58 11.31,-33.88 11.62,-34.19 11.94,-34.5 12.26,-34.8 12.58,-35.09 12.9,-35.35 13.22,-35.58 13.54,-35.76 13.85,-35.9 14.17,-35.97 14.49,-35.98 14.81,-35.93 15.13,-35.79 15.45,-35.58 15.77,-35.3 16.08,-34.93 16.4,-34.48 16.72,-33.95 17.04,-33.33 17.36,-32.64 17.68,-31.87 17.99,-31.02 18.31,-30.1 18.63,-29.11 18.95,-28.04 19.27,-26.91 19.59,-25.71 19.91,-24.45 20.22,-23.13 20.54,-21.77 20.86,-20.35 21.18,-18.9 21.5,-17.42 21.82,-15.9 22.14,-14.38 22.45,-12.84 22.77,-11.29 23.09,-9.76 23.41,-8.23 23.73,-6.72 24.05,-5.24 24.36,-3.78 24.68,-2.36 25,-0.98 25.32,0.37 25.64,1.66 25.96,2.92 26.28,4.12 26.59,5.27 26.91,6.38 27.23,7.43 27.55,8.43 27.87,9.37 28.19,10.26 28.5,11.1 28.82,11.88 29.14,12.61 29.46,13.29 29.78,13.91 30.1,14.48 30.42,14.99 30.73,15.46 31.05,15.88 31.37,16.26 31.69,16.59 32.01,16.88 32.33,17.13 32.65,17.36 32.96,17.55 33.28,17.71 33.6,17.84 33.92,17.96 34.24,18.06 34.56,18.14 34.87,18.2 35.19,18.25 35.51,18.29 35.83,18.33 36.15,18.36 36.47,18.38 36.79,18.39 37.1,18.41 37.42,18.42 37.74,18.42 38.06,18.43 38.38,18.43 38.7,18.44 39.02,18.44 39.33,18.44 39.65,18.44 39.97,18.44 40.29,18.44 40.61,18.44 " class="primitive"/>
          </g>
          <g transform="translate(76.12,56.88)" id="img-1af254d1-36" stroke-opacity="1" class="color_3" stroke="#FF6DAE" stroke-dasharray="none">
            <path fill="none" d="M-34.3,21.83 L-34.03,21.83 -33.76,21.83 -33.49,21.83 -33.22,21.83 -32.95,21.83 -32.68,21.83 -32.41,21.82 -32.15,21.82 -31.88,21.81 -31.61,21.81 -31.34,21.8 -31.07,21.79 -30.8,21.77 -30.53,21.75 -30.26,21.73 -29.99,21.7 -29.72,21.67 -29.46,21.62 -29.19,21.57 -28.92,21.51 -28.65,21.44 -28.38,21.35 -28.11,21.24 -27.84,21.12 -27.57,20.98 -27.3,20.81 -27.03,20.63 -26.77,20.41 -26.5,20.16 -26.23,19.89 -25.96,19.58 -25.69,19.23 -25.42,18.85 -25.15,18.43 -24.88,17.97 -24.61,17.48 -24.34,16.94 -24.08,16.37 -23.81,15.77 -23.54,15.13 -23.27,14.46 -23,13.75 -22.73,13.03 -22.46,12.28 -22.19,11.51 -21.92,10.73 -21.65,9.94 -21.39,9.15 -21.12,8.35 -20.85,7.56 -20.58,6.77 -20.31,5.99 -20.04,5.23 -19.77,4.48 -19.5,3.75 -19.23,3.04 -18.96,2.35 -18.7,1.68 -18.43,1.03 -18.16,0.4 -17.89,-0.21 -17.62,-0.81 -17.35,-1.39 -17.08,-1.96 -16.81,-2.52 -16.54,-3.07 -16.27,-3.63 -16.01,-4.18 -15.74,-4.75 -15.47,-5.32 -15.2,-5.9 -14.93,-6.51 -14.66,-7.13 -14.39,-7.78 -14.12,-8.46 -13.85,-9.17 -13.58,-9.91 -13.32,-10.69 -13.05,-11.51 -12.78,-12.36 -12.51,-13.25 -12.24,-14.18 -11.97,-15.14 -11.7,-16.14 -11.43,-17.16 -11.16,-18.2 -10.89,-19.27 -10.63,-20.35 -10.36,-21.43 -10.09,-22.52 -9.82,-23.6 -9.55,-24.67 -9.28,-25.71 -9.01,-26.73 -8.74,-27.71 -8.47,-28.64 -8.2,-29.53 -7.94,-30.36 -7.67,-31.12 -7.4,-31.82 -7.13,-32.45 -6.86,-33.01 -6.59,-33.49 -6.32,-33.89 -6.05,-34.22 -5.78,-34.47 -5.51,-34.65 -5.25,-34.76 -4.98,-34.8 -4.71,-34.79 -4.44,-34.73 -4.17,-34.61 -3.9,-34.46 -3.63,-34.28 -3.36,-34.08 -3.09,-33.86 -2.82,-33.64 -2.56,-33.41 -2.29,-33.19 -2.02,-32.99 -1.75,-32.8 -1.48,-32.64 -1.21,-32.5 -0.94,-32.39 -0.67,-32.3 -0.4,-32.24 -0.13,-32.2 0.13,-32.18 0.4,-32.18 0.67,-32.18 0.94,-32.18 1.21,-32.17 1.48,-32.15 1.75,-32.09 2.02,-32 2.29,-31.87 2.56,-31.67 2.82,-31.42 3.09,-31.09 3.36,-30.69 3.63,-30.2 3.9,-29.63 4.17,-28.97 4.44,-28.22 4.71,-27.39 4.98,-26.47 5.25,-25.48 5.51,-24.42 5.78,-23.29 6.05,-22.11 6.32,-20.89 6.59,-19.63 6.86,-18.35 7.13,-17.05 7.4,-15.76 7.67,-14.47 7.94,-13.2 8.2,-11.95 8.47,-10.74 8.74,-9.57 9.01,-8.44 9.28,-7.36 9.55,-6.32 9.82,-5.34 10.09,-4.41 10.36,-3.53 10.63,-2.69 10.89,-1.89 11.16,-1.14 11.43,-0.42 11.7,0.27 11.97,0.93 12.24,1.56 12.51,2.18 12.78,2.78 13.05,3.37 13.32,3.95 13.58,4.52 13.85,5.08 14.12,5.64 14.39,6.19 14.66,6.74 14.93,7.28 15.2,7.82 15.47,8.35 15.74,8.87 16.01,9.38 16.27,9.89 16.54,10.38 16.81,10.86 17.08,11.33 17.35,11.78 17.62,12.23 17.89,12.66 18.16,13.08 18.43,13.48 18.7,13.88 18.96,14.27 19.23,14.64 19.5,15.01 19.77,15.36 20.04,15.71 20.31,16.05 20.58,16.39 20.85,16.71 21.12,17.03 21.39,17.34 21.65,17.65 21.92,17.94 22.19,18.23 22.46,18.51 22.73,18.78 23,19.03 23.27,19.28 23.54,19.51 23.81,19.73 24.08,19.94 24.34,20.14 24.61,20.32 24.88,20.49 25.15,20.65 25.42,20.79 25.69,20.92 25.96,21.04 26.23,21.15 26.5,21.24 26.77,21.33 27.03,21.4 27.3,21.47 27.57,21.53 27.84,21.58 28.11,21.62 28.38,21.66 28.65,21.69 28.92,21.72 29.19,21.74 29.46,21.76 29.72,21.77 29.99,21.79 30.26,21.8 30.53,21.8 30.8,21.81 31.07,21.82 31.34,21.82 31.61,21.82 31.88,21.83 32.15,21.83 32.41,21.83 32.68,21.83 32.95,21.83 33.22,21.83 33.49,21.83 33.76,21.84 34.03,21.84 34.3,21.84 " class="primitive"/>
          </g>
        </g>
      </g>
    </g>
  </g>
  <g class="guide ylabels" font-size="2.82" font-family="'PT Sans Caption','Helvetica Neue','Helvetica',sans-serif" fill="#6C606B" id="img-1af254d1-37">
    <g transform="translate(17.63,78.71)" id="img-1af254d1-38">
      <g class="primitive">
        <text text-anchor="end" dy="0.35em">0.0</text>
      </g>
    </g>
    <g transform="translate(17.63,64.37)" id="img-1af254d1-39">
      <g class="primitive">
        <text text-anchor="end" dy="0.35em">0.1</text>
      </g>
    </g>
    <g transform="translate(17.63,50.03)" id="img-1af254d1-40">
      <g class="primitive">
        <text text-anchor="end" dy="0.35em">0.2</text>
      </g>
    </g>
    <g transform="translate(17.63,35.69)" id="img-1af254d1-41">
      <g class="primitive">
        <text text-anchor="end" dy="0.35em">0.3</text>
      </g>
    </g>
    <g transform="translate(17.63,21.34)" id="img-1af254d1-42">
      <g class="primitive">
        <text text-anchor="end" dy="0.35em">0.4</text>
      </g>
    </g>
    <g transform="translate(17.63,7)" id="img-1af254d1-43">
      <g class="primitive">
        <text text-anchor="end" dy="0.35em">0.5</text>
      </g>
    </g>
  </g>
  <g font-size="3.88" font-family="'PT Sans','Helvetica Neue','Helvetica',sans-serif" fill="#564A55" stroke="#000000" stroke-opacity="0.000" id="img-1af254d1-44">
    <g transform="translate(8.81,40.86)" id="img-1af254d1-45">
      <g class="primitive">
        <text text-anchor="middle" dy="0.35em" transform="rotate(-90,0, 2)">Density</text>
      </g>
    </g>
  </g>
</g>
<defs>
  <clipPath id="img-1af254d1-15">
    <path d="M18.63,5 L127.47,5 127.47,80.72 18.63,80.72 " />
  </clipPath>
</defs>
</svg>
