<?xml version="1.0" encoding="UTF-8"?>
<svg xmlns="http://www.w3.org/2000/svg"
     xmlns:xlink="http://www.w3.org/1999/xlink"
     xmlns:gadfly="http://www.gadflyjl.org/ns"
     version="1.2"
     width="141.42mm" height="100mm" viewBox="0 0 141.42 100"
     stroke="none"
     fill="#000000"
     stroke-width="0.3"
     font-size="3.88"
>
<defs>
  <marker id="arrow" markerWidth="15" markerHeight="7" refX="5" refY="3.5" orient="auto" markerUnits="strokeWidth">
    <path d="M0,0 L15,3.5 L0,7 z" stroke="context-stroke" fill="context-stroke"/>
  </marker>
</defs>
<g class="plotroot xscalable yscalable" id="img-7cd1a0e5-1">
  <g font-size="3.88" font-family="'PT Sans','Helvetica Neue','Helvetica',sans-serif" fill="#564A55" stroke="#000000" stroke-opacity="0.000" id="img-7cd1a0e5-2">
    <g transform="translate(74.52,88.39)">
      <g class="primitive">
        <text text-anchor="middle" dy="0.6em">Parameter</text>
      </g>
    </g>
  </g>
  <g clip-path="url(#img-7cd1a0e5-3)">
    <g id="img-7cd1a0e5-4">
      <g class="plotpanel" id="img-7cd1a0e5-5">
        <metadata>
          <boundingbox value="12.611666666666665mm 5.0mm 123.80968957064285mm 80.38833333333332mm"/>
          <unitbox value="0.0 0.0 1.0 1.0"/>
        </metadata>
        <g font-size="3.88" font-family="'PT Sans','Helvetica Neue','Helvetica',sans-serif" fill="#564A55" stroke="#000000" stroke-opacity="0.000" id="img-7cd1a0e5-6">
          <g transform="translate(108.5,78.78)" id="img-7cd1a0e5-7">
            <g class="primitive">
              <text text-anchor="middle" dy="0.6em">B</text>
            </g>
          </g>
        </g>
        <g font-size="3.88" font-family="'PT Sans','Helvetica Neue','Helvetica',sans-serif" fill="#564A55" stroke="#000000" stroke-opacity="0.000" id="img-7cd1a0e5-8">
          <g transform="translate(51.67,78.78)" id="img-7cd1a0e5-9">
            <g class="primitive">
              <text text-anchor="middle" dy="0.6em">A</text>
            </g>
          </g>
        </g>
        <g class="guide xlabels" font-size="2.82" font-family="'PT Sans Caption','Helvetica Neue','Helvetica',sans-serif" fill="#6C606B" id="img-7cd1a0e5-10">
          <g transform="translate(84.59,72.1)" id="img-7cd1a0e5-11">
            <g class="primitive">
              <text text-anchor="middle" dy="0.6em">-5</text>
            </g>
          </g>
          <g transform="translate(108.5,72.1)" id="img-7cd1a0e5-12">
            <g class="primitive">
              <text text-anchor="middle" dy="0.6em">0</text>
            </g>
          </g>
          <g transform="translate(132.42,72.1)" id="img-7cd1a0e5-13">
            <g class="primitive">
              <text text-anchor="middle" dy="0.6em">5</text>
            </g>
          </g>
        </g>
        <g class="guide xlabels" font-size="2.82" font-family="'PT Sans Caption','Helvetica Neue','Helvetica',sans-serif" fill="#6C606B" id="img-7cd1a0e5-14">
          <g transform="translate(26.75,72.1)" id="img-7cd1a0e5-15">
            <g class="primitive">
              <text text-anchor="middle" dy="0.6em">-5</text>
            </g>
          </g>
          <g transform="translate(51.67,72.1)" id="img-7cd1a0e5-16">
            <g class="primitive">
              <text text-anchor="middle" dy="0.6em">0</text>
            </g>
          </g>
          <g transform="translate(76.59,72.1)" id="img-7cd1a0e5-17">
            <g class="primitive">
              <text text-anchor="middle" dy="0.6em">5</text>
            </g>
          </g>
        </g>
        <g clip-path="url(#img-7cd1a0e5-18)">
          <g id="img-7cd1a0e5-19">
            <g pointer-events="visible" stroke-width="0.3" fill="#000000" fill-opacity="0.000" stroke="#000000" stroke-opacity="0.000" class="guide background" id="img-7cd1a0e5-20">
              <g transform="translate(108.5,55.58)" id="img-7cd1a0e5-21">
                <path d="M-25.92,-15.53 L25.92,-15.53 25.92,15.53 -25.92,15.53  z" class="primitive"/>
              </g>
            </g>
            <g class="guide ygridlines xfixed" stroke-dasharray="0.5,0.5" stroke-width="0.2" stroke="#D0D0E0" id="img-7cd1a0e5-22">
              <g transform="translate(108.5,69.1)" id="img-7cd1a0e5-23">
                <path fill="none" d="M-25.92,0 L25.92,0 " class="primitive"/>
              </g>
              <g transform="translate(108.5,63.69)" id="img-7cd1a0e5-24">
                <path fill="none" d="M-25.92,0 L25.92,0 " class="primitive"/>
              </g>
              <g transform="translate(108.5,58.28)" id="img-7cd1a0e5-25">
                <path fill="none" d="M-25.92,0 L25.92,0 " class="primitive"/>
              </g>
              <g transform="translate(108.5,52.87)" id="img-7cd1a0e5-26">
                <path fill="none" d="M-25.92,0 L25.92,0 " class="primitive"/>
              </g>
              <g transform="translate(108.5,47.46)" id="img-7cd1a0e5-27">
                <path fill="none" d="M-25.92,0 L25.92,0 " class="primitive"/>
              </g>
              <g transform="translate(108.5,42.05)" id="img-7cd1a0e5-28">
                <path fill="none" d="M-25.92,0 L25.92,0 " class="primitive"/>
              </g>
            </g>
            <g class="guide xgridlines yfixed" stroke-dasharray="0.5,0.5" stroke-width="0.2" stroke="#D0D0E0" id="img-7cd1a0e5-29">
              <g transform="translate(84.59,55.58)" id="img-7cd1a0e5-30">
                <path fill="none" d="M0,-15.53 L0,15.53 " class="primitive"/>
              </g>
              <g transform="translate(108.5,55.58)" id="img-7cd1a0e5-31">
                <path fill="none" d="M0,-15.53 L0,15.53 " class="primitive"/>
              </g>
              <g transform="translate(132.42,55.58)" id="img-7cd1a0e5-32">
                <path fill="none" d="M0,-15.53 L0,15.53 " class="primitive"/>
              </g>
            </g>
            <g class="plotpanel" id="img-7cd1a0e5-33">
              <metadata>
                <boundingbox value="82.5852614519881mm 40.05166666666666mm 51.83609478532142mm 31.051666666666662mm"/>
                <unitbox value="-5.418094330019119 0.5369662990573594 10.836188660038237 -0.5739325981147188"/>
              </metadata>
              <g stroke-width="0.3" fill="#000000" fill-opacity="0.000" class="geometry" id="img-7cd1a0e5-34">
                <g class="color_LCHab{Float32}(70.0,_60.0,_240.0)" stroke-dasharray="none" stroke-opacity="1" stroke="#00BFFF" id="img-7cd1a0e5-35">
                  <g transform="translate(107.17,60.57)" id="img-7cd1a0e5-36">
                    <path fill="none" d="M-15.11,8.53 L-14.99,8.53 -14.87,8.53 -14.75,8.53 -14.63,8.53 -14.51,8.53 -14.39,8.53 -14.28,8.53 -14.16,8.53 -14.04,8.53 -13.92,8.53 -13.8,8.53 -13.68,8.52 -13.57,8.52 -13.45,8.52 -13.33,8.51 -13.21,8.51 -13.09,8.5 -12.97,8.5 -12.85,8.49 -12.74,8.48 -12.62,8.46 -12.5,8.45 -12.38,8.43 -12.26,8.41 -12.14,8.39 -12.03,8.36 -11.91,8.33 -11.79,8.29 -11.67,8.24 -11.55,8.19 -11.43,8.14 -11.31,8.08 -11.2,8.01 -11.08,7.93 -10.96,7.84 -10.84,7.75 -10.72,7.65 -10.6,7.54 -10.49,7.41 -10.37,7.29 -10.25,7.15 -10.13,7 -10.01,6.85 -9.89,6.68 -9.77,6.51 -9.66,6.34 -9.54,6.15 -9.42,5.97 -9.3,5.78 -9.18,5.59 -9.06,5.39 -8.94,5.2 -8.83,5.01 -8.71,4.82 -8.59,4.64 -8.47,4.46 -8.35,4.29 -8.23,4.13 -8.12,3.98 -8,3.84 -7.88,3.7 -7.76,3.58 -7.64,3.47 -7.52,3.37 -7.4,3.28 -7.29,3.2 -7.17,3.13 -7.05,3.07 -6.93,3.02 -6.81,2.97 -6.69,2.93 -6.58,2.88 -6.46,2.84 -6.34,2.8 -6.22,2.76 -6.1,2.71 -5.98,2.66 -5.86,2.6 -5.75,2.53 -5.63,2.45 -5.51,2.36 -5.39,2.26 -5.27,2.14 -5.15,2.01 -5.04,1.86 -4.92,1.7 -4.8,1.52 -4.68,1.32 -4.56,1.1 -4.44,0.86 -4.32,0.61 -4.21,0.33 -4.09,0.03 -3.97,-0.28 -3.85,-0.62 -3.73,-0.98 -3.61,-1.36 -3.5,-1.75 -3.38,-2.17 -3.26,-2.61 -3.14,-3.06 -3.02,-3.53 -2.9,-4.02 -2.78,-4.52 -2.67,-5.04 -2.55,-5.57 -2.43,-6.11 -2.31,-6.66 -2.19,-7.21 -2.07,-7.77 -1.95,-8.34 -1.84,-8.9 -1.72,-9.46 -1.6,-10.02 -1.48,-10.57 -1.36,-11.11 -1.24,-11.64 -1.13,-12.16 -1.01,-12.65 -0.89,-13.13 -0.77,-13.58 -0.65,-14.01 -0.53,-14.41 -0.41,-14.77 -0.3,-15.1 -0.18,-15.39 -0.06,-15.65 0.06,-15.86 0.18,-16.03 0.3,-16.16 0.41,-16.24 0.53,-16.28 0.65,-16.27 0.77,-16.22 0.89,-16.14 1.01,-16.01 1.13,-15.84 1.24,-15.65 1.36,-15.42 1.48,-15.17 1.6,-14.89 1.72,-14.6 1.84,-14.3 1.95,-13.98 2.07,-13.67 2.19,-13.35 2.31,-13.03 2.43,-12.72 2.55,-12.42 2.67,-12.14 2.78,-11.86 2.9,-11.6 3.02,-11.36 3.14,-11.13 3.26,-10.92 3.38,-10.72 3.5,-10.53 3.61,-10.35 3.73,-10.19 3.85,-10.02 3.97,-9.87 4.09,-9.71 4.21,-9.55 4.32,-9.38 4.44,-9.21 4.56,-9.03 4.68,-8.84 4.8,-8.64 4.92,-8.43 5.04,-8.2 5.15,-7.96 5.27,-7.71 5.39,-7.45 5.51,-7.17 5.63,-6.89 5.75,-6.6 5.86,-6.3 5.98,-5.99 6.1,-5.68 6.22,-5.37 6.34,-5.06 6.46,-4.74 6.58,-4.43 6.69,-4.11 6.81,-3.79 6.93,-3.47 7.05,-3.15 7.17,-2.83 7.29,-2.51 7.4,-2.18 7.52,-1.85 7.64,-1.51 7.76,-1.16 7.88,-0.81 8,-0.45 8.12,-0.09 8.23,0.28 8.35,0.66 8.47,1.04 8.59,1.43 8.71,1.82 8.83,2.21 8.94,2.6 9.06,2.98 9.18,3.37 9.3,3.74 9.42,4.11 9.54,4.46 9.66,4.81 9.77,5.14 9.89,5.45 10.01,5.75 10.13,6.03 10.25,6.29 10.37,6.53 10.49,6.76 10.6,6.97 10.72,7.16 10.84,7.33 10.96,7.49 11.08,7.63 11.2,7.76 11.31,7.87 11.43,7.96 11.55,8.05 11.67,8.13 11.79,8.19 11.91,8.25 12.03,8.3 12.14,8.34 12.26,8.37 12.38,8.4 12.5,8.43 12.62,8.45 12.74,8.46 12.85,8.48 12.97,8.49 13.09,8.5 13.21,8.5 13.33,8.51 13.45,8.52 13.57,8.52 13.68,8.52 13.8,8.53 13.92,8.53 14.04,8.53 14.16,8.53 14.28,8.53 14.39,8.53 14.51,8.53 14.63,8.53 14.75,8.53 14.87,8.53 14.99,8.53 15.11,8.53 " class="primitive"/>
                  </g>
                </g>
              </g>
            </g>
          </g>
        </g>
        <g clip-path="url(#img-7cd1a0e5-37)">
          <g id="img-7cd1a0e5-38">
            <g pointer-events="visible" stroke-width="0.3" fill="#000000" fill-opacity="0.000" stroke="#000000" stroke-opacity="0.000" class="guide background" id="img-7cd1a0e5-39">
              <g transform="translate(51.67,55.58)" id="img-7cd1a0e5-40">
                <path d="M-26.92,-15.53 L26.92,-15.53 26.92,15.53 -26.92,15.53  z" class="primitive"/>
              </g>
            </g>
            <g class="guide ygridlines xfixed" stroke-dasharray="0.5,0.5" stroke-width="0.2" stroke="#D0D0E0" id="img-7cd1a0e5-41">
              <g transform="translate(51.67,69.1)" id="img-7cd1a0e5-42">
                <path fill="none" d="M-26.92,0 L26.92,0 " class="primitive"/>
              </g>
              <g transform="translate(51.67,63.69)" id="img-7cd1a0e5-43">
                <path fill="none" d="M-26.92,0 L26.92,0 " class="primitive"/>
              </g>
              <g transform="translate(51.67,58.28)" id="img-7cd1a0e5-44">
                <path fill="none" d="M-26.92,0 L26.92,0 " class="primitive"/>
              </g>
              <g transform="translate(51.67,52.87)" id="img-7cd1a0e5-45">
                <path fill="none" d="M-26.92,0 L26.92,0 " class="primitive"/>
              </g>
              <g transform="translate(51.67,47.46)" id="img-7cd1a0e5-46">
                <path fill="none" d="M-26.92,0 L26.92,0 " class="primitive"/>
              </g>
              <g transform="translate(51.67,42.05)" id="img-7cd1a0e5-47">
                <path fill="none" d="M-26.92,0 L26.92,0 " class="primitive"/>
              </g>
            </g>
            <g class="guide xgridlines yfixed" stroke-dasharray="0.5,0.5" stroke-width="0.2" stroke="#D0D0E0" id="img-7cd1a0e5-48">
              <g transform="translate(26.75,55.58)" id="img-7cd1a0e5-49">
                <path fill="none" d="M0,-15.53 L0,15.53 " class="primitive"/>
              </g>
              <g transform="translate(51.67,55.58)" id="img-7cd1a0e5-50">
                <path fill="none" d="M0,-15.53 L0,15.53 " class="primitive"/>
              </g>
              <g transform="translate(76.59,55.58)" id="img-7cd1a0e5-51">
                <path fill="none" d="M0,-15.53 L0,15.53 " class="primitive"/>
              </g>
            </g>
            <g class="plotpanel" id="img-7cd1a0e5-52">
              <metadata>
                <boundingbox value="24.749166666666667mm 40.05166666666666mm 53.83609478532142mm 31.051666666666662mm"/>
                <unitbox value="-5.401315554241436 0.5369662990573594 10.802631108482872 -0.5739325981147188"/>
              </metadata>
              <g stroke-width="0.3" fill="#000000" fill-opacity="0.000" class="geometry" id="img-7cd1a0e5-53">
                <g class="color_LCHab{Float32}(70.0,_60.0,_240.0)" stroke-dasharray="none" stroke-opacity="1" stroke="#00BFFF" id="img-7cd1a0e5-54">
                  <g transform="translate(52.95,62.67)" id="img-7cd1a0e5-55">
                    <path fill="none" d="M-20.87,6.44 L-20.7,6.43 -20.54,6.43 -20.38,6.43 -20.21,6.43 -20.05,6.43 -19.89,6.43 -19.72,6.43 -19.56,6.43 -19.39,6.43 -19.23,6.43 -19.07,6.42 -18.9,6.42 -18.74,6.41 -18.58,6.41 -18.41,6.4 -18.25,6.39 -18.08,6.38 -17.92,6.36 -17.76,6.34 -17.59,6.32 -17.43,6.3 -17.27,6.27 -17.1,6.24 -16.94,6.2 -16.78,6.16 -16.61,6.11 -16.45,6.06 -16.28,6.01 -16.12,5.95 -15.96,5.9 -15.79,5.84 -15.63,5.77 -15.47,5.71 -15.3,5.65 -15.14,5.58 -14.98,5.52 -14.81,5.46 -14.65,5.4 -14.48,5.34 -14.32,5.29 -14.16,5.23 -13.99,5.18 -13.83,5.13 -13.67,5.07 -13.5,5.02 -13.34,4.97 -13.17,4.91 -13.01,4.86 -12.85,4.8 -12.68,4.74 -12.52,4.67 -12.36,4.6 -12.19,4.53 -12.03,4.45 -11.87,4.37 -11.7,4.29 -11.54,4.2 -11.37,4.11 -11.21,4 -11.05,3.9 -10.88,3.78 -10.72,3.65 -10.56,3.51 -10.39,3.36 -10.23,3.2 -10.07,3.01 -9.9,2.81 -9.74,2.58 -9.57,2.33 -9.41,2.05 -9.25,1.75 -9.08,1.42 -8.92,1.06 -8.76,0.68 -8.59,0.27 -8.43,-0.16 -8.26,-0.61 -8.1,-1.08 -7.94,-1.56 -7.77,-2.06 -7.61,-2.55 -7.45,-3.05 -7.28,-3.54 -7.12,-4.03 -6.96,-4.5 -6.79,-4.95 -6.63,-5.39 -6.46,-5.81 -6.3,-6.2 -6.14,-6.58 -5.97,-6.95 -5.81,-7.29 -5.65,-7.63 -5.48,-7.97 -5.32,-8.31 -5.16,-8.65 -4.99,-9 -4.83,-9.37 -4.66,-9.76 -4.5,-10.17 -4.34,-10.61 -4.17,-11.08 -4.01,-11.57 -3.85,-12.08 -3.68,-12.62 -3.52,-13.17 -3.36,-13.73 -3.19,-14.29 -3.03,-14.85 -2.86,-15.39 -2.7,-15.91 -2.54,-16.39 -2.37,-16.84 -2.21,-17.25 -2.05,-17.6 -1.88,-17.9 -1.72,-18.13 -1.55,-18.31 -1.39,-18.42 -1.23,-18.47 -1.06,-18.45 -0.9,-18.38 -0.74,-18.25 -0.57,-18.07 -0.41,-17.83 -0.25,-17.55 -0.08,-17.23 0.08,-16.87 0.25,-16.47 0.41,-16.04 0.57,-15.57 0.74,-15.08 0.9,-14.55 1.06,-14 1.23,-13.42 1.39,-12.81 1.55,-12.18 1.72,-11.54 1.88,-10.87 2.05,-10.2 2.21,-9.52 2.37,-8.84 2.54,-8.16 2.7,-7.49 2.86,-6.84 3.03,-6.22 3.19,-5.62 3.36,-5.05 3.52,-4.52 3.68,-4.02 3.85,-3.56 4.01,-3.14 4.17,-2.76 4.34,-2.42 4.5,-2.11 4.66,-1.83 4.83,-1.58 4.99,-1.35 5.16,-1.15 5.32,-0.95 5.48,-0.77 5.65,-0.6 5.81,-0.43 5.97,-0.27 6.14,-0.1 6.3,0.08 6.46,0.26 6.63,0.45 6.79,0.65 6.96,0.86 7.12,1.08 7.28,1.3 7.45,1.54 7.61,1.78 7.77,2.03 7.94,2.28 8.1,2.54 8.26,2.79 8.43,3.03 8.59,3.27 8.76,3.5 8.92,3.72 9.08,3.93 9.25,4.12 9.41,4.3 9.57,4.47 9.74,4.62 9.9,4.76 10.07,4.89 10.23,5.01 10.39,5.11 10.56,5.21 10.72,5.29 10.88,5.37 11.05,5.44 11.21,5.51 11.37,5.57 11.54,5.62 11.7,5.66 11.87,5.7 12.03,5.73 12.19,5.76 12.36,5.78 12.52,5.79 12.68,5.8 12.85,5.8 13.01,5.8 13.17,5.79 13.34,5.78 13.5,5.77 13.67,5.75 13.83,5.74 13.99,5.73 14.16,5.72 14.32,5.72 14.48,5.72 14.65,5.73 14.81,5.74 14.98,5.76 15.14,5.78 15.3,5.81 15.47,5.85 15.63,5.89 15.79,5.93 15.96,5.97 16.12,6.01 16.28,6.06 16.45,6.1 16.61,6.14 16.78,6.18 16.94,6.21 17.1,6.25 17.27,6.28 17.43,6.3 17.59,6.33 17.76,6.35 17.92,6.36 18.08,6.38 18.25,6.39 18.41,6.4 18.58,6.41 18.74,6.41 18.9,6.42 19.07,6.42 19.23,6.43 19.39,6.43 19.56,6.43 19.72,6.43 19.89,6.43 20.05,6.43 20.21,6.43 20.38,6.43 20.54,6.43 20.7,6.43 20.87,6.44 " class="primitive"/>
                  </g>
                </g>
              </g>
            </g>
          </g>
        </g>
        <g class="guide ylabels" font-size="2.82" font-family="'PT Sans Caption','Helvetica Neue','Helvetica',sans-serif" fill="#6C606B" id="img-7cd1a0e5-56">
          <g transform="translate(23.75,69.1)" id="img-7cd1a0e5-57">
            <g class="primitive">
              <text text-anchor="end" dy="0.35em">0.0</text>
            </g>
          </g>
          <g transform="translate(23.75,63.69)" id="img-7cd1a0e5-58">
            <g class="primitive">
              <text text-anchor="end" dy="0.35em">0.1</text>
            </g>
          </g>
          <g transform="translate(23.75,58.28)" id="img-7cd1a0e5-59">
            <g class="primitive">
              <text text-anchor="end" dy="0.35em">0.2</text>
            </g>
          </g>
          <g transform="translate(23.75,52.87)" id="img-7cd1a0e5-60">
            <g class="primitive">
              <text text-anchor="end" dy="0.35em">0.3</text>
            </g>
          </g>
          <g transform="translate(23.75,47.46)" id="img-7cd1a0e5-61">
            <g class="primitive">
              <text text-anchor="end" dy="0.35em">0.4</text>
            </g>
          </g>
          <g transform="translate(23.75,42.05)" id="img-7cd1a0e5-62">
            <g class="primitive">
              <text text-anchor="end" dy="0.35em">0.5</text>
            </g>
          </g>
        </g>
        <g font-size="3.88" font-family="'PT Sans','Helvetica Neue','Helvetica',sans-serif" fill="#564A55" stroke="#000000" stroke-opacity="0.000" id="img-7cd1a0e5-63">
          <g transform="translate(16.73,55.58)" id="img-7cd1a0e5-64">
            <g class="primitive">
              <text text-anchor="end" dy="0.35em">2</text>
            </g>
          </g>
        </g>
        <g clip-path="url(#img-7cd1a0e5-65)">
          <g id="img-7cd1a0e5-66">
            <g pointer-events="visible" stroke-width="0.3" fill="#000000" fill-opacity="0.000" stroke="#000000" stroke-opacity="0.000" class="guide background" id="img-7cd1a0e5-67">
              <g transform="translate(108.5,21.53)" id="img-7cd1a0e5-68">
                <path d="M-25.92,-14.53 L25.92,-14.53 25.92,14.53 -25.92,14.53  z" class="primitive"/>
              </g>
            </g>
            <g class="guide ygridlines xfixed" stroke-dasharray="0.5,0.5" stroke-width="0.2" stroke="#D0D0E0" id="img-7cd1a0e5-69">
              <g transform="translate(108.5,34.05)" id="img-7cd1a0e5-70">
                <path fill="none" d="M-25.92,0 L25.92,0 " class="primitive"/>
              </g>
              <g transform="translate(108.5,29.04)" id="img-7cd1a0e5-71">
                <path fill="none" d="M-25.92,0 L25.92,0 " class="primitive"/>
              </g>
              <g transform="translate(108.5,24.03)" id="img-7cd1a0e5-72">
                <path fill="none" d="M-25.92,0 L25.92,0 " class="primitive"/>
              </g>
              <g transform="translate(108.5,19.02)" id="img-7cd1a0e5-73">
                <path fill="none" d="M-25.92,0 L25.92,0 " class="primitive"/>
              </g>
              <g transform="translate(108.5,14.01)" id="img-7cd1a0e5-74">
                <path fill="none" d="M-25.92,0 L25.92,0 " class="primitive"/>
              </g>
              <g transform="translate(108.5,9)" id="img-7cd1a0e5-75">
                <path fill="none" d="M-25.92,0 L25.92,0 " class="primitive"/>
              </g>
            </g>
            <g class="guide xgridlines yfixed" stroke-dasharray="0.5,0.5" stroke-width="0.2" stroke="#D0D0E0" id="img-7cd1a0e5-76">
              <g transform="translate(84.59,21.53)" id="img-7cd1a0e5-77">
                <path fill="none" d="M0,-14.53 L0,14.53 " class="primitive"/>
              </g>
              <g transform="translate(108.5,21.53)" id="img-7cd1a0e5-78">
                <path fill="none" d="M0,-14.53 L0,14.53 " class="primitive"/>
              </g>
              <g transform="translate(132.42,21.53)" id="img-7cd1a0e5-79">
                <path fill="none" d="M0,-14.53 L0,14.53 " class="primitive"/>
              </g>
            </g>
            <g class="plotpanel" id="img-7cd1a0e5-80">
              <metadata>
                <boundingbox value="82.5852614519881mm 7.0mm 51.83609478532142mm 29.051666666666662mm"/>
                <unitbox value="-5.418094330019119 0.5399175038254275 10.836188660038237 -0.5798350076508549"/>
              </metadata>
              <g stroke-width="0.3" fill="#000000" fill-opacity="0.000" class="geometry" id="img-7cd1a0e5-81">
                <g class="color_LCHab{Float32}(70.0,_60.0,_240.0)" stroke-dasharray="none" stroke-opacity="1" stroke="#00BFFF" id="img-7cd1a0e5-82">
                  <g transform="translate(110.57,27.62)" id="img-7cd1a0e5-83">
                    <path fill="none" d="M-18.57,6.43 L-18.42,6.43 -18.28,6.43 -18.13,6.43 -17.99,6.43 -17.84,6.43 -17.7,6.43 -17.55,6.43 -17.41,6.42 -17.26,6.42 -17.11,6.42 -16.97,6.42 -16.82,6.42 -16.68,6.42 -16.53,6.41 -16.39,6.41 -16.24,6.4 -16.09,6.39 -15.95,6.38 -15.8,6.37 -15.66,6.36 -15.51,6.34 -15.37,6.32 -15.22,6.3 -15.07,6.27 -14.93,6.23 -14.78,6.19 -14.64,6.15 -14.49,6.09 -14.35,6.03 -14.2,5.96 -14.06,5.88 -13.91,5.79 -13.76,5.68 -13.62,5.57 -13.47,5.44 -13.33,5.3 -13.18,5.14 -13.04,4.97 -12.89,4.79 -12.74,4.59 -12.6,4.38 -12.45,4.15 -12.31,3.9 -12.16,3.65 -12.02,3.38 -11.87,3.09 -11.72,2.8 -11.58,2.5 -11.43,2.19 -11.29,1.88 -11.14,1.56 -11,1.25 -10.85,0.93 -10.71,0.61 -10.56,0.31 -10.41,0 -10.27,-0.29 -10.12,-0.57 -9.98,-0.84 -9.83,-1.1 -9.69,-1.35 -9.54,-1.58 -9.39,-1.81 -9.25,-2.02 -9.1,-2.22 -8.96,-2.42 -8.81,-2.61 -8.67,-2.81 -8.52,-3 -8.37,-3.2 -8.23,-3.4 -8.08,-3.62 -7.94,-3.85 -7.79,-4.1 -7.65,-4.36 -7.5,-4.65 -7.36,-4.95 -7.21,-5.28 -7.06,-5.63 -6.92,-5.99 -6.77,-6.37 -6.63,-6.77 -6.48,-7.17 -6.34,-7.58 -6.19,-7.99 -6.04,-8.39 -5.9,-8.79 -5.75,-9.17 -5.61,-9.53 -5.46,-9.87 -5.32,-10.19 -5.17,-10.48 -5.02,-10.73 -4.88,-10.95 -4.73,-11.14 -4.59,-11.3 -4.44,-11.43 -4.3,-11.53 -4.15,-11.6 -4.01,-11.65 -3.86,-11.68 -3.71,-11.69 -3.57,-11.69 -3.42,-11.68 -3.28,-11.66 -3.13,-11.64 -2.99,-11.61 -2.84,-11.59 -2.69,-11.56 -2.55,-11.53 -2.4,-11.51 -2.26,-11.49 -2.11,-11.46 -1.97,-11.44 -1.82,-11.41 -1.67,-11.38 -1.53,-11.34 -1.38,-11.3 -1.24,-11.25 -1.09,-11.18 -0.95,-11.11 -0.8,-11.02 -0.66,-10.91 -0.51,-10.79 -0.36,-10.65 -0.22,-10.5 -0.07,-10.33 0.07,-10.14 0.22,-9.93 0.36,-9.71 0.51,-9.47 0.66,-9.22 0.8,-8.95 0.95,-8.68 1.09,-8.39 1.24,-8.1 1.38,-7.8 1.53,-7.49 1.67,-7.18 1.82,-6.87 1.97,-6.56 2.11,-6.26 2.26,-5.96 2.4,-5.66 2.55,-5.37 2.69,-5.08 2.84,-4.81 2.99,-4.54 3.13,-4.28 3.28,-4.02 3.42,-3.77 3.57,-3.53 3.71,-3.29 3.86,-3.05 4.01,-2.81 4.15,-2.57 4.3,-2.32 4.44,-2.07 4.59,-1.82 4.73,-1.55 4.88,-1.28 5.02,-1 5.17,-0.72 5.32,-0.42 5.46,-0.12 5.61,0.19 5.75,0.5 5.9,0.82 6.04,1.13 6.19,1.45 6.34,1.76 6.48,2.07 6.63,2.37 6.77,2.66 6.92,2.93 7.06,3.2 7.21,3.45 7.36,3.69 7.5,3.91 7.65,4.11 7.79,4.3 7.94,4.48 8.08,4.63 8.23,4.78 8.37,4.9 8.52,5.02 8.67,5.12 8.81,5.21 8.96,5.29 9.1,5.36 9.25,5.42 9.39,5.47 9.54,5.52 9.69,5.55 9.83,5.58 9.98,5.61 10.12,5.63 10.27,5.65 10.41,5.67 10.56,5.68 10.71,5.69 10.85,5.7 11,5.71 11.14,5.72 11.29,5.73 11.43,5.74 11.58,5.75 11.72,5.76 11.87,5.78 12.02,5.79 12.16,5.81 12.31,5.84 12.45,5.86 12.6,5.89 12.74,5.91 12.89,5.94 13.04,5.97 13.18,6 13.33,6.04 13.47,6.07 13.62,6.1 13.76,6.13 13.91,6.16 14.06,6.19 14.2,6.22 14.35,6.24 14.49,6.26 14.64,6.29 14.78,6.31 14.93,6.32 15.07,6.34 15.22,6.35 15.37,6.36 15.51,6.38 15.66,6.38 15.8,6.39 15.95,6.4 16.09,6.4 16.24,6.41 16.39,6.41 16.53,6.42 16.68,6.42 16.82,6.42 16.97,6.42 17.11,6.42 17.26,6.42 17.41,6.43 17.55,6.43 17.7,6.43 17.84,6.43 17.99,6.43 18.13,6.43 18.28,6.43 18.42,6.43 18.57,6.43 " class="primitive"/>
                  </g>
                </g>
              </g>
            </g>
          </g>
        </g>
        <g clip-path="url(#img-7cd1a0e5-84)">
          <g id="img-7cd1a0e5-85">
            <g pointer-events="visible" stroke-width="0.3" fill="#000000" fill-opacity="0.000" stroke="#000000" stroke-opacity="0.000" class="guide background" id="img-7cd1a0e5-86">
              <g transform="translate(51.67,21.53)" id="img-7cd1a0e5-87">
                <path d="M-26.92,-14.53 L26.92,-14.53 26.92,14.53 -26.92,14.53  z" class="primitive"/>
              </g>
            </g>
            <g class="guide ygridlines xfixed" stroke-dasharray="0.5,0.5" stroke-width="0.2" stroke="#D0D0E0" id="img-7cd1a0e5-88">
              <g transform="translate(51.67,34.05)" id="img-7cd1a0e5-89">
                <path fill="none" d="M-26.92,0 L26.92,0 " class="primitive"/>
              </g>
              <g transform="translate(51.67,29.04)" id="img-7cd1a0e5-90">
                <path fill="none" d="M-26.92,0 L26.92,0 " class="primitive"/>
              </g>
              <g transform="translate(51.67,24.03)" id="img-7cd1a0e5-91">
                <path fill="none" d="M-26.92,0 L26.92,0 " class="primitive"/>
              </g>
              <g transform="translate(51.67,19.02)" id="img-7cd1a0e5-92">
                <path fill="none" d="M-26.92,0 L26.92,0 " class="primitive"/>
              </g>
              <g transform="translate(51.67,14.01)" id="img-7cd1a0e5-93">
                <path fill="none" d="M-26.92,0 L26.92,0 " class="primitive"/>
              </g>
              <g transform="translate(51.67,9)" id="img-7cd1a0e5-94">
                <path fill="none" d="M-26.92,0 L26.92,0 " class="primitive"/>
              </g>
            </g>
            <g class="guide xgridlines yfixed" stroke-dasharray="0.5,0.5" stroke-width="0.2" stroke="#D0D0E0" id="img-7cd1a0e5-95">
              <g transform="translate(26.75,21.53)" id="img-7cd1a0e5-96">
                <path fill="none" d="M0,-14.53 L0,14.53 " class="primitive"/>
              </g>
              <g transform="translate(51.67,21.53)" id="img-7cd1a0e5-97">
                <path fill="none" d="M0,-14.53 L0,14.53 " class="primitive"/>
              </g>
              <g transform="translate(76.59,21.53)" id="img-7cd1a0e5-98">
                <path fill="none" d="M0,-14.53 L0,14.53 " class="primitive"/>
              </g>
            </g>
            <g class="plotpanel" id="img-7cd1a0e5-99">
              <metadata>
                <boundingbox value="24.749166666666667mm 7.0mm 53.83609478532142mm 29.051666666666662mm"/>
                <unitbox value="-5.401315554241436 0.5399175038254275 10.802631108482872 -0.5798350076508549"/>
              </metadata>
              <g stroke-width="0.3" fill="#000000" fill-opacity="0.000" class="geometry" id="img-7cd1a0e5-100">
                <g class="color_LCHab{Float32}(70.0,_60.0,_240.0)" stroke-dasharray="none" stroke-opacity="1" stroke="#00BFFF" id="img-7cd1a0e5-101">
                  <g transform="translate(51.41,27.12)" id="img-7cd1a0e5-102">
                    <path fill="none" d="M-17.94,6.93 L-17.8,6.93 -17.66,6.93 -17.52,6.93 -17.38,6.93 -17.24,6.93 -17.1,6.93 -16.95,6.93 -16.81,6.93 -16.67,6.93 -16.53,6.93 -16.39,6.93 -16.25,6.92 -16.11,6.92 -15.97,6.92 -15.83,6.91 -15.69,6.91 -15.55,6.9 -15.41,6.89 -15.27,6.88 -15.13,6.87 -14.98,6.86 -14.84,6.84 -14.7,6.82 -14.56,6.79 -14.42,6.77 -14.28,6.73 -14.14,6.69 -14,6.65 -13.86,6.59 -13.72,6.53 -13.58,6.47 -13.44,6.39 -13.3,6.3 -13.16,6.21 -13.02,6.1 -12.87,5.99 -12.73,5.86 -12.59,5.72 -12.45,5.57 -12.31,5.41 -12.17,5.24 -12.03,5.06 -11.89,4.87 -11.75,4.66 -11.61,4.45 -11.47,4.23 -11.33,4 -11.19,3.77 -11.05,3.53 -10.9,3.29 -10.76,3.04 -10.62,2.79 -10.48,2.53 -10.34,2.28 -10.2,2.02 -10.06,1.77 -9.92,1.51 -9.78,1.26 -9.64,1.01 -9.5,0.76 -9.36,0.51 -9.22,0.26 -9.08,0.02 -8.93,-0.22 -8.79,-0.46 -8.65,-0.69 -8.51,-0.93 -8.37,-1.16 -8.23,-1.38 -8.09,-1.61 -7.95,-1.83 -7.81,-2.05 -7.67,-2.26 -7.53,-2.48 -7.39,-2.69 -7.25,-2.89 -7.11,-3.09 -6.96,-3.29 -6.82,-3.49 -6.68,-3.68 -6.54,-3.87 -6.4,-4.06 -6.26,-4.25 -6.12,-4.44 -5.98,-4.62 -5.84,-4.81 -5.7,-5 -5.56,-5.18 -5.42,-5.38 -5.28,-5.58 -5.14,-5.78 -4.99,-5.99 -4.85,-6.21 -4.71,-6.43 -4.57,-6.67 -4.43,-6.92 -4.29,-7.18 -4.15,-7.45 -4.01,-7.74 -3.87,-8.03 -3.73,-8.34 -3.59,-8.65 -3.45,-8.97 -3.31,-9.3 -3.17,-9.64 -3.03,-9.98 -2.88,-10.31 -2.74,-10.64 -2.6,-10.97 -2.46,-11.29 -2.32,-11.59 -2.18,-11.87 -2.04,-12.14 -1.9,-12.39 -1.76,-12.61 -1.62,-12.8 -1.48,-12.97 -1.34,-13.11 -1.2,-13.21 -1.06,-13.29 -0.91,-13.34 -0.77,-13.35 -0.63,-13.34 -0.49,-13.3 -0.35,-13.23 -0.21,-13.14 -0.07,-13.02 0.07,-12.89 0.21,-12.73 0.35,-12.56 0.49,-12.37 0.63,-12.16 0.77,-11.95 0.91,-11.72 1.06,-11.48 1.2,-11.23 1.34,-10.97 1.48,-10.7 1.62,-10.42 1.76,-10.13 1.9,-9.84 2.04,-9.54 2.18,-9.23 2.32,-8.91 2.46,-8.58 2.6,-8.25 2.74,-7.92 2.88,-7.57 3.03,-7.23 3.17,-6.88 3.31,-6.53 3.45,-6.18 3.59,-5.82 3.73,-5.47 3.87,-5.12 4.01,-4.77 4.15,-4.43 4.29,-4.09 4.43,-3.76 4.57,-3.43 4.71,-3.11 4.85,-2.8 4.99,-2.49 5.14,-2.2 5.28,-1.9 5.42,-1.62 5.56,-1.34 5.7,-1.07 5.84,-0.81 5.98,-0.55 6.12,-0.3 6.26,-0.05 6.4,0.19 6.54,0.43 6.68,0.67 6.82,0.9 6.96,1.13 7.11,1.35 7.25,1.57 7.39,1.79 7.53,2.01 7.67,2.22 7.81,2.42 7.95,2.62 8.09,2.82 8.23,3.01 8.37,3.19 8.51,3.37 8.65,3.54 8.79,3.7 8.93,3.85 9.08,4 9.22,4.14 9.36,4.27 9.5,4.39 9.64,4.5 9.78,4.61 9.92,4.71 10.06,4.81 10.2,4.9 10.34,4.99 10.48,5.07 10.62,5.15 10.76,5.23 10.9,5.31 11.05,5.38 11.19,5.46 11.33,5.53 11.47,5.61 11.61,5.68 11.75,5.75 11.89,5.83 12.03,5.9 12.17,5.98 12.31,6.05 12.45,6.12 12.59,6.19 12.73,6.25 12.87,6.32 13.02,6.38 13.16,6.44 13.3,6.49 13.44,6.54 13.58,6.59 13.72,6.63 13.86,6.67 14,6.71 14.14,6.74 14.28,6.77 14.42,6.79 14.56,6.81 14.7,6.83 14.84,6.85 14.98,6.86 15.13,6.88 15.27,6.89 15.41,6.9 15.55,6.9 15.69,6.91 15.83,6.91 15.97,6.92 16.11,6.92 16.25,6.92 16.39,6.92 16.53,6.93 16.67,6.93 16.81,6.93 16.95,6.93 17.1,6.93 17.24,6.93 17.38,6.93 17.52,6.93 17.66,6.93 17.8,6.93 17.94,6.93 " class="primitive"/>
                  </g>
                </g>
              </g>
            </g>
          </g>
        </g>
        <g class="guide ylabels" font-size="2.82" font-family="'PT Sans Caption','Helvetica Neue','Helvetica',sans-serif" fill="#6C606B" id="img-7cd1a0e5-103">
          <g transform="translate(23.75,34.05)" id="img-7cd1a0e5-104">
            <g class="primitive">
              <text text-anchor="end" dy="0.35em">0.0</text>
            </g>
          </g>
          <g transform="translate(23.75,29.04)" id="img-7cd1a0e5-105">
            <g class="primitive">
              <text text-anchor="end" dy="0.35em">0.1</text>
            </g>
          </g>
          <g transform="translate(23.75,24.03)" id="img-7cd1a0e5-106">
            <g class="primitive">
              <text text-anchor="end" dy="0.35em">0.2</text>
            </g>
          </g>
          <g transform="translate(23.75,19.02)" id="img-7cd1a0e5-107">
            <g class="primitive">
              <text text-anchor="end" dy="0.35em">0.3</text>
            </g>
          </g>
          <g transform="translate(23.75,14.01)" id="img-7cd1a0e5-108">
            <g class="primitive">
              <text text-anchor="end" dy="0.35em">0.4</text>
            </g>
          </g>
          <g transform="translate(23.75,9)" id="img-7cd1a0e5-109">
            <g class="primitive">
              <text text-anchor="end" dy="0.35em">0.5</text>
            </g>
          </g>
        </g>
        <g font-size="3.88" font-family="'PT Sans','Helvetica Neue','Helvetica',sans-serif" fill="#564A55" stroke="#000000" stroke-opacity="0.000" id="img-7cd1a0e5-110">
          <g transform="translate(16.73,21.53)" id="img-7cd1a0e5-111">
            <g class="primitive">
              <text text-anchor="end" dy="0.35em">1</text>
            </g>
          </g>
        </g>
      </g>
    </g>
  </g>
  <g font-size="3.88" font-family="'PT Sans','Helvetica Neue','Helvetica',sans-serif" fill="#564A55" stroke="#000000" stroke-opacity="0.000" id="img-7cd1a0e5-112">
    <g transform="translate(8.81,43.19)" id="img-7cd1a0e5-113">
      <g class="primitive">
        <text text-anchor="middle" dy="0.35em" transform="rotate(-90,0, 2)">Chain</text>
      </g>
    </g>
  </g>
</g>
<defs>
  <clipPath id="img-7cd1a0e5-3">
    <path d="M12.61,5 L136.42,5 136.42,85.39 12.61,85.39 " />
  </clipPath>
  <clipPath id="img-7cd1a0e5-18">
    <path d="M82.59,40.05 L134.42,40.05 134.42,71.1 82.59,71.1 " />
  </clipPath>
  <clipPath id="img-7cd1a0e5-37">
    <path d="M24.75,40.05 L78.59,40.05 78.59,71.1 24.75,71.1 " />
  </clipPath>
  <clipPath id="img-7cd1a0e5-65">
    <path d="M82.59,7 L134.42,7 134.42,36.05 82.59,36.05 " />
  </clipPath>
  <clipPath id="img-7cd1a0e5-84">
    <path d="M24.75,7 L78.59,7 78.59,36.05 24.75,36.05 " />
  </clipPath>
</defs>
</svg>
