<?xml version="1.0" encoding="UTF-8"?>
<svg xmlns="http://www.w3.org/2000/svg"
     xmlns:xlink="http://www.w3.org/1999/xlink"
     xmlns:gadfly="http://www.gadflyjl.org/ns"
     version="1.2"
     width="141.42mm" height="100mm" viewBox="0 0 141.42 100"
     stroke="none"
     fill="#000000"
     stroke-width="0.3"
     font-size="3.88"
>
<defs>
  <marker id="arrow" markerWidth="15" markerHeight="7" refX="5" refY="3.5" orient="auto" markerUnits="strokeWidth">
    <path d="M0,0 L15,3.5 L0,7 z" stroke="context-stroke" fill="context-stroke"/>
  </marker>
</defs>
<g class="plotroot xscalable yscalable" id="img-4318db77-1">
  <g font-size="3.88" font-family="'PT Sans','Helvetica Neue','Helvetica',sans-serif" fill="#564A55" stroke="#000000" stroke-opacity="0.000" id="img-4318db77-2">
    <g transform="translate(70.04,88.39)">
      <g class="primitive">
        <text text-anchor="middle" dy="0.6em">value</text>
      </g>
    </g>
  </g>
  <g class="guide colorkey" id="img-4318db77-3">
    <g fill="#4C404B" font-size="2.82" font-family="'PT Sans','Helvetica Neue','Helvetica',sans-serif" id="img-4318db77-4">
      <g transform="translate(131.29,43.38)" id="img-4318db77-5" class="color_1">
        <g class="primitive">
          <text dy="0.35em">1</text>
        </g>
      </g>
      <g transform="translate(131.29,47.01)" id="img-4318db77-6" class="color_2">
        <g class="primitive">
          <text dy="0.35em">2</text>
        </g>
      </g>
      <g transform="translate(131.29,50.63)" id="img-4318db77-7" class="color_3">
        <g class="primitive">
          <text dy="0.35em">3</text>
        </g>
      </g>
    </g>
    <g fill-opacity="1" id="img-4318db77-8">
      <g transform="translate(129.38,43.38)" id="img-4318db77-9" class="color_1" stroke="#FFFFFF" fill="#00BFFF">
        <path d="M-0.91,-0.91 L0.91,-0.91 0.91,0.91 -0.91,0.91  z" class="primitive"/>
      </g>
      <g transform="translate(129.38,47.01)" id="img-4318db77-10" class="color_2" stroke="#FFFFFF" fill="#D4CA3A">
        <path d="M-0.91,-0.91 L0.91,-0.91 0.91,0.91 -0.91,0.91  z" class="primitive"/>
      </g>
      <g transform="translate(129.38,50.63)" id="img-4318db77-11" class="color_3" stroke="#FFFFFF" fill="#FF6DAE">
        <path d="M-0.91,-0.91 L0.91,-0.91 0.91,0.91 -0.91,0.91  z" class="primitive"/>
      </g>
    </g>
    <g fill="#362A35" font-size="3.88" font-family="'PT Sans','Helvetica Neue','Helvetica',sans-serif" stroke="#000000" stroke-opacity="0.000" id="img-4318db77-12">
      <g transform="translate(128.47,39.56)" id="img-4318db77-13">
        <g class="primitive">
          <text dy="-0em">chain</text>
        </g>
      </g>
    </g>
  </g>
  <g clip-path="url(#img-4318db77-14)">
    <g id="img-4318db77-15">
      <g class="plotpanel" id="img-4318db77-16">
        <metadata>
          <boundingbox value="12.611666666666665mm 5.0mm 114.86302290397617mm 80.38833333333334mm"/>
          <unitbox value="0.0 0.0 1.0 1.0"/>
        </metadata>
        <g class="guide xlabels" font-size="2.82" font-family="'PT Sans Caption','Helvetica Neue','Helvetica',sans-serif" fill="#6C606B" id="img-4318db77-17">
          <g transform="translate(26.91,81.72)" id="img-4318db77-18">
            <g class="primitive">
              <text text-anchor="middle" dy="0.6em">-5.0</text>
            </g>
          </g>
          <g transform="translate(51.05,81.72)" id="img-4318db77-19">
            <g class="primitive">
              <text text-anchor="middle" dy="0.6em">-2.5</text>
            </g>
          </g>
          <g transform="translate(75.19,81.72)" id="img-4318db77-20">
            <g class="primitive">
              <text text-anchor="middle" dy="0.6em">0.0</text>
            </g>
          </g>
          <g transform="translate(99.33,81.72)" id="img-4318db77-21">
            <g class="primitive">
              <text text-anchor="middle" dy="0.6em">2.5</text>
            </g>
          </g>
          <g transform="translate(123.47,81.72)" id="img-4318db77-22">
            <g class="primitive">
              <text text-anchor="middle" dy="0.6em">5.0</text>
            </g>
          </g>
        </g>
        <g clip-path="url(#img-4318db77-23)">
          <g id="img-4318db77-24">
            <g pointer-events="visible" stroke-width="0.3" fill="#000000" fill-opacity="0.000" stroke="#000000" stroke-opacity="0.000" class="guide background" id="img-4318db77-25">
              <g transform="translate(75.19,62.79)" id="img-4318db77-26">
                <path d="M-50.28,-17.93 L50.28,-17.93 50.28,17.93 -50.28,17.93  z" class="primitive"/>
              </g>
            </g>
            <g class="guide ygridlines xfixed" stroke-dasharray="0.5,0.5" stroke-width="0.2" stroke="#D0D0E0" id="img-4318db77-27">
              <g transform="translate(75.19,78.72)" id="img-4318db77-28">
                <path fill="none" d="M-50.28,0 L50.28,0 " class="primitive"/>
              </g>
              <g transform="translate(75.19,72.34)" id="img-4318db77-29">
                <path fill="none" d="M-50.28,0 L50.28,0 " class="primitive"/>
              </g>
              <g transform="translate(75.19,65.97)" id="img-4318db77-30">
                <path fill="none" d="M-50.28,0 L50.28,0 " class="primitive"/>
              </g>
              <g transform="translate(75.19,59.6)" id="img-4318db77-31">
                <path fill="none" d="M-50.28,0 L50.28,0 " class="primitive"/>
              </g>
              <g transform="translate(75.19,53.23)" id="img-4318db77-32">
                <path fill="none" d="M-50.28,0 L50.28,0 " class="primitive"/>
              </g>
              <g transform="translate(75.19,46.86)" id="img-4318db77-33">
                <path fill="none" d="M-50.28,0 L50.28,0 " class="primitive"/>
              </g>
            </g>
            <g class="guide xgridlines yfixed" stroke-dasharray="0.5,0.5" stroke-width="0.2" stroke="#D0D0E0" id="img-4318db77-34">
              <g transform="translate(26.91,62.79)" id="img-4318db77-35">
                <path fill="none" d="M0,-17.93 L0,17.93 " class="primitive"/>
              </g>
              <g transform="translate(51.05,62.79)" id="img-4318db77-36">
                <path fill="none" d="M0,-17.93 L0,17.93 " class="primitive"/>
              </g>
              <g transform="translate(75.19,62.79)" id="img-4318db77-37">
                <path fill="none" d="M0,-17.93 L0,17.93 " class="primitive"/>
              </g>
              <g transform="translate(99.33,62.79)" id="img-4318db77-38">
                <path fill="none" d="M0,-17.93 L0,17.93 " class="primitive"/>
              </g>
              <g transform="translate(123.47,62.79)" id="img-4318db77-39">
                <path fill="none" d="M0,-17.93 L0,17.93 " class="primitive"/>
              </g>
            </g>
            <g class="plotpanel" id="img-4318db77-40">
              <metadata>
                <boundingbox value="24.905mm 44.8575mm 100.56968957064284mm 35.8575mm"/>
                <unitbox value="-5.207104321127279 0.5313897826257553 10.414208642254557 -0.5627795652515106"/>
              </metadata>
              <g stroke-width="0.3" fill="#000000" fill-opacity="0.000" class="geometry" id="img-4318db77-41">
                <g transform="translate(75.35,69.59)" id="img-4318db77-42" stroke="#FF6DAE" stroke-dasharray="none" stroke-opacity="1" class="color_3">
                  <path fill="none" d="M-33.58,9.12 L-33.32,9.12 -33.06,9.12 -32.79,9.12 -32.53,9.12 -32.27,9.12 -32,9.12 -31.74,9.12 -31.48,9.12 -31.21,9.12 -30.95,9.12 -30.69,9.11 -30.42,9.11 -30.16,9.11 -29.89,9.1 -29.63,9.1 -29.37,9.09 -29.1,9.08 -28.84,9.06 -28.58,9.05 -28.31,9.03 -28.05,9.01 -27.79,8.98 -27.52,8.95 -27.26,8.92 -27,8.88 -26.73,8.83 -26.47,8.77 -26.21,8.71 -25.94,8.64 -25.68,8.56 -25.42,8.46 -25.15,8.36 -24.89,8.25 -24.63,8.13 -24.36,7.99 -24.1,7.85 -23.84,7.69 -23.57,7.52 -23.31,7.34 -23.05,7.15 -22.78,6.95 -22.52,6.74 -22.26,6.52 -21.99,6.29 -21.73,6.06 -21.47,5.82 -21.2,5.58 -20.94,5.33 -20.68,5.08 -20.41,4.83 -20.15,4.58 -19.89,4.33 -19.62,4.09 -19.36,3.84 -19.1,3.6 -18.83,3.37 -18.57,3.14 -18.31,2.92 -18.04,2.71 -17.78,2.5 -17.52,2.31 -17.25,2.12 -16.99,1.95 -16.73,1.79 -16.46,1.63 -16.2,1.49 -15.94,1.36 -15.67,1.23 -15.41,1.12 -15.14,1.01 -14.88,0.91 -14.62,0.81 -14.35,0.71 -14.09,0.61 -13.83,0.51 -13.56,0.4 -13.3,0.27 -13.04,0.14 -12.77,-0.01 -12.51,-0.18 -12.25,-0.37 -11.98,-0.58 -11.72,-0.81 -11.46,-1.07 -11.19,-1.36 -10.93,-1.67 -10.67,-2 -10.4,-2.36 -10.14,-2.74 -9.88,-3.15 -9.61,-3.57 -9.35,-4.01 -9.09,-4.46 -8.82,-4.92 -8.56,-5.4 -8.3,-5.88 -8.03,-6.38 -7.77,-6.88 -7.51,-7.38 -7.24,-7.9 -6.98,-8.42 -6.72,-8.94 -6.45,-9.47 -6.19,-10.01 -5.93,-10.56 -5.66,-11.12 -5.4,-11.68 -5.14,-12.24 -4.87,-12.82 -4.61,-13.39 -4.35,-13.97 -4.08,-14.54 -3.82,-15.11 -3.56,-15.66 -3.29,-16.2 -3.03,-16.72 -2.77,-17.21 -2.5,-17.68 -2.24,-18.1 -1.98,-18.49 -1.71,-18.83 -1.45,-19.12 -1.19,-19.36 -0.92,-19.55 -0.66,-19.67 -0.4,-19.74 -0.13,-19.75 0.13,-19.7 0.4,-19.6 0.66,-19.44 0.92,-19.23 1.19,-18.97 1.45,-18.67 1.71,-18.34 1.98,-17.96 2.24,-17.56 2.5,-17.14 2.77,-16.69 3.03,-16.23 3.29,-15.76 3.56,-15.29 3.82,-14.81 4.08,-14.33 4.35,-13.86 4.61,-13.39 4.87,-12.94 5.14,-12.49 5.4,-12.05 5.66,-11.62 5.93,-11.2 6.19,-10.79 6.45,-10.39 6.72,-9.99 6.98,-9.61 7.24,-9.24 7.51,-8.87 7.77,-8.51 8.03,-8.15 8.3,-7.8 8.56,-7.45 8.82,-7.11 9.09,-6.77 9.35,-6.43 9.61,-6.09 9.88,-5.76 10.14,-5.42 10.4,-5.09 10.67,-4.75 10.93,-4.41 11.19,-4.07 11.46,-3.72 11.72,-3.37 11.98,-3.01 12.25,-2.65 12.51,-2.28 12.77,-1.9 13.04,-1.52 13.3,-1.13 13.56,-0.74 13.83,-0.34 14.09,0.06 14.35,0.46 14.62,0.87 14.88,1.27 15.14,1.67 15.41,2.07 15.67,2.46 15.94,2.84 16.2,3.21 16.46,3.57 16.73,3.92 16.99,4.26 17.25,4.58 17.52,4.89 17.78,5.18 18.04,5.46 18.31,5.71 18.57,5.96 18.83,6.19 19.1,6.4 19.36,6.6 19.62,6.78 19.89,6.95 20.15,7.11 20.41,7.26 20.68,7.39 20.94,7.52 21.2,7.64 21.47,7.75 21.73,7.86 21.99,7.96 22.26,8.05 22.52,8.14 22.78,8.22 23.05,8.3 23.31,8.37 23.57,8.44 23.84,8.51 24.1,8.57 24.36,8.62 24.63,8.68 24.89,8.73 25.15,8.77 25.42,8.82 25.68,8.85 25.94,8.89 26.21,8.92 26.47,8.95 26.73,8.98 27,9 27.26,9.02 27.52,9.03 27.79,9.05 28.05,9.06 28.31,9.07 28.58,9.08 28.84,9.09 29.1,9.1 29.37,9.1 29.63,9.11 29.89,9.11 30.16,9.11 30.42,9.12 30.69,9.12 30.95,9.12 31.21,9.12 31.48,9.12 31.74,9.12 32,9.12 32.27,9.12 32.53,9.12 32.79,9.12 33.06,9.12 33.32,9.12 33.58,9.12 " class="primitive"/>
                </g>
                <g transform="translate(74.81,70.41)" id="img-4318db77-43" stroke="#00BFFF" stroke-dasharray="none" stroke-opacity="1" class="color_1">
                  <path fill="none" d="M-36.9,8.3 L-36.61,8.3 -36.32,8.3 -36.03,8.3 -35.74,8.3 -35.45,8.3 -35.17,8.3 -34.88,8.3 -34.59,8.3 -34.3,8.3 -34.01,8.3 -33.72,8.3 -33.43,8.29 -33.14,8.29 -32.85,8.29 -32.56,8.28 -32.27,8.28 -31.98,8.27 -31.69,8.26 -31.4,8.25 -31.11,8.24 -30.82,8.22 -30.53,8.2 -30.24,8.18 -29.96,8.16 -29.67,8.13 -29.38,8.09 -29.09,8.06 -28.8,8.01 -28.51,7.96 -28.22,7.91 -27.93,7.85 -27.64,7.78 -27.35,7.71 -27.06,7.63 -26.77,7.55 -26.48,7.46 -26.19,7.36 -25.9,7.25 -25.61,7.14 -25.32,7.03 -25.04,6.91 -24.75,6.78 -24.46,6.65 -24.17,6.51 -23.88,6.37 -23.59,6.23 -23.3,6.08 -23.01,5.92 -22.72,5.76 -22.43,5.59 -22.14,5.42 -21.85,5.24 -21.56,5.06 -21.27,4.87 -20.98,4.67 -20.69,4.46 -20.4,4.24 -20.12,4.01 -19.83,3.77 -19.54,3.53 -19.25,3.27 -18.96,2.99 -18.67,2.71 -18.38,2.42 -18.09,2.11 -17.8,1.8 -17.51,1.47 -17.22,1.13 -16.93,0.79 -16.64,0.44 -16.35,0.08 -16.06,-0.28 -15.77,-0.65 -15.48,-1.01 -15.19,-1.38 -14.91,-1.75 -14.62,-2.11 -14.33,-2.48 -14.04,-2.83 -13.75,-3.18 -13.46,-3.52 -13.17,-3.86 -12.88,-4.18 -12.59,-4.5 -12.3,-4.8 -12.01,-5.1 -11.72,-5.39 -11.43,-5.68 -11.14,-5.96 -10.85,-6.23 -10.56,-6.5 -10.27,-6.77 -9.99,-7.05 -9.7,-7.32 -9.41,-7.6 -9.12,-7.89 -8.83,-8.19 -8.54,-8.5 -8.25,-8.82 -7.96,-9.15 -7.67,-9.49 -7.38,-9.85 -7.09,-10.22 -6.8,-10.59 -6.51,-10.98 -6.22,-11.37 -5.93,-11.77 -5.64,-12.16 -5.35,-12.56 -5.06,-12.95 -4.78,-13.33 -4.49,-13.7 -4.2,-14.05 -3.91,-14.39 -3.62,-14.7 -3.33,-14.99 -3.04,-15.25 -2.75,-15.48 -2.46,-15.69 -2.17,-15.85 -1.88,-15.99 -1.59,-16.09 -1.3,-16.15 -1.01,-16.18 -0.72,-16.17 -0.43,-16.12 -0.14,-16.04 0.14,-15.93 0.43,-15.78 0.72,-15.6 1.01,-15.39 1.3,-15.16 1.59,-14.89 1.88,-14.6 2.17,-14.29 2.46,-13.96 2.75,-13.61 3.04,-13.24 3.33,-12.87 3.62,-12.48 3.91,-12.1 4.2,-11.71 4.49,-11.32 4.78,-10.93 5.06,-10.56 5.35,-10.19 5.64,-9.83 5.93,-9.49 6.22,-9.16 6.51,-8.85 6.8,-8.54 7.09,-8.26 7.38,-7.98 7.67,-7.72 7.96,-7.46 8.25,-7.21 8.54,-6.96 8.83,-6.72 9.12,-6.46 9.41,-6.21 9.7,-5.94 9.99,-5.67 10.27,-5.38 10.56,-5.08 10.85,-4.76 11.14,-4.43 11.43,-4.08 11.72,-3.71 12.01,-3.34 12.3,-2.95 12.59,-2.55 12.88,-2.14 13.17,-1.74 13.46,-1.33 13.75,-0.92 14.04,-0.52 14.33,-0.13 14.62,0.25 14.91,0.61 15.19,0.96 15.48,1.28 15.77,1.59 16.06,1.88 16.35,2.15 16.64,2.4 16.93,2.62 17.22,2.83 17.51,3.02 17.8,3.2 18.09,3.36 18.38,3.51 18.67,3.65 18.96,3.79 19.25,3.92 19.54,4.04 19.83,4.17 20.12,4.29 20.4,4.42 20.69,4.55 20.98,4.68 21.27,4.82 21.56,4.96 21.85,5.11 22.14,5.26 22.43,5.41 22.72,5.57 23.01,5.72 23.3,5.88 23.59,6.04 23.88,6.2 24.17,6.35 24.46,6.5 24.75,6.65 25.04,6.79 25.32,6.93 25.61,7.06 25.9,7.19 26.19,7.31 26.48,7.42 26.77,7.52 27.06,7.61 27.35,7.7 27.64,7.77 27.93,7.85 28.22,7.91 28.51,7.97 28.8,8.02 29.09,8.06 29.38,8.1 29.67,8.13 29.96,8.16 30.24,8.19 30.53,8.21 30.82,8.22 31.11,8.24 31.4,8.25 31.69,8.26 31.98,8.27 32.27,8.28 32.56,8.28 32.85,8.29 33.14,8.29 33.43,8.29 33.72,8.3 34.01,8.3 34.3,8.3 34.59,8.3 34.88,8.3 35.17,8.3 35.45,8.3 35.74,8.3 36.03,8.3 36.32,8.3 36.61,8.3 36.9,8.3 " class="primitive"/>
                </g>
                <g transform="translate(75.57,70.64)" id="img-4318db77-44" stroke="#D4CA3A" stroke-dasharray="none" stroke-opacity="1" class="color_2">
                  <path fill="none" d="M-37.96,8.07 L-37.66,8.07 -37.36,8.07 -37.06,8.07 -36.77,8.07 -36.47,8.07 -36.17,8.07 -35.87,8.07 -35.58,8.07 -35.28,8.07 -34.98,8.06 -34.68,8.06 -34.38,8.06 -34.09,8.05 -33.79,8.05 -33.49,8.04 -33.19,8.03 -32.9,8.02 -32.6,8 -32.3,7.98 -32,7.96 -31.71,7.93 -31.41,7.9 -31.11,7.87 -30.81,7.82 -30.51,7.78 -30.22,7.72 -29.92,7.66 -29.62,7.6 -29.32,7.53 -29.03,7.45 -28.73,7.36 -28.43,7.27 -28.13,7.18 -27.83,7.08 -27.54,6.98 -27.24,6.88 -26.94,6.77 -26.64,6.66 -26.35,6.56 -26.05,6.45 -25.75,6.35 -25.45,6.24 -25.16,6.14 -24.86,6.04 -24.56,5.94 -24.26,5.84 -23.96,5.74 -23.67,5.64 -23.37,5.54 -23.07,5.43 -22.77,5.32 -22.48,5.2 -22.18,5.07 -21.88,4.94 -21.58,4.79 -21.29,4.63 -20.99,4.46 -20.69,4.28 -20.39,4.09 -20.09,3.89 -19.8,3.68 -19.5,3.46 -19.2,3.24 -18.9,3.01 -18.61,2.79 -18.31,2.57 -18.01,2.36 -17.71,2.15 -17.42,1.96 -17.12,1.78 -16.82,1.61 -16.52,1.45 -16.22,1.32 -15.93,1.2 -15.63,1.09 -15.33,1 -15.03,0.91 -14.74,0.84 -14.44,0.78 -14.14,0.72 -13.84,0.66 -13.55,0.6 -13.25,0.53 -12.95,0.45 -12.65,0.36 -12.35,0.25 -12.06,0.11 -11.76,-0.04 -11.46,-0.23 -11.16,-0.45 -10.87,-0.7 -10.57,-0.99 -10.27,-1.32 -9.97,-1.69 -9.68,-2.1 -9.38,-2.55 -9.08,-3.05 -8.78,-3.58 -8.48,-4.15 -8.19,-4.76 -7.89,-5.4 -7.59,-6.06 -7.29,-6.75 -7,-7.46 -6.7,-8.18 -6.4,-8.9 -6.1,-9.63 -5.81,-10.35 -5.51,-11.06 -5.21,-11.75 -4.91,-12.41 -4.61,-13.05 -4.32,-13.66 -4.02,-14.22 -3.72,-14.75 -3.42,-15.23 -3.13,-15.67 -2.83,-16.07 -2.53,-16.43 -2.23,-16.75 -1.94,-17.03 -1.64,-17.27 -1.34,-17.5 -1.04,-17.69 -0.74,-17.87 -0.45,-18.04 -0.15,-18.2 0.15,-18.35 0.45,-18.49 0.74,-18.63 1.04,-18.77 1.34,-18.91 1.64,-19.03 1.94,-19.15 2.23,-19.25 2.53,-19.32 2.83,-19.37 3.13,-19.38 3.42,-19.35 3.72,-19.27 4.02,-19.15 4.32,-18.96 4.61,-18.72 4.91,-18.42 5.21,-18.05 5.51,-17.63 5.81,-17.15 6.1,-16.61 6.4,-16.03 6.7,-15.4 7,-14.74 7.29,-14.04 7.59,-13.32 7.89,-12.58 8.19,-11.83 8.48,-11.08 8.78,-10.32 9.08,-9.57 9.38,-8.84 9.68,-8.11 9.97,-7.41 10.27,-6.73 10.57,-6.08 10.87,-5.45 11.16,-4.85 11.46,-4.28 11.76,-3.73 12.06,-3.22 12.35,-2.73 12.65,-2.28 12.95,-1.84 13.25,-1.44 13.55,-1.05 13.84,-0.68 14.14,-0.33 14.44,0.01 14.74,0.33 15.03,0.65 15.33,0.96 15.63,1.27 15.93,1.58 16.22,1.89 16.52,2.2 16.82,2.51 17.12,2.83 17.42,3.14 17.71,3.46 18.01,3.77 18.31,4.08 18.61,4.39 18.9,4.69 19.2,4.97 19.5,5.25 19.8,5.5 20.09,5.74 20.39,5.97 20.69,6.17 20.99,6.35 21.29,6.51 21.58,6.65 21.88,6.77 22.18,6.86 22.48,6.94 22.77,7.01 23.07,7.06 23.37,7.1 23.67,7.12 23.96,7.14 24.26,7.16 24.56,7.17 24.86,7.18 25.16,7.19 25.45,7.2 25.75,7.21 26.05,7.23 26.35,7.26 26.64,7.28 26.94,7.32 27.24,7.35 27.54,7.39 27.83,7.44 28.13,7.48 28.43,7.53 28.73,7.58 29.03,7.63 29.32,7.67 29.62,7.72 29.92,7.76 30.22,7.8 30.51,7.84 30.81,7.87 31.11,7.9 31.41,7.93 31.71,7.96 32,7.98 32.3,7.99 32.6,8.01 32.9,8.02 33.19,8.03 33.49,8.04 33.79,8.05 34.09,8.05 34.38,8.06 34.68,8.06 34.98,8.07 35.28,8.07 35.58,8.07 35.87,8.07 36.17,8.07 36.47,8.07 36.77,8.07 37.06,8.07 37.36,8.07 37.66,8.07 37.96,8.07 " class="primitive"/>
                </g>
              </g>
            </g>
          </g>
        </g>
        <g class="guide ylabels" font-size="2.82" font-family="'PT Sans Caption','Helvetica Neue','Helvetica',sans-serif" fill="#6C606B" id="img-4318db77-45">
          <g transform="translate(23.9,78.72)" id="img-4318db77-46">
            <g class="primitive">
              <text text-anchor="end" dy="0.35em">0.0</text>
            </g>
          </g>
          <g transform="translate(23.9,72.34)" id="img-4318db77-47">
            <g class="primitive">
              <text text-anchor="end" dy="0.35em">0.1</text>
            </g>
          </g>
          <g transform="translate(23.9,65.97)" id="img-4318db77-48">
            <g class="primitive">
              <text text-anchor="end" dy="0.35em">0.2</text>
            </g>
          </g>
          <g transform="translate(23.9,59.6)" id="img-4318db77-49">
            <g class="primitive">
              <text text-anchor="end" dy="0.35em">0.3</text>
            </g>
          </g>
          <g transform="translate(23.9,53.23)" id="img-4318db77-50">
            <g class="primitive">
              <text text-anchor="end" dy="0.35em">0.4</text>
            </g>
          </g>
          <g transform="translate(23.9,46.86)" id="img-4318db77-51">
            <g class="primitive">
              <text text-anchor="end" dy="0.35em">0.5</text>
            </g>
          </g>
        </g>
        <g font-size="3.88" font-family="'PT Sans','Helvetica Neue','Helvetica',sans-serif" fill="#564A55" stroke="#000000" stroke-opacity="0.000" id="img-4318db77-52">
          <g transform="translate(16.88,62.79)" id="img-4318db77-53">
            <g class="primitive">
              <text text-anchor="end" dy="0.35em">B</text>
            </g>
          </g>
        </g>
        <g clip-path="url(#img-4318db77-54)">
          <g id="img-4318db77-55">
            <g pointer-events="visible" stroke-width="0.3" fill="#000000" fill-opacity="0.000" stroke="#000000" stroke-opacity="0.000" class="guide background" id="img-4318db77-56">
              <g transform="translate(75.19,23.93)" id="img-4318db77-57">
                <path d="M-50.28,-16.93 L50.28,-16.93 50.28,16.93 -50.28,16.93  z" class="primitive"/>
              </g>
            </g>
            <g class="guide ygridlines xfixed" stroke-dasharray="0.5,0.5" stroke-width="0.2" stroke="#D0D0E0" id="img-4318db77-58">
              <g transform="translate(75.19,38.86)" id="img-4318db77-59">
                <path fill="none" d="M-50.28,0 L50.28,0 " class="primitive"/>
              </g>
              <g transform="translate(75.19,32.89)" id="img-4318db77-60">
                <path fill="none" d="M-50.28,0 L50.28,0 " class="primitive"/>
              </g>
              <g transform="translate(75.19,26.91)" id="img-4318db77-61">
                <path fill="none" d="M-50.28,0 L50.28,0 " class="primitive"/>
              </g>
              <g transform="translate(75.19,20.94)" id="img-4318db77-62">
                <path fill="none" d="M-50.28,0 L50.28,0 " class="primitive"/>
              </g>
              <g transform="translate(75.19,14.97)" id="img-4318db77-63">
                <path fill="none" d="M-50.28,0 L50.28,0 " class="primitive"/>
              </g>
              <g transform="translate(75.19,9)" id="img-4318db77-64">
                <path fill="none" d="M-50.28,0 L50.28,0 " class="primitive"/>
              </g>
            </g>
            <g class="guide xgridlines yfixed" stroke-dasharray="0.5,0.5" stroke-width="0.2" stroke="#D0D0E0" id="img-4318db77-65">
              <g transform="translate(26.91,23.93)" id="img-4318db77-66">
                <path fill="none" d="M0,-16.93 L0,16.93 " class="primitive"/>
              </g>
              <g transform="translate(51.05,23.93)" id="img-4318db77-67">
                <path fill="none" d="M0,-16.93 L0,16.93 " class="primitive"/>
              </g>
              <g transform="translate(75.19,23.93)" id="img-4318db77-68">
                <path fill="none" d="M0,-16.93 L0,16.93 " class="primitive"/>
              </g>
              <g transform="translate(99.33,23.93)" id="img-4318db77-69">
                <path fill="none" d="M0,-16.93 L0,16.93 " class="primitive"/>
              </g>
              <g transform="translate(123.47,23.93)" id="img-4318db77-70">
                <path fill="none" d="M0,-16.93 L0,16.93 " class="primitive"/>
              </g>
            </g>
            <g class="plotpanel" id="img-4318db77-71">
              <metadata>
                <boundingbox value="24.905mm 7.0mm 100.56968957064284mm 33.8575mm"/>
                <unitbox value="-5.207104321127279 0.5334924223394457 10.414208642254557 -0.5669848446788914"/>
              </metadata>
              <g stroke-width="0.3" fill="#000000" fill-opacity="0.000" class="geometry" id="img-4318db77-72">
                <g transform="translate(78.01,29.77)" id="img-4318db77-73" stroke="#FF6DAE" stroke-dasharray="none" stroke-opacity="1" class="color_3">
                  <path fill="none" d="M-31.59,9.09 L-31.34,9.09 -31.1,9.09 -30.85,9.09 -30.6,9.09 -30.35,9.09 -30.1,9.09 -29.86,9.09 -29.61,9.08 -29.36,9.08 -29.11,9.08 -28.87,9.08 -28.62,9.07 -28.37,9.06 -28.12,9.06 -27.87,9.05 -27.63,9.04 -27.38,9.02 -27.13,9 -26.88,8.98 -26.64,8.96 -26.39,8.92 -26.14,8.89 -25.89,8.84 -25.64,8.79 -25.4,8.73 -25.15,8.67 -24.9,8.59 -24.65,8.5 -24.41,8.39 -24.16,8.28 -23.91,8.15 -23.66,8.01 -23.41,7.85 -23.17,7.67 -22.92,7.48 -22.67,7.28 -22.42,7.05 -22.18,6.82 -21.93,6.56 -21.68,6.3 -21.43,6.02 -21.18,5.73 -20.94,5.42 -20.69,5.11 -20.44,4.79 -20.19,4.47 -19.95,4.14 -19.7,3.81 -19.45,3.48 -19.2,3.15 -18.95,2.82 -18.71,2.5 -18.46,2.18 -18.21,1.87 -17.96,1.56 -17.72,1.27 -17.47,0.98 -17.22,0.7 -16.97,0.43 -16.72,0.17 -16.48,-0.09 -16.23,-0.34 -15.98,-0.58 -15.73,-0.82 -15.49,-1.05 -15.24,-1.28 -14.99,-1.51 -14.74,-1.74 -14.49,-1.98 -14.25,-2.21 -14,-2.46 -13.75,-2.71 -13.5,-2.97 -13.26,-3.24 -13.01,-3.52 -12.76,-3.82 -12.51,-4.13 -12.26,-4.45 -12.02,-4.79 -11.77,-5.15 -11.52,-5.52 -11.27,-5.9 -11.03,-6.3 -10.78,-6.72 -10.53,-7.14 -10.28,-7.58 -10.03,-8.02 -9.79,-8.47 -9.54,-8.92 -9.29,-9.38 -9.04,-9.83 -8.8,-10.27 -8.55,-10.71 -8.3,-11.13 -8.05,-11.54 -7.8,-11.93 -7.56,-12.29 -7.31,-12.64 -7.06,-12.96 -6.81,-13.25 -6.57,-13.51 -6.32,-13.74 -6.07,-13.94 -5.82,-14.11 -5.57,-14.25 -5.33,-14.35 -5.08,-14.43 -4.83,-14.47 -4.58,-14.49 -4.34,-14.48 -4.09,-14.46 -3.84,-14.41 -3.59,-14.35 -3.34,-14.27 -3.1,-14.19 -2.85,-14.1 -2.6,-14 -2.35,-13.91 -2.11,-13.82 -1.86,-13.73 -1.61,-13.66 -1.36,-13.59 -1.11,-13.53 -0.87,-13.48 -0.62,-13.45 -0.37,-13.42 -0.12,-13.41 0.12,-13.4 0.37,-13.4 0.62,-13.4 0.87,-13.4 1.11,-13.39 1.36,-13.38 1.61,-13.36 1.86,-13.32 2.11,-13.27 2.35,-13.19 2.6,-13.08 2.85,-12.94 3.1,-12.78 3.34,-12.57 3.59,-12.34 3.84,-12.06 4.09,-11.75 4.34,-11.4 4.58,-11.02 4.83,-10.61 5.08,-10.17 5.33,-9.7 5.57,-9.21 5.82,-8.7 6.07,-8.17 6.32,-7.64 6.57,-7.1 6.81,-6.56 7.06,-6.02 7.31,-5.5 7.56,-4.98 7.8,-4.47 8.05,-3.98 8.3,-3.51 8.55,-3.06 8.8,-2.63 9.04,-2.22 9.29,-1.84 9.54,-1.47 9.79,-1.12 10.03,-0.79 10.28,-0.47 10.53,-0.18 10.78,0.11 11.03,0.39 11.27,0.65 11.52,0.91 11.77,1.16 12.02,1.4 12.26,1.64 12.51,1.88 12.76,2.12 13.01,2.35 13.26,2.58 13.5,2.81 13.75,3.03 14,3.26 14.25,3.48 14.49,3.69 14.74,3.91 14.99,4.12 15.24,4.32 15.49,4.52 15.73,4.72 15.98,4.91 16.23,5.09 16.48,5.27 16.72,5.44 16.97,5.61 17.22,5.78 17.47,5.94 17.72,6.1 17.96,6.25 18.21,6.4 18.46,6.54 18.71,6.68 18.95,6.82 19.2,6.96 19.45,7.09 19.7,7.22 19.95,7.35 20.19,7.47 20.44,7.59 20.69,7.71 20.94,7.82 21.18,7.92 21.43,8.03 21.68,8.12 21.93,8.22 22.18,8.3 22.42,8.38 22.67,8.46 22.92,8.53 23.17,8.6 23.41,8.66 23.66,8.71 23.91,8.76 24.16,8.8 24.41,8.84 24.65,8.88 24.9,8.91 25.15,8.94 25.4,8.96 25.64,8.98 25.89,9 26.14,9.02 26.39,9.03 26.64,9.04 26.88,9.05 27.13,9.06 27.38,9.06 27.63,9.07 27.87,9.07 28.12,9.08 28.37,9.08 28.62,9.08 28.87,9.09 29.11,9.09 29.36,9.09 29.61,9.09 29.86,9.09 30.1,9.09 30.35,9.09 30.6,9.09 30.85,9.09 31.1,9.09 31.34,9.09 31.59,9.09 " class="primitive"/>
                </g>
                <g transform="translate(67.09,31.18)" id="img-4318db77-74" stroke="#00BFFF" stroke-dasharray="none" stroke-opacity="1" class="color_1">
                  <path fill="none" d="M-37.4,7.68 L-37.11,7.68 -36.82,7.68 -36.52,7.68 -36.23,7.68 -35.94,7.68 -35.64,7.68 -35.35,7.68 -35.06,7.68 -34.76,7.67 -34.47,7.67 -34.18,7.67 -33.88,7.67 -33.59,7.66 -33.3,7.66 -33,7.65 -32.71,7.65 -32.42,7.64 -32.12,7.63 -31.83,7.62 -31.54,7.61 -31.24,7.59 -30.95,7.57 -30.66,7.55 -30.36,7.53 -30.07,7.5 -29.78,7.48 -29.48,7.44 -29.19,7.41 -28.9,7.38 -28.6,7.34 -28.31,7.3 -28.02,7.26 -27.72,7.22 -27.43,7.18 -27.14,7.14 -26.84,7.1 -26.55,7.07 -26.26,7.04 -25.96,7.01 -25.67,6.99 -25.38,6.97 -25.08,6.96 -24.79,6.95 -24.5,6.96 -24.2,6.96 -23.91,6.98 -23.62,6.99 -23.32,7.02 -23.03,7.05 -22.74,7.08 -22.44,7.11 -22.15,7.15 -21.86,7.18 -21.56,7.22 -21.27,7.26 -20.98,7.29 -20.68,7.32 -20.39,7.35 -20.1,7.38 -19.8,7.4 -19.51,7.42 -19.22,7.43 -18.92,7.43 -18.63,7.43 -18.33,7.43 -18.04,7.41 -17.75,7.39 -17.45,7.37 -17.16,7.34 -16.87,7.3 -16.57,7.25 -16.28,7.2 -15.99,7.15 -15.69,7.09 -15.4,7.02 -15.11,6.95 -14.81,6.88 -14.52,6.8 -14.23,6.71 -13.93,6.63 -13.64,6.54 -13.35,6.44 -13.05,6.35 -12.76,6.25 -12.47,6.15 -12.17,6.04 -11.88,5.93 -11.59,5.81 -11.29,5.69 -11,5.57 -10.71,5.43 -10.41,5.29 -10.12,5.14 -9.83,4.97 -9.53,4.79 -9.24,4.59 -8.95,4.38 -8.65,4.15 -8.36,3.89 -8.07,3.61 -7.77,3.31 -7.48,2.98 -7.19,2.62 -6.89,2.24 -6.6,1.83 -6.31,1.39 -6.01,0.92 -5.72,0.43 -5.43,-0.09 -5.13,-0.62 -4.84,-1.17 -4.55,-1.74 -4.25,-2.32 -3.96,-2.9 -3.67,-3.49 -3.37,-4.08 -3.08,-4.66 -2.79,-5.24 -2.49,-5.8 -2.2,-6.36 -1.91,-6.9 -1.61,-7.43 -1.32,-7.94 -1.03,-8.43 -0.73,-8.9 -0.44,-9.35 -0.15,-9.78 0.15,-10.19 0.44,-10.58 0.73,-10.94 1.03,-11.29 1.32,-11.6 1.61,-11.9 1.91,-12.17 2.2,-12.41 2.49,-12.62 2.79,-12.81 3.08,-12.98 3.37,-13.11 3.67,-13.23 3.96,-13.31 4.25,-13.38 4.55,-13.42 4.84,-13.45 5.13,-13.46 5.43,-13.46 5.72,-13.45 6.01,-13.44 6.31,-13.42 6.6,-13.4 6.89,-13.39 7.19,-13.38 7.48,-13.38 7.77,-13.4 8.07,-13.42 8.36,-13.46 8.65,-13.51 8.95,-13.58 9.24,-13.66 9.53,-13.76 9.83,-13.87 10.12,-13.98 10.41,-14.11 10.71,-14.23 11,-14.36 11.29,-14.49 11.59,-14.61 11.88,-14.72 12.17,-14.81 12.47,-14.89 12.76,-14.95 13.05,-14.98 13.35,-14.98 13.64,-14.96 13.93,-14.9 14.23,-14.82 14.52,-14.7 14.81,-14.54 15.11,-14.35 15.4,-14.13 15.69,-13.88 15.99,-13.59 16.28,-13.27 16.57,-12.92 16.87,-12.53 17.16,-12.12 17.45,-11.67 17.75,-11.2 18.04,-10.7 18.33,-10.18 18.63,-9.63 18.92,-9.06 19.22,-8.47 19.51,-7.87 19.8,-7.25 20.1,-6.62 20.39,-5.99 20.68,-5.34 20.98,-4.7 21.27,-4.06 21.56,-3.43 21.86,-2.8 22.15,-2.18 22.44,-1.57 22.74,-0.98 23.03,-0.41 23.32,0.15 23.62,0.69 23.91,1.21 24.2,1.72 24.5,2.2 24.79,2.66 25.08,3.09 25.38,3.51 25.67,3.9 25.96,4.27 26.26,4.62 26.55,4.95 26.84,5.25 27.14,5.53 27.43,5.79 27.72,6.03 28.02,6.24 28.31,6.44 28.6,6.61 28.9,6.77 29.19,6.91 29.48,7.03 29.78,7.13 30.07,7.23 30.36,7.3 30.66,7.37 30.95,7.43 31.24,7.48 31.54,7.52 31.83,7.55 32.12,7.58 32.42,7.6 32.71,7.62 33,7.63 33.3,7.64 33.59,7.65 33.88,7.66 34.18,7.66 34.47,7.67 34.76,7.67 35.06,7.67 35.35,7.67 35.64,7.68 35.94,7.68 36.23,7.68 36.52,7.68 36.82,7.68 37.11,7.68 37.4,7.68 " class="primitive"/>
                </g>
                <g transform="translate(73.78,32.04)" id="img-4318db77-75" stroke="#D4CA3A" stroke-dasharray="none" stroke-opacity="1" class="color_2">
                  <path fill="none" d="M-42.13,6.82 L-41.8,6.82 -41.47,6.82 -41.14,6.82 -40.81,6.82 -40.48,6.82 -40.15,6.81 -39.82,6.81 -39.49,6.81 -39.16,6.81 -38.83,6.81 -38.5,6.81 -38.17,6.8 -37.84,6.8 -37.51,6.8 -37.18,6.79 -36.85,6.78 -36.51,6.77 -36.18,6.76 -35.85,6.75 -35.52,6.73 -35.19,6.71 -34.86,6.69 -34.53,6.66 -34.2,6.63 -33.87,6.6 -33.54,6.56 -33.21,6.52 -32.88,6.48 -32.55,6.43 -32.22,6.37 -31.89,6.32 -31.56,6.26 -31.23,6.19 -30.9,6.13 -30.57,6.06 -30.24,5.99 -29.91,5.92 -29.58,5.84 -29.24,5.77 -28.91,5.69 -28.58,5.62 -28.25,5.54 -27.92,5.46 -27.59,5.39 -27.26,5.31 -26.93,5.23 -26.6,5.16 -26.27,5.08 -25.94,5 -25.61,4.93 -25.28,4.86 -24.95,4.79 -24.62,4.72 -24.29,4.66 -23.96,4.6 -23.63,4.54 -23.3,4.49 -22.97,4.44 -22.64,4.39 -22.31,4.35 -21.97,4.31 -21.64,4.28 -21.31,4.24 -20.98,4.21 -20.65,4.17 -20.32,4.14 -19.99,4.1 -19.66,4.06 -19.33,4.01 -19,3.96 -18.67,3.91 -18.34,3.85 -18.01,3.77 -17.68,3.7 -17.35,3.61 -17.02,3.51 -16.69,3.41 -16.36,3.29 -16.03,3.17 -15.7,3.03 -15.37,2.88 -15.04,2.72 -14.71,2.55 -14.37,2.36 -14.04,2.15 -13.71,1.94 -13.38,1.7 -13.05,1.45 -12.72,1.17 -12.39,0.88 -12.06,0.57 -11.73,0.24 -11.4,-0.11 -11.07,-0.48 -10.74,-0.86 -10.41,-1.27 -10.08,-1.69 -9.75,-2.12 -9.42,-2.56 -9.09,-3.01 -8.76,-3.46 -8.43,-3.91 -8.1,-4.35 -7.77,-4.79 -7.44,-5.21 -7.1,-5.62 -6.77,-6.02 -6.44,-6.39 -6.11,-6.75 -5.78,-7.09 -5.45,-7.41 -5.12,-7.72 -4.79,-8.02 -4.46,-8.32 -4.13,-8.62 -3.8,-8.93 -3.47,-9.25 -3.14,-9.59 -2.81,-9.96 -2.48,-10.35 -2.15,-10.78 -1.82,-11.25 -1.49,-11.74 -1.16,-12.28 -0.83,-12.84 -0.5,-13.44 -0.17,-14.06 0.17,-14.69 0.5,-15.33 0.83,-15.96 1.16,-16.58 1.49,-17.18 1.82,-17.75 2.15,-18.27 2.48,-18.74 2.81,-19.14 3.14,-19.48 3.47,-19.73 3.8,-19.91 4.13,-20.01 4.46,-20.01 4.79,-19.94 5.12,-19.77 5.45,-19.52 5.78,-19.19 6.11,-18.79 6.44,-18.31 6.77,-17.76 7.1,-17.16 7.44,-16.5 7.77,-15.79 8.1,-15.05 8.43,-14.27 8.76,-13.47 9.09,-12.65 9.42,-11.82 9.75,-11 10.08,-10.18 10.41,-9.38 10.74,-8.6 11.07,-7.84 11.4,-7.12 11.73,-6.44 12.06,-5.8 12.39,-5.21 12.72,-4.66 13.05,-4.16 13.38,-3.7 13.71,-3.28 14.04,-2.91 14.37,-2.57 14.71,-2.26 15.04,-1.97 15.37,-1.71 15.7,-1.46 16.03,-1.22 16.36,-0.98 16.69,-0.74 17.02,-0.5 17.35,-0.25 17.68,0 18.01,0.27 18.34,0.54 18.67,0.83 19,1.12 19.33,1.41 19.66,1.71 19.99,2 20.32,2.29 20.65,2.57 20.98,2.84 21.31,3.1 21.64,3.33 21.97,3.55 22.31,3.75 22.64,3.93 22.97,4.08 23.3,4.22 23.63,4.33 23.96,4.43 24.29,4.51 24.62,4.58 24.95,4.64 25.28,4.69 25.61,4.74 25.94,4.78 26.27,4.82 26.6,4.86 26.93,4.91 27.26,4.95 27.59,5.01 27.92,5.07 28.25,5.14 28.58,5.21 28.91,5.29 29.24,5.37 29.58,5.46 29.91,5.55 30.24,5.65 30.57,5.74 30.9,5.84 31.23,5.93 31.56,6.02 31.89,6.11 32.22,6.19 32.55,6.27 32.88,6.34 33.21,6.41 33.54,6.47 33.87,6.52 34.2,6.57 34.53,6.61 34.86,6.65 35.19,6.68 35.52,6.7 35.85,6.73 36.18,6.74 36.51,6.76 36.85,6.77 37.18,6.78 37.51,6.79 37.84,6.8 38.17,6.8 38.5,6.81 38.83,6.81 39.16,6.81 39.49,6.81 39.82,6.81 40.15,6.81 40.48,6.82 40.81,6.82 41.14,6.82 41.47,6.82 41.8,6.82 42.13,6.82 " class="primitive"/>
                </g>
              </g>
            </g>
          </g>
        </g>
        <g class="guide ylabels" font-size="2.82" font-family="'PT Sans Caption','Helvetica Neue','Helvetica',sans-serif" fill="#6C606B" id="img-4318db77-76">
          <g transform="translate(23.9,38.86)" id="img-4318db77-77">
            <g class="primitive">
              <text text-anchor="end" dy="0.35em">0.0</text>
            </g>
          </g>
          <g transform="translate(23.9,32.89)" id="img-4318db77-78">
            <g class="primitive">
              <text text-anchor="end" dy="0.35em">0.1</text>
            </g>
          </g>
          <g transform="translate(23.9,26.91)" id="img-4318db77-79">
            <g class="primitive">
              <text text-anchor="end" dy="0.35em">0.2</text>
            </g>
          </g>
          <g transform="translate(23.9,20.94)" id="img-4318db77-80">
            <g class="primitive">
              <text text-anchor="end" dy="0.35em">0.3</text>
            </g>
          </g>
          <g transform="translate(23.9,14.97)" id="img-4318db77-81">
            <g class="primitive">
              <text text-anchor="end" dy="0.35em">0.4</text>
            </g>
          </g>
          <g transform="translate(23.9,9)" id="img-4318db77-82">
            <g class="primitive">
              <text text-anchor="end" dy="0.35em">0.5</text>
            </g>
          </g>
        </g>
        <g font-size="3.88" font-family="'PT Sans','Helvetica Neue','Helvetica',sans-serif" fill="#564A55" stroke="#000000" stroke-opacity="0.000" id="img-4318db77-83">
          <g transform="translate(16.88,23.93)" id="img-4318db77-84">
            <g class="primitive">
              <text text-anchor="end" dy="0.35em">A</text>
            </g>
          </g>
        </g>
      </g>
    </g>
  </g>
  <g font-size="3.88" font-family="'PT Sans','Helvetica Neue','Helvetica',sans-serif" fill="#564A55" stroke="#000000" stroke-opacity="0.000" id="img-4318db77-85">
    <g transform="translate(8.81,43.19)" id="img-4318db77-86">
      <g class="primitive">
        <text text-anchor="middle" dy="0.35em" transform="rotate(-90,0, 2)">Density</text>
      </g>
    </g>
  </g>
</g>
<defs>
  <clipPath id="img-4318db77-14">
    <path d="M12.61,5 L127.47,5 127.47,85.39 12.61,85.39 " />
  </clipPath>
  <clipPath id="img-4318db77-23">
    <path d="M24.9,44.86 L125.47,44.86 125.47,80.72 24.9,80.72 " />
  </clipPath>
  <clipPath id="img-4318db77-54">
    <path d="M24.9,7 L125.47,7 125.47,40.86 24.9,40.86 " />
  </clipPath>
</defs>
</svg>
