<?xml version="1.0" encoding="UTF-8"?>
<svg xmlns="http://www.w3.org/2000/svg"
     xmlns:xlink="http://www.w3.org/1999/xlink"
     xmlns:gadfly="http://www.gadflyjl.org/ns"
     version="1.2"
     width="141.42mm" height="100mm" viewBox="0 0 141.42 100"
     stroke="none"
     fill="#000000"
     stroke-width="0.3"
     font-size="3.88"
>
<defs>
  <marker id="arrow" markerWidth="15" markerHeight="7" refX="5" refY="3.5" orient="auto" markerUnits="strokeWidth">
    <path d="M0,0 L15,3.5 L0,7 z" stroke="context-stroke" fill="context-stroke"/>
  </marker>
</defs>
<g class="plotroot xscalable yscalable" id="img-f170a20e-1">
  <g font-size="3.88" font-family="'PT Sans','Helvetica Neue','Helvetica',sans-serif" fill="#564A55" stroke="#000000" stroke-opacity="0.000" id="img-f170a20e-2">
    <g transform="translate(73.05,88.39)">
      <g class="primitive">
        <text text-anchor="middle" dy="0.6em">A</text>
      </g>
    </g>
  </g>
  <g class="guide xlabels" font-size="2.82" font-family="'PT Sans Caption','Helvetica Neue','Helvetica',sans-serif" fill="#6C606B" id="img-f170a20e-3">
    <g transform="translate(20.63,81.72)">
      <g class="primitive">
        <text text-anchor="middle" dy="0.6em">-5</text>
      </g>
    </g>
    <g transform="translate(73.05,81.72)">
      <g class="primitive">
        <text text-anchor="middle" dy="0.6em">0</text>
      </g>
    </g>
    <g transform="translate(125.47,81.72)">
      <g class="primitive">
        <text text-anchor="middle" dy="0.6em">5</text>
      </g>
    </g>
  </g>
  <g class="guide colorkey" id="img-f170a20e-4">
    <g fill="#4C404B" font-size="2.82" font-family="'PT Sans','Helvetica Neue','Helvetica',sans-serif" id="img-f170a20e-5">
      <g transform="translate(131.29,41.04)" id="img-f170a20e-6" class="color_1">
        <g class="primitive">
          <text dy="0.35em">1</text>
        </g>
      </g>
      <g transform="translate(131.29,44.67)" id="img-f170a20e-7" class="color_2">
        <g class="primitive">
          <text dy="0.35em">2</text>
        </g>
      </g>
      <g transform="translate(131.29,48.3)" id="img-f170a20e-8" class="color_3">
        <g class="primitive">
          <text dy="0.35em">3</text>
        </g>
      </g>
    </g>
    <g fill-opacity="1" id="img-f170a20e-9">
      <g transform="translate(129.38,41.04)" id="img-f170a20e-10" stroke="#FFFFFF" fill="#00BFFF" class="color_1">
        <path d="M-0.91,-0.91 L0.91,-0.91 0.91,0.91 -0.91,0.91  z" class="primitive"/>
      </g>
      <g transform="translate(129.38,44.67)" id="img-f170a20e-11" stroke="#FFFFFF" fill="#D4CA3A" class="color_2">
        <path d="M-0.91,-0.91 L0.91,-0.91 0.91,0.91 -0.91,0.91  z" class="primitive"/>
      </g>
      <g transform="translate(129.38,48.3)" id="img-f170a20e-12" stroke="#FFFFFF" fill="#FF6DAE" class="color_3">
        <path d="M-0.91,-0.91 L0.91,-0.91 0.91,0.91 -0.91,0.91  z" class="primitive"/>
      </g>
    </g>
    <g fill="#362A35" font-size="3.88" font-family="'PT Sans','Helvetica Neue','Helvetica',sans-serif" stroke="#000000" stroke-opacity="0.000" id="img-f170a20e-13">
      <g transform="translate(128.47,37.22)" id="img-f170a20e-14">
        <g class="primitive">
          <text dy="-0em">chain</text>
        </g>
      </g>
    </g>
  </g>
  <g clip-path="url(#img-f170a20e-15)">
    <g id="img-f170a20e-16">
      <g pointer-events="visible" stroke-width="0.3" fill="#000000" fill-opacity="0.000" stroke="#000000" stroke-opacity="0.000" class="guide background" id="img-f170a20e-17">
        <g transform="translate(73.05,42.86)" id="img-f170a20e-18">
          <path d="M-54.42,-37.86 L54.42,-37.86 54.42,37.86 -54.42,37.86  z" class="primitive"/>
        </g>
      </g>
      <g class="guide ygridlines xfixed" stroke-dasharray="0.5,0.5" stroke-width="0.2" stroke="#D0D0E0" id="img-f170a20e-19">
        <g transform="translate(73.05,78.71)" id="img-f170a20e-20">
          <path fill="none" d="M-54.42,0 L54.42,0 " class="primitive"/>
        </g>
        <g transform="translate(73.05,64.37)" id="img-f170a20e-21">
          <path fill="none" d="M-54.42,0 L54.42,0 " class="primitive"/>
        </g>
        <g transform="translate(73.05,50.03)" id="img-f170a20e-22">
          <path fill="none" d="M-54.42,0 L54.42,0 " class="primitive"/>
        </g>
        <g transform="translate(73.05,35.69)" id="img-f170a20e-23">
          <path fill="none" d="M-54.42,0 L54.42,0 " class="primitive"/>
        </g>
        <g transform="translate(73.05,21.34)" id="img-f170a20e-24">
          <path fill="none" d="M-54.42,0 L54.42,0 " class="primitive"/>
        </g>
        <g transform="translate(73.05,7)" id="img-f170a20e-25">
          <path fill="none" d="M-54.42,0 L54.42,0 " class="primitive"/>
        </g>
      </g>
      <g class="guide xgridlines yfixed" stroke-dasharray="0.5,0.5" stroke-width="0.2" stroke="#D0D0E0" id="img-f170a20e-26">
        <g transform="translate(20.63,42.86)" id="img-f170a20e-27">
          <path fill="none" d="M0,-37.86 L0,37.86 " class="primitive"/>
        </g>
        <g transform="translate(73.05,42.86)" id="img-f170a20e-28">
          <path fill="none" d="M0,-37.86 L0,37.86 " class="primitive"/>
        </g>
        <g transform="translate(125.47,42.86)" id="img-f170a20e-29">
          <path fill="none" d="M0,-37.86 L0,37.86 " class="primitive"/>
        </g>
      </g>
      <g class="plotpanel" id="img-f170a20e-30">
        <metadata>
          <boundingbox value="18.63166666666666mm 5.0mm 108.84302290397619mm 75.715mm"/>
          <unitbox value="-5.190761382551108 0.5139440842222687 10.381522765102215 -0.5278881684445375"/>
        </metadata>
        <g stroke-width="0.3" fill="#000000" fill-opacity="0.000" class="geometry" id="img-f170a20e-31">
          <g transform="translate(74.82,59.18)" id="img-f170a20e-32" stroke-dasharray="none" stroke-opacity="1" class="color_3" stroke="#FF6DAE">
            <path fill="none" d="M-38.34,19.53 L-38.04,19.53 -37.74,19.53 -37.44,19.53 -37.14,19.53 -36.84,19.53 -36.54,19.53 -36.24,19.53 -35.94,19.52 -35.64,19.52 -35.34,19.52 -35.04,19.51 -34.73,19.5 -34.43,19.5 -34.13,19.49 -33.83,19.47 -33.53,19.46 -33.23,19.44 -32.93,19.41 -32.63,19.38 -32.33,19.34 -32.03,19.3 -31.73,19.25 -31.43,19.19 -31.13,19.12 -30.82,19.04 -30.52,18.95 -30.22,18.85 -29.92,18.73 -29.62,18.6 -29.32,18.46 -29.02,18.3 -28.72,18.12 -28.42,17.93 -28.12,17.73 -27.82,17.51 -27.52,17.27 -27.22,17.02 -26.92,16.76 -26.61,16.48 -26.31,16.19 -26.01,15.89 -25.71,15.57 -25.41,15.23 -25.11,14.88 -24.81,14.52 -24.51,14.14 -24.21,13.74 -23.91,13.33 -23.61,12.89 -23.31,12.43 -23.01,11.95 -22.71,11.45 -22.4,10.92 -22.1,10.37 -21.8,9.79 -21.5,9.19 -21.2,8.57 -20.9,7.92 -20.6,7.26 -20.3,6.58 -20,5.89 -19.7,5.19 -19.4,4.49 -19.1,3.79 -18.8,3.1 -18.49,2.41 -18.19,1.74 -17.89,1.09 -17.59,0.45 -17.29,-0.16 -16.99,-0.75 -16.69,-1.32 -16.39,-1.86 -16.09,-2.38 -15.79,-2.89 -15.49,-3.38 -15.19,-3.86 -14.89,-4.33 -14.59,-4.8 -14.28,-5.28 -13.98,-5.77 -13.68,-6.27 -13.38,-6.79 -13.08,-7.34 -12.78,-7.92 -12.48,-8.53 -12.18,-9.18 -11.88,-9.86 -11.58,-10.59 -11.28,-11.35 -10.98,-12.16 -10.68,-13.01 -10.38,-13.9 -10.07,-14.83 -9.77,-15.8 -9.47,-16.8 -9.17,-17.83 -8.87,-18.89 -8.57,-19.98 -8.27,-21.1 -7.97,-22.24 -7.67,-23.4 -7.37,-24.58 -7.07,-25.77 -6.77,-26.98 -6.47,-28.21 -6.16,-29.45 -5.86,-30.7 -5.56,-31.95 -5.26,-33.2 -4.96,-34.45 -4.66,-35.7 -4.36,-36.92 -4.06,-38.12 -3.76,-39.29 -3.46,-40.42 -3.16,-41.48 -2.86,-42.48 -2.56,-43.39 -2.26,-44.2 -1.95,-44.89 -1.65,-45.47 -1.35,-45.9 -1.05,-46.18 -0.75,-46.29 -0.45,-46.24 -0.15,-46.01 0.15,-45.61 0.45,-45.03 0.75,-44.28 1.05,-43.36 1.35,-42.29 1.65,-41.09 1.95,-39.76 2.26,-38.32 2.56,-36.8 2.86,-35.22 3.16,-33.59 3.46,-31.94 3.76,-30.29 4.06,-28.66 4.36,-27.07 4.66,-25.52 4.96,-24.04 5.26,-22.63 5.56,-21.3 5.86,-20.06 6.16,-18.9 6.47,-17.84 6.77,-16.86 7.07,-15.96 7.37,-15.13 7.67,-14.37 7.97,-13.67 8.27,-13.02 8.57,-12.42 8.87,-11.84 9.17,-11.28 9.47,-10.74 9.77,-10.2 10.07,-9.65 10.38,-9.1 10.68,-8.52 10.98,-7.92 11.28,-7.3 11.58,-6.65 11.88,-5.97 12.18,-5.26 12.48,-4.53 12.78,-3.77 13.08,-3 13.38,-2.21 13.68,-1.42 13.98,-0.63 14.28,0.16 14.59,0.94 14.89,1.69 15.19,2.42 15.49,3.12 15.79,3.79 16.09,4.42 16.39,5.01 16.69,5.57 16.99,6.09 17.29,6.57 17.59,7.03 17.89,7.45 18.19,7.86 18.49,8.24 18.8,8.61 19.1,8.98 19.4,9.33 19.7,9.69 20,10.04 20.3,10.4 20.6,10.77 20.9,11.13 21.2,11.5 21.5,11.88 21.8,12.25 22.1,12.63 22.4,13 22.71,13.37 23.01,13.73 23.31,14.09 23.61,14.43 23.91,14.77 24.21,15.09 24.51,15.4 24.81,15.7 25.11,15.98 25.41,16.25 25.71,16.51 26.01,16.75 26.31,16.98 26.61,17.2 26.92,17.41 27.22,17.61 27.52,17.79 27.82,17.97 28.12,18.13 28.42,18.28 28.72,18.42 29.02,18.55 29.32,18.67 29.62,18.78 29.92,18.88 30.22,18.97 30.52,19.05 30.82,19.13 31.13,19.19 31.43,19.24 31.73,19.29 32.03,19.33 32.33,19.37 32.63,19.4 32.93,19.43 33.23,19.45 33.53,19.46 33.83,19.48 34.13,19.49 34.43,19.5 34.73,19.51 35.04,19.51 35.34,19.52 35.64,19.52 35.94,19.52 36.24,19.53 36.54,19.53 36.84,19.53 37.14,19.53 37.44,19.53 37.74,19.53 38.04,19.53 38.34,19.53 " class="primitive"/>
          </g>
          <g transform="translate(68.86,61.68)" id="img-f170a20e-33" stroke-dasharray="none" stroke-opacity="1" class="color_1" stroke="#00BFFF">
            <path fill="none" d="M-43.96,17.03 L-43.62,17.03 -43.27,17.03 -42.93,17.03 -42.58,17.03 -42.24,17.03 -41.89,17.03 -41.55,17.03 -41.2,17.03 -40.86,17.02 -40.51,17.02 -40.17,17.01 -39.82,17.01 -39.48,17 -39.14,16.99 -38.79,16.97 -38.45,16.96 -38.1,16.94 -37.76,16.91 -37.41,16.88 -37.07,16.84 -36.72,16.8 -36.38,16.74 -36.03,16.68 -35.69,16.61 -35.34,16.53 -35,16.44 -34.65,16.34 -34.31,16.23 -33.96,16.11 -33.62,15.97 -33.27,15.83 -32.93,15.68 -32.58,15.52 -32.24,15.36 -31.89,15.19 -31.55,15.02 -31.2,14.85 -30.86,14.68 -30.52,14.52 -30.17,14.37 -29.83,14.23 -29.48,14.09 -29.14,13.98 -28.79,13.87 -28.45,13.79 -28.1,13.71 -27.76,13.66 -27.41,13.61 -27.07,13.58 -26.72,13.56 -26.38,13.55 -26.03,13.54 -25.69,13.53 -25.34,13.52 -25,13.51 -24.65,13.49 -24.31,13.46 -23.96,13.42 -23.62,13.36 -23.27,13.3 -22.93,13.22 -22.58,13.12 -22.24,13.02 -21.9,12.91 -21.55,12.79 -21.21,12.66 -20.86,12.54 -20.52,12.41 -20.17,12.29 -19.83,12.18 -19.48,12.08 -19.14,11.99 -18.79,11.91 -18.45,11.84 -18.1,11.78 -17.76,11.73 -17.41,11.69 -17.07,11.64 -16.72,11.6 -16.38,11.54 -16.03,11.47 -15.69,11.37 -15.34,11.25 -15,11.1 -14.65,10.9 -14.31,10.65 -13.96,10.35 -13.62,9.99 -13.27,9.57 -12.93,9.08 -12.59,8.52 -12.24,7.89 -11.9,7.17 -11.55,6.38 -11.21,5.52 -10.86,4.57 -10.52,3.54 -10.17,2.44 -9.83,1.26 -9.48,0.01 -9.14,-1.31 -8.79,-2.7 -8.45,-4.14 -8.1,-5.64 -7.76,-7.19 -7.41,-8.77 -7.07,-10.38 -6.72,-12.01 -6.38,-13.64 -6.03,-15.27 -5.69,-16.89 -5.34,-18.48 -5,-20.03 -4.65,-21.53 -4.31,-22.98 -3.97,-24.36 -3.62,-25.67 -3.28,-26.91 -2.93,-28.07 -2.59,-29.15 -2.24,-30.15 -1.9,-31.08 -1.55,-31.94 -1.21,-32.74 -0.86,-33.48 -0.52,-34.16 -0.17,-34.8 0.17,-35.39 0.52,-35.95 0.86,-36.48 1.21,-36.98 1.55,-37.45 1.9,-37.89 2.24,-38.31 2.59,-38.69 2.93,-39.04 3.28,-39.36 3.62,-39.63 3.97,-39.85 4.31,-40.01 4.65,-40.12 5,-40.16 5.34,-40.13 5.69,-40.02 6.03,-39.83 6.38,-39.56 6.72,-39.21 7.07,-38.77 7.41,-38.26 7.76,-37.67 8.1,-37.02 8.45,-36.3 8.79,-35.53 9.14,-34.71 9.48,-33.85 9.83,-32.97 10.17,-32.08 10.52,-31.18 10.86,-30.27 11.21,-29.38 11.55,-28.5 11.9,-27.63 12.24,-26.79 12.59,-25.97 12.93,-25.16 13.27,-24.38 13.62,-23.61 13.96,-22.85 14.31,-22.09 14.65,-21.33 15,-20.55 15.34,-19.76 15.69,-18.95 16.03,-18.11 16.38,-17.24 16.72,-16.33 17.07,-15.38 17.41,-14.39 17.76,-13.36 18.1,-12.3 18.45,-11.2 18.79,-10.06 19.14,-8.91 19.48,-7.73 19.83,-6.53 20.17,-5.33 20.52,-4.13 20.86,-2.93 21.21,-1.75 21.55,-0.59 21.9,0.55 22.24,1.64 22.58,2.7 22.93,3.72 23.27,4.68 23.62,5.6 23.96,6.46 24.31,7.27 24.65,8.02 25,8.72 25.34,9.37 25.69,9.97 26.03,10.51 26.38,11.02 26.72,11.48 27.07,11.9 27.41,12.28 27.76,12.64 28.1,12.97 28.45,13.27 28.79,13.55 29.14,13.81 29.48,14.06 29.83,14.29 30.17,14.51 30.52,14.72 30.86,14.92 31.2,15.11 31.55,15.28 31.89,15.45 32.24,15.61 32.58,15.76 32.93,15.9 33.27,16.04 33.62,16.16 33.96,16.27 34.31,16.37 34.65,16.46 35,16.55 35.34,16.62 35.69,16.68 36.03,16.74 36.38,16.79 36.72,16.83 37.07,16.87 37.41,16.9 37.76,16.93 38.1,16.95 38.45,16.97 38.79,16.98 39.14,16.99 39.48,17 39.82,17.01 40.17,17.02 40.51,17.02 40.86,17.03 41.2,17.03 41.55,17.03 41.89,17.03 42.24,17.03 42.58,17.03 42.93,17.03 43.27,17.03 43.62,17.03 43.96,17.04 " class="primitive"/>
          </g>
          <g transform="translate(65.1,61.69)" id="img-f170a20e-34" stroke-dasharray="none" stroke-opacity="1" class="color_2" stroke="#D4CA3A">
            <path fill="none" d="M-43.99,17.03 L-43.64,17.03 -43.3,17.02 -42.95,17.02 -42.61,17.02 -42.26,17.02 -41.92,17.02 -41.57,17.02 -41.23,17.02 -40.88,17.02 -40.54,17.01 -40.19,17.01 -39.85,17 -39.5,16.99 -39.16,16.99 -38.81,16.97 -38.47,16.96 -38.12,16.94 -37.78,16.92 -37.43,16.9 -37.09,16.87 -36.74,16.84 -36.4,16.8 -36.05,16.75 -35.71,16.7 -35.36,16.65 -35.02,16.59 -34.67,16.52 -34.33,16.44 -33.98,16.37 -33.64,16.28 -33.29,16.2 -32.95,16.11 -32.6,16.02 -32.26,15.93 -31.91,15.84 -31.57,15.75 -31.22,15.67 -30.88,15.6 -30.53,15.53 -30.19,15.47 -29.84,15.42 -29.5,15.38 -29.15,15.35 -28.81,15.32 -28.46,15.31 -28.12,15.3 -27.77,15.3 -27.43,15.3 -27.08,15.3 -26.74,15.3 -26.39,15.3 -26.05,15.29 -25.7,15.27 -25.36,15.23 -25.01,15.19 -24.67,15.12 -24.32,15.03 -23.98,14.93 -23.63,14.8 -23.29,14.64 -22.94,14.47 -22.6,14.27 -22.25,14.05 -21.91,13.8 -21.56,13.53 -21.22,13.24 -20.87,12.93 -20.53,12.6 -20.18,12.24 -19.84,11.87 -19.49,11.48 -19.15,11.08 -18.8,10.65 -18.46,10.21 -18.11,9.76 -17.77,9.29 -17.42,8.81 -17.08,8.32 -16.73,7.82 -16.39,7.31 -16.04,6.8 -15.7,6.29 -15.35,5.78 -15.01,5.27 -14.66,4.77 -14.32,4.27 -13.97,3.79 -13.63,3.31 -13.28,2.83 -12.94,2.36 -12.59,1.89 -12.25,1.41 -11.9,0.92 -11.56,0.4 -11.21,-0.15 -10.87,-0.73 -10.52,-1.37 -10.18,-2.06 -9.83,-2.83 -9.49,-3.66 -9.14,-4.59 -8.8,-5.59 -8.45,-6.69 -8.11,-7.88 -7.76,-9.15 -7.42,-10.5 -7.07,-11.92 -6.73,-13.41 -6.38,-14.94 -6.04,-16.5 -5.69,-18.09 -5.35,-19.67 -5,-21.24 -4.66,-22.77 -4.31,-24.26 -3.97,-25.68 -3.62,-27.02 -3.28,-28.28 -2.93,-29.44 -2.59,-30.51 -2.24,-31.48 -1.9,-32.34 -1.55,-33.11 -1.21,-33.79 -0.86,-34.38 -0.52,-34.9 -0.17,-35.35 0.17,-35.73 0.52,-36.07 0.86,-36.36 1.21,-36.61 1.55,-36.84 1.9,-37.03 2.24,-37.2 2.59,-37.34 2.93,-37.46 3.28,-37.54 3.62,-37.6 3.97,-37.62 4.31,-37.6 4.66,-37.53 5,-37.4 5.35,-37.23 5.69,-36.99 6.04,-36.68 6.38,-36.31 6.73,-35.88 7.07,-35.37 7.42,-34.8 7.76,-34.16 8.11,-33.46 8.45,-32.71 8.8,-31.9 9.14,-31.05 9.49,-30.15 9.83,-29.23 10.18,-28.28 10.52,-27.31 10.87,-26.33 11.21,-25.35 11.56,-24.36 11.9,-23.39 12.25,-22.42 12.59,-21.48 12.94,-20.55 13.28,-19.64 13.63,-18.75 13.97,-17.88 14.32,-17.03 14.66,-16.2 15.01,-15.39 15.35,-14.59 15.7,-13.8 16.04,-13.02 16.39,-12.23 16.73,-11.45 17.08,-10.66 17.42,-9.87 17.77,-9.06 18.11,-8.25 18.46,-7.42 18.8,-6.58 19.15,-5.73 19.49,-4.88 19.84,-4.01 20.18,-3.14 20.53,-2.27 20.87,-1.41 21.22,-0.55 21.56,0.29 21.91,1.11 22.25,1.91 22.6,2.68 22.94,3.41 23.29,4.11 23.63,4.77 23.98,5.39 24.32,5.97 24.67,6.51 25.01,7 25.36,7.46 25.7,7.88 26.05,8.26 26.39,8.62 26.74,8.95 27.08,9.27 27.43,9.57 27.77,9.86 28.12,10.15 28.46,10.43 28.81,10.72 29.15,11.01 29.5,11.31 29.84,11.62 30.19,11.93 30.53,12.25 30.88,12.57 31.22,12.9 31.57,13.22 31.91,13.54 32.26,13.86 32.6,14.17 32.95,14.46 33.29,14.75 33.64,15.01 33.98,15.26 34.33,15.49 34.67,15.7 35.02,15.89 35.36,16.06 35.71,16.21 36.05,16.35 36.4,16.46 36.74,16.56 37.09,16.65 37.43,16.72 37.78,16.78 38.12,16.83 38.47,16.87 38.81,16.91 39.16,16.93 39.5,16.95 39.85,16.97 40.19,16.98 40.54,17 40.88,17 41.23,17.01 41.57,17.01 41.92,17.02 42.26,17.02 42.61,17.02 42.95,17.02 43.3,17.02 43.64,17.02 43.99,17.02 " class="primitive"/>
          </g>
        </g>
      </g>
    </g>
  </g>
  <g class="guide ylabels" font-size="2.82" font-family="'PT Sans Caption','Helvetica Neue','Helvetica',sans-serif" fill="#6C606B" id="img-f170a20e-35">
    <g transform="translate(17.63,78.71)" id="img-f170a20e-36">
      <g class="primitive">
        <text text-anchor="end" dy="0.35em">0.0</text>
      </g>
    </g>
    <g transform="translate(17.63,64.37)" id="img-f170a20e-37">
      <g class="primitive">
        <text text-anchor="end" dy="0.35em">0.1</text>
      </g>
    </g>
    <g transform="translate(17.63,50.03)" id="img-f170a20e-38">
      <g class="primitive">
        <text text-anchor="end" dy="0.35em">0.2</text>
      </g>
    </g>
    <g transform="translate(17.63,35.69)" id="img-f170a20e-39">
      <g class="primitive">
        <text text-anchor="end" dy="0.35em">0.3</text>
      </g>
    </g>
    <g transform="translate(17.63,21.34)" id="img-f170a20e-40">
      <g class="primitive">
        <text text-anchor="end" dy="0.35em">0.4</text>
      </g>
    </g>
    <g transform="translate(17.63,7)" id="img-f170a20e-41">
      <g class="primitive">
        <text text-anchor="end" dy="0.35em">0.5</text>
      </g>
    </g>
  </g>
  <g font-size="3.88" font-family="'PT Sans','Helvetica Neue','Helvetica',sans-serif" fill="#564A55" stroke="#000000" stroke-opacity="0.000" id="img-f170a20e-42">
    <g transform="translate(8.81,40.86)" id="img-f170a20e-43">
      <g class="primitive">
        <text text-anchor="middle" dy="0.35em" transform="rotate(-90,0, 2)">Density</text>
      </g>
    </g>
  </g>
</g>
<defs>
  <clipPath id="img-f170a20e-15">
    <path d="M18.63,5 L127.47,5 127.47,80.72 18.63,80.72 " />
  </clipPath>
</defs>
</svg>
