<?xml version="1.0" encoding="UTF-8"?>
<svg xmlns="http://www.w3.org/2000/svg"
     xmlns:xlink="http://www.w3.org/1999/xlink"
     xmlns:gadfly="http://www.gadflyjl.org/ns"
     version="1.2"
     width="141.42mm" height="100mm" viewBox="0 0 141.42 100"
     stroke="none"
     fill="#000000"
     stroke-width="0.3"
     font-size="3.88"
>
<defs>
  <marker id="arrow" markerWidth="15" markerHeight="7" refX="5" refY="3.5" orient="auto" markerUnits="strokeWidth">
    <path d="M0,0 L15,3.5 L0,7 z" stroke="context-stroke" fill="context-stroke"/>
  </marker>
</defs>
<g class="plotroot xscalable yscalable" id="img-23d5e81f-1">
  <g font-size="3.88" font-family="'PT Sans','Helvetica Neue','Helvetica',sans-serif" fill="#564A55" stroke="#000000" stroke-opacity="0.000" id="img-23d5e81f-2">
    <g transform="translate(70.04,88.39)">
      <g class="primitive">
        <text text-anchor="middle" dy="0.6em">value</text>
      </g>
    </g>
  </g>
  <g class="guide colorkey" id="img-23d5e81f-3">
    <g fill="#4C404B" font-size="2.82" font-family="'PT Sans','Helvetica Neue','Helvetica',sans-serif" id="img-23d5e81f-4">
      <g transform="translate(131.29,43.38)" id="img-23d5e81f-5" class="color_1">
        <g class="primitive">
          <text dy="0.35em">1</text>
        </g>
      </g>
      <g transform="translate(131.29,47.01)" id="img-23d5e81f-6" class="color_2">
        <g class="primitive">
          <text dy="0.35em">2</text>
        </g>
      </g>
      <g transform="translate(131.29,50.63)" id="img-23d5e81f-7" class="color_3">
        <g class="primitive">
          <text dy="0.35em">3</text>
        </g>
      </g>
    </g>
    <g fill-opacity="1" id="img-23d5e81f-8">
      <g transform="translate(129.38,43.38)" id="img-23d5e81f-9" stroke="#FFFFFF" class="color_1" fill="#00BFFF">
        <path d="M-0.91,-0.91 L0.91,-0.91 0.91,0.91 -0.91,0.91  z" class="primitive"/>
      </g>
      <g transform="translate(129.38,47.01)" id="img-23d5e81f-10" stroke="#FFFFFF" class="color_2" fill="#D4CA3A">
        <path d="M-0.91,-0.91 L0.91,-0.91 0.91,0.91 -0.91,0.91  z" class="primitive"/>
      </g>
      <g transform="translate(129.38,50.63)" id="img-23d5e81f-11" stroke="#FFFFFF" class="color_3" fill="#FF6DAE">
        <path d="M-0.91,-0.91 L0.91,-0.91 0.91,0.91 -0.91,0.91  z" class="primitive"/>
      </g>
    </g>
    <g fill="#362A35" font-size="3.88" font-family="'PT Sans','Helvetica Neue','Helvetica',sans-serif" stroke="#000000" stroke-opacity="0.000" id="img-23d5e81f-12">
      <g transform="translate(128.47,39.56)" id="img-23d5e81f-13">
        <g class="primitive">
          <text dy="-0em">chain</text>
        </g>
      </g>
    </g>
  </g>
  <g clip-path="url(#img-23d5e81f-14)">
    <g id="img-23d5e81f-15">
      <g class="plotpanel" id="img-23d5e81f-16">
        <metadata>
          <boundingbox value="12.611666666666665mm 5.0mm 114.86302290397617mm 80.38833333333334mm"/>
          <unitbox value="0.0 0.0 1.0 1.0"/>
        </metadata>
        <g class="guide xlabels" font-size="2.82" font-family="'PT Sans Caption','Helvetica Neue','Helvetica',sans-serif" fill="#6C606B" id="img-23d5e81f-17">
          <g transform="translate(26.9,81.72)" id="img-23d5e81f-18">
            <g class="primitive">
              <text text-anchor="middle" dy="0.6em">-5</text>
            </g>
          </g>
          <g transform="translate(75.19,81.72)" id="img-23d5e81f-19">
            <g class="primitive">
              <text text-anchor="middle" dy="0.6em">0</text>
            </g>
          </g>
          <g transform="translate(123.47,81.72)" id="img-23d5e81f-20">
            <g class="primitive">
              <text text-anchor="middle" dy="0.6em">5</text>
            </g>
          </g>
        </g>
        <g clip-path="url(#img-23d5e81f-21)">
          <g id="img-23d5e81f-22">
            <g pointer-events="visible" stroke-width="0.3" fill="#000000" fill-opacity="0.000" stroke="#000000" stroke-opacity="0.000" class="guide background" id="img-23d5e81f-23">
              <g transform="translate(75.19,62.79)" id="img-23d5e81f-24">
                <path d="M-50.28,-17.93 L50.28,-17.93 50.28,17.93 -50.28,17.93  z" class="primitive"/>
              </g>
            </g>
            <g class="guide ygridlines xfixed" stroke-dasharray="0.5,0.5" stroke-width="0.2" stroke="#D0D0E0" id="img-23d5e81f-25">
              <g transform="translate(75.19,78.72)" id="img-23d5e81f-26">
                <path fill="none" d="M-50.28,0 L50.28,0 " class="primitive"/>
              </g>
              <g transform="translate(75.19,72.34)" id="img-23d5e81f-27">
                <path fill="none" d="M-50.28,0 L50.28,0 " class="primitive"/>
              </g>
              <g transform="translate(75.19,65.97)" id="img-23d5e81f-28">
                <path fill="none" d="M-50.28,0 L50.28,0 " class="primitive"/>
              </g>
              <g transform="translate(75.19,59.6)" id="img-23d5e81f-29">
                <path fill="none" d="M-50.28,0 L50.28,0 " class="primitive"/>
              </g>
              <g transform="translate(75.19,53.23)" id="img-23d5e81f-30">
                <path fill="none" d="M-50.28,0 L50.28,0 " class="primitive"/>
              </g>
              <g transform="translate(75.19,46.86)" id="img-23d5e81f-31">
                <path fill="none" d="M-50.28,0 L50.28,0 " class="primitive"/>
              </g>
            </g>
            <g class="guide xgridlines yfixed" stroke-dasharray="0.5,0.5" stroke-width="0.2" stroke="#D0D0E0" id="img-23d5e81f-32">
              <g transform="translate(26.9,62.79)" id="img-23d5e81f-33">
                <path fill="none" d="M0,-17.93 L0,17.93 " class="primitive"/>
              </g>
              <g transform="translate(75.19,62.79)" id="img-23d5e81f-34">
                <path fill="none" d="M0,-17.93 L0,17.93 " class="primitive"/>
              </g>
              <g transform="translate(123.47,62.79)" id="img-23d5e81f-35">
                <path fill="none" d="M0,-17.93 L0,17.93 " class="primitive"/>
              </g>
            </g>
            <g class="plotpanel" id="img-23d5e81f-36">
              <metadata>
                <boundingbox value="24.904999999999987mm 44.8575mm 100.56968957064285mm 35.8575mm"/>
                <unitbox value="-5.207104321127279 0.5313897826257553 10.414208642254557 -0.5627795652515106"/>
              </metadata>
              <g stroke-width="0.3" fill="#000000" fill-opacity="0.000" class="geometry" id="img-23d5e81f-37">
                <g transform="translate(76.63,70.79)" id="img-23d5e81f-38" stroke-opacity="1" class="color_3" stroke-dasharray="none" stroke="#FF6DAE">
                  <path fill="none" d="M-38.65,7.93 L-38.35,7.93 -38.04,7.93 -37.74,7.93 -37.44,7.93 -37.13,7.92 -36.83,7.92 -36.53,7.92 -36.22,7.92 -35.92,7.92 -35.62,7.91 -35.32,7.91 -35.01,7.9 -34.71,7.89 -34.41,7.88 -34.1,7.87 -33.8,7.86 -33.5,7.84 -33.19,7.81 -32.89,7.79 -32.59,7.75 -32.28,7.71 -31.98,7.67 -31.68,7.62 -31.37,7.55 -31.07,7.48 -30.77,7.4 -30.47,7.31 -30.16,7.21 -29.86,7.09 -29.56,6.97 -29.25,6.83 -28.95,6.69 -28.65,6.53 -28.34,6.36 -28.04,6.18 -27.74,5.99 -27.43,5.8 -27.13,5.6 -26.83,5.4 -26.52,5.2 -26.22,5 -25.92,4.8 -25.62,4.6 -25.31,4.42 -25.01,4.24 -24.71,4.07 -24.4,3.91 -24.1,3.77 -23.8,3.64 -23.49,3.52 -23.19,3.41 -22.89,3.31 -22.58,3.22 -22.28,3.14 -21.98,3.06 -21.67,2.99 -21.37,2.92 -21.07,2.84 -20.76,2.76 -20.46,2.68 -20.16,2.58 -19.86,2.48 -19.55,2.35 -19.25,2.21 -18.95,2.06 -18.64,1.88 -18.34,1.68 -18.04,1.46 -17.73,1.22 -17.43,0.95 -17.13,0.67 -16.82,0.36 -16.52,0.03 -16.22,-0.31 -15.91,-0.68 -15.61,-1.07 -15.31,-1.47 -15.01,-1.89 -14.7,-2.32 -14.4,-2.77 -14.1,-3.23 -13.79,-3.7 -13.49,-4.19 -13.19,-4.68 -12.88,-5.19 -12.58,-5.7 -12.28,-6.22 -11.97,-6.75 -11.67,-7.28 -11.37,-7.82 -11.06,-8.35 -10.76,-8.88 -10.46,-9.41 -10.16,-9.93 -9.85,-10.44 -9.55,-10.94 -9.25,-11.41 -8.94,-11.87 -8.64,-12.3 -8.34,-12.7 -8.03,-13.07 -7.73,-13.41 -7.43,-13.71 -7.12,-13.98 -6.82,-14.2 -6.52,-14.39 -6.21,-14.54 -5.91,-14.64 -5.61,-14.72 -5.3,-14.75 -5,-14.75 -4.7,-14.73 -4.4,-14.67 -4.09,-14.6 -3.79,-14.5 -3.49,-14.39 -3.18,-14.26 -2.88,-14.13 -2.58,-14 -2.27,-13.86 -1.97,-13.73 -1.67,-13.6 -1.36,-13.48 -1.06,-13.37 -0.76,-13.26 -0.45,-13.17 -0.15,-13.09 0.15,-13.02 0.45,-12.96 0.76,-12.9 1.06,-12.85 1.36,-12.8 1.67,-12.75 1.97,-12.7 2.27,-12.64 2.58,-12.56 2.88,-12.48 3.18,-12.38 3.49,-12.26 3.79,-12.12 4.09,-11.95 4.4,-11.76 4.7,-11.54 5,-11.3 5.3,-11.02 5.61,-10.72 5.91,-10.39 6.21,-10.03 6.52,-9.65 6.82,-9.25 7.12,-8.83 7.43,-8.39 7.73,-7.93 8.03,-7.46 8.34,-6.98 8.64,-6.5 8.94,-6 9.25,-5.51 9.55,-5.02 9.85,-4.53 10.16,-4.04 10.46,-3.56 10.76,-3.09 11.06,-2.62 11.37,-2.17 11.67,-1.73 11.97,-1.3 12.28,-0.88 12.58,-0.47 12.88,-0.08 13.19,0.3 13.49,0.66 13.79,1.01 14.1,1.34 14.4,1.66 14.7,1.97 15.01,2.26 15.31,2.53 15.61,2.79 15.91,3.03 16.22,3.26 16.52,3.48 16.82,3.68 17.13,3.87 17.43,4.05 17.73,4.21 18.04,4.36 18.34,4.5 18.64,4.63 18.95,4.76 19.25,4.87 19.55,4.98 19.86,5.08 20.16,5.18 20.46,5.27 20.76,5.36 21.07,5.45 21.37,5.53 21.67,5.62 21.98,5.7 22.28,5.78 22.58,5.87 22.89,5.95 23.19,6.04 23.49,6.12 23.8,6.21 24.1,6.3 24.4,6.38 24.71,6.47 25.01,6.56 25.31,6.65 25.62,6.74 25.92,6.82 26.22,6.91 26.52,6.99 26.83,7.07 27.13,7.15 27.43,7.22 27.74,7.29 28.04,7.36 28.34,7.42 28.65,7.48 28.95,7.53 29.25,7.58 29.56,7.62 29.86,7.67 30.16,7.7 30.47,7.73 30.77,7.76 31.07,7.79 31.37,7.81 31.68,7.83 31.98,7.85 32.28,7.86 32.59,7.87 32.89,7.88 33.19,7.89 33.5,7.9 33.8,7.91 34.1,7.91 34.41,7.91 34.71,7.92 35.01,7.92 35.32,7.92 35.62,7.92 35.92,7.92 36.22,7.93 36.53,7.93 36.83,7.93 37.13,7.93 37.44,7.93 37.74,7.93 38.04,7.93 38.35,7.93 38.65,7.93 " class="primitive"/>
                </g>
                <g transform="translate(73.88,69.82)" id="img-23d5e81f-39" stroke-opacity="1" class="color_1" stroke-dasharray="none" stroke="#00BFFF">
                  <path fill="none" d="M-34.47,8.89 L-34.2,8.89 -33.93,8.89 -33.66,8.89 -33.39,8.89 -33.12,8.89 -32.84,8.89 -32.57,8.89 -32.3,8.88 -32.03,8.88 -31.76,8.88 -31.49,8.87 -31.22,8.87 -30.95,8.86 -30.68,8.85 -30.41,8.84 -30.14,8.82 -29.87,8.8 -29.6,8.78 -29.33,8.75 -29.06,8.72 -28.79,8.68 -28.52,8.63 -28.25,8.57 -27.98,8.51 -27.71,8.44 -27.44,8.36 -27.17,8.27 -26.9,8.17 -26.63,8.06 -26.36,7.94 -26.09,7.82 -25.82,7.69 -25.55,7.56 -25.28,7.42 -25.01,7.27 -24.74,7.13 -24.46,6.98 -24.19,6.84 -23.92,6.7 -23.65,6.56 -23.38,6.42 -23.11,6.29 -22.84,6.16 -22.57,6.04 -22.3,5.92 -22.03,5.8 -21.76,5.69 -21.49,5.59 -21.22,5.48 -20.95,5.39 -20.68,5.3 -20.41,5.21 -20.14,5.13 -19.87,5.05 -19.6,4.98 -19.33,4.92 -19.06,4.86 -18.79,4.81 -18.52,4.77 -18.25,4.74 -17.98,4.71 -17.71,4.69 -17.44,4.67 -17.17,4.65 -16.9,4.63 -16.63,4.61 -16.35,4.59 -16.08,4.55 -15.81,4.51 -15.54,4.45 -15.27,4.38 -15,4.29 -14.73,4.19 -14.46,4.06 -14.19,3.91 -13.92,3.73 -13.65,3.54 -13.38,3.33 -13.11,3.1 -12.84,2.86 -12.57,2.61 -12.3,2.35 -12.03,2.09 -11.76,1.84 -11.49,1.59 -11.22,1.35 -10.95,1.11 -10.68,0.89 -10.41,0.68 -10.14,0.47 -9.87,0.27 -9.6,0.06 -9.33,-0.16 -9.06,-0.4 -8.79,-0.67 -8.52,-0.98 -8.25,-1.33 -7.97,-1.75 -7.7,-2.23 -7.43,-2.78 -7.16,-3.41 -6.89,-4.12 -6.62,-4.91 -6.35,-5.76 -6.08,-6.69 -5.81,-7.67 -5.54,-8.69 -5.27,-9.75 -5,-10.82 -4.73,-11.89 -4.46,-12.94 -4.19,-13.96 -3.92,-14.92 -3.65,-15.82 -3.38,-16.65 -3.11,-17.38 -2.84,-18.03 -2.57,-18.58 -2.3,-19.03 -2.03,-19.39 -1.76,-19.66 -1.49,-19.85 -1.22,-19.97 -0.95,-20.03 -0.68,-20.04 -0.41,-20.01 -0.14,-19.96 0.14,-19.88 0.41,-19.8 0.68,-19.71 0.95,-19.62 1.22,-19.53 1.49,-19.44 1.76,-19.35 2.03,-19.26 2.3,-19.15 2.57,-19.03 2.84,-18.89 3.11,-18.72 3.38,-18.51 3.65,-18.26 3.92,-17.96 4.19,-17.61 4.46,-17.22 4.73,-16.77 5,-16.28 5.27,-15.74 5.54,-15.16 5.81,-14.55 6.08,-13.92 6.35,-13.27 6.62,-12.61 6.89,-11.96 7.16,-11.32 7.43,-10.7 7.7,-10.11 7.97,-9.54 8.25,-9.02 8.52,-8.53 8.79,-8.09 9.06,-7.7 9.33,-7.34 9.6,-7.03 9.87,-6.75 10.14,-6.51 10.41,-6.3 10.68,-6.11 10.95,-5.95 11.22,-5.8 11.49,-5.65 11.76,-5.51 12.03,-5.36 12.3,-5.21 12.57,-5.04 12.84,-4.86 13.11,-4.65 13.38,-4.41 13.65,-4.14 13.92,-3.85 14.19,-3.52 14.46,-3.15 14.73,-2.75 15,-2.32 15.27,-1.87 15.54,-1.39 15.81,-0.88 16.08,-0.36 16.35,0.17 16.63,0.7 16.9,1.23 17.17,1.76 17.44,2.28 17.71,2.78 17.98,3.25 18.25,3.71 18.52,4.13 18.79,4.52 19.06,4.89 19.33,5.22 19.6,5.52 19.87,5.79 20.14,6.03 20.41,6.24 20.68,6.42 20.95,6.59 21.22,6.73 21.49,6.86 21.76,6.97 22.03,7.07 22.3,7.16 22.57,7.24 22.84,7.31 23.11,7.39 23.38,7.46 23.65,7.53 23.92,7.6 24.19,7.67 24.46,7.75 24.74,7.82 25.01,7.9 25.28,7.97 25.55,8.05 25.82,8.12 26.09,8.2 26.36,8.27 26.63,8.34 26.9,8.4 27.17,8.46 27.44,8.52 27.71,8.57 27.98,8.62 28.25,8.66 28.52,8.7 28.79,8.73 29.06,8.76 29.33,8.79 29.6,8.81 29.87,8.82 30.14,8.84 30.41,8.85 30.68,8.86 30.95,8.87 31.22,8.87 31.49,8.88 31.76,8.88 32.03,8.88 32.3,8.89 32.57,8.89 32.84,8.89 33.12,8.89 33.39,8.89 33.66,8.89 33.93,8.89 34.2,8.89 34.47,8.89 " class="primitive"/>
                </g>
                <g transform="translate(74.58,70.01)" id="img-23d5e81f-40" stroke-opacity="1" class="color_2" stroke-dasharray="none" stroke="#D4CA3A">
                  <path fill="none" d="M-35.22,8.7 L-34.94,8.7 -34.66,8.7 -34.39,8.7 -34.11,8.7 -33.84,8.7 -33.56,8.7 -33.28,8.7 -33.01,8.7 -32.73,8.7 -32.45,8.7 -32.18,8.7 -31.9,8.7 -31.63,8.69 -31.35,8.69 -31.07,8.69 -30.8,8.69 -30.52,8.68 -30.25,8.68 -29.97,8.67 -29.69,8.66 -29.42,8.66 -29.14,8.65 -28.86,8.63 -28.59,8.62 -28.31,8.61 -28.04,8.59 -27.76,8.57 -27.48,8.54 -27.21,8.52 -26.93,8.48 -26.65,8.45 -26.38,8.41 -26.1,8.37 -25.83,8.32 -25.55,8.26 -25.27,8.2 -25,8.13 -24.72,8.06 -24.44,7.98 -24.17,7.89 -23.89,7.79 -23.62,7.68 -23.34,7.57 -23.06,7.44 -22.79,7.31 -22.51,7.16 -22.24,7 -21.96,6.83 -21.68,6.65 -21.41,6.45 -21.13,6.24 -20.85,6.02 -20.58,5.79 -20.3,5.54 -20.03,5.28 -19.75,5.01 -19.47,4.73 -19.2,4.43 -18.92,4.13 -18.64,3.82 -18.37,3.5 -18.09,3.17 -17.82,2.84 -17.54,2.5 -17.26,2.17 -16.99,1.83 -16.71,1.49 -16.43,1.16 -16.16,0.83 -15.88,0.5 -15.61,0.18 -15.33,-0.13 -15.05,-0.44 -14.78,-0.74 -14.5,-1.04 -14.22,-1.32 -13.95,-1.6 -13.67,-1.88 -13.4,-2.15 -13.12,-2.41 -12.84,-2.68 -12.57,-2.94 -12.29,-3.2 -12.02,-3.46 -11.74,-3.73 -11.46,-3.99 -11.19,-4.26 -10.91,-4.54 -10.63,-4.82 -10.36,-5.1 -10.08,-5.39 -9.81,-5.68 -9.53,-5.98 -9.25,-6.28 -8.98,-6.59 -8.7,-6.89 -8.42,-7.2 -8.15,-7.51 -7.87,-7.82 -7.6,-8.12 -7.32,-8.43 -7.04,-8.73 -6.77,-9.03 -6.49,-9.33 -6.21,-9.62 -5.94,-9.91 -5.66,-10.2 -5.39,-10.49 -5.11,-10.77 -4.83,-11.05 -4.56,-11.33 -4.28,-11.61 -4.01,-11.89 -3.73,-12.17 -3.45,-12.44 -3.18,-12.72 -2.9,-12.99 -2.62,-13.25 -2.35,-13.51 -2.07,-13.75 -1.8,-13.99 -1.52,-14.2 -1.24,-14.4 -0.97,-14.58 -0.69,-14.73 -0.41,-14.84 -0.14,-14.93 0.14,-14.98 0.41,-14.99 0.69,-14.96 0.97,-14.89 1.24,-14.77 1.52,-14.61 1.8,-14.41 2.07,-14.17 2.35,-13.88 2.62,-13.56 2.9,-13.21 3.18,-12.82 3.45,-12.41 3.73,-11.98 4.01,-11.54 4.28,-11.08 4.56,-10.62 4.83,-10.16 5.11,-9.7 5.39,-9.26 5.66,-8.82 5.94,-8.41 6.21,-8.01 6.49,-7.64 6.77,-7.29 7.04,-6.97 7.32,-6.68 7.6,-6.42 7.87,-6.18 8.15,-5.97 8.42,-5.79 8.7,-5.63 8.98,-5.49 9.25,-5.37 9.53,-5.27 9.81,-5.18 10.08,-5.1 10.36,-5.04 10.63,-4.97 10.91,-4.92 11.19,-4.86 11.46,-4.8 11.74,-4.74 12.02,-4.67 12.29,-4.59 12.57,-4.51 12.84,-4.42 13.12,-4.31 13.4,-4.19 13.67,-4.07 13.95,-3.92 14.22,-3.77 14.5,-3.6 14.78,-3.42 15.05,-3.23 15.33,-3.02 15.61,-2.8 15.88,-2.57 16.16,-2.33 16.43,-2.07 16.71,-1.81 16.99,-1.53 17.26,-1.24 17.54,-0.94 17.82,-0.63 18.09,-0.31 18.37,0.02 18.64,0.36 18.92,0.7 19.2,1.05 19.47,1.41 19.75,1.77 20.03,2.13 20.3,2.49 20.58,2.85 20.85,3.2 21.13,3.56 21.41,3.91 21.68,4.25 21.96,4.58 22.24,4.9 22.51,5.21 22.79,5.51 23.06,5.79 23.34,6.06 23.62,6.32 23.89,6.56 24.17,6.78 24.44,6.99 24.72,7.18 25,7.36 25.27,7.52 25.55,7.67 25.83,7.8 26.1,7.92 26.38,8.03 26.65,8.12 26.93,8.21 27.21,8.28 27.48,8.34 27.76,8.4 28.04,8.45 28.31,8.49 28.59,8.53 28.86,8.56 29.14,8.58 29.42,8.6 29.69,8.62 29.97,8.64 30.25,8.65 30.52,8.66 30.8,8.67 31.07,8.68 31.35,8.68 31.63,8.69 31.9,8.69 32.18,8.69 32.45,8.69 32.73,8.7 33.01,8.7 33.28,8.7 33.56,8.7 33.84,8.7 34.11,8.7 34.39,8.7 34.66,8.7 34.94,8.7 35.22,8.7 " class="primitive"/>
                </g>
              </g>
            </g>
          </g>
        </g>
        <g class="guide ylabels" font-size="2.82" font-family="'PT Sans Caption','Helvetica Neue','Helvetica',sans-serif" fill="#6C606B" id="img-23d5e81f-41">
          <g transform="translate(23.9,78.72)" id="img-23d5e81f-42">
            <g class="primitive">
              <text text-anchor="end" dy="0.35em">0.0</text>
            </g>
          </g>
          <g transform="translate(23.9,72.34)" id="img-23d5e81f-43">
            <g class="primitive">
              <text text-anchor="end" dy="0.35em">0.1</text>
            </g>
          </g>
          <g transform="translate(23.9,65.97)" id="img-23d5e81f-44">
            <g class="primitive">
              <text text-anchor="end" dy="0.35em">0.2</text>
            </g>
          </g>
          <g transform="translate(23.9,59.6)" id="img-23d5e81f-45">
            <g class="primitive">
              <text text-anchor="end" dy="0.35em">0.3</text>
            </g>
          </g>
          <g transform="translate(23.9,53.23)" id="img-23d5e81f-46">
            <g class="primitive">
              <text text-anchor="end" dy="0.35em">0.4</text>
            </g>
          </g>
          <g transform="translate(23.9,46.86)" id="img-23d5e81f-47">
            <g class="primitive">
              <text text-anchor="end" dy="0.35em">0.5</text>
            </g>
          </g>
        </g>
        <g font-size="3.88" font-family="'PT Sans','Helvetica Neue','Helvetica',sans-serif" fill="#564A55" stroke="#000000" stroke-opacity="0.000" id="img-23d5e81f-48">
          <g transform="translate(16.88,62.79)" id="img-23d5e81f-49">
            <g class="primitive">
              <text text-anchor="end" dy="0.35em">B</text>
            </g>
          </g>
        </g>
        <g clip-path="url(#img-23d5e81f-50)">
          <g id="img-23d5e81f-51">
            <g pointer-events="visible" stroke-width="0.3" fill="#000000" fill-opacity="0.000" stroke="#000000" stroke-opacity="0.000" class="guide background" id="img-23d5e81f-52">
              <g transform="translate(75.19,23.93)" id="img-23d5e81f-53">
                <path d="M-50.28,-16.93 L50.28,-16.93 50.28,16.93 -50.28,16.93  z" class="primitive"/>
              </g>
            </g>
            <g class="guide ygridlines xfixed" stroke-dasharray="0.5,0.5" stroke-width="0.2" stroke="#D0D0E0" id="img-23d5e81f-54">
              <g transform="translate(75.19,38.86)" id="img-23d5e81f-55">
                <path fill="none" d="M-50.28,0 L50.28,0 " class="primitive"/>
              </g>
              <g transform="translate(75.19,32.89)" id="img-23d5e81f-56">
                <path fill="none" d="M-50.28,0 L50.28,0 " class="primitive"/>
              </g>
              <g transform="translate(75.19,26.91)" id="img-23d5e81f-57">
                <path fill="none" d="M-50.28,0 L50.28,0 " class="primitive"/>
              </g>
              <g transform="translate(75.19,20.94)" id="img-23d5e81f-58">
                <path fill="none" d="M-50.28,0 L50.28,0 " class="primitive"/>
              </g>
              <g transform="translate(75.19,14.97)" id="img-23d5e81f-59">
                <path fill="none" d="M-50.28,0 L50.28,0 " class="primitive"/>
              </g>
              <g transform="translate(75.19,9)" id="img-23d5e81f-60">
                <path fill="none" d="M-50.28,0 L50.28,0 " class="primitive"/>
              </g>
            </g>
            <g class="guide xgridlines yfixed" stroke-dasharray="0.5,0.5" stroke-width="0.2" stroke="#D0D0E0" id="img-23d5e81f-61">
              <g transform="translate(26.9,23.93)" id="img-23d5e81f-62">
                <path fill="none" d="M0,-16.93 L0,16.93 " class="primitive"/>
              </g>
              <g transform="translate(75.19,23.93)" id="img-23d5e81f-63">
                <path fill="none" d="M0,-16.93 L0,16.93 " class="primitive"/>
              </g>
              <g transform="translate(123.47,23.93)" id="img-23d5e81f-64">
                <path fill="none" d="M0,-16.93 L0,16.93 " class="primitive"/>
              </g>
            </g>
            <g class="plotpanel" id="img-23d5e81f-65">
              <metadata>
                <boundingbox value="24.904999999999987mm 7.0mm 100.56968957064285mm 33.8575mm"/>
                <unitbox value="-5.207104321127279 0.5334924223394457 10.414208642254557 -0.5669848446788914"/>
              </metadata>
              <g stroke-width="0.3" fill="#000000" fill-opacity="0.000" class="geometry" id="img-23d5e81f-66">
                <g transform="translate(76.82,30.73)" id="img-23d5e81f-67" stroke-opacity="1" class="color_3" stroke-dasharray="none" stroke="#FF6DAE">
                  <path fill="none" d="M-35.32,8.13 L-35.04,8.13 -34.76,8.13 -34.49,8.13 -34.21,8.13 -33.93,8.13 -33.66,8.13 -33.38,8.13 -33.1,8.13 -32.82,8.13 -32.55,8.13 -32.27,8.12 -31.99,8.12 -31.72,8.12 -31.44,8.11 -31.16,8.11 -30.89,8.1 -30.61,8.09 -30.33,8.08 -30.05,8.07 -29.78,8.05 -29.5,8.04 -29.22,8.01 -28.95,7.99 -28.67,7.96 -28.39,7.93 -28.12,7.89 -27.84,7.85 -27.56,7.8 -27.28,7.74 -27.01,7.68 -26.73,7.62 -26.45,7.54 -26.18,7.47 -25.9,7.38 -25.62,7.29 -25.35,7.19 -25.07,7.09 -24.79,6.98 -24.51,6.86 -24.24,6.74 -23.96,6.61 -23.68,6.48 -23.41,6.34 -23.13,6.2 -22.85,6.05 -22.58,5.89 -22.3,5.72 -22.02,5.55 -21.74,5.37 -21.47,5.18 -21.19,4.98 -20.91,4.77 -20.64,4.55 -20.36,4.32 -20.08,4.08 -19.81,3.83 -19.53,3.57 -19.25,3.3 -18.97,3.02 -18.7,2.74 -18.42,2.45 -18.14,2.16 -17.87,1.87 -17.59,1.58 -17.31,1.29 -17.04,1 -16.76,0.72 -16.48,0.45 -16.2,0.19 -15.93,-0.07 -15.65,-0.31 -15.37,-0.55 -15.1,-0.77 -14.82,-0.99 -14.54,-1.2 -14.27,-1.41 -13.99,-1.61 -13.71,-1.8 -13.43,-2 -13.16,-2.2 -12.88,-2.4 -12.6,-2.61 -12.33,-2.83 -12.05,-3.06 -11.77,-3.3 -11.5,-3.55 -11.22,-3.82 -10.94,-4.11 -10.66,-4.41 -10.39,-4.73 -10.11,-5.06 -9.83,-5.42 -9.56,-5.79 -9.28,-6.17 -9,-6.58 -8.73,-6.99 -8.45,-7.42 -8.17,-7.86 -7.89,-8.32 -7.62,-8.78 -7.34,-9.26 -7.06,-9.74 -6.79,-10.23 -6.51,-10.73 -6.23,-11.23 -5.96,-11.75 -5.68,-12.26 -5.4,-12.78 -5.12,-13.3 -4.85,-13.82 -4.57,-14.34 -4.29,-14.86 -4.02,-15.37 -3.74,-15.87 -3.46,-16.36 -3.19,-16.83 -2.91,-17.27 -2.63,-17.68 -2.35,-18.06 -2.08,-18.4 -1.8,-18.69 -1.52,-18.93 -1.25,-19.11 -0.97,-19.22 -0.69,-19.27 -0.42,-19.25 -0.14,-19.16 0.14,-18.99 0.42,-18.75 0.69,-18.43 0.97,-18.05 1.25,-17.61 1.52,-17.11 1.8,-16.55 2.08,-15.95 2.35,-15.32 2.63,-14.66 2.91,-13.99 3.19,-13.3 3.46,-12.61 3.74,-11.93 4.02,-11.27 4.29,-10.63 4.57,-10.01 4.85,-9.42 5.12,-8.87 5.4,-8.35 5.68,-7.87 5.96,-7.43 6.23,-7.02 6.51,-6.64 6.79,-6.3 7.06,-5.98 7.34,-5.69 7.62,-5.42 7.89,-5.17 8.17,-4.93 8.45,-4.7 8.73,-4.47 9,-4.25 9.28,-4.02 9.56,-3.79 9.83,-3.55 10.11,-3.3 10.39,-3.04 10.66,-2.77 10.94,-2.49 11.22,-2.19 11.5,-1.89 11.77,-1.57 12.05,-1.25 12.33,-0.92 12.6,-0.59 12.88,-0.26 13.16,0.07 13.43,0.39 13.71,0.7 13.99,1.01 14.27,1.3 14.54,1.58 14.82,1.84 15.1,2.09 15.37,2.32 15.65,2.53 15.93,2.74 16.2,2.92 16.48,3.1 16.76,3.27 17.04,3.43 17.31,3.59 17.59,3.74 17.87,3.89 18.14,4.03 18.42,4.18 18.7,4.33 18.97,4.48 19.25,4.63 19.53,4.79 19.81,4.94 20.08,5.1 20.36,5.26 20.64,5.41 20.91,5.57 21.19,5.72 21.47,5.87 21.74,6.01 22.02,6.15 22.3,6.28 22.58,6.41 22.85,6.54 23.13,6.65 23.41,6.77 23.68,6.87 23.96,6.97 24.24,7.07 24.51,7.16 24.79,7.25 25.07,7.33 25.35,7.41 25.62,7.48 25.9,7.55 26.18,7.61 26.45,7.67 26.73,7.72 27.01,7.77 27.28,7.82 27.56,7.86 27.84,7.9 28.12,7.93 28.39,7.96 28.67,7.99 28.95,8.01 29.22,8.03 29.5,8.05 29.78,8.06 30.05,8.08 30.33,8.09 30.61,8.1 30.89,8.1 31.16,8.11 31.44,8.11 31.72,8.12 31.99,8.12 32.27,8.12 32.55,8.13 32.82,8.13 33.1,8.13 33.38,8.13 33.66,8.13 33.93,8.13 34.21,8.13 34.49,8.13 34.76,8.13 35.04,8.13 35.32,8.13 " class="primitive"/>
                </g>
                <g transform="translate(71.33,31.76)" id="img-23d5e81f-68" stroke-opacity="1" class="color_1" stroke-dasharray="none" stroke="#00BFFF">
                  <path fill="none" d="M-40.49,7.09 L-40.18,7.09 -39.86,7.09 -39.54,7.09 -39.22,7.09 -38.91,7.09 -38.59,7.09 -38.27,7.09 -37.95,7.09 -37.64,7.09 -37.32,7.09 -37,7.08 -36.68,7.08 -36.36,7.08 -36.05,7.07 -35.73,7.07 -35.41,7.06 -35.09,7.05 -34.78,7.04 -34.46,7.03 -34.14,7.01 -33.82,6.99 -33.51,6.97 -33.19,6.95 -32.87,6.92 -32.55,6.88 -32.24,6.85 -31.92,6.8 -31.6,6.76 -31.28,6.71 -30.97,6.65 -30.65,6.59 -30.33,6.53 -30.01,6.46 -29.7,6.39 -29.38,6.32 -29.06,6.25 -28.74,6.18 -28.42,6.11 -28.11,6.05 -27.79,5.98 -27.47,5.92 -27.15,5.87 -26.84,5.82 -26.52,5.78 -26.2,5.74 -25.88,5.71 -25.57,5.69 -25.25,5.67 -24.93,5.65 -24.61,5.65 -24.3,5.64 -23.98,5.64 -23.66,5.63 -23.34,5.63 -23.03,5.62 -22.71,5.62 -22.39,5.6 -22.07,5.59 -21.76,5.56 -21.44,5.54 -21.12,5.5 -20.8,5.46 -20.48,5.42 -20.17,5.37 -19.85,5.32 -19.53,5.27 -19.21,5.22 -18.9,5.17 -18.58,5.12 -18.26,5.07 -17.94,5.03 -17.63,4.99 -17.31,4.96 -16.99,4.93 -16.67,4.91 -16.36,4.89 -16.04,4.87 -15.72,4.85 -15.4,4.83 -15.09,4.8 -14.77,4.77 -14.45,4.74 -14.13,4.68 -13.82,4.62 -13.5,4.54 -13.18,4.43 -12.86,4.31 -12.55,4.16 -12.23,3.99 -11.91,3.78 -11.59,3.55 -11.27,3.28 -10.96,2.99 -10.64,2.66 -10.32,2.3 -10,1.9 -9.69,1.48 -9.37,1.02 -9.05,0.52 -8.73,0 -8.42,-0.55 -8.1,-1.12 -7.78,-1.73 -7.46,-2.35 -7.15,-2.99 -6.83,-3.65 -6.51,-4.32 -6.19,-5 -5.88,-5.68 -5.56,-6.36 -5.24,-7.03 -4.92,-7.69 -4.61,-8.34 -4.29,-8.96 -3.97,-9.57 -3.65,-10.14 -3.33,-10.69 -3.02,-11.2 -2.7,-11.68 -2.38,-12.14 -2.06,-12.55 -1.75,-12.94 -1.43,-13.3 -1.11,-13.63 -0.79,-13.94 -0.48,-14.22 -0.16,-14.49 0.16,-14.74 0.48,-14.97 0.79,-15.19 1.11,-15.4 1.43,-15.59 1.75,-15.78 2.06,-15.95 2.38,-16.11 2.7,-16.25 3.02,-16.39 3.33,-16.5 3.65,-16.59 3.97,-16.66 4.29,-16.7 4.61,-16.72 4.92,-16.71 5.24,-16.66 5.56,-16.58 5.88,-16.47 6.19,-16.32 6.51,-16.14 6.83,-15.93 7.15,-15.68 7.46,-15.41 7.78,-15.11 8.1,-14.79 8.42,-14.45 8.73,-14.09 9.05,-13.73 9.37,-13.36 9.69,-12.98 10,-12.6 10.32,-12.23 10.64,-11.86 10.96,-11.5 11.27,-11.15 11.59,-10.81 11.91,-10.48 12.23,-10.15 12.55,-9.83 12.86,-9.51 13.18,-9.2 13.5,-8.88 13.82,-8.56 14.13,-8.23 14.45,-7.89 14.77,-7.54 15.09,-7.18 15.4,-6.8 15.72,-6.4 16.04,-5.99 16.36,-5.56 16.67,-5.12 16.99,-4.66 17.31,-4.19 17.63,-3.71 17.94,-3.22 18.26,-2.72 18.58,-2.22 18.9,-1.72 19.21,-1.22 19.53,-0.73 19.85,-0.24 20.17,0.23 20.48,0.68 20.8,1.13 21.12,1.55 21.44,1.95 21.76,2.33 22.07,2.69 22.39,3.03 22.71,3.34 23.03,3.63 23.34,3.9 23.66,4.15 23.98,4.38 24.3,4.59 24.61,4.78 24.93,4.95 25.25,5.11 25.57,5.26 25.88,5.4 26.2,5.52 26.52,5.64 26.84,5.75 27.15,5.85 27.47,5.95 27.79,6.04 28.11,6.13 28.42,6.21 28.74,6.29 29.06,6.36 29.38,6.43 29.7,6.5 30.01,6.56 30.33,6.62 30.65,6.68 30.97,6.73 31.28,6.77 31.6,6.82 31.92,6.85 32.24,6.89 32.55,6.92 32.87,6.95 33.19,6.97 33.51,6.99 33.82,7.01 34.14,7.02 34.46,7.04 34.78,7.05 35.09,7.06 35.41,7.06 35.73,7.07 36.05,7.08 36.36,7.08 36.68,7.08 37,7.08 37.32,7.09 37.64,7.09 37.95,7.09 38.27,7.09 38.59,7.09 38.91,7.09 39.22,7.09 39.54,7.09 39.86,7.09 40.18,7.09 40.49,7.09 " class="primitive"/>
                </g>
                <g transform="translate(67.86,31.77)" id="img-23d5e81f-69" stroke-opacity="1" class="color_2" stroke-dasharray="none" stroke="#D4CA3A">
                  <path fill="none" d="M-40.52,7.09 L-40.2,7.09 -39.88,7.09 -39.56,7.09 -39.25,7.09 -38.93,7.09 -38.61,7.09 -38.29,7.09 -37.97,7.09 -37.66,7.08 -37.34,7.08 -37.02,7.08 -36.7,7.08 -36.39,7.08 -36.07,7.07 -35.75,7.07 -35.43,7.06 -35.11,7.05 -34.8,7.05 -34.48,7.04 -34.16,7.02 -33.84,7.01 -33.53,6.99 -33.21,6.98 -32.89,6.95 -32.57,6.93 -32.25,6.91 -31.94,6.88 -31.62,6.85 -31.3,6.81 -30.98,6.78 -30.67,6.74 -30.35,6.71 -30.03,6.67 -29.71,6.63 -29.39,6.59 -29.08,6.56 -28.76,6.52 -28.44,6.49 -28.12,6.47 -27.81,6.44 -27.49,6.42 -27.17,6.4 -26.85,6.39 -26.53,6.38 -26.22,6.37 -25.9,6.37 -25.58,6.37 -25.26,6.37 -24.95,6.37 -24.63,6.37 -24.31,6.37 -23.99,6.37 -23.67,6.36 -23.36,6.34 -23.04,6.32 -22.72,6.29 -22.4,6.26 -22.09,6.21 -21.77,6.16 -21.45,6.1 -21.13,6.02 -20.81,5.94 -20.5,5.85 -20.18,5.75 -19.86,5.63 -19.54,5.51 -19.23,5.38 -18.91,5.24 -18.59,5.1 -18.27,4.94 -17.95,4.78 -17.64,4.61 -17.32,4.44 -17,4.25 -16.68,4.06 -16.37,3.87 -16.05,3.67 -15.73,3.46 -15.41,3.25 -15.09,3.04 -14.78,2.83 -14.46,2.62 -14.14,2.41 -13.82,2.19 -13.51,1.99 -13.19,1.78 -12.87,1.58 -12.55,1.38 -12.23,1.18 -11.92,0.98 -11.6,0.79 -11.28,0.59 -10.96,0.38 -10.65,0.17 -10.33,-0.06 -10.01,-0.3 -9.69,-0.57 -9.37,-0.86 -9.06,-1.18 -8.74,-1.53 -8.42,-1.91 -8.1,-2.33 -7.79,-2.79 -7.47,-3.28 -7.15,-3.81 -6.83,-4.37 -6.51,-4.96 -6.2,-5.58 -5.88,-6.22 -5.56,-6.87 -5.24,-7.53 -4.93,-8.19 -4.61,-8.84 -4.29,-9.48 -3.97,-10.1 -3.65,-10.69 -3.34,-11.25 -3.02,-11.77 -2.7,-12.26 -2.38,-12.7 -2.07,-13.11 -1.75,-13.47 -1.43,-13.79 -1.11,-14.07 -0.79,-14.32 -0.48,-14.53 -0.16,-14.72 0.16,-14.88 0.48,-15.02 0.79,-15.14 1.11,-15.24 1.43,-15.34 1.75,-15.42 2.07,-15.49 2.38,-15.55 2.7,-15.59 3.02,-15.63 3.34,-15.65 3.65,-15.66 3.97,-15.65 4.29,-15.62 4.61,-15.57 4.93,-15.5 5.24,-15.4 5.56,-15.27 5.88,-15.12 6.2,-14.94 6.51,-14.73 6.83,-14.49 7.15,-14.22 7.47,-13.93 7.79,-13.62 8.1,-13.28 8.42,-12.93 8.74,-12.55 9.06,-12.17 9.37,-11.77 9.69,-11.37 10.01,-10.96 10.33,-10.55 10.65,-10.14 10.96,-9.74 11.28,-9.34 11.6,-8.94 11.92,-8.55 12.23,-8.18 12.55,-7.81 12.87,-7.44 13.19,-7.09 13.51,-6.75 13.82,-6.41 14.14,-6.07 14.46,-5.75 14.78,-5.42 15.09,-5.09 15.41,-4.77 15.73,-4.44 16.05,-4.11 16.37,-3.77 16.68,-3.43 17,-3.09 17.32,-2.74 17.64,-2.39 17.95,-2.03 18.27,-1.67 18.59,-1.31 18.91,-0.95 19.23,-0.59 19.54,-0.23 19.86,0.12 20.18,0.46 20.5,0.79 20.81,1.11 21.13,1.42 21.45,1.71 21.77,1.99 22.09,2.25 22.4,2.49 22.72,2.71 23.04,2.92 23.36,3.1 23.67,3.28 23.99,3.44 24.31,3.59 24.63,3.73 24.95,3.86 25.26,3.98 25.58,4.1 25.9,4.22 26.22,4.34 26.53,4.46 26.85,4.58 27.17,4.71 27.49,4.84 27.81,4.97 28.12,5.1 28.44,5.23 28.76,5.37 29.08,5.5 29.39,5.64 29.71,5.77 30.03,5.9 30.35,6.02 30.67,6.14 30.98,6.25 31.3,6.35 31.62,6.45 31.94,6.54 32.25,6.62 32.57,6.69 32.89,6.75 33.21,6.81 33.53,6.85 33.84,6.9 34.16,6.93 34.48,6.96 34.8,6.99 35.11,7.01 35.43,7.02 35.75,7.04 36.07,7.05 36.39,7.06 36.7,7.07 37.02,7.07 37.34,7.08 37.66,7.08 37.97,7.08 38.29,7.08 38.61,7.08 38.93,7.09 39.25,7.09 39.56,7.09 39.88,7.09 40.2,7.09 40.52,7.09 " class="primitive"/>
                </g>
              </g>
            </g>
          </g>
        </g>
        <g class="guide ylabels" font-size="2.82" font-family="'PT Sans Caption','Helvetica Neue','Helvetica',sans-serif" fill="#6C606B" id="img-23d5e81f-70">
          <g transform="translate(23.9,38.86)" id="img-23d5e81f-71">
            <g class="primitive">
              <text text-anchor="end" dy="0.35em">0.0</text>
            </g>
          </g>
          <g transform="translate(23.9,32.89)" id="img-23d5e81f-72">
            <g class="primitive">
              <text text-anchor="end" dy="0.35em">0.1</text>
            </g>
          </g>
          <g transform="translate(23.9,26.91)" id="img-23d5e81f-73">
            <g class="primitive">
              <text text-anchor="end" dy="0.35em">0.2</text>
            </g>
          </g>
          <g transform="translate(23.9,20.94)" id="img-23d5e81f-74">
            <g class="primitive">
              <text text-anchor="end" dy="0.35em">0.3</text>
            </g>
          </g>
          <g transform="translate(23.9,14.97)" id="img-23d5e81f-75">
            <g class="primitive">
              <text text-anchor="end" dy="0.35em">0.4</text>
            </g>
          </g>
          <g transform="translate(23.9,9)" id="img-23d5e81f-76">
            <g class="primitive">
              <text text-anchor="end" dy="0.35em">0.5</text>
            </g>
          </g>
        </g>
        <g font-size="3.88" font-family="'PT Sans','Helvetica Neue','Helvetica',sans-serif" fill="#564A55" stroke="#000000" stroke-opacity="0.000" id="img-23d5e81f-77">
          <g transform="translate(16.88,23.93)" id="img-23d5e81f-78">
            <g class="primitive">
              <text text-anchor="end" dy="0.35em">A</text>
            </g>
          </g>
        </g>
      </g>
    </g>
  </g>
  <g font-size="3.88" font-family="'PT Sans','Helvetica Neue','Helvetica',sans-serif" fill="#564A55" stroke="#000000" stroke-opacity="0.000" id="img-23d5e81f-79">
    <g transform="translate(8.81,43.19)" id="img-23d5e81f-80">
      <g class="primitive">
        <text text-anchor="middle" dy="0.35em" transform="rotate(-90,0, 2)">Density</text>
      </g>
    </g>
  </g>
</g>
<defs>
  <clipPath id="img-23d5e81f-14">
    <path d="M12.61,5 L127.47,5 127.47,85.39 12.61,85.39 " />
  </clipPath>
  <clipPath id="img-23d5e81f-21">
    <path d="M24.9,44.86 L125.47,44.86 125.47,80.72 24.9,80.72 " />
  </clipPath>
  <clipPath id="img-23d5e81f-50">
    <path d="M24.9,7 L125.47,7 125.47,40.86 24.9,40.86 " />
  </clipPath>
</defs>
</svg>
