<?xml version="1.0" encoding="UTF-8"?>
<svg xmlns="http://www.w3.org/2000/svg"
     xmlns:xlink="http://www.w3.org/1999/xlink"
     xmlns:gadfly="http://www.gadflyjl.org/ns"
     version="1.2"
     width="141.42mm" height="100mm" viewBox="0 0 141.42 100"
     stroke="none"
     fill="#000000"
     stroke-width="0.3"
     font-size="3.88"
>
<defs>
  <marker id="arrow" markerWidth="15" markerHeight="7" refX="5" refY="3.5" orient="auto" markerUnits="strokeWidth">
    <path d="M0,0 L15,3.5 L0,7 z" stroke="context-stroke" fill="context-stroke"/>
  </marker>
</defs>
<g class="plotroot xscalable yscalable" id="img-1afc5b01-1">
  <g font-size="3.88" font-family="'PT Sans','Helvetica Neue','Helvetica',sans-serif" fill="#564A55" stroke="#000000" stroke-opacity="0.000" id="img-1afc5b01-2">
    <g transform="translate(74.52,88.39)">
      <g class="primitive">
        <text text-anchor="middle" dy="0.6em">Parameter</text>
      </g>
    </g>
  </g>
  <g clip-path="url(#img-1afc5b01-3)">
    <g id="img-1afc5b01-4">
      <g class="plotpanel" id="img-1afc5b01-5">
        <metadata>
          <boundingbox value="12.611666666666665mm 5.0mm 123.80968957064285mm 80.38833333333332mm"/>
          <unitbox value="0.0 0.0 1.0 1.0"/>
        </metadata>
        <g font-size="3.88" font-family="'PT Sans','Helvetica Neue','Helvetica',sans-serif" fill="#564A55" stroke="#000000" stroke-opacity="0.000" id="img-1afc5b01-6">
          <g transform="translate(108.5,78.78)" id="img-1afc5b01-7">
            <g class="primitive">
              <text text-anchor="middle" dy="0.6em">B</text>
            </g>
          </g>
        </g>
        <g font-size="3.88" font-family="'PT Sans','Helvetica Neue','Helvetica',sans-serif" fill="#564A55" stroke="#000000" stroke-opacity="0.000" id="img-1afc5b01-8">
          <g transform="translate(51.67,78.78)" id="img-1afc5b01-9">
            <g class="primitive">
              <text text-anchor="middle" dy="0.6em">A</text>
            </g>
          </g>
        </g>
        <g class="guide xlabels" font-size="2.82" font-family="'PT Sans Caption','Helvetica Neue','Helvetica',sans-serif" fill="#6C606B" id="img-1afc5b01-10">
          <g transform="translate(84.59,72.1)" id="img-1afc5b01-11">
            <g class="primitive">
              <text text-anchor="middle" dy="0.6em">-5</text>
            </g>
          </g>
          <g transform="translate(108.5,72.1)" id="img-1afc5b01-12">
            <g class="primitive">
              <text text-anchor="middle" dy="0.6em">0</text>
            </g>
          </g>
          <g transform="translate(132.42,72.1)" id="img-1afc5b01-13">
            <g class="primitive">
              <text text-anchor="middle" dy="0.6em">5</text>
            </g>
          </g>
        </g>
        <g class="guide xlabels" font-size="2.82" font-family="'PT Sans Caption','Helvetica Neue','Helvetica',sans-serif" fill="#6C606B" id="img-1afc5b01-14">
          <g transform="translate(26.75,72.1)" id="img-1afc5b01-15">
            <g class="primitive">
              <text text-anchor="middle" dy="0.6em">-5</text>
            </g>
          </g>
          <g transform="translate(51.67,72.1)" id="img-1afc5b01-16">
            <g class="primitive">
              <text text-anchor="middle" dy="0.6em">0</text>
            </g>
          </g>
          <g transform="translate(76.59,72.1)" id="img-1afc5b01-17">
            <g class="primitive">
              <text text-anchor="middle" dy="0.6em">5</text>
            </g>
          </g>
        </g>
        <g clip-path="url(#img-1afc5b01-18)">
          <g id="img-1afc5b01-19">
            <g pointer-events="visible" stroke-width="0.3" fill="#000000" fill-opacity="0.000" stroke="#000000" stroke-opacity="0.000" class="guide background" id="img-1afc5b01-20">
              <g transform="translate(108.5,55.58)" id="img-1afc5b01-21">
                <path d="M-25.92,-15.53 L25.92,-15.53 25.92,15.53 -25.92,15.53  z" class="primitive"/>
              </g>
            </g>
            <g class="guide ygridlines xfixed" stroke-dasharray="0.5,0.5" stroke-width="0.2" stroke="#D0D0E0" id="img-1afc5b01-22">
              <g transform="translate(108.5,69.1)" id="img-1afc5b01-23">
                <path fill="none" d="M-25.92,0 L25.92,0 " class="primitive"/>
              </g>
              <g transform="translate(108.5,63.69)" id="img-1afc5b01-24">
                <path fill="none" d="M-25.92,0 L25.92,0 " class="primitive"/>
              </g>
              <g transform="translate(108.5,58.28)" id="img-1afc5b01-25">
                <path fill="none" d="M-25.92,0 L25.92,0 " class="primitive"/>
              </g>
              <g transform="translate(108.5,52.87)" id="img-1afc5b01-26">
                <path fill="none" d="M-25.92,0 L25.92,0 " class="primitive"/>
              </g>
              <g transform="translate(108.5,47.46)" id="img-1afc5b01-27">
                <path fill="none" d="M-25.92,0 L25.92,0 " class="primitive"/>
              </g>
              <g transform="translate(108.5,42.05)" id="img-1afc5b01-28">
                <path fill="none" d="M-25.92,0 L25.92,0 " class="primitive"/>
              </g>
            </g>
            <g class="guide xgridlines yfixed" stroke-dasharray="0.5,0.5" stroke-width="0.2" stroke="#D0D0E0" id="img-1afc5b01-29">
              <g transform="translate(84.59,55.58)" id="img-1afc5b01-30">
                <path fill="none" d="M0,-15.53 L0,15.53 " class="primitive"/>
              </g>
              <g transform="translate(108.5,55.58)" id="img-1afc5b01-31">
                <path fill="none" d="M0,-15.53 L0,15.53 " class="primitive"/>
              </g>
              <g transform="translate(132.42,55.58)" id="img-1afc5b01-32">
                <path fill="none" d="M0,-15.53 L0,15.53 " class="primitive"/>
              </g>
            </g>
            <g class="plotpanel" id="img-1afc5b01-33">
              <metadata>
                <boundingbox value="82.5852614519881mm 40.05166666666666mm 51.83609478532142mm 31.051666666666662mm"/>
                <unitbox value="-5.418094330019119 0.5369662990573594 10.836188660038237 -0.5739325981147188"/>
              </metadata>
              <g stroke-width="0.3" fill="#000000" fill-opacity="0.000" class="geometry" id="img-1afc5b01-34">
                <g class="color_LCHab{Float32}(70.0f0,60.0f0,240.0f0)" stroke-dasharray="none" stroke-opacity="1" stroke="#00BFFF" id="img-1afc5b01-35">
                  <g transform="translate(108.2,61.71)" id="img-1afc5b01-36">
                    <path fill="none" d="M-17.44,7.39 L-17.31,7.39 -17.17,7.39 -17.03,7.39 -16.9,7.39 -16.76,7.39 -16.62,7.39 -16.49,7.39 -16.35,7.39 -16.21,7.39 -16.08,7.39 -15.94,7.38 -15.8,7.38 -15.67,7.38 -15.53,7.38 -15.39,7.38 -15.26,7.38 -15.12,7.37 -14.98,7.37 -14.85,7.36 -14.71,7.36 -14.57,7.35 -14.43,7.34 -14.3,7.33 -14.16,7.32 -14.02,7.31 -13.89,7.29 -13.75,7.27 -13.61,7.25 -13.48,7.23 -13.34,7.21 -13.2,7.18 -13.07,7.14 -12.93,7.1 -12.79,7.06 -12.66,7.02 -12.52,6.96 -12.38,6.91 -12.25,6.84 -12.11,6.78 -11.97,6.7 -11.84,6.62 -11.7,6.53 -11.56,6.43 -11.42,6.32 -11.29,6.2 -11.15,6.08 -11.01,5.94 -10.88,5.8 -10.74,5.64 -10.6,5.48 -10.47,5.3 -10.33,5.11 -10.19,4.91 -10.06,4.7 -9.92,4.48 -9.78,4.25 -9.65,4.01 -9.51,3.76 -9.37,3.51 -9.24,3.24 -9.1,2.97 -8.96,2.69 -8.83,2.41 -8.69,2.13 -8.55,1.84 -8.41,1.55 -8.28,1.27 -8.14,0.98 -8,0.7 -7.87,0.43 -7.73,0.15 -7.59,-0.11 -7.46,-0.37 -7.32,-0.63 -7.18,-0.88 -7.05,-1.12 -6.91,-1.36 -6.77,-1.59 -6.64,-1.82 -6.5,-2.05 -6.36,-2.27 -6.23,-2.5 -6.09,-2.72 -5.95,-2.94 -5.81,-3.16 -5.68,-3.39 -5.54,-3.62 -5.4,-3.85 -5.27,-4.09 -5.13,-4.33 -4.99,-4.58 -4.86,-4.83 -4.72,-5.08 -4.58,-5.33 -4.45,-5.59 -4.31,-5.85 -4.17,-6.12 -4.04,-6.38 -3.9,-6.64 -3.76,-6.9 -3.63,-7.16 -3.49,-7.41 -3.35,-7.67 -3.22,-7.92 -3.08,-8.17 -2.94,-8.42 -2.8,-8.66 -2.67,-8.9 -2.53,-9.14 -2.39,-9.38 -2.26,-9.62 -2.12,-9.86 -1.98,-10.1 -1.85,-10.33 -1.71,-10.57 -1.57,-10.8 -1.44,-11.03 -1.3,-11.25 -1.16,-11.47 -1.03,-11.68 -0.89,-11.88 -0.75,-12.06 -0.62,-12.23 -0.48,-12.38 -0.34,-12.5 -0.21,-12.6 -0.07,-12.68 0.07,-12.72 0.21,-12.73 0.34,-12.7 0.48,-12.64 0.62,-12.54 0.75,-12.41 0.89,-12.24 1.03,-12.03 1.16,-11.79 1.3,-11.52 1.44,-11.22 1.57,-10.89 1.71,-10.54 1.85,-10.18 1.98,-9.8 2.12,-9.41 2.26,-9.02 2.39,-8.63 2.53,-8.24 2.67,-7.86 2.8,-7.49 2.94,-7.14 3.08,-6.8 3.22,-6.49 3.35,-6.19 3.49,-5.92 3.63,-5.67 3.76,-5.45 3.9,-5.25 4.04,-5.07 4.17,-4.91 4.31,-4.78 4.45,-4.66 4.58,-4.56 4.72,-4.47 4.86,-4.4 4.99,-4.33 5.13,-4.28 5.27,-4.22 5.4,-4.17 5.54,-4.13 5.68,-4.08 5.81,-4.02 5.95,-3.96 6.09,-3.9 6.23,-3.83 6.36,-3.75 6.5,-3.66 6.64,-3.56 6.77,-3.45 6.91,-3.33 7.05,-3.2 7.18,-3.06 7.32,-2.91 7.46,-2.74 7.59,-2.57 7.73,-2.38 7.87,-2.19 8,-1.98 8.14,-1.76 8.28,-1.53 8.41,-1.3 8.55,-1.05 8.69,-0.8 8.83,-0.53 8.96,-0.26 9.1,0.02 9.24,0.3 9.37,0.6 9.51,0.89 9.65,1.2 9.78,1.5 9.92,1.81 10.06,2.11 10.19,2.42 10.33,2.72 10.47,3.02 10.6,3.32 10.74,3.61 10.88,3.89 11.01,4.16 11.15,4.42 11.29,4.68 11.42,4.92 11.56,5.15 11.7,5.36 11.84,5.57 11.97,5.76 12.11,5.93 12.25,6.1 12.38,6.25 12.52,6.39 12.66,6.51 12.79,6.62 12.93,6.72 13.07,6.82 13.2,6.9 13.34,6.97 13.48,7.03 13.61,7.09 13.75,7.13 13.89,7.17 14.02,7.21 14.16,7.24 14.3,7.27 14.43,7.29 14.57,7.31 14.71,7.32 14.85,7.33 14.98,7.35 15.12,7.35 15.26,7.36 15.39,7.37 15.53,7.37 15.67,7.38 15.8,7.38 15.94,7.38 16.08,7.38 16.21,7.38 16.35,7.39 16.49,7.39 16.62,7.39 16.76,7.39 16.9,7.39 17.03,7.39 17.17,7.39 17.31,7.39 17.44,7.39 " class="primitive"/>
                  </g>
                </g>
              </g>
            </g>
          </g>
        </g>
        <g clip-path="url(#img-1afc5b01-37)">
          <g id="img-1afc5b01-38">
            <g pointer-events="visible" stroke-width="0.3" fill="#000000" fill-opacity="0.000" stroke="#000000" stroke-opacity="0.000" class="guide background" id="img-1afc5b01-39">
              <g transform="translate(51.67,55.58)" id="img-1afc5b01-40">
                <path d="M-26.92,-15.53 L26.92,-15.53 26.92,15.53 -26.92,15.53  z" class="primitive"/>
              </g>
            </g>
            <g class="guide ygridlines xfixed" stroke-dasharray="0.5,0.5" stroke-width="0.2" stroke="#D0D0E0" id="img-1afc5b01-41">
              <g transform="translate(51.67,69.1)" id="img-1afc5b01-42">
                <path fill="none" d="M-26.92,0 L26.92,0 " class="primitive"/>
              </g>
              <g transform="translate(51.67,63.69)" id="img-1afc5b01-43">
                <path fill="none" d="M-26.92,0 L26.92,0 " class="primitive"/>
              </g>
              <g transform="translate(51.67,58.28)" id="img-1afc5b01-44">
                <path fill="none" d="M-26.92,0 L26.92,0 " class="primitive"/>
              </g>
              <g transform="translate(51.67,52.87)" id="img-1afc5b01-45">
                <path fill="none" d="M-26.92,0 L26.92,0 " class="primitive"/>
              </g>
              <g transform="translate(51.67,47.46)" id="img-1afc5b01-46">
                <path fill="none" d="M-26.92,0 L26.92,0 " class="primitive"/>
              </g>
              <g transform="translate(51.67,42.05)" id="img-1afc5b01-47">
                <path fill="none" d="M-26.92,0 L26.92,0 " class="primitive"/>
              </g>
            </g>
            <g class="guide xgridlines yfixed" stroke-dasharray="0.5,0.5" stroke-width="0.2" stroke="#D0D0E0" id="img-1afc5b01-48">
              <g transform="translate(26.75,55.58)" id="img-1afc5b01-49">
                <path fill="none" d="M0,-15.53 L0,15.53 " class="primitive"/>
              </g>
              <g transform="translate(51.67,55.58)" id="img-1afc5b01-50">
                <path fill="none" d="M0,-15.53 L0,15.53 " class="primitive"/>
              </g>
              <g transform="translate(76.59,55.58)" id="img-1afc5b01-51">
                <path fill="none" d="M0,-15.53 L0,15.53 " class="primitive"/>
              </g>
            </g>
            <g class="plotpanel" id="img-1afc5b01-52">
              <metadata>
                <boundingbox value="24.749166666666667mm 40.05166666666666mm 53.83609478532142mm 31.051666666666662mm"/>
                <unitbox value="-5.401315554241436 0.5369662990573594 10.802631108482872 -0.5739325981147188"/>
              </metadata>
              <g stroke-width="0.3" fill="#000000" fill-opacity="0.000" class="geometry" id="img-1afc5b01-53">
                <g class="color_LCHab{Float32}(70.0f0,60.0f0,240.0f0)" stroke-dasharray="none" stroke-opacity="1" stroke="#00BFFF" id="img-1afc5b01-54">
                  <g transform="translate(47.89,62.68)" id="img-1afc5b01-55">
                    <path fill="none" d="M-20.91,6.42 L-20.74,6.42 -20.58,6.42 -20.42,6.42 -20.25,6.42 -20.09,6.42 -19.93,6.42 -19.76,6.42 -19.6,6.42 -19.43,6.42 -19.27,6.42 -19.11,6.42 -18.94,6.41 -18.78,6.41 -18.61,6.41 -18.45,6.4 -18.29,6.4 -18.12,6.39 -17.96,6.38 -17.79,6.37 -17.63,6.36 -17.47,6.35 -17.3,6.34 -17.14,6.32 -16.97,6.3 -16.81,6.28 -16.65,6.26 -16.48,6.23 -16.32,6.2 -16.15,6.17 -15.99,6.14 -15.83,6.11 -15.66,6.08 -15.5,6.04 -15.33,6.01 -15.17,5.97 -15.01,5.94 -14.84,5.91 -14.68,5.88 -14.51,5.86 -14.35,5.84 -14.19,5.82 -14.02,5.8 -13.86,5.79 -13.69,5.78 -13.53,5.78 -13.37,5.77 -13.2,5.77 -13.04,5.77 -12.87,5.77 -12.71,5.77 -12.55,5.77 -12.38,5.77 -12.22,5.76 -12.05,5.75 -11.89,5.73 -11.73,5.7 -11.56,5.67 -11.4,5.63 -11.23,5.58 -11.07,5.52 -10.91,5.46 -10.74,5.38 -10.58,5.3 -10.41,5.21 -10.25,5.1 -10.09,4.99 -9.92,4.88 -9.76,4.75 -9.59,4.62 -9.43,4.48 -9.27,4.33 -9.1,4.18 -8.94,4.02 -8.77,3.85 -8.61,3.68 -8.45,3.5 -8.28,3.32 -8.12,3.14 -7.95,2.95 -7.79,2.76 -7.63,2.57 -7.46,2.37 -7.3,2.18 -7.13,1.99 -6.97,1.8 -6.81,1.61 -6.64,1.43 -6.48,1.25 -6.31,1.07 -6.15,0.89 -5.99,0.71 -5.82,0.53 -5.66,0.35 -5.49,0.15 -5.33,-0.05 -5.17,-0.28 -5,-0.52 -4.84,-0.78 -4.67,-1.07 -4.51,-1.38 -4.35,-1.73 -4.18,-2.11 -4.02,-2.52 -3.85,-2.97 -3.69,-3.45 -3.53,-3.96 -3.36,-4.5 -3.2,-5.06 -3.03,-5.63 -2.87,-6.23 -2.71,-6.82 -2.54,-7.42 -2.38,-8.01 -2.21,-8.59 -2.05,-9.15 -1.89,-9.69 -1.72,-10.19 -1.56,-10.67 -1.39,-11.11 -1.23,-11.51 -1.07,-11.87 -0.9,-12.2 -0.74,-12.49 -0.57,-12.75 -0.41,-12.97 -0.25,-13.16 -0.08,-13.33 0.08,-13.48 0.25,-13.61 0.41,-13.72 0.57,-13.81 0.74,-13.9 0.9,-13.97 1.07,-14.03 1.23,-14.09 1.39,-14.13 1.56,-14.16 1.72,-14.18 1.89,-14.19 2.05,-14.18 2.21,-14.16 2.38,-14.11 2.54,-14.04 2.71,-13.95 2.87,-13.84 3.03,-13.7 3.2,-13.53 3.36,-13.34 3.53,-13.13 3.69,-12.89 3.85,-12.62 4.02,-12.34 4.18,-12.03 4.35,-11.71 4.51,-11.37 4.67,-11.02 4.84,-10.67 5,-10.3 5.17,-9.93 5.33,-9.56 5.49,-9.19 5.66,-8.82 5.82,-8.46 5.99,-8.1 6.15,-7.75 6.31,-7.41 6.48,-7.07 6.64,-6.75 6.81,-6.43 6.97,-6.11 7.13,-5.81 7.3,-5.5 7.46,-5.21 7.63,-4.91 7.79,-4.61 7.95,-4.32 8.12,-4.02 8.28,-3.72 8.45,-3.42 8.61,-3.11 8.77,-2.8 8.94,-2.48 9.1,-2.16 9.27,-1.84 9.43,-1.51 9.59,-1.19 9.76,-0.86 9.92,-0.53 10.09,-0.21 10.25,0.11 10.41,0.42 10.58,0.72 10.74,1.01 10.91,1.29 11.07,1.55 11.23,1.8 11.4,2.03 11.56,2.25 11.73,2.45 11.89,2.64 12.05,2.81 12.22,2.97 12.38,3.12 12.55,3.25 12.71,3.38 12.87,3.5 13.04,3.61 13.2,3.72 13.37,3.83 13.53,3.93 13.69,4.04 13.86,4.15 14.02,4.27 14.19,4.38 14.35,4.5 14.51,4.62 14.68,4.74 14.84,4.86 15.01,4.99 15.17,5.11 15.33,5.23 15.5,5.34 15.66,5.46 15.83,5.56 15.99,5.66 16.15,5.76 16.32,5.84 16.48,5.92 16.65,5.99 16.81,6.06 16.97,6.12 17.14,6.17 17.3,6.21 17.47,6.25 17.63,6.28 17.79,6.31 17.96,6.33 18.12,6.35 18.29,6.36 18.45,6.38 18.61,6.39 18.78,6.4 18.94,6.4 19.11,6.41 19.27,6.41 19.43,6.41 19.6,6.42 19.76,6.42 19.93,6.42 20.09,6.42 20.25,6.42 20.42,6.42 20.58,6.42 20.74,6.42 20.91,6.42 " class="primitive"/>
                  </g>
                </g>
              </g>
            </g>
          </g>
        </g>
        <g class="guide ylabels" font-size="2.82" font-family="'PT Sans Caption','Helvetica Neue','Helvetica',sans-serif" fill="#6C606B" id="img-1afc5b01-56">
          <g transform="translate(23.75,69.1)" id="img-1afc5b01-57">
            <g class="primitive">
              <text text-anchor="end" dy="0.35em">0.0</text>
            </g>
          </g>
          <g transform="translate(23.75,63.69)" id="img-1afc5b01-58">
            <g class="primitive">
              <text text-anchor="end" dy="0.35em">0.1</text>
            </g>
          </g>
          <g transform="translate(23.75,58.28)" id="img-1afc5b01-59">
            <g class="primitive">
              <text text-anchor="end" dy="0.35em">0.2</text>
            </g>
          </g>
          <g transform="translate(23.75,52.87)" id="img-1afc5b01-60">
            <g class="primitive">
              <text text-anchor="end" dy="0.35em">0.3</text>
            </g>
          </g>
          <g transform="translate(23.75,47.46)" id="img-1afc5b01-61">
            <g class="primitive">
              <text text-anchor="end" dy="0.35em">0.4</text>
            </g>
          </g>
          <g transform="translate(23.75,42.05)" id="img-1afc5b01-62">
            <g class="primitive">
              <text text-anchor="end" dy="0.35em">0.5</text>
            </g>
          </g>
        </g>
        <g font-size="3.88" font-family="'PT Sans','Helvetica Neue','Helvetica',sans-serif" fill="#564A55" stroke="#000000" stroke-opacity="0.000" id="img-1afc5b01-63">
          <g transform="translate(16.73,55.58)" id="img-1afc5b01-64">
            <g class="primitive">
              <text text-anchor="end" dy="0.35em">2</text>
            </g>
          </g>
        </g>
        <g clip-path="url(#img-1afc5b01-65)">
          <g id="img-1afc5b01-66">
            <g pointer-events="visible" stroke-width="0.3" fill="#000000" fill-opacity="0.000" stroke="#000000" stroke-opacity="0.000" class="guide background" id="img-1afc5b01-67">
              <g transform="translate(108.5,21.53)" id="img-1afc5b01-68">
                <path d="M-25.92,-14.53 L25.92,-14.53 25.92,14.53 -25.92,14.53  z" class="primitive"/>
              </g>
            </g>
            <g class="guide ygridlines xfixed" stroke-dasharray="0.5,0.5" stroke-width="0.2" stroke="#D0D0E0" id="img-1afc5b01-69">
              <g transform="translate(108.5,34.05)" id="img-1afc5b01-70">
                <path fill="none" d="M-25.92,0 L25.92,0 " class="primitive"/>
              </g>
              <g transform="translate(108.5,29.04)" id="img-1afc5b01-71">
                <path fill="none" d="M-25.92,0 L25.92,0 " class="primitive"/>
              </g>
              <g transform="translate(108.5,24.03)" id="img-1afc5b01-72">
                <path fill="none" d="M-25.92,0 L25.92,0 " class="primitive"/>
              </g>
              <g transform="translate(108.5,19.02)" id="img-1afc5b01-73">
                <path fill="none" d="M-25.92,0 L25.92,0 " class="primitive"/>
              </g>
              <g transform="translate(108.5,14.01)" id="img-1afc5b01-74">
                <path fill="none" d="M-25.92,0 L25.92,0 " class="primitive"/>
              </g>
              <g transform="translate(108.5,9)" id="img-1afc5b01-75">
                <path fill="none" d="M-25.92,0 L25.92,0 " class="primitive"/>
              </g>
            </g>
            <g class="guide xgridlines yfixed" stroke-dasharray="0.5,0.5" stroke-width="0.2" stroke="#D0D0E0" id="img-1afc5b01-76">
              <g transform="translate(84.59,21.53)" id="img-1afc5b01-77">
                <path fill="none" d="M0,-14.53 L0,14.53 " class="primitive"/>
              </g>
              <g transform="translate(108.5,21.53)" id="img-1afc5b01-78">
                <path fill="none" d="M0,-14.53 L0,14.53 " class="primitive"/>
              </g>
              <g transform="translate(132.42,21.53)" id="img-1afc5b01-79">
                <path fill="none" d="M0,-14.53 L0,14.53 " class="primitive"/>
              </g>
            </g>
            <g class="plotpanel" id="img-1afc5b01-80">
              <metadata>
                <boundingbox value="82.5852614519881mm 7.0mm 51.83609478532142mm 29.051666666666662mm"/>
                <unitbox value="-5.418094330019119 0.5399175038254275 10.836188660038237 -0.5798350076508549"/>
              </metadata>
              <g stroke-width="0.3" fill="#000000" fill-opacity="0.000" class="geometry" id="img-1afc5b01-81">
                <g class="color_LCHab{Float32}(70.0f0,60.0f0,240.0f0)" stroke-dasharray="none" stroke-opacity="1" stroke="#00BFFF" id="img-1afc5b01-82">
                  <g transform="translate(107.85,27.06)" id="img-1afc5b01-83">
                    <path fill="none" d="M-17.07,6.99 L-16.94,6.99 -16.81,6.99 -16.67,6.99 -16.54,6.99 -16.4,6.99 -16.27,6.99 -16.14,6.99 -16,6.99 -15.87,6.98 -15.73,6.98 -15.6,6.98 -15.47,6.97 -15.33,6.97 -15.2,6.96 -15.06,6.95 -14.93,6.94 -14.8,6.92 -14.66,6.9 -14.53,6.88 -14.4,6.85 -14.26,6.82 -14.13,6.79 -13.99,6.74 -13.86,6.69 -13.73,6.63 -13.59,6.57 -13.46,6.5 -13.32,6.42 -13.19,6.34 -13.06,6.25 -12.92,6.15 -12.79,6.05 -12.65,5.94 -12.52,5.83 -12.39,5.72 -12.25,5.61 -12.12,5.49 -11.98,5.38 -11.85,5.27 -11.72,5.16 -11.58,5.05 -11.45,4.95 -11.32,4.84 -11.18,4.75 -11.05,4.65 -10.91,4.56 -10.78,4.48 -10.65,4.39 -10.51,4.31 -10.38,4.24 -10.24,4.16 -10.11,4.1 -9.98,4.03 -9.84,3.97 -9.71,3.92 -9.57,3.87 -9.44,3.82 -9.31,3.79 -9.17,3.75 -9.04,3.73 -8.9,3.7 -8.77,3.68 -8.64,3.67 -8.5,3.66 -8.37,3.64 -8.24,3.63 -8.1,3.61 -7.97,3.58 -7.83,3.55 -7.7,3.5 -7.57,3.45 -7.43,3.38 -7.3,3.29 -7.16,3.19 -7.03,3.07 -6.9,2.94 -6.76,2.78 -6.63,2.62 -6.49,2.44 -6.36,2.25 -6.23,2.05 -6.09,1.85 -5.96,1.65 -5.82,1.45 -5.69,1.25 -5.56,1.06 -5.42,0.88 -5.29,0.7 -5.16,0.53 -5.02,0.37 -4.89,0.21 -4.75,0.05 -4.62,-0.13 -4.49,-0.31 -4.35,-0.53 -4.22,-0.77 -4.08,-1.05 -3.95,-1.38 -3.82,-1.75 -3.68,-2.19 -3.55,-2.68 -3.41,-3.24 -3.28,-3.86 -3.15,-4.53 -3.01,-5.26 -2.88,-6.03 -2.75,-6.84 -2.61,-7.67 -2.48,-8.51 -2.34,-9.35 -2.21,-10.18 -2.08,-10.98 -1.94,-11.73 -1.81,-12.44 -1.67,-13.09 -1.54,-13.67 -1.41,-14.18 -1.27,-14.61 -1.14,-14.97 -1,-15.25 -0.87,-15.46 -0.74,-15.61 -0.6,-15.71 -0.47,-15.75 -0.33,-15.76 -0.2,-15.74 -0.07,-15.69 0.07,-15.64 0.2,-15.57 0.33,-15.5 0.47,-15.43 0.6,-15.36 0.74,-15.29 0.87,-15.22 1,-15.14 1.14,-15.06 1.27,-14.97 1.41,-14.85 1.54,-14.72 1.67,-14.55 1.81,-14.36 1.94,-14.12 2.08,-13.85 2.21,-13.54 2.34,-13.19 2.48,-12.8 2.61,-12.37 2.75,-11.92 2.88,-11.44 3.01,-10.94 3.15,-10.43 3.28,-9.92 3.41,-9.41 3.55,-8.9 3.68,-8.41 3.82,-7.95 3.95,-7.5 4.08,-7.09 4.22,-6.71 4.35,-6.36 4.49,-6.05 4.62,-5.77 4.75,-5.53 4.89,-5.31 5.02,-5.12 5.16,-4.95 5.29,-4.81 5.42,-4.68 5.56,-4.56 5.69,-4.44 5.82,-4.33 5.96,-4.22 6.09,-4.1 6.23,-3.97 6.36,-3.82 6.49,-3.65 6.63,-3.47 6.76,-3.26 6.9,-3.02 7.03,-2.76 7.16,-2.48 7.3,-2.17 7.43,-1.83 7.57,-1.47 7.7,-1.09 7.83,-0.69 7.97,-0.29 8.1,0.13 8.24,0.55 8.37,0.97 8.5,1.39 8.64,1.79 8.77,2.18 8.9,2.56 9.04,2.91 9.17,3.25 9.31,3.56 9.44,3.84 9.57,4.1 9.71,4.34 9.84,4.55 9.98,4.74 10.11,4.91 10.24,5.05 10.38,5.18 10.51,5.29 10.65,5.39 10.78,5.48 10.91,5.56 11.05,5.63 11.18,5.69 11.32,5.75 11.45,5.81 11.58,5.87 11.72,5.92 11.85,5.98 11.98,6.03 12.12,6.09 12.25,6.15 12.39,6.21 12.52,6.27 12.65,6.33 12.79,6.39 12.92,6.44 13.06,6.5 13.19,6.55 13.32,6.61 13.46,6.65 13.59,6.7 13.73,6.74 13.86,6.78 13.99,6.81 14.13,6.84 14.26,6.87 14.4,6.89 14.53,6.91 14.66,6.92 14.8,6.94 14.93,6.95 15.06,6.96 15.2,6.97 15.33,6.97 15.47,6.98 15.6,6.98 15.73,6.98 15.87,6.99 16,6.99 16.14,6.99 16.27,6.99 16.4,6.99 16.54,6.99 16.67,6.99 16.81,6.99 16.94,6.99 17.07,6.99 " class="primitive"/>
                  </g>
                </g>
              </g>
            </g>
          </g>
        </g>
        <g clip-path="url(#img-1afc5b01-84)">
          <g id="img-1afc5b01-85">
            <g pointer-events="visible" stroke-width="0.3" fill="#000000" fill-opacity="0.000" stroke="#000000" stroke-opacity="0.000" class="guide background" id="img-1afc5b01-86">
              <g transform="translate(51.67,21.53)" id="img-1afc5b01-87">
                <path d="M-26.92,-14.53 L26.92,-14.53 26.92,14.53 -26.92,14.53  z" class="primitive"/>
              </g>
            </g>
            <g class="guide ygridlines xfixed" stroke-dasharray="0.5,0.5" stroke-width="0.2" stroke="#D0D0E0" id="img-1afc5b01-88">
              <g transform="translate(51.67,34.05)" id="img-1afc5b01-89">
                <path fill="none" d="M-26.92,0 L26.92,0 " class="primitive"/>
              </g>
              <g transform="translate(51.67,29.04)" id="img-1afc5b01-90">
                <path fill="none" d="M-26.92,0 L26.92,0 " class="primitive"/>
              </g>
              <g transform="translate(51.67,24.03)" id="img-1afc5b01-91">
                <path fill="none" d="M-26.92,0 L26.92,0 " class="primitive"/>
              </g>
              <g transform="translate(51.67,19.02)" id="img-1afc5b01-92">
                <path fill="none" d="M-26.92,0 L26.92,0 " class="primitive"/>
              </g>
              <g transform="translate(51.67,14.01)" id="img-1afc5b01-93">
                <path fill="none" d="M-26.92,0 L26.92,0 " class="primitive"/>
              </g>
              <g transform="translate(51.67,9)" id="img-1afc5b01-94">
                <path fill="none" d="M-26.92,0 L26.92,0 " class="primitive"/>
              </g>
            </g>
            <g class="guide xgridlines yfixed" stroke-dasharray="0.5,0.5" stroke-width="0.2" stroke="#D0D0E0" id="img-1afc5b01-95">
              <g transform="translate(26.75,21.53)" id="img-1afc5b01-96">
                <path fill="none" d="M0,-14.53 L0,14.53 " class="primitive"/>
              </g>
              <g transform="translate(51.67,21.53)" id="img-1afc5b01-97">
                <path fill="none" d="M0,-14.53 L0,14.53 " class="primitive"/>
              </g>
              <g transform="translate(76.59,21.53)" id="img-1afc5b01-98">
                <path fill="none" d="M0,-14.53 L0,14.53 " class="primitive"/>
              </g>
            </g>
            <g class="plotpanel" id="img-1afc5b01-99">
              <metadata>
                <boundingbox value="24.749166666666667mm 7.0mm 53.83609478532142mm 29.051666666666662mm"/>
                <unitbox value="-5.401315554241436 0.5399175038254275 10.802631108482872 -0.5798350076508549"/>
              </metadata>
              <g stroke-width="0.3" fill="#000000" fill-opacity="0.000" class="geometry" id="img-1afc5b01-100">
                <g class="color_LCHab{Float32}(70.0f0,60.0f0,240.0f0)" stroke-dasharray="none" stroke-opacity="1" stroke="#00BFFF" id="img-1afc5b01-101">
                  <g transform="translate(49.67,28.1)" id="img-1afc5b01-102">
                    <path fill="none" d="M-20.9,5.95 L-20.73,5.95 -20.57,5.95 -20.41,5.95 -20.24,5.95 -20.08,5.95 -19.91,5.95 -19.75,5.95 -19.59,5.95 -19.42,5.95 -19.26,5.95 -19.09,5.94 -18.93,5.94 -18.77,5.94 -18.6,5.93 -18.44,5.93 -18.27,5.92 -18.11,5.92 -17.95,5.91 -17.78,5.9 -17.62,5.88 -17.46,5.87 -17.29,5.85 -17.13,5.83 -16.96,5.8 -16.8,5.78 -16.64,5.74 -16.47,5.71 -16.31,5.67 -16.14,5.63 -15.98,5.58 -15.82,5.53 -15.65,5.48 -15.49,5.42 -15.32,5.36 -15.16,5.31 -15,5.25 -14.83,5.19 -14.67,5.13 -14.51,5.07 -14.34,5.02 -14.18,4.97 -14.01,4.92 -13.85,4.88 -13.69,4.85 -13.52,4.82 -13.36,4.79 -13.19,4.77 -13.03,4.76 -12.87,4.74 -12.7,4.74 -12.54,4.73 -12.37,4.73 -12.21,4.73 -12.05,4.72 -11.88,4.72 -11.72,4.71 -11.55,4.7 -11.39,4.69 -11.23,4.67 -11.06,4.65 -10.9,4.62 -10.74,4.58 -10.57,4.55 -10.41,4.51 -10.24,4.47 -10.08,4.42 -9.92,4.38 -9.75,4.34 -9.59,4.29 -9.42,4.26 -9.26,4.22 -9.1,4.19 -8.93,4.16 -8.77,4.14 -8.6,4.12 -8.44,4.1 -8.28,4.08 -8.11,4.07 -7.95,4.05 -7.79,4.03 -7.62,4.01 -7.46,3.97 -7.29,3.93 -7.13,3.88 -6.97,3.81 -6.8,3.72 -6.64,3.62 -6.47,3.49 -6.31,3.34 -6.15,3.17 -5.98,2.98 -5.82,2.75 -5.65,2.51 -5.49,2.23 -5.33,1.93 -5.16,1.6 -5,1.24 -4.84,0.85 -4.67,0.44 -4.51,0 -4.34,-0.46 -4.18,-0.94 -4.02,-1.45 -3.85,-1.97 -3.69,-2.51 -3.52,-3.06 -3.36,-3.63 -3.2,-4.19 -3.03,-4.77 -2.87,-5.34 -2.7,-5.9 -2.54,-6.45 -2.38,-7 -2.21,-7.52 -2.05,-8.03 -1.88,-8.51 -1.72,-8.97 -1.56,-9.4 -1.39,-9.8 -1.23,-10.18 -1.07,-10.53 -0.9,-10.86 -0.74,-11.16 -0.57,-11.44 -0.41,-11.69 -0.25,-11.93 -0.08,-12.16 0.08,-12.36 0.25,-12.56 0.41,-12.74 0.57,-12.92 0.74,-13.08 0.9,-13.24 1.07,-13.38 1.23,-13.52 1.39,-13.64 1.56,-13.75 1.72,-13.84 1.88,-13.92 2.05,-13.98 2.21,-14.01 2.38,-14.03 2.54,-14.02 2.7,-13.98 2.87,-13.91 3.03,-13.82 3.2,-13.7 3.36,-13.54 3.52,-13.36 3.69,-13.16 3.85,-12.93 4.02,-12.68 4.18,-12.41 4.34,-12.12 4.51,-11.83 4.67,-11.52 4.84,-11.21 5,-10.89 5.16,-10.57 5.33,-10.26 5.49,-9.95 5.65,-9.65 5.82,-9.36 5.98,-9.07 6.15,-8.79 6.31,-8.52 6.47,-8.25 6.64,-7.98 6.8,-7.72 6.97,-7.45 7.13,-7.18 7.29,-6.9 7.46,-6.62 7.62,-6.33 7.79,-6.02 7.95,-5.7 8.11,-5.37 8.28,-5.03 8.44,-4.67 8.6,-4.3 8.77,-3.91 8.93,-3.52 9.1,-3.11 9.26,-2.7 9.42,-2.28 9.59,-1.86 9.75,-1.44 9.92,-1.02 10.08,-0.61 10.24,-0.21 10.41,0.19 10.57,0.57 10.74,0.94 10.9,1.3 11.06,1.64 11.23,1.96 11.39,2.26 11.55,2.54 11.72,2.8 11.88,3.05 12.05,3.27 12.21,3.48 12.37,3.67 12.54,3.85 12.7,4.01 12.87,4.16 13.03,4.29 13.19,4.41 13.36,4.53 13.52,4.64 13.69,4.73 13.85,4.83 14.01,4.91 14.18,4.99 14.34,5.07 14.51,5.14 14.67,5.21 14.83,5.28 15,5.34 15.16,5.4 15.32,5.45 15.49,5.51 15.65,5.56 15.82,5.6 15.98,5.64 16.14,5.68 16.31,5.72 16.47,5.75 16.64,5.78 16.8,5.81 16.96,5.83 17.13,5.85 17.29,5.87 17.46,5.88 17.62,5.89 17.78,5.9 17.95,5.91 18.11,5.92 18.27,5.93 18.44,5.93 18.6,5.94 18.77,5.94 18.93,5.94 19.09,5.94 19.26,5.95 19.42,5.95 19.59,5.95 19.75,5.95 19.91,5.95 20.08,5.95 20.24,5.95 20.41,5.95 20.57,5.95 20.73,5.95 20.9,5.95 " class="primitive"/>
                  </g>
                </g>
              </g>
            </g>
          </g>
        </g>
        <g class="guide ylabels" font-size="2.82" font-family="'PT Sans Caption','Helvetica Neue','Helvetica',sans-serif" fill="#6C606B" id="img-1afc5b01-103">
          <g transform="translate(23.75,34.05)" id="img-1afc5b01-104">
            <g class="primitive">
              <text text-anchor="end" dy="0.35em">0.0</text>
            </g>
          </g>
          <g transform="translate(23.75,29.04)" id="img-1afc5b01-105">
            <g class="primitive">
              <text text-anchor="end" dy="0.35em">0.1</text>
            </g>
          </g>
          <g transform="translate(23.75,24.03)" id="img-1afc5b01-106">
            <g class="primitive">
              <text text-anchor="end" dy="0.35em">0.2</text>
            </g>
          </g>
          <g transform="translate(23.75,19.02)" id="img-1afc5b01-107">
            <g class="primitive">
              <text text-anchor="end" dy="0.35em">0.3</text>
            </g>
          </g>
          <g transform="translate(23.75,14.01)" id="img-1afc5b01-108">
            <g class="primitive">
              <text text-anchor="end" dy="0.35em">0.4</text>
            </g>
          </g>
          <g transform="translate(23.75,9)" id="img-1afc5b01-109">
            <g class="primitive">
              <text text-anchor="end" dy="0.35em">0.5</text>
            </g>
          </g>
        </g>
        <g font-size="3.88" font-family="'PT Sans','Helvetica Neue','Helvetica',sans-serif" fill="#564A55" stroke="#000000" stroke-opacity="0.000" id="img-1afc5b01-110">
          <g transform="translate(16.73,21.53)" id="img-1afc5b01-111">
            <g class="primitive">
              <text text-anchor="end" dy="0.35em">1</text>
            </g>
          </g>
        </g>
      </g>
    </g>
  </g>
  <g font-size="3.88" font-family="'PT Sans','Helvetica Neue','Helvetica',sans-serif" fill="#564A55" stroke="#000000" stroke-opacity="0.000" id="img-1afc5b01-112">
    <g transform="translate(8.81,43.19)" id="img-1afc5b01-113">
      <g class="primitive">
        <text text-anchor="middle" dy="0.35em" transform="rotate(-90,0, 2)">Chain</text>
      </g>
    </g>
  </g>
</g>
<defs>
  <clipPath id="img-1afc5b01-3">
    <path d="M12.61,5 L136.42,5 136.42,85.39 12.61,85.39 " />
  </clipPath>
  <clipPath id="img-1afc5b01-18">
    <path d="M82.59,40.05 L134.42,40.05 134.42,71.1 82.59,71.1 " />
  </clipPath>
  <clipPath id="img-1afc5b01-37">
    <path d="M24.75,40.05 L78.59,40.05 78.59,71.1 24.75,71.1 " />
  </clipPath>
  <clipPath id="img-1afc5b01-65">
    <path d="M82.59,7 L134.42,7 134.42,36.05 82.59,36.05 " />
  </clipPath>
  <clipPath id="img-1afc5b01-84">
    <path d="M24.75,7 L78.59,7 78.59,36.05 24.75,36.05 " />
  </clipPath>
</defs>
</svg>
