<?xml version="1.0" encoding="utf-8"?>
<svg xmlns="http://www.w3.org/2000/svg" xmlns:xlink="http://www.w3.org/1999/xlink" width="500" height="250" viewBox="0 0 2000 1000">
<defs>
  <clipPath id="clip780">
    <rect x="0" y="0" width="2000" height="1000"/>
  </clipPath>
</defs>
<path clip-path="url(#clip780)" d="M0 1000 L2000 1000 L2000 0 L0 0  Z" fill="#ffffff" fill-rule="evenodd" fill-opacity="1"/>
<defs>
  <clipPath id="clip781">
    <rect x="143" y="108" width="1810" height="794"/>
  </clipPath>
</defs>
<path clip-path="url(#clip780)" d="M143.478 901.088 L1952.76 901.088 L1952.76 108.352 L143.478 108.352  Z" fill="#ffffff" fill-rule="evenodd" fill-opacity="1"/>
<polyline clip-path="url(#clip781)" style="stroke:#000000; stroke-linecap:round; stroke-linejoin:round; stroke-width:2; stroke-opacity:0.1; fill:none" points="1048.12,901.088 1048.12,108.352 "/>
<polyline clip-path="url(#clip781)" style="stroke:#000000; stroke-linecap:round; stroke-linejoin:round; stroke-width:2; stroke-opacity:0.1; fill:none" points="143.478,852.388 1952.76,852.388 "/>
<polyline clip-path="url(#clip781)" style="stroke:#000000; stroke-linecap:round; stroke-linejoin:round; stroke-width:2; stroke-opacity:0.1; fill:none" points="143.478,704.545 1952.76,704.545 "/>
<polyline clip-path="url(#clip781)" style="stroke:#000000; stroke-linecap:round; stroke-linejoin:round; stroke-width:2; stroke-opacity:0.1; fill:none" points="143.478,556.701 1952.76,556.701 "/>
<polyline clip-path="url(#clip781)" style="stroke:#000000; stroke-linecap:round; stroke-linejoin:round; stroke-width:2; stroke-opacity:0.1; fill:none" points="143.478,408.858 1952.76,408.858 "/>
<polyline clip-path="url(#clip781)" style="stroke:#000000; stroke-linecap:round; stroke-linejoin:round; stroke-width:2; stroke-opacity:0.1; fill:none" points="143.478,261.014 1952.76,261.014 "/>
<polyline clip-path="url(#clip781)" style="stroke:#000000; stroke-linecap:round; stroke-linejoin:round; stroke-width:2; stroke-opacity:0.1; fill:none" points="143.478,113.17 1952.76,113.17 "/>
<polyline clip-path="url(#clip780)" style="stroke:#000000; stroke-linecap:round; stroke-linejoin:round; stroke-width:4; stroke-opacity:1; fill:none" points="143.478,901.088 1952.76,901.088 "/>
<polyline clip-path="url(#clip780)" style="stroke:#000000; stroke-linecap:round; stroke-linejoin:round; stroke-width:4; stroke-opacity:1; fill:none" points="1048.12,901.088 1048.12,882.19 "/>
<path clip-path="url(#clip780)" d="M989.182 928.39 L989.182 933.32 Q986.821 931.121 984.136 930.033 Q981.474 928.945 978.465 928.945 Q972.539 928.945 969.39 932.58 Q966.242 936.191 966.242 943.043 Q966.242 949.871 969.39 953.506 Q972.539 957.117 978.465 957.117 Q981.474 957.117 984.136 956.029 Q986.821 954.941 989.182 952.742 L989.182 957.626 Q986.728 959.293 983.974 960.126 Q981.242 960.959 978.187 960.959 Q970.34 960.959 965.826 956.168 Q961.312 951.353 961.312 943.043 Q961.312 934.709 965.826 929.918 Q970.34 925.103 978.187 925.103 Q981.289 925.103 984.02 925.936 Q986.775 926.746 989.182 928.39 Z" fill="#000000" fill-rule="nonzero" fill-opacity="1" /><path clip-path="url(#clip780)" d="M1017.77 944.64 L1017.77 960.288 L1013.51 960.288 L1013.51 944.779 Q1013.51 941.098 1012.08 939.269 Q1010.64 937.441 1007.77 937.441 Q1004.32 937.441 1002.33 939.64 Q1000.34 941.839 1000.34 945.635 L1000.34 960.288 L996.057 960.288 L996.057 924.27 L1000.34 924.27 L1000.34 938.39 Q1001.87 936.052 1003.93 934.894 Q1006.01 933.737 1008.72 933.737 Q1013.19 933.737 1015.48 936.515 Q1017.77 939.269 1017.77 944.64 Z" fill="#000000" fill-rule="nonzero" fill-opacity="1" /><path clip-path="url(#clip780)" d="M1038.05 947.256 Q1032.89 947.256 1030.89 948.436 Q1028.9 949.617 1028.9 952.464 Q1028.9 954.732 1030.39 956.075 Q1031.89 957.394 1034.46 957.394 Q1038 957.394 1040.13 954.894 Q1042.28 952.371 1042.28 948.205 L1042.28 947.256 L1038.05 947.256 M1046.54 945.496 L1046.54 960.288 L1042.28 960.288 L1042.28 956.353 Q1040.83 958.714 1038.65 959.848 Q1036.47 960.959 1033.33 960.959 Q1029.34 960.959 1026.98 958.737 Q1024.64 956.492 1024.64 952.742 Q1024.64 948.367 1027.56 946.144 Q1030.5 943.922 1036.31 943.922 L1042.28 943.922 L1042.28 943.506 Q1042.28 940.566 1040.34 938.969 Q1038.42 937.348 1034.92 937.348 Q1032.7 937.348 1030.59 937.881 Q1028.49 938.413 1026.54 939.478 L1026.54 935.543 Q1028.88 934.64 1031.08 934.2 Q1033.28 933.737 1035.36 933.737 Q1040.99 933.737 1043.77 936.654 Q1046.54 939.57 1046.54 945.496 Z" fill="#000000" fill-rule="nonzero" fill-opacity="1" /><path clip-path="url(#clip780)" d="M1055.32 934.362 L1059.58 934.362 L1059.58 960.288 L1055.32 960.288 L1055.32 934.362 M1055.32 924.27 L1059.58 924.27 L1059.58 929.663 L1055.32 929.663 L1055.32 924.27 Z" fill="#000000" fill-rule="nonzero" fill-opacity="1" /><path clip-path="url(#clip780)" d="M1090.04 944.64 L1090.04 960.288 L1085.78 960.288 L1085.78 944.779 Q1085.78 941.098 1084.34 939.269 Q1082.91 937.441 1080.04 937.441 Q1076.59 937.441 1074.6 939.64 Q1072.61 941.839 1072.61 945.635 L1072.61 960.288 L1068.33 960.288 L1068.33 934.362 L1072.61 934.362 L1072.61 938.39 Q1074.14 936.052 1076.2 934.894 Q1078.28 933.737 1080.99 933.737 Q1085.45 933.737 1087.75 936.515 Q1090.04 939.269 1090.04 944.64 Z" fill="#000000" fill-rule="nonzero" fill-opacity="1" /><path clip-path="url(#clip780)" d="M1115.01 956.353 L1122.65 956.353 L1122.65 929.987 L1114.34 931.654 L1114.34 927.395 L1122.61 925.728 L1127.28 925.728 L1127.28 956.353 L1134.92 956.353 L1134.92 960.288 L1115.01 960.288 L1115.01 956.353 Z" fill="#000000" fill-rule="nonzero" fill-opacity="1" /><polyline clip-path="url(#clip780)" style="stroke:#000000; stroke-linecap:round; stroke-linejoin:round; stroke-width:4; stroke-opacity:1; fill:none" points="143.478,901.088 143.478,108.352 "/>
<polyline clip-path="url(#clip780)" style="stroke:#000000; stroke-linecap:round; stroke-linejoin:round; stroke-width:4; stroke-opacity:1; fill:none" points="143.478,852.388 162.376,852.388 "/>
<polyline clip-path="url(#clip780)" style="stroke:#000000; stroke-linecap:round; stroke-linejoin:round; stroke-width:4; stroke-opacity:1; fill:none" points="143.478,704.545 162.376,704.545 "/>
<polyline clip-path="url(#clip780)" style="stroke:#000000; stroke-linecap:round; stroke-linejoin:round; stroke-width:4; stroke-opacity:1; fill:none" points="143.478,556.701 162.376,556.701 "/>
<polyline clip-path="url(#clip780)" style="stroke:#000000; stroke-linecap:round; stroke-linejoin:round; stroke-width:4; stroke-opacity:1; fill:none" points="143.478,408.858 162.376,408.858 "/>
<polyline clip-path="url(#clip780)" style="stroke:#000000; stroke-linecap:round; stroke-linejoin:round; stroke-width:4; stroke-opacity:1; fill:none" points="143.478,261.014 162.376,261.014 "/>
<polyline clip-path="url(#clip780)" style="stroke:#000000; stroke-linecap:round; stroke-linejoin:round; stroke-width:4; stroke-opacity:1; fill:none" points="143.478,113.17 162.376,113.17 "/>
<path clip-path="url(#clip780)" d="M52.9921 852.84 L82.6679 852.84 L82.6679 856.775 L52.9921 856.775 L52.9921 852.84 Z" fill="#000000" fill-rule="nonzero" fill-opacity="1" /><path clip-path="url(#clip780)" d="M93.5706 865.733 L101.209 865.733 L101.209 839.368 L92.8993 841.034 L92.8993 836.775 L101.163 835.108 L105.839 835.108 L105.839 865.733 L113.478 865.733 L113.478 869.668 L93.5706 869.668 L93.5706 865.733 Z" fill="#000000" fill-rule="nonzero" fill-opacity="1" /><path clip-path="url(#clip780)" d="M101.534 690.344 Q97.9224 690.344 96.0937 693.908 Q94.2882 697.45 94.2882 704.58 Q94.2882 711.686 96.0937 715.251 Q97.9224 718.792 101.534 718.792 Q105.168 718.792 106.973 715.251 Q108.802 711.686 108.802 704.58 Q108.802 697.45 106.973 693.908 Q105.168 690.344 101.534 690.344 M101.534 686.64 Q107.344 686.64 110.399 691.246 Q113.478 695.83 113.478 704.58 Q113.478 713.306 110.399 717.913 Q107.344 722.496 101.534 722.496 Q95.7234 722.496 92.6447 717.913 Q89.5892 713.306 89.5892 704.58 Q89.5892 695.83 92.6447 691.246 Q95.7234 686.64 101.534 686.64 Z" fill="#000000" fill-rule="nonzero" fill-opacity="1" /><path clip-path="url(#clip780)" d="M93.5706 570.046 L101.209 570.046 L101.209 543.681 L92.8993 545.347 L92.8993 541.088 L101.163 539.421 L105.839 539.421 L105.839 570.046 L113.478 570.046 L113.478 573.981 L93.5706 573.981 L93.5706 570.046 Z" fill="#000000" fill-rule="nonzero" fill-opacity="1" /><path clip-path="url(#clip780)" d="M97.1586 422.203 L113.478 422.203 L113.478 426.138 L91.5336 426.138 L91.5336 422.203 Q94.1956 419.448 98.7789 414.818 Q103.385 410.166 104.566 408.823 Q106.811 406.3 107.691 404.564 Q108.594 402.804 108.594 401.115 Q108.594 398.36 106.649 396.624 Q104.728 394.888 101.626 394.888 Q99.4271 394.888 96.9734 395.652 Q94.5428 396.416 91.7651 397.967 L91.7651 393.244 Q94.5891 392.11 97.0428 391.531 Q99.4965 390.953 101.534 390.953 Q106.904 390.953 110.098 393.638 Q113.293 396.323 113.293 400.814 Q113.293 402.943 112.483 404.865 Q111.696 406.763 109.589 409.355 Q109.01 410.027 105.909 413.244 Q102.807 416.439 97.1586 422.203 Z" fill="#000000" fill-rule="nonzero" fill-opacity="1" /><path clip-path="url(#clip780)" d="M106.348 259.66 Q109.705 260.378 111.58 262.646 Q113.478 264.915 113.478 268.248 Q113.478 273.364 109.959 276.164 Q106.441 278.965 99.9595 278.965 Q97.7836 278.965 95.4688 278.526 Q93.1771 278.109 90.7234 277.252 L90.7234 272.739 Q92.6678 273.873 94.9826 274.452 Q97.2974 275.03 99.8206 275.03 Q104.219 275.03 106.51 273.294 Q108.825 271.558 108.825 268.248 Q108.825 265.192 106.672 263.479 Q104.543 261.743 100.723 261.743 L96.6956 261.743 L96.6956 257.901 L100.909 257.901 Q104.358 257.901 106.186 256.535 Q108.015 255.146 108.015 252.553 Q108.015 249.891 106.117 248.479 Q104.242 247.044 100.723 247.044 Q98.8021 247.044 96.603 247.461 Q94.4039 247.878 91.7651 248.757 L91.7651 244.591 Q94.4271 243.85 96.7419 243.479 Q99.0798 243.109 101.14 243.109 Q106.464 243.109 109.566 245.54 Q112.668 247.947 112.668 252.067 Q112.668 254.938 111.024 256.928 Q109.381 258.896 106.348 259.66 Z" fill="#000000" fill-rule="nonzero" fill-opacity="1" /><path clip-path="url(#clip780)" d="M103.895 99.9645 L92.0891 118.414 L103.895 118.414 L103.895 99.9645 M102.668 95.8905 L108.547 95.8905 L108.547 118.414 L113.478 118.414 L113.478 122.302 L108.547 122.302 L108.547 130.45 L103.895 130.45 L103.895 122.302 L88.2929 122.302 L88.2929 117.789 L102.668 95.8905 Z" fill="#000000" fill-rule="nonzero" fill-opacity="1" /><path clip-path="url(#clip780)" d="M1048.12 20.1573 L1037.02 50.2555 L1059.26 50.2555 L1048.12 20.1573 M1043.5 12.096 L1052.78 12.096 L1075.83 72.576 L1067.32 72.576 L1061.81 57.061 L1034.55 57.061 L1029.04 72.576 L1020.41 72.576 L1043.5 12.096 Z" fill="#000000" fill-rule="nonzero" fill-opacity="1" /><path clip-path="url(#clip781)" d="M1161.78 878.048 L1169.55 872.434 L1176.59 866.82 L1182.84 861.206 L1188.28 855.592 L1192.95 849.978 L1196.95 844.364 L1200.46 838.75 L1203.68 833.136 L1206.89 827.522 L1210.38 821.908 L1214.47 816.294 L1219.48 810.68 L1225.73 805.066 L1233.51 799.452 L1243.08 793.839 L1254.68 788.225 L1268.47 782.611 L1284.57 776.997 L1303.05 771.383 L1323.92 765.769 L1347.11 760.155 L1372.52 754.541 L1399.96 748.927 L1429.22 743.313 L1460.03 737.699 L1492.07 732.085 L1525.02 726.471 L1558.5 720.857 L1592.15 715.243 L1625.58 709.629 L1658.43 704.015 L1690.33 698.401 L1720.94 692.787 L1749.93 687.173 L1777.02 681.559 L1801.93 675.946 L1824.41 670.332 L1844.28 664.718 L1861.33 659.104 L1875.46 653.49 L1886.55 647.876 L1894.58 642.262 L1899.55 636.648 L1901.55 631.034 L1900.72 625.42 L1897.26 619.806 L1891.47 614.192 L1883.65 608.578 L1874.21 602.964 L1863.53 597.35 L1852.03 591.736 L1840.11 586.122 L1828.15 580.508 L1816.47 574.894 L1805.34 569.28 L1794.94 563.666 L1785.4 558.053 L1776.76 552.439 L1769.01 546.825 L1762.09 541.211 L1755.9 535.597 L1750.32 529.983 L1745.23 524.369 L1740.53 518.755 L1736.12 513.141 L1731.94 507.527 L1727.95 501.913 L1724.15 496.299 L1720.54 490.685 L1717.16 485.071 L1714.03 479.457 L1711.17 473.843 L1708.61 468.229 L1706.33 462.615 L1704.29 457.001 L1702.42 451.387 L1700.61 445.774 L1698.71 440.16 L1696.56 434.546 L1693.95 428.932 L1690.65 423.318 L1686.46 417.704 L1681.13 412.09 L1674.47 406.476 L1666.28 400.862 L1656.43 395.248 L1644.82 389.634 L1631.41 384.02 L1616.21 378.406 L1599.29 372.792 L1580.79 367.178 L1560.87 361.564 L1539.76 355.95 L1517.69 350.336 L1494.92 344.722 L1471.71 339.108 L1448.32 333.494 L1424.97 327.881 L1401.88 322.267 L1379.22 316.653 L1357.15 311.039 L1335.79 305.425 L1315.22 299.811 L1295.51 294.197 L1276.71 288.583 L1258.83 282.969 L1241.89 277.355 L1225.9 271.741 L1210.84 266.127 L1196.71 260.513 L1183.51 254.899 L1171.22 249.285 L1159.84 243.671 L1149.36 238.057 L1139.77 232.443 L1131.06 226.829 L1123.23 221.215 L1116.25 215.601 L1110.09 209.988 L1104.71 204.374 L1100.08 198.76 L1096.12 193.146 L1092.77 187.532 L1089.94 181.918 L1087.56 176.304 L1085.53 170.69 L1083.77 165.076 L1082.19 159.462 L1080.71 153.848 L1079.27 148.234 L1077.82 142.62 L1076.31 137.006 L1074.72 131.392 L1021.51 131.392 L1019.93 137.006 L1018.42 142.62 L1016.96 148.234 L1015.52 153.848 L1014.05 159.462 L1012.47 165.076 L1010.7 170.69 L1008.67 176.304 L1006.29 181.918 L1003.47 187.532 L1000.12 193.146 L996.157 198.76 L991.52 204.374 L986.146 209.988 L979.986 215.601 L973.003 221.215 L965.169 226.829 L956.465 232.443 L946.876 238.057 L936.395 243.671 L925.013 249.285 L912.723 254.899 L899.52 260.513 L885.393 266.127 L870.336 271.741 L854.341 277.355 L837.404 282.969 L819.528 288.583 L800.724 294.197 L781.016 299.811 L760.449 305.425 L739.085 311.039 L717.015 316.653 L694.359 322.267 L671.265 327.881 L647.916 333.494 L624.52 339.108 L601.313 344.722 L578.545 350.336 L556.476 355.95 L535.363 361.564 L515.447 367.178 L496.943 372.792 L480.026 378.406 L464.824 384.02 L451.41 389.634 L439.8 395.248 L429.951 400.862 L421.766 406.476 L415.102 412.09 L409.776 417.704 L405.579 423.318 L402.288 428.932 L399.675 434.546 L397.521 440.16 L395.625 445.774 L393.813 451.387 L391.942 457.001 L389.902 462.615 L387.621 468.229 L385.06 473.843 L382.207 479.457 L379.076 485.071 L375.691 490.685 L372.084 496.299 L368.281 501.913 L364.294 507.527 L360.113 513.141 L355.704 518.755 L351.001 524.369 L345.915 529.983 L340.335 535.597 L334.143 541.211 L327.221 546.825 L319.472 552.439 L310.833 558.053 L301.291 563.666 L290.893 569.28 L279.759 574.894 L268.082 580.508 L256.123 586.122 L244.207 591.736 L232.708 597.35 L222.027 602.964 L212.579 608.578 L204.768 614.192 L198.97 619.806 L195.517 625.42 L194.684 631.034 L196.682 636.648 L201.655 642.262 L209.681 647.876 L220.776 653.49 L234.899 659.104 L251.959 664.718 L271.82 670.332 L294.308 675.946 L319.215 681.559 L346.302 687.173 L375.298 692.787 L405.906 698.401 L437.807 704.015 L470.654 709.629 L504.088 715.243 L537.735 720.857 L571.218 726.471 L604.163 732.085 L636.208 737.699 L667.014 743.313 L696.274 748.927 L723.717 754.541 L749.121 760.155 L772.313 765.769 L793.179 771.383 L811.662 776.997 L827.767 782.611 L841.555 788.225 L853.149 793.839 L862.724 799.452 L870.503 805.066 L876.75 810.68 L881.761 816.294 L885.85 821.908 L889.341 827.522 L892.551 833.136 L895.776 838.75 L899.281 844.364 L903.285 849.978 L907.952 855.592 L913.389 861.206 L919.639 866.82 L926.684 872.434 L934.45 878.048 L1161.78 878.048  Z" fill="#009af9" fill-rule="evenodd" fill-opacity="1"/>
<polyline clip-path="url(#clip781)" style="stroke:#000000; stroke-linecap:round; stroke-linejoin:round; stroke-width:4; stroke-opacity:1; fill:none" points="1161.78,878.048 1169.55,872.434 1176.59,866.82 1182.84,861.206 1188.28,855.592 1192.95,849.978 1196.95,844.364 1200.46,838.75 1203.68,833.136 1206.89,827.522 1210.38,821.908 1214.47,816.294 1219.48,810.68 1225.73,805.066 1233.51,799.452 1243.08,793.839 1254.68,788.225 1268.47,782.611 1284.57,776.997 1303.05,771.383 1323.92,765.769 1347.11,760.155 1372.52,754.541 1399.96,748.927 1429.22,743.313 1460.03,737.699 1492.07,732.085 1525.02,726.471 1558.5,720.857 1592.15,715.243 1625.58,709.629 1658.43,704.015 1690.33,698.401 1720.94,692.787 1749.93,687.173 1777.02,681.559 1801.93,675.946 1824.41,670.332 1844.28,664.718 1861.33,659.104 1875.46,653.49 1886.55,647.876 1894.58,642.262 1899.55,636.648 1901.55,631.034 1900.72,625.42 1897.26,619.806 1891.47,614.192 1883.65,608.578 1874.21,602.964 1863.53,597.35 1852.03,591.736 1840.11,586.122 1828.15,580.508 1816.47,574.894 1805.34,569.28 1794.94,563.666 1785.4,558.053 1776.76,552.439 1769.01,546.825 1762.09,541.211 1755.9,535.597 1750.32,529.983 1745.23,524.369 1740.53,518.755 1736.12,513.141 1731.94,507.527 1727.95,501.913 1724.15,496.299 1720.54,490.685 1717.16,485.071 1714.03,479.457 1711.17,473.843 1708.61,468.229 1706.33,462.615 1704.29,457.001 1702.42,451.387 1700.61,445.774 1698.71,440.16 1696.56,434.546 1693.95,428.932 1690.65,423.318 1686.46,417.704 1681.13,412.09 1674.47,406.476 1666.28,400.862 1656.43,395.248 1644.82,389.634 1631.41,384.02 1616.21,378.406 1599.29,372.792 1580.79,367.178 1560.87,361.564 1539.76,355.95 1517.69,350.336 1494.92,344.722 1471.71,339.108 1448.32,333.494 1424.97,327.881 1401.88,322.267 1379.22,316.653 1357.15,311.039 1335.79,305.425 1315.22,299.811 1295.51,294.197 1276.71,288.583 1258.83,282.969 1241.89,277.355 1225.9,271.741 1210.84,266.127 1196.71,260.513 1183.51,254.899 1171.22,249.285 1159.84,243.671 1149.36,238.057 1139.77,232.443 1131.06,226.829 1123.23,221.215 1116.25,215.601 1110.09,209.988 1104.71,204.374 1100.08,198.76 1096.12,193.146 1092.77,187.532 1089.94,181.918 1087.56,176.304 1085.53,170.69 1083.77,165.076 1082.19,159.462 1080.71,153.848 1079.27,148.234 1077.82,142.62 1076.31,137.006 1074.72,131.392 1021.51,131.392 1019.93,137.006 1018.42,142.62 1016.96,148.234 1015.52,153.848 1014.05,159.462 1012.47,165.076 1010.7,170.69 1008.67,176.304 1006.29,181.918 1003.47,187.532 1000.12,193.146 996.157,198.76 991.52,204.374 986.146,209.988 979.986,215.601 973.003,221.215 965.169,226.829 956.465,232.443 946.876,238.057 936.395,243.671 925.013,249.285 912.723,254.899 899.52,260.513 885.393,266.127 870.336,271.741 854.341,277.355 837.404,282.969 819.528,288.583 800.724,294.197 781.016,299.811 760.449,305.425 739.085,311.039 717.015,316.653 694.359,322.267 671.265,327.881 647.916,333.494 624.52,339.108 601.313,344.722 578.545,350.336 556.476,355.95 535.363,361.564 515.447,367.178 496.943,372.792 480.026,378.406 464.824,384.02 451.41,389.634 439.8,395.248 429.951,400.862 421.766,406.476 415.102,412.09 409.776,417.704 405.579,423.318 402.288,428.932 399.675,434.546 397.521,440.16 395.625,445.774 393.813,451.387 391.942,457.001 389.902,462.615 387.621,468.229 385.06,473.843 382.207,479.457 379.076,485.071 375.691,490.685 372.084,496.299 368.281,501.913 364.294,507.527 360.113,513.141 355.704,518.755 351.001,524.369 345.915,529.983 340.335,535.597 334.143,541.211 327.221,546.825 319.472,552.439 310.833,558.053 301.291,563.666 290.893,569.28 279.759,574.894 268.082,580.508 256.123,586.122 244.207,591.736 232.708,597.35 222.027,602.964 212.579,608.578 204.768,614.192 198.97,619.806 195.517,625.42 194.684,631.034 196.682,636.648 201.655,642.262 209.681,647.876 220.776,653.49 234.899,659.104 251.959,664.718 271.82,670.332 294.308,675.946 319.215,681.559 346.302,687.173 375.298,692.787 405.906,698.401 437.807,704.015 470.654,709.629 504.088,715.243 537.735,720.857 571.218,726.471 604.163,732.085 636.208,737.699 667.014,743.313 696.274,748.927 723.717,754.541 749.121,760.155 772.313,765.769 793.179,771.383 811.662,776.997 827.767,782.611 841.555,788.225 853.149,793.839 862.724,799.452 870.503,805.066 876.75,810.68 881.761,816.294 885.85,821.908 889.341,827.522 892.551,833.136 895.776,838.75 899.281,844.364 903.285,849.978 907.952,855.592 913.389,861.206 919.639,866.82 926.684,872.434 934.45,878.048 1161.78,878.048 "/>
<path clip-path="url(#clip781)" d="M1048.12 878.652 L994.777 878.652 L1101.46 878.652 L1048.12 878.652 L1048.12 654.16 L1048.12 878.652  Z" fill="#e26f46" fill-rule="evenodd" fill-opacity="0.8"/>
<polyline clip-path="url(#clip781)" style="stroke:#000000; stroke-linecap:round; stroke-linejoin:round; stroke-width:8; stroke-opacity:1; fill:none" points="1048.12,878.652 994.777,878.652 1101.46,878.652 1048.12,878.652 1048.12,654.16 1048.12,878.652 "/>
<path clip-path="url(#clip781)" d="M1154.8 654.16 L1154.8 550.454 L941.438 550.454 L941.438 654.16 L1154.8 654.16 L1154.8 550.454 L1154.8 654.16  Z" fill="#e26f46" fill-rule="evenodd" fill-opacity="0.8"/>
<polyline clip-path="url(#clip781)" style="stroke:#000000; stroke-linecap:round; stroke-linejoin:round; stroke-width:8; stroke-opacity:1; fill:none" points="1154.8,654.16 1154.8,550.454 941.438,550.454 941.438,654.16 1154.8,654.16 1154.8,550.454 1154.8,654.16 "/>
<path clip-path="url(#clip781)" d="M1154.8 436.405 L941.438 436.405 L941.438 550.454 L1154.8 550.454 L1154.8 436.405 L1048.12 436.405 L1154.8 436.405  Z" fill="#e26f46" fill-rule="evenodd" fill-opacity="0.8"/>
<polyline clip-path="url(#clip781)" style="stroke:#000000; stroke-linecap:round; stroke-linejoin:round; stroke-width:8; stroke-opacity:1; fill:none" points="1154.8,436.405 941.438,436.405 941.438,550.454 1154.8,550.454 1154.8,436.405 1048.12,436.405 1154.8,436.405 "/>
<path clip-path="url(#clip781)" d="M1048.12 130.788 L994.777 130.788 L1101.46 130.788 L1048.12 130.788 L1048.12 436.405 L1048.12 130.788  Z" fill="#e26f46" fill-rule="evenodd" fill-opacity="0.8"/>
<polyline clip-path="url(#clip781)" style="stroke:#000000; stroke-linecap:round; stroke-linejoin:round; stroke-width:8; stroke-opacity:1; fill:none" points="1048.12,130.788 994.777,130.788 1101.46,130.788 1048.12,130.788 1048.12,436.405 1048.12,130.788 "/>
<polyline clip-path="url(#clip781)" style="stroke:#e26f46; stroke-linecap:round; stroke-linejoin:round; stroke-width:0; stroke-opacity:1; fill:none" points="1048.12,878.652 994.777,878.652 1101.46,878.652 1048.12,878.652 1048.12,654.16 "/>
<polyline clip-path="url(#clip781)" style="stroke:#e26f46; stroke-linecap:round; stroke-linejoin:round; stroke-width:0; stroke-opacity:1; fill:none" points="1154.8,654.16 1154.8,550.454 941.438,550.454 941.438,654.16 1154.8,654.16 1154.8,550.454 "/>
<polyline clip-path="url(#clip781)" style="stroke:#e26f46; stroke-linecap:round; stroke-linejoin:round; stroke-width:0; stroke-opacity:1; fill:none" points="1154.8,436.405 941.438,436.405 941.438,550.454 1154.8,550.454 1154.8,436.405 1048.12,436.405 "/>
<polyline clip-path="url(#clip781)" style="stroke:#e26f46; stroke-linecap:round; stroke-linejoin:round; stroke-width:0; stroke-opacity:1; fill:none" points="1048.12,130.788 994.777,130.788 1101.46,130.788 1048.12,130.788 1048.12,436.405 "/>
</svg>
