<?xml version="1.0" encoding="utf-8"?>
<svg xmlns="http://www.w3.org/2000/svg" xmlns:xlink="http://www.w3.org/1999/xlink" width="500" height="1000" viewBox="0 0 2000 4000">
<defs>
  <clipPath id="clip850">
    <rect x="0" y="0" width="2000" height="4000"/>
  </clipPath>
</defs>
<path clip-path="url(#clip850)" d="M0 4000 L2000 4000 L2000 0 L0 0  Z" fill="#ffffff" fill-rule="evenodd" fill-opacity="1"/>
<defs>
  <clipPath id="clip851">
    <rect x="800" y="400" width="2000" height="2801"/>
  </clipPath>
</defs>
<path clip-path="url(#clip850)" d="M132.459 845.168 L1952.76 845.168 L1952.76 153.712 L132.459 153.712  Z" fill="#ffffff" fill-rule="evenodd" fill-opacity="1"/>
<defs>
  <clipPath id="clip852">
    <rect x="132" y="153" width="1821" height="692"/>
  </clipPath>
</defs>
<polyline clip-path="url(#clip852)" style="stroke:#000000; stroke-linecap:round; stroke-linejoin:round; stroke-width:2; stroke-opacity:0.1; fill:none" points="1042.61,845.168 1042.61,153.712 "/>
<polyline clip-path="url(#clip852)" style="stroke:#000000; stroke-linecap:round; stroke-linejoin:round; stroke-width:2; stroke-opacity:0.1; fill:none" points="132.459,802.69 1952.76,802.69 "/>
<polyline clip-path="url(#clip852)" style="stroke:#000000; stroke-linecap:round; stroke-linejoin:round; stroke-width:2; stroke-opacity:0.1; fill:none" points="132.459,673.735 1952.76,673.735 "/>
<polyline clip-path="url(#clip852)" style="stroke:#000000; stroke-linecap:round; stroke-linejoin:round; stroke-width:2; stroke-opacity:0.1; fill:none" points="132.459,544.78 1952.76,544.78 "/>
<polyline clip-path="url(#clip852)" style="stroke:#000000; stroke-linecap:round; stroke-linejoin:round; stroke-width:2; stroke-opacity:0.1; fill:none" points="132.459,415.825 1952.76,415.825 "/>
<polyline clip-path="url(#clip852)" style="stroke:#000000; stroke-linecap:round; stroke-linejoin:round; stroke-width:2; stroke-opacity:0.1; fill:none" points="132.459,286.87 1952.76,286.87 "/>
<polyline clip-path="url(#clip852)" style="stroke:#000000; stroke-linecap:round; stroke-linejoin:round; stroke-width:2; stroke-opacity:0.1; fill:none" points="132.459,157.915 1952.76,157.915 "/>
<polyline clip-path="url(#clip850)" style="stroke:#000000; stroke-linecap:round; stroke-linejoin:round; stroke-width:4; stroke-opacity:1; fill:none" points="132.459,845.168 1952.76,845.168 "/>
<polyline clip-path="url(#clip850)" style="stroke:#000000; stroke-linecap:round; stroke-linejoin:round; stroke-width:4; stroke-opacity:1; fill:none" points="1042.61,845.168 1042.61,826.27 "/>
<path clip-path="url(#clip850)" d="M983.673 888.47 L983.673 893.4 Q981.312 891.201 978.627 890.113 Q975.965 889.025 972.955 889.025 Q967.029 889.025 963.881 892.66 Q960.733 896.271 960.733 903.123 Q960.733 909.951 963.881 913.586 Q967.029 917.197 972.955 917.197 Q975.965 917.197 978.627 916.109 Q981.312 915.021 983.673 912.822 L983.673 917.706 Q981.219 919.373 978.465 920.206 Q975.733 921.039 972.677 921.039 Q964.83 921.039 960.316 916.248 Q955.803 911.433 955.803 903.123 Q955.803 894.789 960.316 889.998 Q964.83 885.183 972.677 885.183 Q975.779 885.183 978.511 886.016 Q981.265 886.826 983.673 888.47 Z" fill="#000000" fill-rule="nonzero" fill-opacity="1" /><path clip-path="url(#clip850)" d="M1012.26 904.72 L1012.26 920.368 L1008 920.368 L1008 904.859 Q1008 901.178 1006.57 899.349 Q1005.13 897.521 1002.26 897.521 Q998.812 897.521 996.821 899.72 Q994.83 901.919 994.83 905.715 L994.83 920.368 L990.548 920.368 L990.548 884.35 L994.83 884.35 L994.83 898.47 Q996.358 896.132 998.418 894.974 Q1000.5 893.817 1003.21 893.817 Q1007.68 893.817 1009.97 896.595 Q1012.26 899.349 1012.26 904.72 Z" fill="#000000" fill-rule="nonzero" fill-opacity="1" /><path clip-path="url(#clip850)" d="M1032.54 907.336 Q1027.38 907.336 1025.39 908.516 Q1023.39 909.697 1023.39 912.544 Q1023.39 914.812 1024.88 916.155 Q1026.38 917.474 1028.95 917.474 Q1032.49 917.474 1034.62 914.974 Q1036.77 912.451 1036.77 908.285 L1036.77 907.336 L1032.54 907.336 M1041.03 905.576 L1041.03 920.368 L1036.77 920.368 L1036.77 916.433 Q1035.32 918.794 1033.14 919.928 Q1030.96 921.039 1027.82 921.039 Q1023.83 921.039 1021.47 918.817 Q1019.14 916.572 1019.14 912.822 Q1019.14 908.447 1022.05 906.224 Q1024.99 904.002 1030.8 904.002 L1036.77 904.002 L1036.77 903.586 Q1036.77 900.646 1034.83 899.049 Q1032.91 897.428 1029.41 897.428 Q1027.19 897.428 1025.08 897.961 Q1022.98 898.493 1021.03 899.558 L1021.03 895.623 Q1023.37 894.72 1025.57 894.28 Q1027.77 893.817 1029.85 893.817 Q1035.48 893.817 1038.26 896.734 Q1041.03 899.65 1041.03 905.576 Z" fill="#000000" fill-rule="nonzero" fill-opacity="1" /><path clip-path="url(#clip850)" d="M1049.81 894.442 L1054.07 894.442 L1054.07 920.368 L1049.81 920.368 L1049.81 894.442 M1049.81 884.35 L1054.07 884.35 L1054.07 889.743 L1049.81 889.743 L1049.81 884.35 Z" fill="#000000" fill-rule="nonzero" fill-opacity="1" /><path clip-path="url(#clip850)" d="M1084.53 904.72 L1084.53 920.368 L1080.27 920.368 L1080.27 904.859 Q1080.27 901.178 1078.83 899.349 Q1077.4 897.521 1074.53 897.521 Q1071.08 897.521 1069.09 899.72 Q1067.1 901.919 1067.1 905.715 L1067.1 920.368 L1062.82 920.368 L1062.82 894.442 L1067.1 894.442 L1067.1 898.47 Q1068.63 896.132 1070.69 894.974 Q1072.77 893.817 1075.48 893.817 Q1079.95 893.817 1082.24 896.595 Q1084.53 899.349 1084.53 904.72 Z" fill="#000000" fill-rule="nonzero" fill-opacity="1" /><path clip-path="url(#clip850)" d="M1109.51 916.433 L1117.14 916.433 L1117.14 890.067 L1108.83 891.734 L1108.83 887.475 L1117.1 885.808 L1121.77 885.808 L1121.77 916.433 L1129.41 916.433 L1129.41 920.368 L1109.51 920.368 L1109.51 916.433 Z" fill="#000000" fill-rule="nonzero" fill-opacity="1" /><polyline clip-path="url(#clip850)" style="stroke:#000000; stroke-linecap:round; stroke-linejoin:round; stroke-width:4; stroke-opacity:1; fill:none" points="132.459,845.168 132.459,153.712 "/>
<polyline clip-path="url(#clip850)" style="stroke:#000000; stroke-linecap:round; stroke-linejoin:round; stroke-width:4; stroke-opacity:1; fill:none" points="132.459,802.69 151.357,802.69 "/>
<polyline clip-path="url(#clip850)" style="stroke:#000000; stroke-linecap:round; stroke-linejoin:round; stroke-width:4; stroke-opacity:1; fill:none" points="132.459,673.735 151.357,673.735 "/>
<polyline clip-path="url(#clip850)" style="stroke:#000000; stroke-linecap:round; stroke-linejoin:round; stroke-width:4; stroke-opacity:1; fill:none" points="132.459,544.78 151.357,544.78 "/>
<polyline clip-path="url(#clip850)" style="stroke:#000000; stroke-linecap:round; stroke-linejoin:round; stroke-width:4; stroke-opacity:1; fill:none" points="132.459,415.825 151.357,415.825 "/>
<polyline clip-path="url(#clip850)" style="stroke:#000000; stroke-linecap:round; stroke-linejoin:round; stroke-width:4; stroke-opacity:1; fill:none" points="132.459,286.87 151.357,286.87 "/>
<polyline clip-path="url(#clip850)" style="stroke:#000000; stroke-linecap:round; stroke-linejoin:round; stroke-width:4; stroke-opacity:1; fill:none" points="132.459,157.915 151.357,157.915 "/>
<path clip-path="url(#clip850)" d="M11.9737 803.142 L41.6494 803.142 L41.6494 807.077 L11.9737 807.077 L11.9737 803.142 Z" fill="#000000" fill-rule="nonzero" fill-opacity="1" /><path clip-path="url(#clip850)" d="M52.5522 816.035 L60.191 816.035 L60.191 789.67 L51.8809 791.336 L51.8809 787.077 L60.1447 785.41 L64.8206 785.41 L64.8206 816.035 L72.4595 816.035 L72.4595 819.97 L52.5522 819.97 L52.5522 816.035 Z" fill="#000000" fill-rule="nonzero" fill-opacity="1" /><path clip-path="url(#clip850)" d="M60.5151 659.534 Q56.904 659.534 55.0753 663.099 Q53.2697 666.64 53.2697 673.77 Q53.2697 680.876 55.0753 684.441 Q56.904 687.983 60.5151 687.983 Q64.1493 687.983 65.9549 684.441 Q67.7836 680.876 67.7836 673.77 Q67.7836 666.64 65.9549 663.099 Q64.1493 659.534 60.5151 659.534 M60.5151 655.83 Q66.3252 655.83 69.3808 660.437 Q72.4595 665.02 72.4595 673.77 Q72.4595 682.497 69.3808 687.103 Q66.3252 691.687 60.5151 691.687 Q54.7049 691.687 51.6262 687.103 Q48.5707 682.497 48.5707 673.77 Q48.5707 665.02 51.6262 660.437 Q54.7049 655.83 60.5151 655.83 Z" fill="#000000" fill-rule="nonzero" fill-opacity="1" /><path clip-path="url(#clip850)" d="M52.5522 558.125 L60.191 558.125 L60.191 531.759 L51.8809 533.426 L51.8809 529.167 L60.1447 527.5 L64.8206 527.5 L64.8206 558.125 L72.4595 558.125 L72.4595 562.06 L52.5522 562.06 L52.5522 558.125 Z" fill="#000000" fill-rule="nonzero" fill-opacity="1" /><path clip-path="url(#clip850)" d="M56.1401 429.17 L72.4595 429.17 L72.4595 433.105 L50.5151 433.105 L50.5151 429.17 Q53.1771 426.415 57.7605 421.786 Q62.3669 417.133 63.5475 415.79 Q65.7928 413.267 66.6724 411.531 Q67.5752 409.772 67.5752 408.082 Q67.5752 405.327 65.6308 403.591 Q63.7095 401.855 60.6077 401.855 Q58.4086 401.855 55.9549 402.619 Q53.5244 403.383 50.7466 404.934 L50.7466 400.212 Q53.5707 399.077 56.0244 398.499 Q58.478 397.92 60.5151 397.92 Q65.8854 397.92 69.0798 400.605 Q72.2743 403.29 72.2743 407.781 Q72.2743 409.911 71.4641 411.832 Q70.6771 413.73 68.5706 416.323 Q67.9919 416.994 64.89 420.212 Q61.7882 423.406 56.1401 429.17 Z" fill="#000000" fill-rule="nonzero" fill-opacity="1" /><path clip-path="url(#clip850)" d="M65.3299 285.516 Q68.6863 286.233 70.5613 288.502 Q72.4595 290.77 72.4595 294.104 Q72.4595 299.219 68.941 302.02 Q65.4225 304.821 58.941 304.821 Q56.7651 304.821 54.4503 304.381 Q52.1586 303.965 49.7049 303.108 L49.7049 298.594 Q51.6494 299.729 53.9642 300.307 Q56.279 300.886 58.8021 300.886 Q63.2002 300.886 65.4919 299.15 Q67.8067 297.414 67.8067 294.104 Q67.8067 291.048 65.6539 289.335 Q63.5243 287.599 59.7049 287.599 L55.6771 287.599 L55.6771 283.757 L59.8901 283.757 Q63.3391 283.757 65.1678 282.391 Q66.9965 281.002 66.9965 278.409 Q66.9965 275.747 65.0984 274.335 Q63.2234 272.9 59.7049 272.9 Q57.7836 272.9 55.5845 273.317 Q53.3855 273.733 50.7466 274.613 L50.7466 270.446 Q53.4086 269.706 55.7234 269.335 Q58.0614 268.965 60.1216 268.965 Q65.4456 268.965 68.5474 271.396 Q71.6493 273.803 71.6493 277.923 Q71.6493 280.794 70.0058 282.784 Q68.3623 284.752 65.3299 285.516 Z" fill="#000000" fill-rule="nonzero" fill-opacity="1" /><path clip-path="url(#clip850)" d="M62.8762 144.709 L51.0707 163.158 L62.8762 163.158 L62.8762 144.709 M61.6493 140.635 L67.5289 140.635 L67.5289 163.158 L72.4595 163.158 L72.4595 167.047 L67.5289 167.047 L67.5289 175.195 L62.8762 175.195 L62.8762 167.047 L47.2744 167.047 L47.2744 162.533 L61.6493 140.635 Z" fill="#000000" fill-rule="nonzero" fill-opacity="1" /><path clip-path="url(#clip850)" d="M1042.61 20.1573 L1031.51 50.2555 L1053.75 50.2555 L1042.61 20.1573 M1037.99 12.096 L1047.27 12.096 L1070.32 72.576 L1061.81 72.576 L1056.3 57.061 L1029.04 57.061 L1023.53 72.576 L1014.9 72.576 L1037.99 12.096 Z" fill="#000000" fill-rule="nonzero" fill-opacity="1" /><path clip-path="url(#clip852)" d="M1156.97 825.071 L1164.78 820.175 L1171.87 815.278 L1178.16 810.381 L1183.63 805.485 L1188.32 800.588 L1192.35 795.691 L1195.88 790.794 L1199.12 785.898 L1202.35 781.001 L1205.86 776.104 L1209.98 771.208 L1215.02 766.311 L1221.3 761.414 L1229.13 756.517 L1238.76 751.621 L1250.43 746.724 L1264.3 741.827 L1280.5 736.931 L1299.1 732.034 L1320.09 727.137 L1343.42 722.24 L1368.98 717.344 L1396.59 712.447 L1426.03 707.55 L1457.03 702.654 L1489.27 697.757 L1522.41 692.86 L1556.1 687.963 L1589.95 683.067 L1623.59 678.17 L1656.63 673.273 L1688.73 668.377 L1719.52 663.48 L1748.7 658.583 L1775.95 653.686 L1801.01 648.79 L1823.63 643.893 L1843.61 638.996 L1860.78 634.1 L1874.99 629.203 L1886.15 624.306 L1894.22 619.409 L1899.23 614.513 L1901.24 609.616 L1900.4 604.719 L1896.93 599.823 L1891.09 594.926 L1883.23 590.029 L1873.73 585.132 L1862.98 580.236 L1851.41 575.339 L1839.43 570.442 L1827.39 565.546 L1815.64 560.649 L1804.44 555.752 L1793.98 550.855 L1784.38 545.959 L1775.69 541.062 L1767.89 536.165 L1760.93 531.269 L1754.7 526.372 L1749.09 521.475 L1743.97 516.578 L1739.24 511.682 L1734.8 506.785 L1730.6 501.888 L1726.58 496.992 L1722.76 492.095 L1719.13 487.198 L1715.72 482.302 L1712.57 477.405 L1709.7 472.508 L1707.13 467.611 L1704.83 462.715 L1702.78 457.818 L1700.9 452.921 L1699.07 448.025 L1697.17 443.128 L1695 438.231 L1692.37 433.334 L1689.06 428.438 L1684.84 423.541 L1679.48 418.644 L1672.77 413.748 L1664.54 408.851 L1654.63 403.954 L1642.95 399.057 L1629.45 394.161 L1614.16 389.264 L1597.14 384.367 L1578.52 379.471 L1558.48 374.574 L1537.24 369.677 L1515.04 364.78 L1492.13 359.884 L1468.78 354.987 L1445.25 350.09 L1421.75 345.194 L1398.52 340.297 L1375.73 335.4 L1353.52 330.503 L1332.03 325.607 L1311.33 320.71 L1291.51 315.813 L1272.59 310.917 L1254.6 306.02 L1237.56 301.123 L1221.47 296.226 L1206.32 291.33 L1192.11 286.433 L1178.83 281.536 L1166.46 276.64 L1155.01 271.743 L1144.46 266.846 L1134.82 261.949 L1126.06 257.053 L1118.18 252.156 L1111.15 247.259 L1104.96 242.363 L1099.55 237.466 L1094.88 232.569 L1090.9 227.672 L1087.53 222.776 L1084.69 217.879 L1082.29 212.982 L1080.25 208.086 L1078.48 203.189 L1076.89 198.292 L1075.4 193.395 L1073.95 188.499 L1072.49 183.602 L1070.97 178.705 L1069.37 173.809 L1015.84 173.809 L1014.25 178.705 L1012.73 183.602 L1011.27 188.499 L1009.82 193.395 L1008.33 198.292 L1006.74 203.189 L1004.97 208.086 L1002.92 212.982 L1000.53 217.879 L997.687 222.776 L994.315 227.672 L990.331 232.569 L985.666 237.466 L980.259 242.363 L974.062 247.259 L967.037 252.156 L959.155 257.053 L950.397 261.949 L940.75 266.846 L930.205 271.743 L918.754 276.64 L906.39 281.536 L893.105 286.433 L878.893 291.33 L863.744 296.226 L847.651 301.123 L830.611 306.02 L812.626 310.917 L793.708 315.813 L773.88 320.71 L753.188 325.607 L731.694 330.503 L709.49 335.4 L686.695 340.297 L663.461 345.194 L639.969 350.09 L616.431 354.987 L593.082 359.884 L570.176 364.78 L547.973 369.677 L526.731 374.574 L506.694 379.471 L488.077 384.367 L471.057 389.264 L455.762 394.161 L442.267 399.057 L430.586 403.954 L420.677 408.851 L412.443 413.748 L405.738 418.644 L400.379 423.541 L396.157 428.438 L392.846 433.334 L390.217 438.231 L388.05 443.128 L386.142 448.025 L384.32 452.921 L382.436 457.818 L380.384 462.715 L378.09 467.611 L375.513 472.508 L372.643 477.405 L369.492 482.302 L366.087 487.198 L362.458 492.095 L358.632 496.992 L354.62 501.888 L350.414 506.785 L345.978 511.682 L341.246 516.578 L336.129 521.475 L330.516 526.372 L324.286 531.269 L317.322 536.165 L309.526 541.062 L300.834 545.959 L291.233 550.855 L280.772 555.752 L269.571 560.649 L257.822 565.546 L245.79 570.442 L233.802 575.339 L222.233 580.236 L211.487 585.132 L201.981 590.029 L194.123 594.926 L188.29 599.823 L184.816 604.719 L183.977 609.616 L185.987 614.513 L190.99 619.409 L199.065 624.306 L210.228 629.203 L224.437 634.1 L241.601 638.996 L261.583 643.893 L284.208 648.79 L309.267 653.686 L336.518 658.583 L365.691 663.48 L396.486 668.377 L428.581 673.273 L461.628 678.17 L495.266 683.067 L529.118 687.963 L562.805 692.86 L595.95 697.757 L628.19 702.654 L659.184 707.55 L688.622 712.447 L716.232 717.344 L741.79 722.24 L765.124 727.137 L786.117 732.034 L804.713 736.931 L820.915 741.827 L834.788 746.724 L846.453 751.621 L856.086 756.517 L863.912 761.414 L870.197 766.311 L875.238 771.208 L879.352 776.104 L882.865 781.001 L886.094 785.898 L889.339 790.794 L892.866 795.691 L896.893 800.588 L901.589 805.485 L907.059 810.381 L913.347 815.278 L920.435 820.175 L928.248 825.071 L1156.97 825.071  Z" fill="#009af9" fill-rule="evenodd" fill-opacity="1"/>
<polyline clip-path="url(#clip852)" style="stroke:#000000; stroke-linecap:round; stroke-linejoin:round; stroke-width:4; stroke-opacity:1; fill:none" points="1156.97,825.071 1164.78,820.175 1171.87,815.278 1178.16,810.381 1183.63,805.485 1188.32,800.588 1192.35,795.691 1195.88,790.794 1199.12,785.898 1202.35,781.001 1205.86,776.104 1209.98,771.208 1215.02,766.311 1221.3,761.414 1229.13,756.517 1238.76,751.621 1250.43,746.724 1264.3,741.827 1280.5,736.931 1299.1,732.034 1320.09,727.137 1343.42,722.24 1368.98,717.344 1396.59,712.447 1426.03,707.55 1457.03,702.654 1489.27,697.757 1522.41,692.86 1556.1,687.963 1589.95,683.067 1623.59,678.17 1656.63,673.273 1688.73,668.377 1719.52,663.48 1748.7,658.583 1775.95,653.686 1801.01,648.79 1823.63,643.893 1843.61,638.996 1860.78,634.1 1874.99,629.203 1886.15,624.306 1894.22,619.409 1899.23,614.513 1901.24,609.616 1900.4,604.719 1896.93,599.823 1891.09,594.926 1883.23,590.029 1873.73,585.132 1862.98,580.236 1851.41,575.339 1839.43,570.442 1827.39,565.546 1815.64,560.649 1804.44,555.752 1793.98,550.855 1784.38,545.959 1775.69,541.062 1767.89,536.165 1760.93,531.269 1754.7,526.372 1749.09,521.475 1743.97,516.578 1739.24,511.682 1734.8,506.785 1730.6,501.888 1726.58,496.992 1722.76,492.095 1719.13,487.198 1715.72,482.302 1712.57,477.405 1709.7,472.508 1707.13,467.611 1704.83,462.715 1702.78,457.818 1700.9,452.921 1699.07,448.025 1697.17,443.128 1695,438.231 1692.37,433.334 1689.06,428.438 1684.84,423.541 1679.48,418.644 1672.77,413.748 1664.54,408.851 1654.63,403.954 1642.95,399.057 1629.45,394.161 1614.16,389.264 1597.14,384.367 1578.52,379.471 1558.48,374.574 1537.24,369.677 1515.04,364.78 1492.13,359.884 1468.78,354.987 1445.25,350.09 1421.75,345.194 1398.52,340.297 1375.73,335.4 1353.52,330.503 1332.03,325.607 1311.33,320.71 1291.51,315.813 1272.59,310.917 1254.6,306.02 1237.56,301.123 1221.47,296.226 1206.32,291.33 1192.11,286.433 1178.83,281.536 1166.46,276.64 1155.01,271.743 1144.46,266.846 1134.82,261.949 1126.06,257.053 1118.18,252.156 1111.15,247.259 1104.96,242.363 1099.55,237.466 1094.88,232.569 1090.9,227.672 1087.53,222.776 1084.69,217.879 1082.29,212.982 1080.25,208.086 1078.48,203.189 1076.89,198.292 1075.4,193.395 1073.95,188.499 1072.49,183.602 1070.97,178.705 1069.37,173.809 1015.84,173.809 1014.25,178.705 1012.73,183.602 1011.27,188.499 1009.82,193.395 1008.33,198.292 1006.74,203.189 1004.97,208.086 1002.92,212.982 1000.53,217.879 997.687,222.776 994.315,227.672 990.331,232.569 985.666,237.466 980.259,242.363 974.062,247.259 967.037,252.156 959.155,257.053 950.397,261.949 940.75,266.846 930.205,271.743 918.754,276.64 906.39,281.536 893.105,286.433 878.893,291.33 863.744,296.226 847.651,301.123 830.611,306.02 812.626,310.917 793.708,315.813 773.88,320.71 753.188,325.607 731.694,330.503 709.49,335.4 686.695,340.297 663.461,345.194 639.969,350.09 616.431,354.987 593.082,359.884 570.176,364.78 547.973,369.677 526.731,374.574 506.694,379.471 488.077,384.367 471.057,389.264 455.762,394.161 442.267,399.057 430.586,403.954 420.677,408.851 412.443,413.748 405.738,418.644 400.379,423.541 396.157,428.438 392.846,433.334 390.217,438.231 388.05,443.128 386.142,448.025 384.32,452.921 382.436,457.818 380.384,462.715 378.09,467.611 375.513,472.508 372.643,477.405 369.492,482.302 366.087,487.198 362.458,492.095 358.632,496.992 354.62,501.888 350.414,506.785 345.978,511.682 341.246,516.578 336.129,521.475 330.516,526.372 324.286,531.269 317.322,536.165 309.526,541.062 300.834,545.959 291.233,550.855 280.772,555.752 269.571,560.649 257.822,565.546 245.79,570.442 233.802,575.339 222.233,580.236 211.487,585.132 201.981,590.029 194.123,594.926 188.29,599.823 184.816,604.719 183.977,609.616 185.987,614.513 190.99,619.409 199.065,624.306 210.228,629.203 224.437,634.1 241.601,638.996 261.583,643.893 284.208,648.79 309.267,653.686 336.518,658.583 365.691,663.48 396.486,668.377 428.581,673.273 461.628,678.17 495.266,683.067 529.118,687.963 562.805,692.86 595.95,697.757 628.19,702.654 659.184,707.55 688.622,712.447 716.232,717.344 741.79,722.24 765.124,727.137 786.117,732.034 804.713,736.931 820.915,741.827 834.788,746.724 846.453,751.621 856.086,756.517 863.912,761.414 870.197,766.311 875.238,771.208 879.352,776.104 882.865,781.001 886.094,785.898 889.339,790.794 892.866,795.691 896.893,800.588 901.589,805.485 907.059,810.381 913.347,815.278 920.435,820.175 928.248,825.071 1156.97,825.071 "/>
<path clip-path="url(#clip852)" d="M1042.61 825.598 L988.943 825.598 L1096.27 825.598 L1042.61 825.598 L1042.61 629.787 L1042.61 825.598  Z" fill="#e26f46" fill-rule="evenodd" fill-opacity="0.8"/>
<polyline clip-path="url(#clip852)" style="stroke:#000000; stroke-linecap:round; stroke-linejoin:round; stroke-width:8; stroke-opacity:1; fill:none" points="1042.61,825.598 988.943,825.598 1096.27,825.598 1042.61,825.598 1042.61,629.787 1042.61,825.598 "/>
<path clip-path="url(#clip852)" d="M1149.94 629.787 L1149.94 539.331 L935.279 539.331 L935.279 629.787 L1149.94 629.787 L1149.94 539.331 L1149.94 629.787  Z" fill="#e26f46" fill-rule="evenodd" fill-opacity="0.8"/>
<polyline clip-path="url(#clip852)" style="stroke:#000000; stroke-linecap:round; stroke-linejoin:round; stroke-width:8; stroke-opacity:1; fill:none" points="1149.94,629.787 1149.94,539.331 935.279,539.331 935.279,629.787 1149.94,629.787 1149.94,539.331 1149.94,629.787 "/>
<path clip-path="url(#clip852)" d="M1149.94 439.853 L935.279 439.853 L935.279 539.331 L1149.94 539.331 L1149.94 439.853 L1042.61 439.853 L1149.94 439.853  Z" fill="#e26f46" fill-rule="evenodd" fill-opacity="0.8"/>
<polyline clip-path="url(#clip852)" style="stroke:#000000; stroke-linecap:round; stroke-linejoin:round; stroke-width:8; stroke-opacity:1; fill:none" points="1149.94,439.853 935.279,439.853 935.279,539.331 1149.94,539.331 1149.94,439.853 1042.61,439.853 1149.94,439.853 "/>
<path clip-path="url(#clip852)" d="M1042.61 173.282 L988.943 173.282 L1096.27 173.282 L1042.61 173.282 L1042.61 439.853 L1042.61 173.282  Z" fill="#e26f46" fill-rule="evenodd" fill-opacity="0.8"/>
<polyline clip-path="url(#clip852)" style="stroke:#000000; stroke-linecap:round; stroke-linejoin:round; stroke-width:8; stroke-opacity:1; fill:none" points="1042.61,173.282 988.943,173.282 1096.27,173.282 1042.61,173.282 1042.61,439.853 1042.61,173.282 "/>
<polyline clip-path="url(#clip852)" style="stroke:#e26f46; stroke-linecap:round; stroke-linejoin:round; stroke-width:0; stroke-opacity:1; fill:none" points="1042.61,825.598 988.943,825.598 1096.27,825.598 1042.61,825.598 1042.61,629.787 "/>
<polyline clip-path="url(#clip852)" style="stroke:#e26f46; stroke-linecap:round; stroke-linejoin:round; stroke-width:0; stroke-opacity:1; fill:none" points="1149.94,629.787 1149.94,539.331 935.279,539.331 935.279,629.787 1149.94,629.787 1149.94,539.331 "/>
<polyline clip-path="url(#clip852)" style="stroke:#e26f46; stroke-linecap:round; stroke-linejoin:round; stroke-width:0; stroke-opacity:1; fill:none" points="1149.94,439.853 935.279,439.853 935.279,539.331 1149.94,539.331 1149.94,439.853 1042.61,439.853 "/>
<polyline clip-path="url(#clip852)" style="stroke:#e26f46; stroke-linecap:round; stroke-linejoin:round; stroke-width:0; stroke-opacity:1; fill:none" points="1042.61,173.282 988.943,173.282 1096.27,173.282 1042.61,173.282 1042.61,439.853 "/>
<path clip-path="url(#clip850)" d="M132.459 1845.17 L1952.76 1845.17 L1952.76 1153.71 L132.459 1153.71  Z" fill="#ffffff" fill-rule="evenodd" fill-opacity="1"/>
<defs>
  <clipPath id="clip853">
    <rect x="132" y="1153" width="1821" height="692"/>
  </clipPath>
</defs>
<polyline clip-path="url(#clip853)" style="stroke:#000000; stroke-linecap:round; stroke-linejoin:round; stroke-width:2; stroke-opacity:0.1; fill:none" points="1042.61,1845.17 1042.61,1153.71 "/>
<polyline clip-path="url(#clip853)" style="stroke:#000000; stroke-linecap:round; stroke-linejoin:round; stroke-width:2; stroke-opacity:0.1; fill:none" points="132.459,1831.89 1952.76,1831.89 "/>
<polyline clip-path="url(#clip853)" style="stroke:#000000; stroke-linecap:round; stroke-linejoin:round; stroke-width:2; stroke-opacity:0.1; fill:none" points="132.459,1712.24 1952.76,1712.24 "/>
<polyline clip-path="url(#clip853)" style="stroke:#000000; stroke-linecap:round; stroke-linejoin:round; stroke-width:2; stroke-opacity:0.1; fill:none" points="132.459,1592.59 1952.76,1592.59 "/>
<polyline clip-path="url(#clip853)" style="stroke:#000000; stroke-linecap:round; stroke-linejoin:round; stroke-width:2; stroke-opacity:0.1; fill:none" points="132.459,1472.93 1952.76,1472.93 "/>
<polyline clip-path="url(#clip853)" style="stroke:#000000; stroke-linecap:round; stroke-linejoin:round; stroke-width:2; stroke-opacity:0.1; fill:none" points="132.459,1353.28 1952.76,1353.28 "/>
<polyline clip-path="url(#clip853)" style="stroke:#000000; stroke-linecap:round; stroke-linejoin:round; stroke-width:2; stroke-opacity:0.1; fill:none" points="132.459,1233.63 1952.76,1233.63 "/>
<polyline clip-path="url(#clip850)" style="stroke:#000000; stroke-linecap:round; stroke-linejoin:round; stroke-width:4; stroke-opacity:1; fill:none" points="132.459,1845.17 1952.76,1845.17 "/>
<polyline clip-path="url(#clip850)" style="stroke:#000000; stroke-linecap:round; stroke-linejoin:round; stroke-width:4; stroke-opacity:1; fill:none" points="1042.61,1845.17 1042.61,1826.27 "/>
<path clip-path="url(#clip850)" d="M983.673 1888.47 L983.673 1893.4 Q981.312 1891.2 978.627 1890.11 Q975.965 1889.03 972.955 1889.03 Q967.029 1889.03 963.881 1892.66 Q960.733 1896.27 960.733 1903.12 Q960.733 1909.95 963.881 1913.59 Q967.029 1917.2 972.955 1917.2 Q975.965 1917.2 978.627 1916.11 Q981.312 1915.02 983.673 1912.82 L983.673 1917.71 Q981.219 1919.37 978.465 1920.21 Q975.733 1921.04 972.677 1921.04 Q964.83 1921.04 960.316 1916.25 Q955.803 1911.43 955.803 1903.12 Q955.803 1894.79 960.316 1890 Q964.83 1885.18 972.677 1885.18 Q975.779 1885.18 978.511 1886.02 Q981.265 1886.83 983.673 1888.47 Z" fill="#000000" fill-rule="nonzero" fill-opacity="1" /><path clip-path="url(#clip850)" d="M1012.26 1904.72 L1012.26 1920.37 L1008 1920.37 L1008 1904.86 Q1008 1901.18 1006.57 1899.35 Q1005.13 1897.52 1002.26 1897.52 Q998.812 1897.52 996.821 1899.72 Q994.83 1901.92 994.83 1905.72 L994.83 1920.37 L990.548 1920.37 L990.548 1884.35 L994.83 1884.35 L994.83 1898.47 Q996.358 1896.13 998.418 1894.97 Q1000.5 1893.82 1003.21 1893.82 Q1007.68 1893.82 1009.97 1896.59 Q1012.26 1899.35 1012.26 1904.72 Z" fill="#000000" fill-rule="nonzero" fill-opacity="1" /><path clip-path="url(#clip850)" d="M1032.54 1907.34 Q1027.38 1907.34 1025.39 1908.52 Q1023.39 1909.7 1023.39 1912.54 Q1023.39 1914.81 1024.88 1916.15 Q1026.38 1917.47 1028.95 1917.47 Q1032.49 1917.47 1034.62 1914.97 Q1036.77 1912.45 1036.77 1908.28 L1036.77 1907.34 L1032.54 1907.34 M1041.03 1905.58 L1041.03 1920.37 L1036.77 1920.37 L1036.77 1916.43 Q1035.32 1918.79 1033.14 1919.93 Q1030.96 1921.04 1027.82 1921.04 Q1023.83 1921.04 1021.47 1918.82 Q1019.14 1916.57 1019.14 1912.82 Q1019.14 1908.45 1022.05 1906.22 Q1024.99 1904 1030.8 1904 L1036.77 1904 L1036.77 1903.59 Q1036.77 1900.65 1034.83 1899.05 Q1032.91 1897.43 1029.41 1897.43 Q1027.19 1897.43 1025.08 1897.96 Q1022.98 1898.49 1021.03 1899.56 L1021.03 1895.62 Q1023.37 1894.72 1025.57 1894.28 Q1027.77 1893.82 1029.85 1893.82 Q1035.48 1893.82 1038.26 1896.73 Q1041.03 1899.65 1041.03 1905.58 Z" fill="#000000" fill-rule="nonzero" fill-opacity="1" /><path clip-path="url(#clip850)" d="M1049.81 1894.44 L1054.07 1894.44 L1054.07 1920.37 L1049.81 1920.37 L1049.81 1894.44 M1049.81 1884.35 L1054.07 1884.35 L1054.07 1889.74 L1049.81 1889.74 L1049.81 1884.35 Z" fill="#000000" fill-rule="nonzero" fill-opacity="1" /><path clip-path="url(#clip850)" d="M1084.53 1904.72 L1084.53 1920.37 L1080.27 1920.37 L1080.27 1904.86 Q1080.27 1901.18 1078.83 1899.35 Q1077.4 1897.52 1074.53 1897.52 Q1071.08 1897.52 1069.09 1899.72 Q1067.1 1901.92 1067.1 1905.72 L1067.1 1920.37 L1062.82 1920.37 L1062.82 1894.44 L1067.1 1894.44 L1067.1 1898.47 Q1068.63 1896.13 1070.69 1894.97 Q1072.77 1893.82 1075.48 1893.82 Q1079.95 1893.82 1082.24 1896.59 Q1084.53 1899.35 1084.53 1904.72 Z" fill="#000000" fill-rule="nonzero" fill-opacity="1" /><path clip-path="url(#clip850)" d="M1109.51 1916.43 L1117.14 1916.43 L1117.14 1890.07 L1108.83 1891.73 L1108.83 1887.47 L1117.1 1885.81 L1121.77 1885.81 L1121.77 1916.43 L1129.41 1916.43 L1129.41 1920.37 L1109.51 1920.37 L1109.51 1916.43 Z" fill="#000000" fill-rule="nonzero" fill-opacity="1" /><polyline clip-path="url(#clip850)" style="stroke:#000000; stroke-linecap:round; stroke-linejoin:round; stroke-width:4; stroke-opacity:1; fill:none" points="132.459,1845.17 132.459,1153.71 "/>
<polyline clip-path="url(#clip850)" style="stroke:#000000; stroke-linecap:round; stroke-linejoin:round; stroke-width:4; stroke-opacity:1; fill:none" points="132.459,1831.89 151.357,1831.89 "/>
<polyline clip-path="url(#clip850)" style="stroke:#000000; stroke-linecap:round; stroke-linejoin:round; stroke-width:4; stroke-opacity:1; fill:none" points="132.459,1712.24 151.357,1712.24 "/>
<polyline clip-path="url(#clip850)" style="stroke:#000000; stroke-linecap:round; stroke-linejoin:round; stroke-width:4; stroke-opacity:1; fill:none" points="132.459,1592.59 151.357,1592.59 "/>
<polyline clip-path="url(#clip850)" style="stroke:#000000; stroke-linecap:round; stroke-linejoin:round; stroke-width:4; stroke-opacity:1; fill:none" points="132.459,1472.93 151.357,1472.93 "/>
<polyline clip-path="url(#clip850)" style="stroke:#000000; stroke-linecap:round; stroke-linejoin:round; stroke-width:4; stroke-opacity:1; fill:none" points="132.459,1353.28 151.357,1353.28 "/>
<polyline clip-path="url(#clip850)" style="stroke:#000000; stroke-linecap:round; stroke-linejoin:round; stroke-width:4; stroke-opacity:1; fill:none" points="132.459,1233.63 151.357,1233.63 "/>
<path clip-path="url(#clip850)" d="M11.9737 1832.34 L41.6494 1832.34 L41.6494 1836.28 L11.9737 1836.28 L11.9737 1832.34 Z" fill="#000000" fill-rule="nonzero" fill-opacity="1" /><path clip-path="url(#clip850)" d="M52.5522 1845.24 L60.191 1845.24 L60.191 1818.87 L51.8809 1820.54 L51.8809 1816.28 L60.1447 1814.61 L64.8206 1814.61 L64.8206 1845.24 L72.4595 1845.24 L72.4595 1849.17 L52.5522 1849.17 L52.5522 1845.24 Z" fill="#000000" fill-rule="nonzero" fill-opacity="1" /><path clip-path="url(#clip850)" d="M60.5151 1698.04 Q56.904 1698.04 55.0753 1701.6 Q53.2697 1705.15 53.2697 1712.27 Q53.2697 1719.38 55.0753 1722.95 Q56.904 1726.49 60.5151 1726.49 Q64.1493 1726.49 65.9549 1722.95 Q67.7836 1719.38 67.7836 1712.27 Q67.7836 1705.15 65.9549 1701.6 Q64.1493 1698.04 60.5151 1698.04 M60.5151 1694.34 Q66.3252 1694.34 69.3808 1698.94 Q72.4595 1703.52 72.4595 1712.27 Q72.4595 1721 69.3808 1725.61 Q66.3252 1730.19 60.5151 1730.19 Q54.7049 1730.19 51.6262 1725.61 Q48.5707 1721 48.5707 1712.27 Q48.5707 1703.52 51.6262 1698.94 Q54.7049 1694.34 60.5151 1694.34 Z" fill="#000000" fill-rule="nonzero" fill-opacity="1" /><path clip-path="url(#clip850)" d="M52.5522 1605.93 L60.191 1605.93 L60.191 1579.57 L51.8809 1581.23 L51.8809 1576.97 L60.1447 1575.31 L64.8206 1575.31 L64.8206 1605.93 L72.4595 1605.93 L72.4595 1609.87 L52.5522 1609.87 L52.5522 1605.93 Z" fill="#000000" fill-rule="nonzero" fill-opacity="1" /><path clip-path="url(#clip850)" d="M56.1401 1486.28 L72.4595 1486.28 L72.4595 1490.21 L50.5151 1490.21 L50.5151 1486.28 Q53.1771 1483.52 57.7605 1478.89 Q62.3669 1474.24 63.5475 1472.9 Q65.7928 1470.38 66.6724 1468.64 Q67.5752 1466.88 67.5752 1465.19 Q67.5752 1462.44 65.6308 1460.7 Q63.7095 1458.96 60.6077 1458.96 Q58.4086 1458.96 55.9549 1459.73 Q53.5244 1460.49 50.7466 1462.04 L50.7466 1457.32 Q53.5707 1456.19 56.0244 1455.61 Q58.478 1455.03 60.5151 1455.03 Q65.8854 1455.03 69.0798 1457.71 Q72.2743 1460.4 72.2743 1464.89 Q72.2743 1467.02 71.4641 1468.94 Q70.6771 1470.84 68.5706 1473.43 Q67.9919 1474.1 64.89 1477.32 Q61.7882 1480.51 56.1401 1486.28 Z" fill="#000000" fill-rule="nonzero" fill-opacity="1" /><path clip-path="url(#clip850)" d="M65.3299 1351.93 Q68.6863 1352.64 70.5613 1354.91 Q72.4595 1357.18 72.4595 1360.51 Q72.4595 1365.63 68.941 1368.43 Q65.4225 1371.23 58.941 1371.23 Q56.7651 1371.23 54.4503 1370.79 Q52.1586 1370.37 49.7049 1369.52 L49.7049 1365 Q51.6494 1366.14 53.9642 1366.72 Q56.279 1367.3 58.8021 1367.3 Q63.2002 1367.3 65.4919 1365.56 Q67.8067 1363.82 67.8067 1360.51 Q67.8067 1357.46 65.6539 1355.75 Q63.5243 1354.01 59.7049 1354.01 L55.6771 1354.01 L55.6771 1350.17 L59.8901 1350.17 Q63.3391 1350.17 65.1678 1348.8 Q66.9965 1347.41 66.9965 1344.82 Q66.9965 1342.16 65.0984 1340.75 Q63.2234 1339.31 59.7049 1339.31 Q57.7836 1339.31 55.5845 1339.73 Q53.3855 1340.14 50.7466 1341.02 L50.7466 1336.86 Q53.4086 1336.12 55.7234 1335.75 Q58.0614 1335.38 60.1216 1335.38 Q65.4456 1335.38 68.5474 1337.81 Q71.6493 1340.21 71.6493 1344.33 Q71.6493 1347.2 70.0058 1349.19 Q68.3623 1351.16 65.3299 1351.93 Z" fill="#000000" fill-rule="nonzero" fill-opacity="1" /><path clip-path="url(#clip850)" d="M62.8762 1220.42 L51.0707 1238.87 L62.8762 1238.87 L62.8762 1220.42 M61.6493 1216.35 L67.5289 1216.35 L67.5289 1238.87 L72.4595 1238.87 L72.4595 1242.76 L67.5289 1242.76 L67.5289 1250.91 L62.8762 1250.91 L62.8762 1242.76 L47.2744 1242.76 L47.2744 1238.24 L61.6493 1216.35 Z" fill="#000000" fill-rule="nonzero" fill-opacity="1" /><path clip-path="url(#clip850)" d="M1029.34 1043.69 L1029.34 1065.85 L1042.47 1065.85 Q1049.07 1065.85 1052.23 1063.14 Q1055.43 1060.38 1055.43 1054.75 Q1055.43 1049.08 1052.23 1046.41 Q1049.07 1043.69 1042.47 1043.69 L1029.34 1043.69 M1029.34 1018.82 L1029.34 1037.05 L1041.45 1037.05 Q1047.45 1037.05 1050.37 1034.82 Q1053.32 1032.55 1053.32 1027.94 Q1053.32 1023.36 1050.37 1021.09 Q1047.45 1018.82 1041.45 1018.82 L1029.34 1018.82 M1021.16 1012.1 L1042.06 1012.1 Q1051.42 1012.1 1056.48 1015.98 Q1061.55 1019.87 1061.55 1027.04 Q1061.55 1032.59 1058.95 1035.87 Q1056.36 1039.16 1051.34 1039.97 Q1057.37 1041.26 1060.69 1045.39 Q1064.06 1049.49 1064.06 1055.64 Q1064.06 1063.75 1058.55 1068.16 Q1053.04 1072.58 1042.87 1072.58 L1021.16 1072.58 L1021.16 1012.1 Z" fill="#000000" fill-rule="nonzero" fill-opacity="1" /><path clip-path="url(#clip853)" d="M1076.64 1822.98 L1078.19 1818.19 L1079.45 1813.39 L1080.44 1808.6 L1081.18 1803.81 L1081.72 1799.01 L1082.14 1794.22 L1082.52 1789.43 L1082.97 1784.63 L1083.59 1779.84 L1084.52 1775.05 L1085.89 1770.25 L1087.81 1765.46 L1090.42 1760.67 L1093.83 1755.87 L1098.13 1751.08 L1103.41 1746.29 L1109.75 1741.49 L1117.18 1736.7 L1125.76 1731.91 L1135.48 1727.12 L1146.35 1722.32 L1158.34 1717.53 L1171.42 1712.74 L1185.53 1707.94 L1200.62 1703.15 L1216.59 1698.36 L1233.38 1693.56 L1250.88 1688.77 L1268.99 1683.98 L1287.62 1679.18 L1306.66 1674.39 L1326.01 1669.6 L1345.55 1664.8 L1365.21 1660.01 L1384.85 1655.22 L1404.39 1650.42 L1423.7 1645.63 L1442.67 1640.84 L1461.17 1636.05 L1479.07 1631.25 L1496.23 1626.46 L1512.5 1621.67 L1527.77 1616.87 L1541.93 1612.08 L1554.88 1607.29 L1566.58 1602.49 L1577.05 1597.7 L1586.32 1592.91 L1594.53 1588.11 L1601.85 1583.32 L1608.52 1578.53 L1614.81 1573.73 L1621.04 1568.94 L1627.57 1564.15 L1634.73 1559.35 L1642.85 1554.56 L1652.22 1549.77 L1663.07 1544.98 L1675.56 1540.18 L1689.74 1535.39 L1705.58 1530.6 L1722.91 1525.8 L1741.48 1521.01 L1760.94 1516.22 L1780.84 1511.42 L1800.69 1506.63 L1819.96 1501.84 L1838.12 1497.04 L1854.66 1492.25 L1869.13 1487.46 L1881.17 1482.66 L1890.51 1477.87 L1896.98 1473.08 L1900.54 1468.28 L1901.24 1463.49 L1899.21 1458.7 L1894.66 1453.9 L1887.84 1449.11 L1879.05 1444.32 L1868.55 1439.53 L1856.62 1434.73 L1843.51 1429.94 L1829.44 1425.15 L1814.57 1420.35 L1799.05 1415.56 L1782.99 1410.77 L1766.49 1405.97 L1749.63 1401.18 L1732.46 1396.39 L1715.07 1391.59 L1697.51 1386.8 L1679.87 1382.01 L1662.21 1377.21 L1644.61 1372.42 L1627.14 1367.63 L1609.87 1362.83 L1592.85 1358.04 L1576.12 1353.25 L1559.71 1348.46 L1543.61 1343.66 L1527.82 1338.87 L1512.31 1334.08 L1497.04 1329.28 L1481.95 1324.49 L1467 1319.7 L1452.11 1314.9 L1437.22 1310.11 L1422.28 1305.32 L1407.22 1300.52 L1392 1295.73 L1376.57 1290.94 L1360.91 1286.14 L1345.01 1281.35 L1328.87 1276.56 L1312.51 1271.76 L1295.98 1266.97 L1279.34 1262.18 L1262.7 1257.39 L1246.15 1252.59 L1229.83 1247.8 L1213.87 1243.01 L1198.42 1238.21 L1183.61 1233.42 L1169.57 1228.63 L1156.4 1223.83 L1144.19 1219.04 L1132.99 1214.25 L1122.81 1209.45 L1113.66 1204.66 L1105.5 1199.87 L1098.26 1195.07 L1091.87 1190.28 L1086.24 1185.49 L1081.28 1180.69 L1076.88 1175.9 L1008.33 1175.9 L1003.94 1180.69 L998.975 1185.49 L993.344 1190.28 L986.954 1195.07 L979.715 1199.87 L971.551 1204.66 L962.401 1209.45 L952.229 1214.25 L941.026 1219.04 L928.815 1223.83 L915.648 1228.63 L901.606 1233.42 L886.795 1238.21 L871.343 1243.01 L855.385 1247.8 L839.064 1252.59 L822.517 1257.39 L805.871 1262.18 L789.238 1266.97 L772.707 1271.76 L756.347 1276.56 L740.204 1281.35 L724.302 1286.14 L708.644 1290.94 L693.219 1295.73 L677.997 1300.52 L662.939 1305.32 L647.995 1310.11 L633.109 1314.9 L618.22 1319.7 L603.264 1324.49 L588.179 1329.28 L572.907 1334.08 L557.397 1338.87 L541.606 1343.66 L525.508 1348.46 L509.092 1353.25 L492.362 1358.04 L475.342 1362.83 L458.072 1367.63 L440.605 1372.42 L423.006 1377.21 L405.346 1382.01 L387.701 1386.8 L370.146 1391.59 L352.751 1396.39 L335.587 1401.18 L318.721 1405.97 L302.222 1410.77 L286.167 1415.56 L270.648 1420.35 L255.778 1425.15 L241.701 1429.94 L228.593 1434.73 L216.668 1439.53 L206.17 1444.32 L197.372 1449.11 L190.558 1453.9 L186.008 1458.7 L183.977 1463.49 L184.673 1468.28 L188.234 1473.08 L194.71 1477.87 L204.048 1482.66 L216.088 1487.46 L230.56 1492.25 L247.097 1497.04 L265.252 1501.84 L284.522 1506.63 L304.373 1511.42 L324.276 1516.22 L343.733 1521.01 L362.307 1525.8 L379.64 1530.6 L395.474 1535.39 L409.657 1540.18 L422.145 1544.98 L432.997 1549.77 L442.369 1554.56 L450.489 1559.35 L457.648 1564.15 L464.173 1568.94 L470.41 1573.73 L476.7 1578.53 L483.363 1583.32 L490.682 1588.11 L498.892 1592.91 L508.17 1597.7 L518.632 1602.49 L530.338 1607.29 L543.289 1612.08 L557.441 1616.87 L572.711 1621.67 L588.989 1626.46 L606.145 1631.25 L624.042 1636.05 L642.543 1640.84 L661.514 1645.63 L680.827 1650.42 L700.363 1655.22 L720.01 1660.01 L739.66 1664.8 L759.21 1669.6 L778.556 1674.39 L797.594 1679.18 L816.223 1683.98 L834.337 1688.77 L851.836 1693.56 L868.621 1698.36 L884.598 1703.15 L899.681 1707.94 L913.794 1712.74 L926.873 1717.53 L938.865 1722.32 L949.734 1727.12 L959.457 1731.91 L968.031 1736.7 L975.47 1741.49 L981.806 1746.29 L987.09 1751.08 L991.39 1755.87 L994.794 1760.67 L997.402 1765.46 L999.327 1770.25 L1000.69 1775.05 L1001.62 1779.84 L1002.25 1784.63 L1002.69 1789.43 L1003.07 1794.22 L1003.49 1799.01 L1004.03 1803.81 L1004.78 1808.6 L1005.76 1813.39 L1007.03 1818.19 L1008.57 1822.98 L1076.64 1822.98  Z" fill="#009af9" fill-rule="evenodd" fill-opacity="1"/>
<polyline clip-path="url(#clip853)" style="stroke:#000000; stroke-linecap:round; stroke-linejoin:round; stroke-width:4; stroke-opacity:1; fill:none" points="1076.64,1822.98 1078.19,1818.19 1079.45,1813.39 1080.44,1808.6 1081.18,1803.81 1081.72,1799.01 1082.14,1794.22 1082.52,1789.43 1082.97,1784.63 1083.59,1779.84 1084.52,1775.05 1085.89,1770.25 1087.81,1765.46 1090.42,1760.67 1093.83,1755.87 1098.13,1751.08 1103.41,1746.29 1109.75,1741.49 1117.18,1736.7 1125.76,1731.91 1135.48,1727.12 1146.35,1722.32 1158.34,1717.53 1171.42,1712.74 1185.53,1707.94 1200.62,1703.15 1216.59,1698.36 1233.38,1693.56 1250.88,1688.77 1268.99,1683.98 1287.62,1679.18 1306.66,1674.39 1326.01,1669.6 1345.55,1664.8 1365.21,1660.01 1384.85,1655.22 1404.39,1650.42 1423.7,1645.63 1442.67,1640.84 1461.17,1636.05 1479.07,1631.25 1496.23,1626.46 1512.5,1621.67 1527.77,1616.87 1541.93,1612.08 1554.88,1607.29 1566.58,1602.49 1577.05,1597.7 1586.32,1592.91 1594.53,1588.11 1601.85,1583.32 1608.52,1578.53 1614.81,1573.73 1621.04,1568.94 1627.57,1564.15 1634.73,1559.35 1642.85,1554.56 1652.22,1549.77 1663.07,1544.98 1675.56,1540.18 1689.74,1535.39 1705.58,1530.6 1722.91,1525.8 1741.48,1521.01 1760.94,1516.22 1780.84,1511.42 1800.69,1506.63 1819.96,1501.84 1838.12,1497.04 1854.66,1492.25 1869.13,1487.46 1881.17,1482.66 1890.51,1477.87 1896.98,1473.08 1900.54,1468.28 1901.24,1463.49 1899.21,1458.7 1894.66,1453.9 1887.84,1449.11 1879.05,1444.32 1868.55,1439.53 1856.62,1434.73 1843.51,1429.94 1829.44,1425.15 1814.57,1420.35 1799.05,1415.56 1782.99,1410.77 1766.49,1405.97 1749.63,1401.18 1732.46,1396.39 1715.07,1391.59 1697.51,1386.8 1679.87,1382.01 1662.21,1377.21 1644.61,1372.42 1627.14,1367.63 1609.87,1362.83 1592.85,1358.04 1576.12,1353.25 1559.71,1348.46 1543.61,1343.66 1527.82,1338.87 1512.31,1334.08 1497.04,1329.28 1481.95,1324.49 1467,1319.7 1452.11,1314.9 1437.22,1310.11 1422.28,1305.32 1407.22,1300.52 1392,1295.73 1376.57,1290.94 1360.91,1286.14 1345.01,1281.35 1328.87,1276.56 1312.51,1271.76 1295.98,1266.97 1279.34,1262.18 1262.7,1257.39 1246.15,1252.59 1229.83,1247.8 1213.87,1243.01 1198.42,1238.21 1183.61,1233.42 1169.57,1228.63 1156.4,1223.83 1144.19,1219.04 1132.99,1214.25 1122.81,1209.45 1113.66,1204.66 1105.5,1199.87 1098.26,1195.07 1091.87,1190.28 1086.24,1185.49 1081.28,1180.69 1076.88,1175.9 1008.33,1175.9 1003.94,1180.69 998.975,1185.49 993.344,1190.28 986.954,1195.07 979.715,1199.87 971.551,1204.66 962.401,1209.45 952.229,1214.25 941.026,1219.04 928.815,1223.83 915.648,1228.63 901.606,1233.42 886.795,1238.21 871.343,1243.01 855.385,1247.8 839.064,1252.59 822.517,1257.39 805.871,1262.18 789.238,1266.97 772.707,1271.76 756.347,1276.56 740.204,1281.35 724.302,1286.14 708.644,1290.94 693.219,1295.73 677.997,1300.52 662.939,1305.32 647.995,1310.11 633.109,1314.9 618.22,1319.7 603.264,1324.49 588.179,1329.28 572.907,1334.08 557.397,1338.87 541.606,1343.66 525.508,1348.46 509.092,1353.25 492.362,1358.04 475.342,1362.83 458.072,1367.63 440.605,1372.42 423.006,1377.21 405.346,1382.01 387.701,1386.8 370.146,1391.59 352.751,1396.39 335.587,1401.18 318.721,1405.97 302.222,1410.77 286.167,1415.56 270.648,1420.35 255.778,1425.15 241.701,1429.94 228.593,1434.73 216.668,1439.53 206.17,1444.32 197.372,1449.11 190.558,1453.9 186.008,1458.7 183.977,1463.49 184.673,1468.28 188.234,1473.08 194.71,1477.87 204.048,1482.66 216.088,1487.46 230.56,1492.25 247.097,1497.04 265.252,1501.84 284.522,1506.63 304.373,1511.42 324.276,1516.22 343.733,1521.01 362.307,1525.8 379.64,1530.6 395.474,1535.39 409.657,1540.18 422.145,1544.98 432.997,1549.77 442.369,1554.56 450.489,1559.35 457.648,1564.15 464.173,1568.94 470.41,1573.73 476.7,1578.53 483.363,1583.32 490.682,1588.11 498.892,1592.91 508.17,1597.7 518.632,1602.49 530.338,1607.29 543.289,1612.08 557.441,1616.87 572.711,1621.67 588.989,1626.46 606.145,1631.25 624.042,1636.05 642.543,1640.84 661.514,1645.63 680.827,1650.42 700.363,1655.22 720.01,1660.01 739.66,1664.8 759.21,1669.6 778.556,1674.39 797.594,1679.18 816.223,1683.98 834.337,1688.77 851.836,1693.56 868.621,1698.36 884.598,1703.15 899.681,1707.94 913.794,1712.74 926.873,1717.53 938.865,1722.32 949.734,1727.12 959.457,1731.91 968.031,1736.7 975.47,1741.49 981.806,1746.29 987.09,1751.08 991.39,1755.87 994.794,1760.67 997.402,1765.46 999.327,1770.25 1000.69,1775.05 1001.62,1779.84 1002.25,1784.63 1002.69,1789.43 1003.07,1794.22 1003.49,1799.01 1004.03,1803.81 1004.78,1808.6 1005.76,1813.39 1007.03,1818.19 1008.57,1822.98 1076.64,1822.98 "/>
<path clip-path="url(#clip853)" d="M1042.61 1810.11 L988.943 1810.11 L1096.27 1810.11 L1042.61 1810.11 L1042.61 1564.01 L1042.61 1810.11  Z" fill="#e26f46" fill-rule="evenodd" fill-opacity="0.8"/>
<polyline clip-path="url(#clip853)" style="stroke:#000000; stroke-linecap:round; stroke-linejoin:round; stroke-width:8; stroke-opacity:1; fill:none" points="1042.61,1810.11 988.943,1810.11 1096.27,1810.11 1042.61,1810.11 1042.61,1564.01 1042.61,1810.11 "/>
<path clip-path="url(#clip853)" d="M1149.94 1564.01 L1149.94 1474.85 L935.279 1474.85 L935.279 1564.01 L1149.94 1564.01 L1149.94 1474.85 L1149.94 1564.01  Z" fill="#e26f46" fill-rule="evenodd" fill-opacity="0.8"/>
<polyline clip-path="url(#clip853)" style="stroke:#000000; stroke-linecap:round; stroke-linejoin:round; stroke-width:8; stroke-opacity:1; fill:none" points="1149.94,1564.01 1149.94,1474.85 935.279,1474.85 935.279,1564.01 1149.94,1564.01 1149.94,1474.85 1149.94,1564.01 "/>
<path clip-path="url(#clip853)" d="M1149.94 1390.68 L935.279 1390.68 L935.279 1474.85 L1149.94 1474.85 L1149.94 1390.68 L1042.61 1390.68 L1149.94 1390.68  Z" fill="#e26f46" fill-rule="evenodd" fill-opacity="0.8"/>
<polyline clip-path="url(#clip853)" style="stroke:#000000; stroke-linecap:round; stroke-linejoin:round; stroke-width:8; stroke-opacity:1; fill:none" points="1149.94,1390.68 935.279,1390.68 935.279,1474.85 1149.94,1474.85 1149.94,1390.68 1042.61,1390.68 1149.94,1390.68 "/>
<path clip-path="url(#clip853)" d="M1042.61 1173.28 L988.943 1173.28 L1096.27 1173.28 L1042.61 1173.28 L1042.61 1390.68 L1042.61 1173.28  Z" fill="#e26f46" fill-rule="evenodd" fill-opacity="0.8"/>
<polyline clip-path="url(#clip853)" style="stroke:#000000; stroke-linecap:round; stroke-linejoin:round; stroke-width:8; stroke-opacity:1; fill:none" points="1042.61,1173.28 988.943,1173.28 1096.27,1173.28 1042.61,1173.28 1042.61,1390.68 1042.61,1173.28 "/>
<circle clip-path="url(#clip853)" cx="1042.61" cy="1825.6" r="14.4" fill="#e26f46" fill-rule="evenodd" fill-opacity="1" stroke="#000000" stroke-opacity="1" stroke-width="4"/>
<polyline clip-path="url(#clip853)" style="stroke:#e26f46; stroke-linecap:round; stroke-linejoin:round; stroke-width:0; stroke-opacity:1; fill:none" points="1042.61,1810.11 988.943,1810.11 1096.27,1810.11 1042.61,1810.11 1042.61,1564.01 "/>
<polyline clip-path="url(#clip853)" style="stroke:#e26f46; stroke-linecap:round; stroke-linejoin:round; stroke-width:0; stroke-opacity:1; fill:none" points="1149.94,1564.01 1149.94,1474.85 935.279,1474.85 935.279,1564.01 1149.94,1564.01 1149.94,1474.85 "/>
<polyline clip-path="url(#clip853)" style="stroke:#e26f46; stroke-linecap:round; stroke-linejoin:round; stroke-width:0; stroke-opacity:1; fill:none" points="1149.94,1390.68 935.279,1390.68 935.279,1474.85 1149.94,1474.85 1149.94,1390.68 1042.61,1390.68 "/>
<polyline clip-path="url(#clip853)" style="stroke:#e26f46; stroke-linecap:round; stroke-linejoin:round; stroke-width:0; stroke-opacity:1; fill:none" points="1042.61,1173.28 988.943,1173.28 1096.27,1173.28 1042.61,1173.28 1042.61,1390.68 "/>
<path clip-path="url(#clip850)" d="M132.459 2845.17 L1952.76 2845.17 L1952.76 2153.71 L132.459 2153.71  Z" fill="#ffffff" fill-rule="evenodd" fill-opacity="1"/>
<defs>
  <clipPath id="clip854">
    <rect x="132" y="2153" width="1821" height="692"/>
  </clipPath>
</defs>
<polyline clip-path="url(#clip854)" style="stroke:#000000; stroke-linecap:round; stroke-linejoin:round; stroke-width:2; stroke-opacity:0.1; fill:none" points="1042.61,2845.17 1042.61,2153.71 "/>
<polyline clip-path="url(#clip854)" style="stroke:#000000; stroke-linecap:round; stroke-linejoin:round; stroke-width:2; stroke-opacity:0.1; fill:none" points="132.459,2779.33 1952.76,2779.33 "/>
<polyline clip-path="url(#clip854)" style="stroke:#000000; stroke-linecap:round; stroke-linejoin:round; stroke-width:2; stroke-opacity:0.1; fill:none" points="132.459,2675.88 1952.76,2675.88 "/>
<polyline clip-path="url(#clip854)" style="stroke:#000000; stroke-linecap:round; stroke-linejoin:round; stroke-width:2; stroke-opacity:0.1; fill:none" points="132.459,2572.43 1952.76,2572.43 "/>
<polyline clip-path="url(#clip854)" style="stroke:#000000; stroke-linecap:round; stroke-linejoin:round; stroke-width:2; stroke-opacity:0.1; fill:none" points="132.459,2468.99 1952.76,2468.99 "/>
<polyline clip-path="url(#clip854)" style="stroke:#000000; stroke-linecap:round; stroke-linejoin:round; stroke-width:2; stroke-opacity:0.1; fill:none" points="132.459,2365.54 1952.76,2365.54 "/>
<polyline clip-path="url(#clip854)" style="stroke:#000000; stroke-linecap:round; stroke-linejoin:round; stroke-width:2; stroke-opacity:0.1; fill:none" points="132.459,2262.09 1952.76,2262.09 "/>
<polyline clip-path="url(#clip854)" style="stroke:#000000; stroke-linecap:round; stroke-linejoin:round; stroke-width:2; stroke-opacity:0.1; fill:none" points="132.459,2158.64 1952.76,2158.64 "/>
<polyline clip-path="url(#clip850)" style="stroke:#000000; stroke-linecap:round; stroke-linejoin:round; stroke-width:4; stroke-opacity:1; fill:none" points="132.459,2845.17 1952.76,2845.17 "/>
<polyline clip-path="url(#clip850)" style="stroke:#000000; stroke-linecap:round; stroke-linejoin:round; stroke-width:4; stroke-opacity:1; fill:none" points="1042.61,2845.17 1042.61,2826.27 "/>
<path clip-path="url(#clip850)" d="M983.673 2888.47 L983.673 2893.4 Q981.312 2891.2 978.627 2890.11 Q975.965 2889.03 972.955 2889.03 Q967.029 2889.03 963.881 2892.66 Q960.733 2896.27 960.733 2903.12 Q960.733 2909.95 963.881 2913.59 Q967.029 2917.2 972.955 2917.2 Q975.965 2917.2 978.627 2916.11 Q981.312 2915.02 983.673 2912.82 L983.673 2917.71 Q981.219 2919.37 978.465 2920.21 Q975.733 2921.04 972.677 2921.04 Q964.83 2921.04 960.316 2916.25 Q955.803 2911.43 955.803 2903.12 Q955.803 2894.79 960.316 2890 Q964.83 2885.18 972.677 2885.18 Q975.779 2885.18 978.511 2886.02 Q981.265 2886.83 983.673 2888.47 Z" fill="#000000" fill-rule="nonzero" fill-opacity="1" /><path clip-path="url(#clip850)" d="M1012.26 2904.72 L1012.26 2920.37 L1008 2920.37 L1008 2904.86 Q1008 2901.18 1006.57 2899.35 Q1005.13 2897.52 1002.26 2897.52 Q998.812 2897.52 996.821 2899.72 Q994.83 2901.92 994.83 2905.72 L994.83 2920.37 L990.548 2920.37 L990.548 2884.35 L994.83 2884.35 L994.83 2898.47 Q996.358 2896.13 998.418 2894.97 Q1000.5 2893.82 1003.21 2893.82 Q1007.68 2893.82 1009.97 2896.59 Q1012.26 2899.35 1012.26 2904.72 Z" fill="#000000" fill-rule="nonzero" fill-opacity="1" /><path clip-path="url(#clip850)" d="M1032.54 2907.34 Q1027.38 2907.34 1025.39 2908.52 Q1023.39 2909.7 1023.39 2912.54 Q1023.39 2914.81 1024.88 2916.15 Q1026.38 2917.47 1028.95 2917.47 Q1032.49 2917.47 1034.62 2914.97 Q1036.77 2912.45 1036.77 2908.28 L1036.77 2907.34 L1032.54 2907.34 M1041.03 2905.58 L1041.03 2920.37 L1036.77 2920.37 L1036.77 2916.43 Q1035.32 2918.79 1033.14 2919.93 Q1030.96 2921.04 1027.82 2921.04 Q1023.83 2921.04 1021.47 2918.82 Q1019.14 2916.57 1019.14 2912.82 Q1019.14 2908.45 1022.05 2906.22 Q1024.99 2904 1030.8 2904 L1036.77 2904 L1036.77 2903.59 Q1036.77 2900.65 1034.83 2899.05 Q1032.91 2897.43 1029.41 2897.43 Q1027.19 2897.43 1025.08 2897.96 Q1022.98 2898.49 1021.03 2899.56 L1021.03 2895.62 Q1023.37 2894.72 1025.57 2894.28 Q1027.77 2893.82 1029.85 2893.82 Q1035.48 2893.82 1038.26 2896.73 Q1041.03 2899.65 1041.03 2905.58 Z" fill="#000000" fill-rule="nonzero" fill-opacity="1" /><path clip-path="url(#clip850)" d="M1049.81 2894.44 L1054.07 2894.44 L1054.07 2920.37 L1049.81 2920.37 L1049.81 2894.44 M1049.81 2884.35 L1054.07 2884.35 L1054.07 2889.74 L1049.81 2889.74 L1049.81 2884.35 Z" fill="#000000" fill-rule="nonzero" fill-opacity="1" /><path clip-path="url(#clip850)" d="M1084.53 2904.72 L1084.53 2920.37 L1080.27 2920.37 L1080.27 2904.86 Q1080.27 2901.18 1078.83 2899.35 Q1077.4 2897.52 1074.53 2897.52 Q1071.08 2897.52 1069.09 2899.72 Q1067.1 2901.92 1067.1 2905.72 L1067.1 2920.37 L1062.82 2920.37 L1062.82 2894.44 L1067.1 2894.44 L1067.1 2898.47 Q1068.63 2896.13 1070.69 2894.97 Q1072.77 2893.82 1075.48 2893.82 Q1079.95 2893.82 1082.24 2896.59 Q1084.53 2899.35 1084.53 2904.72 Z" fill="#000000" fill-rule="nonzero" fill-opacity="1" /><path clip-path="url(#clip850)" d="M1109.51 2916.43 L1117.14 2916.43 L1117.14 2890.07 L1108.83 2891.73 L1108.83 2887.47 L1117.1 2885.81 L1121.77 2885.81 L1121.77 2916.43 L1129.41 2916.43 L1129.41 2920.37 L1109.51 2920.37 L1109.51 2916.43 Z" fill="#000000" fill-rule="nonzero" fill-opacity="1" /><polyline clip-path="url(#clip850)" style="stroke:#000000; stroke-linecap:round; stroke-linejoin:round; stroke-width:4; stroke-opacity:1; fill:none" points="132.459,2845.17 132.459,2153.71 "/>
<polyline clip-path="url(#clip850)" style="stroke:#000000; stroke-linecap:round; stroke-linejoin:round; stroke-width:4; stroke-opacity:1; fill:none" points="132.459,2779.33 151.357,2779.33 "/>
<polyline clip-path="url(#clip850)" style="stroke:#000000; stroke-linecap:round; stroke-linejoin:round; stroke-width:4; stroke-opacity:1; fill:none" points="132.459,2675.88 151.357,2675.88 "/>
<polyline clip-path="url(#clip850)" style="stroke:#000000; stroke-linecap:round; stroke-linejoin:round; stroke-width:4; stroke-opacity:1; fill:none" points="132.459,2572.43 151.357,2572.43 "/>
<polyline clip-path="url(#clip850)" style="stroke:#000000; stroke-linecap:round; stroke-linejoin:round; stroke-width:4; stroke-opacity:1; fill:none" points="132.459,2468.99 151.357,2468.99 "/>
<polyline clip-path="url(#clip850)" style="stroke:#000000; stroke-linecap:round; stroke-linejoin:round; stroke-width:4; stroke-opacity:1; fill:none" points="132.459,2365.54 151.357,2365.54 "/>
<polyline clip-path="url(#clip850)" style="stroke:#000000; stroke-linecap:round; stroke-linejoin:round; stroke-width:4; stroke-opacity:1; fill:none" points="132.459,2262.09 151.357,2262.09 "/>
<polyline clip-path="url(#clip850)" style="stroke:#000000; stroke-linecap:round; stroke-linejoin:round; stroke-width:4; stroke-opacity:1; fill:none" points="132.459,2158.64 151.357,2158.64 "/>
<path clip-path="url(#clip850)" d="M60.5151 2765.13 Q56.904 2765.13 55.0753 2768.69 Q53.2697 2772.24 53.2697 2779.37 Q53.2697 2786.47 55.0753 2790.04 Q56.904 2793.58 60.5151 2793.58 Q64.1493 2793.58 65.9549 2790.04 Q67.7836 2786.47 67.7836 2779.37 Q67.7836 2772.24 65.9549 2768.69 Q64.1493 2765.13 60.5151 2765.13 M60.5151 2761.43 Q66.3252 2761.43 69.3808 2766.03 Q72.4595 2770.62 72.4595 2779.37 Q72.4595 2788.09 69.3808 2792.7 Q66.3252 2797.28 60.5151 2797.28 Q54.7049 2797.28 51.6262 2792.7 Q48.5707 2788.09 48.5707 2779.37 Q48.5707 2770.62 51.6262 2766.03 Q54.7049 2761.43 60.5151 2761.43 Z" fill="#000000" fill-rule="nonzero" fill-opacity="1" /><path clip-path="url(#clip850)" d="M52.5522 2689.23 L60.191 2689.23 L60.191 2662.86 L51.8809 2664.53 L51.8809 2660.27 L60.1447 2658.6 L64.8206 2658.6 L64.8206 2689.23 L72.4595 2689.23 L72.4595 2693.16 L52.5522 2693.16 L52.5522 2689.23 Z" fill="#000000" fill-rule="nonzero" fill-opacity="1" /><path clip-path="url(#clip850)" d="M56.1401 2585.78 L72.4595 2585.78 L72.4595 2589.71 L50.5151 2589.71 L50.5151 2585.78 Q53.1771 2583.02 57.7605 2578.39 Q62.3669 2573.74 63.5475 2572.4 Q65.7928 2569.88 66.6724 2568.14 Q67.5752 2566.38 67.5752 2564.69 Q67.5752 2561.94 65.6308 2560.2 Q63.7095 2558.46 60.6077 2558.46 Q58.4086 2558.46 55.9549 2559.23 Q53.5244 2559.99 50.7466 2561.54 L50.7466 2556.82 Q53.5707 2555.69 56.0244 2555.11 Q58.478 2554.53 60.5151 2554.53 Q65.8854 2554.53 69.0798 2557.21 Q72.2743 2559.9 72.2743 2564.39 Q72.2743 2566.52 71.4641 2568.44 Q70.6771 2570.34 68.5706 2572.93 Q67.9919 2573.6 64.89 2576.82 Q61.7882 2580.02 56.1401 2585.78 Z" fill="#000000" fill-rule="nonzero" fill-opacity="1" /><path clip-path="url(#clip850)" d="M65.3299 2467.63 Q68.6863 2468.35 70.5613 2470.62 Q72.4595 2472.89 72.4595 2476.22 Q72.4595 2481.34 68.941 2484.14 Q65.4225 2486.94 58.941 2486.94 Q56.7651 2486.94 54.4503 2486.5 Q52.1586 2486.08 49.7049 2485.22 L49.7049 2480.71 Q51.6494 2481.84 53.9642 2482.42 Q56.279 2483 58.8021 2483 Q63.2002 2483 65.4919 2481.27 Q67.8067 2479.53 67.8067 2476.22 Q67.8067 2473.16 65.6539 2471.45 Q63.5243 2469.71 59.7049 2469.71 L55.6771 2469.71 L55.6771 2465.87 L59.8901 2465.87 Q63.3391 2465.87 65.1678 2464.51 Q66.9965 2463.12 66.9965 2460.52 Q66.9965 2457.86 65.0984 2456.45 Q63.2234 2455.02 59.7049 2455.02 Q57.7836 2455.02 55.5845 2455.43 Q53.3855 2455.85 50.7466 2456.73 L50.7466 2452.56 Q53.4086 2451.82 55.7234 2451.45 Q58.0614 2451.08 60.1216 2451.08 Q65.4456 2451.08 68.5474 2453.51 Q71.6493 2455.92 71.6493 2460.04 Q71.6493 2462.91 70.0058 2464.9 Q68.3623 2466.87 65.3299 2467.63 Z" fill="#000000" fill-rule="nonzero" fill-opacity="1" /><path clip-path="url(#clip850)" d="M62.8762 2352.33 L51.0707 2370.78 L62.8762 2370.78 L62.8762 2352.33 M61.6493 2348.26 L67.5289 2348.26 L67.5289 2370.78 L72.4595 2370.78 L72.4595 2374.67 L67.5289 2374.67 L67.5289 2382.82 L62.8762 2382.82 L62.8762 2374.67 L47.2744 2374.67 L47.2744 2370.16 L61.6493 2348.26 Z" fill="#000000" fill-rule="nonzero" fill-opacity="1" /><path clip-path="url(#clip850)" d="M51.5568 2244.81 L69.9132 2244.81 L69.9132 2248.74 L55.8392 2248.74 L55.8392 2257.22 Q56.8577 2256.87 57.8762 2256.71 Q58.8947 2256.52 59.9132 2256.52 Q65.7002 2256.52 69.0798 2259.69 Q72.4595 2262.86 72.4595 2268.28 Q72.4595 2273.86 68.9872 2276.96 Q65.515 2280.04 59.1956 2280.04 Q57.0197 2280.04 54.7512 2279.67 Q52.5059 2279.3 50.0985 2278.56 L50.0985 2273.86 Q52.1818 2274.99 54.404 2275.55 Q56.6262 2276.1 59.103 2276.1 Q63.1077 2276.1 65.4456 2274 Q67.7836 2271.89 67.7836 2268.28 Q67.7836 2264.67 65.4456 2262.56 Q63.1077 2260.46 59.103 2260.46 Q57.2281 2260.46 55.3531 2260.87 Q53.5012 2261.29 51.5568 2262.17 L51.5568 2244.81 Z" fill="#000000" fill-rule="nonzero" fill-opacity="1" /><path clip-path="url(#clip850)" d="M60.9317 2156.78 Q57.7836 2156.78 55.9318 2158.93 Q54.1031 2161.08 54.1031 2164.83 Q54.1031 2168.56 55.9318 2170.73 Q57.7836 2172.89 60.9317 2172.89 Q64.0799 2172.89 65.9086 2170.73 Q67.7604 2168.56 67.7604 2164.83 Q67.7604 2161.08 65.9086 2158.93 Q64.0799 2156.78 60.9317 2156.78 M70.2141 2142.12 L70.2141 2146.38 Q68.4548 2145.55 66.6493 2145.11 Q64.8669 2144.67 63.1077 2144.67 Q58.478 2144.67 56.0244 2147.8 Q53.5938 2150.92 53.2466 2157.24 Q54.6123 2155.23 56.6725 2154.16 Q58.7327 2153.07 61.2095 2153.07 Q66.4178 2153.07 69.4271 2156.24 Q72.4595 2159.39 72.4595 2164.83 Q72.4595 2170.16 69.3113 2173.37 Q66.1632 2176.59 60.9317 2176.59 Q54.9364 2176.59 51.7651 2172.01 Q48.5938 2167.4 48.5938 2158.67 Q48.5938 2150.48 52.4827 2145.62 Q56.3716 2140.73 62.9225 2140.73 Q64.6817 2140.73 66.4641 2141.08 Q68.2697 2141.43 70.2141 2142.12 Z" fill="#000000" fill-rule="nonzero" fill-opacity="1" /><path clip-path="url(#clip850)" d="M1066.99 2016.75 L1066.99 2025.38 Q1062.86 2021.53 1058.16 2019.63 Q1053.5 2017.73 1048.24 2017.73 Q1037.87 2017.73 1032.36 2024.09 Q1026.85 2030.41 1026.85 2042.4 Q1026.85 2054.35 1032.36 2060.71 Q1037.87 2067.03 1048.24 2067.03 Q1053.5 2067.03 1058.16 2065.12 Q1062.86 2063.22 1066.99 2059.37 L1066.99 2067.92 Q1062.7 2070.83 1057.88 2072.29 Q1053.1 2073.75 1047.75 2073.75 Q1034.02 2073.75 1026.12 2065.37 Q1018.22 2056.94 1018.22 2042.4 Q1018.22 2027.81 1026.12 2019.43 Q1034.02 2011 1047.75 2011 Q1053.18 2011 1057.96 2012.46 Q1062.78 2013.88 1066.99 2016.75 Z" fill="#000000" fill-rule="nonzero" fill-opacity="1" /><path clip-path="url(#clip854)" d="M1065.29 2821.15 L1066.56 2816.52 L1067.81 2811.89 L1069.06 2807.26 L1070.34 2802.63 L1071.69 2798 L1073.14 2793.37 L1074.73 2788.74 L1076.47 2784.12 L1078.39 2779.49 L1080.54 2774.86 L1082.95 2770.23 L1085.66 2765.6 L1088.73 2760.97 L1092.23 2756.34 L1096.22 2751.71 L1100.76 2747.08 L1105.91 2742.46 L1111.69 2737.83 L1118.11 2733.2 L1125.13 2728.57 L1132.68 2723.94 L1140.65 2719.31 L1148.91 2714.68 L1157.31 2710.05 L1165.7 2705.42 L1173.95 2700.8 L1181.98 2696.17 L1189.76 2691.54 L1197.33 2686.91 L1204.8 2682.28 L1212.36 2677.65 L1220.27 2673.02 L1228.83 2668.39 L1238.34 2663.76 L1249.15 2659.14 L1261.52 2654.51 L1275.73 2649.88 L1291.93 2645.25 L1310.25 2640.62 L1330.7 2635.99 L1353.25 2631.36 L1377.77 2626.73 L1404.09 2622.11 L1431.98 2617.48 L1461.18 2612.85 L1491.42 2608.22 L1522.39 2603.59 L1553.79 2598.96 L1585.3 2594.33 L1616.61 2589.7 L1647.42 2585.07 L1677.42 2580.45 L1706.31 2575.82 L1733.8 2571.19 L1759.63 2566.56 L1783.53 2561.93 L1805.28 2557.3 L1824.68 2552.67 L1841.58 2548.04 L1855.88 2543.41 L1867.52 2538.79 L1876.53 2534.16 L1883.01 2529.53 L1887.13 2524.9 L1889.12 2520.27 L1889.29 2515.64 L1888 2511.01 L1885.64 2506.38 L1882.61 2501.75 L1879.29 2497.13 L1876.05 2492.5 L1873.19 2487.87 L1870.93 2483.24 L1869.45 2478.61 L1868.81 2473.98 L1869.05 2469.35 L1870.1 2464.72 L1871.89 2460.09 L1874.3 2455.47 L1877.23 2450.84 L1880.53 2446.21 L1884.1 2441.58 L1887.79 2436.95 L1891.44 2432.32 L1894.87 2427.69 L1897.85 2423.06 L1900.09 2418.43 L1901.24 2413.81 L1900.9 2409.18 L1898.63 2404.55 L1894.01 2399.92 L1886.6 2395.29 L1876.06 2390.66 L1862.13 2386.03 L1844.67 2381.4 L1823.68 2376.77 L1799.32 2372.15 L1771.91 2367.52 L1741.87 2362.89 L1709.73 2358.26 L1676.07 2353.63 L1641.52 2349 L1606.65 2344.37 L1571.98 2339.74 L1537.95 2335.12 L1504.9 2330.49 L1473.05 2325.86 L1442.53 2321.23 L1413.39 2316.6 L1385.6 2311.97 L1359.11 2307.34 L1333.85 2302.71 L1309.76 2298.08 L1286.8 2293.46 L1264.94 2288.83 L1244.22 2284.2 L1224.64 2279.57 L1206.27 2274.94 L1189.14 2270.31 L1173.3 2265.68 L1158.74 2261.05 L1145.49 2256.42 L1133.5 2251.8 L1122.73 2247.17 L1113.14 2242.54 L1104.65 2237.91 L1097.2 2233.28 L1090.71 2228.65 L1085.13 2224.02 L1080.38 2219.39 L1076.39 2214.76 L1073.09 2210.14 L1070.41 2205.51 L1068.26 2200.88 L1066.55 2196.25 L1065.18 2191.62 L1064.05 2186.99 L1063.08 2182.36 L1062.18 2177.73 L1023.04 2177.73 L1022.13 2182.36 L1021.16 2186.99 L1020.04 2191.62 L1018.67 2196.25 L1016.96 2200.88 L1014.8 2205.51 L1012.12 2210.14 L1008.83 2214.76 L1004.84 2219.39 L1000.09 2224.02 L994.501 2228.65 L988.016 2233.28 L980.564 2237.91 L972.075 2242.54 L962.482 2247.17 L951.72 2251.8 L939.73 2256.42 L926.472 2261.05 L911.92 2265.68 L896.071 2270.31 L878.943 2274.94 L860.571 2279.57 L840.999 2284.2 L820.27 2288.83 L798.418 2293.46 L775.454 2298.08 L751.363 2302.71 L726.104 2307.34 L699.614 2311.97 L671.825 2316.6 L642.682 2321.23 L612.164 2325.86 L580.316 2330.49 L547.264 2335.12 L513.237 2339.74 L478.567 2344.37 L443.694 2349 L409.141 2353.63 L375.49 2358.26 L343.349 2362.89 L313.306 2367.52 L285.892 2372.15 L261.538 2376.77 L240.55 2381.4 L223.085 2386.03 L209.152 2390.66 L198.614 2395.29 L191.21 2399.92 L186.583 2404.55 L184.32 2409.18 L183.977 2413.81 L185.124 2418.43 L187.362 2423.06 L190.342 2427.69 L193.776 2432.32 L197.43 2436.95 L201.117 2441.58 L204.681 2446.21 L207.988 2450.84 L210.913 2455.47 L213.329 2460.09 L215.117 2464.72 L216.169 2469.35 L216.401 2473.98 L215.768 2478.61 L214.283 2483.24 L212.03 2487.87 L209.165 2492.5 L205.924 2497.13 L202.608 2501.75 L199.574 2506.38 L197.211 2511.01 L195.923 2515.64 L196.096 2520.27 L198.089 2524.9 L202.205 2529.53 L208.685 2534.16 L217.698 2538.79 L229.34 2543.41 L243.633 2548.04 L260.532 2552.67 L279.934 2557.3 L301.684 2561.93 L325.587 2566.56 L351.414 2571.19 L378.909 2575.82 L407.799 2580.45 L437.796 2585.07 L468.604 2589.7 L499.918 2594.33 L531.428 2598.96 L562.824 2603.59 L593.795 2608.22 L624.033 2612.85 L653.239 2617.48 L681.13 2622.11 L707.447 2626.73 L731.966 2631.36 L754.512 2635.99 L774.968 2640.62 L793.284 2645.25 L809.489 2649.88 L823.691 2654.51 L836.07 2659.14 L846.871 2663.76 L856.389 2668.39 L864.943 2673.02 L872.853 2677.65 L880.417 2682.28 L887.888 2686.91 L895.454 2691.54 L903.232 2696.17 L911.262 2700.8 L919.515 2705.42 L927.905 2710.05 L936.304 2714.68 L944.565 2719.31 L952.537 2723.94 L960.087 2728.57 L967.106 2733.2 L973.524 2737.83 L979.306 2742.46 L984.454 2747.08 L988.997 2751.71 L992.987 2756.34 L996.485 2760.97 L999.558 2765.6 L1002.27 2770.23 L1004.67 2774.86 L1006.82 2779.49 L1008.75 2784.12 L1010.49 2788.74 L1012.07 2793.37 L1013.53 2798 L1014.88 2802.63 L1016.16 2807.26 L1017.41 2811.89 L1018.65 2816.52 L1019.92 2821.15 L1065.29 2821.15  Z" fill="#009af9" fill-rule="evenodd" fill-opacity="1"/>
<polyline clip-path="url(#clip854)" style="stroke:#000000; stroke-linecap:round; stroke-linejoin:round; stroke-width:4; stroke-opacity:1; fill:none" points="1065.29,2821.15 1066.56,2816.52 1067.81,2811.89 1069.06,2807.26 1070.34,2802.63 1071.69,2798 1073.14,2793.37 1074.73,2788.74 1076.47,2784.12 1078.39,2779.49 1080.54,2774.86 1082.95,2770.23 1085.66,2765.6 1088.73,2760.97 1092.23,2756.34 1096.22,2751.71 1100.76,2747.08 1105.91,2742.46 1111.69,2737.83 1118.11,2733.2 1125.13,2728.57 1132.68,2723.94 1140.65,2719.31 1148.91,2714.68 1157.31,2710.05 1165.7,2705.42 1173.95,2700.8 1181.98,2696.17 1189.76,2691.54 1197.33,2686.91 1204.8,2682.28 1212.36,2677.65 1220.27,2673.02 1228.83,2668.39 1238.34,2663.76 1249.15,2659.14 1261.52,2654.51 1275.73,2649.88 1291.93,2645.25 1310.25,2640.62 1330.7,2635.99 1353.25,2631.36 1377.77,2626.73 1404.09,2622.11 1431.98,2617.48 1461.18,2612.85 1491.42,2608.22 1522.39,2603.59 1553.79,2598.96 1585.3,2594.33 1616.61,2589.7 1647.42,2585.07 1677.42,2580.45 1706.31,2575.82 1733.8,2571.19 1759.63,2566.56 1783.53,2561.93 1805.28,2557.3 1824.68,2552.67 1841.58,2548.04 1855.88,2543.41 1867.52,2538.79 1876.53,2534.16 1883.01,2529.53 1887.13,2524.9 1889.12,2520.27 1889.29,2515.64 1888,2511.01 1885.64,2506.38 1882.61,2501.75 1879.29,2497.13 1876.05,2492.5 1873.19,2487.87 1870.93,2483.24 1869.45,2478.61 1868.81,2473.98 1869.05,2469.35 1870.1,2464.72 1871.89,2460.09 1874.3,2455.47 1877.23,2450.84 1880.53,2446.21 1884.1,2441.58 1887.79,2436.95 1891.44,2432.32 1894.87,2427.69 1897.85,2423.06 1900.09,2418.43 1901.24,2413.81 1900.9,2409.18 1898.63,2404.55 1894.01,2399.92 1886.6,2395.29 1876.06,2390.66 1862.13,2386.03 1844.67,2381.4 1823.68,2376.77 1799.32,2372.15 1771.91,2367.52 1741.87,2362.89 1709.73,2358.26 1676.07,2353.63 1641.52,2349 1606.65,2344.37 1571.98,2339.74 1537.95,2335.12 1504.9,2330.49 1473.05,2325.86 1442.53,2321.23 1413.39,2316.6 1385.6,2311.97 1359.11,2307.34 1333.85,2302.71 1309.76,2298.08 1286.8,2293.46 1264.94,2288.83 1244.22,2284.2 1224.64,2279.57 1206.27,2274.94 1189.14,2270.31 1173.3,2265.68 1158.74,2261.05 1145.49,2256.42 1133.5,2251.8 1122.73,2247.17 1113.14,2242.54 1104.65,2237.91 1097.2,2233.28 1090.71,2228.65 1085.13,2224.02 1080.38,2219.39 1076.39,2214.76 1073.09,2210.14 1070.41,2205.51 1068.26,2200.88 1066.55,2196.25 1065.18,2191.62 1064.05,2186.99 1063.08,2182.36 1062.18,2177.73 1023.04,2177.73 1022.13,2182.36 1021.16,2186.99 1020.04,2191.62 1018.67,2196.25 1016.96,2200.88 1014.8,2205.51 1012.12,2210.14 1008.83,2214.76 1004.84,2219.39 1000.09,2224.02 994.501,2228.65 988.016,2233.28 980.564,2237.91 972.075,2242.54 962.482,2247.17 951.72,2251.8 939.73,2256.42 926.472,2261.05 911.92,2265.68 896.071,2270.31 878.943,2274.94 860.571,2279.57 840.999,2284.2 820.27,2288.83 798.418,2293.46 775.454,2298.08 751.363,2302.71 726.104,2307.34 699.614,2311.97 671.825,2316.6 642.682,2321.23 612.164,2325.86 580.316,2330.49 547.264,2335.12 513.237,2339.74 478.567,2344.37 443.694,2349 409.141,2353.63 375.49,2358.26 343.349,2362.89 313.306,2367.52 285.892,2372.15 261.538,2376.77 240.55,2381.4 223.085,2386.03 209.152,2390.66 198.614,2395.29 191.21,2399.92 186.583,2404.55 184.32,2409.18 183.977,2413.81 185.124,2418.43 187.362,2423.06 190.342,2427.69 193.776,2432.32 197.43,2436.95 201.117,2441.58 204.681,2446.21 207.988,2450.84 210.913,2455.47 213.329,2460.09 215.117,2464.72 216.169,2469.35 216.401,2473.98 215.768,2478.61 214.283,2483.24 212.03,2487.87 209.165,2492.5 205.924,2497.13 202.608,2501.75 199.574,2506.38 197.211,2511.01 195.923,2515.64 196.096,2520.27 198.089,2524.9 202.205,2529.53 208.685,2534.16 217.698,2538.79 229.34,2543.41 243.633,2548.04 260.532,2552.67 279.934,2557.3 301.684,2561.93 325.587,2566.56 351.414,2571.19 378.909,2575.82 407.799,2580.45 437.796,2585.07 468.604,2589.7 499.918,2594.33 531.428,2598.96 562.824,2603.59 593.795,2608.22 624.033,2612.85 653.239,2617.48 681.13,2622.11 707.447,2626.73 731.966,2631.36 754.512,2635.99 774.968,2640.62 793.284,2645.25 809.489,2649.88 823.691,2654.51 836.07,2659.14 846.871,2663.76 856.389,2668.39 864.943,2673.02 872.853,2677.65 880.417,2682.28 887.888,2686.91 895.454,2691.54 903.232,2696.17 911.262,2700.8 919.515,2705.42 927.905,2710.05 936.304,2714.68 944.565,2719.31 952.537,2723.94 960.087,2728.57 967.106,2733.2 973.524,2737.83 979.306,2742.46 984.454,2747.08 988.997,2751.71 992.987,2756.34 996.485,2760.97 999.558,2765.6 1002.27,2770.23 1004.67,2774.86 1006.82,2779.49 1008.75,2784.12 1010.49,2788.74 1012.07,2793.37 1013.53,2798 1014.88,2802.63 1016.16,2807.26 1017.41,2811.89 1018.65,2816.52 1019.92,2821.15 1065.29,2821.15 "/>
<path clip-path="url(#clip854)" d="M1042.61 2773 L988.943 2773 L1096.27 2773 L1042.61 2773 L1042.61 2548.32 L1042.61 2773  Z" fill="#e26f46" fill-rule="evenodd" fill-opacity="0.8"/>
<polyline clip-path="url(#clip854)" style="stroke:#000000; stroke-linecap:round; stroke-linejoin:round; stroke-width:8; stroke-opacity:1; fill:none" points="1042.61,2773 988.943,2773 1096.27,2773 1042.61,2773 1042.61,2548.32 1042.61,2773 "/>
<path clip-path="url(#clip854)" d="M1149.94 2548.32 L1149.94 2469.33 L935.279 2469.33 L935.279 2548.32 L1149.94 2548.32 L1149.94 2469.33 L1149.94 2548.32  Z" fill="#e26f46" fill-rule="evenodd" fill-opacity="0.8"/>
<polyline clip-path="url(#clip854)" style="stroke:#000000; stroke-linecap:round; stroke-linejoin:round; stroke-width:8; stroke-opacity:1; fill:none" points="1149.94,2548.32 1149.94,2469.33 935.279,2469.33 935.279,2548.32 1149.94,2548.32 1149.94,2469.33 1149.94,2548.32 "/>
<path clip-path="url(#clip854)" d="M1149.94 2394.84 L935.279 2394.84 L935.279 2469.33 L1149.94 2469.33 L1149.94 2394.84 L1042.61 2394.84 L1149.94 2394.84  Z" fill="#e26f46" fill-rule="evenodd" fill-opacity="0.8"/>
<polyline clip-path="url(#clip854)" style="stroke:#000000; stroke-linecap:round; stroke-linejoin:round; stroke-width:8; stroke-opacity:1; fill:none" points="1149.94,2394.84 935.279,2394.84 935.279,2469.33 1149.94,2469.33 1149.94,2394.84 1042.61,2394.84 1149.94,2394.84 "/>
<path clip-path="url(#clip854)" d="M1042.61 2173.28 L988.943 2173.28 L1096.27 2173.28 L1042.61 2173.28 L1042.61 2394.84 L1042.61 2173.28  Z" fill="#e26f46" fill-rule="evenodd" fill-opacity="0.8"/>
<polyline clip-path="url(#clip854)" style="stroke:#000000; stroke-linecap:round; stroke-linejoin:round; stroke-width:8; stroke-opacity:1; fill:none" points="1042.61,2173.28 988.943,2173.28 1096.27,2173.28 1042.61,2173.28 1042.61,2394.84 1042.61,2173.28 "/>
<circle clip-path="url(#clip854)" cx="1042.61" cy="2825.6" r="14.4" fill="#e26f46" fill-rule="evenodd" fill-opacity="1" stroke="#000000" stroke-opacity="1" stroke-width="4"/>
<polyline clip-path="url(#clip854)" style="stroke:#e26f46; stroke-linecap:round; stroke-linejoin:round; stroke-width:0; stroke-opacity:1; fill:none" points="1042.61,2773 988.943,2773 1096.27,2773 1042.61,2773 1042.61,2548.32 "/>
<polyline clip-path="url(#clip854)" style="stroke:#e26f46; stroke-linecap:round; stroke-linejoin:round; stroke-width:0; stroke-opacity:1; fill:none" points="1149.94,2548.32 1149.94,2469.33 935.279,2469.33 935.279,2548.32 1149.94,2548.32 1149.94,2469.33 "/>
<polyline clip-path="url(#clip854)" style="stroke:#e26f46; stroke-linecap:round; stroke-linejoin:round; stroke-width:0; stroke-opacity:1; fill:none" points="1149.94,2394.84 935.279,2394.84 935.279,2469.33 1149.94,2469.33 1149.94,2394.84 1042.61,2394.84 "/>
<polyline clip-path="url(#clip854)" style="stroke:#e26f46; stroke-linecap:round; stroke-linejoin:round; stroke-width:0; stroke-opacity:1; fill:none" points="1042.61,2173.28 988.943,2173.28 1096.27,2173.28 1042.61,2173.28 1042.61,2394.84 "/>
<path clip-path="url(#clip850)" d="M132.459 3845.17 L1952.76 3845.17 L1952.76 3153.71 L132.459 3153.71  Z" fill="#ffffff" fill-rule="evenodd" fill-opacity="1"/>
<defs>
  <clipPath id="clip855">
    <rect x="132" y="3153" width="1821" height="692"/>
  </clipPath>
</defs>
<polyline clip-path="url(#clip855)" style="stroke:#000000; stroke-linecap:round; stroke-linejoin:round; stroke-width:2; stroke-opacity:0.1; fill:none" points="1042.61,3845.17 1042.61,3153.71 "/>
<polyline clip-path="url(#clip855)" style="stroke:#000000; stroke-linecap:round; stroke-linejoin:round; stroke-width:2; stroke-opacity:0.1; fill:none" points="132.459,3825.6 1952.76,3825.6 "/>
<polyline clip-path="url(#clip855)" style="stroke:#000000; stroke-linecap:round; stroke-linejoin:round; stroke-width:2; stroke-opacity:0.1; fill:none" points="132.459,3662.52 1952.76,3662.52 "/>
<polyline clip-path="url(#clip855)" style="stroke:#000000; stroke-linecap:round; stroke-linejoin:round; stroke-width:2; stroke-opacity:0.1; fill:none" points="132.459,3499.44 1952.76,3499.44 "/>
<polyline clip-path="url(#clip855)" style="stroke:#000000; stroke-linecap:round; stroke-linejoin:round; stroke-width:2; stroke-opacity:0.1; fill:none" points="132.459,3336.36 1952.76,3336.36 "/>
<polyline clip-path="url(#clip855)" style="stroke:#000000; stroke-linecap:round; stroke-linejoin:round; stroke-width:2; stroke-opacity:0.1; fill:none" points="132.459,3173.28 1952.76,3173.28 "/>
<polyline clip-path="url(#clip850)" style="stroke:#000000; stroke-linecap:round; stroke-linejoin:round; stroke-width:4; stroke-opacity:1; fill:none" points="132.459,3845.17 1952.76,3845.17 "/>
<polyline clip-path="url(#clip850)" style="stroke:#000000; stroke-linecap:round; stroke-linejoin:round; stroke-width:4; stroke-opacity:1; fill:none" points="1042.61,3845.17 1042.61,3826.27 "/>
<path clip-path="url(#clip850)" d="M983.673 3888.47 L983.673 3893.4 Q981.312 3891.2 978.627 3890.11 Q975.965 3889.03 972.955 3889.03 Q967.029 3889.03 963.881 3892.66 Q960.733 3896.27 960.733 3903.12 Q960.733 3909.95 963.881 3913.59 Q967.029 3917.2 972.955 3917.2 Q975.965 3917.2 978.627 3916.11 Q981.312 3915.02 983.673 3912.82 L983.673 3917.71 Q981.219 3919.37 978.465 3920.21 Q975.733 3921.04 972.677 3921.04 Q964.83 3921.04 960.316 3916.25 Q955.803 3911.43 955.803 3903.12 Q955.803 3894.79 960.316 3890 Q964.83 3885.18 972.677 3885.18 Q975.779 3885.18 978.511 3886.02 Q981.265 3886.83 983.673 3888.47 Z" fill="#000000" fill-rule="nonzero" fill-opacity="1" /><path clip-path="url(#clip850)" d="M1012.26 3904.72 L1012.26 3920.37 L1008 3920.37 L1008 3904.86 Q1008 3901.18 1006.57 3899.35 Q1005.13 3897.52 1002.26 3897.52 Q998.812 3897.52 996.821 3899.72 Q994.83 3901.92 994.83 3905.72 L994.83 3920.37 L990.548 3920.37 L990.548 3884.35 L994.83 3884.35 L994.83 3898.47 Q996.358 3896.13 998.418 3894.97 Q1000.5 3893.82 1003.21 3893.82 Q1007.68 3893.82 1009.97 3896.59 Q1012.26 3899.35 1012.26 3904.72 Z" fill="#000000" fill-rule="nonzero" fill-opacity="1" /><path clip-path="url(#clip850)" d="M1032.54 3907.34 Q1027.38 3907.34 1025.39 3908.52 Q1023.39 3909.7 1023.39 3912.54 Q1023.39 3914.81 1024.88 3916.15 Q1026.38 3917.47 1028.95 3917.47 Q1032.49 3917.47 1034.62 3914.97 Q1036.77 3912.45 1036.77 3908.28 L1036.77 3907.34 L1032.54 3907.34 M1041.03 3905.58 L1041.03 3920.37 L1036.77 3920.37 L1036.77 3916.43 Q1035.32 3918.79 1033.14 3919.93 Q1030.96 3921.04 1027.82 3921.04 Q1023.83 3921.04 1021.47 3918.82 Q1019.14 3916.57 1019.14 3912.82 Q1019.14 3908.45 1022.05 3906.22 Q1024.99 3904 1030.8 3904 L1036.77 3904 L1036.77 3903.59 Q1036.77 3900.65 1034.83 3899.05 Q1032.91 3897.43 1029.41 3897.43 Q1027.19 3897.43 1025.08 3897.96 Q1022.98 3898.49 1021.03 3899.56 L1021.03 3895.62 Q1023.37 3894.72 1025.57 3894.28 Q1027.77 3893.82 1029.85 3893.82 Q1035.48 3893.82 1038.26 3896.73 Q1041.03 3899.65 1041.03 3905.58 Z" fill="#000000" fill-rule="nonzero" fill-opacity="1" /><path clip-path="url(#clip850)" d="M1049.81 3894.44 L1054.07 3894.44 L1054.07 3920.37 L1049.81 3920.37 L1049.81 3894.44 M1049.81 3884.35 L1054.07 3884.35 L1054.07 3889.74 L1049.81 3889.74 L1049.81 3884.35 Z" fill="#000000" fill-rule="nonzero" fill-opacity="1" /><path clip-path="url(#clip850)" d="M1084.53 3904.72 L1084.53 3920.37 L1080.27 3920.37 L1080.27 3904.86 Q1080.27 3901.18 1078.83 3899.35 Q1077.4 3897.52 1074.53 3897.52 Q1071.08 3897.52 1069.09 3899.72 Q1067.1 3901.92 1067.1 3905.72 L1067.1 3920.37 L1062.82 3920.37 L1062.82 3894.44 L1067.1 3894.44 L1067.1 3898.47 Q1068.63 3896.13 1070.69 3894.97 Q1072.77 3893.82 1075.48 3893.82 Q1079.95 3893.82 1082.24 3896.59 Q1084.53 3899.35 1084.53 3904.72 Z" fill="#000000" fill-rule="nonzero" fill-opacity="1" /><path clip-path="url(#clip850)" d="M1109.51 3916.43 L1117.14 3916.43 L1117.14 3890.07 L1108.83 3891.73 L1108.83 3887.47 L1117.1 3885.81 L1121.77 3885.81 L1121.77 3916.43 L1129.41 3916.43 L1129.41 3920.37 L1109.51 3920.37 L1109.51 3916.43 Z" fill="#000000" fill-rule="nonzero" fill-opacity="1" /><polyline clip-path="url(#clip850)" style="stroke:#000000; stroke-linecap:round; stroke-linejoin:round; stroke-width:4; stroke-opacity:1; fill:none" points="132.459,3845.17 132.459,3153.71 "/>
<polyline clip-path="url(#clip850)" style="stroke:#000000; stroke-linecap:round; stroke-linejoin:round; stroke-width:4; stroke-opacity:1; fill:none" points="132.459,3825.6 151.357,3825.6 "/>
<polyline clip-path="url(#clip850)" style="stroke:#000000; stroke-linecap:round; stroke-linejoin:round; stroke-width:4; stroke-opacity:1; fill:none" points="132.459,3662.52 151.357,3662.52 "/>
<polyline clip-path="url(#clip850)" style="stroke:#000000; stroke-linecap:round; stroke-linejoin:round; stroke-width:4; stroke-opacity:1; fill:none" points="132.459,3499.44 151.357,3499.44 "/>
<polyline clip-path="url(#clip850)" style="stroke:#000000; stroke-linecap:round; stroke-linejoin:round; stroke-width:4; stroke-opacity:1; fill:none" points="132.459,3336.36 151.357,3336.36 "/>
<polyline clip-path="url(#clip850)" style="stroke:#000000; stroke-linecap:round; stroke-linejoin:round; stroke-width:4; stroke-opacity:1; fill:none" points="132.459,3173.28 151.357,3173.28 "/>
<path clip-path="url(#clip850)" d="M-24.0678 3838.94 L-16.429 3838.94 L-16.429 3812.58 L-24.7391 3814.24 L-24.7391 3809.99 L-16.4753 3808.32 L-11.7994 3808.32 L-11.7994 3838.94 L-4.16051 3838.94 L-4.16051 3842.88 L-24.0678 3842.88 L-24.0678 3838.94 Z" fill="#000000" fill-rule="nonzero" fill-opacity="1" /><path clip-path="url(#clip850)" d="M5.28389 3837 L10.1681 3837 L10.1681 3842.88 L5.28389 3842.88 L5.28389 3837 Z" fill="#000000" fill-rule="nonzero" fill-opacity="1" /><path clip-path="url(#clip850)" d="M30.3532 3811.4 Q26.7421 3811.4 24.9134 3814.96 Q23.1079 3818.5 23.1079 3825.63 Q23.1079 3832.74 24.9134 3836.3 Q26.7421 3839.85 30.3532 3839.85 Q33.9874 3839.85 35.793 3836.3 Q37.6217 3832.74 37.6217 3825.63 Q37.6217 3818.5 35.793 3814.96 Q33.9874 3811.4 30.3532 3811.4 M30.3532 3807.69 Q36.1634 3807.69 39.2189 3812.3 Q42.2976 3816.88 42.2976 3825.63 Q42.2976 3834.36 39.2189 3838.97 Q36.1634 3843.55 30.3532 3843.55 Q24.543 3843.55 21.4644 3838.97 Q18.4088 3834.36 18.4088 3825.63 Q18.4088 3816.88 21.4644 3812.3 Q24.543 3807.69 30.3532 3807.69 Z" fill="#000000" fill-rule="nonzero" fill-opacity="1" /><path clip-path="url(#clip850)" d="M60.5151 3811.4 Q56.904 3811.4 55.0753 3814.96 Q53.2697 3818.5 53.2697 3825.63 Q53.2697 3832.74 55.0753 3836.3 Q56.904 3839.85 60.5151 3839.85 Q64.1493 3839.85 65.9549 3836.3 Q67.7836 3832.74 67.7836 3825.63 Q67.7836 3818.5 65.9549 3814.96 Q64.1493 3811.4 60.5151 3811.4 M60.5151 3807.69 Q66.3252 3807.69 69.3808 3812.3 Q72.4595 3816.88 72.4595 3825.63 Q72.4595 3834.36 69.3808 3838.97 Q66.3252 3843.55 60.5151 3843.55 Q54.7049 3843.55 51.6262 3838.97 Q48.5707 3834.36 48.5707 3825.63 Q48.5707 3816.88 51.6262 3812.3 Q54.7049 3807.69 60.5151 3807.69 Z" fill="#000000" fill-rule="nonzero" fill-opacity="1" /><path clip-path="url(#clip850)" d="M-23.0724 3675.86 L-15.4336 3675.86 L-15.4336 3649.5 L-23.7437 3651.17 L-23.7437 3646.91 L-15.4799 3645.24 L-10.804 3645.24 L-10.804 3675.86 L-3.16514 3675.86 L-3.16514 3679.8 L-23.0724 3679.8 L-23.0724 3675.86 Z" fill="#000000" fill-rule="nonzero" fill-opacity="1" /><path clip-path="url(#clip850)" d="M6.27925 3673.92 L11.1635 3673.92 L11.1635 3679.8 L6.27925 3679.8 L6.27925 3673.92 Z" fill="#000000" fill-rule="nonzero" fill-opacity="1" /><path clip-path="url(#clip850)" d="M25.3764 3675.86 L41.6957 3675.86 L41.6957 3679.8 L19.7514 3679.8 L19.7514 3675.86 Q22.4134 3673.11 26.9967 3668.48 Q31.6032 3663.83 32.7837 3662.48 Q35.0291 3659.96 35.9087 3658.23 Q36.8115 3656.47 36.8115 3654.78 Q36.8115 3652.02 34.8671 3650.29 Q32.9458 3648.55 29.8439 3648.55 Q27.6449 3648.55 25.1912 3649.31 Q22.7606 3650.08 19.9829 3651.63 L19.9829 3646.91 Q22.8069 3645.77 25.2606 3645.19 Q27.7143 3644.61 29.7513 3644.61 Q35.1217 3644.61 38.3161 3647.3 Q41.5105 3649.98 41.5105 3654.48 Q41.5105 3656.6 40.7004 3658.53 Q39.9133 3660.42 37.8069 3663.02 Q37.2282 3663.69 34.1263 3666.91 Q31.0245 3670.1 25.3764 3675.86 Z" fill="#000000" fill-rule="nonzero" fill-opacity="1" /><path clip-path="url(#clip850)" d="M51.5568 3645.24 L69.9132 3645.24 L69.9132 3649.17 L55.8392 3649.17 L55.8392 3657.65 Q56.8577 3657.3 57.8762 3657.14 Q58.8947 3656.95 59.9132 3656.95 Q65.7002 3656.95 69.0798 3660.12 Q72.4595 3663.29 72.4595 3668.71 Q72.4595 3674.29 68.9872 3677.39 Q65.515 3680.47 59.1956 3680.47 Q57.0197 3680.47 54.7512 3680.1 Q52.5059 3679.73 50.0985 3678.99 L50.0985 3674.29 Q52.1818 3675.42 54.404 3675.98 Q56.6262 3676.54 59.103 3676.54 Q63.1077 3676.54 65.4456 3674.43 Q67.7836 3672.32 67.7836 3668.71 Q67.7836 3665.1 65.4456 3662.99 Q63.1077 3660.89 59.103 3660.89 Q57.2281 3660.89 55.3531 3661.3 Q53.5012 3661.72 51.5568 3662.6 L51.5568 3645.24 Z" fill="#000000" fill-rule="nonzero" fill-opacity="1" /><path clip-path="url(#clip850)" d="M-24.0678 3512.78 L-16.429 3512.78 L-16.429 3486.42 L-24.7391 3488.09 L-24.7391 3483.83 L-16.4753 3482.16 L-11.7994 3482.16 L-11.7994 3512.78 L-4.16051 3512.78 L-4.16051 3516.72 L-24.0678 3516.72 L-24.0678 3512.78 Z" fill="#000000" fill-rule="nonzero" fill-opacity="1" /><path clip-path="url(#clip850)" d="M5.28389 3510.84 L10.1681 3510.84 L10.1681 3516.72 L5.28389 3516.72 L5.28389 3510.84 Z" fill="#000000" fill-rule="nonzero" fill-opacity="1" /><path clip-path="url(#clip850)" d="M20.3995 3482.16 L38.7559 3482.16 L38.7559 3486.1 L24.6819 3486.1 L24.6819 3494.57 Q25.7004 3494.22 26.719 3494.06 Q27.7375 3493.87 28.756 3493.87 Q34.543 3493.87 37.9226 3497.04 Q41.3022 3500.22 41.3022 3505.63 Q41.3022 3511.21 37.83 3514.31 Q34.3578 3517.39 28.0384 3517.39 Q25.8625 3517.39 23.594 3517.02 Q21.3486 3516.65 18.9412 3515.91 L18.9412 3511.21 Q21.0245 3512.35 23.2468 3512.9 Q25.469 3513.46 27.9458 3513.46 Q31.9504 3513.46 34.2884 3511.35 Q36.6263 3509.24 36.6263 3505.63 Q36.6263 3502.02 34.2884 3499.91 Q31.9504 3497.81 27.9458 3497.81 Q26.0708 3497.81 24.1958 3498.22 Q22.344 3498.64 20.3995 3499.52 L20.3995 3482.16 Z" fill="#000000" fill-rule="nonzero" fill-opacity="1" /><path clip-path="url(#clip850)" d="M60.5151 3485.24 Q56.904 3485.24 55.0753 3488.8 Q53.2697 3492.35 53.2697 3499.47 Q53.2697 3506.58 55.0753 3510.15 Q56.904 3513.69 60.5151 3513.69 Q64.1493 3513.69 65.9549 3510.15 Q67.7836 3506.58 67.7836 3499.47 Q67.7836 3492.35 65.9549 3488.8 Q64.1493 3485.24 60.5151 3485.24 M60.5151 3481.54 Q66.3252 3481.54 69.3808 3486.14 Q72.4595 3490.72 72.4595 3499.47 Q72.4595 3508.2 69.3808 3512.81 Q66.3252 3517.39 60.5151 3517.39 Q54.7049 3517.39 51.6262 3512.81 Q48.5707 3508.2 48.5707 3499.47 Q48.5707 3490.72 51.6262 3486.14 Q54.7049 3481.54 60.5151 3481.54 Z" fill="#000000" fill-rule="nonzero" fill-opacity="1" /><path clip-path="url(#clip850)" d="M-23.0724 3349.71 L-15.4336 3349.71 L-15.4336 3323.34 L-23.7437 3325.01 L-23.7437 3320.75 L-15.4799 3319.08 L-10.804 3319.08 L-10.804 3349.71 L-3.16514 3349.71 L-3.16514 3353.64 L-23.0724 3353.64 L-23.0724 3349.71 Z" fill="#000000" fill-rule="nonzero" fill-opacity="1" /><path clip-path="url(#clip850)" d="M6.27925 3347.76 L11.1635 3347.76 L11.1635 3353.64 L6.27925 3353.64 L6.27925 3347.76 Z" fill="#000000" fill-rule="nonzero" fill-opacity="1" /><path clip-path="url(#clip850)" d="M20.1681 3319.08 L42.3902 3319.08 L42.3902 3321.07 L29.8439 3353.64 L24.9597 3353.64 L36.7652 3323.02 L20.1681 3323.02 L20.1681 3319.08 Z" fill="#000000" fill-rule="nonzero" fill-opacity="1" /><path clip-path="url(#clip850)" d="M51.5568 3319.08 L69.9132 3319.08 L69.9132 3323.02 L55.8392 3323.02 L55.8392 3331.49 Q56.8577 3331.14 57.8762 3330.98 Q58.8947 3330.79 59.9132 3330.79 Q65.7002 3330.79 69.0798 3333.96 Q72.4595 3337.14 72.4595 3342.55 Q72.4595 3348.13 68.9872 3351.23 Q65.515 3354.31 59.1956 3354.31 Q57.0197 3354.31 54.7512 3353.94 Q52.5059 3353.57 50.0985 3352.83 L50.0985 3348.13 Q52.1818 3349.27 54.404 3349.82 Q56.6262 3350.38 59.103 3350.38 Q63.1077 3350.38 65.4456 3348.27 Q67.7836 3346.16 67.7836 3342.55 Q67.7836 3338.94 65.4456 3336.84 Q63.1077 3334.73 59.103 3334.73 Q57.2281 3334.73 55.3531 3335.15 Q53.5012 3335.56 51.5568 3336.44 L51.5568 3319.08 Z" fill="#000000" fill-rule="nonzero" fill-opacity="1" /><path clip-path="url(#clip850)" d="M-20.8502 3186.63 L-4.53087 3186.63 L-4.53087 3190.56 L-26.4752 3190.56 L-26.4752 3186.63 Q-23.8132 3183.87 -19.2299 3179.24 Q-14.6234 3174.59 -13.4429 3173.25 Q-11.1975 3170.72 -10.3179 3168.99 Q-9.41511 3167.23 -9.41511 3165.54 Q-9.41511 3162.78 -11.3595 3161.05 Q-13.2808 3159.31 -16.3827 3159.31 Q-18.5817 3159.31 -21.0354 3160.08 Q-23.466 3160.84 -26.2437 3162.39 L-26.2437 3157.67 Q-23.4197 3156.53 -20.966 3155.96 Q-18.5123 3155.38 -16.4753 3155.38 Q-11.1049 3155.38 -7.91049 3158.06 Q-4.71606 3160.75 -4.71606 3165.24 Q-4.71606 3167.37 -5.52624 3169.29 Q-6.31327 3171.19 -8.41974 3173.78 Q-8.99844 3174.45 -12.1003 3177.67 Q-15.2021 3180.86 -20.8502 3186.63 Z" fill="#000000" fill-rule="nonzero" fill-opacity="1" /><path clip-path="url(#clip850)" d="M5.28389 3184.68 L10.1681 3184.68 L10.1681 3190.56 L5.28389 3190.56 L5.28389 3184.68 Z" fill="#000000" fill-rule="nonzero" fill-opacity="1" /><path clip-path="url(#clip850)" d="M30.3532 3159.08 Q26.7421 3159.08 24.9134 3162.65 Q23.1079 3166.19 23.1079 3173.32 Q23.1079 3180.42 24.9134 3183.99 Q26.7421 3187.53 30.3532 3187.53 Q33.9874 3187.53 35.793 3183.99 Q37.6217 3180.42 37.6217 3173.32 Q37.6217 3166.19 35.793 3162.65 Q33.9874 3159.08 30.3532 3159.08 M30.3532 3155.38 Q36.1634 3155.38 39.2189 3159.98 Q42.2976 3164.57 42.2976 3173.32 Q42.2976 3182.04 39.2189 3186.65 Q36.1634 3191.23 30.3532 3191.23 Q24.543 3191.23 21.4644 3186.65 Q18.4088 3182.04 18.4088 3173.32 Q18.4088 3164.57 21.4644 3159.98 Q24.543 3155.38 30.3532 3155.38 Z" fill="#000000" fill-rule="nonzero" fill-opacity="1" /><path clip-path="url(#clip850)" d="M60.5151 3159.08 Q56.904 3159.08 55.0753 3162.65 Q53.2697 3166.19 53.2697 3173.32 Q53.2697 3180.42 55.0753 3183.99 Q56.904 3187.53 60.5151 3187.53 Q64.1493 3187.53 65.9549 3183.99 Q67.7836 3180.42 67.7836 3173.32 Q67.7836 3166.19 65.9549 3162.65 Q64.1493 3159.08 60.5151 3159.08 M60.5151 3155.38 Q66.3252 3155.38 69.3808 3159.98 Q72.4595 3164.57 72.4595 3173.32 Q72.4595 3182.04 69.3808 3186.65 Q66.3252 3191.23 60.5151 3191.23 Q54.7049 3191.23 51.6262 3186.65 Q48.5707 3182.04 48.5707 3173.32 Q48.5707 3164.57 51.6262 3159.98 Q54.7049 3155.38 60.5151 3155.38 Z" fill="#000000" fill-rule="nonzero" fill-opacity="1" /><path clip-path="url(#clip850)" d="M1025.37 3018.82 L1025.37 3065.85 L1035.26 3065.85 Q1047.77 3065.85 1053.57 3060.18 Q1059.4 3054.51 1059.4 3042.28 Q1059.4 3030.12 1053.57 3024.49 Q1047.77 3018.82 1035.26 3018.82 L1025.37 3018.82 M1017.19 3012.1 L1034 3012.1 Q1051.58 3012.1 1059.8 3019.43 Q1068.03 3026.72 1068.03 3042.28 Q1068.03 3057.91 1059.76 3065.24 Q1051.5 3072.58 1034 3072.58 L1017.19 3072.58 L1017.19 3012.1 Z" fill="#000000" fill-rule="nonzero" fill-opacity="1" /><path clip-path="url(#clip855)" d="M1901.24 3819.95 L1895.56 3812.58 L1885.48 3805.21 L1871.18 3797.84 L1852.85 3790.48 L1830.8 3783.11 L1805.34 3775.74 L1776.84 3768.37 L1745.71 3761 L1712.39 3753.64 L1677.3 3746.27 L1640.92 3738.9 L1603.67 3731.53 L1565.99 3724.16 L1528.29 3716.8 L1490.95 3709.43 L1454.32 3702.06 L1418.71 3694.69 L1384.38 3687.32 L1351.56 3679.96 L1320.44 3672.59 L1291.14 3665.22 L1263.78 3657.85 L1238.4 3650.48 L1215.03 3643.12 L1193.65 3635.75 L1174.25 3628.38 L1156.74 3621.01 L1141.05 3613.64 L1127.09 3606.28 L1114.74 3598.91 L1103.9 3591.54 L1094.45 3584.17 L1086.26 3576.8 L1079.23 3569.44 L1073.24 3562.07 L1068.19 3554.7 L1063.97 3547.33 L1060.51 3539.96 L1057.73 3532.6 L1055.56 3525.23 L1053.94 3517.86 L1052.84 3510.49 L1052.22 3503.12 L1052.06 3495.76 L1052.37 3488.39 L1053.14 3481.02 L1054.4 3473.65 L1056.17 3466.28 L1058.49 3458.92 L1061.42 3451.55 L1065.03 3444.18 L1069.37 3436.81 L1074.55 3429.44 L1080.63 3422.08 L1087.73 3414.71 L1095.93 3407.34 L1105.34 3399.97 L1116.06 3392.6 L1128.19 3385.24 L1141.82 3377.87 L1157.03 3370.5 L1173.9 3363.13 L1192.47 3355.76 L1212.78 3348.4 L1234.84 3341.03 L1258.63 3333.66 L1284.09 3326.29 L1311.14 3318.92 L1339.66 3311.56 L1369.5 3304.19 L1400.45 3296.82 L1432.29 3289.45 L1464.75 3282.08 L1497.51 3274.72 L1530.26 3267.35 L1562.63 3259.98 L1594.26 3252.61 L1624.75 3245.24 L1653.72 3237.88 L1680.77 3230.51 L1705.54 3223.14 L1727.67 3215.77 L1746.84 3208.4 L1762.76 3201.04 L1775.2 3193.67 L1783.95 3186.3 L1788.89 3178.93 L296.321 3178.93 L301.261 3186.3 L310.016 3193.67 L322.451 3201.04 L338.374 3208.4 L357.545 3215.77 L379.676 3223.14 L404.445 3230.51 L431.499 3237.88 L460.465 3245.24 L490.955 3252.61 L522.581 3259.98 L554.955 3267.35 L587.703 3274.72 L620.47 3282.08 L652.924 3289.45 L684.762 3296.82 L715.716 3304.19 L745.553 3311.56 L774.076 3318.92 L801.129 3326.29 L826.59 3333.66 L850.375 3341.03 L872.433 3348.4 L892.744 3355.76 L911.317 3363.13 L928.184 3370.5 L943.397 3377.87 L957.027 3385.24 L969.157 3392.6 L979.878 3399.97 L989.288 3407.34 L997.489 3414.71 L1004.58 3422.08 L1010.67 3429.44 L1015.84 3436.81 L1020.19 3444.18 L1023.79 3451.55 L1026.72 3458.92 L1029.05 3466.28 L1030.82 3473.65 L1032.08 3481.02 L1032.85 3488.39 L1033.15 3495.76 L1033 3503.12 L1032.38 3510.49 L1031.28 3517.86 L1029.66 3525.23 L1027.49 3532.6 L1024.7 3539.96 L1021.24 3547.33 L1017.03 3554.7 L1011.98 3562.07 L1005.98 3569.44 L998.953 3576.8 L990.768 3584.17 L981.314 3591.54 L970.473 3598.91 L958.128 3606.28 L944.165 3613.64 L928.478 3621.01 L910.97 3628.38 L891.561 3635.75 L870.19 3643.12 L846.819 3650.48 L821.439 3657.85 L794.073 3665.22 L764.779 3672.59 L733.653 3679.96 L700.836 3687.32 L666.507 3694.69 L630.893 3702.06 L594.262 3709.43 L556.923 3716.8 L519.223 3724.16 L481.545 3731.53 L444.297 3738.9 L407.911 3746.27 L372.83 3753.64 L339.505 3761 L308.378 3768.37 L279.88 3775.74 L254.417 3783.11 L232.361 3790.48 L214.04 3797.84 L199.733 3805.21 L189.66 3812.58 L183.977 3819.95 L1901.24 3819.95  Z" fill="#009af9" fill-rule="evenodd" fill-opacity="1"/>
<polyline clip-path="url(#clip855)" style="stroke:#000000; stroke-linecap:round; stroke-linejoin:round; stroke-width:4; stroke-opacity:1; fill:none" points="1901.24,3819.95 1895.56,3812.58 1885.48,3805.21 1871.18,3797.84 1852.85,3790.48 1830.8,3783.11 1805.34,3775.74 1776.84,3768.37 1745.71,3761 1712.39,3753.64 1677.3,3746.27 1640.92,3738.9 1603.67,3731.53 1565.99,3724.16 1528.29,3716.8 1490.95,3709.43 1454.32,3702.06 1418.71,3694.69 1384.38,3687.32 1351.56,3679.96 1320.44,3672.59 1291.14,3665.22 1263.78,3657.85 1238.4,3650.48 1215.03,3643.12 1193.65,3635.75 1174.25,3628.38 1156.74,3621.01 1141.05,3613.64 1127.09,3606.28 1114.74,3598.91 1103.9,3591.54 1094.45,3584.17 1086.26,3576.8 1079.23,3569.44 1073.24,3562.07 1068.19,3554.7 1063.97,3547.33 1060.51,3539.96 1057.73,3532.6 1055.56,3525.23 1053.94,3517.86 1052.84,3510.49 1052.22,3503.12 1052.06,3495.76 1052.37,3488.39 1053.14,3481.02 1054.4,3473.65 1056.17,3466.28 1058.49,3458.92 1061.42,3451.55 1065.03,3444.18 1069.37,3436.81 1074.55,3429.44 1080.63,3422.08 1087.73,3414.71 1095.93,3407.34 1105.34,3399.97 1116.06,3392.6 1128.19,3385.24 1141.82,3377.87 1157.03,3370.5 1173.9,3363.13 1192.47,3355.76 1212.78,3348.4 1234.84,3341.03 1258.63,3333.66 1284.09,3326.29 1311.14,3318.92 1339.66,3311.56 1369.5,3304.19 1400.45,3296.82 1432.29,3289.45 1464.75,3282.08 1497.51,3274.72 1530.26,3267.35 1562.63,3259.98 1594.26,3252.61 1624.75,3245.24 1653.72,3237.88 1680.77,3230.51 1705.54,3223.14 1727.67,3215.77 1746.84,3208.4 1762.76,3201.04 1775.2,3193.67 1783.95,3186.3 1788.89,3178.93 296.321,3178.93 301.261,3186.3 310.016,3193.67 322.451,3201.04 338.374,3208.4 357.545,3215.77 379.676,3223.14 404.445,3230.51 431.499,3237.88 460.465,3245.24 490.955,3252.61 522.581,3259.98 554.955,3267.35 587.703,3274.72 620.47,3282.08 652.924,3289.45 684.762,3296.82 715.716,3304.19 745.553,3311.56 774.076,3318.92 801.129,3326.29 826.59,3333.66 850.375,3341.03 872.433,3348.4 892.744,3355.76 911.317,3363.13 928.184,3370.5 943.397,3377.87 957.027,3385.24 969.157,3392.6 979.878,3399.97 989.288,3407.34 997.489,3414.71 1004.58,3422.08 1010.67,3429.44 1015.84,3436.81 1020.19,3444.18 1023.79,3451.55 1026.72,3458.92 1029.05,3466.28 1030.82,3473.65 1032.08,3481.02 1032.85,3488.39 1033.15,3495.76 1033,3503.12 1032.38,3510.49 1031.28,3517.86 1029.66,3525.23 1027.49,3532.6 1024.7,3539.96 1021.24,3547.33 1017.03,3554.7 1011.98,3562.07 1005.98,3569.44 998.953,3576.8 990.768,3584.17 981.314,3591.54 970.473,3598.91 958.128,3606.28 944.165,3613.64 928.478,3621.01 910.97,3628.38 891.561,3635.75 870.19,3643.12 846.819,3650.48 821.439,3657.85 794.073,3665.22 764.779,3672.59 733.653,3679.96 700.836,3687.32 666.507,3694.69 630.893,3702.06 594.262,3709.43 556.923,3716.8 519.223,3724.16 481.545,3731.53 444.297,3738.9 407.911,3746.27 372.83,3753.64 339.505,3761 308.378,3768.37 279.88,3775.74 254.417,3783.11 232.361,3790.48 214.04,3797.84 199.733,3805.21 189.66,3812.58 183.977,3819.95 1901.24,3819.95 "/>
<path clip-path="url(#clip855)" d="M1042.61 3825.6 L988.943 3825.6 L1096.27 3825.6 L1042.61 3825.6 L1042.61 3825.6 L1042.61 3825.6  Z" fill="#e26f46" fill-rule="evenodd" fill-opacity="0.8"/>
<polyline clip-path="url(#clip855)" style="stroke:#000000; stroke-linecap:round; stroke-linejoin:round; stroke-width:8; stroke-opacity:1; fill:none" points="1042.61,3825.6 988.943,3825.6 1096.27,3825.6 1042.61,3825.6 "/>
<path clip-path="url(#clip855)" d="M1149.94 3825.6 L1149.94 3825.6 L935.279 3825.6 L935.279 3825.6 L1149.94 3825.6 L1149.94 3825.6 L1149.94 3825.6  Z" fill="#e26f46" fill-rule="evenodd" fill-opacity="0.8"/>
<polyline clip-path="url(#clip855)" style="stroke:#000000; stroke-linecap:round; stroke-linejoin:round; stroke-width:8; stroke-opacity:1; fill:none" points="1149.94,3825.6 1149.94,3825.6 935.279,3825.6 1149.94,3825.6 "/>
<path clip-path="url(#clip855)" d="M1149.94 3173.28 L935.279 3173.28 L935.279 3825.6 L1149.94 3825.6 L1149.94 3173.28 L1042.61 3173.28 L1149.94 3173.28  Z" fill="#e26f46" fill-rule="evenodd" fill-opacity="0.8"/>
<polyline clip-path="url(#clip855)" style="stroke:#000000; stroke-linecap:round; stroke-linejoin:round; stroke-width:8; stroke-opacity:1; fill:none" points="1149.94,3173.28 935.279,3173.28 935.279,3825.6 1149.94,3825.6 1149.94,3173.28 1042.61,3173.28 1149.94,3173.28 "/>
<path clip-path="url(#clip855)" d="M1042.61 3173.28 L988.943 3173.28 L1096.27 3173.28 L1042.61 3173.28 L1042.61 3173.28 L1042.61 3173.28  Z" fill="#e26f46" fill-rule="evenodd" fill-opacity="0.8"/>
<polyline clip-path="url(#clip855)" style="stroke:#000000; stroke-linecap:round; stroke-linejoin:round; stroke-width:8; stroke-opacity:1; fill:none" points="1042.61,3173.28 988.943,3173.28 1096.27,3173.28 1042.61,3173.28 "/>
<polyline clip-path="url(#clip855)" style="stroke:#e26f46; stroke-linecap:round; stroke-linejoin:round; stroke-width:0; stroke-opacity:1; fill:none" points="1042.61,3825.6 988.943,3825.6 1096.27,3825.6 1042.61,3825.6 "/>
<polyline clip-path="url(#clip855)" style="stroke:#e26f46; stroke-linecap:round; stroke-linejoin:round; stroke-width:0; stroke-opacity:1; fill:none" points="1149.94,3825.6 1149.94,3825.6 935.279,3825.6 1149.94,3825.6 "/>
<polyline clip-path="url(#clip855)" style="stroke:#e26f46; stroke-linecap:round; stroke-linejoin:round; stroke-width:0; stroke-opacity:1; fill:none" points="1149.94,3173.28 935.279,3173.28 935.279,3825.6 1149.94,3825.6 1149.94,3173.28 1042.61,3173.28 "/>
<polyline clip-path="url(#clip855)" style="stroke:#e26f46; stroke-linecap:round; stroke-linejoin:round; stroke-width:0; stroke-opacity:1; fill:none" points="1042.61,3173.28 988.943,3173.28 1096.27,3173.28 1042.61,3173.28 "/>
</svg>
