<?xml version="1.0" encoding="utf-8"?>
<svg xmlns="http://www.w3.org/2000/svg" xmlns:xlink="http://www.w3.org/1999/xlink" width="600" height="400" viewBox="0 0 2400 1600">
<defs>
  <clipPath id="clip060">
    <rect x="0" y="0" width="2400" height="1600"/>
  </clipPath>
</defs>
<path clip-path="url(#clip060)" d="M0 1600 L2400 1600 L2400 0 L0 0  Z" fill="#ffffff" fill-rule="evenodd" fill-opacity="1"/>
<defs>
  <clipPath id="clip061">
    <rect x="480" y="0" width="1681" height="1600"/>
  </clipPath>
</defs>
<path clip-path="url(#clip060)" d="M212.459 1423.18 L2352.76 1423.18 L2352.76 123.472 L212.459 123.472  Z" fill="#ffffff" fill-rule="evenodd" fill-opacity="1"/>
<defs>
  <clipPath id="clip062">
    <rect x="212" y="123" width="2141" height="1301"/>
  </clipPath>
</defs>
<polyline clip-path="url(#clip062)" style="stroke:#000000; stroke-linecap:round; stroke-linejoin:round; stroke-width:2; stroke-opacity:0.1; fill:none" points="698.117,1423.18 698.117,123.472 "/>
<polyline clip-path="url(#clip062)" style="stroke:#000000; stroke-linecap:round; stroke-linejoin:round; stroke-width:2; stroke-opacity:0.1; fill:none" points="1229.47,1423.18 1229.47,123.472 "/>
<polyline clip-path="url(#clip062)" style="stroke:#000000; stroke-linecap:round; stroke-linejoin:round; stroke-width:2; stroke-opacity:0.1; fill:none" points="1760.83,1423.18 1760.83,123.472 "/>
<polyline clip-path="url(#clip062)" style="stroke:#000000; stroke-linecap:round; stroke-linejoin:round; stroke-width:2; stroke-opacity:0.1; fill:none" points="2292.18,1423.18 2292.18,123.472 "/>
<polyline clip-path="url(#clip062)" style="stroke:#000000; stroke-linecap:round; stroke-linejoin:round; stroke-width:2; stroke-opacity:0.1; fill:none" points="212.459,1262.59 2352.76,1262.59 "/>
<polyline clip-path="url(#clip062)" style="stroke:#000000; stroke-linecap:round; stroke-linejoin:round; stroke-width:2; stroke-opacity:0.1; fill:none" points="212.459,1094.84 2352.76,1094.84 "/>
<polyline clip-path="url(#clip062)" style="stroke:#000000; stroke-linecap:round; stroke-linejoin:round; stroke-width:2; stroke-opacity:0.1; fill:none" points="212.459,927.084 2352.76,927.084 "/>
<polyline clip-path="url(#clip062)" style="stroke:#000000; stroke-linecap:round; stroke-linejoin:round; stroke-width:2; stroke-opacity:0.1; fill:none" points="212.459,759.331 2352.76,759.331 "/>
<polyline clip-path="url(#clip062)" style="stroke:#000000; stroke-linecap:round; stroke-linejoin:round; stroke-width:2; stroke-opacity:0.1; fill:none" points="212.459,591.579 2352.76,591.579 "/>
<polyline clip-path="url(#clip062)" style="stroke:#000000; stroke-linecap:round; stroke-linejoin:round; stroke-width:2; stroke-opacity:0.1; fill:none" points="212.459,423.827 2352.76,423.827 "/>
<polyline clip-path="url(#clip062)" style="stroke:#000000; stroke-linecap:round; stroke-linejoin:round; stroke-width:2; stroke-opacity:0.1; fill:none" points="212.459,256.075 2352.76,256.075 "/>
<polyline clip-path="url(#clip060)" style="stroke:#000000; stroke-linecap:round; stroke-linejoin:round; stroke-width:4; stroke-opacity:1; fill:none" points="212.459,1423.18 2352.76,1423.18 "/>
<polyline clip-path="url(#clip060)" style="stroke:#000000; stroke-linecap:round; stroke-linejoin:round; stroke-width:4; stroke-opacity:1; fill:none" points="698.117,1423.18 698.117,1404.28 "/>
<polyline clip-path="url(#clip060)" style="stroke:#000000; stroke-linecap:round; stroke-linejoin:round; stroke-width:4; stroke-opacity:1; fill:none" points="1229.47,1423.18 1229.47,1404.28 "/>
<polyline clip-path="url(#clip060)" style="stroke:#000000; stroke-linecap:round; stroke-linejoin:round; stroke-width:4; stroke-opacity:1; fill:none" points="1760.83,1423.18 1760.83,1404.28 "/>
<polyline clip-path="url(#clip060)" style="stroke:#000000; stroke-linecap:round; stroke-linejoin:round; stroke-width:4; stroke-opacity:1; fill:none" points="2292.18,1423.18 2292.18,1404.28 "/>
<path clip-path="url(#clip060)" d="M688.395 1451.02 L706.751 1451.02 L706.751 1454.96 L692.677 1454.96 L692.677 1463.43 Q693.696 1463.08 694.714 1462.92 Q695.733 1462.73 696.751 1462.73 Q702.538 1462.73 705.918 1465.9 Q709.298 1469.08 709.298 1474.49 Q709.298 1480.07 705.825 1483.17 Q702.353 1486.25 696.034 1486.25 Q693.858 1486.25 691.589 1485.88 Q689.344 1485.51 686.937 1484.77 L686.937 1480.07 Q689.02 1481.2 691.242 1481.76 Q693.464 1482.32 695.941 1482.32 Q699.946 1482.32 702.284 1480.21 Q704.622 1478.1 704.622 1474.49 Q704.622 1470.88 702.284 1468.77 Q699.946 1466.67 695.941 1466.67 Q694.066 1466.67 692.191 1467.08 Q690.339 1467.5 688.395 1468.38 L688.395 1451.02 Z" fill="#000000" fill-rule="nonzero" fill-opacity="1" /><path clip-path="url(#clip060)" d="M1204.16 1481.64 L1211.8 1481.64 L1211.8 1455.28 L1203.49 1456.95 L1203.49 1452.69 L1211.75 1451.02 L1216.43 1451.02 L1216.43 1481.64 L1224.07 1481.64 L1224.07 1485.58 L1204.16 1485.58 L1204.16 1481.64 Z" fill="#000000" fill-rule="nonzero" fill-opacity="1" /><path clip-path="url(#clip060)" d="M1243.51 1454.1 Q1239.9 1454.1 1238.07 1457.66 Q1236.27 1461.2 1236.27 1468.33 Q1236.27 1475.44 1238.07 1479.01 Q1239.9 1482.55 1243.51 1482.55 Q1247.15 1482.55 1248.95 1479.01 Q1250.78 1475.44 1250.78 1468.33 Q1250.78 1461.2 1248.95 1457.66 Q1247.15 1454.1 1243.51 1454.1 M1243.51 1450.39 Q1249.32 1450.39 1252.38 1455 Q1255.46 1459.58 1255.46 1468.33 Q1255.46 1477.06 1252.38 1481.67 Q1249.32 1486.25 1243.51 1486.25 Q1237.7 1486.25 1234.62 1481.67 Q1231.57 1477.06 1231.57 1468.33 Q1231.57 1459.58 1234.62 1455 Q1237.7 1450.39 1243.51 1450.39 Z" fill="#000000" fill-rule="nonzero" fill-opacity="1" /><path clip-path="url(#clip060)" d="M1736.01 1481.64 L1743.65 1481.64 L1743.65 1455.28 L1735.34 1456.95 L1735.34 1452.69 L1743.6 1451.02 L1748.28 1451.02 L1748.28 1481.64 L1755.92 1481.64 L1755.92 1485.58 L1736.01 1485.58 L1736.01 1481.64 Z" fill="#000000" fill-rule="nonzero" fill-opacity="1" /><path clip-path="url(#clip060)" d="M1765.41 1451.02 L1783.77 1451.02 L1783.77 1454.96 L1769.69 1454.96 L1769.69 1463.43 Q1770.71 1463.08 1771.73 1462.92 Q1772.75 1462.73 1773.77 1462.73 Q1779.55 1462.73 1782.93 1465.9 Q1786.31 1469.08 1786.31 1474.49 Q1786.31 1480.07 1782.84 1483.17 Q1779.37 1486.25 1773.05 1486.25 Q1770.87 1486.25 1768.6 1485.88 Q1766.36 1485.51 1763.95 1484.77 L1763.95 1480.07 Q1766.03 1481.2 1768.26 1481.76 Q1770.48 1482.32 1772.96 1482.32 Q1776.96 1482.32 1779.3 1480.21 Q1781.64 1478.1 1781.64 1474.49 Q1781.64 1470.88 1779.3 1468.77 Q1776.96 1466.67 1772.96 1466.67 Q1771.08 1466.67 1769.21 1467.08 Q1767.35 1467.5 1765.41 1468.38 L1765.41 1451.02 Z" fill="#000000" fill-rule="nonzero" fill-opacity="1" /><path clip-path="url(#clip060)" d="M2270.95 1481.64 L2287.27 1481.64 L2287.27 1485.58 L2265.33 1485.58 L2265.33 1481.64 Q2267.99 1478.89 2272.58 1474.26 Q2277.18 1469.61 2278.36 1468.27 Q2280.61 1465.74 2281.49 1464.01 Q2282.39 1462.25 2282.39 1460.56 Q2282.39 1457.8 2280.45 1456.07 Q2278.52 1454.33 2275.42 1454.33 Q2273.22 1454.33 2270.77 1455.09 Q2268.34 1455.86 2265.56 1457.41 L2265.56 1452.69 Q2268.39 1451.55 2270.84 1450.97 Q2273.29 1450.39 2275.33 1450.39 Q2280.7 1450.39 2283.89 1453.08 Q2287.09 1455.77 2287.09 1460.26 Q2287.09 1462.39 2286.28 1464.31 Q2285.49 1466.2 2283.39 1468.8 Q2282.81 1469.47 2279.7 1472.69 Q2276.6 1475.88 2270.95 1481.64 Z" fill="#000000" fill-rule="nonzero" fill-opacity="1" /><path clip-path="url(#clip060)" d="M2307.09 1454.1 Q2303.48 1454.1 2301.65 1457.66 Q2299.84 1461.2 2299.84 1468.33 Q2299.84 1475.44 2301.65 1479.01 Q2303.48 1482.55 2307.09 1482.55 Q2310.72 1482.55 2312.53 1479.01 Q2314.36 1475.44 2314.36 1468.33 Q2314.36 1461.2 2312.53 1457.66 Q2310.72 1454.1 2307.09 1454.1 M2307.09 1450.39 Q2312.9 1450.39 2315.95 1455 Q2319.03 1459.58 2319.03 1468.33 Q2319.03 1477.06 2315.95 1481.67 Q2312.9 1486.25 2307.09 1486.25 Q2301.28 1486.25 2298.2 1481.67 Q2295.14 1477.06 2295.14 1468.33 Q2295.14 1459.58 2298.2 1455 Q2301.28 1450.39 2307.09 1450.39 Z" fill="#000000" fill-rule="nonzero" fill-opacity="1" /><path clip-path="url(#clip060)" d="M1197.15 1520.52 L1203.58 1520.52 L1203.58 1568.04 L1197.15 1568.04 L1197.15 1520.52 Z" fill="#000000" fill-rule="nonzero" fill-opacity="1" /><path clip-path="url(#clip060)" d="M1245.75 1546.53 L1245.75 1568.04 L1239.89 1568.04 L1239.89 1546.72 Q1239.89 1541.66 1237.92 1539.14 Q1235.95 1536.63 1232 1536.63 Q1227.26 1536.63 1224.52 1539.65 Q1221.78 1542.68 1221.78 1547.9 L1221.78 1568.04 L1215.89 1568.04 L1215.89 1532.4 L1221.78 1532.4 L1221.78 1537.93 Q1223.88 1534.72 1226.72 1533.13 Q1229.58 1531.54 1233.31 1531.54 Q1239.45 1531.54 1242.6 1535.36 Q1245.75 1539.14 1245.75 1546.53 Z" fill="#000000" fill-rule="nonzero" fill-opacity="1" /><path clip-path="url(#clip060)" d="M1280.89 1537.81 L1280.89 1518.52 L1286.75 1518.52 L1286.75 1568.04 L1280.89 1568.04 L1280.89 1562.7 Q1279.04 1565.88 1276.21 1567.44 Q1273.41 1568.97 1269.46 1568.97 Q1263 1568.97 1258.93 1563.81 Q1254.88 1558.65 1254.88 1550.25 Q1254.88 1541.85 1258.93 1536.69 Q1263 1531.54 1269.46 1531.54 Q1273.41 1531.54 1276.21 1533.1 Q1279.04 1534.62 1280.89 1537.81 M1260.93 1550.25 Q1260.93 1556.71 1263.57 1560.4 Q1266.25 1564.07 1270.89 1564.07 Q1275.54 1564.07 1278.22 1560.4 Q1280.89 1556.71 1280.89 1550.25 Q1280.89 1543.79 1278.22 1540.13 Q1275.54 1536.44 1270.89 1536.44 Q1266.25 1536.44 1263.57 1540.13 Q1260.93 1543.79 1260.93 1550.25 Z" fill="#000000" fill-rule="nonzero" fill-opacity="1" /><path clip-path="url(#clip060)" d="M1329.3 1548.76 L1329.3 1551.62 L1302.37 1551.62 Q1302.75 1557.67 1306 1560.85 Q1309.28 1564 1315.1 1564 Q1318.48 1564 1321.63 1563.17 Q1324.81 1562.35 1327.93 1560.69 L1327.93 1566.23 Q1324.78 1567.57 1321.47 1568.27 Q1318.16 1568.97 1314.75 1568.97 Q1306.22 1568.97 1301.23 1564 Q1296.26 1559.04 1296.26 1550.57 Q1296.26 1541.82 1300.97 1536.69 Q1305.71 1531.54 1313.74 1531.54 Q1320.93 1531.54 1325.1 1536.18 Q1329.3 1540.8 1329.3 1548.76 M1323.44 1547.04 Q1323.38 1542.23 1320.74 1539.37 Q1318.13 1536.5 1313.8 1536.5 Q1308.9 1536.5 1305.94 1539.27 Q1303.01 1542.04 1302.56 1547.07 L1323.44 1547.04 Z" fill="#000000" fill-rule="nonzero" fill-opacity="1" /><path clip-path="url(#clip060)" d="M1367.4 1532.4 L1354.51 1549.74 L1368.07 1568.04 L1361.16 1568.04 L1350.78 1554.04 L1340.41 1568.04 L1333.5 1568.04 L1347.35 1549.39 L1334.68 1532.4 L1341.59 1532.4 L1351.04 1545.1 L1360.49 1532.4 L1367.4 1532.4 Z" fill="#000000" fill-rule="nonzero" fill-opacity="1" /><polyline clip-path="url(#clip060)" style="stroke:#000000; stroke-linecap:round; stroke-linejoin:round; stroke-width:4; stroke-opacity:1; fill:none" points="212.459,1423.18 212.459,123.472 "/>
<polyline clip-path="url(#clip060)" style="stroke:#000000; stroke-linecap:round; stroke-linejoin:round; stroke-width:4; stroke-opacity:1; fill:none" points="212.459,1262.59 231.357,1262.59 "/>
<polyline clip-path="url(#clip060)" style="stroke:#000000; stroke-linecap:round; stroke-linejoin:round; stroke-width:4; stroke-opacity:1; fill:none" points="212.459,1094.84 231.357,1094.84 "/>
<polyline clip-path="url(#clip060)" style="stroke:#000000; stroke-linecap:round; stroke-linejoin:round; stroke-width:4; stroke-opacity:1; fill:none" points="212.459,927.084 231.357,927.084 "/>
<polyline clip-path="url(#clip060)" style="stroke:#000000; stroke-linecap:round; stroke-linejoin:round; stroke-width:4; stroke-opacity:1; fill:none" points="212.459,759.331 231.357,759.331 "/>
<polyline clip-path="url(#clip060)" style="stroke:#000000; stroke-linecap:round; stroke-linejoin:round; stroke-width:4; stroke-opacity:1; fill:none" points="212.459,591.579 231.357,591.579 "/>
<polyline clip-path="url(#clip060)" style="stroke:#000000; stroke-linecap:round; stroke-linejoin:round; stroke-width:4; stroke-opacity:1; fill:none" points="212.459,423.827 231.357,423.827 "/>
<polyline clip-path="url(#clip060)" style="stroke:#000000; stroke-linecap:round; stroke-linejoin:round; stroke-width:4; stroke-opacity:1; fill:none" points="212.459,256.075 231.357,256.075 "/>
<path clip-path="url(#clip060)" d="M114.839 1263.04 L144.515 1263.04 L144.515 1266.97 L114.839 1266.97 L114.839 1263.04 Z" fill="#000000" fill-rule="nonzero" fill-opacity="1" /><path clip-path="url(#clip060)" d="M164.607 1263.46 Q161.274 1263.46 159.353 1265.24 Q157.454 1267.02 157.454 1270.15 Q157.454 1273.27 159.353 1275.05 Q161.274 1276.84 164.607 1276.84 Q167.94 1276.84 169.862 1275.05 Q171.783 1273.25 171.783 1270.15 Q171.783 1267.02 169.862 1265.24 Q167.964 1263.46 164.607 1263.46 M159.931 1261.47 Q156.922 1260.72 155.232 1258.66 Q153.566 1256.6 153.566 1253.64 Q153.566 1249.5 156.505 1247.09 Q159.468 1244.68 164.607 1244.68 Q169.769 1244.68 172.709 1247.09 Q175.649 1249.5 175.649 1253.64 Q175.649 1256.6 173.959 1258.66 Q172.292 1260.72 169.306 1261.47 Q172.686 1262.25 174.561 1264.54 Q176.459 1266.84 176.459 1270.15 Q176.459 1275.17 173.38 1277.85 Q170.325 1280.54 164.607 1280.54 Q158.89 1280.54 155.811 1277.85 Q152.755 1275.17 152.755 1270.15 Q152.755 1266.84 154.653 1264.54 Q156.552 1262.25 159.931 1261.47 M158.218 1254.08 Q158.218 1256.77 159.885 1258.27 Q161.575 1259.78 164.607 1259.78 Q167.616 1259.78 169.306 1258.27 Q171.019 1256.77 171.019 1254.08 Q171.019 1251.4 169.306 1249.89 Q167.616 1248.39 164.607 1248.39 Q161.575 1248.39 159.885 1249.89 Q158.218 1251.4 158.218 1254.08 Z" fill="#000000" fill-rule="nonzero" fill-opacity="1" /><path clip-path="url(#clip060)" d="M114.584 1095.29 L144.26 1095.29 L144.26 1099.22 L114.584 1099.22 L114.584 1095.29 Z" fill="#000000" fill-rule="nonzero" fill-opacity="1" /><path clip-path="url(#clip060)" d="M164.931 1092.97 Q161.783 1092.97 159.931 1095.13 Q158.103 1097.28 158.103 1101.03 Q158.103 1104.75 159.931 1106.93 Q161.783 1109.08 164.931 1109.08 Q168.079 1109.08 169.908 1106.93 Q171.76 1104.75 171.76 1101.03 Q171.76 1097.28 169.908 1095.13 Q168.079 1092.97 164.931 1092.97 M174.214 1078.32 L174.214 1082.58 Q172.454 1081.75 170.649 1081.31 Q168.866 1080.87 167.107 1080.87 Q162.477 1080.87 160.024 1083.99 Q157.593 1087.12 157.246 1093.44 Q158.612 1091.42 160.672 1090.36 Q162.732 1089.27 165.209 1089.27 Q170.417 1089.27 173.427 1092.44 Q176.459 1095.59 176.459 1101.03 Q176.459 1106.35 173.311 1109.57 Q170.163 1112.79 164.931 1112.79 Q158.936 1112.79 155.765 1108.2 Q152.593 1103.6 152.593 1094.87 Q152.593 1086.68 156.482 1081.82 Q160.371 1076.93 166.922 1076.93 Q168.681 1076.93 170.464 1077.28 Q172.269 1077.63 174.214 1078.32 Z" fill="#000000" fill-rule="nonzero" fill-opacity="1" /><path clip-path="url(#clip060)" d="M114.26 927.535 L143.936 927.535 L143.936 931.47 L114.26 931.47 L114.26 927.535 Z" fill="#000000" fill-rule="nonzero" fill-opacity="1" /><path clip-path="url(#clip060)" d="M166.876 913.878 L155.07 932.327 L166.876 932.327 L166.876 913.878 M165.649 909.804 L171.528 909.804 L171.528 932.327 L176.459 932.327 L176.459 936.216 L171.528 936.216 L171.528 944.364 L166.876 944.364 L166.876 936.216 L151.274 936.216 L151.274 931.702 L165.649 909.804 Z" fill="#000000" fill-rule="nonzero" fill-opacity="1" /><path clip-path="url(#clip060)" d="M116.343 759.783 L146.019 759.783 L146.019 763.718 L116.343 763.718 L116.343 759.783 Z" fill="#000000" fill-rule="nonzero" fill-opacity="1" /><path clip-path="url(#clip060)" d="M160.14 772.676 L176.459 772.676 L176.459 776.611 L154.515 776.611 L154.515 772.676 Q157.177 769.922 161.76 765.292 Q166.366 760.639 167.547 759.297 Q169.792 756.774 170.672 755.037 Q171.575 753.278 171.575 751.588 Q171.575 748.834 169.63 747.098 Q167.709 745.362 164.607 745.362 Q162.408 745.362 159.954 746.125 Q157.524 746.889 154.746 748.44 L154.746 743.718 Q157.57 742.584 160.024 742.005 Q162.477 741.426 164.515 741.426 Q169.885 741.426 173.079 744.112 Q176.274 746.797 176.274 751.287 Q176.274 753.417 175.464 755.338 Q174.677 757.237 172.57 759.829 Q171.991 760.5 168.889 763.718 Q165.788 766.912 160.14 772.676 Z" fill="#000000" fill-rule="nonzero" fill-opacity="1" /><path clip-path="url(#clip060)" d="M164.515 577.378 Q160.903 577.378 159.075 580.943 Q157.269 584.484 157.269 591.614 Q157.269 598.72 159.075 602.285 Q160.903 605.827 164.515 605.827 Q168.149 605.827 169.954 602.285 Q171.783 598.72 171.783 591.614 Q171.783 584.484 169.954 580.943 Q168.149 577.378 164.515 577.378 M164.515 573.674 Q170.325 573.674 173.38 578.281 Q176.459 582.864 176.459 591.614 Q176.459 600.341 173.38 604.947 Q170.325 609.53 164.515 609.53 Q158.704 609.53 155.626 604.947 Q152.57 600.341 152.57 591.614 Q152.57 582.864 155.626 578.281 Q158.704 573.674 164.515 573.674 Z" fill="#000000" fill-rule="nonzero" fill-opacity="1" /><path clip-path="url(#clip060)" d="M160.14 437.172 L176.459 437.172 L176.459 441.107 L154.515 441.107 L154.515 437.172 Q157.177 434.417 161.76 429.787 Q166.366 425.135 167.547 423.792 Q169.792 421.269 170.672 419.533 Q171.575 417.774 171.575 416.084 Q171.575 413.329 169.63 411.593 Q167.709 409.857 164.607 409.857 Q162.408 409.857 159.954 410.621 Q157.524 411.385 154.746 412.936 L154.746 408.214 Q157.57 407.079 160.024 406.501 Q162.477 405.922 164.515 405.922 Q169.885 405.922 173.079 408.607 Q176.274 411.292 176.274 415.783 Q176.274 417.913 175.464 419.834 Q174.677 421.732 172.57 424.325 Q171.991 424.996 168.889 428.213 Q165.788 431.408 160.14 437.172 Z" fill="#000000" fill-rule="nonzero" fill-opacity="1" /><path clip-path="url(#clip060)" d="M166.876 242.869 L155.07 261.318 L166.876 261.318 L166.876 242.869 M165.649 238.795 L171.528 238.795 L171.528 261.318 L176.459 261.318 L176.459 265.207 L171.528 265.207 L171.528 273.355 L166.876 273.355 L166.876 265.207 L151.274 265.207 L151.274 260.693 L165.649 238.795 Z" fill="#000000" fill-rule="nonzero" fill-opacity="1" /><path clip-path="url(#clip060)" d="M64.0042 842.696 L16.4842 860.839 L16.4842 854.123 L56.4926 839.068 L16.4842 823.981 L16.4842 817.297 L64.0042 835.408 L64.0042 842.696 Z" fill="#000000" fill-rule="nonzero" fill-opacity="1" /><path clip-path="url(#clip060)" d="M46.0847 799.473 Q46.0847 806.571 47.7079 809.308 Q49.3312 812.045 53.2461 812.045 Q56.3653 812.045 58.2114 810.008 Q60.0256 807.94 60.0256 804.407 Q60.0256 799.537 56.5881 796.609 Q53.1188 793.649 47.3897 793.649 L46.0847 793.649 L46.0847 799.473 M43.6657 787.792 L64.0042 787.792 L64.0042 793.649 L58.5933 793.649 Q61.8398 795.654 63.3994 798.646 Q64.9272 801.637 64.9272 805.966 Q64.9272 811.441 61.8716 814.687 Q58.7843 817.902 53.6281 817.902 Q47.6125 817.902 44.5569 813.891 Q41.5014 809.849 41.5014 801.86 L41.5014 793.649 L40.9285 793.649 Q36.8862 793.649 34.6901 796.322 Q32.4621 798.964 32.4621 803.77 Q32.4621 806.826 33.1941 809.722 Q33.9262 812.618 35.3903 815.292 L29.9795 815.292 Q28.7381 812.077 28.1334 809.054 Q27.4968 806.03 27.4968 803.165 Q27.4968 795.431 31.5072 791.611 Q35.5176 787.792 43.6657 787.792 Z" fill="#000000" fill-rule="nonzero" fill-opacity="1" /><path clip-path="url(#clip060)" d="M14.479 775.729 L14.479 769.873 L64.0042 769.873 L64.0042 775.729 L14.479 775.729 Z" fill="#000000" fill-rule="nonzero" fill-opacity="1" /><path clip-path="url(#clip060)" d="M49.9359 758.223 L28.3562 758.223 L28.3562 752.367 L49.7131 752.367 Q54.7739 752.367 57.3202 750.394 Q59.8346 748.42 59.8346 744.473 Q59.8346 739.731 56.8109 736.994 Q53.7872 734.225 48.5673 734.225 L28.3562 734.225 L28.3562 728.368 L64.0042 728.368 L64.0042 734.225 L58.5296 734.225 Q61.7762 736.357 63.3676 739.19 Q64.9272 741.991 64.9272 745.715 Q64.9272 751.858 61.1078 755.04 Q57.2883 758.223 49.9359 758.223 M27.4968 743.487 L27.4968 743.487 Z" fill="#000000" fill-rule="nonzero" fill-opacity="1" /><path clip-path="url(#clip060)" d="M44.7161 685.813 L47.5806 685.813 L47.5806 712.74 Q53.6281 712.358 56.8109 709.112 Q59.9619 705.834 59.9619 700.009 Q59.9619 696.635 59.1344 693.484 Q58.3069 690.301 56.6518 687.182 L62.1899 687.182 Q63.5267 690.333 64.227 693.643 Q64.9272 696.953 64.9272 700.359 Q64.9272 708.889 59.9619 713.886 Q54.9967 718.851 46.5303 718.851 Q37.7774 718.851 32.6531 714.141 Q27.4968 709.398 27.4968 701.378 Q27.4968 694.184 32.1438 690.015 Q36.7589 685.813 44.7161 685.813 M42.9973 691.67 Q38.1912 691.734 35.3266 694.375 Q32.4621 696.985 32.4621 701.314 Q32.4621 706.216 35.2312 709.176 Q38.0002 712.104 43.0292 712.549 L42.9973 691.67 Z" fill="#000000" fill-rule="nonzero" fill-opacity="1" /><path clip-path="url(#clip060)" d="M753.215 18.8205 L753.215 41.5461 L763.504 41.5461 Q769.216 41.5461 772.335 38.5889 Q775.454 35.6318 775.454 30.163 Q775.454 24.7348 772.335 21.7777 Q769.216 18.8205 763.504 18.8205 L753.215 18.8205 M745.032 12.096 L763.504 12.096 Q773.672 12.096 778.857 16.714 Q784.083 21.2916 784.083 30.163 Q784.083 39.1155 778.857 43.6931 Q773.672 48.2706 763.504 48.2706 L753.215 48.2706 L753.215 72.576 L745.032 72.576 L745.032 12.096 Z" fill="#000000" fill-rule="nonzero" fill-opacity="1" /><path clip-path="url(#clip060)" d="M809.361 32.4315 Q803.365 32.4315 799.881 37.1306 Q796.398 41.7891 796.398 49.9314 Q796.398 58.0738 799.841 62.7728 Q803.325 67.4314 809.361 67.4314 Q815.315 67.4314 818.799 62.7323 Q822.283 58.0333 822.283 49.9314 Q822.283 41.8701 818.799 37.1711 Q815.315 32.4315 809.361 32.4315 M809.361 26.1121 Q819.083 26.1121 824.632 32.4315 Q830.182 38.7509 830.182 49.9314 Q830.182 61.0714 824.632 67.4314 Q819.083 73.7508 809.361 73.7508 Q799.598 73.7508 794.048 67.4314 Q788.539 61.0714 788.539 49.9314 Q788.539 38.7509 794.048 32.4315 Q799.598 26.1121 809.361 26.1121 Z" fill="#000000" fill-rule="nonzero" fill-opacity="1" /><path clip-path="url(#clip060)" d="M871.461 28.5427 L871.461 35.5912 Q868.301 33.9709 864.898 33.1607 Q861.496 32.3505 857.85 32.3505 Q852.3 32.3505 849.505 34.0519 Q846.75 35.7533 846.75 39.156 Q846.75 41.7486 848.735 43.2475 Q850.72 44.7058 856.716 46.0426 L859.268 46.6097 Q867.207 48.3111 870.529 51.4303 Q873.891 54.509 873.891 60.0587 Q873.891 66.3781 868.868 70.0644 Q863.886 73.7508 855.136 73.7508 Q851.49 73.7508 847.52 73.0216 Q843.591 72.3329 839.216 70.9151 L839.216 63.2184 Q843.348 65.3654 847.358 66.4591 Q851.368 67.5124 855.298 67.5124 Q860.564 67.5124 863.4 65.73 Q866.235 63.9071 866.235 60.6258 Q866.235 57.5877 864.169 55.9673 Q862.144 54.3469 855.217 52.8481 L852.624 52.2405 Q845.697 50.7821 842.618 47.7845 Q839.54 44.7463 839.54 39.4801 Q839.54 33.0797 844.077 29.5959 Q848.614 26.1121 856.959 26.1121 Q861.091 26.1121 864.736 26.7198 Q868.382 27.3274 871.461 28.5427 Z" fill="#000000" fill-rule="nonzero" fill-opacity="1" /><path clip-path="url(#clip060)" d="M893.133 14.324 L893.133 27.2059 L908.486 27.2059 L908.486 32.9987 L893.133 32.9987 L893.133 57.6282 Q893.133 63.1779 894.632 64.7578 Q896.171 66.3376 900.83 66.3376 L908.486 66.3376 L908.486 72.576 L900.83 72.576 Q892.202 72.576 888.92 69.3758 Q885.639 66.1351 885.639 57.6282 L885.639 32.9987 L880.17 32.9987 L880.17 27.2059 L885.639 27.2059 L885.639 14.324 L893.133 14.324 Z" fill="#000000" fill-rule="nonzero" fill-opacity="1" /><path clip-path="url(#clip060)" d="M957.097 48.0275 L957.097 51.6733 L922.826 51.6733 Q923.312 59.3701 927.444 63.421 Q931.617 67.4314 939.03 67.4314 Q943.324 67.4314 947.334 66.3781 Q951.385 65.3249 955.355 63.2184 L955.355 70.267 Q951.345 71.9684 947.132 72.8596 Q942.919 73.7508 938.584 73.7508 Q927.728 73.7508 921.368 67.4314 Q915.049 61.1119 915.049 50.3365 Q915.049 39.1965 921.044 32.6746 Q927.08 26.1121 937.288 26.1121 Q946.443 26.1121 951.75 32.0264 Q957.097 37.9003 957.097 48.0275 M949.643 45.84 Q949.562 39.7232 946.2 36.0774 Q942.878 32.4315 937.369 32.4315 Q931.131 32.4315 927.363 35.9558 Q923.637 39.4801 923.069 45.8805 L949.643 45.84 Z" fill="#000000" fill-rule="nonzero" fill-opacity="1" /><path clip-path="url(#clip060)" d="M995.621 34.1734 Q994.365 33.4443 992.866 33.1202 Q991.408 32.7556 989.626 32.7556 Q983.306 32.7556 979.904 36.8875 Q976.541 40.9789 976.541 48.6757 L976.541 72.576 L969.047 72.576 L969.047 27.2059 L976.541 27.2059 L976.541 34.2544 Q978.891 30.1225 982.658 28.1376 Q986.426 26.1121 991.813 26.1121 Q992.583 26.1121 993.515 26.2337 Q994.446 26.3147 995.581 26.5172 L995.621 34.1734 Z" fill="#000000" fill-rule="nonzero" fill-opacity="1" /><path clip-path="url(#clip060)" d="M1003.44 27.2059 L1010.89 27.2059 L1010.89 72.576 L1003.44 72.576 L1003.44 27.2059 M1003.44 9.54393 L1010.89 9.54393 L1010.89 18.9825 L1003.44 18.9825 L1003.44 9.54393 Z" fill="#000000" fill-rule="nonzero" fill-opacity="1" /><path clip-path="url(#clip060)" d="M1044.07 32.4315 Q1038.07 32.4315 1034.59 37.1306 Q1031.11 41.7891 1031.11 49.9314 Q1031.11 58.0738 1034.55 62.7728 Q1038.03 67.4314 1044.07 67.4314 Q1050.02 67.4314 1053.51 62.7323 Q1056.99 58.0333 1056.99 49.9314 Q1056.99 41.8701 1053.51 37.1711 Q1050.02 32.4315 1044.07 32.4315 M1044.07 26.1121 Q1053.79 26.1121 1059.34 32.4315 Q1064.89 38.7509 1064.89 49.9314 Q1064.89 61.0714 1059.34 67.4314 Q1053.79 73.7508 1044.07 73.7508 Q1034.31 73.7508 1028.76 67.4314 Q1023.25 61.0714 1023.25 49.9314 Q1023.25 38.7509 1028.76 32.4315 Q1034.31 26.1121 1044.07 26.1121 Z" fill="#000000" fill-rule="nonzero" fill-opacity="1" /><path clip-path="url(#clip060)" d="M1103.54 34.1734 Q1102.28 33.4443 1100.78 33.1202 Q1099.32 32.7556 1097.54 32.7556 Q1091.22 32.7556 1087.82 36.8875 Q1084.46 40.9789 1084.46 48.6757 L1084.46 72.576 L1076.96 72.576 L1076.96 27.2059 L1084.46 27.2059 L1084.46 34.2544 Q1086.81 30.1225 1090.57 28.1376 Q1094.34 26.1121 1099.73 26.1121 Q1100.5 26.1121 1101.43 26.2337 Q1102.36 26.3147 1103.5 26.5172 L1103.54 34.1734 Z" fill="#000000" fill-rule="nonzero" fill-opacity="1" /><path clip-path="url(#clip060)" d="M1146.23 18.8205 L1146.23 41.5461 L1156.52 41.5461 Q1162.23 41.5461 1165.35 38.5889 Q1168.47 35.6318 1168.47 30.163 Q1168.47 24.7348 1165.35 21.7777 Q1162.23 18.8205 1156.52 18.8205 L1146.23 18.8205 M1138.05 12.096 L1156.52 12.096 Q1166.69 12.096 1171.88 16.714 Q1177.1 21.2916 1177.1 30.163 Q1177.1 39.1155 1171.88 43.6931 Q1166.69 48.2706 1156.52 48.2706 L1146.23 48.2706 L1146.23 72.576 L1138.05 72.576 L1138.05 12.096 Z" fill="#000000" fill-rule="nonzero" fill-opacity="1" /><path clip-path="url(#clip060)" d="M1212.59 34.1734 Q1211.33 33.4443 1209.83 33.1202 Q1208.37 32.7556 1206.59 32.7556 Q1200.27 32.7556 1196.87 36.8875 Q1193.51 40.9789 1193.51 48.6757 L1193.51 72.576 L1186.01 72.576 L1186.01 27.2059 L1193.51 27.2059 L1193.51 34.2544 Q1195.86 30.1225 1199.62 28.1376 Q1203.39 26.1121 1208.78 26.1121 Q1209.55 26.1121 1210.48 26.2337 Q1211.41 26.3147 1212.55 26.5172 L1212.59 34.1734 Z" fill="#000000" fill-rule="nonzero" fill-opacity="1" /><path clip-path="url(#clip060)" d="M1257.39 48.0275 L1257.39 51.6733 L1223.12 51.6733 Q1223.61 59.3701 1227.74 63.421 Q1231.91 67.4314 1239.32 67.4314 Q1243.62 67.4314 1247.63 66.3781 Q1251.68 65.3249 1255.65 63.2184 L1255.65 70.267 Q1251.64 71.9684 1247.43 72.8596 Q1243.21 73.7508 1238.88 73.7508 Q1228.02 73.7508 1221.66 67.4314 Q1215.34 61.1119 1215.34 50.3365 Q1215.34 39.1965 1221.34 32.6746 Q1227.37 26.1121 1237.58 26.1121 Q1246.74 26.1121 1252.04 32.0264 Q1257.39 37.9003 1257.39 48.0275 M1249.94 45.84 Q1249.86 39.7232 1246.49 36.0774 Q1243.17 32.4315 1237.66 32.4315 Q1231.42 32.4315 1227.66 35.9558 Q1223.93 39.4801 1223.36 45.8805 L1249.94 45.84 Z" fill="#000000" fill-rule="nonzero" fill-opacity="1" /><path clip-path="url(#clip060)" d="M1299.48 34.0924 L1299.48 9.54393 L1306.93 9.54393 L1306.93 72.576 L1299.48 72.576 L1299.48 65.7705 Q1297.13 69.8214 1293.52 71.8063 Q1289.96 73.7508 1284.94 73.7508 Q1276.71 73.7508 1271.53 67.1883 Q1266.38 60.6258 1266.38 49.9314 Q1266.38 39.2371 1271.53 32.6746 Q1276.71 26.1121 1284.94 26.1121 Q1289.96 26.1121 1293.52 28.0971 Q1297.13 30.0415 1299.48 34.0924 M1274.08 49.9314 Q1274.08 58.1548 1277.44 62.8538 Q1280.85 67.5124 1286.76 67.5124 Q1292.67 67.5124 1296.08 62.8538 Q1299.48 58.1548 1299.48 49.9314 Q1299.48 41.7081 1296.08 37.0496 Q1292.67 32.3505 1286.76 32.3505 Q1280.85 32.3505 1277.44 37.0496 Q1274.08 41.7081 1274.08 49.9314 Z" fill="#000000" fill-rule="nonzero" fill-opacity="1" /><path clip-path="url(#clip060)" d="M1322.29 27.2059 L1329.74 27.2059 L1329.74 72.576 L1322.29 72.576 L1322.29 27.2059 M1322.29 9.54393 L1329.74 9.54393 L1329.74 18.9825 L1322.29 18.9825 L1322.29 9.54393 Z" fill="#000000" fill-rule="nonzero" fill-opacity="1" /><path clip-path="url(#clip060)" d="M1377.99 28.9478 L1377.99 35.9153 Q1374.83 34.1734 1371.63 33.3227 Q1368.47 32.4315 1365.23 32.4315 Q1357.97 32.4315 1353.96 37.0496 Q1349.95 41.6271 1349.95 49.9314 Q1349.95 58.2358 1353.96 62.8538 Q1357.97 67.4314 1365.23 67.4314 Q1368.47 67.4314 1371.63 66.5807 Q1374.83 65.6895 1377.99 63.9476 L1377.99 70.8341 Q1374.87 72.2924 1371.5 73.0216 Q1368.18 73.7508 1364.42 73.7508 Q1354.17 73.7508 1348.13 67.3098 Q1342.09 60.8689 1342.09 49.9314 Q1342.09 38.832 1348.17 32.472 Q1354.29 26.1121 1364.9 26.1121 Q1368.34 26.1121 1371.63 26.8413 Q1374.91 27.5299 1377.99 28.9478 Z" fill="#000000" fill-rule="nonzero" fill-opacity="1" /><path clip-path="url(#clip060)" d="M1398.32 14.324 L1398.32 27.2059 L1413.67 27.2059 L1413.67 32.9987 L1398.32 32.9987 L1398.32 57.6282 Q1398.32 63.1779 1399.82 64.7578 Q1401.36 66.3376 1406.02 66.3376 L1413.67 66.3376 L1413.67 72.576 L1406.02 72.576 Q1397.39 72.576 1394.11 69.3758 Q1390.83 66.1351 1390.83 57.6282 L1390.83 32.9987 L1385.36 32.9987 L1385.36 27.2059 L1390.83 27.2059 L1390.83 14.324 L1398.32 14.324 Z" fill="#000000" fill-rule="nonzero" fill-opacity="1" /><path clip-path="url(#clip060)" d="M1423.48 27.2059 L1430.93 27.2059 L1430.93 72.576 L1423.48 72.576 L1423.48 27.2059 M1423.48 9.54393 L1430.93 9.54393 L1430.93 18.9825 L1423.48 18.9825 L1423.48 9.54393 Z" fill="#000000" fill-rule="nonzero" fill-opacity="1" /><path clip-path="url(#clip060)" d="M1441.18 27.2059 L1449.08 27.2059 L1463.26 65.2844 L1477.44 27.2059 L1485.33 27.2059 L1468.32 72.576 L1458.19 72.576 L1441.18 27.2059 Z" fill="#000000" fill-rule="nonzero" fill-opacity="1" /><path clip-path="url(#clip060)" d="M1534.43 48.0275 L1534.43 51.6733 L1500.16 51.6733 Q1500.65 59.3701 1504.78 63.421 Q1508.95 67.4314 1516.36 67.4314 Q1520.66 67.4314 1524.67 66.3781 Q1528.72 65.3249 1532.69 63.2184 L1532.69 70.267 Q1528.68 71.9684 1524.47 72.8596 Q1520.25 73.7508 1515.92 73.7508 Q1505.06 73.7508 1498.7 67.4314 Q1492.38 61.1119 1492.38 50.3365 Q1492.38 39.1965 1498.38 32.6746 Q1504.41 26.1121 1514.62 26.1121 Q1523.78 26.1121 1529.08 32.0264 Q1534.43 37.9003 1534.43 48.0275 M1526.98 45.84 Q1526.9 39.7232 1523.53 36.0774 Q1520.21 32.4315 1514.7 32.4315 Q1508.47 32.4315 1504.7 35.9558 Q1500.97 39.4801 1500.4 45.8805 L1526.98 45.84 Z" fill="#000000" fill-rule="nonzero" fill-opacity="1" /><path clip-path="url(#clip060)" d="M1618.65 16.7545 L1618.65 25.383 Q1614.52 21.5346 1609.82 19.6307 Q1605.16 17.7268 1599.89 17.7268 Q1589.52 17.7268 1584.01 24.0867 Q1578.51 30.4061 1578.51 42.3968 Q1578.51 54.3469 1584.01 60.7069 Q1589.52 67.0263 1599.89 67.0263 Q1605.16 67.0263 1609.82 65.1223 Q1614.52 63.2184 1618.65 59.3701 L1618.65 67.9175 Q1614.36 70.8341 1609.54 72.2924 Q1604.76 73.7508 1599.41 73.7508 Q1585.68 73.7508 1577.78 65.3654 Q1569.88 56.9395 1569.88 42.3968 Q1569.88 27.8135 1577.78 19.4281 Q1585.68 11.0023 1599.41 11.0023 Q1604.84 11.0023 1609.62 12.4606 Q1614.44 13.8784 1618.65 16.7545 Z" fill="#000000" fill-rule="nonzero" fill-opacity="1" /><path clip-path="url(#clip060)" d="M1668.68 45.1919 L1668.68 72.576 L1661.23 72.576 L1661.23 45.4349 Q1661.23 38.994 1658.71 35.7938 Q1656.2 32.5936 1651.18 32.5936 Q1645.14 32.5936 1641.66 36.4419 Q1638.18 40.2903 1638.18 46.9338 L1638.18 72.576 L1630.68 72.576 L1630.68 9.54393 L1638.18 9.54393 L1638.18 34.2544 Q1640.85 30.163 1644.45 28.1376 Q1648.1 26.1121 1652.84 26.1121 Q1660.66 26.1121 1664.67 30.9732 Q1668.68 35.7938 1668.68 45.1919 Z" fill="#000000" fill-rule="nonzero" fill-opacity="1" /><path clip-path="url(#clip060)" d="M1722.35 48.0275 L1722.35 51.6733 L1688.08 51.6733 Q1688.57 59.3701 1692.7 63.421 Q1696.87 67.4314 1704.29 67.4314 Q1708.58 67.4314 1712.59 66.3781 Q1716.64 65.3249 1720.61 63.2184 L1720.61 70.267 Q1716.6 71.9684 1712.39 72.8596 Q1708.18 73.7508 1703.84 73.7508 Q1692.98 73.7508 1686.62 67.4314 Q1680.3 61.1119 1680.3 50.3365 Q1680.3 39.1965 1686.3 32.6746 Q1692.34 26.1121 1702.54 26.1121 Q1711.7 26.1121 1717.01 32.0264 Q1722.35 37.9003 1722.35 48.0275 M1714.9 45.84 Q1714.82 39.7232 1711.46 36.0774 Q1708.13 32.4315 1702.63 32.4315 Q1696.39 32.4315 1692.62 35.9558 Q1688.89 39.4801 1688.33 45.8805 L1714.9 45.84 Z" fill="#000000" fill-rule="nonzero" fill-opacity="1" /><path clip-path="url(#clip060)" d="M1767.24 28.9478 L1767.24 35.9153 Q1764.08 34.1734 1760.88 33.3227 Q1757.72 32.4315 1754.48 32.4315 Q1747.23 32.4315 1743.22 37.0496 Q1739.21 41.6271 1739.21 49.9314 Q1739.21 58.2358 1743.22 62.8538 Q1747.23 67.4314 1754.48 67.4314 Q1757.72 67.4314 1760.88 66.5807 Q1764.08 65.6895 1767.24 63.9476 L1767.24 70.8341 Q1764.12 72.2924 1760.76 73.0216 Q1757.43 73.7508 1753.67 73.7508 Q1743.42 73.7508 1737.38 67.3098 Q1731.35 60.8689 1731.35 49.9314 Q1731.35 38.832 1737.42 32.472 Q1743.54 26.1121 1754.15 26.1121 Q1757.6 26.1121 1760.88 26.8413 Q1764.16 27.5299 1767.24 28.9478 Z" fill="#000000" fill-rule="nonzero" fill-opacity="1" /><path clip-path="url(#clip060)" d="M1779.92 9.54393 L1787.41 9.54393 L1787.41 46.7717 L1809.65 27.2059 L1819.17 27.2059 L1795.11 48.4326 L1820.18 72.576 L1810.46 72.576 L1787.41 50.4176 L1787.41 72.576 L1779.92 72.576 L1779.92 9.54393 Z" fill="#000000" fill-rule="nonzero" fill-opacity="1" /><circle clip-path="url(#clip062)" cx="273.033" cy="896.327" r="10.8" fill="#4682b4" fill-rule="evenodd" fill-opacity="0.7" stroke="#000000" stroke-opacity="0.7" stroke-width="3.2"/>
<circle clip-path="url(#clip062)" cx="379.304" cy="357.609" r="10.8" fill="#4682b4" fill-rule="evenodd" fill-opacity="0.7" stroke="#000000" stroke-opacity="0.7" stroke-width="3.2"/>
<circle clip-path="url(#clip062)" cx="485.575" cy="791.089" r="10.8" fill="#4682b4" fill-rule="evenodd" fill-opacity="0.7" stroke="#000000" stroke-opacity="0.7" stroke-width="3.2"/>
<circle clip-path="url(#clip062)" cx="591.846" cy="547.504" r="10.8" fill="#4682b4" fill-rule="evenodd" fill-opacity="0.7" stroke="#000000" stroke-opacity="0.7" stroke-width="3.2"/>
<circle clip-path="url(#clip062)" cx="698.117" cy="851.264" r="10.8" fill="#4682b4" fill-rule="evenodd" fill-opacity="0.7" stroke="#000000" stroke-opacity="0.7" stroke-width="3.2"/>
<circle clip-path="url(#clip062)" cx="804.388" cy="690.11" r="10.8" fill="#4682b4" fill-rule="evenodd" fill-opacity="0.7" stroke="#000000" stroke-opacity="0.7" stroke-width="3.2"/>
<circle clip-path="url(#clip062)" cx="910.659" cy="454.957" r="10.8" fill="#4682b4" fill-rule="evenodd" fill-opacity="0.7" stroke="#000000" stroke-opacity="0.7" stroke-width="3.2"/>
<circle clip-path="url(#clip062)" cx="1016.93" cy="649.886" r="10.8" fill="#4682b4" fill-rule="evenodd" fill-opacity="0.7" stroke="#000000" stroke-opacity="0.7" stroke-width="3.2"/>
<circle clip-path="url(#clip062)" cx="1123.2" cy="556.988" r="10.8" fill="#4682b4" fill-rule="evenodd" fill-opacity="0.7" stroke="#000000" stroke-opacity="0.7" stroke-width="3.2"/>
<circle clip-path="url(#clip062)" cx="1229.47" cy="606.543" r="10.8" fill="#4682b4" fill-rule="evenodd" fill-opacity="0.7" stroke="#000000" stroke-opacity="0.7" stroke-width="3.2"/>
<circle clip-path="url(#clip062)" cx="1335.74" cy="641.163" r="10.8" fill="#4682b4" fill-rule="evenodd" fill-opacity="0.7" stroke="#000000" stroke-opacity="0.7" stroke-width="3.2"/>
<circle clip-path="url(#clip062)" cx="1442.01" cy="686.016" r="10.8" fill="#4682b4" fill-rule="evenodd" fill-opacity="0.7" stroke="#000000" stroke-opacity="0.7" stroke-width="3.2"/>
<circle clip-path="url(#clip062)" cx="1548.28" cy="729.877" r="10.8" fill="#4682b4" fill-rule="evenodd" fill-opacity="0.7" stroke="#000000" stroke-opacity="0.7" stroke-width="3.2"/>
<circle clip-path="url(#clip062)" cx="1654.56" cy="393.622" r="10.8" fill="#4682b4" fill-rule="evenodd" fill-opacity="0.7" stroke="#000000" stroke-opacity="0.7" stroke-width="3.2"/>
<circle clip-path="url(#clip062)" cx="1760.83" cy="1386.4" r="10.8" fill="#4682b4" fill-rule="evenodd" fill-opacity="0.7" stroke="#000000" stroke-opacity="0.7" stroke-width="3.2"/>
<circle clip-path="url(#clip062)" cx="1867.1" cy="360.109" r="10.8" fill="#4682b4" fill-rule="evenodd" fill-opacity="0.7" stroke="#000000" stroke-opacity="0.7" stroke-width="3.2"/>
<circle clip-path="url(#clip062)" cx="1973.37" cy="160.256" r="10.8" fill="#4682b4" fill-rule="evenodd" fill-opacity="0.7" stroke="#000000" stroke-opacity="0.7" stroke-width="3.2"/>
<circle clip-path="url(#clip062)" cx="2079.64" cy="277.76" r="10.8" fill="#4682b4" fill-rule="evenodd" fill-opacity="0.7" stroke="#000000" stroke-opacity="0.7" stroke-width="3.2"/>
<circle clip-path="url(#clip062)" cx="2185.91" cy="374.733" r="10.8" fill="#4682b4" fill-rule="evenodd" fill-opacity="0.7" stroke="#000000" stroke-opacity="0.7" stroke-width="3.2"/>
<circle clip-path="url(#clip062)" cx="2292.18" cy="987.836" r="10.8" fill="#4682b4" fill-rule="evenodd" fill-opacity="0.7" stroke="#000000" stroke-opacity="0.7" stroke-width="3.2"/>
<circle clip-path="url(#clip062)" cx="273.033" cy="785.648" r="10.8" fill="#4682b4" fill-rule="evenodd" fill-opacity="0.7" stroke="#000000" stroke-opacity="0.7" stroke-width="3.2"/>
<circle clip-path="url(#clip062)" cx="379.304" cy="660.488" r="10.8" fill="#4682b4" fill-rule="evenodd" fill-opacity="0.7" stroke="#000000" stroke-opacity="0.7" stroke-width="3.2"/>
<circle clip-path="url(#clip062)" cx="485.575" cy="721.133" r="10.8" fill="#4682b4" fill-rule="evenodd" fill-opacity="0.7" stroke="#000000" stroke-opacity="0.7" stroke-width="3.2"/>
<circle clip-path="url(#clip062)" cx="591.846" cy="699.634" r="10.8" fill="#4682b4" fill-rule="evenodd" fill-opacity="0.7" stroke="#000000" stroke-opacity="0.7" stroke-width="3.2"/>
<circle clip-path="url(#clip062)" cx="698.117" cy="814.526" r="10.8" fill="#4682b4" fill-rule="evenodd" fill-opacity="0.7" stroke="#000000" stroke-opacity="0.7" stroke-width="3.2"/>
<circle clip-path="url(#clip062)" cx="804.388" cy="835.981" r="10.8" fill="#4682b4" fill-rule="evenodd" fill-opacity="0.7" stroke="#000000" stroke-opacity="0.7" stroke-width="3.2"/>
<circle clip-path="url(#clip062)" cx="910.659" cy="689.408" r="10.8" fill="#4682b4" fill-rule="evenodd" fill-opacity="0.7" stroke="#000000" stroke-opacity="0.7" stroke-width="3.2"/>
<circle clip-path="url(#clip062)" cx="1016.93" cy="645.033" r="10.8" fill="#4682b4" fill-rule="evenodd" fill-opacity="0.7" stroke="#000000" stroke-opacity="0.7" stroke-width="3.2"/>
<circle clip-path="url(#clip062)" cx="1123.2" cy="689.593" r="10.8" fill="#4682b4" fill-rule="evenodd" fill-opacity="0.7" stroke="#000000" stroke-opacity="0.7" stroke-width="3.2"/>
<circle clip-path="url(#clip062)" cx="1229.47" cy="690.057" r="10.8" fill="#4682b4" fill-rule="evenodd" fill-opacity="0.7" stroke="#000000" stroke-opacity="0.7" stroke-width="3.2"/>
<circle clip-path="url(#clip062)" cx="1335.74" cy="773.231" r="10.8" fill="#4682b4" fill-rule="evenodd" fill-opacity="0.7" stroke="#000000" stroke-opacity="0.7" stroke-width="3.2"/>
<circle clip-path="url(#clip062)" cx="1442.01" cy="872.086" r="10.8" fill="#4682b4" fill-rule="evenodd" fill-opacity="0.7" stroke="#000000" stroke-opacity="0.7" stroke-width="3.2"/>
<circle clip-path="url(#clip062)" cx="1548.28" cy="620.201" r="10.8" fill="#4682b4" fill-rule="evenodd" fill-opacity="0.7" stroke="#000000" stroke-opacity="0.7" stroke-width="3.2"/>
<circle clip-path="url(#clip062)" cx="1654.56" cy="731.381" r="10.8" fill="#4682b4" fill-rule="evenodd" fill-opacity="0.7" stroke="#000000" stroke-opacity="0.7" stroke-width="3.2"/>
<circle clip-path="url(#clip062)" cx="1760.83" cy="708.987" r="10.8" fill="#4682b4" fill-rule="evenodd" fill-opacity="0.7" stroke="#000000" stroke-opacity="0.7" stroke-width="3.2"/>
<circle clip-path="url(#clip062)" cx="1867.1" cy="670.662" r="10.8" fill="#4682b4" fill-rule="evenodd" fill-opacity="0.7" stroke="#000000" stroke-opacity="0.7" stroke-width="3.2"/>
<circle clip-path="url(#clip062)" cx="1973.37" cy="767.763" r="10.8" fill="#4682b4" fill-rule="evenodd" fill-opacity="0.7" stroke="#000000" stroke-opacity="0.7" stroke-width="3.2"/>
<circle clip-path="url(#clip062)" cx="2079.64" cy="602.001" r="10.8" fill="#4682b4" fill-rule="evenodd" fill-opacity="0.7" stroke="#000000" stroke-opacity="0.7" stroke-width="3.2"/>
<circle clip-path="url(#clip062)" cx="2185.91" cy="843.981" r="10.8" fill="#4682b4" fill-rule="evenodd" fill-opacity="0.7" stroke="#000000" stroke-opacity="0.7" stroke-width="3.2"/>
<circle clip-path="url(#clip062)" cx="2292.18" cy="605.705" r="10.8" fill="#4682b4" fill-rule="evenodd" fill-opacity="0.7" stroke="#000000" stroke-opacity="0.7" stroke-width="3.2"/>
<circle clip-path="url(#clip062)" cx="273.033" cy="574.214" r="10.8" fill="#4682b4" fill-rule="evenodd" fill-opacity="0.7" stroke="#000000" stroke-opacity="0.7" stroke-width="3.2"/>
<circle clip-path="url(#clip062)" cx="379.304" cy="495.032" r="10.8" fill="#4682b4" fill-rule="evenodd" fill-opacity="0.7" stroke="#000000" stroke-opacity="0.7" stroke-width="3.2"/>
<circle clip-path="url(#clip062)" cx="485.575" cy="542.646" r="10.8" fill="#4682b4" fill-rule="evenodd" fill-opacity="0.7" stroke="#000000" stroke-opacity="0.7" stroke-width="3.2"/>
<circle clip-path="url(#clip062)" cx="591.846" cy="584.947" r="10.8" fill="#4682b4" fill-rule="evenodd" fill-opacity="0.7" stroke="#000000" stroke-opacity="0.7" stroke-width="3.2"/>
<circle clip-path="url(#clip062)" cx="698.117" cy="560.886" r="10.8" fill="#4682b4" fill-rule="evenodd" fill-opacity="0.7" stroke="#000000" stroke-opacity="0.7" stroke-width="3.2"/>
<circle clip-path="url(#clip062)" cx="804.388" cy="503.091" r="10.8" fill="#4682b4" fill-rule="evenodd" fill-opacity="0.7" stroke="#000000" stroke-opacity="0.7" stroke-width="3.2"/>
<circle clip-path="url(#clip062)" cx="910.659" cy="507.109" r="10.8" fill="#4682b4" fill-rule="evenodd" fill-opacity="0.7" stroke="#000000" stroke-opacity="0.7" stroke-width="3.2"/>
<circle clip-path="url(#clip062)" cx="1016.93" cy="462.23" r="10.8" fill="#4682b4" fill-rule="evenodd" fill-opacity="0.7" stroke="#000000" stroke-opacity="0.7" stroke-width="3.2"/>
<circle clip-path="url(#clip062)" cx="1123.2" cy="557.436" r="10.8" fill="#4682b4" fill-rule="evenodd" fill-opacity="0.7" stroke="#000000" stroke-opacity="0.7" stroke-width="3.2"/>
<circle clip-path="url(#clip062)" cx="1229.47" cy="497.638" r="10.8" fill="#4682b4" fill-rule="evenodd" fill-opacity="0.7" stroke="#000000" stroke-opacity="0.7" stroke-width="3.2"/>
<circle clip-path="url(#clip062)" cx="1335.74" cy="602.396" r="10.8" fill="#4682b4" fill-rule="evenodd" fill-opacity="0.7" stroke="#000000" stroke-opacity="0.7" stroke-width="3.2"/>
<circle clip-path="url(#clip062)" cx="1442.01" cy="571.351" r="10.8" fill="#4682b4" fill-rule="evenodd" fill-opacity="0.7" stroke="#000000" stroke-opacity="0.7" stroke-width="3.2"/>
<circle clip-path="url(#clip062)" cx="1548.28" cy="519.878" r="10.8" fill="#4682b4" fill-rule="evenodd" fill-opacity="0.7" stroke="#000000" stroke-opacity="0.7" stroke-width="3.2"/>
<circle clip-path="url(#clip062)" cx="1654.56" cy="457.806" r="10.8" fill="#4682b4" fill-rule="evenodd" fill-opacity="0.7" stroke="#000000" stroke-opacity="0.7" stroke-width="3.2"/>
<circle clip-path="url(#clip062)" cx="1760.83" cy="457.835" r="10.8" fill="#4682b4" fill-rule="evenodd" fill-opacity="0.7" stroke="#000000" stroke-opacity="0.7" stroke-width="3.2"/>
<circle clip-path="url(#clip062)" cx="1867.1" cy="438.908" r="10.8" fill="#4682b4" fill-rule="evenodd" fill-opacity="0.7" stroke="#000000" stroke-opacity="0.7" stroke-width="3.2"/>
<circle clip-path="url(#clip062)" cx="1973.37" cy="441.939" r="10.8" fill="#4682b4" fill-rule="evenodd" fill-opacity="0.7" stroke="#000000" stroke-opacity="0.7" stroke-width="3.2"/>
<circle clip-path="url(#clip062)" cx="2079.64" cy="503.606" r="10.8" fill="#4682b4" fill-rule="evenodd" fill-opacity="0.7" stroke="#000000" stroke-opacity="0.7" stroke-width="3.2"/>
<circle clip-path="url(#clip062)" cx="2185.91" cy="615.288" r="10.8" fill="#4682b4" fill-rule="evenodd" fill-opacity="0.7" stroke="#000000" stroke-opacity="0.7" stroke-width="3.2"/>
<circle clip-path="url(#clip062)" cx="2292.18" cy="445.701" r="10.8" fill="#4682b4" fill-rule="evenodd" fill-opacity="0.7" stroke="#000000" stroke-opacity="0.7" stroke-width="3.2"/>
<circle clip-path="url(#clip062)" cx="273.033" cy="362.031" r="10.8" fill="#4682b4" fill-rule="evenodd" fill-opacity="0.7" stroke="#000000" stroke-opacity="0.7" stroke-width="3.2"/>
<circle clip-path="url(#clip062)" cx="379.304" cy="313.377" r="10.8" fill="#4682b4" fill-rule="evenodd" fill-opacity="0.7" stroke="#000000" stroke-opacity="0.7" stroke-width="3.2"/>
<circle clip-path="url(#clip062)" cx="485.575" cy="487.117" r="10.8" fill="#4682b4" fill-rule="evenodd" fill-opacity="0.7" stroke="#000000" stroke-opacity="0.7" stroke-width="3.2"/>
<circle clip-path="url(#clip062)" cx="591.846" cy="618.907" r="10.8" fill="#4682b4" fill-rule="evenodd" fill-opacity="0.7" stroke="#000000" stroke-opacity="0.7" stroke-width="3.2"/>
<circle clip-path="url(#clip062)" cx="698.117" cy="360.508" r="10.8" fill="#4682b4" fill-rule="evenodd" fill-opacity="0.7" stroke="#000000" stroke-opacity="0.7" stroke-width="3.2"/>
<circle clip-path="url(#clip062)" cx="804.388" cy="652.399" r="10.8" fill="#4682b4" fill-rule="evenodd" fill-opacity="0.7" stroke="#000000" stroke-opacity="0.7" stroke-width="3.2"/>
<circle clip-path="url(#clip062)" cx="910.659" cy="446.098" r="10.8" fill="#4682b4" fill-rule="evenodd" fill-opacity="0.7" stroke="#000000" stroke-opacity="0.7" stroke-width="3.2"/>
<circle clip-path="url(#clip062)" cx="1016.93" cy="699.986" r="10.8" fill="#4682b4" fill-rule="evenodd" fill-opacity="0.7" stroke="#000000" stroke-opacity="0.7" stroke-width="3.2"/>
<circle clip-path="url(#clip062)" cx="1123.2" cy="394.845" r="10.8" fill="#4682b4" fill-rule="evenodd" fill-opacity="0.7" stroke="#000000" stroke-opacity="0.7" stroke-width="3.2"/>
<circle clip-path="url(#clip062)" cx="1229.47" cy="330.404" r="10.8" fill="#4682b4" fill-rule="evenodd" fill-opacity="0.7" stroke="#000000" stroke-opacity="0.7" stroke-width="3.2"/>
<circle clip-path="url(#clip062)" cx="1335.74" cy="582.01" r="10.8" fill="#4682b4" fill-rule="evenodd" fill-opacity="0.7" stroke="#000000" stroke-opacity="0.7" stroke-width="3.2"/>
<circle clip-path="url(#clip062)" cx="1442.01" cy="459.981" r="10.8" fill="#4682b4" fill-rule="evenodd" fill-opacity="0.7" stroke="#000000" stroke-opacity="0.7" stroke-width="3.2"/>
<circle clip-path="url(#clip062)" cx="1548.28" cy="431.297" r="10.8" fill="#4682b4" fill-rule="evenodd" fill-opacity="0.7" stroke="#000000" stroke-opacity="0.7" stroke-width="3.2"/>
<circle clip-path="url(#clip062)" cx="1654.56" cy="446.03" r="10.8" fill="#4682b4" fill-rule="evenodd" fill-opacity="0.7" stroke="#000000" stroke-opacity="0.7" stroke-width="3.2"/>
<circle clip-path="url(#clip062)" cx="1760.83" cy="543.935" r="10.8" fill="#4682b4" fill-rule="evenodd" fill-opacity="0.7" stroke="#000000" stroke-opacity="0.7" stroke-width="3.2"/>
<circle clip-path="url(#clip062)" cx="1867.1" cy="318.984" r="10.8" fill="#4682b4" fill-rule="evenodd" fill-opacity="0.7" stroke="#000000" stroke-opacity="0.7" stroke-width="3.2"/>
<circle clip-path="url(#clip062)" cx="1973.37" cy="639.511" r="10.8" fill="#4682b4" fill-rule="evenodd" fill-opacity="0.7" stroke="#000000" stroke-opacity="0.7" stroke-width="3.2"/>
<circle clip-path="url(#clip062)" cx="2079.64" cy="602.528" r="10.8" fill="#4682b4" fill-rule="evenodd" fill-opacity="0.7" stroke="#000000" stroke-opacity="0.7" stroke-width="3.2"/>
<circle clip-path="url(#clip062)" cx="2185.91" cy="648.941" r="10.8" fill="#4682b4" fill-rule="evenodd" fill-opacity="0.7" stroke="#000000" stroke-opacity="0.7" stroke-width="3.2"/>
<circle clip-path="url(#clip062)" cx="2292.18" cy="348.412" r="10.8" fill="#4682b4" fill-rule="evenodd" fill-opacity="0.7" stroke="#000000" stroke-opacity="0.7" stroke-width="3.2"/>
<circle clip-path="url(#clip062)" cx="273.033" cy="601.59" r="10.8" fill="#4682b4" fill-rule="evenodd" fill-opacity="0.7" stroke="#000000" stroke-opacity="0.7" stroke-width="3.2"/>
<circle clip-path="url(#clip062)" cx="379.304" cy="596.329" r="10.8" fill="#4682b4" fill-rule="evenodd" fill-opacity="0.7" stroke="#000000" stroke-opacity="0.7" stroke-width="3.2"/>
<circle clip-path="url(#clip062)" cx="485.575" cy="597.506" r="10.8" fill="#4682b4" fill-rule="evenodd" fill-opacity="0.7" stroke="#000000" stroke-opacity="0.7" stroke-width="3.2"/>
<circle clip-path="url(#clip062)" cx="591.846" cy="568.752" r="10.8" fill="#4682b4" fill-rule="evenodd" fill-opacity="0.7" stroke="#000000" stroke-opacity="0.7" stroke-width="3.2"/>
<circle clip-path="url(#clip062)" cx="698.117" cy="621.65" r="10.8" fill="#4682b4" fill-rule="evenodd" fill-opacity="0.7" stroke="#000000" stroke-opacity="0.7" stroke-width="3.2"/>
<circle clip-path="url(#clip062)" cx="804.388" cy="500.072" r="10.8" fill="#4682b4" fill-rule="evenodd" fill-opacity="0.7" stroke="#000000" stroke-opacity="0.7" stroke-width="3.2"/>
<circle clip-path="url(#clip062)" cx="910.659" cy="519.938" r="10.8" fill="#4682b4" fill-rule="evenodd" fill-opacity="0.7" stroke="#000000" stroke-opacity="0.7" stroke-width="3.2"/>
<circle clip-path="url(#clip062)" cx="1016.93" cy="480.141" r="10.8" fill="#4682b4" fill-rule="evenodd" fill-opacity="0.7" stroke="#000000" stroke-opacity="0.7" stroke-width="3.2"/>
<circle clip-path="url(#clip062)" cx="1123.2" cy="638.182" r="10.8" fill="#4682b4" fill-rule="evenodd" fill-opacity="0.7" stroke="#000000" stroke-opacity="0.7" stroke-width="3.2"/>
<circle clip-path="url(#clip062)" cx="1229.47" cy="546.646" r="10.8" fill="#4682b4" fill-rule="evenodd" fill-opacity="0.7" stroke="#000000" stroke-opacity="0.7" stroke-width="3.2"/>
<circle clip-path="url(#clip062)" cx="1335.74" cy="570.089" r="10.8" fill="#4682b4" fill-rule="evenodd" fill-opacity="0.7" stroke="#000000" stroke-opacity="0.7" stroke-width="3.2"/>
<circle clip-path="url(#clip062)" cx="1442.01" cy="580.858" r="10.8" fill="#4682b4" fill-rule="evenodd" fill-opacity="0.7" stroke="#000000" stroke-opacity="0.7" stroke-width="3.2"/>
<circle clip-path="url(#clip062)" cx="1548.28" cy="645.113" r="10.8" fill="#4682b4" fill-rule="evenodd" fill-opacity="0.7" stroke="#000000" stroke-opacity="0.7" stroke-width="3.2"/>
<circle clip-path="url(#clip062)" cx="1654.56" cy="496.61" r="10.8" fill="#4682b4" fill-rule="evenodd" fill-opacity="0.7" stroke="#000000" stroke-opacity="0.7" stroke-width="3.2"/>
<circle clip-path="url(#clip062)" cx="1760.83" cy="642.777" r="10.8" fill="#4682b4" fill-rule="evenodd" fill-opacity="0.7" stroke="#000000" stroke-opacity="0.7" stroke-width="3.2"/>
<circle clip-path="url(#clip062)" cx="1867.1" cy="573.438" r="10.8" fill="#4682b4" fill-rule="evenodd" fill-opacity="0.7" stroke="#000000" stroke-opacity="0.7" stroke-width="3.2"/>
<circle clip-path="url(#clip062)" cx="1973.37" cy="471.035" r="10.8" fill="#4682b4" fill-rule="evenodd" fill-opacity="0.7" stroke="#000000" stroke-opacity="0.7" stroke-width="3.2"/>
<circle clip-path="url(#clip062)" cx="2079.64" cy="541.549" r="10.8" fill="#4682b4" fill-rule="evenodd" fill-opacity="0.7" stroke="#000000" stroke-opacity="0.7" stroke-width="3.2"/>
<circle clip-path="url(#clip062)" cx="2185.91" cy="329.593" r="10.8" fill="#4682b4" fill-rule="evenodd" fill-opacity="0.7" stroke="#000000" stroke-opacity="0.7" stroke-width="3.2"/>
<circle clip-path="url(#clip062)" cx="2292.18" cy="607.086" r="10.8" fill="#4682b4" fill-rule="evenodd" fill-opacity="0.7" stroke="#000000" stroke-opacity="0.7" stroke-width="3.2"/>
<circle clip-path="url(#clip062)" cx="273.033" cy="648.665" r="10.8" fill="#4682b4" fill-rule="evenodd" fill-opacity="0.7" stroke="#000000" stroke-opacity="0.7" stroke-width="3.2"/>
<circle clip-path="url(#clip062)" cx="379.304" cy="680.11" r="10.8" fill="#4682b4" fill-rule="evenodd" fill-opacity="0.7" stroke="#000000" stroke-opacity="0.7" stroke-width="3.2"/>
<circle clip-path="url(#clip062)" cx="485.575" cy="715.523" r="10.8" fill="#4682b4" fill-rule="evenodd" fill-opacity="0.7" stroke="#000000" stroke-opacity="0.7" stroke-width="3.2"/>
<circle clip-path="url(#clip062)" cx="591.846" cy="534.885" r="10.8" fill="#4682b4" fill-rule="evenodd" fill-opacity="0.7" stroke="#000000" stroke-opacity="0.7" stroke-width="3.2"/>
<circle clip-path="url(#clip062)" cx="698.117" cy="681.165" r="10.8" fill="#4682b4" fill-rule="evenodd" fill-opacity="0.7" stroke="#000000" stroke-opacity="0.7" stroke-width="3.2"/>
<circle clip-path="url(#clip062)" cx="804.388" cy="617.504" r="10.8" fill="#4682b4" fill-rule="evenodd" fill-opacity="0.7" stroke="#000000" stroke-opacity="0.7" stroke-width="3.2"/>
<circle clip-path="url(#clip062)" cx="910.659" cy="634.017" r="10.8" fill="#4682b4" fill-rule="evenodd" fill-opacity="0.7" stroke="#000000" stroke-opacity="0.7" stroke-width="3.2"/>
<circle clip-path="url(#clip062)" cx="1016.93" cy="717.138" r="10.8" fill="#4682b4" fill-rule="evenodd" fill-opacity="0.7" stroke="#000000" stroke-opacity="0.7" stroke-width="3.2"/>
<circle clip-path="url(#clip062)" cx="1123.2" cy="611.568" r="10.8" fill="#4682b4" fill-rule="evenodd" fill-opacity="0.7" stroke="#000000" stroke-opacity="0.7" stroke-width="3.2"/>
<circle clip-path="url(#clip062)" cx="1229.47" cy="724.561" r="10.8" fill="#4682b4" fill-rule="evenodd" fill-opacity="0.7" stroke="#000000" stroke-opacity="0.7" stroke-width="3.2"/>
<circle clip-path="url(#clip062)" cx="1335.74" cy="609.745" r="10.8" fill="#4682b4" fill-rule="evenodd" fill-opacity="0.7" stroke="#000000" stroke-opacity="0.7" stroke-width="3.2"/>
<circle clip-path="url(#clip062)" cx="1442.01" cy="595.794" r="10.8" fill="#4682b4" fill-rule="evenodd" fill-opacity="0.7" stroke="#000000" stroke-opacity="0.7" stroke-width="3.2"/>
<circle clip-path="url(#clip062)" cx="1548.28" cy="699.176" r="10.8" fill="#4682b4" fill-rule="evenodd" fill-opacity="0.7" stroke="#000000" stroke-opacity="0.7" stroke-width="3.2"/>
<circle clip-path="url(#clip062)" cx="1654.56" cy="629.396" r="10.8" fill="#4682b4" fill-rule="evenodd" fill-opacity="0.7" stroke="#000000" stroke-opacity="0.7" stroke-width="3.2"/>
<circle clip-path="url(#clip062)" cx="1760.83" cy="638.839" r="10.8" fill="#4682b4" fill-rule="evenodd" fill-opacity="0.7" stroke="#000000" stroke-opacity="0.7" stroke-width="3.2"/>
<circle clip-path="url(#clip062)" cx="1867.1" cy="711.063" r="10.8" fill="#4682b4" fill-rule="evenodd" fill-opacity="0.7" stroke="#000000" stroke-opacity="0.7" stroke-width="3.2"/>
<circle clip-path="url(#clip062)" cx="1973.37" cy="636.763" r="10.8" fill="#4682b4" fill-rule="evenodd" fill-opacity="0.7" stroke="#000000" stroke-opacity="0.7" stroke-width="3.2"/>
<circle clip-path="url(#clip062)" cx="2079.64" cy="600.554" r="10.8" fill="#4682b4" fill-rule="evenodd" fill-opacity="0.7" stroke="#000000" stroke-opacity="0.7" stroke-width="3.2"/>
<circle clip-path="url(#clip062)" cx="2185.91" cy="641.924" r="10.8" fill="#4682b4" fill-rule="evenodd" fill-opacity="0.7" stroke="#000000" stroke-opacity="0.7" stroke-width="3.2"/>
<circle clip-path="url(#clip062)" cx="2292.18" cy="659.876" r="10.8" fill="#4682b4" fill-rule="evenodd" fill-opacity="0.7" stroke="#000000" stroke-opacity="0.7" stroke-width="3.2"/>
<circle clip-path="url(#clip062)" cx="273.033" cy="681.924" r="10.8" fill="#4682b4" fill-rule="evenodd" fill-opacity="0.7" stroke="#000000" stroke-opacity="0.7" stroke-width="3.2"/>
<circle clip-path="url(#clip062)" cx="379.304" cy="817.281" r="10.8" fill="#4682b4" fill-rule="evenodd" fill-opacity="0.7" stroke="#000000" stroke-opacity="0.7" stroke-width="3.2"/>
<circle clip-path="url(#clip062)" cx="485.575" cy="820.245" r="10.8" fill="#4682b4" fill-rule="evenodd" fill-opacity="0.7" stroke="#000000" stroke-opacity="0.7" stroke-width="3.2"/>
<circle clip-path="url(#clip062)" cx="591.846" cy="601.073" r="10.8" fill="#4682b4" fill-rule="evenodd" fill-opacity="0.7" stroke="#000000" stroke-opacity="0.7" stroke-width="3.2"/>
<circle clip-path="url(#clip062)" cx="698.117" cy="641.475" r="10.8" fill="#4682b4" fill-rule="evenodd" fill-opacity="0.7" stroke="#000000" stroke-opacity="0.7" stroke-width="3.2"/>
<circle clip-path="url(#clip062)" cx="804.388" cy="811.463" r="10.8" fill="#4682b4" fill-rule="evenodd" fill-opacity="0.7" stroke="#000000" stroke-opacity="0.7" stroke-width="3.2"/>
<circle clip-path="url(#clip062)" cx="910.659" cy="725.479" r="10.8" fill="#4682b4" fill-rule="evenodd" fill-opacity="0.7" stroke="#000000" stroke-opacity="0.7" stroke-width="3.2"/>
<circle clip-path="url(#clip062)" cx="1016.93" cy="644.477" r="10.8" fill="#4682b4" fill-rule="evenodd" fill-opacity="0.7" stroke="#000000" stroke-opacity="0.7" stroke-width="3.2"/>
<circle clip-path="url(#clip062)" cx="1123.2" cy="593.913" r="10.8" fill="#4682b4" fill-rule="evenodd" fill-opacity="0.7" stroke="#000000" stroke-opacity="0.7" stroke-width="3.2"/>
<circle clip-path="url(#clip062)" cx="1229.47" cy="659.236" r="10.8" fill="#4682b4" fill-rule="evenodd" fill-opacity="0.7" stroke="#000000" stroke-opacity="0.7" stroke-width="3.2"/>
<circle clip-path="url(#clip062)" cx="1335.74" cy="834.69" r="10.8" fill="#4682b4" fill-rule="evenodd" fill-opacity="0.7" stroke="#000000" stroke-opacity="0.7" stroke-width="3.2"/>
<circle clip-path="url(#clip062)" cx="1442.01" cy="700.282" r="10.8" fill="#4682b4" fill-rule="evenodd" fill-opacity="0.7" stroke="#000000" stroke-opacity="0.7" stroke-width="3.2"/>
<circle clip-path="url(#clip062)" cx="1548.28" cy="927.461" r="10.8" fill="#4682b4" fill-rule="evenodd" fill-opacity="0.7" stroke="#000000" stroke-opacity="0.7" stroke-width="3.2"/>
<circle clip-path="url(#clip062)" cx="1654.56" cy="751.133" r="10.8" fill="#4682b4" fill-rule="evenodd" fill-opacity="0.7" stroke="#000000" stroke-opacity="0.7" stroke-width="3.2"/>
<circle clip-path="url(#clip062)" cx="1760.83" cy="680.077" r="10.8" fill="#4682b4" fill-rule="evenodd" fill-opacity="0.7" stroke="#000000" stroke-opacity="0.7" stroke-width="3.2"/>
<circle clip-path="url(#clip062)" cx="1867.1" cy="790.318" r="10.8" fill="#4682b4" fill-rule="evenodd" fill-opacity="0.7" stroke="#000000" stroke-opacity="0.7" stroke-width="3.2"/>
<circle clip-path="url(#clip062)" cx="1973.37" cy="876.718" r="10.8" fill="#4682b4" fill-rule="evenodd" fill-opacity="0.7" stroke="#000000" stroke-opacity="0.7" stroke-width="3.2"/>
<circle clip-path="url(#clip062)" cx="2079.64" cy="676.426" r="10.8" fill="#4682b4" fill-rule="evenodd" fill-opacity="0.7" stroke="#000000" stroke-opacity="0.7" stroke-width="3.2"/>
<circle clip-path="url(#clip062)" cx="2185.91" cy="877.968" r="10.8" fill="#4682b4" fill-rule="evenodd" fill-opacity="0.7" stroke="#000000" stroke-opacity="0.7" stroke-width="3.2"/>
<circle clip-path="url(#clip062)" cx="2292.18" cy="838.215" r="10.8" fill="#4682b4" fill-rule="evenodd" fill-opacity="0.7" stroke="#000000" stroke-opacity="0.7" stroke-width="3.2"/>
<circle clip-path="url(#clip062)" cx="273.033" cy="472.17" r="10.8" fill="#4682b4" fill-rule="evenodd" fill-opacity="0.7" stroke="#000000" stroke-opacity="0.7" stroke-width="3.2"/>
<circle clip-path="url(#clip062)" cx="379.304" cy="536.203" r="10.8" fill="#4682b4" fill-rule="evenodd" fill-opacity="0.7" stroke="#000000" stroke-opacity="0.7" stroke-width="3.2"/>
<circle clip-path="url(#clip062)" cx="485.575" cy="536.155" r="10.8" fill="#4682b4" fill-rule="evenodd" fill-opacity="0.7" stroke="#000000" stroke-opacity="0.7" stroke-width="3.2"/>
<circle clip-path="url(#clip062)" cx="591.846" cy="509.271" r="10.8" fill="#4682b4" fill-rule="evenodd" fill-opacity="0.7" stroke="#000000" stroke-opacity="0.7" stroke-width="3.2"/>
<circle clip-path="url(#clip062)" cx="698.117" cy="628.901" r="10.8" fill="#4682b4" fill-rule="evenodd" fill-opacity="0.7" stroke="#000000" stroke-opacity="0.7" stroke-width="3.2"/>
<circle clip-path="url(#clip062)" cx="804.388" cy="516.929" r="10.8" fill="#4682b4" fill-rule="evenodd" fill-opacity="0.7" stroke="#000000" stroke-opacity="0.7" stroke-width="3.2"/>
<circle clip-path="url(#clip062)" cx="910.659" cy="538.412" r="10.8" fill="#4682b4" fill-rule="evenodd" fill-opacity="0.7" stroke="#000000" stroke-opacity="0.7" stroke-width="3.2"/>
<circle clip-path="url(#clip062)" cx="1016.93" cy="562.191" r="10.8" fill="#4682b4" fill-rule="evenodd" fill-opacity="0.7" stroke="#000000" stroke-opacity="0.7" stroke-width="3.2"/>
<circle clip-path="url(#clip062)" cx="1123.2" cy="553.685" r="10.8" fill="#4682b4" fill-rule="evenodd" fill-opacity="0.7" stroke="#000000" stroke-opacity="0.7" stroke-width="3.2"/>
<circle clip-path="url(#clip062)" cx="1229.47" cy="611.478" r="10.8" fill="#4682b4" fill-rule="evenodd" fill-opacity="0.7" stroke="#000000" stroke-opacity="0.7" stroke-width="3.2"/>
<circle clip-path="url(#clip062)" cx="1335.74" cy="568.482" r="10.8" fill="#4682b4" fill-rule="evenodd" fill-opacity="0.7" stroke="#000000" stroke-opacity="0.7" stroke-width="3.2"/>
<circle clip-path="url(#clip062)" cx="1442.01" cy="619.275" r="10.8" fill="#4682b4" fill-rule="evenodd" fill-opacity="0.7" stroke="#000000" stroke-opacity="0.7" stroke-width="3.2"/>
<circle clip-path="url(#clip062)" cx="1548.28" cy="505.919" r="10.8" fill="#4682b4" fill-rule="evenodd" fill-opacity="0.7" stroke="#000000" stroke-opacity="0.7" stroke-width="3.2"/>
<circle clip-path="url(#clip062)" cx="1654.56" cy="552.77" r="10.8" fill="#4682b4" fill-rule="evenodd" fill-opacity="0.7" stroke="#000000" stroke-opacity="0.7" stroke-width="3.2"/>
<circle clip-path="url(#clip062)" cx="1760.83" cy="465.004" r="10.8" fill="#4682b4" fill-rule="evenodd" fill-opacity="0.7" stroke="#000000" stroke-opacity="0.7" stroke-width="3.2"/>
<circle clip-path="url(#clip062)" cx="1867.1" cy="574.66" r="10.8" fill="#4682b4" fill-rule="evenodd" fill-opacity="0.7" stroke="#000000" stroke-opacity="0.7" stroke-width="3.2"/>
<circle clip-path="url(#clip062)" cx="1973.37" cy="591.2" r="10.8" fill="#4682b4" fill-rule="evenodd" fill-opacity="0.7" stroke="#000000" stroke-opacity="0.7" stroke-width="3.2"/>
<circle clip-path="url(#clip062)" cx="2079.64" cy="595.155" r="10.8" fill="#4682b4" fill-rule="evenodd" fill-opacity="0.7" stroke="#000000" stroke-opacity="0.7" stroke-width="3.2"/>
<circle clip-path="url(#clip062)" cx="2185.91" cy="558.932" r="10.8" fill="#4682b4" fill-rule="evenodd" fill-opacity="0.7" stroke="#000000" stroke-opacity="0.7" stroke-width="3.2"/>
<circle clip-path="url(#clip062)" cx="2292.18" cy="556.439" r="10.8" fill="#4682b4" fill-rule="evenodd" fill-opacity="0.7" stroke="#000000" stroke-opacity="0.7" stroke-width="3.2"/>
<path clip-path="url(#clip062)" d="M273.033 544.692 L257.033 560.692 L273.033 576.692 L289.033 560.692 L273.033 544.692 Z" fill="#000000" fill-rule="evenodd" fill-opacity="1" stroke="none"/>
<path clip-path="url(#clip062)" d="M379.304 591.209 L363.304 607.209 L379.304 623.209 L395.304 607.209 L379.304 591.209 Z" fill="#000000" fill-rule="evenodd" fill-opacity="1" stroke="none"/>
<path clip-path="url(#clip062)" d="M485.575 759.761 L469.575 775.761 L485.575 791.761 L501.575 775.761 L485.575 759.761 Z" fill="#000000" fill-rule="evenodd" fill-opacity="1" stroke="none"/>
<path clip-path="url(#clip062)" d="M591.846 636.564 L575.846 652.564 L591.846 668.564 L607.846 652.564 L591.846 636.564 Z" fill="#000000" fill-rule="evenodd" fill-opacity="1" stroke="none"/>
<path clip-path="url(#clip062)" d="M698.117 475.366 L682.117 491.366 L698.117 507.366 L714.117 491.366 L698.117 475.366 Z" fill="#000000" fill-rule="evenodd" fill-opacity="1" stroke="none"/>
<path clip-path="url(#clip062)" d="M804.388 570.405 L788.388 586.405 L804.388 602.405 L820.388 586.405 L804.388 570.405 Z" fill="#000000" fill-rule="evenodd" fill-opacity="1" stroke="none"/>
<path clip-path="url(#clip062)" d="M910.659 712.1 L894.659 728.1 L910.659 744.1 L926.659 728.1 L910.659 712.1 Z" fill="#000000" fill-rule="evenodd" fill-opacity="1" stroke="none"/>
<path clip-path="url(#clip062)" d="M1016.93 487.581 L1000.93 503.581 L1016.93 519.581 L1032.93 503.581 L1016.93 487.581 Z" fill="#000000" fill-rule="evenodd" fill-opacity="1" stroke="none"/>
<path clip-path="url(#clip062)" d="M1123.2 465.524 L1107.2 481.524 L1123.2 497.524 L1139.2 481.524 L1123.2 465.524 Z" fill="#000000" fill-rule="evenodd" fill-opacity="1" stroke="none"/>
<path clip-path="url(#clip062)" d="M1229.47 540.824 L1213.47 556.824 L1229.47 572.824 L1245.47 556.824 L1229.47 540.824 Z" fill="#000000" fill-rule="evenodd" fill-opacity="1" stroke="none"/>
<path clip-path="url(#clip062)" d="M1335.74 418.375 L1319.74 434.375 L1335.74 450.375 L1351.74 434.375 L1335.74 418.375 Z" fill="#000000" fill-rule="evenodd" fill-opacity="1" stroke="none"/>
<path clip-path="url(#clip062)" d="M1442.01 543.014 L1426.01 559.014 L1442.01 575.014 L1458.01 559.014 L1442.01 543.014 Z" fill="#000000" fill-rule="evenodd" fill-opacity="1" stroke="none"/>
<path clip-path="url(#clip062)" d="M1548.28 499.578 L1532.28 515.578 L1548.28 531.578 L1564.28 515.578 L1548.28 499.578 Z" fill="#000000" fill-rule="evenodd" fill-opacity="1" stroke="none"/>
<path clip-path="url(#clip062)" d="M1654.56 665.449 L1638.56 681.449 L1654.56 697.449 L1670.56 681.449 L1654.56 665.449 Z" fill="#000000" fill-rule="evenodd" fill-opacity="1" stroke="none"/>
<path clip-path="url(#clip062)" d="M1760.83 576.796 L1744.83 592.796 L1760.83 608.796 L1776.83 592.796 L1760.83 576.796 Z" fill="#000000" fill-rule="evenodd" fill-opacity="1" stroke="none"/>
<path clip-path="url(#clip062)" d="M1867.1 664.475 L1851.1 680.475 L1867.1 696.475 L1883.1 680.475 L1867.1 664.475 Z" fill="#000000" fill-rule="evenodd" fill-opacity="1" stroke="none"/>
<path clip-path="url(#clip062)" d="M1973.37 611.842 L1957.37 627.842 L1973.37 643.842 L1989.37 627.842 L1973.37 611.842 Z" fill="#000000" fill-rule="evenodd" fill-opacity="1" stroke="none"/>
<path clip-path="url(#clip062)" d="M2079.64 634.657 L2063.64 650.657 L2079.64 666.657 L2095.64 650.657 L2079.64 634.657 Z" fill="#000000" fill-rule="evenodd" fill-opacity="1" stroke="none"/>
<path clip-path="url(#clip062)" d="M2185.91 503.225 L2169.91 519.225 L2185.91 535.225 L2201.91 519.225 L2185.91 503.225 Z" fill="#000000" fill-rule="evenodd" fill-opacity="1" stroke="none"/>
<path clip-path="url(#clip062)" d="M2292.18 647.931 L2276.18 663.931 L2292.18 679.931 L2308.18 663.931 L2292.18 647.931 Z" fill="#000000" fill-rule="evenodd" fill-opacity="1" stroke="none"/>
<path clip-path="url(#clip062)" d="M257.033 611.821 L257.033 643.821 L289.033 643.821 L289.033 611.821 L257.033 611.821 Z" fill="#ffa500" fill-rule="evenodd" fill-opacity="1" stroke="#000000" stroke-opacity="1" stroke-width="3.2"/>
<path clip-path="url(#clip062)" d="M363.304 541.054 L363.304 573.054 L395.304 573.054 L395.304 541.054 L363.304 541.054 Z" fill="#ffa500" fill-rule="evenodd" fill-opacity="1" stroke="#000000" stroke-opacity="1" stroke-width="3.2"/>
<path clip-path="url(#clip062)" d="M469.575 635.427 L469.575 667.427 L501.575 667.427 L501.575 635.427 L469.575 635.427 Z" fill="#ffa500" fill-rule="evenodd" fill-opacity="1" stroke="#000000" stroke-opacity="1" stroke-width="3.2"/>
<path clip-path="url(#clip062)" d="M575.846 567.121 L575.846 599.121 L607.846 599.121 L607.846 567.121 L575.846 567.121 Z" fill="#ffa500" fill-rule="evenodd" fill-opacity="1" stroke="#000000" stroke-opacity="1" stroke-width="3.2"/>
<path clip-path="url(#clip062)" d="M682.117 629.047 L682.117 661.047 L714.117 661.047 L714.117 629.047 L682.117 629.047 Z" fill="#ffa500" fill-rule="evenodd" fill-opacity="1" stroke="#000000" stroke-opacity="1" stroke-width="3.2"/>
<path clip-path="url(#clip062)" d="M788.388 624.944 L788.388 656.944 L820.388 656.944 L820.388 624.944 L788.388 624.944 Z" fill="#ffa500" fill-rule="evenodd" fill-opacity="1" stroke="#000000" stroke-opacity="1" stroke-width="3.2"/>
<path clip-path="url(#clip062)" d="M894.659 548.427 L894.659 580.427 L926.659 580.427 L926.659 548.427 L894.659 548.427 Z" fill="#ffa500" fill-rule="evenodd" fill-opacity="1" stroke="#000000" stroke-opacity="1" stroke-width="3.2"/>
<path clip-path="url(#clip062)" d="M1000.93 591.635 L1000.93 623.635 L1032.93 623.635 L1032.93 591.635 L1000.93 591.635 Z" fill="#ffa500" fill-rule="evenodd" fill-opacity="1" stroke="#000000" stroke-opacity="1" stroke-width="3.2"/>
<path clip-path="url(#clip062)" d="M1107.2 558.526 L1107.2 590.526 L1139.2 590.526 L1139.2 558.526 L1107.2 558.526 Z" fill="#ffa500" fill-rule="evenodd" fill-opacity="1" stroke="#000000" stroke-opacity="1" stroke-width="3.2"/>
<path clip-path="url(#clip062)" d="M1213.47 567.32 L1213.47 599.32 L1245.47 599.32 L1245.47 567.32 L1213.47 567.32 Z" fill="#ffa500" fill-rule="evenodd" fill-opacity="1" stroke="#000000" stroke-opacity="1" stroke-width="3.2"/>
<path clip-path="url(#clip062)" d="M1319.74 631.726 L1319.74 663.726 L1351.74 663.726 L1351.74 631.726 L1319.74 631.726 Z" fill="#ffa500" fill-rule="evenodd" fill-opacity="1" stroke="#000000" stroke-opacity="1" stroke-width="3.2"/>
<path clip-path="url(#clip062)" d="M1426.01 619.705 L1426.01 651.705 L1458.01 651.705 L1458.01 619.705 L1426.01 619.705 Z" fill="#ffa500" fill-rule="evenodd" fill-opacity="1" stroke="#000000" stroke-opacity="1" stroke-width="3.2"/>
<path clip-path="url(#clip062)" d="M1532.28 618.865 L1532.28 650.865 L1564.28 650.865 L1564.28 618.865 L1532.28 618.865 Z" fill="#ffa500" fill-rule="evenodd" fill-opacity="1" stroke="#000000" stroke-opacity="1" stroke-width="3.2"/>
<path clip-path="url(#clip062)" d="M1638.56 541.343 L1638.56 573.343 L1670.56 573.343 L1670.56 541.343 L1638.56 541.343 Z" fill="#ffa500" fill-rule="evenodd" fill-opacity="1" stroke="#000000" stroke-opacity="1" stroke-width="3.2"/>
<path clip-path="url(#clip062)" d="M1744.83 674.481 L1744.83 706.481 L1776.83 706.481 L1776.83 674.481 L1744.83 674.481 Z" fill="#ffa500" fill-rule="evenodd" fill-opacity="1" stroke="#000000" stroke-opacity="1" stroke-width="3.2"/>
<path clip-path="url(#clip062)" d="M1851.1 538.768 L1851.1 570.768 L1883.1 570.768 L1883.1 538.768 L1851.1 538.768 Z" fill="#ffa500" fill-rule="evenodd" fill-opacity="1" stroke="#000000" stroke-opacity="1" stroke-width="3.2"/>
<path clip-path="url(#clip062)" d="M1957.37 557.148 L1957.37 589.148 L1989.37 589.148 L1989.37 557.148 L1957.37 557.148 Z" fill="#ffa500" fill-rule="evenodd" fill-opacity="1" stroke="#000000" stroke-opacity="1" stroke-width="3.2"/>
<path clip-path="url(#clip062)" d="M2063.64 533.947 L2063.64 565.947 L2095.64 565.947 L2095.64 533.947 L2063.64 533.947 Z" fill="#ffa500" fill-rule="evenodd" fill-opacity="1" stroke="#000000" stroke-opacity="1" stroke-width="3.2"/>
<path clip-path="url(#clip062)" d="M2169.91 595.42 L2169.91 627.42 L2201.91 627.42 L2201.91 595.42 L2169.91 595.42 Z" fill="#ffa500" fill-rule="evenodd" fill-opacity="1" stroke="#000000" stroke-opacity="1" stroke-width="3.2"/>
<path clip-path="url(#clip062)" d="M2276.18 615.159 L2276.18 647.159 L2308.18 647.159 L2308.18 615.159 L2276.18 615.159 Z" fill="#ffa500" fill-rule="evenodd" fill-opacity="1" stroke="#000000" stroke-opacity="1" stroke-width="3.2"/>
<path clip-path="url(#clip060)" d="M1473.57 1379.86 L2281.41 1379.86 L2281.41 1172.5 L1473.57 1172.5  Z" fill="#ffffff" fill-rule="evenodd" fill-opacity="1"/>
<polyline clip-path="url(#clip060)" style="stroke:#000000; stroke-linecap:round; stroke-linejoin:round; stroke-width:4; stroke-opacity:1; fill:none" points="1473.57,1379.86 2281.41,1379.86 2281.41,1172.5 1473.57,1172.5 1473.57,1379.86 "/>
<circle clip-path="url(#clip060)" cx="1568.69" cy="1224.34" r="19.7486" fill="#4682b4" fill-rule="evenodd" fill-opacity="0.7" stroke="#000000" stroke-opacity="0.7" stroke-width="5.85143"/>
<path clip-path="url(#clip060)" d="M1668.49 1210.9 L1668.49 1223.88 L1674.37 1223.88 Q1677.63 1223.88 1679.42 1222.2 Q1681.2 1220.51 1681.2 1217.38 Q1681.2 1214.28 1679.42 1212.59 Q1677.63 1210.9 1674.37 1210.9 L1668.49 1210.9 M1663.82 1207.06 L1674.37 1207.06 Q1680.18 1207.06 1683.14 1209.7 Q1686.13 1212.31 1686.13 1217.38 Q1686.13 1222.5 1683.14 1225.11 Q1680.18 1227.73 1674.37 1227.73 L1668.49 1227.73 L1668.49 1241.62 L1663.82 1241.62 L1663.82 1207.06 Z" fill="#000000" fill-rule="nonzero" fill-opacity="1" /><path clip-path="url(#clip060)" d="M1700.57 1218.68 Q1697.15 1218.68 1695.16 1221.36 Q1693.17 1224.02 1693.17 1228.68 Q1693.17 1233.33 1695.13 1236.01 Q1697.13 1238.68 1700.57 1238.68 Q1703.98 1238.68 1705.97 1235.99 Q1707.96 1233.31 1707.96 1228.68 Q1707.96 1224.07 1705.97 1221.38 Q1703.98 1218.68 1700.57 1218.68 M1700.57 1215.07 Q1706.13 1215.07 1709.3 1218.68 Q1712.47 1222.29 1712.47 1228.68 Q1712.47 1235.04 1709.3 1238.68 Q1706.13 1242.29 1700.57 1242.29 Q1695 1242.29 1691.82 1238.68 Q1688.68 1235.04 1688.68 1228.68 Q1688.68 1222.29 1691.82 1218.68 Q1695 1215.07 1700.57 1215.07 Z" fill="#000000" fill-rule="nonzero" fill-opacity="1" /><path clip-path="url(#clip060)" d="M1736.06 1216.45 L1736.06 1220.48 Q1734.25 1219.56 1732.31 1219.09 Q1730.37 1218.63 1728.28 1218.63 Q1725.11 1218.63 1723.51 1219.6 Q1721.94 1220.57 1721.94 1222.52 Q1721.94 1224 1723.07 1224.86 Q1724.21 1225.69 1727.63 1226.45 L1729.09 1226.78 Q1733.63 1227.75 1735.53 1229.53 Q1737.45 1231.29 1737.45 1234.46 Q1737.45 1238.07 1734.58 1240.18 Q1731.73 1242.29 1726.73 1242.29 Q1724.65 1242.29 1722.38 1241.87 Q1720.13 1241.48 1717.63 1240.67 L1717.63 1236.27 Q1720 1237.5 1722.29 1238.12 Q1724.58 1238.72 1726.82 1238.72 Q1729.83 1238.72 1731.45 1237.7 Q1733.07 1236.66 1733.07 1234.79 Q1733.07 1233.05 1731.89 1232.13 Q1730.74 1231.2 1726.78 1230.34 L1725.3 1230 Q1721.34 1229.16 1719.58 1227.45 Q1717.82 1225.71 1717.82 1222.7 Q1717.82 1219.05 1720.41 1217.06 Q1723 1215.07 1727.77 1215.07 Q1730.13 1215.07 1732.22 1215.41 Q1734.3 1215.76 1736.06 1216.45 Z" fill="#000000" fill-rule="nonzero" fill-opacity="1" /><path clip-path="url(#clip060)" d="M1748.44 1208.33 L1748.44 1215.69 L1757.22 1215.69 L1757.22 1219 L1748.44 1219 L1748.44 1233.07 Q1748.44 1236.25 1749.3 1237.15 Q1750.18 1238.05 1752.84 1238.05 L1757.22 1238.05 L1757.22 1241.62 L1752.84 1241.62 Q1747.91 1241.62 1746.04 1239.79 Q1744.16 1237.94 1744.16 1233.07 L1744.16 1219 L1741.04 1219 L1741.04 1215.69 L1744.16 1215.69 L1744.16 1208.33 L1748.44 1208.33 Z" fill="#000000" fill-rule="nonzero" fill-opacity="1" /><path clip-path="url(#clip060)" d="M1785 1227.59 L1785 1229.67 L1765.41 1229.67 Q1765.69 1234.07 1768.05 1236.38 Q1770.44 1238.68 1774.67 1238.68 Q1777.12 1238.68 1779.42 1238.07 Q1781.73 1237.47 1784 1236.27 L1784 1240.3 Q1781.71 1241.27 1779.3 1241.78 Q1776.89 1242.29 1774.42 1242.29 Q1768.21 1242.29 1764.58 1238.68 Q1760.97 1235.07 1760.97 1228.91 Q1760.97 1222.54 1764.39 1218.82 Q1767.84 1215.07 1773.68 1215.07 Q1778.91 1215.07 1781.94 1218.45 Q1785 1221.8 1785 1227.59 M1780.74 1226.34 Q1780.69 1222.84 1778.77 1220.76 Q1776.87 1218.68 1773.72 1218.68 Q1770.16 1218.68 1768 1220.69 Q1765.87 1222.7 1765.55 1226.36 L1780.74 1226.34 Z" fill="#000000" fill-rule="nonzero" fill-opacity="1" /><path clip-path="url(#clip060)" d="M1807.01 1219.67 Q1806.29 1219.26 1805.43 1219.07 Q1804.6 1218.86 1803.58 1218.86 Q1799.97 1218.86 1798.03 1221.22 Q1796.11 1223.56 1796.11 1227.96 L1796.11 1241.62 L1791.82 1241.62 L1791.82 1215.69 L1796.11 1215.69 L1796.11 1219.72 Q1797.45 1217.36 1799.6 1216.22 Q1801.75 1215.07 1804.83 1215.07 Q1805.27 1215.07 1805.81 1215.13 Q1806.34 1215.18 1806.99 1215.3 L1807.01 1219.67 Z" fill="#000000" fill-rule="nonzero" fill-opacity="1" /><path clip-path="url(#clip060)" d="M1811.48 1215.69 L1815.74 1215.69 L1815.74 1241.62 L1811.48 1241.62 L1811.48 1215.69 M1811.48 1205.6 L1815.74 1205.6 L1815.74 1210.99 L1811.48 1210.99 L1811.48 1205.6 Z" fill="#000000" fill-rule="nonzero" fill-opacity="1" /><path clip-path="url(#clip060)" d="M1834.69 1218.68 Q1831.27 1218.68 1829.28 1221.36 Q1827.29 1224.02 1827.29 1228.68 Q1827.29 1233.33 1829.25 1236.01 Q1831.24 1238.68 1834.69 1238.68 Q1838.1 1238.68 1840.09 1235.99 Q1842.08 1233.31 1842.08 1228.68 Q1842.08 1224.07 1840.09 1221.38 Q1838.1 1218.68 1834.69 1218.68 M1834.69 1215.07 Q1840.25 1215.07 1843.42 1218.68 Q1846.59 1222.29 1846.59 1228.68 Q1846.59 1235.04 1843.42 1238.68 Q1840.25 1242.29 1834.69 1242.29 Q1829.12 1242.29 1825.94 1238.68 Q1822.8 1235.04 1822.8 1228.68 Q1822.8 1222.29 1825.94 1218.68 Q1829.12 1215.07 1834.69 1215.07 Z" fill="#000000" fill-rule="nonzero" fill-opacity="1" /><path clip-path="url(#clip060)" d="M1868.68 1219.67 Q1867.96 1219.26 1867.1 1219.07 Q1866.27 1218.86 1865.25 1218.86 Q1861.64 1218.86 1859.69 1221.22 Q1857.77 1223.56 1857.77 1227.96 L1857.77 1241.62 L1853.49 1241.62 L1853.49 1215.69 L1857.77 1215.69 L1857.77 1219.72 Q1859.12 1217.36 1861.27 1216.22 Q1863.42 1215.07 1866.5 1215.07 Q1866.94 1215.07 1867.47 1215.13 Q1868 1215.18 1868.65 1215.3 L1868.68 1219.67 Z" fill="#000000" fill-rule="nonzero" fill-opacity="1" /><path clip-path="url(#clip060)" d="M1893.07 1210.9 L1893.07 1223.88 L1898.95 1223.88 Q1902.22 1223.88 1904 1222.2 Q1905.78 1220.51 1905.78 1217.38 Q1905.78 1214.28 1904 1212.59 Q1902.22 1210.9 1898.95 1210.9 L1893.07 1210.9 M1888.4 1207.06 L1898.95 1207.06 Q1904.76 1207.06 1907.73 1209.7 Q1910.71 1212.31 1910.71 1217.38 Q1910.71 1222.5 1907.73 1225.11 Q1904.76 1227.73 1898.95 1227.73 L1893.07 1227.73 L1893.07 1241.62 L1888.4 1241.62 L1888.4 1207.06 Z" fill="#000000" fill-rule="nonzero" fill-opacity="1" /><path clip-path="url(#clip060)" d="M1930.99 1219.67 Q1930.27 1219.26 1929.42 1219.07 Q1928.58 1218.86 1927.56 1218.86 Q1923.95 1218.86 1922.01 1221.22 Q1920.09 1223.56 1920.09 1227.96 L1920.09 1241.62 L1915.8 1241.62 L1915.8 1215.69 L1920.09 1215.69 L1920.09 1219.72 Q1921.43 1217.36 1923.58 1216.22 Q1925.74 1215.07 1928.81 1215.07 Q1929.25 1215.07 1929.79 1215.13 Q1930.32 1215.18 1930.97 1215.3 L1930.99 1219.67 Z" fill="#000000" fill-rule="nonzero" fill-opacity="1" /><path clip-path="url(#clip060)" d="M1956.59 1227.59 L1956.59 1229.67 L1937.01 1229.67 Q1937.29 1234.07 1939.65 1236.38 Q1942.03 1238.68 1946.27 1238.68 Q1948.72 1238.68 1951.01 1238.07 Q1953.33 1237.47 1955.6 1236.27 L1955.6 1240.3 Q1953.3 1241.27 1950.9 1241.78 Q1948.49 1242.29 1946.01 1242.29 Q1939.81 1242.29 1936.17 1238.68 Q1932.56 1235.07 1932.56 1228.91 Q1932.56 1222.54 1935.99 1218.82 Q1939.44 1215.07 1945.27 1215.07 Q1950.5 1215.07 1953.54 1218.45 Q1956.59 1221.8 1956.59 1227.59 M1952.33 1226.34 Q1952.29 1222.84 1950.36 1220.76 Q1948.47 1218.68 1945.32 1218.68 Q1941.75 1218.68 1939.6 1220.69 Q1937.47 1222.7 1937.15 1226.36 L1952.33 1226.34 Z" fill="#000000" fill-rule="nonzero" fill-opacity="1" /><path clip-path="url(#clip060)" d="M1980.64 1219.63 L1980.64 1205.6 L1984.9 1205.6 L1984.9 1241.62 L1980.64 1241.62 L1980.64 1237.73 Q1979.3 1240.04 1977.24 1241.18 Q1975.2 1242.29 1972.33 1242.29 Q1967.63 1242.29 1964.67 1238.54 Q1961.73 1234.79 1961.73 1228.68 Q1961.73 1222.57 1964.67 1218.82 Q1967.63 1215.07 1972.33 1215.07 Q1975.2 1215.07 1977.24 1216.2 Q1979.3 1217.31 1980.64 1219.63 M1966.13 1228.68 Q1966.13 1233.38 1968.05 1236.06 Q1969.99 1238.72 1973.37 1238.72 Q1976.75 1238.72 1978.7 1236.06 Q1980.64 1233.38 1980.64 1228.68 Q1980.64 1223.98 1978.7 1221.32 Q1976.75 1218.63 1973.37 1218.63 Q1969.99 1218.63 1968.05 1221.32 Q1966.13 1223.98 1966.13 1228.68 Z" fill="#000000" fill-rule="nonzero" fill-opacity="1" /><path clip-path="url(#clip060)" d="M1993.67 1215.69 L1997.93 1215.69 L1997.93 1241.62 L1993.67 1241.62 L1993.67 1215.69 M1993.67 1205.6 L1997.93 1205.6 L1997.93 1210.99 L1993.67 1210.99 L1993.67 1205.6 Z" fill="#000000" fill-rule="nonzero" fill-opacity="1" /><path clip-path="url(#clip060)" d="M2025.5 1216.69 L2025.5 1220.67 Q2023.7 1219.67 2021.87 1219.19 Q2020.06 1218.68 2018.21 1218.68 Q2014.07 1218.68 2011.78 1221.32 Q2009.48 1223.93 2009.48 1228.68 Q2009.48 1233.42 2011.78 1236.06 Q2014.07 1238.68 2018.21 1238.68 Q2020.06 1238.68 2021.87 1238.19 Q2023.7 1237.68 2025.5 1236.69 L2025.5 1240.62 Q2023.72 1241.45 2021.8 1241.87 Q2019.9 1242.29 2017.75 1242.29 Q2011.89 1242.29 2008.44 1238.61 Q2004.99 1234.93 2004.99 1228.68 Q2004.99 1222.33 2008.47 1218.7 Q2011.96 1215.07 2018.03 1215.07 Q2019.99 1215.07 2021.87 1215.48 Q2023.74 1215.88 2025.5 1216.69 Z" fill="#000000" fill-rule="nonzero" fill-opacity="1" /><path clip-path="url(#clip060)" d="M2037.12 1208.33 L2037.12 1215.69 L2045.9 1215.69 L2045.9 1219 L2037.12 1219 L2037.12 1233.07 Q2037.12 1236.25 2037.98 1237.15 Q2038.86 1238.05 2041.52 1238.05 L2045.9 1238.05 L2045.9 1241.62 L2041.52 1241.62 Q2036.59 1241.62 2034.72 1239.79 Q2032.84 1237.94 2032.84 1233.07 L2032.84 1219 L2029.72 1219 L2029.72 1215.69 L2032.84 1215.69 L2032.84 1208.33 L2037.12 1208.33 Z" fill="#000000" fill-rule="nonzero" fill-opacity="1" /><path clip-path="url(#clip060)" d="M2051.5 1215.69 L2055.76 1215.69 L2055.76 1241.62 L2051.5 1241.62 L2051.5 1215.69 M2051.5 1205.6 L2055.76 1205.6 L2055.76 1210.99 L2051.5 1210.99 L2051.5 1205.6 Z" fill="#000000" fill-rule="nonzero" fill-opacity="1" /><path clip-path="url(#clip060)" d="M2061.61 1215.69 L2066.13 1215.69 L2074.23 1237.45 L2082.33 1215.69 L2086.85 1215.69 L2077.12 1241.62 L2071.34 1241.62 L2061.61 1215.69 Z" fill="#000000" fill-rule="nonzero" fill-opacity="1" /><path clip-path="url(#clip060)" d="M2114.9 1227.59 L2114.9 1229.67 L2095.32 1229.67 Q2095.6 1234.07 2097.96 1236.38 Q2100.34 1238.68 2104.58 1238.68 Q2107.03 1238.68 2109.32 1238.07 Q2111.64 1237.47 2113.91 1236.27 L2113.91 1240.3 Q2111.61 1241.27 2109.21 1241.78 Q2106.8 1242.29 2104.32 1242.29 Q2098.12 1242.29 2094.48 1238.68 Q2090.87 1235.07 2090.87 1228.91 Q2090.87 1222.54 2094.3 1218.82 Q2097.75 1215.07 2103.58 1215.07 Q2108.81 1215.07 2111.85 1218.45 Q2114.9 1221.8 2114.9 1227.59 M2110.64 1226.34 Q2110.6 1222.84 2108.67 1220.76 Q2106.78 1218.68 2103.63 1218.68 Q2100.06 1218.68 2097.91 1220.69 Q2095.78 1222.7 2095.46 1226.36 L2110.64 1226.34 Z" fill="#000000" fill-rule="nonzero" fill-opacity="1" /><path clip-path="url(#clip060)" d="M1568.69 1253.42 L1545.94 1276.18 L1568.69 1298.93 L1591.45 1276.18 L1568.69 1253.42 Z" fill="#000000" fill-rule="evenodd" fill-opacity="1" stroke="none"/>
<path clip-path="url(#clip060)" d="M1679.83 1262.07 Q1674.74 1262.07 1671.73 1265.86 Q1668.75 1269.66 1668.75 1276.21 Q1668.75 1282.74 1671.73 1286.53 Q1674.74 1290.33 1679.83 1290.33 Q1684.93 1290.33 1687.89 1286.53 Q1690.88 1282.74 1690.88 1276.21 Q1690.88 1269.66 1687.89 1265.86 Q1684.93 1262.07 1679.83 1262.07 M1679.83 1258.27 Q1687.1 1258.27 1691.45 1263.16 Q1695.81 1268.02 1695.81 1276.21 Q1695.81 1284.38 1691.45 1289.27 Q1687.1 1294.13 1679.83 1294.13 Q1672.54 1294.13 1668.17 1289.27 Q1663.82 1284.41 1663.82 1276.21 Q1663.82 1268.02 1668.17 1263.16 Q1672.54 1258.27 1679.83 1258.27 Z" fill="#000000" fill-rule="nonzero" fill-opacity="1" /><path clip-path="url(#clip060)" d="M1721.55 1280.52 Q1721.55 1275.82 1719.6 1273.16 Q1717.68 1270.47 1714.3 1270.47 Q1710.92 1270.47 1708.98 1273.16 Q1707.06 1275.82 1707.06 1280.52 Q1707.06 1285.22 1708.98 1287.9 Q1710.92 1290.56 1714.3 1290.56 Q1717.68 1290.56 1719.6 1287.9 Q1721.55 1285.22 1721.55 1280.52 M1707.06 1271.47 Q1708.4 1269.15 1710.44 1268.04 Q1712.5 1266.91 1715.34 1266.91 Q1720.07 1266.91 1723 1270.66 Q1725.97 1274.41 1725.97 1280.52 Q1725.97 1286.63 1723 1290.38 Q1720.07 1294.13 1715.34 1294.13 Q1712.5 1294.13 1710.44 1293.02 Q1708.4 1291.88 1707.06 1289.57 L1707.06 1293.46 L1702.77 1293.46 L1702.77 1257.44 L1707.06 1257.44 L1707.06 1271.47 Z" fill="#000000" fill-rule="nonzero" fill-opacity="1" /><path clip-path="url(#clip060)" d="M1749.56 1268.29 L1749.56 1272.32 Q1747.75 1271.4 1745.81 1270.93 Q1743.86 1270.47 1741.78 1270.47 Q1738.61 1270.47 1737.01 1271.44 Q1735.44 1272.41 1735.44 1274.36 Q1735.44 1275.84 1736.57 1276.7 Q1737.7 1277.53 1741.13 1278.29 L1742.59 1278.62 Q1747.13 1279.59 1749.02 1281.37 Q1750.94 1283.13 1750.94 1286.3 Q1750.94 1289.91 1748.07 1292.02 Q1745.23 1294.13 1740.23 1294.13 Q1738.14 1294.13 1735.88 1293.71 Q1733.63 1293.32 1731.13 1292.51 L1731.13 1288.11 Q1733.49 1289.34 1735.78 1289.96 Q1738.07 1290.56 1740.32 1290.56 Q1743.33 1290.56 1744.95 1289.54 Q1746.57 1288.5 1746.57 1286.63 Q1746.57 1284.89 1745.39 1283.97 Q1744.23 1283.04 1740.27 1282.18 L1738.79 1281.84 Q1734.83 1281 1733.07 1279.29 Q1731.31 1277.55 1731.31 1274.54 Q1731.31 1270.89 1733.91 1268.9 Q1736.5 1266.91 1741.27 1266.91 Q1743.63 1266.91 1745.71 1267.25 Q1747.8 1267.6 1749.56 1268.29 Z" fill="#000000" fill-rule="nonzero" fill-opacity="1" /><path clip-path="url(#clip060)" d="M1779.9 1279.43 L1779.9 1281.51 L1760.32 1281.51 Q1760.6 1285.91 1762.96 1288.22 Q1765.34 1290.52 1769.58 1290.52 Q1772.03 1290.52 1774.32 1289.91 Q1776.64 1289.31 1778.91 1288.11 L1778.91 1292.14 Q1776.62 1293.11 1774.21 1293.62 Q1771.8 1294.13 1769.32 1294.13 Q1763.12 1294.13 1759.49 1290.52 Q1755.88 1286.91 1755.88 1280.75 Q1755.88 1274.38 1759.3 1270.66 Q1762.75 1266.91 1768.58 1266.91 Q1773.81 1266.91 1776.85 1270.29 Q1779.9 1273.64 1779.9 1279.43 M1775.64 1278.18 Q1775.6 1274.68 1773.68 1272.6 Q1771.78 1270.52 1768.63 1270.52 Q1765.06 1270.52 1762.91 1272.53 Q1760.78 1274.54 1760.46 1278.2 L1775.64 1278.18 Z" fill="#000000" fill-rule="nonzero" fill-opacity="1" /><path clip-path="url(#clip060)" d="M1801.92 1271.51 Q1801.2 1271.1 1800.34 1270.91 Q1799.51 1270.7 1798.49 1270.7 Q1794.88 1270.7 1792.94 1273.06 Q1791.01 1275.4 1791.01 1279.8 L1791.01 1293.46 L1786.73 1293.46 L1786.73 1267.53 L1791.01 1267.53 L1791.01 1271.56 Q1792.36 1269.2 1794.51 1268.06 Q1796.66 1266.91 1799.74 1266.91 Q1800.18 1266.91 1800.71 1266.97 Q1801.25 1267.02 1801.89 1267.14 L1801.92 1271.51 Z" fill="#000000" fill-rule="nonzero" fill-opacity="1" /><path clip-path="url(#clip060)" d="M1803.33 1267.53 L1807.84 1267.53 L1815.94 1289.29 L1824.05 1267.53 L1828.56 1267.53 L1818.84 1293.46 L1813.05 1293.46 L1803.33 1267.53 Z" fill="#000000" fill-rule="nonzero" fill-opacity="1" /><path clip-path="url(#clip060)" d="M1856.62 1279.43 L1856.62 1281.51 L1837.03 1281.51 Q1837.31 1285.91 1839.67 1288.22 Q1842.06 1290.52 1846.29 1290.52 Q1848.74 1290.52 1851.04 1289.91 Q1853.35 1289.31 1855.62 1288.11 L1855.62 1292.14 Q1853.33 1293.11 1850.92 1293.62 Q1848.51 1294.13 1846.04 1294.13 Q1839.83 1294.13 1836.2 1290.52 Q1832.59 1286.91 1832.59 1280.75 Q1832.59 1274.38 1836.01 1270.66 Q1839.46 1266.91 1845.3 1266.91 Q1850.53 1266.91 1853.56 1270.29 Q1856.62 1273.64 1856.62 1279.43 M1852.36 1278.18 Q1852.31 1274.68 1850.39 1272.6 Q1848.49 1270.52 1845.34 1270.52 Q1841.78 1270.52 1839.62 1272.53 Q1837.49 1274.54 1837.17 1278.2 L1852.36 1278.18 Z" fill="#000000" fill-rule="nonzero" fill-opacity="1" /><path clip-path="url(#clip060)" d="M1880.67 1271.47 L1880.67 1257.44 L1884.93 1257.44 L1884.93 1293.46 L1880.67 1293.46 L1880.67 1289.57 Q1879.32 1291.88 1877.26 1293.02 Q1875.23 1294.13 1872.36 1294.13 Q1867.66 1294.13 1864.69 1290.38 Q1861.75 1286.63 1861.75 1280.52 Q1861.75 1274.41 1864.69 1270.66 Q1867.66 1266.91 1872.36 1266.91 Q1875.23 1266.91 1877.26 1268.04 Q1879.32 1269.15 1880.67 1271.47 M1866.15 1280.52 Q1866.15 1285.22 1868.07 1287.9 Q1870.02 1290.56 1873.4 1290.56 Q1876.78 1290.56 1878.72 1287.9 Q1880.67 1285.22 1880.67 1280.52 Q1880.67 1275.82 1878.72 1273.16 Q1876.78 1270.47 1873.4 1270.47 Q1870.02 1270.47 1868.07 1273.16 Q1866.15 1275.82 1866.15 1280.52 Z" fill="#000000" fill-rule="nonzero" fill-opacity="1" /><path clip-path="url(#clip060)" d="M1545.94 1305.26 L1545.94 1350.77 L1591.45 1350.77 L1591.45 1305.26 L1545.94 1305.26 Z" fill="#ffa500" fill-rule="evenodd" fill-opacity="1" stroke="#000000" stroke-opacity="1" stroke-width="4.55111"/>
<path clip-path="url(#clip060)" d="M1668.49 1314.58 L1668.49 1327.56 L1674.37 1327.56 Q1677.63 1327.56 1679.42 1325.88 Q1681.2 1324.19 1681.2 1321.06 Q1681.2 1317.96 1679.42 1316.27 Q1677.63 1314.58 1674.37 1314.58 L1668.49 1314.58 M1663.82 1310.74 L1674.37 1310.74 Q1680.18 1310.74 1683.14 1313.38 Q1686.13 1315.99 1686.13 1321.06 Q1686.13 1326.18 1683.14 1328.79 Q1680.18 1331.41 1674.37 1331.41 L1668.49 1331.41 L1668.49 1345.3 L1663.82 1345.3 L1663.82 1310.74 Z" fill="#000000" fill-rule="nonzero" fill-opacity="1" /><path clip-path="url(#clip060)" d="M1700.57 1322.36 Q1697.15 1322.36 1695.16 1325.04 Q1693.17 1327.7 1693.17 1332.36 Q1693.17 1337.01 1695.13 1339.69 Q1697.13 1342.36 1700.57 1342.36 Q1703.98 1342.36 1705.97 1339.67 Q1707.96 1336.99 1707.96 1332.36 Q1707.96 1327.75 1705.97 1325.06 Q1703.98 1322.36 1700.57 1322.36 M1700.57 1318.75 Q1706.13 1318.75 1709.3 1322.36 Q1712.47 1325.97 1712.47 1332.36 Q1712.47 1338.72 1709.3 1342.36 Q1706.13 1345.97 1700.57 1345.97 Q1695 1345.97 1691.82 1342.36 Q1688.68 1338.72 1688.68 1332.36 Q1688.68 1325.97 1691.82 1322.36 Q1695 1318.75 1700.57 1318.75 Z" fill="#000000" fill-rule="nonzero" fill-opacity="1" /><path clip-path="url(#clip060)" d="M1736.06 1320.13 L1736.06 1324.16 Q1734.25 1323.24 1732.31 1322.77 Q1730.37 1322.31 1728.28 1322.31 Q1725.11 1322.31 1723.51 1323.28 Q1721.94 1324.25 1721.94 1326.2 Q1721.94 1327.68 1723.07 1328.54 Q1724.21 1329.37 1727.63 1330.13 L1729.09 1330.46 Q1733.63 1331.43 1735.53 1333.21 Q1737.45 1334.97 1737.45 1338.14 Q1737.45 1341.75 1734.58 1343.86 Q1731.73 1345.97 1726.73 1345.97 Q1724.65 1345.97 1722.38 1345.55 Q1720.13 1345.16 1717.63 1344.35 L1717.63 1339.95 Q1720 1341.18 1722.29 1341.8 Q1724.58 1342.4 1726.82 1342.4 Q1729.83 1342.4 1731.45 1341.38 Q1733.07 1340.34 1733.07 1338.47 Q1733.07 1336.73 1731.89 1335.81 Q1730.74 1334.88 1726.78 1334.02 L1725.3 1333.68 Q1721.34 1332.84 1719.58 1331.13 Q1717.82 1329.39 1717.82 1326.38 Q1717.82 1322.73 1720.41 1320.74 Q1723 1318.75 1727.77 1318.75 Q1730.13 1318.75 1732.22 1319.09 Q1734.3 1319.44 1736.06 1320.13 Z" fill="#000000" fill-rule="nonzero" fill-opacity="1" /><path clip-path="url(#clip060)" d="M1748.44 1312.01 L1748.44 1319.37 L1757.22 1319.37 L1757.22 1322.68 L1748.44 1322.68 L1748.44 1336.75 Q1748.44 1339.93 1749.3 1340.83 Q1750.18 1341.73 1752.84 1341.73 L1757.22 1341.73 L1757.22 1345.3 L1752.84 1345.3 Q1747.91 1345.3 1746.04 1343.47 Q1744.16 1341.62 1744.16 1336.75 L1744.16 1322.68 L1741.04 1322.68 L1741.04 1319.37 L1744.16 1319.37 L1744.16 1312.01 L1748.44 1312.01 Z" fill="#000000" fill-rule="nonzero" fill-opacity="1" /><path clip-path="url(#clip060)" d="M1785 1331.27 L1785 1333.35 L1765.41 1333.35 Q1765.69 1337.75 1768.05 1340.06 Q1770.44 1342.36 1774.67 1342.36 Q1777.12 1342.36 1779.42 1341.75 Q1781.73 1341.15 1784 1339.95 L1784 1343.98 Q1781.71 1344.95 1779.3 1345.46 Q1776.89 1345.97 1774.42 1345.97 Q1768.21 1345.97 1764.58 1342.36 Q1760.97 1338.75 1760.97 1332.59 Q1760.97 1326.22 1764.39 1322.5 Q1767.84 1318.75 1773.68 1318.75 Q1778.91 1318.75 1781.94 1322.13 Q1785 1325.48 1785 1331.27 M1780.74 1330.02 Q1780.69 1326.52 1778.77 1324.44 Q1776.87 1322.36 1773.72 1322.36 Q1770.16 1322.36 1768 1324.37 Q1765.87 1326.38 1765.55 1330.04 L1780.74 1330.02 Z" fill="#000000" fill-rule="nonzero" fill-opacity="1" /><path clip-path="url(#clip060)" d="M1807.01 1323.35 Q1806.29 1322.94 1805.43 1322.75 Q1804.6 1322.54 1803.58 1322.54 Q1799.97 1322.54 1798.03 1324.9 Q1796.11 1327.24 1796.11 1331.64 L1796.11 1345.3 L1791.82 1345.3 L1791.82 1319.37 L1796.11 1319.37 L1796.11 1323.4 Q1797.45 1321.04 1799.6 1319.9 Q1801.75 1318.75 1804.83 1318.75 Q1805.27 1318.75 1805.81 1318.81 Q1806.34 1318.86 1806.99 1318.98 L1807.01 1323.35 Z" fill="#000000" fill-rule="nonzero" fill-opacity="1" /><path clip-path="url(#clip060)" d="M1811.48 1319.37 L1815.74 1319.37 L1815.74 1345.3 L1811.48 1345.3 L1811.48 1319.37 M1811.48 1309.28 L1815.74 1309.28 L1815.74 1314.67 L1811.48 1314.67 L1811.48 1309.28 Z" fill="#000000" fill-rule="nonzero" fill-opacity="1" /><path clip-path="url(#clip060)" d="M1834.69 1322.36 Q1831.27 1322.36 1829.28 1325.04 Q1827.29 1327.7 1827.29 1332.36 Q1827.29 1337.01 1829.25 1339.69 Q1831.24 1342.36 1834.69 1342.36 Q1838.1 1342.36 1840.09 1339.67 Q1842.08 1336.99 1842.08 1332.36 Q1842.08 1327.75 1840.09 1325.06 Q1838.1 1322.36 1834.69 1322.36 M1834.69 1318.75 Q1840.25 1318.75 1843.42 1322.36 Q1846.59 1325.97 1846.59 1332.36 Q1846.59 1338.72 1843.42 1342.36 Q1840.25 1345.97 1834.69 1345.97 Q1829.12 1345.97 1825.94 1342.36 Q1822.8 1338.72 1822.8 1332.36 Q1822.8 1325.97 1825.94 1322.36 Q1829.12 1318.75 1834.69 1318.75 Z" fill="#000000" fill-rule="nonzero" fill-opacity="1" /><path clip-path="url(#clip060)" d="M1868.68 1323.35 Q1867.96 1322.94 1867.1 1322.75 Q1866.27 1322.54 1865.25 1322.54 Q1861.64 1322.54 1859.69 1324.9 Q1857.77 1327.24 1857.77 1331.64 L1857.77 1345.3 L1853.49 1345.3 L1853.49 1319.37 L1857.77 1319.37 L1857.77 1323.4 Q1859.12 1321.04 1861.27 1319.9 Q1863.42 1318.75 1866.5 1318.75 Q1866.94 1318.75 1867.47 1318.81 Q1868 1318.86 1868.65 1318.98 L1868.68 1323.35 Z" fill="#000000" fill-rule="nonzero" fill-opacity="1" /><path clip-path="url(#clip060)" d="M1893.07 1314.58 L1893.07 1327.56 L1898.95 1327.56 Q1902.22 1327.56 1904 1325.88 Q1905.78 1324.19 1905.78 1321.06 Q1905.78 1317.96 1904 1316.27 Q1902.22 1314.58 1898.95 1314.58 L1893.07 1314.58 M1888.4 1310.74 L1898.95 1310.74 Q1904.76 1310.74 1907.73 1313.38 Q1910.71 1315.99 1910.71 1321.06 Q1910.71 1326.18 1907.73 1328.79 Q1904.76 1331.41 1898.95 1331.41 L1893.07 1331.41 L1893.07 1345.3 L1888.4 1345.3 L1888.4 1310.74 Z" fill="#000000" fill-rule="nonzero" fill-opacity="1" /><path clip-path="url(#clip060)" d="M1930.99 1323.35 Q1930.27 1322.94 1929.42 1322.75 Q1928.58 1322.54 1927.56 1322.54 Q1923.95 1322.54 1922.01 1324.9 Q1920.09 1327.24 1920.09 1331.64 L1920.09 1345.3 L1915.8 1345.3 L1915.8 1319.37 L1920.09 1319.37 L1920.09 1323.4 Q1921.43 1321.04 1923.58 1319.9 Q1925.74 1318.75 1928.81 1318.75 Q1929.25 1318.75 1929.79 1318.81 Q1930.32 1318.86 1930.97 1318.98 L1930.99 1323.35 Z" fill="#000000" fill-rule="nonzero" fill-opacity="1" /><path clip-path="url(#clip060)" d="M1956.59 1331.27 L1956.59 1333.35 L1937.01 1333.35 Q1937.29 1337.75 1939.65 1340.06 Q1942.03 1342.36 1946.27 1342.36 Q1948.72 1342.36 1951.01 1341.75 Q1953.33 1341.15 1955.6 1339.95 L1955.6 1343.98 Q1953.3 1344.95 1950.9 1345.46 Q1948.49 1345.97 1946.01 1345.97 Q1939.81 1345.97 1936.17 1342.36 Q1932.56 1338.75 1932.56 1332.59 Q1932.56 1326.22 1935.99 1322.5 Q1939.44 1318.75 1945.27 1318.75 Q1950.5 1318.75 1953.54 1322.13 Q1956.59 1325.48 1956.59 1331.27 M1952.33 1330.02 Q1952.29 1326.52 1950.36 1324.44 Q1948.47 1322.36 1945.32 1322.36 Q1941.75 1322.36 1939.6 1324.37 Q1937.47 1326.38 1937.15 1330.04 L1952.33 1330.02 Z" fill="#000000" fill-rule="nonzero" fill-opacity="1" /><path clip-path="url(#clip060)" d="M1980.64 1323.31 L1980.64 1309.28 L1984.9 1309.28 L1984.9 1345.3 L1980.64 1345.3 L1980.64 1341.41 Q1979.3 1343.72 1977.24 1344.86 Q1975.2 1345.97 1972.33 1345.97 Q1967.63 1345.97 1964.67 1342.22 Q1961.73 1338.47 1961.73 1332.36 Q1961.73 1326.25 1964.67 1322.5 Q1967.63 1318.75 1972.33 1318.75 Q1975.2 1318.75 1977.24 1319.88 Q1979.3 1320.99 1980.64 1323.31 M1966.13 1332.36 Q1966.13 1337.06 1968.05 1339.74 Q1969.99 1342.4 1973.37 1342.4 Q1976.75 1342.4 1978.7 1339.74 Q1980.64 1337.06 1980.64 1332.36 Q1980.64 1327.66 1978.7 1325 Q1976.75 1322.31 1973.37 1322.31 Q1969.99 1322.31 1968.05 1325 Q1966.13 1327.66 1966.13 1332.36 Z" fill="#000000" fill-rule="nonzero" fill-opacity="1" /><path clip-path="url(#clip060)" d="M1993.67 1319.37 L1997.93 1319.37 L1997.93 1345.3 L1993.67 1345.3 L1993.67 1319.37 M1993.67 1309.28 L1997.93 1309.28 L1997.93 1314.67 L1993.67 1314.67 L1993.67 1309.28 Z" fill="#000000" fill-rule="nonzero" fill-opacity="1" /><path clip-path="url(#clip060)" d="M2025.5 1320.37 L2025.5 1324.35 Q2023.7 1323.35 2021.87 1322.87 Q2020.06 1322.36 2018.21 1322.36 Q2014.07 1322.36 2011.78 1325 Q2009.48 1327.61 2009.48 1332.36 Q2009.48 1337.1 2011.78 1339.74 Q2014.07 1342.36 2018.21 1342.36 Q2020.06 1342.36 2021.87 1341.87 Q2023.7 1341.36 2025.5 1340.37 L2025.5 1344.3 Q2023.72 1345.13 2021.8 1345.55 Q2019.9 1345.97 2017.75 1345.97 Q2011.89 1345.97 2008.44 1342.29 Q2004.99 1338.61 2004.99 1332.36 Q2004.99 1326.01 2008.47 1322.38 Q2011.96 1318.75 2018.03 1318.75 Q2019.99 1318.75 2021.87 1319.16 Q2023.74 1319.56 2025.5 1320.37 Z" fill="#000000" fill-rule="nonzero" fill-opacity="1" /><path clip-path="url(#clip060)" d="M2037.12 1312.01 L2037.12 1319.37 L2045.9 1319.37 L2045.9 1322.68 L2037.12 1322.68 L2037.12 1336.75 Q2037.12 1339.93 2037.98 1340.83 Q2038.86 1341.73 2041.52 1341.73 L2045.9 1341.73 L2045.9 1345.3 L2041.52 1345.3 Q2036.59 1345.3 2034.72 1343.47 Q2032.84 1341.62 2032.84 1336.75 L2032.84 1322.68 L2029.72 1322.68 L2029.72 1319.37 L2032.84 1319.37 L2032.84 1312.01 L2037.12 1312.01 Z" fill="#000000" fill-rule="nonzero" fill-opacity="1" /><path clip-path="url(#clip060)" d="M2051.5 1319.37 L2055.76 1319.37 L2055.76 1345.3 L2051.5 1345.3 L2051.5 1319.37 M2051.5 1309.28 L2055.76 1309.28 L2055.76 1314.67 L2051.5 1314.67 L2051.5 1309.28 Z" fill="#000000" fill-rule="nonzero" fill-opacity="1" /><path clip-path="url(#clip060)" d="M2061.61 1319.37 L2066.13 1319.37 L2074.23 1341.13 L2082.33 1319.37 L2086.85 1319.37 L2077.12 1345.3 L2071.34 1345.3 L2061.61 1319.37 Z" fill="#000000" fill-rule="nonzero" fill-opacity="1" /><path clip-path="url(#clip060)" d="M2114.9 1331.27 L2114.9 1333.35 L2095.32 1333.35 Q2095.6 1337.75 2097.96 1340.06 Q2100.34 1342.36 2104.58 1342.36 Q2107.03 1342.36 2109.32 1341.75 Q2111.64 1341.15 2113.91 1339.95 L2113.91 1343.98 Q2111.61 1344.95 2109.21 1345.46 Q2106.8 1345.97 2104.32 1345.97 Q2098.12 1345.97 2094.48 1342.36 Q2090.87 1338.75 2090.87 1332.59 Q2090.87 1326.22 2094.3 1322.5 Q2097.75 1318.75 2103.58 1318.75 Q2108.81 1318.75 2111.85 1322.13 Q2114.9 1325.48 2114.9 1331.27 M2110.64 1330.02 Q2110.6 1326.52 2108.67 1324.44 Q2106.78 1322.36 2103.63 1322.36 Q2100.06 1322.36 2097.91 1324.37 Q2095.78 1326.38 2095.46 1330.04 L2110.64 1330.02 Z" fill="#000000" fill-rule="nonzero" fill-opacity="1" /><path clip-path="url(#clip060)" d="M2137.15 1310.74 L2144.11 1310.74 L2152.93 1334.25 L2161.8 1310.74 L2168.77 1310.74 L2168.77 1345.3 L2164.21 1345.3 L2164.21 1314.95 L2155.29 1338.65 L2150.6 1338.65 L2141.68 1314.95 L2141.68 1345.3 L2137.15 1345.3 L2137.15 1310.74 Z" fill="#000000" fill-rule="nonzero" fill-opacity="1" /><path clip-path="url(#clip060)" d="M2200.04 1331.27 L2200.04 1333.35 L2180.46 1333.35 Q2180.73 1337.75 2183.09 1340.06 Q2185.48 1342.36 2189.72 1342.36 Q2192.17 1342.36 2194.46 1341.75 Q2196.78 1341.15 2199.04 1339.95 L2199.04 1343.98 Q2196.75 1344.95 2194.34 1345.46 Q2191.94 1345.97 2189.46 1345.97 Q2183.26 1345.97 2179.62 1342.36 Q2176.01 1338.75 2176.01 1332.59 Q2176.01 1326.22 2179.44 1322.5 Q2182.89 1318.75 2188.72 1318.75 Q2193.95 1318.75 2196.98 1322.13 Q2200.04 1325.48 2200.04 1331.27 M2195.78 1330.02 Q2195.73 1326.52 2193.81 1324.44 Q2191.91 1322.36 2188.77 1322.36 Q2185.2 1322.36 2183.05 1324.37 Q2180.92 1326.38 2180.59 1330.04 L2195.78 1330.02 Z" fill="#000000" fill-rule="nonzero" fill-opacity="1" /><path clip-path="url(#clip060)" d="M2218.81 1332.26 Q2213.65 1332.26 2211.66 1333.44 Q2209.67 1334.63 2209.67 1337.47 Q2209.67 1339.74 2211.15 1341.08 Q2212.65 1342.4 2215.22 1342.4 Q2218.77 1342.4 2220.9 1339.9 Q2223.05 1337.38 2223.05 1333.21 L2223.05 1332.26 L2218.81 1332.26 M2227.31 1330.5 L2227.31 1345.3 L2223.05 1345.3 L2223.05 1341.36 Q2221.59 1343.72 2219.41 1344.86 Q2217.24 1345.97 2214.09 1345.97 Q2210.11 1345.97 2207.75 1343.75 Q2205.41 1341.5 2205.41 1337.75 Q2205.41 1333.38 2208.33 1331.15 Q2211.27 1328.93 2217.08 1328.93 L2223.05 1328.93 L2223.05 1328.51 Q2223.05 1325.57 2221.1 1323.98 Q2219.18 1322.36 2215.69 1322.36 Q2213.47 1322.36 2211.36 1322.89 Q2209.25 1323.42 2207.31 1324.49 L2207.31 1320.55 Q2209.65 1319.65 2211.84 1319.21 Q2214.04 1318.75 2216.13 1318.75 Q2221.75 1318.75 2224.53 1321.66 Q2227.31 1324.58 2227.31 1330.5 Z" fill="#000000" fill-rule="nonzero" fill-opacity="1" /><path clip-path="url(#clip060)" d="M2257.63 1329.65 L2257.63 1345.3 L2253.37 1345.3 L2253.37 1329.79 Q2253.37 1326.11 2251.94 1324.28 Q2250.5 1322.45 2247.63 1322.45 Q2244.18 1322.45 2242.19 1324.65 Q2240.2 1326.85 2240.2 1330.64 L2240.2 1345.3 L2235.92 1345.3 L2235.92 1319.37 L2240.2 1319.37 L2240.2 1323.4 Q2241.73 1321.06 2243.79 1319.9 Q2245.87 1318.75 2248.58 1318.75 Q2253.05 1318.75 2255.34 1321.52 Q2257.63 1324.28 2257.63 1329.65 Z" fill="#000000" fill-rule="nonzero" fill-opacity="1" /></svg>
