<?xml version="1.0" encoding="utf-8"?>
<svg xmlns="http://www.w3.org/2000/svg" xmlns:xlink="http://www.w3.org/1999/xlink" width="600" height="400" viewBox="0 0 2400 1600">
<defs>
  <clipPath id="clip880">
    <rect x="0" y="0" width="2400" height="1600"/>
  </clipPath>
</defs>
<path clip-path="url(#clip880)" d="M0 1600 L2400 1600 L2400 0 L0 0  Z" fill="#ffffff" fill-rule="evenodd" fill-opacity="1"/>
<defs>
  <clipPath id="clip881">
    <rect x="480" y="0" width="1681" height="1600"/>
  </clipPath>
</defs>
<path clip-path="url(#clip880)" d="M181.927 1486.45 L2352.76 1486.45 L2352.76 47.2441 L181.927 47.2441  Z" fill="#ffffff" fill-rule="evenodd" fill-opacity="1"/>
<defs>
  <clipPath id="clip882">
    <rect x="181" y="47" width="2172" height="1440"/>
  </clipPath>
</defs>
<polyline clip-path="url(#clip882)" style="stroke:#000000; stroke-linecap:round; stroke-linejoin:round; stroke-width:2; stroke-opacity:0.1; fill:none" points="278.792,1486.45 278.792,47.2441 "/>
<polyline clip-path="url(#clip882)" style="stroke:#000000; stroke-linecap:round; stroke-linejoin:round; stroke-width:2; stroke-opacity:0.1; fill:none" points="766.498,1486.45 766.498,47.2441 "/>
<polyline clip-path="url(#clip882)" style="stroke:#000000; stroke-linecap:round; stroke-linejoin:round; stroke-width:2; stroke-opacity:0.1; fill:none" points="1254.2,1486.45 1254.2,47.2441 "/>
<polyline clip-path="url(#clip882)" style="stroke:#000000; stroke-linecap:round; stroke-linejoin:round; stroke-width:2; stroke-opacity:0.1; fill:none" points="1741.91,1486.45 1741.91,47.2441 "/>
<polyline clip-path="url(#clip882)" style="stroke:#000000; stroke-linecap:round; stroke-linejoin:round; stroke-width:2; stroke-opacity:0.1; fill:none" points="2229.62,1486.45 2229.62,47.2441 "/>
<polyline clip-path="url(#clip882)" style="stroke:#000000; stroke-linecap:round; stroke-linejoin:round; stroke-width:2; stroke-opacity:0.1; fill:none" points="181.927,1445.72 2352.76,1445.72 "/>
<polyline clip-path="url(#clip882)" style="stroke:#000000; stroke-linecap:round; stroke-linejoin:round; stroke-width:2; stroke-opacity:0.1; fill:none" points="181.927,766.846 2352.76,766.846 "/>
<polyline clip-path="url(#clip882)" style="stroke:#000000; stroke-linecap:round; stroke-linejoin:round; stroke-width:2; stroke-opacity:0.1; fill:none" points="181.927,87.9763 2352.76,87.9763 "/>
<polyline clip-path="url(#clip880)" style="stroke:#000000; stroke-linecap:round; stroke-linejoin:round; stroke-width:4; stroke-opacity:1; fill:none" points="181.927,1486.45 2352.76,1486.45 "/>
<polyline clip-path="url(#clip880)" style="stroke:#000000; stroke-linecap:round; stroke-linejoin:round; stroke-width:4; stroke-opacity:1; fill:none" points="278.792,1486.45 278.792,1467.55 "/>
<polyline clip-path="url(#clip880)" style="stroke:#000000; stroke-linecap:round; stroke-linejoin:round; stroke-width:4; stroke-opacity:1; fill:none" points="766.498,1486.45 766.498,1467.55 "/>
<polyline clip-path="url(#clip880)" style="stroke:#000000; stroke-linecap:round; stroke-linejoin:round; stroke-width:4; stroke-opacity:1; fill:none" points="1254.2,1486.45 1254.2,1467.55 "/>
<polyline clip-path="url(#clip880)" style="stroke:#000000; stroke-linecap:round; stroke-linejoin:round; stroke-width:4; stroke-opacity:1; fill:none" points="1741.91,1486.45 1741.91,1467.55 "/>
<polyline clip-path="url(#clip880)" style="stroke:#000000; stroke-linecap:round; stroke-linejoin:round; stroke-width:4; stroke-opacity:1; fill:none" points="2229.62,1486.45 2229.62,1467.55 "/>
<path clip-path="url(#clip880)" d="M278.792 1517.37 Q275.181 1517.37 273.353 1520.93 Q271.547 1524.47 271.547 1531.6 Q271.547 1538.71 273.353 1542.27 Q275.181 1545.82 278.792 1545.82 Q282.427 1545.82 284.232 1542.27 Q286.061 1538.71 286.061 1531.6 Q286.061 1524.47 284.232 1520.93 Q282.427 1517.37 278.792 1517.37 M278.792 1513.66 Q284.602 1513.66 287.658 1518.27 Q290.737 1522.85 290.737 1531.6 Q290.737 1540.33 287.658 1544.94 Q284.602 1549.52 278.792 1549.52 Q272.982 1549.52 269.903 1544.94 Q266.848 1540.33 266.848 1531.6 Q266.848 1522.85 269.903 1518.27 Q272.982 1513.66 278.792 1513.66 Z" fill="#000000" fill-rule="nonzero" fill-opacity="1" /><path clip-path="url(#clip880)" d="M756.88 1544.91 L764.519 1544.91 L764.519 1518.55 L756.209 1520.21 L756.209 1515.95 L764.473 1514.29 L769.149 1514.29 L769.149 1544.91 L776.788 1544.91 L776.788 1548.85 L756.88 1548.85 L756.88 1544.91 Z" fill="#000000" fill-rule="nonzero" fill-opacity="1" /><path clip-path="url(#clip880)" d="M1248.86 1544.91 L1265.18 1544.91 L1265.18 1548.85 L1243.23 1548.85 L1243.23 1544.91 Q1245.89 1542.16 1250.48 1537.53 Q1255.08 1532.88 1256.26 1531.53 Q1258.51 1529.01 1259.39 1527.27 Q1260.29 1525.51 1260.29 1523.82 Q1260.29 1521.07 1258.35 1519.33 Q1256.43 1517.6 1253.32 1517.6 Q1251.13 1517.6 1248.67 1518.36 Q1246.24 1519.13 1243.46 1520.68 L1243.46 1515.95 Q1246.29 1514.82 1248.74 1514.24 Q1251.2 1513.66 1253.23 1513.66 Q1258.6 1513.66 1261.8 1516.35 Q1264.99 1519.03 1264.99 1523.52 Q1264.99 1525.65 1264.18 1527.57 Q1263.39 1529.47 1261.29 1532.07 Q1260.71 1532.74 1257.61 1535.95 Q1254.51 1539.15 1248.86 1544.91 Z" fill="#000000" fill-rule="nonzero" fill-opacity="1" /><path clip-path="url(#clip880)" d="M1746.16 1530.21 Q1749.51 1530.93 1751.39 1533.2 Q1753.29 1535.47 1753.29 1538.8 Q1753.29 1543.92 1749.77 1546.72 Q1746.25 1549.52 1739.77 1549.52 Q1737.59 1549.52 1735.28 1549.08 Q1732.99 1548.66 1730.53 1547.81 L1730.53 1543.29 Q1732.48 1544.43 1734.79 1545.01 Q1737.11 1545.58 1739.63 1545.58 Q1744.03 1545.58 1746.32 1543.85 Q1748.64 1542.11 1748.64 1538.8 Q1748.64 1535.75 1746.48 1534.03 Q1744.35 1532.3 1740.53 1532.3 L1736.51 1532.3 L1736.51 1528.45 L1740.72 1528.45 Q1744.17 1528.45 1746 1527.09 Q1747.82 1525.7 1747.82 1523.11 Q1747.82 1520.45 1745.93 1519.03 Q1744.05 1517.6 1740.53 1517.6 Q1738.61 1517.6 1736.41 1518.01 Q1734.21 1518.43 1731.58 1519.31 L1731.58 1515.14 Q1734.24 1514.4 1736.55 1514.03 Q1738.89 1513.66 1740.95 1513.66 Q1746.27 1513.66 1749.38 1516.09 Q1752.48 1518.5 1752.48 1522.62 Q1752.48 1525.49 1750.83 1527.48 Q1749.19 1529.45 1746.16 1530.21 Z" fill="#000000" fill-rule="nonzero" fill-opacity="1" /><path clip-path="url(#clip880)" d="M2232.63 1518.36 L2220.82 1536.81 L2232.63 1536.81 L2232.63 1518.36 M2231.4 1514.29 L2237.28 1514.29 L2237.28 1536.81 L2242.21 1536.81 L2242.21 1540.7 L2237.28 1540.7 L2237.28 1548.85 L2232.63 1548.85 L2232.63 1540.7 L2217.02 1540.7 L2217.02 1536.19 L2231.4 1514.29 Z" fill="#000000" fill-rule="nonzero" fill-opacity="1" /><polyline clip-path="url(#clip880)" style="stroke:#000000; stroke-linecap:round; stroke-linejoin:round; stroke-width:4; stroke-opacity:1; fill:none" points="181.927,1486.45 181.927,47.2441 "/>
<polyline clip-path="url(#clip880)" style="stroke:#000000; stroke-linecap:round; stroke-linejoin:round; stroke-width:4; stroke-opacity:1; fill:none" points="181.927,1445.72 200.824,1445.72 "/>
<polyline clip-path="url(#clip880)" style="stroke:#000000; stroke-linecap:round; stroke-linejoin:round; stroke-width:4; stroke-opacity:1; fill:none" points="181.927,766.846 200.824,766.846 "/>
<polyline clip-path="url(#clip880)" style="stroke:#000000; stroke-linecap:round; stroke-linejoin:round; stroke-width:4; stroke-opacity:1; fill:none" points="181.927,87.9763 200.824,87.9763 "/>
<path clip-path="url(#clip880)" d="M145.927 1431.1 L145.927 1436.03 Q143.566 1433.83 140.88 1432.74 Q138.218 1431.65 135.209 1431.65 Q129.283 1431.65 126.135 1435.29 Q122.987 1438.9 122.987 1445.75 Q122.987 1452.58 126.135 1456.21 Q129.283 1459.82 135.209 1459.82 Q138.218 1459.82 140.88 1458.74 Q143.566 1457.65 145.927 1455.45 L145.927 1460.33 Q143.473 1462 140.718 1462.83 Q137.987 1463.67 134.931 1463.67 Q127.084 1463.67 122.57 1458.88 Q118.056 1454.06 118.056 1445.75 Q118.056 1437.42 122.57 1432.63 Q127.084 1427.81 134.931 1427.81 Q138.033 1427.81 140.765 1428.64 Q143.519 1429.45 145.927 1431.1 Z" fill="#000000" fill-rule="nonzero" fill-opacity="1" /><path clip-path="url(#clip880)" d="M126.089 767.621 L126.089 780.283 L133.589 780.283 Q137.362 780.283 139.167 778.732 Q140.996 777.158 140.996 773.941 Q140.996 770.7 139.167 769.172 Q137.362 767.621 133.589 767.621 L126.089 767.621 M126.089 753.409 L126.089 763.825 L133.01 763.825 Q136.436 763.825 138.103 762.552 Q139.792 761.256 139.792 758.617 Q139.792 756.001 138.103 754.705 Q136.436 753.409 133.01 753.409 L126.089 753.409 M121.413 749.566 L133.357 749.566 Q138.704 749.566 141.598 751.788 Q144.491 754.01 144.491 758.108 Q144.491 761.279 143.01 763.154 Q141.529 765.029 138.658 765.492 Q142.107 766.233 144.005 768.594 Q145.927 770.932 145.927 774.45 Q145.927 779.08 142.779 781.603 Q139.63 784.126 133.82 784.126 L121.413 784.126 L121.413 749.566 Z" fill="#000000" fill-rule="nonzero" fill-opacity="1" /><path clip-path="url(#clip880)" d="M130.093 75.3027 L123.751 92.5017 L136.459 92.5017 L130.093 75.3027 M127.455 70.6963 L132.755 70.6963 L145.927 105.256 L141.066 105.256 L137.917 96.3906 L122.339 96.3906 L119.191 105.256 L114.26 105.256 L127.455 70.6963 Z" fill="#000000" fill-rule="nonzero" fill-opacity="1" /><path clip-path="url(#clip880)" d="M21.7677 942.173 L39.6235 942.173 L39.6235 934.089 Q39.6235 929.601 37.3 927.15 Q34.9765 924.7 30.6797 924.7 Q26.4147 924.7 24.0912 927.15 Q21.7677 929.601 21.7677 934.089 L21.7677 942.173 M16.4842 948.603 L16.4842 934.089 Q16.4842 926.1 20.1126 922.026 Q23.7092 917.92 30.6797 917.92 Q37.7138 917.92 41.3104 922.026 Q44.907 926.1 44.907 934.089 L44.907 942.173 L64.0042 942.173 L64.0042 948.603 L16.4842 948.603 Z" fill="#000000" fill-rule="nonzero" fill-opacity="1" /><path clip-path="url(#clip880)" d="M46.0847 896.277 Q46.0847 903.374 47.7079 906.112 Q49.3312 908.849 53.2461 908.849 Q56.3653 908.849 58.2114 906.812 Q60.0256 904.743 60.0256 901.21 Q60.0256 896.34 56.5881 893.412 Q53.1188 890.452 47.3897 890.452 L46.0847 890.452 L46.0847 896.277 M43.6657 884.596 L64.0042 884.596 L64.0042 890.452 L58.5933 890.452 Q61.8398 892.457 63.3994 895.449 Q64.9272 898.441 64.9272 902.77 Q64.9272 908.244 61.8716 911.491 Q58.7843 914.705 53.6281 914.705 Q47.6125 914.705 44.5569 910.695 Q41.5014 906.653 41.5014 898.664 L41.5014 890.452 L40.9285 890.452 Q36.8862 890.452 34.6901 893.126 Q32.4621 895.767 32.4621 900.574 Q32.4621 903.629 33.1941 906.526 Q33.9262 909.422 35.3903 912.095 L29.9795 912.095 Q28.7381 908.881 28.1334 905.857 Q27.4968 902.833 27.4968 899.969 Q27.4968 892.234 31.5072 888.415 Q35.5176 884.596 43.6657 884.596 Z" fill="#000000" fill-rule="nonzero" fill-opacity="1" /><path clip-path="url(#clip880)" d="M33.8307 851.876 Q33.2578 852.863 33.0032 854.04 Q32.7167 855.186 32.7167 856.587 Q32.7167 861.552 35.9632 864.225 Q39.1779 866.867 45.2253 866.867 L64.0042 866.867 L64.0042 872.755 L28.3562 872.755 L28.3562 866.867 L33.8944 866.867 Q30.6479 865.021 29.0883 862.061 Q27.4968 859.101 27.4968 854.868 Q27.4968 854.263 27.5923 853.531 Q27.656 852.799 27.8151 851.908 L33.8307 851.876 Z" fill="#000000" fill-rule="nonzero" fill-opacity="1" /><path clip-path="url(#clip880)" d="M46.0847 829.532 Q46.0847 836.63 47.7079 839.367 Q49.3312 842.105 53.2461 842.105 Q56.3653 842.105 58.2114 840.068 Q60.0256 837.999 60.0256 834.466 Q60.0256 829.596 56.5881 826.668 Q53.1188 823.708 47.3897 823.708 L46.0847 823.708 L46.0847 829.532 M43.6657 817.851 L64.0042 817.851 L64.0042 823.708 L58.5933 823.708 Q61.8398 825.713 63.3994 828.705 Q64.9272 831.697 64.9272 836.025 Q64.9272 841.5 61.8716 844.746 Q58.7843 847.961 53.6281 847.961 Q47.6125 847.961 44.5569 843.951 Q41.5014 839.908 41.5014 831.919 L41.5014 823.708 L40.9285 823.708 Q36.8862 823.708 34.6901 826.381 Q32.4621 829.023 32.4621 833.829 Q32.4621 836.885 33.1941 839.781 Q33.9262 842.677 35.3903 845.351 L29.9795 845.351 Q28.7381 842.136 28.1334 839.113 Q27.4968 836.089 27.4968 833.224 Q27.4968 825.49 31.5072 821.671 Q35.5176 817.851 43.6657 817.851 Z" fill="#000000" fill-rule="nonzero" fill-opacity="1" /><path clip-path="url(#clip880)" d="M35.1993 778.034 Q31.2526 775.838 29.3747 772.782 Q27.4968 769.726 27.4968 765.589 Q27.4968 760.019 31.4117 756.995 Q35.2948 753.971 42.4881 753.971 L64.0042 753.971 L64.0042 759.86 L42.679 759.86 Q37.5546 759.86 35.072 761.674 Q32.5894 763.488 32.5894 767.212 Q32.5894 771.763 35.6131 774.405 Q38.6368 777.047 43.8567 777.047 L64.0042 777.047 L64.0042 782.935 L42.679 782.935 Q37.5228 782.935 35.072 784.75 Q32.5894 786.564 32.5894 790.351 Q32.5894 794.839 35.6449 797.481 Q38.6686 800.123 43.8567 800.123 L64.0042 800.123 L64.0042 806.011 L28.3562 806.011 L28.3562 800.123 L33.8944 800.123 Q30.616 798.118 29.0564 795.317 Q27.4968 792.516 27.4968 788.664 Q27.4968 784.781 29.4702 782.076 Q31.4436 779.339 35.1993 778.034 Z" fill="#000000" fill-rule="nonzero" fill-opacity="1" /><path clip-path="url(#clip880)" d="M44.7161 711.799 L47.5806 711.799 L47.5806 738.725 Q53.6281 738.344 56.8109 735.097 Q59.9619 731.819 59.9619 725.994 Q59.9619 722.62 59.1344 719.469 Q58.3069 716.286 56.6518 713.167 L62.1899 713.167 Q63.5267 716.318 64.227 719.628 Q64.9272 722.939 64.9272 726.344 Q64.9272 734.874 59.9619 739.871 Q54.9967 744.837 46.5303 744.837 Q37.7774 744.837 32.6531 740.126 Q27.4968 735.383 27.4968 727.363 Q27.4968 720.169 32.1438 716 Q36.7589 711.799 44.7161 711.799 M42.9973 717.655 Q38.1912 717.719 35.3266 720.36 Q32.4621 722.97 32.4621 727.299 Q32.4621 732.201 35.2312 735.161 Q38.0002 738.089 43.0292 738.535 L42.9973 717.655 Z" fill="#000000" fill-rule="nonzero" fill-opacity="1" /><path clip-path="url(#clip880)" d="M18.2347 696.394 L28.3562 696.394 L28.3562 684.331 L32.9077 684.331 L32.9077 696.394 L52.2594 696.394 Q56.6199 696.394 57.8613 695.216 Q59.1026 694.006 59.1026 690.346 L59.1026 684.331 L64.0042 684.331 L64.0042 690.346 Q64.0042 697.126 61.4897 699.704 Q58.9434 702.282 52.2594 702.282 L32.9077 702.282 L32.9077 706.579 L28.3562 706.579 L28.3562 702.282 L18.2347 702.282 L18.2347 696.394 Z" fill="#000000" fill-rule="nonzero" fill-opacity="1" /><path clip-path="url(#clip880)" d="M44.7161 646.136 L47.5806 646.136 L47.5806 673.063 Q53.6281 672.681 56.8109 669.435 Q59.9619 666.156 59.9619 660.332 Q59.9619 656.958 59.1344 653.807 Q58.3069 650.624 56.6518 647.505 L62.1899 647.505 Q63.5267 650.656 64.227 653.966 Q64.9272 657.276 64.9272 660.682 Q64.9272 669.212 59.9619 674.209 Q54.9967 679.174 46.5303 679.174 Q37.7774 679.174 32.6531 674.464 Q27.4968 669.721 27.4968 661.7 Q27.4968 654.507 32.1438 650.338 Q36.7589 646.136 44.7161 646.136 M42.9973 651.993 Q38.1912 652.056 35.3266 654.698 Q32.4621 657.308 32.4621 661.637 Q32.4621 666.538 35.2312 669.498 Q38.0002 672.427 43.0292 672.872 L42.9973 651.993 Z" fill="#000000" fill-rule="nonzero" fill-opacity="1" /><path clip-path="url(#clip880)" d="M33.8307 615.867 Q33.2578 616.854 33.0032 618.032 Q32.7167 619.178 32.7167 620.578 Q32.7167 625.543 35.9632 628.217 Q39.1779 630.859 45.2253 630.859 L64.0042 630.859 L64.0042 636.747 L28.3562 636.747 L28.3562 630.859 L33.8944 630.859 Q30.6479 629.013 29.0883 626.052 Q27.4968 623.092 27.4968 618.859 Q27.4968 618.254 27.5923 617.522 Q27.656 616.79 27.8151 615.899 L33.8307 615.867 Z" fill="#000000" fill-rule="nonzero" fill-opacity="1" /><path clip-path="url(#clip880)" d="M29.4065 586.999 L34.9447 586.999 Q33.6716 589.481 33.035 592.155 Q32.3984 594.829 32.3984 597.693 Q32.3984 602.054 33.7352 604.25 Q35.072 606.414 37.7456 606.414 Q39.7826 606.414 40.9603 604.855 Q42.1061 603.295 43.1565 598.584 L43.6021 596.579 Q44.9389 590.341 47.3897 587.731 Q49.8086 585.089 54.1691 585.089 Q59.1344 585.089 62.0308 589.036 Q64.9272 592.951 64.9272 599.826 Q64.9272 602.69 64.3543 605.81 Q63.8132 608.897 62.6992 612.334 L56.6518 612.334 Q58.3387 609.088 59.198 605.937 Q60.0256 602.786 60.0256 599.698 Q60.0256 595.561 58.6251 593.333 Q57.1929 591.105 54.6147 591.105 Q52.2276 591.105 50.9545 592.728 Q49.6813 594.319 48.5037 599.762 L48.0262 601.799 Q46.8804 607.242 44.5251 609.661 Q42.138 612.08 38.0002 612.08 Q32.9713 612.08 30.2341 608.515 Q27.4968 604.95 27.4968 598.393 Q27.4968 595.147 27.9743 592.282 Q28.4517 589.418 29.4065 586.999 Z" fill="#000000" fill-rule="nonzero" fill-opacity="1" /><polyline clip-path="url(#clip882)" style="stroke:#009af9; stroke-linecap:round; stroke-linejoin:round; stroke-width:6; stroke-opacity:0.8; fill:none" points="1540.08,1445.72 1911.57,1445.72 "/>
<circle clip-path="url(#clip882)" style="fill:#009af9; stroke:none; fill-opacity:0.8" cx="1540.08" cy="1445.72" r="2"/>
<circle clip-path="url(#clip882)" style="fill:#009af9; stroke:none; fill-opacity:0.8" cx="1911.57" cy="1445.72" r="2"/>
<polyline clip-path="url(#clip882)" style="stroke:#e26f46; stroke-linecap:round; stroke-linejoin:round; stroke-width:12; stroke-opacity:0.8; fill:none" points="1595.96,1445.72 1839.34,1445.72 "/>
<circle clip-path="url(#clip882)" style="fill:#e26f46; stroke:none; fill-opacity:0.8" cx="1595.96" cy="1445.72" r="2"/>
<circle clip-path="url(#clip882)" style="fill:#e26f46; stroke:none; fill-opacity:0.8" cx="1839.34" cy="1445.72" r="2"/>
<polyline clip-path="url(#clip882)" style="stroke:#3da44d; stroke-linecap:round; stroke-linejoin:round; stroke-width:18; stroke-opacity:0.8; fill:none" points="1687.13,1445.72 1780.9,1445.72 "/>
<circle clip-path="url(#clip882)" style="fill:#3da44d; stroke:none; fill-opacity:0.8" cx="1687.13" cy="1445.72" r="2"/>
<circle clip-path="url(#clip882)" style="fill:#3da44d; stroke:none; fill-opacity:0.8" cx="1780.9" cy="1445.72" r="2"/>
<path clip-path="url(#clip882)" d="M1740.27 1433.72 L1728.27 1445.72 L1740.27 1457.72 L1752.27 1445.72 L1740.27 1433.72 Z" fill="#000000" fill-rule="evenodd" fill-opacity="1" stroke="none"/>
<circle clip-path="url(#clip882)" cx="1710.12" cy="1445.72" r="10.8" fill="#808080" fill-rule="evenodd" fill-opacity="1" stroke="#000000" stroke-opacity="1" stroke-width="3.2"/>
<circle clip-path="url(#clip882)" style="fill:#000000; stroke:none; fill-opacity:1" cx="1740.27" cy="1445.72" r="2"/>
<polyline clip-path="url(#clip882)" style="stroke:#000000; stroke-linecap:round; stroke-linejoin:round; stroke-width:0; stroke-opacity:0; fill:none" points="1105.23,1445.72 2291.32,1445.72 "/>
<polyline clip-path="url(#clip882)" style="stroke:#009af9; stroke-linecap:round; stroke-linejoin:round; stroke-width:6; stroke-opacity:0.8; fill:none" points="1124.76,766.846 1414.59,766.846 "/>
<circle clip-path="url(#clip882)" style="fill:#c68125; stroke:none; fill-opacity:0.8" cx="1124.76" cy="766.846" r="2"/>
<circle clip-path="url(#clip882)" style="fill:#c68125; stroke:none; fill-opacity:0.8" cx="1414.59" cy="766.846" r="2"/>
<polyline clip-path="url(#clip882)" style="stroke:#e26f46; stroke-linecap:round; stroke-linejoin:round; stroke-width:12; stroke-opacity:0.8; fill:none" points="1200.74,766.846 1344.11,766.846 "/>
<circle clip-path="url(#clip882)" style="fill:#00a98d; stroke:none; fill-opacity:0.8" cx="1200.74" cy="766.846" r="2"/>
<circle clip-path="url(#clip882)" style="fill:#00a98d; stroke:none; fill-opacity:0.8" cx="1344.11" cy="766.846" r="2"/>
<polyline clip-path="url(#clip882)" style="stroke:#3da44d; stroke-linecap:round; stroke-linejoin:round; stroke-width:18; stroke-opacity:0.8; fill:none" points="1234.19,766.846 1261.85,766.846 "/>
<circle clip-path="url(#clip882)" style="fill:#8e971d; stroke:none; fill-opacity:0.8" cx="1234.19" cy="766.846" r="2"/>
<circle clip-path="url(#clip882)" style="fill:#8e971d; stroke:none; fill-opacity:0.8" cx="1261.85" cy="766.846" r="2"/>
<path clip-path="url(#clip882)" d="M1246.38 754.846 L1234.38 766.846 L1246.38 778.846 L1258.38 766.846 L1246.38 754.846 Z" fill="#000000" fill-rule="evenodd" fill-opacity="1" stroke="none"/>
<circle clip-path="url(#clip882)" cx="1245.65" cy="766.846" r="10.8" fill="#808080" fill-rule="evenodd" fill-opacity="1" stroke="#000000" stroke-opacity="1" stroke-width="3.2"/>
<circle clip-path="url(#clip882)" style="fill:#000000; stroke:none; fill-opacity:1" cx="1246.38" cy="766.846" r="2"/>
<polyline clip-path="url(#clip882)" style="stroke:#000000; stroke-linecap:round; stroke-linejoin:round; stroke-width:0; stroke-opacity:0; fill:none" points="609.269,766.846 1893.61,766.846 "/>
<polyline clip-path="url(#clip882)" style="stroke:#009af9; stroke-linecap:round; stroke-linejoin:round; stroke-width:6; stroke-opacity:0.8; fill:none" points="583.523,87.9763 956.959,87.9763 "/>
<circle clip-path="url(#clip882)" style="fill:#dd64b5; stroke:none; fill-opacity:0.8" cx="583.523" cy="87.9763" r="2"/>
<circle clip-path="url(#clip882)" style="fill:#dd64b5; stroke:none; fill-opacity:0.8" cx="956.959" cy="87.9763" r="2"/>
<polyline clip-path="url(#clip882)" style="stroke:#e26f46; stroke-linecap:round; stroke-linejoin:round; stroke-width:12; stroke-opacity:0.8; fill:none" points="629.922,87.9763 866.133,87.9763 "/>
<circle clip-path="url(#clip882)" style="fill:#6b9e32; stroke:none; fill-opacity:0.8" cx="629.922" cy="87.9763" r="2"/>
<circle clip-path="url(#clip882)" style="fill:#6b9e32; stroke:none; fill-opacity:0.8" cx="866.133" cy="87.9763" r="2"/>
<polyline clip-path="url(#clip882)" style="stroke:#3da44d; stroke-linecap:round; stroke-linejoin:round; stroke-width:18; stroke-opacity:0.8; fill:none" points="721.778,87.9763 809.669,87.9763 "/>
<circle clip-path="url(#clip882)" style="fill:#009af9; stroke:none; fill-opacity:0.8" cx="721.778" cy="87.9763" r="2"/>
<circle clip-path="url(#clip882)" style="fill:#009af9; stroke:none; fill-opacity:0.8" cx="809.669" cy="87.9763" r="2"/>
<path clip-path="url(#clip882)" d="M787.108 75.9763 L775.108 87.9763 L787.108 99.9763 L799.108 87.9763 L787.108 75.9763 Z" fill="#000000" fill-rule="evenodd" fill-opacity="1" stroke="none"/>
<circle clip-path="url(#clip882)" cx="796.909" cy="87.9763" r="10.8" fill="#808080" fill-rule="evenodd" fill-opacity="1" stroke="#000000" stroke-opacity="1" stroke-width="3.2"/>
<circle clip-path="url(#clip882)" style="fill:#000000; stroke:none; fill-opacity:1" cx="787.108" cy="87.9763" r="2"/>
<polyline clip-path="url(#clip882)" style="stroke:#000000; stroke-linecap:round; stroke-linejoin:round; stroke-width:0; stroke-opacity:0; fill:none" points="243.365,87.9763 1421.42,87.9763 "/>
<path clip-path="url(#clip880)" d="M1878.1 406.258 L2280.39 406.258 L2280.39 95.2176 L1878.1 95.2176  Z" fill="#ffffff" fill-rule="evenodd" fill-opacity="1"/>
<polyline clip-path="url(#clip880)" style="stroke:#000000; stroke-linecap:round; stroke-linejoin:round; stroke-width:4; stroke-opacity:1; fill:none" points="1878.1,406.258 2280.39,406.258 2280.39,95.2176 1878.1,95.2176 1878.1,406.258 "/>
<polyline clip-path="url(#clip880)" style="stroke:#009af9; stroke-linecap:round; stroke-linejoin:round; stroke-width:6; stroke-opacity:0.8; fill:none" points="1902.22,147.058 2046.95,147.058 "/>
<circle clip-path="url(#clip880)" style="fill:#009af9; stroke:none; fill-opacity:0.8" cx="1974.59" cy="147.058" r="2"/>
<path clip-path="url(#clip880)" d="M2076.69 160.402 L2093.01 160.402 L2093.01 164.338 L2071.07 164.338 L2071.07 160.402 Q2073.73 157.648 2078.31 153.018 Q2082.92 148.365 2084.1 147.023 Q2086.34 144.5 2087.22 142.764 Q2088.13 141.004 2088.13 139.315 Q2088.13 136.56 2086.18 134.824 Q2084.26 133.088 2081.16 133.088 Q2078.96 133.088 2076.51 133.852 Q2074.08 134.615 2071.3 136.166 L2071.3 131.444 Q2074.12 130.31 2076.58 129.731 Q2079.03 129.153 2081.07 129.153 Q2086.44 129.153 2089.63 131.838 Q2092.83 134.523 2092.83 139.014 Q2092.83 141.143 2092.02 143.065 Q2091.23 144.963 2089.12 147.555 Q2088.54 148.227 2085.44 151.444 Q2082.34 154.639 2076.69 160.402 Z" fill="#000000" fill-rule="nonzero" fill-opacity="1" /><path clip-path="url(#clip880)" d="M2102.87 129.778 L2121.23 129.778 L2121.23 133.713 L2107.16 133.713 L2107.16 142.185 Q2108.17 141.838 2109.19 141.676 Q2110.21 141.49 2111.23 141.49 Q2117.02 141.49 2120.4 144.662 Q2123.78 147.833 2123.78 153.25 Q2123.78 158.828 2120.3 161.93 Q2116.83 165.009 2110.51 165.009 Q2108.34 165.009 2106.07 164.638 Q2103.82 164.268 2101.41 163.527 L2101.41 158.828 Q2103.5 159.963 2105.72 160.518 Q2107.94 161.074 2110.42 161.074 Q2114.42 161.074 2116.76 158.967 Q2119.1 156.861 2119.1 153.25 Q2119.1 149.639 2116.76 147.532 Q2114.42 145.426 2110.42 145.426 Q2108.54 145.426 2106.67 145.842 Q2104.82 146.259 2102.87 147.139 L2102.87 129.778 Z" fill="#000000" fill-rule="nonzero" fill-opacity="1" /><path clip-path="url(#clip880)" d="M2162.39 149.129 Q2160.37 149.129 2159.21 150.842 Q2158.08 152.555 2158.08 155.611 Q2158.08 158.62 2159.21 160.356 Q2160.37 162.069 2162.39 162.069 Q2164.35 162.069 2165.49 160.356 Q2166.65 158.62 2166.65 155.611 Q2166.65 152.578 2165.49 150.865 Q2164.35 149.129 2162.39 149.129 M2162.39 146.19 Q2166.04 146.19 2168.2 148.736 Q2170.35 151.282 2170.35 155.611 Q2170.35 159.939 2168.17 162.486 Q2166.02 165.009 2162.39 165.009 Q2158.68 165.009 2156.53 162.486 Q2154.38 159.939 2154.38 155.611 Q2154.38 151.259 2156.53 148.736 Q2158.71 146.19 2162.39 146.19 M2138.5 132.092 Q2136.51 132.092 2135.35 133.828 Q2134.22 135.541 2134.22 138.551 Q2134.22 141.606 2135.35 143.319 Q2136.48 145.032 2138.5 145.032 Q2140.51 145.032 2141.65 143.319 Q2142.8 141.606 2142.8 138.551 Q2142.8 135.565 2141.65 133.828 Q2140.49 132.092 2138.5 132.092 M2159.4 129.153 L2163.1 129.153 L2141.48 165.009 L2137.78 165.009 L2159.4 129.153 M2138.5 129.153 Q2142.15 129.153 2144.33 131.699 Q2146.51 134.222 2146.51 138.551 Q2146.51 142.926 2144.33 145.449 Q2142.18 147.972 2138.5 147.972 Q2134.82 147.972 2132.66 145.449 Q2130.53 142.902 2130.53 138.551 Q2130.53 134.245 2132.69 131.699 Q2134.84 129.153 2138.5 129.153 Z" fill="#000000" fill-rule="nonzero" fill-opacity="1" /><path clip-path="url(#clip880)" d="M2192.69 129.778 L2214.54 129.778 L2214.54 133.713 L2197.36 133.713 L2197.36 143.944 L2213.82 143.944 L2213.82 147.879 L2197.36 147.879 L2197.36 160.402 L2214.96 160.402 L2214.96 164.338 L2192.69 164.338 L2192.69 129.778 Z" fill="#000000" fill-rule="nonzero" fill-opacity="1" /><path clip-path="url(#clip880)" d="M2217.85 129.778 L2247.08 129.778 L2247.08 133.713 L2234.82 133.713 L2234.82 164.338 L2230.12 164.338 L2230.12 133.713 L2217.85 133.713 L2217.85 129.778 Z" fill="#000000" fill-rule="nonzero" fill-opacity="1" /><path clip-path="url(#clip880)" d="M2251.6 129.778 L2256.27 129.778 L2256.27 164.338 L2251.6 164.338 L2251.6 129.778 Z" fill="#000000" fill-rule="nonzero" fill-opacity="1" /><polyline clip-path="url(#clip880)" style="stroke:#e26f46; stroke-linecap:round; stroke-linejoin:round; stroke-width:12; stroke-opacity:0.8; fill:none" points="1902.22,198.898 2046.95,198.898 "/>
<circle clip-path="url(#clip880)" style="fill:#e26f46; stroke:none; fill-opacity:0.8" cx="1974.59" cy="198.898" r="2"/>
<path clip-path="url(#clip880)" d="M2071.74 212.242 L2079.38 212.242 L2079.38 185.877 L2071.07 187.543 L2071.07 183.284 L2079.33 181.618 L2084.01 181.618 L2084.01 212.242 L2091.65 212.242 L2091.65 216.178 L2071.74 216.178 L2071.74 212.242 Z" fill="#000000" fill-rule="nonzero" fill-opacity="1" /><path clip-path="url(#clip880)" d="M2101.14 181.618 L2119.49 181.618 L2119.49 185.553 L2105.42 185.553 L2105.42 194.025 Q2106.44 193.678 2107.46 193.516 Q2108.47 193.33 2109.49 193.33 Q2115.28 193.33 2118.66 196.502 Q2122.04 199.673 2122.04 205.09 Q2122.04 210.668 2118.57 213.77 Q2115.09 216.849 2108.78 216.849 Q2106.6 216.849 2104.33 216.478 Q2102.09 216.108 2099.68 215.367 L2099.68 210.668 Q2101.76 211.803 2103.98 212.358 Q2106.21 212.914 2108.68 212.914 Q2112.69 212.914 2115.03 210.807 Q2117.36 208.701 2117.36 205.09 Q2117.36 201.479 2115.03 199.372 Q2112.69 197.266 2108.68 197.266 Q2106.81 197.266 2104.93 197.682 Q2103.08 198.099 2101.14 198.979 L2101.14 181.618 Z" fill="#000000" fill-rule="nonzero" fill-opacity="1" /><path clip-path="url(#clip880)" d="M2160.65 200.969 Q2158.64 200.969 2157.48 202.682 Q2156.34 204.395 2156.34 207.451 Q2156.34 210.46 2157.48 212.196 Q2158.64 213.909 2160.65 213.909 Q2162.62 213.909 2163.75 212.196 Q2164.91 210.46 2164.91 207.451 Q2164.91 204.418 2163.75 202.705 Q2162.62 200.969 2160.65 200.969 M2160.65 198.03 Q2164.31 198.03 2166.46 200.576 Q2168.61 203.122 2168.61 207.451 Q2168.61 211.779 2166.44 214.326 Q2164.28 216.849 2160.65 216.849 Q2156.95 216.849 2154.79 214.326 Q2152.64 211.779 2152.64 207.451 Q2152.64 203.099 2154.79 200.576 Q2156.97 198.03 2160.65 198.03 M2136.76 183.932 Q2134.77 183.932 2133.61 185.668 Q2132.48 187.381 2132.48 190.391 Q2132.48 193.446 2133.61 195.159 Q2134.75 196.872 2136.76 196.872 Q2138.78 196.872 2139.91 195.159 Q2141.07 193.446 2141.07 190.391 Q2141.07 187.405 2139.91 185.668 Q2138.75 183.932 2136.76 183.932 M2157.66 180.993 L2161.37 180.993 L2139.75 216.849 L2136.04 216.849 L2157.66 180.993 M2136.76 180.993 Q2140.42 180.993 2142.59 183.539 Q2144.77 186.062 2144.77 190.391 Q2144.77 194.766 2142.59 197.289 Q2140.44 199.812 2136.76 199.812 Q2133.08 199.812 2130.93 197.289 Q2128.8 194.742 2128.8 190.391 Q2128.8 186.085 2130.95 183.539 Q2133.1 180.993 2136.76 180.993 Z" fill="#000000" fill-rule="nonzero" fill-opacity="1" /><path clip-path="url(#clip880)" d="M2190.95 181.618 L2212.8 181.618 L2212.8 185.553 L2195.63 185.553 L2195.63 195.784 L2212.09 195.784 L2212.09 199.719 L2195.63 199.719 L2195.63 212.242 L2213.22 212.242 L2213.22 216.178 L2190.95 216.178 L2190.95 181.618 Z" fill="#000000" fill-rule="nonzero" fill-opacity="1" /><path clip-path="url(#clip880)" d="M2216.11 181.618 L2245.35 181.618 L2245.35 185.553 L2233.08 185.553 L2233.08 216.178 L2228.38 216.178 L2228.38 185.553 L2216.11 185.553 L2216.11 181.618 Z" fill="#000000" fill-rule="nonzero" fill-opacity="1" /><path clip-path="url(#clip880)" d="M2249.86 181.618 L2254.54 181.618 L2254.54 216.178 L2249.86 216.178 L2249.86 181.618 Z" fill="#000000" fill-rule="nonzero" fill-opacity="1" /><polyline clip-path="url(#clip880)" style="stroke:#3da44d; stroke-linecap:round; stroke-linejoin:round; stroke-width:18; stroke-opacity:0.8; fill:none" points="1902.22,250.738 2046.95,250.738 "/>
<circle clip-path="url(#clip880)" style="fill:#3da44d; stroke:none; fill-opacity:0.8" cx="1974.59" cy="250.738" r="2"/>
<path clip-path="url(#clip880)" d="M2072.53 233.458 L2090.88 233.458 L2090.88 237.393 L2076.81 237.393 L2076.81 245.865 Q2077.83 245.518 2078.85 245.356 Q2079.86 245.17 2080.88 245.17 Q2086.67 245.17 2090.05 248.342 Q2093.43 251.513 2093.43 256.93 Q2093.43 262.508 2089.96 265.61 Q2086.48 268.689 2080.16 268.689 Q2077.99 268.689 2075.72 268.318 Q2073.47 267.948 2071.07 267.207 L2071.07 262.508 Q2073.15 263.643 2075.37 264.198 Q2077.6 264.754 2080.07 264.754 Q2084.08 264.754 2086.41 262.647 Q2088.75 260.541 2088.75 256.93 Q2088.75 253.319 2086.41 251.212 Q2084.08 249.106 2080.07 249.106 Q2078.2 249.106 2076.32 249.522 Q2074.47 249.939 2072.53 250.819 L2072.53 233.458 Z" fill="#000000" fill-rule="nonzero" fill-opacity="1" /><path clip-path="url(#clip880)" d="M2132.04 252.809 Q2130.03 252.809 2128.87 254.522 Q2127.73 256.235 2127.73 259.291 Q2127.73 262.3 2128.87 264.036 Q2130.03 265.749 2132.04 265.749 Q2134.01 265.749 2135.14 264.036 Q2136.3 262.3 2136.3 259.291 Q2136.3 256.258 2135.14 254.545 Q2134.01 252.809 2132.04 252.809 M2132.04 249.87 Q2135.7 249.87 2137.85 252.416 Q2140 254.962 2140 259.291 Q2140 263.619 2137.83 266.166 Q2135.67 268.689 2132.04 268.689 Q2128.34 268.689 2126.18 266.166 Q2124.03 263.619 2124.03 259.291 Q2124.03 254.939 2126.18 252.416 Q2128.36 249.87 2132.04 249.87 M2108.15 235.772 Q2106.16 235.772 2105 237.508 Q2103.87 239.221 2103.87 242.231 Q2103.87 245.286 2105 246.999 Q2106.14 248.712 2108.15 248.712 Q2110.16 248.712 2111.3 246.999 Q2112.46 245.286 2112.46 242.231 Q2112.46 239.245 2111.3 237.508 Q2110.14 235.772 2108.15 235.772 M2129.05 232.833 L2132.76 232.833 L2111.14 268.689 L2107.43 268.689 L2129.05 232.833 M2108.15 232.833 Q2111.81 232.833 2113.98 235.379 Q2116.16 237.902 2116.16 242.231 Q2116.16 246.606 2113.98 249.129 Q2111.83 251.652 2108.15 251.652 Q2104.47 251.652 2102.32 249.129 Q2100.19 246.582 2100.19 242.231 Q2100.19 237.925 2102.34 235.379 Q2104.49 232.833 2108.15 232.833 Z" fill="#000000" fill-rule="nonzero" fill-opacity="1" /><path clip-path="url(#clip880)" d="M2162.34 233.458 L2184.19 233.458 L2184.19 237.393 L2167.02 237.393 L2167.02 247.624 L2183.47 247.624 L2183.47 251.559 L2167.02 251.559 L2167.02 264.082 L2184.61 264.082 L2184.61 268.018 L2162.34 268.018 L2162.34 233.458 Z" fill="#000000" fill-rule="nonzero" fill-opacity="1" /><path clip-path="url(#clip880)" d="M2187.5 233.458 L2216.74 233.458 L2216.74 237.393 L2204.47 237.393 L2204.47 268.018 L2199.77 268.018 L2199.77 237.393 L2187.5 237.393 L2187.5 233.458 Z" fill="#000000" fill-rule="nonzero" fill-opacity="1" /><path clip-path="url(#clip880)" d="M2221.25 233.458 L2225.93 233.458 L2225.93 268.018 L2221.25 268.018 L2221.25 233.458 Z" fill="#000000" fill-rule="nonzero" fill-opacity="1" /><path clip-path="url(#clip880)" d="M1974.59 280.635 L1952.64 302.578 L1974.59 324.52 L1996.53 302.578 L1974.59 280.635 Z" fill="#000000" fill-rule="evenodd" fill-opacity="1" stroke="none"/>
<path clip-path="url(#clip880)" d="M2071.07 285.298 L2078.03 285.298 L2086.85 308.816 L2095.72 285.298 L2102.69 285.298 L2102.69 319.858 L2098.13 319.858 L2098.13 289.51 L2089.22 313.214 L2084.52 313.214 L2075.6 289.51 L2075.6 319.858 L2071.07 319.858 L2071.07 285.298 Z" fill="#000000" fill-rule="nonzero" fill-opacity="1" /><path clip-path="url(#clip880)" d="M2133.96 305.83 L2133.96 307.913 L2114.38 307.913 Q2114.65 312.311 2117.02 314.626 Q2119.4 316.918 2123.64 316.918 Q2126.09 316.918 2128.38 316.316 Q2130.7 315.714 2132.97 314.51 L2132.97 318.538 Q2130.67 319.51 2128.27 320.02 Q2125.86 320.529 2123.38 320.529 Q2117.18 320.529 2113.54 316.918 Q2109.93 313.307 2109.93 307.149 Q2109.93 300.784 2113.36 297.057 Q2116.81 293.307 2122.64 293.307 Q2127.87 293.307 2130.9 296.686 Q2133.96 300.043 2133.96 305.83 M2129.7 304.58 Q2129.65 301.085 2127.73 299.001 Q2125.84 296.918 2122.69 296.918 Q2119.12 296.918 2116.97 298.932 Q2114.84 300.946 2114.52 304.603 L2129.7 304.58 Z" fill="#000000" fill-rule="nonzero" fill-opacity="1" /><path clip-path="url(#clip880)" d="M2158.01 297.867 L2158.01 283.839 L2162.27 283.839 L2162.27 319.858 L2158.01 319.858 L2158.01 315.969 Q2156.67 318.283 2154.61 319.418 Q2152.57 320.529 2149.7 320.529 Q2145 320.529 2142.04 316.779 Q2139.1 313.029 2139.1 306.918 Q2139.1 300.807 2142.04 297.057 Q2145 293.307 2149.7 293.307 Q2152.57 293.307 2154.61 294.441 Q2156.67 295.552 2158.01 297.867 M2143.5 306.918 Q2143.5 311.617 2145.42 314.302 Q2147.36 316.964 2150.74 316.964 Q2154.12 316.964 2156.07 314.302 Q2158.01 311.617 2158.01 306.918 Q2158.01 302.219 2156.07 299.557 Q2154.12 296.872 2150.74 296.872 Q2147.36 296.872 2145.42 299.557 Q2143.5 302.219 2143.5 306.918 Z" fill="#000000" fill-rule="nonzero" fill-opacity="1" /><path clip-path="url(#clip880)" d="M2171.04 293.932 L2175.3 293.932 L2175.3 319.858 L2171.04 319.858 L2171.04 293.932 M2171.04 283.839 L2175.3 283.839 L2175.3 289.233 L2171.04 289.233 L2171.04 283.839 Z" fill="#000000" fill-rule="nonzero" fill-opacity="1" /><path clip-path="url(#clip880)" d="M2196 306.825 Q2190.84 306.825 2188.84 308.006 Q2186.85 309.186 2186.85 312.034 Q2186.85 314.302 2188.34 315.645 Q2189.84 316.964 2192.41 316.964 Q2195.95 316.964 2198.08 314.464 Q2200.23 311.941 2200.23 307.774 L2200.23 306.825 L2196 306.825 M2204.49 305.066 L2204.49 319.858 L2200.23 319.858 L2200.23 315.922 Q2198.77 318.283 2196.6 319.418 Q2194.42 320.529 2191.27 320.529 Q2187.29 320.529 2184.93 318.307 Q2182.59 316.061 2182.59 312.311 Q2182.59 307.936 2185.51 305.714 Q2188.45 303.492 2194.26 303.492 L2200.23 303.492 L2200.23 303.075 Q2200.23 300.135 2198.29 298.538 Q2196.37 296.918 2192.87 296.918 Q2190.65 296.918 2188.54 297.45 Q2186.44 297.983 2184.49 299.047 L2184.49 295.112 Q2186.83 294.21 2189.03 293.77 Q2191.23 293.307 2193.31 293.307 Q2198.94 293.307 2201.71 296.223 Q2204.49 299.14 2204.49 305.066 Z" fill="#000000" fill-rule="nonzero" fill-opacity="1" /><path clip-path="url(#clip880)" d="M2234.82 304.209 L2234.82 319.858 L2230.56 319.858 L2230.56 304.348 Q2230.56 300.668 2229.12 298.839 Q2227.69 297.01 2224.82 297.01 Q2221.37 297.01 2219.38 299.21 Q2217.39 301.409 2217.39 305.205 L2217.39 319.858 L2213.1 319.858 L2213.1 293.932 L2217.39 293.932 L2217.39 297.96 Q2218.91 295.622 2220.97 294.464 Q2223.06 293.307 2225.77 293.307 Q2230.23 293.307 2232.52 296.085 Q2234.82 298.839 2234.82 304.209 Z" fill="#000000" fill-rule="nonzero" fill-opacity="1" /><circle clip-path="url(#clip880)" cx="1974.59" cy="354.418" r="19.7486" fill="#808080" fill-rule="evenodd" fill-opacity="1" stroke="#000000" stroke-opacity="1" stroke-width="5.85143"/>
<path clip-path="url(#clip880)" d="M2071.07 337.138 L2078.03 337.138 L2086.85 360.656 L2095.72 337.138 L2102.69 337.138 L2102.69 371.698 L2098.13 371.698 L2098.13 341.35 L2089.22 365.054 L2084.52 365.054 L2075.6 341.35 L2075.6 371.698 L2071.07 371.698 L2071.07 337.138 Z" fill="#000000" fill-rule="nonzero" fill-opacity="1" /><path clip-path="url(#clip880)" d="M2133.96 357.67 L2133.96 359.753 L2114.38 359.753 Q2114.65 364.151 2117.02 366.466 Q2119.4 368.758 2123.64 368.758 Q2126.09 368.758 2128.38 368.156 Q2130.7 367.554 2132.97 366.35 L2132.97 370.378 Q2130.67 371.35 2128.27 371.86 Q2125.86 372.369 2123.38 372.369 Q2117.18 372.369 2113.54 368.758 Q2109.93 365.147 2109.93 358.989 Q2109.93 352.624 2113.36 348.897 Q2116.81 345.147 2122.64 345.147 Q2127.87 345.147 2130.9 348.526 Q2133.96 351.883 2133.96 357.67 M2129.7 356.42 Q2129.65 352.925 2127.73 350.841 Q2125.84 348.758 2122.69 348.758 Q2119.12 348.758 2116.97 350.772 Q2114.84 352.786 2114.52 356.443 L2129.7 356.42 Z" fill="#000000" fill-rule="nonzero" fill-opacity="1" /><path clip-path="url(#clip880)" d="M2152.73 358.665 Q2147.57 358.665 2145.58 359.846 Q2143.59 361.026 2143.59 363.874 Q2143.59 366.142 2145.07 367.485 Q2146.58 368.804 2149.15 368.804 Q2152.69 368.804 2154.82 366.304 Q2156.97 363.781 2156.97 359.614 L2156.97 358.665 L2152.73 358.665 M2161.23 356.906 L2161.23 371.698 L2156.97 371.698 L2156.97 367.762 Q2155.51 370.123 2153.34 371.258 Q2151.16 372.369 2148.01 372.369 Q2144.03 372.369 2141.67 370.147 Q2139.33 367.901 2139.33 364.151 Q2139.33 359.776 2142.25 357.554 Q2145.19 355.332 2151 355.332 L2156.97 355.332 L2156.97 354.915 Q2156.97 351.975 2155.03 350.378 Q2153.1 348.758 2149.61 348.758 Q2147.39 348.758 2145.28 349.29 Q2143.17 349.823 2141.23 350.887 L2141.23 346.952 Q2143.57 346.05 2145.77 345.61 Q2147.97 345.147 2150.05 345.147 Q2155.67 345.147 2158.45 348.063 Q2161.23 350.98 2161.23 356.906 Z" fill="#000000" fill-rule="nonzero" fill-opacity="1" /><path clip-path="url(#clip880)" d="M2191.55 356.049 L2191.55 371.698 L2187.29 371.698 L2187.29 356.188 Q2187.29 352.508 2185.86 350.679 Q2184.42 348.85 2181.55 348.85 Q2178.1 348.85 2176.11 351.05 Q2174.12 353.249 2174.12 357.045 L2174.12 371.698 L2169.84 371.698 L2169.84 345.772 L2174.12 345.772 L2174.12 349.8 Q2175.65 347.462 2177.71 346.304 Q2179.79 345.147 2182.5 345.147 Q2186.97 345.147 2189.26 347.925 Q2191.55 350.679 2191.55 356.049 Z" fill="#000000" fill-rule="nonzero" fill-opacity="1" /></svg>
