<?xml version="1.0" encoding="utf-8"?>
<svg xmlns="http://www.w3.org/2000/svg" xmlns:xlink="http://www.w3.org/1999/xlink" width="600" height="400" viewBox="0 0 2400 1600">
<defs>
  <clipPath id="clip110">
    <rect x="0" y="0" width="2400" height="1600"/>
  </clipPath>
</defs>
<path clip-path="url(#clip110)" d="M0 1600 L2400 1600 L2400 0 L0 0  Z" fill="#ffffff" fill-rule="evenodd" fill-opacity="1"/>
<defs>
  <clipPath id="clip111">
    <rect x="480" y="0" width="1681" height="1600"/>
  </clipPath>
</defs>
<path clip-path="url(#clip110)" d="M181.927 1486.45 L2352.76 1486.45 L2352.76 47.2441 L181.927 47.2441  Z" fill="#ffffff" fill-rule="evenodd" fill-opacity="1"/>
<defs>
  <clipPath id="clip112">
    <rect x="181" y="47" width="2172" height="1440"/>
  </clipPath>
</defs>
<polyline clip-path="url(#clip112)" style="stroke:#000000; stroke-linecap:round; stroke-linejoin:round; stroke-width:2; stroke-opacity:0.1; fill:none" points="489.021,1486.45 489.021,47.2441 "/>
<polyline clip-path="url(#clip112)" style="stroke:#000000; stroke-linecap:round; stroke-linejoin:round; stroke-width:2; stroke-opacity:0.1; fill:none" points="879.8,1486.45 879.8,47.2441 "/>
<polyline clip-path="url(#clip112)" style="stroke:#000000; stroke-linecap:round; stroke-linejoin:round; stroke-width:2; stroke-opacity:0.1; fill:none" points="1270.58,1486.45 1270.58,47.2441 "/>
<polyline clip-path="url(#clip112)" style="stroke:#000000; stroke-linecap:round; stroke-linejoin:round; stroke-width:2; stroke-opacity:0.1; fill:none" points="1661.36,1486.45 1661.36,47.2441 "/>
<polyline clip-path="url(#clip112)" style="stroke:#000000; stroke-linecap:round; stroke-linejoin:round; stroke-width:2; stroke-opacity:0.1; fill:none" points="2052.14,1486.45 2052.14,47.2441 "/>
<polyline clip-path="url(#clip112)" style="stroke:#000000; stroke-linecap:round; stroke-linejoin:round; stroke-width:2; stroke-opacity:0.1; fill:none" points="181.927,1445.72 2352.76,1445.72 "/>
<polyline clip-path="url(#clip112)" style="stroke:#000000; stroke-linecap:round; stroke-linejoin:round; stroke-width:2; stroke-opacity:0.1; fill:none" points="181.927,993.136 2352.76,993.136 "/>
<polyline clip-path="url(#clip112)" style="stroke:#000000; stroke-linecap:round; stroke-linejoin:round; stroke-width:2; stroke-opacity:0.1; fill:none" points="181.927,540.556 2352.76,540.556 "/>
<polyline clip-path="url(#clip112)" style="stroke:#000000; stroke-linecap:round; stroke-linejoin:round; stroke-width:2; stroke-opacity:0.1; fill:none" points="181.927,87.9763 2352.76,87.9763 "/>
<polyline clip-path="url(#clip110)" style="stroke:#000000; stroke-linecap:round; stroke-linejoin:round; stroke-width:4; stroke-opacity:1; fill:none" points="181.927,1486.45 2352.76,1486.45 "/>
<polyline clip-path="url(#clip110)" style="stroke:#000000; stroke-linecap:round; stroke-linejoin:round; stroke-width:4; stroke-opacity:1; fill:none" points="489.021,1486.45 489.021,1467.55 "/>
<polyline clip-path="url(#clip110)" style="stroke:#000000; stroke-linecap:round; stroke-linejoin:round; stroke-width:4; stroke-opacity:1; fill:none" points="879.8,1486.45 879.8,1467.55 "/>
<polyline clip-path="url(#clip110)" style="stroke:#000000; stroke-linecap:round; stroke-linejoin:round; stroke-width:4; stroke-opacity:1; fill:none" points="1270.58,1486.45 1270.58,1467.55 "/>
<polyline clip-path="url(#clip110)" style="stroke:#000000; stroke-linecap:round; stroke-linejoin:round; stroke-width:4; stroke-opacity:1; fill:none" points="1661.36,1486.45 1661.36,1467.55 "/>
<polyline clip-path="url(#clip110)" style="stroke:#000000; stroke-linecap:round; stroke-linejoin:round; stroke-width:4; stroke-opacity:1; fill:none" points="2052.14,1486.45 2052.14,1467.55 "/>
<path clip-path="url(#clip110)" d="M489.021 1517.37 Q485.41 1517.37 483.581 1520.93 Q481.776 1524.47 481.776 1531.6 Q481.776 1538.71 483.581 1542.27 Q485.41 1545.82 489.021 1545.82 Q492.655 1545.82 494.461 1542.27 Q496.29 1538.71 496.29 1531.6 Q496.29 1524.47 494.461 1520.93 Q492.655 1517.37 489.021 1517.37 M489.021 1513.66 Q494.831 1513.66 497.887 1518.27 Q500.965 1522.85 500.965 1531.6 Q500.965 1540.33 497.887 1544.94 Q494.831 1549.52 489.021 1549.52 Q483.211 1549.52 480.132 1544.94 Q477.077 1540.33 477.077 1531.6 Q477.077 1522.85 480.132 1518.27 Q483.211 1513.66 489.021 1513.66 Z" fill="#000000" fill-rule="nonzero" fill-opacity="1" /><path clip-path="url(#clip110)" d="M870.182 1544.91 L877.821 1544.91 L877.821 1518.55 L869.511 1520.21 L869.511 1515.95 L877.775 1514.29 L882.451 1514.29 L882.451 1544.91 L890.09 1544.91 L890.09 1548.85 L870.182 1548.85 L870.182 1544.91 Z" fill="#000000" fill-rule="nonzero" fill-opacity="1" /><path clip-path="url(#clip110)" d="M1265.23 1544.91 L1281.55 1544.91 L1281.55 1548.85 L1259.61 1548.85 L1259.61 1544.91 Q1262.27 1542.16 1266.85 1537.53 Q1271.46 1532.88 1272.64 1531.53 Q1274.89 1529.01 1275.76 1527.27 Q1276.67 1525.51 1276.67 1523.82 Q1276.67 1521.07 1274.72 1519.33 Q1272.8 1517.6 1269.7 1517.6 Q1267.5 1517.6 1265.05 1518.36 Q1262.62 1519.13 1259.84 1520.68 L1259.84 1515.95 Q1262.66 1514.82 1265.12 1514.24 Q1267.57 1513.66 1269.61 1513.66 Q1274.98 1513.66 1278.17 1516.35 Q1281.37 1519.03 1281.37 1523.52 Q1281.37 1525.65 1280.56 1527.57 Q1279.77 1529.47 1277.66 1532.07 Q1277.08 1532.74 1273.98 1535.95 Q1270.88 1539.15 1265.23 1544.91 Z" fill="#000000" fill-rule="nonzero" fill-opacity="1" /><path clip-path="url(#clip110)" d="M1665.61 1530.21 Q1668.96 1530.93 1670.84 1533.2 Q1672.74 1535.47 1672.74 1538.8 Q1672.74 1543.92 1669.22 1546.72 Q1665.7 1549.52 1659.22 1549.52 Q1657.04 1549.52 1654.73 1549.08 Q1652.44 1548.66 1649.98 1547.81 L1649.98 1543.29 Q1651.93 1544.43 1654.24 1545.01 Q1656.56 1545.58 1659.08 1545.58 Q1663.48 1545.58 1665.77 1543.85 Q1668.08 1542.11 1668.08 1538.8 Q1668.08 1535.75 1665.93 1534.03 Q1663.8 1532.3 1659.98 1532.3 L1655.95 1532.3 L1655.95 1528.45 L1660.17 1528.45 Q1663.62 1528.45 1665.44 1527.09 Q1667.27 1525.7 1667.27 1523.11 Q1667.27 1520.45 1665.38 1519.03 Q1663.5 1517.6 1659.98 1517.6 Q1658.06 1517.6 1655.86 1518.01 Q1653.66 1518.43 1651.02 1519.31 L1651.02 1515.14 Q1653.69 1514.4 1656 1514.03 Q1658.34 1513.66 1660.4 1513.66 Q1665.72 1513.66 1668.82 1516.09 Q1671.93 1518.5 1671.93 1522.62 Q1671.93 1525.49 1670.28 1527.48 Q1668.64 1529.45 1665.61 1530.21 Z" fill="#000000" fill-rule="nonzero" fill-opacity="1" /><path clip-path="url(#clip110)" d="M2055.15 1518.36 L2043.34 1536.81 L2055.15 1536.81 L2055.15 1518.36 M2053.92 1514.29 L2059.8 1514.29 L2059.8 1536.81 L2064.73 1536.81 L2064.73 1540.7 L2059.8 1540.7 L2059.8 1548.85 L2055.15 1548.85 L2055.15 1540.7 L2039.55 1540.7 L2039.55 1536.19 L2053.92 1514.29 Z" fill="#000000" fill-rule="nonzero" fill-opacity="1" /><polyline clip-path="url(#clip110)" style="stroke:#000000; stroke-linecap:round; stroke-linejoin:round; stroke-width:4; stroke-opacity:1; fill:none" points="181.927,1486.45 181.927,47.2441 "/>
<polyline clip-path="url(#clip110)" style="stroke:#000000; stroke-linecap:round; stroke-linejoin:round; stroke-width:4; stroke-opacity:1; fill:none" points="181.927,1445.72 200.824,1445.72 "/>
<polyline clip-path="url(#clip110)" style="stroke:#000000; stroke-linecap:round; stroke-linejoin:round; stroke-width:4; stroke-opacity:1; fill:none" points="181.927,993.136 200.824,993.136 "/>
<polyline clip-path="url(#clip110)" style="stroke:#000000; stroke-linecap:round; stroke-linejoin:round; stroke-width:4; stroke-opacity:1; fill:none" points="181.927,540.556 200.824,540.556 "/>
<polyline clip-path="url(#clip110)" style="stroke:#000000; stroke-linecap:round; stroke-linejoin:round; stroke-width:4; stroke-opacity:1; fill:none" points="181.927,87.9763 200.824,87.9763 "/>
<path clip-path="url(#clip110)" d="M121.552 1432.28 L121.552 1459.15 L127.2 1459.15 Q134.353 1459.15 137.663 1455.91 Q140.996 1452.67 140.996 1445.68 Q140.996 1438.74 137.663 1435.52 Q134.353 1432.28 127.2 1432.28 L121.552 1432.28 M116.876 1428.44 L126.482 1428.44 Q136.529 1428.44 141.228 1432.63 Q145.927 1436.79 145.927 1445.68 Q145.927 1454.62 141.204 1458.81 Q136.482 1463 126.482 1463 L116.876 1463 L116.876 1428.44 Z" fill="#000000" fill-rule="nonzero" fill-opacity="1" /><path clip-path="url(#clip110)" d="M130.093 980.462 L123.751 997.661 L136.459 997.661 L130.093 980.462 M127.455 975.856 L132.755 975.856 L145.927 1010.42 L141.066 1010.42 L137.917 1001.55 L122.339 1001.55 L119.191 1010.42 L114.26 1010.42 L127.455 975.856 Z" fill="#000000" fill-rule="nonzero" fill-opacity="1" /><path clip-path="url(#clip110)" d="M126.089 541.332 L126.089 553.994 L133.589 553.994 Q137.362 553.994 139.167 552.443 Q140.996 550.869 140.996 547.651 Q140.996 544.41 139.167 542.882 Q137.362 541.332 133.589 541.332 L126.089 541.332 M126.089 527.119 L126.089 537.535 L133.01 537.535 Q136.436 537.535 138.103 536.262 Q139.792 534.966 139.792 532.327 Q139.792 529.711 138.103 528.415 Q136.436 527.119 133.01 527.119 L126.089 527.119 M121.413 523.276 L133.357 523.276 Q138.704 523.276 141.598 525.498 Q144.491 527.721 144.491 531.818 Q144.491 534.989 143.01 536.864 Q141.529 538.739 138.658 539.202 Q142.107 539.943 144.005 542.304 Q145.927 544.642 145.927 548.16 Q145.927 552.79 142.779 555.313 Q139.63 557.836 133.82 557.836 L121.413 557.836 L121.413 523.276 Z" fill="#000000" fill-rule="nonzero" fill-opacity="1" /><path clip-path="url(#clip110)" d="M145.927 73.3583 L145.927 78.2888 Q143.566 76.0898 140.88 75.0018 Q138.218 73.9139 135.209 73.9139 Q129.283 73.9139 126.135 77.5481 Q122.987 81.1592 122.987 88.011 Q122.987 94.8397 126.135 98.4739 Q129.283 102.085 135.209 102.085 Q138.218 102.085 140.88 100.997 Q143.566 99.9091 145.927 97.71 L145.927 102.594 Q143.473 104.261 140.718 105.094 Q137.987 105.928 134.931 105.928 Q127.084 105.928 122.57 101.136 Q118.056 96.3211 118.056 88.011 Q118.056 79.6777 122.57 74.8861 Q127.084 70.0713 134.931 70.0713 Q138.033 70.0713 140.765 70.9046 Q143.519 71.7148 145.927 73.3583 Z" fill="#000000" fill-rule="nonzero" fill-opacity="1" /><path clip-path="url(#clip110)" d="M21.7677 942.173 L39.6235 942.173 L39.6235 934.089 Q39.6235 929.601 37.3 927.15 Q34.9765 924.7 30.6797 924.7 Q26.4147 924.7 24.0912 927.15 Q21.7677 929.601 21.7677 934.089 L21.7677 942.173 M16.4842 948.603 L16.4842 934.089 Q16.4842 926.1 20.1126 922.026 Q23.7092 917.92 30.6797 917.92 Q37.7138 917.92 41.3104 922.026 Q44.907 926.1 44.907 934.089 L44.907 942.173 L64.0042 942.173 L64.0042 948.603 L16.4842 948.603 Z" fill="#000000" fill-rule="nonzero" fill-opacity="1" /><path clip-path="url(#clip110)" d="M46.0847 896.277 Q46.0847 903.374 47.7079 906.112 Q49.3312 908.849 53.2461 908.849 Q56.3653 908.849 58.2114 906.812 Q60.0256 904.743 60.0256 901.21 Q60.0256 896.34 56.5881 893.412 Q53.1188 890.452 47.3897 890.452 L46.0847 890.452 L46.0847 896.277 M43.6657 884.596 L64.0042 884.596 L64.0042 890.452 L58.5933 890.452 Q61.8398 892.457 63.3994 895.449 Q64.9272 898.441 64.9272 902.77 Q64.9272 908.244 61.8716 911.491 Q58.7843 914.705 53.6281 914.705 Q47.6125 914.705 44.5569 910.695 Q41.5014 906.653 41.5014 898.664 L41.5014 890.452 L40.9285 890.452 Q36.8862 890.452 34.6901 893.126 Q32.4621 895.767 32.4621 900.574 Q32.4621 903.629 33.1941 906.526 Q33.9262 909.422 35.3903 912.095 L29.9795 912.095 Q28.7381 908.881 28.1334 905.857 Q27.4968 902.833 27.4968 899.969 Q27.4968 892.234 31.5072 888.415 Q35.5176 884.596 43.6657 884.596 Z" fill="#000000" fill-rule="nonzero" fill-opacity="1" /><path clip-path="url(#clip110)" d="M33.8307 851.876 Q33.2578 852.863 33.0032 854.04 Q32.7167 855.186 32.7167 856.587 Q32.7167 861.552 35.9632 864.225 Q39.1779 866.867 45.2253 866.867 L64.0042 866.867 L64.0042 872.755 L28.3562 872.755 L28.3562 866.867 L33.8944 866.867 Q30.6479 865.021 29.0883 862.061 Q27.4968 859.101 27.4968 854.868 Q27.4968 854.263 27.5923 853.531 Q27.656 852.799 27.8151 851.908 L33.8307 851.876 Z" fill="#000000" fill-rule="nonzero" fill-opacity="1" /><path clip-path="url(#clip110)" d="M46.0847 829.532 Q46.0847 836.63 47.7079 839.367 Q49.3312 842.105 53.2461 842.105 Q56.3653 842.105 58.2114 840.068 Q60.0256 837.999 60.0256 834.466 Q60.0256 829.596 56.5881 826.668 Q53.1188 823.708 47.3897 823.708 L46.0847 823.708 L46.0847 829.532 M43.6657 817.851 L64.0042 817.851 L64.0042 823.708 L58.5933 823.708 Q61.8398 825.713 63.3994 828.705 Q64.9272 831.697 64.9272 836.025 Q64.9272 841.5 61.8716 844.746 Q58.7843 847.961 53.6281 847.961 Q47.6125 847.961 44.5569 843.951 Q41.5014 839.908 41.5014 831.919 L41.5014 823.708 L40.9285 823.708 Q36.8862 823.708 34.6901 826.381 Q32.4621 829.023 32.4621 833.829 Q32.4621 836.885 33.1941 839.781 Q33.9262 842.677 35.3903 845.351 L29.9795 845.351 Q28.7381 842.136 28.1334 839.113 Q27.4968 836.089 27.4968 833.224 Q27.4968 825.49 31.5072 821.671 Q35.5176 817.851 43.6657 817.851 Z" fill="#000000" fill-rule="nonzero" fill-opacity="1" /><path clip-path="url(#clip110)" d="M35.1993 778.034 Q31.2526 775.838 29.3747 772.782 Q27.4968 769.726 27.4968 765.589 Q27.4968 760.019 31.4117 756.995 Q35.2948 753.971 42.4881 753.971 L64.0042 753.971 L64.0042 759.86 L42.679 759.86 Q37.5546 759.86 35.072 761.674 Q32.5894 763.488 32.5894 767.212 Q32.5894 771.763 35.6131 774.405 Q38.6368 777.047 43.8567 777.047 L64.0042 777.047 L64.0042 782.935 L42.679 782.935 Q37.5228 782.935 35.072 784.75 Q32.5894 786.564 32.5894 790.351 Q32.5894 794.839 35.6449 797.481 Q38.6686 800.123 43.8567 800.123 L64.0042 800.123 L64.0042 806.011 L28.3562 806.011 L28.3562 800.123 L33.8944 800.123 Q30.616 798.118 29.0564 795.317 Q27.4968 792.516 27.4968 788.664 Q27.4968 784.781 29.4702 782.076 Q31.4436 779.339 35.1993 778.034 Z" fill="#000000" fill-rule="nonzero" fill-opacity="1" /><path clip-path="url(#clip110)" d="M44.7161 711.799 L47.5806 711.799 L47.5806 738.725 Q53.6281 738.344 56.8109 735.097 Q59.9619 731.819 59.9619 725.994 Q59.9619 722.62 59.1344 719.469 Q58.3069 716.286 56.6518 713.167 L62.1899 713.167 Q63.5267 716.318 64.227 719.628 Q64.9272 722.939 64.9272 726.344 Q64.9272 734.874 59.9619 739.871 Q54.9967 744.837 46.5303 744.837 Q37.7774 744.837 32.6531 740.126 Q27.4968 735.383 27.4968 727.363 Q27.4968 720.169 32.1438 716 Q36.7589 711.799 44.7161 711.799 M42.9973 717.655 Q38.1912 717.719 35.3266 720.36 Q32.4621 722.97 32.4621 727.299 Q32.4621 732.201 35.2312 735.161 Q38.0002 738.089 43.0292 738.535 L42.9973 717.655 Z" fill="#000000" fill-rule="nonzero" fill-opacity="1" /><path clip-path="url(#clip110)" d="M18.2347 696.394 L28.3562 696.394 L28.3562 684.331 L32.9077 684.331 L32.9077 696.394 L52.2594 696.394 Q56.6199 696.394 57.8613 695.216 Q59.1026 694.006 59.1026 690.346 L59.1026 684.331 L64.0042 684.331 L64.0042 690.346 Q64.0042 697.126 61.4897 699.704 Q58.9434 702.282 52.2594 702.282 L32.9077 702.282 L32.9077 706.579 L28.3562 706.579 L28.3562 702.282 L18.2347 702.282 L18.2347 696.394 Z" fill="#000000" fill-rule="nonzero" fill-opacity="1" /><path clip-path="url(#clip110)" d="M44.7161 646.136 L47.5806 646.136 L47.5806 673.063 Q53.6281 672.681 56.8109 669.435 Q59.9619 666.156 59.9619 660.332 Q59.9619 656.958 59.1344 653.807 Q58.3069 650.624 56.6518 647.505 L62.1899 647.505 Q63.5267 650.656 64.227 653.966 Q64.9272 657.276 64.9272 660.682 Q64.9272 669.212 59.9619 674.209 Q54.9967 679.174 46.5303 679.174 Q37.7774 679.174 32.6531 674.464 Q27.4968 669.721 27.4968 661.7 Q27.4968 654.507 32.1438 650.338 Q36.7589 646.136 44.7161 646.136 M42.9973 651.993 Q38.1912 652.056 35.3266 654.698 Q32.4621 657.308 32.4621 661.637 Q32.4621 666.538 35.2312 669.498 Q38.0002 672.427 43.0292 672.872 L42.9973 651.993 Z" fill="#000000" fill-rule="nonzero" fill-opacity="1" /><path clip-path="url(#clip110)" d="M33.8307 615.867 Q33.2578 616.854 33.0032 618.032 Q32.7167 619.178 32.7167 620.578 Q32.7167 625.543 35.9632 628.217 Q39.1779 630.859 45.2253 630.859 L64.0042 630.859 L64.0042 636.747 L28.3562 636.747 L28.3562 630.859 L33.8944 630.859 Q30.6479 629.013 29.0883 626.052 Q27.4968 623.092 27.4968 618.859 Q27.4968 618.254 27.5923 617.522 Q27.656 616.79 27.8151 615.899 L33.8307 615.867 Z" fill="#000000" fill-rule="nonzero" fill-opacity="1" /><path clip-path="url(#clip110)" d="M29.4065 586.999 L34.9447 586.999 Q33.6716 589.481 33.035 592.155 Q32.3984 594.829 32.3984 597.693 Q32.3984 602.054 33.7352 604.25 Q35.072 606.414 37.7456 606.414 Q39.7826 606.414 40.9603 604.855 Q42.1061 603.295 43.1565 598.584 L43.6021 596.579 Q44.9389 590.341 47.3897 587.731 Q49.8086 585.089 54.1691 585.089 Q59.1344 585.089 62.0308 589.036 Q64.9272 592.951 64.9272 599.826 Q64.9272 602.69 64.3543 605.81 Q63.8132 608.897 62.6992 612.334 L56.6518 612.334 Q58.3387 609.088 59.198 605.937 Q60.0256 602.786 60.0256 599.698 Q60.0256 595.561 58.6251 593.333 Q57.1929 591.105 54.6147 591.105 Q52.2276 591.105 50.9545 592.728 Q49.6813 594.319 48.5037 599.762 L48.0262 601.799 Q46.8804 607.242 44.5251 609.661 Q42.138 612.08 38.0002 612.08 Q32.9713 612.08 30.2341 608.515 Q27.4968 604.95 27.4968 598.393 Q27.4968 595.147 27.9743 592.282 Q28.4517 589.418 29.4065 586.999 Z" fill="#000000" fill-rule="nonzero" fill-opacity="1" /><polyline clip-path="url(#clip112)" style="stroke:#009af9; stroke-linecap:round; stroke-linejoin:round; stroke-width:6; stroke-opacity:0.8; fill:none" points="879.8,1445.72 1270.58,1445.72 "/>
<polyline clip-path="url(#clip112)" style="stroke:#e26f46; stroke-linecap:round; stroke-linejoin:round; stroke-width:12; stroke-opacity:0.8; fill:none" points="879.8,1445.72 1270.58,1445.72 "/>
<path clip-path="url(#clip112)" d="M879.8 1437.72 L871.8 1445.72 L879.8 1453.72 L887.8 1445.72 L879.8 1437.72 Z" fill="#000000" fill-rule="evenodd" fill-opacity="1" stroke="none"/>
<circle clip-path="url(#clip112)" cx="1061.51" cy="1445.72" r="7.2" fill="#808080" fill-rule="evenodd" fill-opacity="1" stroke="#000000" stroke-opacity="1" stroke-width="3.2"/>
<circle clip-path="url(#clip112)" style="fill:#000000; stroke:none; fill-opacity:1" cx="879.8" cy="1445.72" r="2"/>
<polyline clip-path="url(#clip112)" style="stroke:#000000; stroke-linecap:round; stroke-linejoin:round; stroke-width:0; stroke-opacity:1; fill:none" points="879.8,1445.72 1270.58,1445.72 "/>
<polyline clip-path="url(#clip112)" style="stroke:#009af9; stroke-linecap:round; stroke-linejoin:round; stroke-width:6; stroke-opacity:0.8; fill:none" points="243.365,993.136 1699.68,993.136 "/>
<polyline clip-path="url(#clip112)" style="stroke:#e26f46; stroke-linecap:round; stroke-linejoin:round; stroke-width:12; stroke-opacity:0.8; fill:none" points="439.763,993.136 1382.48,993.136 "/>
<path clip-path="url(#clip112)" d="M896.314 985.136 L888.314 993.136 L896.314 1001.14 L904.314 993.136 L896.314 985.136 Z" fill="#000000" fill-rule="evenodd" fill-opacity="1" stroke="none"/>
<circle clip-path="url(#clip112)" cx="904.167" cy="993.136" r="7.2" fill="#808080" fill-rule="evenodd" fill-opacity="1" stroke="#000000" stroke-opacity="1" stroke-width="3.2"/>
<circle clip-path="url(#clip112)" style="fill:#000000; stroke:none; fill-opacity:1" cx="896.314" cy="993.136" r="2"/>
<polyline clip-path="url(#clip112)" style="stroke:#000000; stroke-linecap:round; stroke-linejoin:round; stroke-width:0; stroke-opacity:1; fill:none" points="460.635,993.136 1404.57,993.136 "/>
<polyline clip-path="url(#clip112)" style="stroke:#009af9; stroke-linecap:round; stroke-linejoin:round; stroke-width:6; stroke-opacity:0.8; fill:none" points="612.854,540.556 1986.48,540.556 "/>
<polyline clip-path="url(#clip112)" style="stroke:#e26f46; stroke-linecap:round; stroke-linejoin:round; stroke-width:12; stroke-opacity:0.8; fill:none" points="799.993,540.556 1816.84,540.556 "/>
<path clip-path="url(#clip112)" d="M1264.31 532.556 L1256.31 540.556 L1264.31 548.556 L1272.31 540.556 L1264.31 532.556 Z" fill="#000000" fill-rule="evenodd" fill-opacity="1" stroke="none"/>
<circle clip-path="url(#clip112)" cx="1263.72" cy="540.556" r="7.2" fill="#808080" fill-rule="evenodd" fill-opacity="1" stroke="#000000" stroke-opacity="1" stroke-width="3.2"/>
<circle clip-path="url(#clip112)" style="fill:#000000; stroke:none; fill-opacity:1" cx="1264.31" cy="540.556" r="2"/>
<polyline clip-path="url(#clip112)" style="stroke:#000000; stroke-linecap:round; stroke-linejoin:round; stroke-width:0; stroke-opacity:1; fill:none" points="753.819,540.556 1782.91,540.556 "/>
<polyline clip-path="url(#clip112)" style="stroke:#009af9; stroke-linecap:round; stroke-linejoin:round; stroke-width:6; stroke-opacity:0.8; fill:none" points="819.068,87.9763 2291.32,87.9763 "/>
<polyline clip-path="url(#clip112)" style="stroke:#e26f46; stroke-linecap:round; stroke-linejoin:round; stroke-width:12; stroke-opacity:0.8; fill:none" points="1141.58,87.9763 2099.31,87.9763 "/>
<path clip-path="url(#clip112)" d="M1660.04 79.9763 L1652.04 87.9763 L1660.04 95.9763 L1668.04 87.9763 L1660.04 79.9763 Z" fill="#000000" fill-rule="evenodd" fill-opacity="1" stroke="none"/>
<circle clip-path="url(#clip112)" cx="1635.89" cy="87.9763" r="7.2" fill="#808080" fill-rule="evenodd" fill-opacity="1" stroke="#000000" stroke-opacity="1" stroke-width="3.2"/>
<circle clip-path="url(#clip112)" style="fill:#000000; stroke:none; fill-opacity:1" cx="1660.04" cy="87.9763" r="2"/>
<polyline clip-path="url(#clip112)" style="stroke:#000000; stroke-linecap:round; stroke-linejoin:round; stroke-width:0; stroke-opacity:1; fill:none" points="1151.21,87.9763 2101.58,87.9763 "/>
<path clip-path="url(#clip110)" d="M254.288 354.418 L670.305 354.418 L670.305 95.2176 L254.288 95.2176  Z" fill="#ffffff" fill-rule="evenodd" fill-opacity="1"/>
<polyline clip-path="url(#clip110)" style="stroke:#000000; stroke-linecap:round; stroke-linejoin:round; stroke-width:4; stroke-opacity:1; fill:none" points="254.288,354.418 670.305,354.418 670.305,95.2176 254.288,95.2176 254.288,354.418 "/>
<polyline clip-path="url(#clip110)" style="stroke:#009af9; stroke-linecap:round; stroke-linejoin:round; stroke-width:6; stroke-opacity:0.8; fill:none" points="278.408,147.058 423.13,147.058 "/>
<path clip-path="url(#clip110)" d="M449.472 163.62 L449.472 159.361 Q451.232 160.194 453.037 160.634 Q454.843 161.074 456.579 161.074 Q461.208 161.074 463.639 157.972 Q466.093 154.847 466.44 148.504 Q465.097 150.495 463.037 151.56 Q460.977 152.625 458.477 152.625 Q453.292 152.625 450.259 149.5 Q447.25 146.352 447.25 140.912 Q447.25 135.588 450.398 132.37 Q453.546 129.153 458.778 129.153 Q464.773 129.153 467.921 133.759 Q471.093 138.342 471.093 147.092 Q471.093 155.264 467.204 160.148 Q463.338 165.009 456.787 165.009 Q455.028 165.009 453.222 164.662 Q451.417 164.314 449.472 163.62 M458.778 148.967 Q461.926 148.967 463.755 146.814 Q465.607 144.662 465.607 140.912 Q465.607 137.185 463.755 135.032 Q461.926 132.856 458.778 132.856 Q455.63 132.856 453.778 135.032 Q451.949 137.185 451.949 140.912 Q451.949 144.662 453.778 146.814 Q455.63 148.967 458.778 148.967 Z" fill="#000000" fill-rule="nonzero" fill-opacity="1" /><path clip-path="url(#clip110)" d="M492.343 133.852 L480.537 152.301 L492.343 152.301 L492.343 133.852 M491.116 129.778 L496.995 129.778 L496.995 152.301 L501.926 152.301 L501.926 156.189 L496.995 156.189 L496.995 164.338 L492.343 164.338 L492.343 156.189 L476.741 156.189 L476.741 151.676 L491.116 129.778 Z" fill="#000000" fill-rule="nonzero" fill-opacity="1" /><path clip-path="url(#clip110)" d="M539.055 149.129 Q537.041 149.129 535.884 150.842 Q534.75 152.555 534.75 155.611 Q534.75 158.62 535.884 160.356 Q537.041 162.069 539.055 162.069 Q541.023 162.069 542.157 160.356 Q543.315 158.62 543.315 155.611 Q543.315 152.578 542.157 150.865 Q541.023 149.129 539.055 149.129 M539.055 146.19 Q542.713 146.19 544.865 148.736 Q547.018 151.282 547.018 155.611 Q547.018 159.939 544.842 162.486 Q542.69 165.009 539.055 165.009 Q535.352 165.009 533.199 162.486 Q531.046 159.939 531.046 155.611 Q531.046 151.259 533.199 148.736 Q535.375 146.19 539.055 146.19 M515.167 132.092 Q513.176 132.092 512.018 133.828 Q510.884 135.541 510.884 138.551 Q510.884 141.606 512.018 143.319 Q513.153 145.032 515.167 145.032 Q517.18 145.032 518.315 143.319 Q519.472 141.606 519.472 138.551 Q519.472 135.565 518.315 133.828 Q517.157 132.092 515.167 132.092 M536.069 129.153 L539.773 129.153 L518.153 165.009 L514.449 165.009 L536.069 129.153 M515.167 129.153 Q518.824 129.153 521 131.699 Q523.176 134.222 523.176 138.551 Q523.176 142.926 521 145.449 Q518.847 147.972 515.167 147.972 Q511.486 147.972 509.333 145.449 Q507.204 142.902 507.204 138.551 Q507.204 134.245 509.356 131.699 Q511.509 129.153 515.167 129.153 Z" fill="#000000" fill-rule="nonzero" fill-opacity="1" /><path clip-path="url(#clip110)" d="M569.356 129.778 L574.032 129.778 L574.032 143.944 L591.023 143.944 L591.023 129.778 L595.699 129.778 L595.699 164.338 L591.023 164.338 L591.023 147.879 L574.032 147.879 L574.032 164.338 L569.356 164.338 L569.356 129.778 Z" fill="#000000" fill-rule="nonzero" fill-opacity="1" /><path clip-path="url(#clip110)" d="M609.68 133.62 L609.68 160.495 L615.328 160.495 Q622.481 160.495 625.791 157.254 Q629.124 154.014 629.124 147.023 Q629.124 140.078 625.791 136.861 Q622.481 133.62 615.328 133.62 L609.68 133.62 M605.004 129.778 L614.61 129.778 Q624.657 129.778 629.356 133.967 Q634.055 138.134 634.055 147.023 Q634.055 155.958 629.333 160.148 Q624.61 164.338 614.61 164.338 L605.004 164.338 L605.004 129.778 Z" fill="#000000" fill-rule="nonzero" fill-opacity="1" /><path clip-path="url(#clip110)" d="M641.508 129.778 L646.184 129.778 L646.184 164.338 L641.508 164.338 L641.508 129.778 Z" fill="#000000" fill-rule="nonzero" fill-opacity="1" /><polyline clip-path="url(#clip110)" style="stroke:#e26f46; stroke-linecap:round; stroke-linejoin:round; stroke-width:12; stroke-opacity:0.8; fill:none" points="278.408,198.898 423.13,198.898 "/>
<path clip-path="url(#clip110)" d="M459.102 199.766 Q455.769 199.766 453.847 201.548 Q451.949 203.33 451.949 206.455 Q451.949 209.58 453.847 211.363 Q455.769 213.145 459.102 213.145 Q462.435 213.145 464.357 211.363 Q466.278 209.557 466.278 206.455 Q466.278 203.33 464.357 201.548 Q462.458 199.766 459.102 199.766 M454.426 197.775 Q451.417 197.034 449.727 194.974 Q448.06 192.914 448.06 189.951 Q448.06 185.807 451 183.4 Q453.963 180.993 459.102 180.993 Q464.264 180.993 467.204 183.4 Q470.144 185.807 470.144 189.951 Q470.144 192.914 468.454 194.974 Q466.787 197.034 463.801 197.775 Q467.181 198.562 469.056 200.854 Q470.954 203.145 470.954 206.455 Q470.954 211.479 467.875 214.164 Q464.82 216.849 459.102 216.849 Q453.384 216.849 450.306 214.164 Q447.25 211.479 447.25 206.455 Q447.25 203.145 449.148 200.854 Q451.047 198.562 454.426 197.775 M452.713 190.391 Q452.713 193.076 454.38 194.58 Q456.07 196.085 459.102 196.085 Q462.111 196.085 463.801 194.58 Q465.514 193.076 465.514 190.391 Q465.514 187.705 463.801 186.201 Q462.111 184.696 459.102 184.696 Q456.07 184.696 454.38 186.201 Q452.713 187.705 452.713 190.391 Z" fill="#000000" fill-rule="nonzero" fill-opacity="1" /><path clip-path="url(#clip110)" d="M489.264 184.696 Q485.653 184.696 483.824 188.261 Q482.019 191.803 482.019 198.932 Q482.019 206.039 483.824 209.604 Q485.653 213.145 489.264 213.145 Q492.898 213.145 494.704 209.604 Q496.532 206.039 496.532 198.932 Q496.532 191.803 494.704 188.261 Q492.898 184.696 489.264 184.696 M489.264 180.993 Q495.074 180.993 498.13 185.599 Q501.208 190.182 501.208 198.932 Q501.208 207.659 498.13 212.266 Q495.074 216.849 489.264 216.849 Q483.454 216.849 480.375 212.266 Q477.32 207.659 477.32 198.932 Q477.32 190.182 480.375 185.599 Q483.454 180.993 489.264 180.993 Z" fill="#000000" fill-rule="nonzero" fill-opacity="1" /><path clip-path="url(#clip110)" d="M538.824 200.969 Q536.81 200.969 535.653 202.682 Q534.518 204.395 534.518 207.451 Q534.518 210.46 535.653 212.196 Q536.81 213.909 538.824 213.909 Q540.791 213.909 541.926 212.196 Q543.083 210.46 543.083 207.451 Q543.083 204.418 541.926 202.705 Q540.791 200.969 538.824 200.969 M538.824 198.03 Q542.481 198.03 544.634 200.576 Q546.787 203.122 546.787 207.451 Q546.787 211.779 544.611 214.326 Q542.458 216.849 538.824 216.849 Q535.12 216.849 532.967 214.326 Q530.815 211.779 530.815 207.451 Q530.815 203.099 532.967 200.576 Q535.143 198.03 538.824 198.03 M514.935 183.932 Q512.944 183.932 511.787 185.668 Q510.653 187.381 510.653 190.391 Q510.653 193.446 511.787 195.159 Q512.921 196.872 514.935 196.872 Q516.949 196.872 518.083 195.159 Q519.241 193.446 519.241 190.391 Q519.241 187.405 518.083 185.668 Q516.926 183.932 514.935 183.932 M535.838 180.993 L539.541 180.993 L517.921 216.849 L514.217 216.849 L535.838 180.993 M514.935 180.993 Q518.592 180.993 520.768 183.539 Q522.944 186.062 522.944 190.391 Q522.944 194.766 520.768 197.289 Q518.616 199.812 514.935 199.812 Q511.255 199.812 509.102 197.289 Q506.972 194.742 506.972 190.391 Q506.972 186.085 509.125 183.539 Q511.278 180.993 514.935 180.993 Z" fill="#000000" fill-rule="nonzero" fill-opacity="1" /><path clip-path="url(#clip110)" d="M569.125 181.618 L573.8 181.618 L573.8 195.784 L590.791 195.784 L590.791 181.618 L595.467 181.618 L595.467 216.178 L590.791 216.178 L590.791 199.719 L573.8 199.719 L573.8 216.178 L569.125 216.178 L569.125 181.618 Z" fill="#000000" fill-rule="nonzero" fill-opacity="1" /><path clip-path="url(#clip110)" d="M609.448 185.46 L609.448 212.335 L615.097 212.335 Q622.249 212.335 625.559 209.094 Q628.893 205.854 628.893 198.863 Q628.893 191.918 625.559 188.701 Q622.249 185.46 615.097 185.46 L609.448 185.46 M604.773 181.618 L614.379 181.618 Q624.425 181.618 629.124 185.807 Q633.823 189.974 633.823 198.863 Q633.823 207.798 629.101 211.988 Q624.379 216.178 614.379 216.178 L604.773 216.178 L604.773 181.618 Z" fill="#000000" fill-rule="nonzero" fill-opacity="1" /><path clip-path="url(#clip110)" d="M641.277 181.618 L645.953 181.618 L645.953 216.178 L641.277 216.178 L641.277 181.618 Z" fill="#000000" fill-rule="nonzero" fill-opacity="1" /><path clip-path="url(#clip110)" d="M350.769 230.258 L330.289 250.738 L350.769 271.218 L371.249 250.738 L350.769 230.258 Z" fill="#000000" fill-rule="evenodd" fill-opacity="1" stroke="none"/>
<path clip-path="url(#clip110)" d="M447.25 233.458 L454.218 233.458 L463.037 256.976 L471.903 233.458 L478.87 233.458 L478.87 268.018 L474.31 268.018 L474.31 237.67 L465.398 261.374 L460.699 261.374 L451.787 237.67 L451.787 268.018 L447.25 268.018 L447.25 233.458 Z" fill="#000000" fill-rule="nonzero" fill-opacity="1" /><path clip-path="url(#clip110)" d="M510.143 253.99 L510.143 256.073 L490.56 256.073 Q490.838 260.471 493.199 262.786 Q495.583 265.078 499.819 265.078 Q502.273 265.078 504.565 264.476 Q506.88 263.874 509.148 262.67 L509.148 266.698 Q506.856 267.67 504.449 268.18 Q502.042 268.689 499.565 268.689 Q493.361 268.689 489.727 265.078 Q486.116 261.467 486.116 255.309 Q486.116 248.944 489.542 245.217 Q492.991 241.467 498.824 241.467 Q504.055 241.467 507.088 244.846 Q510.143 248.203 510.143 253.99 M505.884 252.74 Q505.838 249.245 503.917 247.161 Q502.018 245.078 498.87 245.078 Q495.306 245.078 493.153 247.092 Q491.023 249.106 490.699 252.763 L505.884 252.74 Z" fill="#000000" fill-rule="nonzero" fill-opacity="1" /><path clip-path="url(#clip110)" d="M534.194 246.027 L534.194 231.999 L538.453 231.999 L538.453 268.018 L534.194 268.018 L534.194 264.129 Q532.852 266.443 530.791 267.578 Q528.754 268.689 525.884 268.689 Q521.185 268.689 518.222 264.939 Q515.282 261.189 515.282 255.078 Q515.282 248.967 518.222 245.217 Q521.185 241.467 525.884 241.467 Q528.754 241.467 530.791 242.601 Q532.852 243.712 534.194 246.027 M519.68 255.078 Q519.68 259.777 521.602 262.462 Q523.546 265.124 526.926 265.124 Q530.305 265.124 532.25 262.462 Q534.194 259.777 534.194 255.078 Q534.194 250.379 532.25 247.717 Q530.305 245.032 526.926 245.032 Q523.546 245.032 521.602 247.717 Q519.68 250.379 519.68 255.078 Z" fill="#000000" fill-rule="nonzero" fill-opacity="1" /><path clip-path="url(#clip110)" d="M547.227 242.092 L551.486 242.092 L551.486 268.018 L547.227 268.018 L547.227 242.092 M547.227 231.999 L551.486 231.999 L551.486 237.393 L547.227 237.393 L547.227 231.999 Z" fill="#000000" fill-rule="nonzero" fill-opacity="1" /><path clip-path="url(#clip110)" d="M572.18 254.985 Q567.018 254.985 565.027 256.166 Q563.037 257.346 563.037 260.194 Q563.037 262.462 564.518 263.805 Q566.023 265.124 568.592 265.124 Q572.134 265.124 574.263 262.624 Q576.416 260.101 576.416 255.934 L576.416 254.985 L572.18 254.985 M580.675 253.226 L580.675 268.018 L576.416 268.018 L576.416 264.082 Q574.958 266.443 572.782 267.578 Q570.606 268.689 567.458 268.689 Q563.476 268.689 561.115 266.467 Q558.777 264.221 558.777 260.471 Q558.777 256.096 561.694 253.874 Q564.634 251.652 570.444 251.652 L576.416 251.652 L576.416 251.235 Q576.416 248.295 574.472 246.698 Q572.55 245.078 569.055 245.078 Q566.833 245.078 564.726 245.61 Q562.62 246.143 560.676 247.207 L560.676 243.272 Q563.013 242.37 565.213 241.93 Q567.412 241.467 569.495 241.467 Q575.12 241.467 577.898 244.383 Q580.675 247.3 580.675 253.226 Z" fill="#000000" fill-rule="nonzero" fill-opacity="1" /><path clip-path="url(#clip110)" d="M610.999 252.369 L610.999 268.018 L606.74 268.018 L606.74 252.508 Q606.74 248.828 605.305 246.999 Q603.87 245.17 600.999 245.17 Q597.55 245.17 595.56 247.37 Q593.569 249.569 593.569 253.365 L593.569 268.018 L589.287 268.018 L589.287 242.092 L593.569 242.092 L593.569 246.12 Q595.097 243.782 597.157 242.624 Q599.24 241.467 601.948 241.467 Q606.416 241.467 608.708 244.245 Q610.999 246.999 610.999 252.369 Z" fill="#000000" fill-rule="nonzero" fill-opacity="1" /><circle clip-path="url(#clip110)" cx="350.769" cy="302.578" r="18.432" fill="#808080" fill-rule="evenodd" fill-opacity="1" stroke="#000000" stroke-opacity="1" stroke-width="8.192"/>
<path clip-path="url(#clip110)" d="M447.25 285.298 L454.218 285.298 L463.037 308.816 L471.903 285.298 L478.87 285.298 L478.87 319.858 L474.31 319.858 L474.31 289.51 L465.398 313.214 L460.699 313.214 L451.787 289.51 L451.787 319.858 L447.25 319.858 L447.25 285.298 Z" fill="#000000" fill-rule="nonzero" fill-opacity="1" /><path clip-path="url(#clip110)" d="M510.143 305.83 L510.143 307.913 L490.56 307.913 Q490.838 312.311 493.199 314.626 Q495.583 316.918 499.819 316.918 Q502.273 316.918 504.565 316.316 Q506.88 315.714 509.148 314.51 L509.148 318.538 Q506.856 319.51 504.449 320.02 Q502.042 320.529 499.565 320.529 Q493.361 320.529 489.727 316.918 Q486.116 313.307 486.116 307.149 Q486.116 300.784 489.542 297.057 Q492.991 293.307 498.824 293.307 Q504.055 293.307 507.088 296.686 Q510.143 300.043 510.143 305.83 M505.884 304.58 Q505.838 301.085 503.917 299.001 Q502.018 296.918 498.87 296.918 Q495.306 296.918 493.153 298.932 Q491.023 300.946 490.699 304.603 L505.884 304.58 Z" fill="#000000" fill-rule="nonzero" fill-opacity="1" /><path clip-path="url(#clip110)" d="M528.916 306.825 Q523.754 306.825 521.764 308.006 Q519.773 309.186 519.773 312.034 Q519.773 314.302 521.254 315.645 Q522.759 316.964 525.329 316.964 Q528.87 316.964 531 314.464 Q533.153 311.941 533.153 307.774 L533.153 306.825 L528.916 306.825 M537.412 305.066 L537.412 319.858 L533.153 319.858 L533.153 315.922 Q531.694 318.283 529.518 319.418 Q527.342 320.529 524.194 320.529 Q520.213 320.529 517.852 318.307 Q515.514 316.061 515.514 312.311 Q515.514 307.936 518.43 305.714 Q521.37 303.492 527.18 303.492 L533.153 303.492 L533.153 303.075 Q533.153 300.135 531.208 298.538 Q529.287 296.918 525.791 296.918 Q523.569 296.918 521.463 297.45 Q519.356 297.983 517.412 299.047 L517.412 295.112 Q519.75 294.21 521.949 293.77 Q524.148 293.307 526.231 293.307 Q531.856 293.307 534.634 296.223 Q537.412 299.14 537.412 305.066 Z" fill="#000000" fill-rule="nonzero" fill-opacity="1" /><path clip-path="url(#clip110)" d="M567.736 304.209 L567.736 319.858 L563.476 319.858 L563.476 304.348 Q563.476 300.668 562.041 298.839 Q560.606 297.01 557.736 297.01 Q554.287 297.01 552.296 299.21 Q550.305 301.409 550.305 305.205 L550.305 319.858 L546.023 319.858 L546.023 293.932 L550.305 293.932 L550.305 297.96 Q551.833 295.622 553.893 294.464 Q555.976 293.307 558.685 293.307 Q563.152 293.307 565.444 296.085 Q567.736 298.839 567.736 304.209 Z" fill="#000000" fill-rule="nonzero" fill-opacity="1" /></svg>
