<?xml version="1.0" encoding="utf-8"?>
<svg xmlns="http://www.w3.org/2000/svg" xmlns:xlink="http://www.w3.org/1999/xlink" width="600" height="400" viewBox="0 0 2400 1600">
<defs>
  <clipPath id="clip050">
    <rect x="0" y="0" width="2400" height="1600"/>
  </clipPath>
</defs>
<path clip-path="url(#clip050)" d="M0 1600 L2400 1600 L2400 0 L0 0  Z" fill="#ffffff" fill-rule="evenodd" fill-opacity="1"/>
<defs>
  <clipPath id="clip051">
    <rect x="480" y="0" width="1681" height="1600"/>
  </clipPath>
</defs>
<path clip-path="url(#clip050)" d="M181.927 1486.45 L2352.76 1486.45 L2352.76 47.2441 L181.927 47.2441  Z" fill="#ffffff" fill-rule="evenodd" fill-opacity="1"/>
<defs>
  <clipPath id="clip052">
    <rect x="181" y="47" width="2172" height="1440"/>
  </clipPath>
</defs>
<polyline clip-path="url(#clip052)" style="stroke:#000000; stroke-linecap:round; stroke-linejoin:round; stroke-width:2; stroke-opacity:0.1; fill:none" points="489.021,1486.45 489.021,47.2441 "/>
<polyline clip-path="url(#clip052)" style="stroke:#000000; stroke-linecap:round; stroke-linejoin:round; stroke-width:2; stroke-opacity:0.1; fill:none" points="879.8,1486.45 879.8,47.2441 "/>
<polyline clip-path="url(#clip052)" style="stroke:#000000; stroke-linecap:round; stroke-linejoin:round; stroke-width:2; stroke-opacity:0.1; fill:none" points="1270.58,1486.45 1270.58,47.2441 "/>
<polyline clip-path="url(#clip052)" style="stroke:#000000; stroke-linecap:round; stroke-linejoin:round; stroke-width:2; stroke-opacity:0.1; fill:none" points="1661.36,1486.45 1661.36,47.2441 "/>
<polyline clip-path="url(#clip052)" style="stroke:#000000; stroke-linecap:round; stroke-linejoin:round; stroke-width:2; stroke-opacity:0.1; fill:none" points="2052.14,1486.45 2052.14,47.2441 "/>
<polyline clip-path="url(#clip052)" style="stroke:#000000; stroke-linecap:round; stroke-linejoin:round; stroke-width:2; stroke-opacity:0.1; fill:none" points="181.927,1445.72 2352.76,1445.72 "/>
<polyline clip-path="url(#clip052)" style="stroke:#000000; stroke-linecap:round; stroke-linejoin:round; stroke-width:2; stroke-opacity:0.1; fill:none" points="181.927,766.846 2352.76,766.846 "/>
<polyline clip-path="url(#clip052)" style="stroke:#000000; stroke-linecap:round; stroke-linejoin:round; stroke-width:2; stroke-opacity:0.1; fill:none" points="181.927,87.9763 2352.76,87.9763 "/>
<polyline clip-path="url(#clip050)" style="stroke:#000000; stroke-linecap:round; stroke-linejoin:round; stroke-width:4; stroke-opacity:1; fill:none" points="181.927,1486.45 2352.76,1486.45 "/>
<polyline clip-path="url(#clip050)" style="stroke:#000000; stroke-linecap:round; stroke-linejoin:round; stroke-width:4; stroke-opacity:1; fill:none" points="489.021,1486.45 489.021,1467.55 "/>
<polyline clip-path="url(#clip050)" style="stroke:#000000; stroke-linecap:round; stroke-linejoin:round; stroke-width:4; stroke-opacity:1; fill:none" points="879.8,1486.45 879.8,1467.55 "/>
<polyline clip-path="url(#clip050)" style="stroke:#000000; stroke-linecap:round; stroke-linejoin:round; stroke-width:4; stroke-opacity:1; fill:none" points="1270.58,1486.45 1270.58,1467.55 "/>
<polyline clip-path="url(#clip050)" style="stroke:#000000; stroke-linecap:round; stroke-linejoin:round; stroke-width:4; stroke-opacity:1; fill:none" points="1661.36,1486.45 1661.36,1467.55 "/>
<polyline clip-path="url(#clip050)" style="stroke:#000000; stroke-linecap:round; stroke-linejoin:round; stroke-width:4; stroke-opacity:1; fill:none" points="2052.14,1486.45 2052.14,1467.55 "/>
<path clip-path="url(#clip050)" d="M489.021 1517.37 Q485.41 1517.37 483.581 1520.93 Q481.776 1524.47 481.776 1531.6 Q481.776 1538.71 483.581 1542.27 Q485.41 1545.82 489.021 1545.82 Q492.655 1545.82 494.461 1542.27 Q496.29 1538.71 496.29 1531.6 Q496.29 1524.47 494.461 1520.93 Q492.655 1517.37 489.021 1517.37 M489.021 1513.66 Q494.831 1513.66 497.887 1518.27 Q500.965 1522.85 500.965 1531.6 Q500.965 1540.33 497.887 1544.94 Q494.831 1549.52 489.021 1549.52 Q483.211 1549.52 480.132 1544.94 Q477.077 1540.33 477.077 1531.6 Q477.077 1522.85 480.132 1518.27 Q483.211 1513.66 489.021 1513.66 Z" fill="#000000" fill-rule="nonzero" fill-opacity="1" /><path clip-path="url(#clip050)" d="M870.182 1544.91 L877.821 1544.91 L877.821 1518.55 L869.511 1520.21 L869.511 1515.95 L877.775 1514.29 L882.451 1514.29 L882.451 1544.91 L890.09 1544.91 L890.09 1548.85 L870.182 1548.85 L870.182 1544.91 Z" fill="#000000" fill-rule="nonzero" fill-opacity="1" /><path clip-path="url(#clip050)" d="M1265.23 1544.91 L1281.55 1544.91 L1281.55 1548.85 L1259.61 1548.85 L1259.61 1544.91 Q1262.27 1542.16 1266.85 1537.53 Q1271.46 1532.88 1272.64 1531.53 Q1274.89 1529.01 1275.76 1527.27 Q1276.67 1525.51 1276.67 1523.82 Q1276.67 1521.07 1274.72 1519.33 Q1272.8 1517.6 1269.7 1517.6 Q1267.5 1517.6 1265.05 1518.36 Q1262.62 1519.13 1259.84 1520.68 L1259.84 1515.95 Q1262.66 1514.82 1265.12 1514.24 Q1267.57 1513.66 1269.61 1513.66 Q1274.98 1513.66 1278.17 1516.35 Q1281.37 1519.03 1281.37 1523.52 Q1281.37 1525.65 1280.56 1527.57 Q1279.77 1529.47 1277.66 1532.07 Q1277.08 1532.74 1273.98 1535.95 Q1270.88 1539.15 1265.23 1544.91 Z" fill="#000000" fill-rule="nonzero" fill-opacity="1" /><path clip-path="url(#clip050)" d="M1665.61 1530.21 Q1668.96 1530.93 1670.84 1533.2 Q1672.74 1535.47 1672.74 1538.8 Q1672.74 1543.92 1669.22 1546.72 Q1665.7 1549.52 1659.22 1549.52 Q1657.04 1549.52 1654.73 1549.08 Q1652.44 1548.66 1649.98 1547.81 L1649.98 1543.29 Q1651.93 1544.43 1654.24 1545.01 Q1656.56 1545.58 1659.08 1545.58 Q1663.48 1545.58 1665.77 1543.85 Q1668.08 1542.11 1668.08 1538.8 Q1668.08 1535.75 1665.93 1534.03 Q1663.8 1532.3 1659.98 1532.3 L1655.95 1532.3 L1655.95 1528.45 L1660.17 1528.45 Q1663.62 1528.45 1665.44 1527.09 Q1667.27 1525.7 1667.27 1523.11 Q1667.27 1520.45 1665.38 1519.03 Q1663.5 1517.6 1659.98 1517.6 Q1658.06 1517.6 1655.86 1518.01 Q1653.66 1518.43 1651.02 1519.31 L1651.02 1515.14 Q1653.69 1514.4 1656 1514.03 Q1658.34 1513.66 1660.4 1513.66 Q1665.72 1513.66 1668.82 1516.09 Q1671.93 1518.5 1671.93 1522.62 Q1671.93 1525.49 1670.28 1527.48 Q1668.64 1529.45 1665.61 1530.21 Z" fill="#000000" fill-rule="nonzero" fill-opacity="1" /><path clip-path="url(#clip050)" d="M2055.15 1518.36 L2043.34 1536.81 L2055.15 1536.81 L2055.15 1518.36 M2053.92 1514.29 L2059.8 1514.29 L2059.8 1536.81 L2064.73 1536.81 L2064.73 1540.7 L2059.8 1540.7 L2059.8 1548.85 L2055.15 1548.85 L2055.15 1540.7 L2039.55 1540.7 L2039.55 1536.19 L2053.92 1514.29 Z" fill="#000000" fill-rule="nonzero" fill-opacity="1" /><polyline clip-path="url(#clip050)" style="stroke:#000000; stroke-linecap:round; stroke-linejoin:round; stroke-width:4; stroke-opacity:1; fill:none" points="181.927,1486.45 181.927,47.2441 "/>
<polyline clip-path="url(#clip050)" style="stroke:#000000; stroke-linecap:round; stroke-linejoin:round; stroke-width:4; stroke-opacity:1; fill:none" points="181.927,1445.72 200.824,1445.72 "/>
<polyline clip-path="url(#clip050)" style="stroke:#000000; stroke-linecap:round; stroke-linejoin:round; stroke-width:4; stroke-opacity:1; fill:none" points="181.927,766.846 200.824,766.846 "/>
<polyline clip-path="url(#clip050)" style="stroke:#000000; stroke-linecap:round; stroke-linejoin:round; stroke-width:4; stroke-opacity:1; fill:none" points="181.927,87.9763 200.824,87.9763 "/>
<path clip-path="url(#clip050)" d="M145.927 1431.1 L145.927 1436.03 Q143.566 1433.83 140.88 1432.74 Q138.218 1431.65 135.209 1431.65 Q129.283 1431.65 126.135 1435.29 Q122.987 1438.9 122.987 1445.75 Q122.987 1452.58 126.135 1456.21 Q129.283 1459.82 135.209 1459.82 Q138.218 1459.82 140.88 1458.74 Q143.566 1457.65 145.927 1455.45 L145.927 1460.33 Q143.473 1462 140.718 1462.83 Q137.987 1463.67 134.931 1463.67 Q127.084 1463.67 122.57 1458.88 Q118.056 1454.06 118.056 1445.75 Q118.056 1437.42 122.57 1432.63 Q127.084 1427.81 134.931 1427.81 Q138.033 1427.81 140.765 1428.64 Q143.519 1429.45 145.927 1431.1 Z" fill="#000000" fill-rule="nonzero" fill-opacity="1" /><path clip-path="url(#clip050)" d="M126.089 767.621 L126.089 780.283 L133.589 780.283 Q137.362 780.283 139.167 778.732 Q140.996 777.158 140.996 773.941 Q140.996 770.7 139.167 769.172 Q137.362 767.621 133.589 767.621 L126.089 767.621 M126.089 753.409 L126.089 763.825 L133.01 763.825 Q136.436 763.825 138.103 762.552 Q139.792 761.256 139.792 758.617 Q139.792 756.001 138.103 754.705 Q136.436 753.409 133.01 753.409 L126.089 753.409 M121.413 749.566 L133.357 749.566 Q138.704 749.566 141.598 751.788 Q144.491 754.01 144.491 758.108 Q144.491 761.279 143.01 763.154 Q141.529 765.029 138.658 765.492 Q142.107 766.233 144.005 768.594 Q145.927 770.932 145.927 774.45 Q145.927 779.08 142.779 781.603 Q139.63 784.126 133.82 784.126 L121.413 784.126 L121.413 749.566 Z" fill="#000000" fill-rule="nonzero" fill-opacity="1" /><path clip-path="url(#clip050)" d="M130.093 75.3027 L123.751 92.5017 L136.459 92.5017 L130.093 75.3027 M127.455 70.6963 L132.755 70.6963 L145.927 105.256 L141.066 105.256 L137.917 96.3906 L122.339 96.3906 L119.191 105.256 L114.26 105.256 L127.455 70.6963 Z" fill="#000000" fill-rule="nonzero" fill-opacity="1" /><path clip-path="url(#clip050)" d="M21.7677 942.173 L39.6235 942.173 L39.6235 934.089 Q39.6235 929.601 37.3 927.15 Q34.9765 924.7 30.6797 924.7 Q26.4147 924.7 24.0912 927.15 Q21.7677 929.601 21.7677 934.089 L21.7677 942.173 M16.4842 948.603 L16.4842 934.089 Q16.4842 926.1 20.1126 922.026 Q23.7092 917.92 30.6797 917.92 Q37.7138 917.92 41.3104 922.026 Q44.907 926.1 44.907 934.089 L44.907 942.173 L64.0042 942.173 L64.0042 948.603 L16.4842 948.603 Z" fill="#000000" fill-rule="nonzero" fill-opacity="1" /><path clip-path="url(#clip050)" d="M46.0847 896.277 Q46.0847 903.374 47.7079 906.112 Q49.3312 908.849 53.2461 908.849 Q56.3653 908.849 58.2114 906.812 Q60.0256 904.743 60.0256 901.21 Q60.0256 896.34 56.5881 893.412 Q53.1188 890.452 47.3897 890.452 L46.0847 890.452 L46.0847 896.277 M43.6657 884.596 L64.0042 884.596 L64.0042 890.452 L58.5933 890.452 Q61.8398 892.457 63.3994 895.449 Q64.9272 898.441 64.9272 902.77 Q64.9272 908.244 61.8716 911.491 Q58.7843 914.705 53.6281 914.705 Q47.6125 914.705 44.5569 910.695 Q41.5014 906.653 41.5014 898.664 L41.5014 890.452 L40.9285 890.452 Q36.8862 890.452 34.6901 893.126 Q32.4621 895.767 32.4621 900.574 Q32.4621 903.629 33.1941 906.526 Q33.9262 909.422 35.3903 912.095 L29.9795 912.095 Q28.7381 908.881 28.1334 905.857 Q27.4968 902.833 27.4968 899.969 Q27.4968 892.234 31.5072 888.415 Q35.5176 884.596 43.6657 884.596 Z" fill="#000000" fill-rule="nonzero" fill-opacity="1" /><path clip-path="url(#clip050)" d="M33.8307 851.876 Q33.2578 852.863 33.0032 854.04 Q32.7167 855.186 32.7167 856.587 Q32.7167 861.552 35.9632 864.225 Q39.1779 866.867 45.2253 866.867 L64.0042 866.867 L64.0042 872.755 L28.3562 872.755 L28.3562 866.867 L33.8944 866.867 Q30.6479 865.021 29.0883 862.061 Q27.4968 859.101 27.4968 854.868 Q27.4968 854.263 27.5923 853.531 Q27.656 852.799 27.8151 851.908 L33.8307 851.876 Z" fill="#000000" fill-rule="nonzero" fill-opacity="1" /><path clip-path="url(#clip050)" d="M46.0847 829.532 Q46.0847 836.63 47.7079 839.367 Q49.3312 842.105 53.2461 842.105 Q56.3653 842.105 58.2114 840.068 Q60.0256 837.999 60.0256 834.466 Q60.0256 829.596 56.5881 826.668 Q53.1188 823.708 47.3897 823.708 L46.0847 823.708 L46.0847 829.532 M43.6657 817.851 L64.0042 817.851 L64.0042 823.708 L58.5933 823.708 Q61.8398 825.713 63.3994 828.705 Q64.9272 831.697 64.9272 836.025 Q64.9272 841.5 61.8716 844.746 Q58.7843 847.961 53.6281 847.961 Q47.6125 847.961 44.5569 843.951 Q41.5014 839.908 41.5014 831.919 L41.5014 823.708 L40.9285 823.708 Q36.8862 823.708 34.6901 826.381 Q32.4621 829.023 32.4621 833.829 Q32.4621 836.885 33.1941 839.781 Q33.9262 842.677 35.3903 845.351 L29.9795 845.351 Q28.7381 842.136 28.1334 839.113 Q27.4968 836.089 27.4968 833.224 Q27.4968 825.49 31.5072 821.671 Q35.5176 817.851 43.6657 817.851 Z" fill="#000000" fill-rule="nonzero" fill-opacity="1" /><path clip-path="url(#clip050)" d="M35.1993 778.034 Q31.2526 775.838 29.3747 772.782 Q27.4968 769.726 27.4968 765.589 Q27.4968 760.019 31.4117 756.995 Q35.2948 753.971 42.4881 753.971 L64.0042 753.971 L64.0042 759.86 L42.679 759.86 Q37.5546 759.86 35.072 761.674 Q32.5894 763.488 32.5894 767.212 Q32.5894 771.763 35.6131 774.405 Q38.6368 777.047 43.8567 777.047 L64.0042 777.047 L64.0042 782.935 L42.679 782.935 Q37.5228 782.935 35.072 784.75 Q32.5894 786.564 32.5894 790.351 Q32.5894 794.839 35.6449 797.481 Q38.6686 800.123 43.8567 800.123 L64.0042 800.123 L64.0042 806.011 L28.3562 806.011 L28.3562 800.123 L33.8944 800.123 Q30.616 798.118 29.0564 795.317 Q27.4968 792.516 27.4968 788.664 Q27.4968 784.781 29.4702 782.076 Q31.4436 779.339 35.1993 778.034 Z" fill="#000000" fill-rule="nonzero" fill-opacity="1" /><path clip-path="url(#clip050)" d="M44.7161 711.799 L47.5806 711.799 L47.5806 738.725 Q53.6281 738.344 56.8109 735.097 Q59.9619 731.819 59.9619 725.994 Q59.9619 722.62 59.1344 719.469 Q58.3069 716.286 56.6518 713.167 L62.1899 713.167 Q63.5267 716.318 64.227 719.628 Q64.9272 722.939 64.9272 726.344 Q64.9272 734.874 59.9619 739.871 Q54.9967 744.837 46.5303 744.837 Q37.7774 744.837 32.6531 740.126 Q27.4968 735.383 27.4968 727.363 Q27.4968 720.169 32.1438 716 Q36.7589 711.799 44.7161 711.799 M42.9973 717.655 Q38.1912 717.719 35.3266 720.36 Q32.4621 722.97 32.4621 727.299 Q32.4621 732.201 35.2312 735.161 Q38.0002 738.089 43.0292 738.535 L42.9973 717.655 Z" fill="#000000" fill-rule="nonzero" fill-opacity="1" /><path clip-path="url(#clip050)" d="M18.2347 696.394 L28.3562 696.394 L28.3562 684.331 L32.9077 684.331 L32.9077 696.394 L52.2594 696.394 Q56.6199 696.394 57.8613 695.216 Q59.1026 694.006 59.1026 690.346 L59.1026 684.331 L64.0042 684.331 L64.0042 690.346 Q64.0042 697.126 61.4897 699.704 Q58.9434 702.282 52.2594 702.282 L32.9077 702.282 L32.9077 706.579 L28.3562 706.579 L28.3562 702.282 L18.2347 702.282 L18.2347 696.394 Z" fill="#000000" fill-rule="nonzero" fill-opacity="1" /><path clip-path="url(#clip050)" d="M44.7161 646.136 L47.5806 646.136 L47.5806 673.063 Q53.6281 672.681 56.8109 669.435 Q59.9619 666.156 59.9619 660.332 Q59.9619 656.958 59.1344 653.807 Q58.3069 650.624 56.6518 647.505 L62.1899 647.505 Q63.5267 650.656 64.227 653.966 Q64.9272 657.276 64.9272 660.682 Q64.9272 669.212 59.9619 674.209 Q54.9967 679.174 46.5303 679.174 Q37.7774 679.174 32.6531 674.464 Q27.4968 669.721 27.4968 661.7 Q27.4968 654.507 32.1438 650.338 Q36.7589 646.136 44.7161 646.136 M42.9973 651.993 Q38.1912 652.056 35.3266 654.698 Q32.4621 657.308 32.4621 661.637 Q32.4621 666.538 35.2312 669.498 Q38.0002 672.427 43.0292 672.872 L42.9973 651.993 Z" fill="#000000" fill-rule="nonzero" fill-opacity="1" /><path clip-path="url(#clip050)" d="M33.8307 615.867 Q33.2578 616.854 33.0032 618.032 Q32.7167 619.178 32.7167 620.578 Q32.7167 625.543 35.9632 628.217 Q39.1779 630.859 45.2253 630.859 L64.0042 630.859 L64.0042 636.747 L28.3562 636.747 L28.3562 630.859 L33.8944 630.859 Q30.6479 629.013 29.0883 626.052 Q27.4968 623.092 27.4968 618.859 Q27.4968 618.254 27.5923 617.522 Q27.656 616.79 27.8151 615.899 L33.8307 615.867 Z" fill="#000000" fill-rule="nonzero" fill-opacity="1" /><path clip-path="url(#clip050)" d="M29.4065 586.999 L34.9447 586.999 Q33.6716 589.481 33.035 592.155 Q32.3984 594.829 32.3984 597.693 Q32.3984 602.054 33.7352 604.25 Q35.072 606.414 37.7456 606.414 Q39.7826 606.414 40.9603 604.855 Q42.1061 603.295 43.1565 598.584 L43.6021 596.579 Q44.9389 590.341 47.3897 587.731 Q49.8086 585.089 54.1691 585.089 Q59.1344 585.089 62.0308 589.036 Q64.9272 592.951 64.9272 599.826 Q64.9272 602.69 64.3543 605.81 Q63.8132 608.897 62.6992 612.334 L56.6518 612.334 Q58.3387 609.088 59.198 605.937 Q60.0256 602.786 60.0256 599.698 Q60.0256 595.561 58.6251 593.333 Q57.1929 591.105 54.6147 591.105 Q52.2276 591.105 50.9545 592.728 Q49.6813 594.319 48.5037 599.762 L48.0262 601.799 Q46.8804 607.242 44.5251 609.661 Q42.138 612.08 38.0002 612.08 Q32.9713 612.08 30.2341 608.515 Q27.4968 604.95 27.4968 598.393 Q27.4968 595.147 27.9743 592.282 Q28.4517 589.418 29.4065 586.999 Z" fill="#000000" fill-rule="nonzero" fill-opacity="1" /><polyline clip-path="url(#clip052)" style="stroke:#009af9; stroke-linecap:round; stroke-linejoin:round; stroke-width:6; stroke-opacity:0.8; fill:none" points="819.068,1445.72 2291.32,1445.72 "/>
<polyline clip-path="url(#clip052)" style="stroke:#e26f46; stroke-linecap:round; stroke-linejoin:round; stroke-width:12; stroke-opacity:0.8; fill:none" points="1141.58,1445.72 2099.31,1445.72 "/>
<path clip-path="url(#clip052)" d="M1660.04 1437.72 L1652.04 1445.72 L1660.04 1453.72 L1668.04 1445.72 L1660.04 1437.72 Z" fill="#000000" fill-rule="evenodd" fill-opacity="1" stroke="none"/>
<circle clip-path="url(#clip052)" cx="1635.89" cy="1445.72" r="7.2" fill="#808080" fill-rule="evenodd" fill-opacity="1" stroke="#000000" stroke-opacity="1" stroke-width="3.2"/>
<circle clip-path="url(#clip052)" style="fill:#000000; stroke:none; fill-opacity:1" cx="1660.04" cy="1445.72" r="2"/>
<polyline clip-path="url(#clip052)" style="stroke:#000000; stroke-linecap:round; stroke-linejoin:round; stroke-width:0; stroke-opacity:1; fill:none" points="1151.21,1445.72 2101.58,1445.72 "/>
<polyline clip-path="url(#clip052)" style="stroke:#009af9; stroke-linecap:round; stroke-linejoin:round; stroke-width:6; stroke-opacity:0.8; fill:none" points="612.854,766.846 1986.48,766.846 "/>
<polyline clip-path="url(#clip052)" style="stroke:#e26f46; stroke-linecap:round; stroke-linejoin:round; stroke-width:12; stroke-opacity:0.8; fill:none" points="799.993,766.846 1816.84,766.846 "/>
<path clip-path="url(#clip052)" d="M1264.31 758.846 L1256.31 766.846 L1264.31 774.846 L1272.31 766.846 L1264.31 758.846 Z" fill="#000000" fill-rule="evenodd" fill-opacity="1" stroke="none"/>
<circle clip-path="url(#clip052)" cx="1263.72" cy="766.846" r="7.2" fill="#808080" fill-rule="evenodd" fill-opacity="1" stroke="#000000" stroke-opacity="1" stroke-width="3.2"/>
<circle clip-path="url(#clip052)" style="fill:#000000; stroke:none; fill-opacity:1" cx="1264.31" cy="766.846" r="2"/>
<polyline clip-path="url(#clip052)" style="stroke:#000000; stroke-linecap:round; stroke-linejoin:round; stroke-width:0; stroke-opacity:1; fill:none" points="753.819,766.846 1782.91,766.846 "/>
<polyline clip-path="url(#clip052)" style="stroke:#009af9; stroke-linecap:round; stroke-linejoin:round; stroke-width:6; stroke-opacity:0.8; fill:none" points="243.365,87.9763 1699.68,87.9763 "/>
<polyline clip-path="url(#clip052)" style="stroke:#e26f46; stroke-linecap:round; stroke-linejoin:round; stroke-width:12; stroke-opacity:0.8; fill:none" points="439.763,87.9763 1382.48,87.9763 "/>
<path clip-path="url(#clip052)" d="M896.314 79.9763 L888.314 87.9763 L896.314 95.9763 L904.314 87.9763 L896.314 79.9763 Z" fill="#000000" fill-rule="evenodd" fill-opacity="1" stroke="none"/>
<circle clip-path="url(#clip052)" cx="904.167" cy="87.9763" r="7.2" fill="#808080" fill-rule="evenodd" fill-opacity="1" stroke="#000000" stroke-opacity="1" stroke-width="3.2"/>
<circle clip-path="url(#clip052)" style="fill:#000000; stroke:none; fill-opacity:1" cx="896.314" cy="87.9763" r="2"/>
<polyline clip-path="url(#clip052)" style="stroke:#000000; stroke-linecap:round; stroke-linejoin:round; stroke-width:0; stroke-opacity:1; fill:none" points="460.635,87.9763 1404.57,87.9763 "/>
<path clip-path="url(#clip050)" d="M1864.38 354.418 L2280.39 354.418 L2280.39 95.2176 L1864.38 95.2176  Z" fill="#ffffff" fill-rule="evenodd" fill-opacity="1"/>
<polyline clip-path="url(#clip050)" style="stroke:#000000; stroke-linecap:round; stroke-linejoin:round; stroke-width:4; stroke-opacity:1; fill:none" points="1864.38,354.418 2280.39,354.418 2280.39,95.2176 1864.38,95.2176 1864.38,354.418 "/>
<polyline clip-path="url(#clip050)" style="stroke:#009af9; stroke-linecap:round; stroke-linejoin:round; stroke-width:6; stroke-opacity:0.8; fill:none" points="1888.5,147.058 2033.22,147.058 "/>
<path clip-path="url(#clip050)" d="M2059.56 163.62 L2059.56 159.361 Q2061.32 160.194 2063.13 160.634 Q2064.93 161.074 2066.67 161.074 Q2071.3 161.074 2073.73 157.972 Q2076.18 154.847 2076.53 148.504 Q2075.19 150.495 2073.13 151.56 Q2071.07 152.625 2068.57 152.625 Q2063.38 152.625 2060.35 149.5 Q2057.34 146.352 2057.34 140.912 Q2057.34 135.588 2060.49 132.37 Q2063.64 129.153 2068.87 129.153 Q2074.86 129.153 2078.01 133.759 Q2081.18 138.342 2081.18 147.092 Q2081.18 155.264 2077.29 160.148 Q2073.43 165.009 2066.88 165.009 Q2065.12 165.009 2063.31 164.662 Q2061.51 164.314 2059.56 163.62 M2068.87 148.967 Q2072.02 148.967 2073.85 146.814 Q2075.7 144.662 2075.7 140.912 Q2075.7 137.185 2073.85 135.032 Q2072.02 132.856 2068.87 132.856 Q2065.72 132.856 2063.87 135.032 Q2062.04 137.185 2062.04 140.912 Q2062.04 144.662 2063.87 146.814 Q2065.72 148.967 2068.87 148.967 Z" fill="#000000" fill-rule="nonzero" fill-opacity="1" /><path clip-path="url(#clip050)" d="M2102.43 133.852 L2090.63 152.301 L2102.43 152.301 L2102.43 133.852 M2101.21 129.778 L2107.09 129.778 L2107.09 152.301 L2112.02 152.301 L2112.02 156.189 L2107.09 156.189 L2107.09 164.338 L2102.43 164.338 L2102.43 156.189 L2086.83 156.189 L2086.83 151.676 L2101.21 129.778 Z" fill="#000000" fill-rule="nonzero" fill-opacity="1" /><path clip-path="url(#clip050)" d="M2149.15 149.129 Q2147.13 149.129 2145.97 150.842 Q2144.84 152.555 2144.84 155.611 Q2144.84 158.62 2145.97 160.356 Q2147.13 162.069 2149.15 162.069 Q2151.11 162.069 2152.25 160.356 Q2153.4 158.62 2153.4 155.611 Q2153.4 152.578 2152.25 150.865 Q2151.11 149.129 2149.15 149.129 M2149.15 146.19 Q2152.8 146.19 2154.96 148.736 Q2157.11 151.282 2157.11 155.611 Q2157.11 159.939 2154.93 162.486 Q2152.78 165.009 2149.15 165.009 Q2145.44 165.009 2143.29 162.486 Q2141.14 159.939 2141.14 155.611 Q2141.14 151.259 2143.29 148.736 Q2145.47 146.19 2149.15 146.19 M2125.26 132.092 Q2123.27 132.092 2122.11 133.828 Q2120.97 135.541 2120.97 138.551 Q2120.97 141.606 2122.11 143.319 Q2123.24 145.032 2125.26 145.032 Q2127.27 145.032 2128.4 143.319 Q2129.56 141.606 2129.56 138.551 Q2129.56 135.565 2128.4 133.828 Q2127.25 132.092 2125.26 132.092 M2146.16 129.153 L2149.86 129.153 L2128.24 165.009 L2124.54 165.009 L2146.16 129.153 M2125.26 129.153 Q2128.91 129.153 2131.09 131.699 Q2133.27 134.222 2133.27 138.551 Q2133.27 142.926 2131.09 145.449 Q2128.94 147.972 2125.26 147.972 Q2121.58 147.972 2119.42 145.449 Q2117.29 142.902 2117.29 138.551 Q2117.29 134.245 2119.45 131.699 Q2121.6 129.153 2125.26 129.153 Z" fill="#000000" fill-rule="nonzero" fill-opacity="1" /><path clip-path="url(#clip050)" d="M2179.45 129.778 L2184.12 129.778 L2184.12 143.944 L2201.11 143.944 L2201.11 129.778 L2205.79 129.778 L2205.79 164.338 L2201.11 164.338 L2201.11 147.879 L2184.12 147.879 L2184.12 164.338 L2179.45 164.338 L2179.45 129.778 Z" fill="#000000" fill-rule="nonzero" fill-opacity="1" /><path clip-path="url(#clip050)" d="M2219.77 133.62 L2219.77 160.495 L2225.42 160.495 Q2232.57 160.495 2235.88 157.254 Q2239.21 154.014 2239.21 147.023 Q2239.21 140.078 2235.88 136.861 Q2232.57 133.62 2225.42 133.62 L2219.77 133.62 M2215.09 129.778 L2224.7 129.778 Q2234.75 129.778 2239.45 133.967 Q2244.15 138.134 2244.15 147.023 Q2244.15 155.958 2239.42 160.148 Q2234.7 164.338 2224.7 164.338 L2215.09 164.338 L2215.09 129.778 Z" fill="#000000" fill-rule="nonzero" fill-opacity="1" /><path clip-path="url(#clip050)" d="M2251.6 129.778 L2256.27 129.778 L2256.27 164.338 L2251.6 164.338 L2251.6 129.778 Z" fill="#000000" fill-rule="nonzero" fill-opacity="1" /><polyline clip-path="url(#clip050)" style="stroke:#e26f46; stroke-linecap:round; stroke-linejoin:round; stroke-width:12; stroke-opacity:0.8; fill:none" points="1888.5,198.898 2033.22,198.898 "/>
<path clip-path="url(#clip050)" d="M2069.19 199.766 Q2065.86 199.766 2063.94 201.548 Q2062.04 203.33 2062.04 206.455 Q2062.04 209.58 2063.94 211.363 Q2065.86 213.145 2069.19 213.145 Q2072.53 213.145 2074.45 211.363 Q2076.37 209.557 2076.37 206.455 Q2076.37 203.33 2074.45 201.548 Q2072.55 199.766 2069.19 199.766 M2064.52 197.775 Q2061.51 197.034 2059.82 194.974 Q2058.15 192.914 2058.15 189.951 Q2058.15 185.807 2061.09 183.4 Q2064.05 180.993 2069.19 180.993 Q2074.35 180.993 2077.29 183.4 Q2080.23 185.807 2080.23 189.951 Q2080.23 192.914 2078.54 194.974 Q2076.88 197.034 2073.89 197.775 Q2077.27 198.562 2079.15 200.854 Q2081.04 203.145 2081.04 206.455 Q2081.04 211.479 2077.97 214.164 Q2074.91 216.849 2069.19 216.849 Q2063.47 216.849 2060.4 214.164 Q2057.34 211.479 2057.34 206.455 Q2057.34 203.145 2059.24 200.854 Q2061.14 198.562 2064.52 197.775 M2062.8 190.391 Q2062.8 193.076 2064.47 194.58 Q2066.16 196.085 2069.19 196.085 Q2072.2 196.085 2073.89 194.58 Q2075.6 193.076 2075.6 190.391 Q2075.6 187.705 2073.89 186.201 Q2072.2 184.696 2069.19 184.696 Q2066.16 184.696 2064.47 186.201 Q2062.8 187.705 2062.8 190.391 Z" fill="#000000" fill-rule="nonzero" fill-opacity="1" /><path clip-path="url(#clip050)" d="M2099.35 184.696 Q2095.74 184.696 2093.91 188.261 Q2092.11 191.803 2092.11 198.932 Q2092.11 206.039 2093.91 209.604 Q2095.74 213.145 2099.35 213.145 Q2102.99 213.145 2104.79 209.604 Q2106.62 206.039 2106.62 198.932 Q2106.62 191.803 2104.79 188.261 Q2102.99 184.696 2099.35 184.696 M2099.35 180.993 Q2105.16 180.993 2108.22 185.599 Q2111.3 190.182 2111.3 198.932 Q2111.3 207.659 2108.22 212.266 Q2105.16 216.849 2099.35 216.849 Q2093.54 216.849 2090.47 212.266 Q2087.41 207.659 2087.41 198.932 Q2087.41 190.182 2090.47 185.599 Q2093.54 180.993 2099.35 180.993 Z" fill="#000000" fill-rule="nonzero" fill-opacity="1" /><path clip-path="url(#clip050)" d="M2148.91 200.969 Q2146.9 200.969 2145.74 202.682 Q2144.61 204.395 2144.61 207.451 Q2144.61 210.46 2145.74 212.196 Q2146.9 213.909 2148.91 213.909 Q2150.88 213.909 2152.02 212.196 Q2153.17 210.46 2153.17 207.451 Q2153.17 204.418 2152.02 202.705 Q2150.88 200.969 2148.91 200.969 M2148.91 198.03 Q2152.57 198.03 2154.72 200.576 Q2156.88 203.122 2156.88 207.451 Q2156.88 211.779 2154.7 214.326 Q2152.55 216.849 2148.91 216.849 Q2145.21 216.849 2143.06 214.326 Q2140.9 211.779 2140.9 207.451 Q2140.9 203.099 2143.06 200.576 Q2145.23 198.03 2148.91 198.03 M2125.03 183.932 Q2123.03 183.932 2121.88 185.668 Q2120.74 187.381 2120.74 190.391 Q2120.74 193.446 2121.88 195.159 Q2123.01 196.872 2125.03 196.872 Q2127.04 196.872 2128.17 195.159 Q2129.33 193.446 2129.33 190.391 Q2129.33 187.405 2128.17 185.668 Q2127.02 183.932 2125.03 183.932 M2145.93 180.993 L2149.63 180.993 L2128.01 216.849 L2124.31 216.849 L2145.93 180.993 M2125.03 180.993 Q2128.68 180.993 2130.86 183.539 Q2133.03 186.062 2133.03 190.391 Q2133.03 194.766 2130.86 197.289 Q2128.71 199.812 2125.03 199.812 Q2121.34 199.812 2119.19 197.289 Q2117.06 194.742 2117.06 190.391 Q2117.06 186.085 2119.22 183.539 Q2121.37 180.993 2125.03 180.993 Z" fill="#000000" fill-rule="nonzero" fill-opacity="1" /><path clip-path="url(#clip050)" d="M2179.21 181.618 L2183.89 181.618 L2183.89 195.784 L2200.88 195.784 L2200.88 181.618 L2205.56 181.618 L2205.56 216.178 L2200.88 216.178 L2200.88 199.719 L2183.89 199.719 L2183.89 216.178 L2179.21 216.178 L2179.21 181.618 Z" fill="#000000" fill-rule="nonzero" fill-opacity="1" /><path clip-path="url(#clip050)" d="M2219.54 185.46 L2219.54 212.335 L2225.19 212.335 Q2232.34 212.335 2235.65 209.094 Q2238.98 205.854 2238.98 198.863 Q2238.98 191.918 2235.65 188.701 Q2232.34 185.46 2225.19 185.46 L2219.54 185.46 M2214.86 181.618 L2224.47 181.618 Q2234.52 181.618 2239.21 185.807 Q2243.91 189.974 2243.91 198.863 Q2243.91 207.798 2239.19 211.988 Q2234.47 216.178 2224.47 216.178 L2214.86 216.178 L2214.86 181.618 Z" fill="#000000" fill-rule="nonzero" fill-opacity="1" /><path clip-path="url(#clip050)" d="M2251.37 181.618 L2256.04 181.618 L2256.04 216.178 L2251.37 216.178 L2251.37 181.618 Z" fill="#000000" fill-rule="nonzero" fill-opacity="1" /><path clip-path="url(#clip050)" d="M1960.86 230.258 L1940.38 250.738 L1960.86 271.218 L1981.34 250.738 L1960.86 230.258 Z" fill="#000000" fill-rule="evenodd" fill-opacity="1" stroke="none"/>
<path clip-path="url(#clip050)" d="M2057.34 233.458 L2064.31 233.458 L2073.13 256.976 L2081.99 233.458 L2088.96 233.458 L2088.96 268.018 L2084.4 268.018 L2084.4 237.67 L2075.49 261.374 L2070.79 261.374 L2061.88 237.67 L2061.88 268.018 L2057.34 268.018 L2057.34 233.458 Z" fill="#000000" fill-rule="nonzero" fill-opacity="1" /><path clip-path="url(#clip050)" d="M2120.23 253.99 L2120.23 256.073 L2100.65 256.073 Q2100.93 260.471 2103.29 262.786 Q2105.67 265.078 2109.91 265.078 Q2112.36 265.078 2114.65 264.476 Q2116.97 263.874 2119.24 262.67 L2119.24 266.698 Q2116.95 267.67 2114.54 268.18 Q2112.13 268.689 2109.66 268.689 Q2103.45 268.689 2099.82 265.078 Q2096.21 261.467 2096.21 255.309 Q2096.21 248.944 2099.63 245.217 Q2103.08 241.467 2108.91 241.467 Q2114.15 241.467 2117.18 244.846 Q2120.23 248.203 2120.23 253.99 M2115.97 252.74 Q2115.93 249.245 2114.01 247.161 Q2112.11 245.078 2108.96 245.078 Q2105.4 245.078 2103.24 247.092 Q2101.11 249.106 2100.79 252.763 L2115.97 252.74 Z" fill="#000000" fill-rule="nonzero" fill-opacity="1" /><path clip-path="url(#clip050)" d="M2144.28 246.027 L2144.28 231.999 L2148.54 231.999 L2148.54 268.018 L2144.28 268.018 L2144.28 264.129 Q2142.94 266.443 2140.88 267.578 Q2138.84 268.689 2135.97 268.689 Q2131.28 268.689 2128.31 264.939 Q2125.37 261.189 2125.37 255.078 Q2125.37 248.967 2128.31 245.217 Q2131.28 241.467 2135.97 241.467 Q2138.84 241.467 2140.88 242.601 Q2142.94 243.712 2144.28 246.027 M2129.77 255.078 Q2129.77 259.777 2131.69 262.462 Q2133.64 265.124 2137.02 265.124 Q2140.4 265.124 2142.34 262.462 Q2144.28 259.777 2144.28 255.078 Q2144.28 250.379 2142.34 247.717 Q2140.4 245.032 2137.02 245.032 Q2133.64 245.032 2131.69 247.717 Q2129.77 250.379 2129.77 255.078 Z" fill="#000000" fill-rule="nonzero" fill-opacity="1" /><path clip-path="url(#clip050)" d="M2157.32 242.092 L2161.58 242.092 L2161.58 268.018 L2157.32 268.018 L2157.32 242.092 M2157.32 231.999 L2161.58 231.999 L2161.58 237.393 L2157.32 237.393 L2157.32 231.999 Z" fill="#000000" fill-rule="nonzero" fill-opacity="1" /><path clip-path="url(#clip050)" d="M2182.27 254.985 Q2177.11 254.985 2175.12 256.166 Q2173.13 257.346 2173.13 260.194 Q2173.13 262.462 2174.61 263.805 Q2176.11 265.124 2178.68 265.124 Q2182.22 265.124 2184.35 262.624 Q2186.51 260.101 2186.51 255.934 L2186.51 254.985 L2182.27 254.985 M2190.77 253.226 L2190.77 268.018 L2186.51 268.018 L2186.51 264.082 Q2185.05 266.443 2182.87 267.578 Q2180.7 268.689 2177.55 268.689 Q2173.57 268.689 2171.21 266.467 Q2168.87 264.221 2168.87 260.471 Q2168.87 256.096 2171.78 253.874 Q2174.72 251.652 2180.53 251.652 L2186.51 251.652 L2186.51 251.235 Q2186.51 248.295 2184.56 246.698 Q2182.64 245.078 2179.15 245.078 Q2176.92 245.078 2174.82 245.61 Q2172.71 246.143 2170.77 247.207 L2170.77 243.272 Q2173.1 242.37 2175.3 241.93 Q2177.5 241.467 2179.59 241.467 Q2185.21 241.467 2187.99 244.383 Q2190.77 247.3 2190.77 253.226 Z" fill="#000000" fill-rule="nonzero" fill-opacity="1" /><path clip-path="url(#clip050)" d="M2221.09 252.369 L2221.09 268.018 L2216.83 268.018 L2216.83 252.508 Q2216.83 248.828 2215.4 246.999 Q2213.96 245.17 2211.09 245.17 Q2207.64 245.17 2205.65 247.37 Q2203.66 249.569 2203.66 253.365 L2203.66 268.018 L2199.38 268.018 L2199.38 242.092 L2203.66 242.092 L2203.66 246.12 Q2205.19 243.782 2207.25 242.624 Q2209.33 241.467 2212.04 241.467 Q2216.51 241.467 2218.8 244.245 Q2221.09 246.999 2221.09 252.369 Z" fill="#000000" fill-rule="nonzero" fill-opacity="1" /><circle clip-path="url(#clip050)" cx="1960.86" cy="302.578" r="18.432" fill="#808080" fill-rule="evenodd" fill-opacity="1" stroke="#000000" stroke-opacity="1" stroke-width="8.192"/>
<path clip-path="url(#clip050)" d="M2057.34 285.298 L2064.31 285.298 L2073.13 308.816 L2081.99 285.298 L2088.96 285.298 L2088.96 319.858 L2084.4 319.858 L2084.4 289.51 L2075.49 313.214 L2070.79 313.214 L2061.88 289.51 L2061.88 319.858 L2057.34 319.858 L2057.34 285.298 Z" fill="#000000" fill-rule="nonzero" fill-opacity="1" /><path clip-path="url(#clip050)" d="M2120.23 305.83 L2120.23 307.913 L2100.65 307.913 Q2100.93 312.311 2103.29 314.626 Q2105.67 316.918 2109.91 316.918 Q2112.36 316.918 2114.65 316.316 Q2116.97 315.714 2119.24 314.51 L2119.24 318.538 Q2116.95 319.51 2114.54 320.02 Q2112.13 320.529 2109.66 320.529 Q2103.45 320.529 2099.82 316.918 Q2096.21 313.307 2096.21 307.149 Q2096.21 300.784 2099.63 297.057 Q2103.08 293.307 2108.91 293.307 Q2114.15 293.307 2117.18 296.686 Q2120.23 300.043 2120.23 305.83 M2115.97 304.58 Q2115.93 301.085 2114.01 299.001 Q2112.11 296.918 2108.96 296.918 Q2105.4 296.918 2103.24 298.932 Q2101.11 300.946 2100.79 304.603 L2115.97 304.58 Z" fill="#000000" fill-rule="nonzero" fill-opacity="1" /><path clip-path="url(#clip050)" d="M2139.01 306.825 Q2133.84 306.825 2131.85 308.006 Q2129.86 309.186 2129.86 312.034 Q2129.86 314.302 2131.34 315.645 Q2132.85 316.964 2135.42 316.964 Q2138.96 316.964 2141.09 314.464 Q2143.24 311.941 2143.24 307.774 L2143.24 306.825 L2139.01 306.825 M2147.5 305.066 L2147.5 319.858 L2143.24 319.858 L2143.24 315.922 Q2141.78 318.283 2139.61 319.418 Q2137.43 320.529 2134.28 320.529 Q2130.3 320.529 2127.94 318.307 Q2125.6 316.061 2125.6 312.311 Q2125.6 307.936 2128.52 305.714 Q2131.46 303.492 2137.27 303.492 L2143.24 303.492 L2143.24 303.075 Q2143.24 300.135 2141.3 298.538 Q2139.38 296.918 2135.88 296.918 Q2133.66 296.918 2131.55 297.45 Q2129.45 297.983 2127.5 299.047 L2127.5 295.112 Q2129.84 294.21 2132.04 293.77 Q2134.24 293.307 2136.32 293.307 Q2141.95 293.307 2144.72 296.223 Q2147.5 299.14 2147.5 305.066 Z" fill="#000000" fill-rule="nonzero" fill-opacity="1" /><path clip-path="url(#clip050)" d="M2177.83 304.209 L2177.83 319.858 L2173.57 319.858 L2173.57 304.348 Q2173.57 300.668 2172.13 298.839 Q2170.7 297.01 2167.83 297.01 Q2164.38 297.01 2162.39 299.21 Q2160.4 301.409 2160.4 305.205 L2160.4 319.858 L2156.11 319.858 L2156.11 293.932 L2160.4 293.932 L2160.4 297.96 Q2161.92 295.622 2163.98 294.464 Q2166.07 293.307 2168.78 293.307 Q2173.24 293.307 2175.53 296.085 Q2177.83 298.839 2177.83 304.209 Z" fill="#000000" fill-rule="nonzero" fill-opacity="1" /></svg>
