<?xml version="1.0" encoding="utf-8"?>
<svg xmlns="http://www.w3.org/2000/svg" xmlns:xlink="http://www.w3.org/1999/xlink" width="600" height="400" viewBox="0 0 2400 1600">
<defs>
  <clipPath id="clip910">
    <rect x="0" y="0" width="2400" height="1600"/>
  </clipPath>
</defs>
<path clip-path="url(#clip910)" d="M0 1600 L2400 1600 L2400 0 L0 0  Z" fill="#ffffff" fill-rule="evenodd" fill-opacity="1"/>
<defs>
  <clipPath id="clip911">
    <rect x="480" y="0" width="1681" height="1600"/>
  </clipPath>
</defs>
<path clip-path="url(#clip910)" d="M181.927 1486.45 L2352.76 1486.45 L2352.76 47.2441 L181.927 47.2441  Z" fill="#ffffff" fill-rule="evenodd" fill-opacity="1"/>
<defs>
  <clipPath id="clip912">
    <rect x="181" y="47" width="2172" height="1440"/>
  </clipPath>
</defs>
<polyline clip-path="url(#clip912)" style="stroke:#000000; stroke-linecap:round; stroke-linejoin:round; stroke-width:2; stroke-opacity:0.1; fill:none" points="278.792,1486.45 278.792,47.2441 "/>
<polyline clip-path="url(#clip912)" style="stroke:#000000; stroke-linecap:round; stroke-linejoin:round; stroke-width:2; stroke-opacity:0.1; fill:none" points="766.498,1486.45 766.498,47.2441 "/>
<polyline clip-path="url(#clip912)" style="stroke:#000000; stroke-linecap:round; stroke-linejoin:round; stroke-width:2; stroke-opacity:0.1; fill:none" points="1254.2,1486.45 1254.2,47.2441 "/>
<polyline clip-path="url(#clip912)" style="stroke:#000000; stroke-linecap:round; stroke-linejoin:round; stroke-width:2; stroke-opacity:0.1; fill:none" points="1741.91,1486.45 1741.91,47.2441 "/>
<polyline clip-path="url(#clip912)" style="stroke:#000000; stroke-linecap:round; stroke-linejoin:round; stroke-width:2; stroke-opacity:0.1; fill:none" points="2229.62,1486.45 2229.62,47.2441 "/>
<polyline clip-path="url(#clip912)" style="stroke:#000000; stroke-linecap:round; stroke-linejoin:round; stroke-width:2; stroke-opacity:0.1; fill:none" points="181.927,1445.72 2352.76,1445.72 "/>
<polyline clip-path="url(#clip912)" style="stroke:#000000; stroke-linecap:round; stroke-linejoin:round; stroke-width:2; stroke-opacity:0.1; fill:none" points="181.927,993.136 2352.76,993.136 "/>
<polyline clip-path="url(#clip912)" style="stroke:#000000; stroke-linecap:round; stroke-linejoin:round; stroke-width:2; stroke-opacity:0.1; fill:none" points="181.927,540.556 2352.76,540.556 "/>
<polyline clip-path="url(#clip912)" style="stroke:#000000; stroke-linecap:round; stroke-linejoin:round; stroke-width:2; stroke-opacity:0.1; fill:none" points="181.927,87.9763 2352.76,87.9763 "/>
<polyline clip-path="url(#clip910)" style="stroke:#000000; stroke-linecap:round; stroke-linejoin:round; stroke-width:4; stroke-opacity:1; fill:none" points="181.927,1486.45 2352.76,1486.45 "/>
<polyline clip-path="url(#clip910)" style="stroke:#000000; stroke-linecap:round; stroke-linejoin:round; stroke-width:4; stroke-opacity:1; fill:none" points="278.792,1486.45 278.792,1467.55 "/>
<polyline clip-path="url(#clip910)" style="stroke:#000000; stroke-linecap:round; stroke-linejoin:round; stroke-width:4; stroke-opacity:1; fill:none" points="766.498,1486.45 766.498,1467.55 "/>
<polyline clip-path="url(#clip910)" style="stroke:#000000; stroke-linecap:round; stroke-linejoin:round; stroke-width:4; stroke-opacity:1; fill:none" points="1254.2,1486.45 1254.2,1467.55 "/>
<polyline clip-path="url(#clip910)" style="stroke:#000000; stroke-linecap:round; stroke-linejoin:round; stroke-width:4; stroke-opacity:1; fill:none" points="1741.91,1486.45 1741.91,1467.55 "/>
<polyline clip-path="url(#clip910)" style="stroke:#000000; stroke-linecap:round; stroke-linejoin:round; stroke-width:4; stroke-opacity:1; fill:none" points="2229.62,1486.45 2229.62,1467.55 "/>
<path clip-path="url(#clip910)" d="M278.792 1517.37 Q275.181 1517.37 273.353 1520.93 Q271.547 1524.47 271.547 1531.6 Q271.547 1538.71 273.353 1542.27 Q275.181 1545.82 278.792 1545.82 Q282.427 1545.82 284.232 1542.27 Q286.061 1538.71 286.061 1531.6 Q286.061 1524.47 284.232 1520.93 Q282.427 1517.37 278.792 1517.37 M278.792 1513.66 Q284.602 1513.66 287.658 1518.27 Q290.737 1522.85 290.737 1531.6 Q290.737 1540.33 287.658 1544.94 Q284.602 1549.52 278.792 1549.52 Q272.982 1549.52 269.903 1544.94 Q266.848 1540.33 266.848 1531.6 Q266.848 1522.85 269.903 1518.27 Q272.982 1513.66 278.792 1513.66 Z" fill="#000000" fill-rule="nonzero" fill-opacity="1" /><path clip-path="url(#clip910)" d="M756.88 1544.91 L764.519 1544.91 L764.519 1518.55 L756.209 1520.21 L756.209 1515.95 L764.473 1514.29 L769.149 1514.29 L769.149 1544.91 L776.788 1544.91 L776.788 1548.85 L756.88 1548.85 L756.88 1544.91 Z" fill="#000000" fill-rule="nonzero" fill-opacity="1" /><path clip-path="url(#clip910)" d="M1248.86 1544.91 L1265.18 1544.91 L1265.18 1548.85 L1243.23 1548.85 L1243.23 1544.91 Q1245.89 1542.16 1250.48 1537.53 Q1255.08 1532.88 1256.26 1531.53 Q1258.51 1529.01 1259.39 1527.27 Q1260.29 1525.51 1260.29 1523.82 Q1260.29 1521.07 1258.35 1519.33 Q1256.43 1517.6 1253.32 1517.6 Q1251.13 1517.6 1248.67 1518.36 Q1246.24 1519.13 1243.46 1520.68 L1243.46 1515.95 Q1246.29 1514.82 1248.74 1514.24 Q1251.2 1513.66 1253.23 1513.66 Q1258.6 1513.66 1261.8 1516.35 Q1264.99 1519.03 1264.99 1523.52 Q1264.99 1525.65 1264.18 1527.57 Q1263.39 1529.47 1261.29 1532.07 Q1260.71 1532.74 1257.61 1535.95 Q1254.51 1539.15 1248.86 1544.91 Z" fill="#000000" fill-rule="nonzero" fill-opacity="1" /><path clip-path="url(#clip910)" d="M1746.16 1530.21 Q1749.51 1530.93 1751.39 1533.2 Q1753.29 1535.47 1753.29 1538.8 Q1753.29 1543.92 1749.77 1546.72 Q1746.25 1549.52 1739.77 1549.52 Q1737.59 1549.52 1735.28 1549.08 Q1732.99 1548.66 1730.53 1547.81 L1730.53 1543.29 Q1732.48 1544.43 1734.79 1545.01 Q1737.11 1545.58 1739.63 1545.58 Q1744.03 1545.58 1746.32 1543.85 Q1748.64 1542.11 1748.64 1538.8 Q1748.64 1535.75 1746.48 1534.03 Q1744.35 1532.3 1740.53 1532.3 L1736.51 1532.3 L1736.51 1528.45 L1740.72 1528.45 Q1744.17 1528.45 1746 1527.09 Q1747.82 1525.7 1747.82 1523.11 Q1747.82 1520.45 1745.93 1519.03 Q1744.05 1517.6 1740.53 1517.6 Q1738.61 1517.6 1736.41 1518.01 Q1734.21 1518.43 1731.58 1519.31 L1731.58 1515.14 Q1734.24 1514.4 1736.55 1514.03 Q1738.89 1513.66 1740.95 1513.66 Q1746.27 1513.66 1749.38 1516.09 Q1752.48 1518.5 1752.48 1522.62 Q1752.48 1525.49 1750.83 1527.48 Q1749.19 1529.45 1746.16 1530.21 Z" fill="#000000" fill-rule="nonzero" fill-opacity="1" /><path clip-path="url(#clip910)" d="M2232.63 1518.36 L2220.82 1536.81 L2232.63 1536.81 L2232.63 1518.36 M2231.4 1514.29 L2237.28 1514.29 L2237.28 1536.81 L2242.21 1536.81 L2242.21 1540.7 L2237.28 1540.7 L2237.28 1548.85 L2232.63 1548.85 L2232.63 1540.7 L2217.02 1540.7 L2217.02 1536.19 L2231.4 1514.29 Z" fill="#000000" fill-rule="nonzero" fill-opacity="1" /><polyline clip-path="url(#clip910)" style="stroke:#000000; stroke-linecap:round; stroke-linejoin:round; stroke-width:4; stroke-opacity:1; fill:none" points="181.927,1486.45 181.927,47.2441 "/>
<polyline clip-path="url(#clip910)" style="stroke:#000000; stroke-linecap:round; stroke-linejoin:round; stroke-width:4; stroke-opacity:1; fill:none" points="181.927,1445.72 200.824,1445.72 "/>
<polyline clip-path="url(#clip910)" style="stroke:#000000; stroke-linecap:round; stroke-linejoin:round; stroke-width:4; stroke-opacity:1; fill:none" points="181.927,993.136 200.824,993.136 "/>
<polyline clip-path="url(#clip910)" style="stroke:#000000; stroke-linecap:round; stroke-linejoin:round; stroke-width:4; stroke-opacity:1; fill:none" points="181.927,540.556 200.824,540.556 "/>
<polyline clip-path="url(#clip910)" style="stroke:#000000; stroke-linecap:round; stroke-linejoin:round; stroke-width:4; stroke-opacity:1; fill:none" points="181.927,87.9763 200.824,87.9763 "/>
<path clip-path="url(#clip910)" d="M121.552 1432.28 L121.552 1459.15 L127.2 1459.15 Q134.353 1459.15 137.663 1455.91 Q140.996 1452.67 140.996 1445.68 Q140.996 1438.74 137.663 1435.52 Q134.353 1432.28 127.2 1432.28 L121.552 1432.28 M116.876 1428.44 L126.482 1428.44 Q136.529 1428.44 141.228 1432.63 Q145.927 1436.79 145.927 1445.68 Q145.927 1454.62 141.204 1458.81 Q136.482 1463 126.482 1463 L116.876 1463 L116.876 1428.44 Z" fill="#000000" fill-rule="nonzero" fill-opacity="1" /><path clip-path="url(#clip910)" d="M130.093 980.462 L123.751 997.661 L136.459 997.661 L130.093 980.462 M127.455 975.856 L132.755 975.856 L145.927 1010.42 L141.066 1010.42 L137.917 1001.55 L122.339 1001.55 L119.191 1010.42 L114.26 1010.42 L127.455 975.856 Z" fill="#000000" fill-rule="nonzero" fill-opacity="1" /><path clip-path="url(#clip910)" d="M126.089 541.332 L126.089 553.994 L133.589 553.994 Q137.362 553.994 139.167 552.443 Q140.996 550.869 140.996 547.651 Q140.996 544.41 139.167 542.882 Q137.362 541.332 133.589 541.332 L126.089 541.332 M126.089 527.119 L126.089 537.535 L133.01 537.535 Q136.436 537.535 138.103 536.262 Q139.792 534.966 139.792 532.327 Q139.792 529.711 138.103 528.415 Q136.436 527.119 133.01 527.119 L126.089 527.119 M121.413 523.276 L133.357 523.276 Q138.704 523.276 141.598 525.498 Q144.491 527.721 144.491 531.818 Q144.491 534.989 143.01 536.864 Q141.529 538.739 138.658 539.202 Q142.107 539.943 144.005 542.304 Q145.927 544.642 145.927 548.16 Q145.927 552.79 142.779 555.313 Q139.63 557.836 133.82 557.836 L121.413 557.836 L121.413 523.276 Z" fill="#000000" fill-rule="nonzero" fill-opacity="1" /><path clip-path="url(#clip910)" d="M145.927 73.3583 L145.927 78.2888 Q143.566 76.0898 140.88 75.0018 Q138.218 73.9139 135.209 73.9139 Q129.283 73.9139 126.135 77.5481 Q122.987 81.1592 122.987 88.011 Q122.987 94.8397 126.135 98.4739 Q129.283 102.085 135.209 102.085 Q138.218 102.085 140.88 100.997 Q143.566 99.9091 145.927 97.71 L145.927 102.594 Q143.473 104.261 140.718 105.094 Q137.987 105.928 134.931 105.928 Q127.084 105.928 122.57 101.136 Q118.056 96.3211 118.056 88.011 Q118.056 79.6777 122.57 74.8861 Q127.084 70.0713 134.931 70.0713 Q138.033 70.0713 140.765 70.9046 Q143.519 71.7148 145.927 73.3583 Z" fill="#000000" fill-rule="nonzero" fill-opacity="1" /><path clip-path="url(#clip910)" d="M21.7677 942.173 L39.6235 942.173 L39.6235 934.089 Q39.6235 929.601 37.3 927.15 Q34.9765 924.7 30.6797 924.7 Q26.4147 924.7 24.0912 927.15 Q21.7677 929.601 21.7677 934.089 L21.7677 942.173 M16.4842 948.603 L16.4842 934.089 Q16.4842 926.1 20.1126 922.026 Q23.7092 917.92 30.6797 917.92 Q37.7138 917.92 41.3104 922.026 Q44.907 926.1 44.907 934.089 L44.907 942.173 L64.0042 942.173 L64.0042 948.603 L16.4842 948.603 Z" fill="#000000" fill-rule="nonzero" fill-opacity="1" /><path clip-path="url(#clip910)" d="M46.0847 896.277 Q46.0847 903.374 47.7079 906.112 Q49.3312 908.849 53.2461 908.849 Q56.3653 908.849 58.2114 906.812 Q60.0256 904.743 60.0256 901.21 Q60.0256 896.34 56.5881 893.412 Q53.1188 890.452 47.3897 890.452 L46.0847 890.452 L46.0847 896.277 M43.6657 884.596 L64.0042 884.596 L64.0042 890.452 L58.5933 890.452 Q61.8398 892.457 63.3994 895.449 Q64.9272 898.441 64.9272 902.77 Q64.9272 908.244 61.8716 911.491 Q58.7843 914.705 53.6281 914.705 Q47.6125 914.705 44.5569 910.695 Q41.5014 906.653 41.5014 898.664 L41.5014 890.452 L40.9285 890.452 Q36.8862 890.452 34.6901 893.126 Q32.4621 895.767 32.4621 900.574 Q32.4621 903.629 33.1941 906.526 Q33.9262 909.422 35.3903 912.095 L29.9795 912.095 Q28.7381 908.881 28.1334 905.857 Q27.4968 902.833 27.4968 899.969 Q27.4968 892.234 31.5072 888.415 Q35.5176 884.596 43.6657 884.596 Z" fill="#000000" fill-rule="nonzero" fill-opacity="1" /><path clip-path="url(#clip910)" d="M33.8307 851.876 Q33.2578 852.863 33.0032 854.04 Q32.7167 855.186 32.7167 856.587 Q32.7167 861.552 35.9632 864.225 Q39.1779 866.867 45.2253 866.867 L64.0042 866.867 L64.0042 872.755 L28.3562 872.755 L28.3562 866.867 L33.8944 866.867 Q30.6479 865.021 29.0883 862.061 Q27.4968 859.101 27.4968 854.868 Q27.4968 854.263 27.5923 853.531 Q27.656 852.799 27.8151 851.908 L33.8307 851.876 Z" fill="#000000" fill-rule="nonzero" fill-opacity="1" /><path clip-path="url(#clip910)" d="M46.0847 829.532 Q46.0847 836.63 47.7079 839.367 Q49.3312 842.105 53.2461 842.105 Q56.3653 842.105 58.2114 840.068 Q60.0256 837.999 60.0256 834.466 Q60.0256 829.596 56.5881 826.668 Q53.1188 823.708 47.3897 823.708 L46.0847 823.708 L46.0847 829.532 M43.6657 817.851 L64.0042 817.851 L64.0042 823.708 L58.5933 823.708 Q61.8398 825.713 63.3994 828.705 Q64.9272 831.697 64.9272 836.025 Q64.9272 841.5 61.8716 844.746 Q58.7843 847.961 53.6281 847.961 Q47.6125 847.961 44.5569 843.951 Q41.5014 839.908 41.5014 831.919 L41.5014 823.708 L40.9285 823.708 Q36.8862 823.708 34.6901 826.381 Q32.4621 829.023 32.4621 833.829 Q32.4621 836.885 33.1941 839.781 Q33.9262 842.677 35.3903 845.351 L29.9795 845.351 Q28.7381 842.136 28.1334 839.113 Q27.4968 836.089 27.4968 833.224 Q27.4968 825.49 31.5072 821.671 Q35.5176 817.851 43.6657 817.851 Z" fill="#000000" fill-rule="nonzero" fill-opacity="1" /><path clip-path="url(#clip910)" d="M35.1993 778.034 Q31.2526 775.838 29.3747 772.782 Q27.4968 769.726 27.4968 765.589 Q27.4968 760.019 31.4117 756.995 Q35.2948 753.971 42.4881 753.971 L64.0042 753.971 L64.0042 759.86 L42.679 759.86 Q37.5546 759.86 35.072 761.674 Q32.5894 763.488 32.5894 767.212 Q32.5894 771.763 35.6131 774.405 Q38.6368 777.047 43.8567 777.047 L64.0042 777.047 L64.0042 782.935 L42.679 782.935 Q37.5228 782.935 35.072 784.75 Q32.5894 786.564 32.5894 790.351 Q32.5894 794.839 35.6449 797.481 Q38.6686 800.123 43.8567 800.123 L64.0042 800.123 L64.0042 806.011 L28.3562 806.011 L28.3562 800.123 L33.8944 800.123 Q30.616 798.118 29.0564 795.317 Q27.4968 792.516 27.4968 788.664 Q27.4968 784.781 29.4702 782.076 Q31.4436 779.339 35.1993 778.034 Z" fill="#000000" fill-rule="nonzero" fill-opacity="1" /><path clip-path="url(#clip910)" d="M44.7161 711.799 L47.5806 711.799 L47.5806 738.725 Q53.6281 738.344 56.8109 735.097 Q59.9619 731.819 59.9619 725.994 Q59.9619 722.62 59.1344 719.469 Q58.3069 716.286 56.6518 713.167 L62.1899 713.167 Q63.5267 716.318 64.227 719.628 Q64.9272 722.939 64.9272 726.344 Q64.9272 734.874 59.9619 739.871 Q54.9967 744.837 46.5303 744.837 Q37.7774 744.837 32.6531 740.126 Q27.4968 735.383 27.4968 727.363 Q27.4968 720.169 32.1438 716 Q36.7589 711.799 44.7161 711.799 M42.9973 717.655 Q38.1912 717.719 35.3266 720.36 Q32.4621 722.97 32.4621 727.299 Q32.4621 732.201 35.2312 735.161 Q38.0002 738.089 43.0292 738.535 L42.9973 717.655 Z" fill="#000000" fill-rule="nonzero" fill-opacity="1" /><path clip-path="url(#clip910)" d="M18.2347 696.394 L28.3562 696.394 L28.3562 684.331 L32.9077 684.331 L32.9077 696.394 L52.2594 696.394 Q56.6199 696.394 57.8613 695.216 Q59.1026 694.006 59.1026 690.346 L59.1026 684.331 L64.0042 684.331 L64.0042 690.346 Q64.0042 697.126 61.4897 699.704 Q58.9434 702.282 52.2594 702.282 L32.9077 702.282 L32.9077 706.579 L28.3562 706.579 L28.3562 702.282 L18.2347 702.282 L18.2347 696.394 Z" fill="#000000" fill-rule="nonzero" fill-opacity="1" /><path clip-path="url(#clip910)" d="M44.7161 646.136 L47.5806 646.136 L47.5806 673.063 Q53.6281 672.681 56.8109 669.435 Q59.9619 666.156 59.9619 660.332 Q59.9619 656.958 59.1344 653.807 Q58.3069 650.624 56.6518 647.505 L62.1899 647.505 Q63.5267 650.656 64.227 653.966 Q64.9272 657.276 64.9272 660.682 Q64.9272 669.212 59.9619 674.209 Q54.9967 679.174 46.5303 679.174 Q37.7774 679.174 32.6531 674.464 Q27.4968 669.721 27.4968 661.7 Q27.4968 654.507 32.1438 650.338 Q36.7589 646.136 44.7161 646.136 M42.9973 651.993 Q38.1912 652.056 35.3266 654.698 Q32.4621 657.308 32.4621 661.637 Q32.4621 666.538 35.2312 669.498 Q38.0002 672.427 43.0292 672.872 L42.9973 651.993 Z" fill="#000000" fill-rule="nonzero" fill-opacity="1" /><path clip-path="url(#clip910)" d="M33.8307 615.867 Q33.2578 616.854 33.0032 618.032 Q32.7167 619.178 32.7167 620.578 Q32.7167 625.543 35.9632 628.217 Q39.1779 630.859 45.2253 630.859 L64.0042 630.859 L64.0042 636.747 L28.3562 636.747 L28.3562 630.859 L33.8944 630.859 Q30.6479 629.013 29.0883 626.052 Q27.4968 623.092 27.4968 618.859 Q27.4968 618.254 27.5923 617.522 Q27.656 616.79 27.8151 615.899 L33.8307 615.867 Z" fill="#000000" fill-rule="nonzero" fill-opacity="1" /><path clip-path="url(#clip910)" d="M29.4065 586.999 L34.9447 586.999 Q33.6716 589.481 33.035 592.155 Q32.3984 594.829 32.3984 597.693 Q32.3984 602.054 33.7352 604.25 Q35.072 606.414 37.7456 606.414 Q39.7826 606.414 40.9603 604.855 Q42.1061 603.295 43.1565 598.584 L43.6021 596.579 Q44.9389 590.341 47.3897 587.731 Q49.8086 585.089 54.1691 585.089 Q59.1344 585.089 62.0308 589.036 Q64.9272 592.951 64.9272 599.826 Q64.9272 602.69 64.3543 605.81 Q63.8132 608.897 62.6992 612.334 L56.6518 612.334 Q58.3387 609.088 59.198 605.937 Q60.0256 602.786 60.0256 599.698 Q60.0256 595.561 58.6251 593.333 Q57.1929 591.105 54.6147 591.105 Q52.2276 591.105 50.9545 592.728 Q49.6813 594.319 48.5037 599.762 L48.0262 601.799 Q46.8804 607.242 44.5251 609.661 Q42.138 612.08 38.0002 612.08 Q32.9713 612.08 30.2341 608.515 Q27.4968 604.95 27.4968 598.393 Q27.4968 595.147 27.9743 592.282 Q28.4517 589.418 29.4065 586.999 Z" fill="#000000" fill-rule="nonzero" fill-opacity="1" /><polyline clip-path="url(#clip912)" style="stroke:#009af9; stroke-linecap:round; stroke-linejoin:round; stroke-width:6; stroke-opacity:0.8; fill:none" points="766.498,1445.72 766.498,1445.72 "/>
<circle clip-path="url(#clip912)" style="fill:#009af9; stroke:none; fill-opacity:0.8" cx="766.498" cy="1445.72" r="2"/>
<circle clip-path="url(#clip912)" style="fill:#009af9; stroke:none; fill-opacity:0.8" cx="766.498" cy="1445.72" r="2"/>
<polyline clip-path="url(#clip912)" style="stroke:#e26f46; stroke-linecap:round; stroke-linejoin:round; stroke-width:12; stroke-opacity:0.8; fill:none" points="766.498,1445.72 766.498,1445.72 "/>
<circle clip-path="url(#clip912)" style="fill:#e26f46; stroke:none; fill-opacity:0.8" cx="766.498" cy="1445.72" r="2"/>
<circle clip-path="url(#clip912)" style="fill:#e26f46; stroke:none; fill-opacity:0.8" cx="766.498" cy="1445.72" r="2"/>
<polyline clip-path="url(#clip912)" style="stroke:#3da44d; stroke-linecap:round; stroke-linejoin:round; stroke-width:18; stroke-opacity:0.8; fill:none" points="766.498,1445.72 766.498,1445.72 "/>
<circle clip-path="url(#clip912)" style="fill:#3da44d; stroke:none; fill-opacity:0.8" cx="766.498" cy="1445.72" r="2"/>
<circle clip-path="url(#clip912)" style="fill:#3da44d; stroke:none; fill-opacity:0.8" cx="766.498" cy="1445.72" r="2"/>
<path clip-path="url(#clip912)" d="M766.498 1433.72 L754.498 1445.72 L766.498 1457.72 L778.498 1445.72 L766.498 1433.72 Z" fill="#000000" fill-rule="evenodd" fill-opacity="1" stroke="none"/>
<circle clip-path="url(#clip912)" cx="993.282" cy="1445.72" r="10.8" fill="#808080" fill-rule="evenodd" fill-opacity="1" stroke="#000000" stroke-opacity="1" stroke-width="3.2"/>
<circle clip-path="url(#clip912)" style="fill:#000000; stroke:none; fill-opacity:1" cx="766.498" cy="1445.72" r="2"/>
<polyline clip-path="url(#clip912)" style="stroke:#000000; stroke-linecap:round; stroke-linejoin:round; stroke-width:0; stroke-opacity:0; fill:none" points="766.498,1445.72 1254.2,1445.72 "/>
<polyline clip-path="url(#clip912)" style="stroke:#009af9; stroke-linecap:round; stroke-linejoin:round; stroke-width:6; stroke-opacity:0.8; fill:none" points="358.931,993.136 631.98,993.136 "/>
<circle clip-path="url(#clip912)" style="fill:#c68125; stroke:none; fill-opacity:0.8" cx="358.931" cy="993.136" r="2"/>
<circle clip-path="url(#clip912)" style="fill:#c68125; stroke:none; fill-opacity:0.8" cx="631.98" cy="993.136" r="2"/>
<polyline clip-path="url(#clip912)" style="stroke:#e26f46; stroke-linecap:round; stroke-linejoin:round; stroke-width:12; stroke-opacity:0.8; fill:none" points="489.408,993.136 631.98,993.136 "/>
<circle clip-path="url(#clip912)" style="fill:#00a98d; stroke:none; fill-opacity:0.8" cx="489.408" cy="993.136" r="2"/>
<circle clip-path="url(#clip912)" style="fill:#00a98d; stroke:none; fill-opacity:0.8" cx="631.98" cy="993.136" r="2"/>
<polyline clip-path="url(#clip912)" style="stroke:#3da44d; stroke-linecap:round; stroke-linejoin:round; stroke-width:18; stroke-opacity:0.8; fill:none" points="579.781,993.136 618.272,993.136 "/>
<circle clip-path="url(#clip912)" style="fill:#8e971d; stroke:none; fill-opacity:0.8" cx="579.781" cy="993.136" r="2"/>
<circle clip-path="url(#clip912)" style="fill:#8e971d; stroke:none; fill-opacity:0.8" cx="618.272" cy="993.136" r="2"/>
<path clip-path="url(#clip912)" d="M787.108 981.136 L775.108 993.136 L787.108 1005.14 L799.108 993.136 L787.108 981.136 Z" fill="#000000" fill-rule="evenodd" fill-opacity="1" stroke="none"/>
<circle clip-path="url(#clip912)" cx="796.909" cy="993.136" r="10.8" fill="#808080" fill-rule="evenodd" fill-opacity="1" stroke="#000000" stroke-opacity="1" stroke-width="3.2"/>
<circle clip-path="url(#clip912)" style="fill:#000000; stroke:none; fill-opacity:1" cx="787.108" cy="993.136" r="2"/>
<polyline clip-path="url(#clip912)" style="stroke:#000000; stroke-linecap:round; stroke-linejoin:round; stroke-width:0; stroke-opacity:0; fill:none" points="243.365,993.136 1421.42,993.136 "/>
<polyline clip-path="url(#clip912)" style="stroke:#009af9; stroke-linecap:round; stroke-linejoin:round; stroke-width:6; stroke-opacity:0.8; fill:none" points="1206.72,540.556 1464.85,540.556 "/>
<circle clip-path="url(#clip912)" style="fill:#dd64b5; stroke:none; fill-opacity:0.8" cx="1206.72" cy="540.556" r="2"/>
<circle clip-path="url(#clip912)" style="fill:#dd64b5; stroke:none; fill-opacity:0.8" cx="1464.85" cy="540.556" r="2"/>
<polyline clip-path="url(#clip912)" style="stroke:#e26f46; stroke-linecap:round; stroke-linejoin:round; stroke-width:12; stroke-opacity:0.8; fill:none" points="1128.34,540.556 1265.8,540.556 "/>
<circle clip-path="url(#clip912)" style="fill:#6b9e32; stroke:none; fill-opacity:0.8" cx="1128.34" cy="540.556" r="2"/>
<circle clip-path="url(#clip912)" style="fill:#6b9e32; stroke:none; fill-opacity:0.8" cx="1265.8" cy="540.556" r="2"/>
<polyline clip-path="url(#clip912)" style="stroke:#3da44d; stroke-linecap:round; stroke-linejoin:round; stroke-width:18; stroke-opacity:0.8; fill:none" points="1227.48,540.556 1250.02,540.556 "/>
<circle clip-path="url(#clip912)" style="fill:#009af9; stroke:none; fill-opacity:0.8" cx="1227.48" cy="540.556" r="2"/>
<circle clip-path="url(#clip912)" style="fill:#009af9; stroke:none; fill-opacity:0.8" cx="1250.02" cy="540.556" r="2"/>
<path clip-path="url(#clip912)" d="M1246.38 528.556 L1234.38 540.556 L1246.38 552.556 L1258.38 540.556 L1246.38 528.556 Z" fill="#000000" fill-rule="evenodd" fill-opacity="1" stroke="none"/>
<circle clip-path="url(#clip912)" cx="1245.65" cy="540.556" r="10.8" fill="#808080" fill-rule="evenodd" fill-opacity="1" stroke="#000000" stroke-opacity="1" stroke-width="3.2"/>
<circle clip-path="url(#clip912)" style="fill:#000000; stroke:none; fill-opacity:1" cx="1246.38" cy="540.556" r="2"/>
<polyline clip-path="url(#clip912)" style="stroke:#000000; stroke-linecap:round; stroke-linejoin:round; stroke-width:0; stroke-opacity:0; fill:none" points="609.269,540.556 1893.61,540.556 "/>
<polyline clip-path="url(#clip912)" style="stroke:#009af9; stroke-linecap:round; stroke-linejoin:round; stroke-width:6; stroke-opacity:0.8; fill:none" points="1952.68,87.9763 2275.35,87.9763 "/>
<circle clip-path="url(#clip912)" style="fill:#00a9ad; stroke:none; fill-opacity:0.8" cx="1952.68" cy="87.9763" r="2"/>
<circle clip-path="url(#clip912)" style="fill:#00a9ad; stroke:none; fill-opacity:0.8" cx="2275.35" cy="87.9763" r="2"/>
<polyline clip-path="url(#clip912)" style="stroke:#e26f46; stroke-linecap:round; stroke-linejoin:round; stroke-width:12; stroke-opacity:0.8; fill:none" points="2061.27,87.9763 2234.65,87.9763 "/>
<circle clip-path="url(#clip912)" style="fill:#ed5d92; stroke:none; fill-opacity:0.8" cx="2061.27" cy="87.9763" r="2"/>
<circle clip-path="url(#clip912)" style="fill:#ed5d92; stroke:none; fill-opacity:0.8" cx="2234.65" cy="87.9763" r="2"/>
<polyline clip-path="url(#clip912)" style="stroke:#3da44d; stroke-linecap:round; stroke-linejoin:round; stroke-width:18; stroke-opacity:0.8; fill:none" points="1811.29,87.9763 1851.52,87.9763 "/>
<circle clip-path="url(#clip912)" style="fill:#c68125; stroke:none; fill-opacity:0.8" cx="1811.29" cy="87.9763" r="2"/>
<circle clip-path="url(#clip912)" style="fill:#c68125; stroke:none; fill-opacity:0.8" cx="1851.52" cy="87.9763" r="2"/>
<path clip-path="url(#clip912)" d="M1740.27 75.9763 L1728.27 87.9763 L1740.27 99.9763 L1752.27 87.9763 L1740.27 75.9763 Z" fill="#000000" fill-rule="evenodd" fill-opacity="1" stroke="none"/>
<circle clip-path="url(#clip912)" cx="1710.12" cy="87.9763" r="10.8" fill="#808080" fill-rule="evenodd" fill-opacity="1" stroke="#000000" stroke-opacity="1" stroke-width="3.2"/>
<circle clip-path="url(#clip912)" style="fill:#000000; stroke:none; fill-opacity:1" cx="1740.27" cy="87.9763" r="2"/>
<polyline clip-path="url(#clip912)" style="stroke:#000000; stroke-linecap:round; stroke-linejoin:round; stroke-width:0; stroke-opacity:0; fill:none" points="1105.23,87.9763 2291.32,87.9763 "/>
<path clip-path="url(#clip910)" d="M254.288 406.258 L669.819 406.258 L669.819 95.2176 L254.288 95.2176  Z" fill="#ffffff" fill-rule="evenodd" fill-opacity="1"/>
<polyline clip-path="url(#clip910)" style="stroke:#000000; stroke-linecap:round; stroke-linejoin:round; stroke-width:4; stroke-opacity:1; fill:none" points="254.288,406.258 669.819,406.258 669.819,95.2176 254.288,95.2176 254.288,406.258 "/>
<polyline clip-path="url(#clip910)" style="stroke:#009af9; stroke-linecap:round; stroke-linejoin:round; stroke-width:6; stroke-opacity:0.8; fill:none" points="278.408,147.058 423.13,147.058 "/>
<circle clip-path="url(#clip910)" style="fill:#009af9; stroke:none; fill-opacity:0.8" cx="350.769" cy="147.058" r="2"/>
<path clip-path="url(#clip910)" d="M452.875 160.402 L469.195 160.402 L469.195 164.338 L447.25 164.338 L447.25 160.402 Q449.912 157.648 454.496 153.018 Q459.102 148.365 460.283 147.023 Q462.528 144.5 463.408 142.764 Q464.31 141.004 464.31 139.315 Q464.31 136.56 462.366 134.824 Q460.445 133.088 457.343 133.088 Q455.144 133.088 452.69 133.852 Q450.259 134.615 447.482 136.166 L447.482 131.444 Q450.306 130.31 452.759 129.731 Q455.213 129.153 457.25 129.153 Q462.621 129.153 465.815 131.838 Q469.009 134.523 469.009 139.014 Q469.009 141.143 468.199 143.065 Q467.412 144.963 465.306 147.555 Q464.727 148.227 461.625 151.444 Q458.523 154.639 452.875 160.402 Z" fill="#000000" fill-rule="nonzero" fill-opacity="1" /><path clip-path="url(#clip910)" d="M479.056 129.778 L497.412 129.778 L497.412 133.713 L483.338 133.713 L483.338 142.185 Q484.357 141.838 485.375 141.676 Q486.394 141.49 487.412 141.49 Q493.199 141.49 496.579 144.662 Q499.958 147.833 499.958 153.25 Q499.958 158.828 496.486 161.93 Q493.014 165.009 486.694 165.009 Q484.519 165.009 482.25 164.638 Q480.005 164.268 477.597 163.527 L477.597 158.828 Q479.681 159.963 481.903 160.518 Q484.125 161.074 486.602 161.074 Q490.606 161.074 492.944 158.967 Q495.282 156.861 495.282 153.25 Q495.282 149.639 492.944 147.532 Q490.606 145.426 486.602 145.426 Q484.727 145.426 482.852 145.842 Q481 146.259 479.056 147.139 L479.056 129.778 Z" fill="#000000" fill-rule="nonzero" fill-opacity="1" /><path clip-path="url(#clip910)" d="M538.569 149.129 Q536.555 149.129 535.398 150.842 Q534.264 152.555 534.264 155.611 Q534.264 158.62 535.398 160.356 Q536.555 162.069 538.569 162.069 Q540.537 162.069 541.671 160.356 Q542.828 158.62 542.828 155.611 Q542.828 152.578 541.671 150.865 Q540.537 149.129 538.569 149.129 M538.569 146.19 Q542.227 146.19 544.379 148.736 Q546.532 151.282 546.532 155.611 Q546.532 159.939 544.356 162.486 Q542.203 165.009 538.569 165.009 Q534.866 165.009 532.713 162.486 Q530.56 159.939 530.56 155.611 Q530.56 151.259 532.713 148.736 Q534.889 146.19 538.569 146.19 M514.68 132.092 Q512.69 132.092 511.532 133.828 Q510.398 135.541 510.398 138.551 Q510.398 141.606 511.532 143.319 Q512.667 145.032 514.68 145.032 Q516.694 145.032 517.829 143.319 Q518.986 141.606 518.986 138.551 Q518.986 135.565 517.829 133.828 Q516.671 132.092 514.68 132.092 M535.583 129.153 L539.287 129.153 L517.667 165.009 L513.963 165.009 L535.583 129.153 M514.68 129.153 Q518.338 129.153 520.514 131.699 Q522.69 134.222 522.69 138.551 Q522.69 142.926 520.514 145.449 Q518.361 147.972 514.68 147.972 Q511 147.972 508.847 145.449 Q506.718 142.902 506.718 138.551 Q506.718 134.245 508.87 131.699 Q511.023 129.153 514.68 129.153 Z" fill="#000000" fill-rule="nonzero" fill-opacity="1" /><path clip-path="url(#clip910)" d="M568.87 129.778 L573.546 129.778 L573.546 143.944 L590.536 143.944 L590.536 129.778 L595.212 129.778 L595.212 164.338 L590.536 164.338 L590.536 147.879 L573.546 147.879 L573.546 164.338 L568.87 164.338 L568.87 129.778 Z" fill="#000000" fill-rule="nonzero" fill-opacity="1" /><path clip-path="url(#clip910)" d="M609.194 133.62 L609.194 160.495 L614.842 160.495 Q621.995 160.495 625.305 157.254 Q628.638 154.014 628.638 147.023 Q628.638 140.078 625.305 136.861 Q621.995 133.62 614.842 133.62 L609.194 133.62 M604.518 129.778 L614.124 129.778 Q624.171 129.778 628.87 133.967 Q633.569 138.134 633.569 147.023 Q633.569 155.958 628.846 160.148 Q624.124 164.338 614.124 164.338 L604.518 164.338 L604.518 129.778 Z" fill="#000000" fill-rule="nonzero" fill-opacity="1" /><path clip-path="url(#clip910)" d="M641.022 129.778 L645.698 129.778 L645.698 164.338 L641.022 164.338 L641.022 129.778 Z" fill="#000000" fill-rule="nonzero" fill-opacity="1" /><polyline clip-path="url(#clip910)" style="stroke:#e26f46; stroke-linecap:round; stroke-linejoin:round; stroke-width:12; stroke-opacity:0.8; fill:none" points="278.408,198.898 423.13,198.898 "/>
<circle clip-path="url(#clip910)" style="fill:#e26f46; stroke:none; fill-opacity:0.8" cx="350.769" cy="198.898" r="2"/>
<path clip-path="url(#clip910)" d="M447.922 212.242 L455.56 212.242 L455.56 185.877 L447.25 187.543 L447.25 183.284 L455.514 181.618 L460.19 181.618 L460.19 212.242 L467.829 212.242 L467.829 216.178 L447.922 216.178 L447.922 212.242 Z" fill="#000000" fill-rule="nonzero" fill-opacity="1" /><path clip-path="url(#clip910)" d="M477.32 181.618 L495.676 181.618 L495.676 185.553 L481.602 185.553 L481.602 194.025 Q482.62 193.678 483.639 193.516 Q484.657 193.33 485.676 193.33 Q491.463 193.33 494.843 196.502 Q498.222 199.673 498.222 205.09 Q498.222 210.668 494.75 213.77 Q491.278 216.849 484.958 216.849 Q482.782 216.849 480.514 216.478 Q478.269 216.108 475.861 215.367 L475.861 210.668 Q477.945 211.803 480.167 212.358 Q482.389 212.914 484.866 212.914 Q488.87 212.914 491.208 210.807 Q493.546 208.701 493.546 205.09 Q493.546 201.479 491.208 199.372 Q488.87 197.266 484.866 197.266 Q482.991 197.266 481.116 197.682 Q479.264 198.099 477.32 198.979 L477.32 181.618 Z" fill="#000000" fill-rule="nonzero" fill-opacity="1" /><path clip-path="url(#clip910)" d="M536.833 200.969 Q534.819 200.969 533.662 202.682 Q532.528 204.395 532.528 207.451 Q532.528 210.46 533.662 212.196 Q534.819 213.909 536.833 213.909 Q538.801 213.909 539.935 212.196 Q541.092 210.46 541.092 207.451 Q541.092 204.418 539.935 202.705 Q538.801 200.969 536.833 200.969 M536.833 198.03 Q540.49 198.03 542.643 200.576 Q544.796 203.122 544.796 207.451 Q544.796 211.779 542.62 214.326 Q540.467 216.849 536.833 216.849 Q533.129 216.849 530.977 214.326 Q528.824 211.779 528.824 207.451 Q528.824 203.099 530.977 200.576 Q533.153 198.03 536.833 198.03 M512.944 183.932 Q510.954 183.932 509.796 185.668 Q508.662 187.381 508.662 190.391 Q508.662 193.446 509.796 195.159 Q510.93 196.872 512.944 196.872 Q514.958 196.872 516.092 195.159 Q517.25 193.446 517.25 190.391 Q517.25 187.405 516.092 185.668 Q514.935 183.932 512.944 183.932 M533.847 180.993 L537.551 180.993 L515.93 216.849 L512.227 216.849 L533.847 180.993 M512.944 180.993 Q516.602 180.993 518.778 183.539 Q520.954 186.062 520.954 190.391 Q520.954 194.766 518.778 197.289 Q516.625 199.812 512.944 199.812 Q509.264 199.812 507.111 197.289 Q504.981 194.742 504.981 190.391 Q504.981 186.085 507.134 183.539 Q509.287 180.993 512.944 180.993 Z" fill="#000000" fill-rule="nonzero" fill-opacity="1" /><path clip-path="url(#clip910)" d="M567.134 181.618 L571.81 181.618 L571.81 195.784 L588.8 195.784 L588.8 181.618 L593.476 181.618 L593.476 216.178 L588.8 216.178 L588.8 199.719 L571.81 199.719 L571.81 216.178 L567.134 216.178 L567.134 181.618 Z" fill="#000000" fill-rule="nonzero" fill-opacity="1" /><path clip-path="url(#clip910)" d="M607.458 185.46 L607.458 212.335 L613.106 212.335 Q620.259 212.335 623.569 209.094 Q626.902 205.854 626.902 198.863 Q626.902 191.918 623.569 188.701 Q620.259 185.46 613.106 185.46 L607.458 185.46 M602.782 181.618 L612.388 181.618 Q622.434 181.618 627.134 185.807 Q631.833 189.974 631.833 198.863 Q631.833 207.798 627.11 211.988 Q622.388 216.178 612.388 216.178 L602.782 216.178 L602.782 181.618 Z" fill="#000000" fill-rule="nonzero" fill-opacity="1" /><path clip-path="url(#clip910)" d="M639.286 181.618 L643.962 181.618 L643.962 216.178 L639.286 216.178 L639.286 181.618 Z" fill="#000000" fill-rule="nonzero" fill-opacity="1" /><polyline clip-path="url(#clip910)" style="stroke:#3da44d; stroke-linecap:round; stroke-linejoin:round; stroke-width:18; stroke-opacity:0.8; fill:none" points="278.408,250.738 423.13,250.738 "/>
<circle clip-path="url(#clip910)" style="fill:#3da44d; stroke:none; fill-opacity:0.8" cx="350.769" cy="250.738" r="2"/>
<path clip-path="url(#clip910)" d="M448.709 233.458 L467.065 233.458 L467.065 237.393 L452.991 237.393 L452.991 245.865 Q454.009 245.518 455.028 245.356 Q456.046 245.17 457.065 245.17 Q462.852 245.17 466.232 248.342 Q469.611 251.513 469.611 256.93 Q469.611 262.508 466.139 265.61 Q462.667 268.689 456.347 268.689 Q454.171 268.689 451.903 268.318 Q449.658 267.948 447.25 267.207 L447.25 262.508 Q449.334 263.643 451.556 264.198 Q453.778 264.754 456.255 264.754 Q460.259 264.754 462.597 262.647 Q464.935 260.541 464.935 256.93 Q464.935 253.319 462.597 251.212 Q460.259 249.106 456.255 249.106 Q454.38 249.106 452.505 249.522 Q450.653 249.939 448.709 250.819 L448.709 233.458 Z" fill="#000000" fill-rule="nonzero" fill-opacity="1" /><path clip-path="url(#clip910)" d="M508.222 252.809 Q506.208 252.809 505.051 254.522 Q503.917 256.235 503.917 259.291 Q503.917 262.3 505.051 264.036 Q506.208 265.749 508.222 265.749 Q510.19 265.749 511.324 264.036 Q512.481 262.3 512.481 259.291 Q512.481 256.258 511.324 254.545 Q510.19 252.809 508.222 252.809 M508.222 249.87 Q511.88 249.87 514.032 252.416 Q516.185 254.962 516.185 259.291 Q516.185 263.619 514.009 266.166 Q511.856 268.689 508.222 268.689 Q504.518 268.689 502.366 266.166 Q500.213 263.619 500.213 259.291 Q500.213 254.939 502.366 252.416 Q504.542 249.87 508.222 249.87 M484.333 235.772 Q482.343 235.772 481.185 237.508 Q480.051 239.221 480.051 242.231 Q480.051 245.286 481.185 246.999 Q482.319 248.712 484.333 248.712 Q486.347 248.712 487.481 246.999 Q488.639 245.286 488.639 242.231 Q488.639 239.245 487.481 237.508 Q486.324 235.772 484.333 235.772 M505.236 232.833 L508.94 232.833 L487.319 268.689 L483.616 268.689 L505.236 232.833 M484.333 232.833 Q487.991 232.833 490.167 235.379 Q492.343 237.902 492.343 242.231 Q492.343 246.606 490.167 249.129 Q488.014 251.652 484.333 251.652 Q480.653 251.652 478.5 249.129 Q476.37 246.582 476.37 242.231 Q476.37 237.925 478.523 235.379 Q480.676 232.833 484.333 232.833 Z" fill="#000000" fill-rule="nonzero" fill-opacity="1" /><path clip-path="url(#clip910)" d="M538.523 233.458 L543.199 233.458 L543.199 247.624 L560.189 247.624 L560.189 233.458 L564.865 233.458 L564.865 268.018 L560.189 268.018 L560.189 251.559 L543.199 251.559 L543.199 268.018 L538.523 268.018 L538.523 233.458 Z" fill="#000000" fill-rule="nonzero" fill-opacity="1" /><path clip-path="url(#clip910)" d="M578.847 237.3 L578.847 264.175 L584.495 264.175 Q591.648 264.175 594.958 260.934 Q598.291 257.694 598.291 250.703 Q598.291 243.758 594.958 240.541 Q591.648 237.3 584.495 237.3 L578.847 237.3 M574.171 233.458 L583.777 233.458 Q593.824 233.458 598.523 237.647 Q603.222 241.814 603.222 250.703 Q603.222 259.638 598.499 263.828 Q593.777 268.018 583.777 268.018 L574.171 268.018 L574.171 233.458 Z" fill="#000000" fill-rule="nonzero" fill-opacity="1" /><path clip-path="url(#clip910)" d="M610.675 233.458 L615.351 233.458 L615.351 268.018 L610.675 268.018 L610.675 233.458 Z" fill="#000000" fill-rule="nonzero" fill-opacity="1" /><path clip-path="url(#clip910)" d="M350.769 280.635 L328.826 302.578 L350.769 324.52 L372.712 302.578 L350.769 280.635 Z" fill="#000000" fill-rule="evenodd" fill-opacity="1" stroke="none"/>
<path clip-path="url(#clip910)" d="M447.25 285.298 L454.218 285.298 L463.037 308.816 L471.903 285.298 L478.87 285.298 L478.87 319.858 L474.31 319.858 L474.31 289.51 L465.398 313.214 L460.699 313.214 L451.787 289.51 L451.787 319.858 L447.25 319.858 L447.25 285.298 Z" fill="#000000" fill-rule="nonzero" fill-opacity="1" /><path clip-path="url(#clip910)" d="M510.143 305.83 L510.143 307.913 L490.56 307.913 Q490.838 312.311 493.199 314.626 Q495.583 316.918 499.819 316.918 Q502.273 316.918 504.565 316.316 Q506.88 315.714 509.148 314.51 L509.148 318.538 Q506.856 319.51 504.449 320.02 Q502.042 320.529 499.565 320.529 Q493.361 320.529 489.727 316.918 Q486.116 313.307 486.116 307.149 Q486.116 300.784 489.542 297.057 Q492.991 293.307 498.824 293.307 Q504.055 293.307 507.088 296.686 Q510.143 300.043 510.143 305.83 M505.884 304.58 Q505.838 301.085 503.917 299.001 Q502.018 296.918 498.87 296.918 Q495.306 296.918 493.153 298.932 Q491.023 300.946 490.699 304.603 L505.884 304.58 Z" fill="#000000" fill-rule="nonzero" fill-opacity="1" /><path clip-path="url(#clip910)" d="M534.194 297.867 L534.194 283.839 L538.453 283.839 L538.453 319.858 L534.194 319.858 L534.194 315.969 Q532.852 318.283 530.791 319.418 Q528.754 320.529 525.884 320.529 Q521.185 320.529 518.222 316.779 Q515.282 313.029 515.282 306.918 Q515.282 300.807 518.222 297.057 Q521.185 293.307 525.884 293.307 Q528.754 293.307 530.791 294.441 Q532.852 295.552 534.194 297.867 M519.68 306.918 Q519.68 311.617 521.602 314.302 Q523.546 316.964 526.926 316.964 Q530.305 316.964 532.25 314.302 Q534.194 311.617 534.194 306.918 Q534.194 302.219 532.25 299.557 Q530.305 296.872 526.926 296.872 Q523.546 296.872 521.602 299.557 Q519.68 302.219 519.68 306.918 Z" fill="#000000" fill-rule="nonzero" fill-opacity="1" /><path clip-path="url(#clip910)" d="M547.227 293.932 L551.486 293.932 L551.486 319.858 L547.227 319.858 L547.227 293.932 M547.227 283.839 L551.486 283.839 L551.486 289.233 L547.227 289.233 L547.227 283.839 Z" fill="#000000" fill-rule="nonzero" fill-opacity="1" /><path clip-path="url(#clip910)" d="M572.18 306.825 Q567.018 306.825 565.027 308.006 Q563.037 309.186 563.037 312.034 Q563.037 314.302 564.518 315.645 Q566.023 316.964 568.592 316.964 Q572.134 316.964 574.263 314.464 Q576.416 311.941 576.416 307.774 L576.416 306.825 L572.18 306.825 M580.675 305.066 L580.675 319.858 L576.416 319.858 L576.416 315.922 Q574.958 318.283 572.782 319.418 Q570.606 320.529 567.458 320.529 Q563.476 320.529 561.115 318.307 Q558.777 316.061 558.777 312.311 Q558.777 307.936 561.694 305.714 Q564.634 303.492 570.444 303.492 L576.416 303.492 L576.416 303.075 Q576.416 300.135 574.472 298.538 Q572.55 296.918 569.055 296.918 Q566.833 296.918 564.726 297.45 Q562.62 297.983 560.676 299.047 L560.676 295.112 Q563.013 294.21 565.213 293.77 Q567.412 293.307 569.495 293.307 Q575.12 293.307 577.898 296.223 Q580.675 299.14 580.675 305.066 Z" fill="#000000" fill-rule="nonzero" fill-opacity="1" /><path clip-path="url(#clip910)" d="M610.999 304.209 L610.999 319.858 L606.74 319.858 L606.74 304.348 Q606.74 300.668 605.305 298.839 Q603.87 297.01 600.999 297.01 Q597.55 297.01 595.56 299.21 Q593.569 301.409 593.569 305.205 L593.569 319.858 L589.287 319.858 L589.287 293.932 L593.569 293.932 L593.569 297.96 Q595.097 295.622 597.157 294.464 Q599.24 293.307 601.948 293.307 Q606.416 293.307 608.708 296.085 Q610.999 298.839 610.999 304.209 Z" fill="#000000" fill-rule="nonzero" fill-opacity="1" /><circle clip-path="url(#clip910)" cx="350.769" cy="354.418" r="19.7486" fill="#808080" fill-rule="evenodd" fill-opacity="1" stroke="#000000" stroke-opacity="1" stroke-width="5.85143"/>
<path clip-path="url(#clip910)" d="M447.25 337.138 L454.218 337.138 L463.037 360.656 L471.903 337.138 L478.87 337.138 L478.87 371.698 L474.31 371.698 L474.31 341.35 L465.398 365.054 L460.699 365.054 L451.787 341.35 L451.787 371.698 L447.25 371.698 L447.25 337.138 Z" fill="#000000" fill-rule="nonzero" fill-opacity="1" /><path clip-path="url(#clip910)" d="M510.143 357.67 L510.143 359.753 L490.56 359.753 Q490.838 364.151 493.199 366.466 Q495.583 368.758 499.819 368.758 Q502.273 368.758 504.565 368.156 Q506.88 367.554 509.148 366.35 L509.148 370.378 Q506.856 371.35 504.449 371.86 Q502.042 372.369 499.565 372.369 Q493.361 372.369 489.727 368.758 Q486.116 365.147 486.116 358.989 Q486.116 352.624 489.542 348.897 Q492.991 345.147 498.824 345.147 Q504.055 345.147 507.088 348.526 Q510.143 351.883 510.143 357.67 M505.884 356.42 Q505.838 352.925 503.917 350.841 Q502.018 348.758 498.87 348.758 Q495.306 348.758 493.153 350.772 Q491.023 352.786 490.699 356.443 L505.884 356.42 Z" fill="#000000" fill-rule="nonzero" fill-opacity="1" /><path clip-path="url(#clip910)" d="M528.916 358.665 Q523.754 358.665 521.764 359.846 Q519.773 361.026 519.773 363.874 Q519.773 366.142 521.254 367.485 Q522.759 368.804 525.329 368.804 Q528.87 368.804 531 366.304 Q533.153 363.781 533.153 359.614 L533.153 358.665 L528.916 358.665 M537.412 356.906 L537.412 371.698 L533.153 371.698 L533.153 367.762 Q531.694 370.123 529.518 371.258 Q527.342 372.369 524.194 372.369 Q520.213 372.369 517.852 370.147 Q515.514 367.901 515.514 364.151 Q515.514 359.776 518.43 357.554 Q521.37 355.332 527.18 355.332 L533.153 355.332 L533.153 354.915 Q533.153 351.975 531.208 350.378 Q529.287 348.758 525.791 348.758 Q523.569 348.758 521.463 349.29 Q519.356 349.823 517.412 350.887 L517.412 346.952 Q519.75 346.05 521.949 345.61 Q524.148 345.147 526.231 345.147 Q531.856 345.147 534.634 348.063 Q537.412 350.98 537.412 356.906 Z" fill="#000000" fill-rule="nonzero" fill-opacity="1" /><path clip-path="url(#clip910)" d="M567.736 356.049 L567.736 371.698 L563.476 371.698 L563.476 356.188 Q563.476 352.508 562.041 350.679 Q560.606 348.85 557.736 348.85 Q554.287 348.85 552.296 351.05 Q550.305 353.249 550.305 357.045 L550.305 371.698 L546.023 371.698 L546.023 345.772 L550.305 345.772 L550.305 349.8 Q551.833 347.462 553.893 346.304 Q555.976 345.147 558.685 345.147 Q563.152 345.147 565.444 347.925 Q567.736 350.679 567.736 356.049 Z" fill="#000000" fill-rule="nonzero" fill-opacity="1" /></svg>
