<?xml version="1.0" encoding="UTF-8"?>
<svg xmlns="http://www.w3.org/2000/svg"
     xmlns:xlink="http://www.w3.org/1999/xlink"
     xmlns:gadfly="http://www.gadflyjl.org/ns"
     version="1.2"
     width="141.42mm" height="100mm" viewBox="0 0 141.42 100"
     stroke="none"
     fill="#000000"
     stroke-width="0.3"
     font-size="3.88"
>
<defs>
  <marker id="arrow" markerWidth="15" markerHeight="7" refX="5" refY="3.5" orient="auto" markerUnits="strokeWidth">
    <path d="M0,0 L15,3.5 L0,7 z" stroke="context-stroke" fill="context-stroke"/>
  </marker>
</defs>
<g class="plotroot xscalable yscalable" id="img-2eea10dd-1">
  <g font-size="3.88" font-family="'PT Sans','Helvetica Neue','Helvetica',sans-serif" fill="#564A55" stroke="#000000" stroke-opacity="0.000" id="img-2eea10dd-2">
    <g transform="translate(73.05,88.39)">
      <g class="primitive">
        <text text-anchor="middle" dy="0.6em">A</text>
      </g>
    </g>
  </g>
  <g class="guide xlabels" font-size="2.82" font-family="'PT Sans Caption','Helvetica Neue','Helvetica',sans-serif" fill="#6C606B" id="img-2eea10dd-3">
    <g transform="translate(20.63,81.72)">
      <g class="primitive">
        <text text-anchor="middle" dy="0.6em">-5</text>
      </g>
    </g>
    <g transform="translate(73.05,81.72)">
      <g class="primitive">
        <text text-anchor="middle" dy="0.6em">0</text>
      </g>
    </g>
    <g transform="translate(125.47,81.72)">
      <g class="primitive">
        <text text-anchor="middle" dy="0.6em">5</text>
      </g>
    </g>
  </g>
  <g class="guide colorkey" id="img-2eea10dd-4">
    <g fill="#4C404B" font-size="2.82" font-family="'PT Sans','Helvetica Neue','Helvetica',sans-serif" id="img-2eea10dd-5">
      <g transform="translate(131.29,41.04)" id="img-2eea10dd-6" class="color_1">
        <g class="primitive">
          <text dy="0.35em">1</text>
        </g>
      </g>
      <g transform="translate(131.29,44.67)" id="img-2eea10dd-7" class="color_2">
        <g class="primitive">
          <text dy="0.35em">2</text>
        </g>
      </g>
      <g transform="translate(131.29,48.3)" id="img-2eea10dd-8" class="color_3">
        <g class="primitive">
          <text dy="0.35em">3</text>
        </g>
      </g>
    </g>
    <g fill-opacity="1" id="img-2eea10dd-9">
      <g transform="translate(129.38,41.04)" id="img-2eea10dd-10" stroke="#FFFFFF" fill="#00BFFF" class="color_1">
        <path d="M-0.91,-0.91 L0.91,-0.91 0.91,0.91 -0.91,0.91  z" class="primitive"/>
      </g>
      <g transform="translate(129.38,44.67)" id="img-2eea10dd-11" stroke="#FFFFFF" fill="#D4CA3A" class="color_2">
        <path d="M-0.91,-0.91 L0.91,-0.91 0.91,0.91 -0.91,0.91  z" class="primitive"/>
      </g>
      <g transform="translate(129.38,48.3)" id="img-2eea10dd-12" stroke="#FFFFFF" fill="#FF6DAE" class="color_3">
        <path d="M-0.91,-0.91 L0.91,-0.91 0.91,0.91 -0.91,0.91  z" class="primitive"/>
      </g>
    </g>
    <g fill="#362A35" font-size="3.88" font-family="'PT Sans','Helvetica Neue','Helvetica',sans-serif" stroke="#000000" stroke-opacity="0.000" id="img-2eea10dd-13">
      <g transform="translate(128.47,37.22)" id="img-2eea10dd-14">
        <g class="primitive">
          <text dy="-0em">chain</text>
        </g>
      </g>
    </g>
  </g>
  <g clip-path="url(#img-2eea10dd-15)">
    <g id="img-2eea10dd-16">
      <g pointer-events="visible" stroke-width="0.3" fill="#000000" fill-opacity="0.000" stroke="#000000" stroke-opacity="0.000" class="guide background" id="img-2eea10dd-17">
        <g transform="translate(73.05,42.86)" id="img-2eea10dd-18">
          <path d="M-54.42,-37.86 L54.42,-37.86 54.42,37.86 -54.42,37.86  z" class="primitive"/>
        </g>
      </g>
      <g class="guide ygridlines xfixed" stroke-dasharray="0.5,0.5" stroke-width="0.2" stroke="#D0D0E0" id="img-2eea10dd-19">
        <g transform="translate(73.05,78.71)" id="img-2eea10dd-20">
          <path fill="none" d="M-54.42,0 L54.42,0 " class="primitive"/>
        </g>
        <g transform="translate(73.05,64.37)" id="img-2eea10dd-21">
          <path fill="none" d="M-54.42,0 L54.42,0 " class="primitive"/>
        </g>
        <g transform="translate(73.05,50.03)" id="img-2eea10dd-22">
          <path fill="none" d="M-54.42,0 L54.42,0 " class="primitive"/>
        </g>
        <g transform="translate(73.05,35.69)" id="img-2eea10dd-23">
          <path fill="none" d="M-54.42,0 L54.42,0 " class="primitive"/>
        </g>
        <g transform="translate(73.05,21.34)" id="img-2eea10dd-24">
          <path fill="none" d="M-54.42,0 L54.42,0 " class="primitive"/>
        </g>
        <g transform="translate(73.05,7)" id="img-2eea10dd-25">
          <path fill="none" d="M-54.42,0 L54.42,0 " class="primitive"/>
        </g>
      </g>
      <g class="guide xgridlines yfixed" stroke-dasharray="0.5,0.5" stroke-width="0.2" stroke="#D0D0E0" id="img-2eea10dd-26">
        <g transform="translate(20.63,42.86)" id="img-2eea10dd-27">
          <path fill="none" d="M0,-37.86 L0,37.86 " class="primitive"/>
        </g>
        <g transform="translate(73.05,42.86)" id="img-2eea10dd-28">
          <path fill="none" d="M0,-37.86 L0,37.86 " class="primitive"/>
        </g>
        <g transform="translate(125.47,42.86)" id="img-2eea10dd-29">
          <path fill="none" d="M0,-37.86 L0,37.86 " class="primitive"/>
        </g>
      </g>
      <g class="plotpanel" id="img-2eea10dd-30">
        <metadata>
          <boundingbox value="18.63166666666666mm 5.0mm 108.84302290397619mm 75.715mm"/>
          <unitbox value="-5.190761382551108 0.5139440842222687 10.381522765102215 -0.5278881684445375"/>
        </metadata>
        <g stroke-width="0.3" fill="#000000" fill-opacity="0.000" class="geometry" id="img-2eea10dd-31">
          <g transform="translate(75.74,61.65)" id="img-2eea10dd-32" stroke="#D4CA3A" stroke-dasharray="none" class="color_2" stroke-opacity="1">
            <path fill="none" d="M-43.9,17.06 L-43.55,17.06 -43.21,17.06 -42.87,17.06 -42.52,17.06 -42.18,17.06 -41.83,17.05 -41.49,17.05 -41.14,17.05 -40.8,17.04 -40.46,17.04 -40.11,17.03 -39.77,17.02 -39.42,17 -39.08,16.99 -38.73,16.97 -38.39,16.94 -38.05,16.91 -37.7,16.86 -37.36,16.82 -37.01,16.76 -36.67,16.69 -36.32,16.62 -35.98,16.53 -35.64,16.43 -35.29,16.32 -34.95,16.2 -34.6,16.07 -34.26,15.93 -33.91,15.79 -33.57,15.63 -33.23,15.47 -32.88,15.31 -32.54,15.14 -32.19,14.97 -31.85,14.81 -31.5,14.64 -31.16,14.48 -30.82,14.32 -30.47,14.17 -30.13,14.02 -29.78,13.88 -29.44,13.73 -29.09,13.59 -28.75,13.45 -28.41,13.31 -28.06,13.17 -27.72,13.03 -27.37,12.87 -27.03,12.72 -26.68,12.55 -26.34,12.38 -26,12.2 -25.65,12.01 -25.31,11.81 -24.96,11.6 -24.62,11.37 -24.27,11.14 -23.93,10.89 -23.59,10.62 -23.24,10.33 -22.9,10.02 -22.55,9.68 -22.21,9.32 -21.86,8.91 -21.52,8.47 -21.17,7.98 -20.83,7.44 -20.49,6.84 -20.14,6.17 -19.8,5.44 -19.45,4.64 -19.11,3.77 -18.76,2.82 -18.42,1.8 -18.08,0.72 -17.73,-0.42 -17.39,-1.62 -17.04,-2.86 -16.7,-4.15 -16.35,-5.45 -16.01,-6.77 -15.67,-8.08 -15.32,-9.39 -14.98,-10.67 -14.63,-11.92 -14.29,-13.12 -13.94,-14.28 -13.6,-15.39 -13.26,-16.45 -12.91,-17.45 -12.57,-18.41 -12.22,-19.34 -11.88,-20.24 -11.53,-21.13 -11.19,-22.02 -10.85,-22.92 -10.5,-23.86 -10.16,-24.84 -9.81,-25.87 -9.47,-26.97 -9.12,-28.13 -8.78,-29.37 -8.44,-30.67 -8.09,-32.03 -7.75,-33.45 -7.4,-34.91 -7.06,-36.4 -6.71,-37.88 -6.37,-39.36 -6.03,-40.79 -5.68,-42.17 -5.34,-43.46 -4.99,-44.65 -4.65,-45.72 -4.3,-46.66 -3.96,-47.44 -3.62,-48.07 -3.27,-48.53 -2.93,-48.83 -2.58,-48.96 -2.24,-48.92 -1.89,-48.72 -1.55,-48.38 -1.21,-47.89 -0.86,-47.27 -0.52,-46.53 -0.17,-45.68 0.17,-44.72 0.52,-43.66 0.86,-42.51 1.21,-41.28 1.55,-39.96 1.89,-38.57 2.24,-37.1 2.58,-35.56 2.93,-33.96 3.27,-32.3 3.62,-30.58 3.96,-28.82 4.3,-27.03 4.65,-25.23 4.99,-23.42 5.34,-21.63 5.68,-19.86 6.03,-18.14 6.37,-16.48 6.71,-14.89 7.06,-13.39 7.4,-11.97 7.75,-10.66 8.09,-9.45 8.44,-8.34 8.78,-7.33 9.12,-6.41 9.47,-5.59 9.81,-4.85 10.16,-4.19 10.5,-3.59 10.85,-3.04 11.19,-2.53 11.53,-2.05 11.88,-1.6 12.22,-1.15 12.57,-0.71 12.91,-0.26 13.26,0.2 13.6,0.68 13.94,1.19 14.29,1.72 14.63,2.27 14.98,2.85 15.32,3.46 15.67,4.09 16.01,4.73 16.35,5.39 16.7,6.05 17.04,6.72 17.39,7.38 17.73,8.03 18.08,8.67 18.42,9.28 18.76,9.86 19.11,10.41 19.45,10.92 19.8,11.4 20.14,11.85 20.49,12.25 20.83,12.63 21.17,12.96 21.52,13.27 21.86,13.55 22.21,13.8 22.55,14.03 22.9,14.24 23.24,14.43 23.59,14.6 23.93,14.75 24.27,14.89 24.62,15.01 24.96,15.12 25.31,15.2 25.65,15.27 26,15.32 26.34,15.36 26.68,15.37 27.03,15.38 27.37,15.37 27.72,15.35 28.06,15.32 28.41,15.28 28.75,15.25 29.09,15.22 29.44,15.19 29.78,15.17 30.13,15.16 30.47,15.17 30.82,15.18 31.16,15.22 31.5,15.27 31.85,15.33 32.19,15.41 32.54,15.5 32.88,15.6 33.23,15.71 33.57,15.82 33.91,15.94 34.26,16.05 34.6,16.17 34.95,16.27 35.29,16.38 35.64,16.47 35.98,16.56 36.32,16.64 36.67,16.71 37.01,16.77 37.36,16.83 37.7,16.87 38.05,16.91 38.39,16.94 38.73,16.97 39.08,16.99 39.42,17.01 39.77,17.02 40.11,17.03 40.46,17.04 40.8,17.04 41.14,17.05 41.49,17.05 41.83,17.05 42.18,17.06 42.52,17.06 42.87,17.06 43.21,17.06 43.55,17.06 43.9,17.06 " class="primitive"/>
          </g>
          <g transform="translate(72.51,58.87)" id="img-2eea10dd-33" stroke="#00BFFF" stroke-dasharray="none" class="color_1" stroke-opacity="1">
            <path fill="none" d="M-37.74,19.84 L-37.44,19.84 -37.15,19.84 -36.85,19.84 -36.56,19.84 -36.26,19.84 -35.96,19.84 -35.67,19.84 -35.37,19.84 -35.08,19.83 -34.78,19.83 -34.48,19.82 -34.19,19.82 -33.89,19.81 -33.6,19.8 -33.3,19.79 -33,19.77 -32.71,19.76 -32.41,19.73 -32.12,19.7 -31.82,19.67 -31.52,19.63 -31.23,19.58 -30.93,19.52 -30.64,19.45 -30.34,19.37 -30.04,19.27 -29.75,19.16 -29.45,19.03 -29.16,18.88 -28.86,18.71 -28.56,18.51 -28.27,18.29 -27.97,18.05 -27.68,17.77 -27.38,17.47 -27.08,17.14 -26.79,16.77 -26.49,16.38 -26.2,15.95 -25.9,15.49 -25.6,15 -25.31,14.48 -25.01,13.93 -24.72,13.35 -24.42,12.74 -24.12,12.11 -23.83,11.46 -23.53,10.79 -23.24,10.11 -22.94,9.41 -22.64,8.7 -22.35,7.98 -22.05,7.25 -21.76,6.52 -21.46,5.79 -21.16,5.06 -20.87,4.33 -20.57,3.6 -20.28,2.88 -19.98,2.17 -19.68,1.46 -19.39,0.75 -19.09,0.06 -18.8,-0.63 -18.5,-1.31 -18.2,-1.99 -17.91,-2.65 -17.61,-3.31 -17.32,-3.96 -17.02,-4.6 -16.72,-5.24 -16.43,-5.86 -16.13,-6.48 -15.84,-7.09 -15.54,-7.69 -15.24,-8.28 -14.95,-8.86 -14.65,-9.43 -14.36,-9.99 -14.06,-10.55 -13.76,-11.09 -13.47,-11.63 -13.17,-12.17 -12.88,-12.7 -12.58,-13.23 -12.28,-13.76 -11.99,-14.3 -11.69,-14.84 -11.4,-15.4 -11.1,-15.96 -10.8,-16.54 -10.51,-17.14 -10.21,-17.77 -9.92,-18.42 -9.62,-19.1 -9.32,-19.81 -9.03,-20.56 -8.73,-21.33 -8.44,-22.14 -8.14,-22.99 -7.84,-23.86 -7.55,-24.76 -7.25,-25.69 -6.96,-26.63 -6.66,-27.59 -6.36,-28.56 -6.07,-29.52 -5.77,-30.47 -5.48,-31.4 -5.18,-32.31 -4.88,-33.17 -4.59,-33.99 -4.29,-34.76 -4,-35.46 -3.7,-36.1 -3.4,-36.65 -3.11,-37.13 -2.81,-37.52 -2.52,-37.83 -2.22,-38.05 -1.92,-38.18 -1.63,-38.22 -1.33,-38.19 -1.04,-38.07 -0.74,-37.88 -0.44,-37.61 -0.15,-37.28 0.15,-36.89 0.44,-36.45 0.74,-35.95 1.04,-35.41 1.33,-34.82 1.63,-34.2 1.92,-33.55 2.22,-32.86 2.52,-32.14 2.81,-31.4 3.11,-30.63 3.4,-29.83 3.7,-29.01 4,-28.17 4.29,-27.3 4.59,-26.41 4.88,-25.5 5.18,-24.57 5.48,-23.63 5.77,-22.66 6.07,-21.68 6.36,-20.69 6.66,-19.69 6.96,-18.69 7.25,-17.68 7.55,-16.67 7.84,-15.66 8.14,-14.66 8.44,-13.67 8.73,-12.68 9.03,-11.71 9.32,-10.76 9.62,-9.83 9.92,-8.91 10.21,-8.01 10.51,-7.14 10.8,-6.29 11.1,-5.45 11.4,-4.64 11.69,-3.85 11.99,-3.07 12.28,-2.32 12.58,-1.58 12.88,-0.86 13.17,-0.15 13.47,0.55 13.76,1.23 14.06,1.91 14.36,2.57 14.65,3.22 14.95,3.87 15.24,4.5 15.54,5.13 15.84,5.74 16.13,6.34 16.43,6.93 16.72,7.51 17.02,8.07 17.32,8.61 17.61,9.13 17.91,9.64 18.2,10.12 18.5,10.59 18.8,11.03 19.09,11.44 19.39,11.84 19.68,12.21 19.98,12.56 20.28,12.89 20.57,13.2 20.87,13.49 21.16,13.77 21.46,14.03 21.76,14.28 22.05,14.51 22.35,14.74 22.64,14.97 22.94,15.19 23.24,15.4 23.53,15.62 23.83,15.83 24.12,16.05 24.42,16.26 24.72,16.47 25.01,16.69 25.31,16.9 25.6,17.11 25.9,17.31 26.2,17.51 26.49,17.71 26.79,17.9 27.08,18.08 27.38,18.26 27.68,18.42 27.97,18.58 28.27,18.73 28.56,18.86 28.86,18.98 29.16,19.1 29.45,19.2 29.75,19.29 30.04,19.37 30.34,19.44 30.64,19.51 30.93,19.56 31.23,19.61 31.52,19.65 31.82,19.68 32.12,19.71 32.41,19.74 32.71,19.76 33,19.78 33.3,19.79 33.6,19.8 33.89,19.81 34.19,19.82 34.48,19.82 34.78,19.83 35.08,19.83 35.37,19.84 35.67,19.84 35.96,19.84 36.26,19.84 36.56,19.84 36.85,19.84 37.15,19.84 37.44,19.84 37.74,19.84 " class="primitive"/>
          </g>
          <g transform="translate(77.01,60.64)" id="img-2eea10dd-34" stroke="#FF6DAE" stroke-dasharray="none" class="color_3" stroke-opacity="1">
            <path fill="none" d="M-41.43,18.08 L-41.11,18.07 -40.78,18.07 -40.46,18.07 -40.13,18.07 -39.81,18.07 -39.48,18.07 -39.16,18.07 -38.83,18.07 -38.51,18.06 -38.18,18.06 -37.86,18.05 -37.53,18.05 -37.21,18.04 -36.88,18.03 -36.56,18.01 -36.23,18 -35.91,17.97 -35.58,17.95 -35.26,17.92 -34.93,17.88 -34.61,17.83 -34.28,17.78 -33.96,17.72 -33.63,17.65 -33.31,17.56 -32.98,17.47 -32.66,17.37 -32.33,17.25 -32.01,17.12 -31.68,16.98 -31.36,16.82 -31.03,16.65 -30.71,16.47 -30.38,16.27 -30.06,16.06 -29.73,15.83 -29.41,15.59 -29.08,15.34 -28.76,15.07 -28.43,14.79 -28.11,14.49 -27.78,14.18 -27.46,13.84 -27.13,13.49 -26.81,13.12 -26.48,12.72 -26.16,12.3 -25.83,11.85 -25.51,11.37 -25.18,10.86 -24.86,10.33 -24.53,9.76 -24.21,9.16 -23.88,8.52 -23.56,7.86 -23.24,7.16 -22.91,6.44 -22.59,5.69 -22.26,4.91 -21.94,4.12 -21.61,3.31 -21.29,2.48 -20.96,1.65 -20.64,0.8 -20.31,-0.05 -19.99,-0.91 -19.66,-1.78 -19.34,-2.65 -19.01,-3.53 -18.69,-4.41 -18.36,-5.31 -18.04,-6.21 -17.71,-7.14 -17.39,-8.08 -17.06,-9.04 -16.74,-10.03 -16.41,-11.04 -16.09,-12.08 -15.76,-13.16 -15.44,-14.26 -15.11,-15.39 -14.79,-16.55 -14.46,-17.74 -14.14,-18.94 -13.81,-20.17 -13.49,-21.41 -13.16,-22.65 -12.84,-23.9 -12.51,-25.14 -12.19,-26.37 -11.86,-27.57 -11.54,-28.75 -11.21,-29.9 -10.89,-31 -10.56,-32.05 -10.24,-33.04 -9.91,-33.96 -9.59,-34.82 -9.26,-35.6 -8.94,-36.29 -8.61,-36.9 -8.29,-37.42 -7.96,-37.85 -7.64,-38.19 -7.31,-38.44 -6.99,-38.61 -6.66,-38.68 -6.34,-38.69 -6.01,-38.62 -5.69,-38.48 -5.36,-38.29 -5.04,-38.06 -4.71,-37.78 -4.39,-37.48 -4.06,-37.17 -3.74,-36.84 -3.41,-36.51 -3.09,-36.18 -2.76,-35.86 -2.44,-35.56 -2.11,-35.27 -1.79,-34.99 -1.46,-34.72 -1.14,-34.46 -0.81,-34.2 -0.49,-33.93 -0.16,-33.65 0.16,-33.34 0.49,-32.98 0.81,-32.58 1.14,-32.11 1.46,-31.56 1.79,-30.93 2.11,-30.21 2.44,-29.4 2.76,-28.48 3.09,-27.47 3.41,-26.36 3.74,-25.16 4.06,-23.89 4.39,-22.54 4.71,-21.15 5.04,-19.73 5.36,-18.3 5.69,-16.86 6.01,-15.45 6.34,-14.08 6.66,-12.77 6.99,-11.53 7.31,-10.37 7.64,-9.3 7.96,-8.32 8.29,-7.44 8.61,-6.64 8.94,-5.94 9.26,-5.3 9.59,-4.74 9.91,-4.23 10.24,-3.75 10.56,-3.3 10.89,-2.86 11.21,-2.42 11.54,-1.96 11.86,-1.47 12.19,-0.95 12.51,-0.39 12.84,0.22 13.16,0.87 13.49,1.57 13.81,2.31 14.14,3.09 14.46,3.89 14.79,4.72 15.11,5.56 15.44,6.41 15.76,7.25 16.09,8.09 16.41,8.9 16.74,9.69 17.06,10.44 17.39,11.16 17.71,11.84 18.04,12.47 18.36,13.06 18.69,13.6 19.01,14.1 19.34,14.54 19.66,14.94 19.99,15.3 20.31,15.61 20.64,15.88 20.96,16.11 21.29,16.3 21.61,16.45 21.94,16.57 22.26,16.66 22.59,16.73 22.91,16.76 23.24,16.77 23.56,16.77 23.88,16.75 24.21,16.71 24.53,16.67 24.86,16.62 25.18,16.56 25.51,16.51 25.83,16.46 26.16,16.41 26.48,16.38 26.81,16.35 27.13,16.33 27.46,16.33 27.78,16.34 28.11,16.37 28.43,16.4 28.76,16.45 29.08,16.51 29.41,16.59 29.73,16.67 30.06,16.75 30.38,16.85 30.71,16.94 31.03,17.04 31.36,17.14 31.68,17.23 32.01,17.33 32.33,17.41 32.66,17.5 32.98,17.57 33.31,17.64 33.63,17.71 33.96,17.76 34.28,17.82 34.61,17.86 34.93,17.9 35.26,17.93 35.58,17.96 35.91,17.98 36.23,18 36.56,18.02 36.88,18.03 37.21,18.04 37.53,18.05 37.86,18.06 38.18,18.06 38.51,18.06 38.83,18.07 39.16,18.07 39.48,18.07 39.81,18.07 40.13,18.07 40.46,18.07 40.78,18.07 41.11,18.07 41.43,18.08 " class="primitive"/>
          </g>
        </g>
      </g>
    </g>
  </g>
  <g class="guide ylabels" font-size="2.82" font-family="'PT Sans Caption','Helvetica Neue','Helvetica',sans-serif" fill="#6C606B" id="img-2eea10dd-35">
    <g transform="translate(17.63,78.71)" id="img-2eea10dd-36">
      <g class="primitive">
        <text text-anchor="end" dy="0.35em">0.0</text>
      </g>
    </g>
    <g transform="translate(17.63,64.37)" id="img-2eea10dd-37">
      <g class="primitive">
        <text text-anchor="end" dy="0.35em">0.1</text>
      </g>
    </g>
    <g transform="translate(17.63,50.03)" id="img-2eea10dd-38">
      <g class="primitive">
        <text text-anchor="end" dy="0.35em">0.2</text>
      </g>
    </g>
    <g transform="translate(17.63,35.69)" id="img-2eea10dd-39">
      <g class="primitive">
        <text text-anchor="end" dy="0.35em">0.3</text>
      </g>
    </g>
    <g transform="translate(17.63,21.34)" id="img-2eea10dd-40">
      <g class="primitive">
        <text text-anchor="end" dy="0.35em">0.4</text>
      </g>
    </g>
    <g transform="translate(17.63,7)" id="img-2eea10dd-41">
      <g class="primitive">
        <text text-anchor="end" dy="0.35em">0.5</text>
      </g>
    </g>
  </g>
  <g font-size="3.88" font-family="'PT Sans','Helvetica Neue','Helvetica',sans-serif" fill="#564A55" stroke="#000000" stroke-opacity="0.000" id="img-2eea10dd-42">
    <g transform="translate(8.81,40.86)" id="img-2eea10dd-43">
      <g class="primitive">
        <text text-anchor="middle" dy="0.35em" transform="rotate(-90,0, 2)">Density</text>
      </g>
    </g>
  </g>
</g>
<defs>
  <clipPath id="img-2eea10dd-15">
    <path d="M18.63,5 L127.47,5 127.47,80.72 18.63,80.72 " />
  </clipPath>
</defs>
</svg>
