<?xml version="1.0" encoding="UTF-8"?>
<svg xmlns="http://www.w3.org/2000/svg"
     xmlns:xlink="http://www.w3.org/1999/xlink"
     xmlns:gadfly="http://www.gadflyjl.org/ns"
     version="1.2"
     width="141.42mm" height="100mm" viewBox="0 0 141.42 100"
     stroke="none"
     fill="#000000"
     stroke-width="0.3"
     font-size="3.88"
>
<defs>
  <marker id="arrow" markerWidth="15" markerHeight="7" refX="5" refY="3.5" orient="auto" markerUnits="strokeWidth">
    <path d="M0,0 L15,3.5 L0,7 z" stroke="context-stroke" fill="context-stroke"/>
  </marker>
</defs>
<g class="plotroot xscalable yscalable" id="img-44c2020c-1">
  <g font-size="3.88" font-family="'PT Sans','Helvetica Neue','Helvetica',sans-serif" fill="#564A55" stroke="#000000" stroke-opacity="0.000" id="img-44c2020c-2">
    <g transform="translate(70.04,88.39)">
      <g class="primitive">
        <text text-anchor="middle" dy="0.6em">value</text>
      </g>
    </g>
  </g>
  <g class="guide colorkey" id="img-44c2020c-3">
    <g fill="#4C404B" font-size="2.82" font-family="'PT Sans','Helvetica Neue','Helvetica',sans-serif" id="img-44c2020c-4">
      <g transform="translate(131.29,43.38)" id="img-44c2020c-5" class="color_1">
        <g class="primitive">
          <text dy="0.35em">1</text>
        </g>
      </g>
      <g transform="translate(131.29,47.01)" id="img-44c2020c-6" class="color_2">
        <g class="primitive">
          <text dy="0.35em">2</text>
        </g>
      </g>
      <g transform="translate(131.29,50.63)" id="img-44c2020c-7" class="color_3">
        <g class="primitive">
          <text dy="0.35em">3</text>
        </g>
      </g>
    </g>
    <g fill-opacity="1" id="img-44c2020c-8">
      <g transform="translate(129.38,43.38)" id="img-44c2020c-9" stroke="#FFFFFF" fill="#00BFFF" class="color_1">
        <path d="M-0.91,-0.91 L0.91,-0.91 0.91,0.91 -0.91,0.91  z" class="primitive"/>
      </g>
      <g transform="translate(129.38,47.01)" id="img-44c2020c-10" stroke="#FFFFFF" fill="#D4CA3A" class="color_2">
        <path d="M-0.91,-0.91 L0.91,-0.91 0.91,0.91 -0.91,0.91  z" class="primitive"/>
      </g>
      <g transform="translate(129.38,50.63)" id="img-44c2020c-11" stroke="#FFFFFF" fill="#FF6DAE" class="color_3">
        <path d="M-0.91,-0.91 L0.91,-0.91 0.91,0.91 -0.91,0.91  z" class="primitive"/>
      </g>
    </g>
    <g fill="#362A35" font-size="3.88" font-family="'PT Sans','Helvetica Neue','Helvetica',sans-serif" stroke="#000000" stroke-opacity="0.000" id="img-44c2020c-12">
      <g transform="translate(128.47,39.56)" id="img-44c2020c-13">
        <g class="primitive">
          <text dy="-0em">chain</text>
        </g>
      </g>
    </g>
  </g>
  <g clip-path="url(#img-44c2020c-14)">
    <g id="img-44c2020c-15">
      <g class="plotpanel" id="img-44c2020c-16">
        <metadata>
          <boundingbox value="12.611666666666665mm 5.0mm 114.86302290397617mm 80.38833333333334mm"/>
          <unitbox value="0.0 0.0 1.0 1.0"/>
        </metadata>
        <g class="guide xlabels" font-size="2.82" font-family="'PT Sans Caption','Helvetica Neue','Helvetica',sans-serif" fill="#6C606B" id="img-44c2020c-17">
          <g transform="translate(26.9,81.72)" id="img-44c2020c-18">
            <g class="primitive">
              <text text-anchor="middle" dy="0.6em">-5</text>
            </g>
          </g>
          <g transform="translate(75.19,81.72)" id="img-44c2020c-19">
            <g class="primitive">
              <text text-anchor="middle" dy="0.6em">0</text>
            </g>
          </g>
          <g transform="translate(123.47,81.72)" id="img-44c2020c-20">
            <g class="primitive">
              <text text-anchor="middle" dy="0.6em">5</text>
            </g>
          </g>
        </g>
        <g clip-path="url(#img-44c2020c-21)">
          <g id="img-44c2020c-22">
            <g pointer-events="visible" stroke-width="0.3" fill="#000000" fill-opacity="0.000" stroke="#000000" stroke-opacity="0.000" class="guide background" id="img-44c2020c-23">
              <g transform="translate(75.19,62.79)" id="img-44c2020c-24">
                <path d="M-50.28,-17.93 L50.28,-17.93 50.28,17.93 -50.28,17.93  z" class="primitive"/>
              </g>
            </g>
            <g class="guide ygridlines xfixed" stroke-dasharray="0.5,0.5" stroke-width="0.2" stroke="#D0D0E0" id="img-44c2020c-25">
              <g transform="translate(75.19,78.72)" id="img-44c2020c-26">
                <path fill="none" d="M-50.28,0 L50.28,0 " class="primitive"/>
              </g>
              <g transform="translate(75.19,72.34)" id="img-44c2020c-27">
                <path fill="none" d="M-50.28,0 L50.28,0 " class="primitive"/>
              </g>
              <g transform="translate(75.19,65.97)" id="img-44c2020c-28">
                <path fill="none" d="M-50.28,0 L50.28,0 " class="primitive"/>
              </g>
              <g transform="translate(75.19,59.6)" id="img-44c2020c-29">
                <path fill="none" d="M-50.28,0 L50.28,0 " class="primitive"/>
              </g>
              <g transform="translate(75.19,53.23)" id="img-44c2020c-30">
                <path fill="none" d="M-50.28,0 L50.28,0 " class="primitive"/>
              </g>
              <g transform="translate(75.19,46.86)" id="img-44c2020c-31">
                <path fill="none" d="M-50.28,0 L50.28,0 " class="primitive"/>
              </g>
            </g>
            <g class="guide xgridlines yfixed" stroke-dasharray="0.5,0.5" stroke-width="0.2" stroke="#D0D0E0" id="img-44c2020c-32">
              <g transform="translate(26.9,62.79)" id="img-44c2020c-33">
                <path fill="none" d="M0,-17.93 L0,17.93 " class="primitive"/>
              </g>
              <g transform="translate(75.19,62.79)" id="img-44c2020c-34">
                <path fill="none" d="M0,-17.93 L0,17.93 " class="primitive"/>
              </g>
              <g transform="translate(123.47,62.79)" id="img-44c2020c-35">
                <path fill="none" d="M0,-17.93 L0,17.93 " class="primitive"/>
              </g>
            </g>
            <g class="plotpanel" id="img-44c2020c-36">
              <metadata>
                <boundingbox value="24.904999999999987mm 44.8575mm 100.56968957064285mm 35.8575mm"/>
                <unitbox value="-5.207104321127279 0.5313897826257553 10.414208642254557 -0.5627795652515106"/>
              </metadata>
              <g stroke-width="0.3" fill="#000000" fill-opacity="0.000" class="geometry" id="img-44c2020c-37">
                <g transform="translate(72.5,68.67)" id="img-44c2020c-38" stroke="#D4CA3A" stroke-dasharray="none" class="color_2" stroke-opacity="1">
                  <path fill="none" d="M-30.49,10.05 L-30.26,10.05 -30.02,10.05 -29.78,10.05 -29.54,10.05 -29.3,10.05 -29.06,10.05 -28.82,10.05 -28.58,10.05 -28.34,10.04 -28.1,10.04 -27.86,10.04 -27.62,10.04 -27.39,10.04 -27.15,10.03 -26.91,10.03 -26.67,10.02 -26.43,10.01 -26.19,10.01 -25.95,10 -25.71,9.98 -25.47,9.97 -25.23,9.95 -24.99,9.93 -24.75,9.91 -24.52,9.88 -24.28,9.84 -24.04,9.8 -23.8,9.76 -23.56,9.71 -23.32,9.65 -23.08,9.59 -22.84,9.51 -22.6,9.43 -22.36,9.34 -22.12,9.24 -21.88,9.13 -21.65,9.01 -21.41,8.87 -21.17,8.73 -20.93,8.58 -20.69,8.42 -20.45,8.24 -20.21,8.06 -19.97,7.87 -19.73,7.67 -19.49,7.46 -19.25,7.25 -19.01,7.03 -18.78,6.81 -18.54,6.58 -18.3,6.35 -18.06,6.13 -17.82,5.9 -17.58,5.68 -17.34,5.47 -17.1,5.26 -16.86,5.06 -16.62,4.87 -16.38,4.69 -16.14,4.52 -15.9,4.36 -15.67,4.22 -15.43,4.09 -15.19,3.97 -14.95,3.87 -14.71,3.77 -14.47,3.69 -14.23,3.62 -13.99,3.55 -13.75,3.5 -13.51,3.45 -13.27,3.4 -13.03,3.35 -12.8,3.3 -12.56,3.25 -12.32,3.2 -12.08,3.13 -11.84,3.06 -11.6,2.98 -11.36,2.89 -11.12,2.78 -10.88,2.66 -10.64,2.52 -10.4,2.37 -10.16,2.19 -9.93,2 -9.69,1.79 -9.45,1.55 -9.21,1.3 -8.97,1.02 -8.73,0.72 -8.49,0.39 -8.25,0.04 -8.01,-0.33 -7.77,-0.73 -7.53,-1.15 -7.29,-1.6 -7.06,-2.07 -6.82,-2.56 -6.58,-3.07 -6.34,-3.61 -6.1,-4.16 -5.86,-4.74 -5.62,-5.33 -5.38,-5.94 -5.14,-6.56 -4.9,-7.2 -4.66,-7.84 -4.42,-8.49 -4.19,-9.15 -3.95,-9.82 -3.71,-10.48 -3.47,-11.14 -3.23,-11.8 -2.99,-12.45 -2.75,-13.09 -2.51,-13.71 -2.27,-14.32 -2.03,-14.9 -1.79,-15.46 -1.55,-16 -1.32,-16.5 -1.08,-16.97 -0.84,-17.39 -0.6,-17.78 -0.36,-18.13 -0.12,-18.43 0.12,-18.68 0.36,-18.88 0.6,-19.03 0.84,-19.12 1.08,-19.17 1.32,-19.16 1.55,-19.11 1.79,-19 2.03,-18.85 2.27,-18.66 2.51,-18.43 2.75,-18.16 2.99,-17.86 3.23,-17.54 3.47,-17.2 3.71,-16.84 3.95,-16.47 4.19,-16.09 4.42,-15.72 4.66,-15.35 4.9,-14.98 5.14,-14.63 5.38,-14.29 5.62,-13.97 5.86,-13.66 6.1,-13.38 6.34,-13.11 6.58,-12.86 6.82,-12.62 7.06,-12.4 7.29,-12.19 7.53,-12 7.77,-11.81 8.01,-11.62 8.25,-11.43 8.49,-11.24 8.73,-11.05 8.97,-10.85 9.21,-10.64 9.45,-10.41 9.69,-10.18 9.93,-9.93 10.16,-9.66 10.4,-9.38 10.64,-9.08 10.88,-8.77 11.12,-8.45 11.36,-8.11 11.6,-7.77 11.84,-7.42 12.08,-7.06 12.32,-6.69 12.56,-6.33 12.8,-5.96 13.03,-5.58 13.27,-5.21 13.51,-4.84 13.75,-4.46 13.99,-4.09 14.23,-3.71 14.47,-3.34 14.71,-2.95 14.95,-2.57 15.19,-2.17 15.43,-1.78 15.67,-1.37 15.9,-0.96 16.14,-0.54 16.38,-0.11 16.62,0.33 16.86,0.78 17.1,1.23 17.34,1.68 17.58,2.14 17.82,2.6 18.06,3.06 18.3,3.51 18.54,3.96 18.78,4.41 19.01,4.84 19.25,5.26 19.49,5.66 19.73,6.05 19.97,6.42 20.21,6.77 20.45,7.1 20.69,7.41 20.93,7.7 21.17,7.96 21.41,8.21 21.65,8.43 21.88,8.64 22.12,8.82 22.36,8.99 22.6,9.13 22.84,9.26 23.08,9.38 23.32,9.48 23.56,9.57 23.8,9.65 24.04,9.71 24.28,9.77 24.52,9.82 24.75,9.86 24.99,9.89 25.23,9.92 25.47,9.95 25.71,9.97 25.95,9.98 26.19,10 26.43,10.01 26.67,10.02 26.91,10.02 27.15,10.03 27.39,10.03 27.62,10.04 27.86,10.04 28.1,10.04 28.34,10.04 28.58,10.05 28.82,10.05 29.06,10.05 29.3,10.05 29.54,10.05 29.78,10.05 30.02,10.05 30.26,10.05 30.49,10.05 " class="primitive"/>
                </g>
                <g transform="translate(79.37,70.54)" id="img-44c2020c-39" stroke="#00BFFF" stroke-dasharray="none" class="color_1" stroke-opacity="1">
                  <path fill="none" d="M-37.49,8.17 L-37.2,8.17 -36.9,8.17 -36.61,8.17 -36.31,8.17 -36.02,8.17 -35.73,8.17 -35.43,8.17 -35.14,8.17 -34.84,8.17 -34.55,8.17 -34.26,8.16 -33.96,8.16 -33.67,8.16 -33.37,8.15 -33.08,8.15 -32.78,8.14 -32.49,8.13 -32.2,8.12 -31.9,8.1 -31.61,8.09 -31.31,8.06 -31.02,8.04 -30.73,8.01 -30.43,7.97 -30.14,7.93 -29.84,7.88 -29.55,7.82 -29.26,7.75 -28.96,7.67 -28.67,7.58 -28.37,7.48 -28.08,7.36 -27.79,7.23 -27.49,7.08 -27.2,6.92 -26.9,6.74 -26.61,6.54 -26.32,6.33 -26.02,6.09 -25.73,5.84 -25.43,5.56 -25.14,5.27 -24.85,4.96 -24.55,4.64 -24.26,4.29 -23.96,3.94 -23.67,3.56 -23.38,3.18 -23.08,2.79 -22.79,2.39 -22.49,1.99 -22.2,1.58 -21.91,1.18 -21.61,0.78 -21.32,0.39 -21.02,0 -20.73,-0.37 -20.44,-0.73 -20.14,-1.07 -19.85,-1.4 -19.55,-1.72 -19.26,-2.02 -18.97,-2.3 -18.67,-2.57 -18.38,-2.83 -18.08,-3.08 -17.79,-3.32 -17.5,-3.57 -17.2,-3.81 -16.91,-4.06 -16.61,-4.33 -16.32,-4.6 -16.02,-4.89 -15.73,-5.21 -15.44,-5.55 -15.14,-5.91 -14.85,-6.3 -14.55,-6.72 -14.26,-7.16 -13.97,-7.62 -13.67,-8.11 -13.38,-8.61 -13.08,-9.12 -12.79,-9.64 -12.5,-10.16 -12.2,-10.67 -11.91,-11.18 -11.61,-11.66 -11.32,-12.12 -11.03,-12.56 -10.73,-12.96 -10.44,-13.32 -10.14,-13.65 -9.85,-13.93 -9.56,-14.17 -9.26,-14.37 -8.97,-14.54 -8.67,-14.66 -8.38,-14.75 -8.09,-14.82 -7.79,-14.85 -7.5,-14.87 -7.2,-14.87 -6.91,-14.85 -6.62,-14.83 -6.32,-14.8 -6.03,-14.77 -5.73,-14.73 -5.44,-14.7 -5.15,-14.67 -4.85,-14.64 -4.56,-14.61 -4.26,-14.58 -3.97,-14.55 -3.68,-14.51 -3.38,-14.47 -3.09,-14.43 -2.79,-14.37 -2.5,-14.3 -2.21,-14.22 -1.91,-14.12 -1.62,-14.01 -1.32,-13.88 -1.03,-13.72 -0.74,-13.55 -0.44,-13.35 -0.15,-13.13 0.15,-12.89 0.44,-12.63 0.74,-12.35 1.03,-12.04 1.32,-11.72 1.62,-11.39 1.91,-11.04 2.21,-10.67 2.5,-10.3 2.79,-9.91 3.09,-9.52 3.38,-9.13 3.68,-8.74 3.97,-8.35 4.26,-7.96 4.56,-7.57 4.85,-7.2 5.15,-6.83 5.44,-6.47 5.73,-6.12 6.03,-5.77 6.32,-5.44 6.62,-5.12 6.91,-4.8 7.2,-4.49 7.5,-4.18 7.79,-3.88 8.09,-3.57 8.38,-3.26 8.67,-2.95 8.97,-2.63 9.26,-2.31 9.56,-1.97 9.85,-1.63 10.14,-1.27 10.44,-0.91 10.73,-0.53 11.03,-0.15 11.32,0.24 11.61,0.64 11.91,1.04 12.2,1.44 12.5,1.84 12.79,2.24 13.08,2.63 13.38,3.01 13.67,3.38 13.97,3.73 14.26,4.07 14.55,4.39 14.85,4.69 15.14,4.97 15.44,5.23 15.73,5.47 16.02,5.69 16.32,5.89 16.61,6.07 16.91,6.24 17.2,6.38 17.5,6.51 17.79,6.63 18.08,6.73 18.38,6.81 18.67,6.89 18.97,6.96 19.26,7.01 19.55,7.06 19.85,7.1 20.14,7.14 20.44,7.16 20.73,7.19 21.02,7.21 21.32,7.22 21.61,7.24 21.91,7.25 22.2,7.26 22.49,7.27 22.79,7.28 23.08,7.3 23.38,7.31 23.67,7.33 23.96,7.35 24.26,7.37 24.55,7.39 24.85,7.42 25.14,7.45 25.43,7.48 25.73,7.52 26.02,7.56 26.32,7.6 26.61,7.64 26.9,7.68 27.2,7.72 27.49,7.76 27.79,7.8 28.08,7.83 28.37,7.87 28.67,7.9 28.96,7.94 29.26,7.97 29.55,7.99 29.84,8.02 30.14,8.04 30.43,8.06 30.73,8.08 31.02,8.09 31.31,8.11 31.61,8.12 31.9,8.13 32.2,8.14 32.49,8.14 32.78,8.15 33.08,8.16 33.37,8.16 33.67,8.16 33.96,8.17 34.26,8.17 34.55,8.17 34.84,8.17 35.14,8.17 35.43,8.17 35.73,8.17 36.02,8.17 36.31,8.17 36.61,8.17 36.9,8.17 37.2,8.17 37.49,8.17 " class="primitive"/>
                </g>
                <g transform="translate(76.85,70.67)" id="img-44c2020c-40" stroke="#FF6DAE" stroke-dasharray="none" class="color_3" stroke-opacity="1">
                  <path fill="none" d="M-38.09,8.04 L-37.79,8.04 -37.49,8.04 -37.19,8.04 -36.89,8.04 -36.6,8.04 -36.3,8.04 -36,8.04 -35.7,8.04 -35.4,8.04 -35.1,8.04 -34.8,8.03 -34.5,8.03 -34.21,8.02 -33.91,8.02 -33.61,8.01 -33.31,8 -33.01,7.99 -32.71,7.97 -32.41,7.96 -32.11,7.93 -31.82,7.91 -31.52,7.88 -31.22,7.84 -30.92,7.8 -30.62,7.75 -30.32,7.69 -30.02,7.63 -29.72,7.55 -29.43,7.47 -29.13,7.38 -28.83,7.27 -28.53,7.15 -28.23,7.03 -27.93,6.89 -27.63,6.74 -27.33,6.57 -27.04,6.4 -26.74,6.22 -26.44,6.03 -26.14,5.83 -25.84,5.62 -25.54,5.41 -25.24,5.19 -24.94,4.97 -24.65,4.74 -24.35,4.52 -24.05,4.3 -23.75,4.08 -23.45,3.86 -23.15,3.65 -22.85,3.44 -22.55,3.24 -22.26,3.04 -21.96,2.84 -21.66,2.65 -21.36,2.46 -21.06,2.27 -20.76,2.08 -20.46,1.89 -20.17,1.7 -19.87,1.5 -19.57,1.29 -19.27,1.07 -18.97,0.85 -18.67,0.61 -18.37,0.36 -18.07,0.09 -17.78,-0.19 -17.48,-0.48 -17.18,-0.79 -16.88,-1.11 -16.58,-1.45 -16.28,-1.79 -15.98,-2.15 -15.68,-2.51 -15.39,-2.88 -15.09,-3.26 -14.79,-3.63 -14.49,-4.01 -14.19,-4.39 -13.89,-4.76 -13.59,-5.13 -13.29,-5.49 -13,-5.85 -12.7,-6.2 -12.4,-6.54 -12.1,-6.87 -11.8,-7.2 -11.5,-7.51 -11.2,-7.82 -10.9,-8.13 -10.61,-8.42 -10.31,-8.71 -10.01,-9 -9.71,-9.28 -9.41,-9.57 -9.11,-9.85 -8.81,-10.13 -8.51,-10.41 -8.22,-10.7 -7.92,-10.99 -7.62,-11.28 -7.32,-11.57 -7.02,-11.87 -6.72,-12.18 -6.42,-12.48 -6.12,-12.78 -5.83,-13.09 -5.53,-13.39 -5.23,-13.69 -4.93,-13.98 -4.63,-14.26 -4.33,-14.53 -4.03,-14.78 -3.73,-15.02 -3.44,-15.23 -3.14,-15.41 -2.84,-15.57 -2.54,-15.7 -2.24,-15.79 -1.94,-15.85 -1.64,-15.87 -1.34,-15.85 -1.05,-15.79 -0.75,-15.7 -0.45,-15.57 -0.15,-15.4 0.15,-15.2 0.45,-14.96 0.75,-14.7 1.05,-14.4 1.34,-14.08 1.64,-13.74 1.94,-13.39 2.24,-13.02 2.54,-12.63 2.84,-12.24 3.14,-11.85 3.44,-11.46 3.73,-11.06 4.03,-10.67 4.33,-10.29 4.63,-9.92 4.93,-9.55 5.23,-9.2 5.53,-8.85 5.83,-8.52 6.12,-8.2 6.42,-7.89 6.72,-7.59 7.02,-7.29 7.32,-7 7.62,-6.72 7.92,-6.43 8.22,-6.15 8.51,-5.86 8.81,-5.57 9.11,-5.27 9.41,-4.96 9.71,-4.64 10.01,-4.32 10.31,-3.98 10.61,-3.63 10.9,-3.27 11.2,-2.89 11.5,-2.51 11.8,-2.12 12.1,-1.72 12.4,-1.31 12.7,-0.9 13,-0.49 13.29,-0.08 13.59,0.33 13.89,0.74 14.19,1.14 14.49,1.53 14.79,1.91 15.09,2.28 15.39,2.63 15.68,2.98 15.98,3.3 16.28,3.61 16.58,3.9 16.88,4.17 17.18,4.43 17.48,4.66 17.78,4.88 18.07,5.07 18.37,5.25 18.67,5.41 18.97,5.56 19.27,5.68 19.57,5.79 19.87,5.89 20.17,5.98 20.46,6.05 20.76,6.11 21.06,6.17 21.36,6.22 21.66,6.26 21.96,6.3 22.26,6.34 22.55,6.38 22.85,6.42 23.15,6.46 23.45,6.5 23.75,6.55 24.05,6.6 24.35,6.66 24.65,6.72 24.94,6.78 25.24,6.84 25.54,6.91 25.84,6.98 26.14,7.05 26.44,7.12 26.74,7.2 27.04,7.27 27.33,7.34 27.63,7.4 27.93,7.47 28.23,7.53 28.53,7.59 28.83,7.64 29.13,7.69 29.43,7.74 29.72,7.78 30.02,7.82 30.32,7.85 30.62,7.88 30.92,7.91 31.22,7.93 31.52,7.95 31.82,7.97 32.11,7.98 32.41,7.99 32.71,8 33.01,8.01 33.31,8.02 33.61,8.02 33.91,8.03 34.21,8.03 34.5,8.04 34.8,8.04 35.1,8.04 35.4,8.04 35.7,8.04 36,8.04 36.3,8.04 36.6,8.04 36.89,8.04 37.19,8.04 37.49,8.04 37.79,8.04 38.09,8.04 " class="primitive"/>
                </g>
              </g>
            </g>
          </g>
        </g>
        <g class="guide ylabels" font-size="2.82" font-family="'PT Sans Caption','Helvetica Neue','Helvetica',sans-serif" fill="#6C606B" id="img-44c2020c-41">
          <g transform="translate(23.9,78.72)" id="img-44c2020c-42">
            <g class="primitive">
              <text text-anchor="end" dy="0.35em">0.0</text>
            </g>
          </g>
          <g transform="translate(23.9,72.34)" id="img-44c2020c-43">
            <g class="primitive">
              <text text-anchor="end" dy="0.35em">0.1</text>
            </g>
          </g>
          <g transform="translate(23.9,65.97)" id="img-44c2020c-44">
            <g class="primitive">
              <text text-anchor="end" dy="0.35em">0.2</text>
            </g>
          </g>
          <g transform="translate(23.9,59.6)" id="img-44c2020c-45">
            <g class="primitive">
              <text text-anchor="end" dy="0.35em">0.3</text>
            </g>
          </g>
          <g transform="translate(23.9,53.23)" id="img-44c2020c-46">
            <g class="primitive">
              <text text-anchor="end" dy="0.35em">0.4</text>
            </g>
          </g>
          <g transform="translate(23.9,46.86)" id="img-44c2020c-47">
            <g class="primitive">
              <text text-anchor="end" dy="0.35em">0.5</text>
            </g>
          </g>
        </g>
        <g font-size="3.88" font-family="'PT Sans','Helvetica Neue','Helvetica',sans-serif" fill="#564A55" stroke="#000000" stroke-opacity="0.000" id="img-44c2020c-48">
          <g transform="translate(16.88,62.79)" id="img-44c2020c-49">
            <g class="primitive">
              <text text-anchor="end" dy="0.35em">B</text>
            </g>
          </g>
        </g>
        <g clip-path="url(#img-44c2020c-50)">
          <g id="img-44c2020c-51">
            <g pointer-events="visible" stroke-width="0.3" fill="#000000" fill-opacity="0.000" stroke="#000000" stroke-opacity="0.000" class="guide background" id="img-44c2020c-52">
              <g transform="translate(75.19,23.93)" id="img-44c2020c-53">
                <path d="M-50.28,-16.93 L50.28,-16.93 50.28,16.93 -50.28,16.93  z" class="primitive"/>
              </g>
            </g>
            <g class="guide ygridlines xfixed" stroke-dasharray="0.5,0.5" stroke-width="0.2" stroke="#D0D0E0" id="img-44c2020c-54">
              <g transform="translate(75.19,38.86)" id="img-44c2020c-55">
                <path fill="none" d="M-50.28,0 L50.28,0 " class="primitive"/>
              </g>
              <g transform="translate(75.19,32.89)" id="img-44c2020c-56">
                <path fill="none" d="M-50.28,0 L50.28,0 " class="primitive"/>
              </g>
              <g transform="translate(75.19,26.91)" id="img-44c2020c-57">
                <path fill="none" d="M-50.28,0 L50.28,0 " class="primitive"/>
              </g>
              <g transform="translate(75.19,20.94)" id="img-44c2020c-58">
                <path fill="none" d="M-50.28,0 L50.28,0 " class="primitive"/>
              </g>
              <g transform="translate(75.19,14.97)" id="img-44c2020c-59">
                <path fill="none" d="M-50.28,0 L50.28,0 " class="primitive"/>
              </g>
              <g transform="translate(75.19,9)" id="img-44c2020c-60">
                <path fill="none" d="M-50.28,0 L50.28,0 " class="primitive"/>
              </g>
            </g>
            <g class="guide xgridlines yfixed" stroke-dasharray="0.5,0.5" stroke-width="0.2" stroke="#D0D0E0" id="img-44c2020c-61">
              <g transform="translate(26.9,23.93)" id="img-44c2020c-62">
                <path fill="none" d="M0,-16.93 L0,16.93 " class="primitive"/>
              </g>
              <g transform="translate(75.19,23.93)" id="img-44c2020c-63">
                <path fill="none" d="M0,-16.93 L0,16.93 " class="primitive"/>
              </g>
              <g transform="translate(123.47,23.93)" id="img-44c2020c-64">
                <path fill="none" d="M0,-16.93 L0,16.93 " class="primitive"/>
              </g>
            </g>
            <g class="plotpanel" id="img-44c2020c-65">
              <metadata>
                <boundingbox value="24.904999999999987mm 7.0mm 100.56968957064285mm 33.8575mm"/>
                <unitbox value="-5.207104321127279 0.5334924223394457 10.414208642254557 -0.5669848446788914"/>
              </metadata>
              <g stroke-width="0.3" fill="#000000" fill-opacity="0.000" class="geometry" id="img-44c2020c-66">
                <g transform="translate(77.67,31.75)" id="img-44c2020c-67" stroke="#D4CA3A" stroke-dasharray="none" class="color_2" stroke-opacity="1">
                  <path fill="none" d="M-40.44,7.1 L-40.12,7.1 -39.8,7.1 -39.48,7.1 -39.17,7.1 -38.85,7.1 -38.53,7.1 -38.22,7.1 -37.9,7.1 -37.58,7.1 -37.26,7.09 -36.95,7.09 -36.63,7.09 -36.31,7.08 -36,7.07 -35.68,7.06 -35.36,7.05 -35.04,7.04 -34.73,7.02 -34.41,7 -34.09,6.98 -33.78,6.95 -33.46,6.92 -33.14,6.88 -32.82,6.84 -32.51,6.8 -32.19,6.75 -31.87,6.69 -31.56,6.63 -31.24,6.57 -30.92,6.51 -30.6,6.44 -30.29,6.37 -29.97,6.3 -29.65,6.23 -29.34,6.16 -29.02,6.1 -28.7,6.03 -28.38,5.96 -28.07,5.9 -27.75,5.84 -27.43,5.78 -27.12,5.72 -26.8,5.66 -26.48,5.6 -26.16,5.54 -25.85,5.48 -25.53,5.42 -25.21,5.36 -24.9,5.29 -24.58,5.23 -24.26,5.15 -23.94,5.08 -23.63,5 -23.31,4.92 -22.99,4.83 -22.68,4.74 -22.36,4.64 -22.04,4.53 -21.72,4.42 -21.41,4.3 -21.09,4.17 -20.77,4.03 -20.46,3.88 -20.14,3.71 -19.82,3.53 -19.5,3.32 -19.19,3.1 -18.87,2.85 -18.55,2.57 -18.24,2.26 -17.92,1.93 -17.6,1.57 -17.28,1.17 -16.97,0.75 -16.65,0.3 -16.33,-0.18 -16.02,-0.67 -15.7,-1.19 -15.38,-1.73 -15.06,-2.27 -14.75,-2.82 -14.43,-3.37 -14.11,-3.91 -13.8,-4.44 -13.48,-4.96 -13.16,-5.46 -12.84,-5.95 -12.53,-6.41 -12.21,-6.85 -11.89,-7.27 -11.58,-7.67 -11.26,-8.05 -10.94,-8.43 -10.62,-8.8 -10.31,-9.17 -9.99,-9.54 -9.67,-9.93 -9.36,-10.34 -9.04,-10.77 -8.72,-11.23 -8.4,-11.71 -8.09,-12.23 -7.77,-12.77 -7.45,-13.34 -7.14,-13.93 -6.82,-14.54 -6.5,-15.15 -6.18,-15.77 -5.87,-16.39 -5.55,-16.98 -5.23,-17.55 -4.92,-18.09 -4.6,-18.59 -4.28,-19.04 -3.96,-19.42 -3.65,-19.75 -3.33,-20.01 -3.01,-20.21 -2.7,-20.33 -2.38,-20.38 -2.06,-20.37 -1.74,-20.29 -1.43,-20.14 -1.11,-19.94 -0.79,-19.68 -0.48,-19.37 -0.16,-19.02 0.16,-18.62 0.48,-18.18 0.79,-17.7 1.11,-17.19 1.43,-16.64 1.74,-16.06 2.06,-15.45 2.38,-14.81 2.7,-14.14 3.01,-13.45 3.33,-12.73 3.65,-12 3.96,-11.26 4.28,-10.5 4.6,-9.75 4.92,-9 5.23,-8.27 5.55,-7.55 5.87,-6.86 6.18,-6.2 6.5,-5.57 6.82,-4.99 7.14,-4.44 7.45,-3.93 7.77,-3.47 8.09,-3.05 8.4,-2.67 8.72,-2.33 9.04,-2.02 9.36,-1.74 9.67,-1.49 9.99,-1.26 10.31,-1.05 10.62,-0.85 10.94,-0.66 11.26,-0.48 11.58,-0.29 11.89,-0.11 12.21,0.08 12.53,0.29 12.84,0.49 13.16,0.71 13.48,0.95 13.8,1.19 14.11,1.44 14.43,1.7 14.75,1.97 15.06,2.24 15.38,2.52 15.7,2.8 16.02,3.07 16.33,3.34 16.65,3.61 16.97,3.86 17.28,4.1 17.6,4.33 17.92,4.55 18.24,4.75 18.55,4.93 18.87,5.1 19.19,5.26 19.5,5.4 19.82,5.53 20.14,5.64 20.46,5.75 20.77,5.84 21.09,5.93 21.41,6.01 21.72,6.08 22.04,6.14 22.36,6.2 22.68,6.25 22.99,6.29 23.31,6.33 23.63,6.36 23.94,6.38 24.26,6.39 24.58,6.4 24.9,6.4 25.21,6.4 25.53,6.39 25.85,6.38 26.16,6.36 26.48,6.35 26.8,6.34 27.12,6.32 27.43,6.32 27.75,6.31 28.07,6.31 28.38,6.32 28.7,6.34 29.02,6.36 29.34,6.38 29.65,6.42 29.97,6.45 30.29,6.5 30.6,6.54 30.92,6.59 31.24,6.64 31.56,6.68 31.87,6.73 32.19,6.78 32.51,6.82 32.82,6.86 33.14,6.89 33.46,6.93 33.78,6.96 34.09,6.98 34.41,7 34.73,7.02 35.04,7.04 35.36,7.05 35.68,7.06 36,7.07 36.31,7.08 36.63,7.09 36.95,7.09 37.26,7.09 37.58,7.1 37.9,7.1 38.22,7.1 38.53,7.1 38.85,7.1 39.17,7.1 39.48,7.1 39.8,7.1 40.12,7.1 40.44,7.1 " class="primitive"/>
                </g>
                <g transform="translate(74.69,30.6)" id="img-44c2020c-68" stroke="#00BFFF" stroke-dasharray="none" class="color_1" stroke-opacity="1">
                  <path fill="none" d="M-34.76,8.26 L-34.49,8.26 -34.22,8.26 -33.94,8.26 -33.67,8.26 -33.4,8.26 -33.13,8.26 -32.85,8.26 -32.58,8.26 -32.31,8.26 -32.04,8.26 -31.76,8.25 -31.49,8.25 -31.22,8.25 -30.95,8.24 -30.67,8.24 -30.4,8.23 -30.13,8.22 -29.86,8.22 -29.58,8.2 -29.31,8.19 -29.04,8.17 -28.76,8.15 -28.49,8.13 -28.22,8.1 -27.95,8.06 -27.67,8.02 -27.4,7.98 -27.13,7.92 -26.86,7.86 -26.58,7.79 -26.31,7.71 -26.04,7.62 -25.77,7.51 -25.49,7.4 -25.22,7.27 -24.95,7.14 -24.67,6.98 -24.4,6.82 -24.13,6.64 -23.86,6.45 -23.58,6.25 -23.31,6.03 -23.04,5.8 -22.77,5.56 -22.49,5.31 -22.22,5.04 -21.95,4.77 -21.68,4.49 -21.4,4.21 -21.13,3.92 -20.86,3.62 -20.58,3.32 -20.31,3.02 -20.04,2.72 -19.77,2.41 -19.49,2.11 -19.22,1.8 -18.95,1.5 -18.68,1.2 -18.4,0.9 -18.13,0.61 -17.86,0.31 -17.59,0.02 -17.31,-0.26 -17.04,-0.55 -16.77,-0.83 -16.5,-1.1 -16.22,-1.38 -15.95,-1.65 -15.68,-1.92 -15.4,-2.18 -15.13,-2.44 -14.86,-2.7 -14.59,-2.95 -14.31,-3.2 -14.04,-3.45 -13.77,-3.69 -13.5,-3.93 -13.22,-4.16 -12.95,-4.39 -12.68,-4.62 -12.41,-4.84 -12.13,-5.07 -11.86,-5.29 -11.59,-5.51 -11.31,-5.73 -11.04,-5.95 -10.77,-6.18 -10.5,-6.41 -10.22,-6.65 -9.95,-6.89 -9.68,-7.14 -9.41,-7.4 -9.13,-7.67 -8.86,-7.95 -8.59,-8.25 -8.32,-8.56 -8.04,-8.88 -7.77,-9.22 -7.5,-9.57 -7.23,-9.93 -6.95,-10.31 -6.68,-10.7 -6.41,-11.09 -6.13,-11.49 -5.86,-11.89 -5.59,-12.29 -5.32,-12.69 -5.04,-13.07 -4.77,-13.45 -4.5,-13.81 -4.23,-14.15 -3.95,-14.47 -3.68,-14.76 -3.41,-15.03 -3.14,-15.26 -2.86,-15.46 -2.59,-15.62 -2.32,-15.75 -2.04,-15.84 -1.77,-15.9 -1.5,-15.91 -1.23,-15.9 -0.95,-15.85 -0.68,-15.77 -0.41,-15.66 -0.14,-15.52 0.14,-15.36 0.41,-15.17 0.68,-14.97 0.95,-14.74 1.23,-14.5 1.5,-14.24 1.77,-13.97 2.04,-13.68 2.32,-13.38 2.59,-13.07 2.86,-12.75 3.14,-12.42 3.41,-12.08 3.68,-11.73 3.95,-11.37 4.23,-11 4.5,-10.62 4.77,-10.23 5.04,-9.84 5.32,-9.44 5.59,-9.03 5.86,-8.62 6.13,-8.2 6.41,-7.78 6.68,-7.36 6.95,-6.94 7.23,-6.52 7.5,-6.1 7.77,-5.69 8.04,-5.28 8.32,-4.88 8.59,-4.48 8.86,-4.09 9.13,-3.71 9.41,-3.34 9.68,-2.97 9.95,-2.62 10.22,-2.27 10.5,-1.93 10.77,-1.6 11.04,-1.28 11.31,-0.97 11.59,-0.66 11.86,-0.36 12.13,-0.06 12.41,0.23 12.68,0.51 12.95,0.79 13.22,1.07 13.5,1.34 13.77,1.61 14.04,1.87 14.31,2.13 14.59,2.39 14.86,2.64 15.13,2.89 15.4,3.13 15.68,3.36 15.95,3.58 16.22,3.8 16.5,4.01 16.77,4.22 17.04,4.41 17.31,4.59 17.59,4.76 17.86,4.93 18.13,5.08 18.4,5.23 18.68,5.37 18.95,5.5 19.22,5.62 19.49,5.73 19.77,5.84 20.04,5.94 20.31,6.04 20.58,6.14 20.86,6.23 21.13,6.32 21.4,6.41 21.68,6.5 21.95,6.59 22.22,6.68 22.49,6.77 22.77,6.86 23.04,6.95 23.31,7.04 23.58,7.12 23.86,7.21 24.13,7.29 24.4,7.37 24.67,7.45 24.95,7.53 25.22,7.6 25.49,7.67 25.77,7.74 26.04,7.8 26.31,7.85 26.58,7.9 26.86,7.95 27.13,7.99 27.4,8.03 27.67,8.06 27.95,8.09 28.22,8.12 28.49,8.14 28.76,8.16 29.04,8.18 29.31,8.2 29.58,8.21 29.86,8.22 30.13,8.23 30.4,8.23 30.67,8.24 30.95,8.24 31.22,8.25 31.49,8.25 31.76,8.25 32.04,8.26 32.31,8.26 32.58,8.26 32.85,8.26 33.13,8.26 33.4,8.26 33.67,8.26 33.94,8.26 34.22,8.26 34.49,8.26 34.76,8.26 " class="primitive"/>
                </g>
                <g transform="translate(78.84,31.33)" id="img-44c2020c-69" stroke="#FF6DAE" stroke-dasharray="none" class="color_3" stroke-opacity="1">
                  <path fill="none" d="M-38.16,7.53 L-37.86,7.53 -37.56,7.53 -37.27,7.52 -36.97,7.52 -36.67,7.52 -36.37,7.52 -36.07,7.52 -35.77,7.52 -35.47,7.52 -35.17,7.52 -34.87,7.52 -34.57,7.51 -34.27,7.51 -33.97,7.51 -33.67,7.5 -33.37,7.49 -33.08,7.48 -32.78,7.47 -32.48,7.46 -32.18,7.44 -31.88,7.42 -31.58,7.4 -31.28,7.38 -30.98,7.35 -30.68,7.31 -30.38,7.27 -30.08,7.23 -29.78,7.18 -29.48,7.13 -29.18,7.07 -28.88,7 -28.59,6.93 -28.29,6.86 -27.99,6.77 -27.69,6.69 -27.39,6.59 -27.09,6.49 -26.79,6.39 -26.49,6.28 -26.19,6.16 -25.89,6.03 -25.59,5.9 -25.29,5.76 -24.99,5.62 -24.69,5.46 -24.39,5.3 -24.1,5.12 -23.8,4.93 -23.5,4.73 -23.2,4.52 -22.9,4.3 -22.6,4.06 -22.3,3.81 -22,3.55 -21.7,3.27 -21.4,2.98 -21.1,2.68 -20.8,2.37 -20.5,2.05 -20.2,1.72 -19.9,1.38 -19.61,1.03 -19.31,0.69 -19.01,0.33 -18.71,-0.02 -18.41,-0.38 -18.11,-0.74 -17.81,-1.1 -17.51,-1.47 -17.21,-1.84 -16.91,-2.21 -16.61,-2.59 -16.31,-2.97 -16.01,-3.36 -15.71,-3.76 -15.42,-4.17 -15.12,-4.6 -14.82,-5.03 -14.52,-5.48 -14.22,-5.94 -13.92,-6.41 -13.62,-6.89 -13.32,-7.38 -13.02,-7.89 -12.72,-8.4 -12.42,-8.91 -12.12,-9.43 -11.82,-9.95 -11.52,-10.47 -11.22,-10.98 -10.93,-11.48 -10.63,-11.97 -10.33,-12.45 -10.03,-12.9 -9.73,-13.34 -9.43,-13.75 -9.13,-14.14 -8.83,-14.5 -8.53,-14.82 -8.23,-15.11 -7.93,-15.36 -7.63,-15.58 -7.33,-15.76 -7.03,-15.9 -6.73,-16.01 -6.44,-16.07 -6.14,-16.11 -5.84,-16.11 -5.54,-16.08 -5.24,-16.02 -4.94,-15.94 -4.64,-15.84 -4.34,-15.73 -4.04,-15.61 -3.74,-15.47 -3.44,-15.34 -3.14,-15.2 -2.84,-15.06 -2.54,-14.93 -2.24,-14.8 -1.95,-14.68 -1.65,-14.57 -1.35,-14.46 -1.05,-14.35 -0.75,-14.24 -0.45,-14.13 -0.15,-14.01 0.15,-13.88 0.45,-13.73 0.75,-13.56 1.05,-13.37 1.35,-13.14 1.65,-12.88 1.95,-12.58 2.24,-12.24 2.54,-11.86 2.84,-11.44 3.14,-10.97 3.44,-10.48 3.74,-9.94 4.04,-9.39 4.34,-8.81 4.64,-8.22 4.94,-7.62 5.24,-7.02 5.54,-6.43 5.84,-5.86 6.14,-5.32 6.44,-4.8 6.73,-4.32 7.03,-3.87 7.33,-3.46 7.63,-3.1 7.93,-2.77 8.23,-2.47 8.53,-2.21 8.83,-1.97 9.13,-1.76 9.43,-1.56 9.73,-1.38 10.03,-1.19 10.33,-1.01 10.63,-0.82 10.93,-0.61 11.22,-0.4 11.52,-0.16 11.82,0.09 12.12,0.36 12.42,0.65 12.72,0.96 13.02,1.29 13.32,1.62 13.62,1.97 13.92,2.32 14.22,2.67 14.52,3.02 14.82,3.37 15.12,3.71 15.42,4.03 15.71,4.35 16.01,4.65 16.31,4.93 16.61,5.19 16.91,5.44 17.21,5.66 17.51,5.87 17.81,6.05 18.11,6.22 18.41,6.37 18.71,6.5 19.01,6.61 19.31,6.71 19.61,6.79 19.9,6.85 20.2,6.9 20.5,6.94 20.8,6.96 21.1,6.98 21.4,6.98 21.7,6.98 22,6.97 22.3,6.96 22.6,6.94 22.9,6.92 23.2,6.9 23.5,6.87 23.8,6.85 24.1,6.83 24.39,6.82 24.69,6.81 24.99,6.8 25.29,6.8 25.59,6.8 25.89,6.81 26.19,6.83 26.49,6.85 26.79,6.88 27.09,6.91 27.39,6.94 27.69,6.98 27.99,7.01 28.29,7.05 28.59,7.09 28.88,7.14 29.18,7.18 29.48,7.21 29.78,7.25 30.08,7.28 30.38,7.32 30.68,7.35 30.98,7.37 31.28,7.4 31.58,7.42 31.88,7.44 32.18,7.45 32.48,7.47 32.78,7.48 33.08,7.49 33.37,7.49 33.67,7.5 33.97,7.51 34.27,7.51 34.57,7.51 34.87,7.52 35.17,7.52 35.47,7.52 35.77,7.52 36.07,7.52 36.37,7.52 36.67,7.52 36.97,7.52 37.27,7.52 37.56,7.53 37.86,7.53 38.16,7.53 " class="primitive"/>
                </g>
              </g>
            </g>
          </g>
        </g>
        <g class="guide ylabels" font-size="2.82" font-family="'PT Sans Caption','Helvetica Neue','Helvetica',sans-serif" fill="#6C606B" id="img-44c2020c-70">
          <g transform="translate(23.9,38.86)" id="img-44c2020c-71">
            <g class="primitive">
              <text text-anchor="end" dy="0.35em">0.0</text>
            </g>
          </g>
          <g transform="translate(23.9,32.89)" id="img-44c2020c-72">
            <g class="primitive">
              <text text-anchor="end" dy="0.35em">0.1</text>
            </g>
          </g>
          <g transform="translate(23.9,26.91)" id="img-44c2020c-73">
            <g class="primitive">
              <text text-anchor="end" dy="0.35em">0.2</text>
            </g>
          </g>
          <g transform="translate(23.9,20.94)" id="img-44c2020c-74">
            <g class="primitive">
              <text text-anchor="end" dy="0.35em">0.3</text>
            </g>
          </g>
          <g transform="translate(23.9,14.97)" id="img-44c2020c-75">
            <g class="primitive">
              <text text-anchor="end" dy="0.35em">0.4</text>
            </g>
          </g>
          <g transform="translate(23.9,9)" id="img-44c2020c-76">
            <g class="primitive">
              <text text-anchor="end" dy="0.35em">0.5</text>
            </g>
          </g>
        </g>
        <g font-size="3.88" font-family="'PT Sans','Helvetica Neue','Helvetica',sans-serif" fill="#564A55" stroke="#000000" stroke-opacity="0.000" id="img-44c2020c-77">
          <g transform="translate(16.88,23.93)" id="img-44c2020c-78">
            <g class="primitive">
              <text text-anchor="end" dy="0.35em">A</text>
            </g>
          </g>
        </g>
      </g>
    </g>
  </g>
  <g font-size="3.88" font-family="'PT Sans','Helvetica Neue','Helvetica',sans-serif" fill="#564A55" stroke="#000000" stroke-opacity="0.000" id="img-44c2020c-79">
    <g transform="translate(8.81,43.19)" id="img-44c2020c-80">
      <g class="primitive">
        <text text-anchor="middle" dy="0.35em" transform="rotate(-90,0, 2)">Density</text>
      </g>
    </g>
  </g>
</g>
<defs>
  <clipPath id="img-44c2020c-14">
    <path d="M12.61,5 L127.47,5 127.47,85.39 12.61,85.39 " />
  </clipPath>
  <clipPath id="img-44c2020c-21">
    <path d="M24.9,44.86 L125.47,44.86 125.47,80.72 24.9,80.72 " />
  </clipPath>
  <clipPath id="img-44c2020c-50">
    <path d="M24.9,7 L125.47,7 125.47,40.86 24.9,40.86 " />
  </clipPath>
</defs>
</svg>
