<?xml version="1.0" encoding="UTF-8"?>
<svg xmlns="http://www.w3.org/2000/svg"
     xmlns:xlink="http://www.w3.org/1999/xlink"
     xmlns:gadfly="http://www.gadflyjl.org/ns"
     version="1.2"
     width="141.42mm" height="100mm" viewBox="0 0 141.42 100"
     stroke="none"
     fill="#000000"
     stroke-width="0.3"
     font-size="3.88"
>
<defs>
  <marker id="arrow" markerWidth="15" markerHeight="7" refX="5" refY="3.5" orient="auto" markerUnits="strokeWidth">
    <path d="M0,0 L15,3.5 L0,7 z" stroke="context-stroke" fill="context-stroke"/>
  </marker>
</defs>
<g class="plotroot xscalable yscalable" id="img-08963f48-1">
  <g font-size="3.88" font-family="'PT Sans','Helvetica Neue','Helvetica',sans-serif" fill="#564A55" stroke="#000000" stroke-opacity="0.000" id="img-08963f48-2">
    <g transform="translate(70.04,88.39)">
      <g class="primitive">
        <text text-anchor="middle" dy="0.6em">value</text>
      </g>
    </g>
  </g>
  <g class="guide colorkey" id="img-08963f48-3">
    <g fill="#4C404B" font-size="2.82" font-family="'PT Sans','Helvetica Neue','Helvetica',sans-serif" id="img-08963f48-4">
      <g transform="translate(131.29,43.38)" id="img-08963f48-5" class="color_1">
        <g class="primitive">
          <text dy="0.35em">1</text>
        </g>
      </g>
      <g transform="translate(131.29,47.01)" id="img-08963f48-6" class="color_2">
        <g class="primitive">
          <text dy="0.35em">2</text>
        </g>
      </g>
      <g transform="translate(131.29,50.63)" id="img-08963f48-7" class="color_3">
        <g class="primitive">
          <text dy="0.35em">3</text>
        </g>
      </g>
    </g>
    <g fill-opacity="1" id="img-08963f48-8">
      <g transform="translate(129.38,43.38)" id="img-08963f48-9" class="color_1" fill="#00BFFF" stroke="#FFFFFF">
        <path d="M-0.91,-0.91 L0.91,-0.91 0.91,0.91 -0.91,0.91  z" class="primitive"/>
      </g>
      <g transform="translate(129.38,47.01)" id="img-08963f48-10" class="color_2" fill="#D4CA3A" stroke="#FFFFFF">
        <path d="M-0.91,-0.91 L0.91,-0.91 0.91,0.91 -0.91,0.91  z" class="primitive"/>
      </g>
      <g transform="translate(129.38,50.63)" id="img-08963f48-11" class="color_3" fill="#FF6DAE" stroke="#FFFFFF">
        <path d="M-0.91,-0.91 L0.91,-0.91 0.91,0.91 -0.91,0.91  z" class="primitive"/>
      </g>
    </g>
    <g fill="#362A35" font-size="3.88" font-family="'PT Sans','Helvetica Neue','Helvetica',sans-serif" stroke="#000000" stroke-opacity="0.000" id="img-08963f48-12">
      <g transform="translate(128.47,39.56)" id="img-08963f48-13">
        <g class="primitive">
          <text dy="-0em">chain</text>
        </g>
      </g>
    </g>
  </g>
  <g clip-path="url(#img-08963f48-14)">
    <g id="img-08963f48-15">
      <g class="plotpanel" id="img-08963f48-16">
        <metadata>
          <boundingbox value="12.611666666666665mm 5.0mm 114.86302290397617mm 80.38833333333334mm"/>
          <unitbox value="0.0 0.0 1.0 1.0"/>
        </metadata>
        <g class="guide xlabels" font-size="2.82" font-family="'PT Sans Caption','Helvetica Neue','Helvetica',sans-serif" fill="#6C606B" id="img-08963f48-17">
          <g transform="translate(26.9,81.72)" id="img-08963f48-18">
            <g class="primitive">
              <text text-anchor="middle" dy="0.6em">-5</text>
            </g>
          </g>
          <g transform="translate(75.19,81.72)" id="img-08963f48-19">
            <g class="primitive">
              <text text-anchor="middle" dy="0.6em">0</text>
            </g>
          </g>
          <g transform="translate(123.47,81.72)" id="img-08963f48-20">
            <g class="primitive">
              <text text-anchor="middle" dy="0.6em">5</text>
            </g>
          </g>
        </g>
        <g clip-path="url(#img-08963f48-21)">
          <g id="img-08963f48-22">
            <g pointer-events="visible" stroke-width="0.3" fill="#000000" fill-opacity="0.000" stroke="#000000" stroke-opacity="0.000" class="guide background" id="img-08963f48-23">
              <g transform="translate(75.19,62.79)" id="img-08963f48-24">
                <path d="M-50.28,-17.93 L50.28,-17.93 50.28,17.93 -50.28,17.93  z" class="primitive"/>
              </g>
            </g>
            <g class="guide ygridlines xfixed" stroke-dasharray="0.5,0.5" stroke-width="0.2" stroke="#D0D0E0" id="img-08963f48-25">
              <g transform="translate(75.19,78.72)" id="img-08963f48-26">
                <path fill="none" d="M-50.28,0 L50.28,0 " class="primitive"/>
              </g>
              <g transform="translate(75.19,72.34)" id="img-08963f48-27">
                <path fill="none" d="M-50.28,0 L50.28,0 " class="primitive"/>
              </g>
              <g transform="translate(75.19,65.97)" id="img-08963f48-28">
                <path fill="none" d="M-50.28,0 L50.28,0 " class="primitive"/>
              </g>
              <g transform="translate(75.19,59.6)" id="img-08963f48-29">
                <path fill="none" d="M-50.28,0 L50.28,0 " class="primitive"/>
              </g>
              <g transform="translate(75.19,53.23)" id="img-08963f48-30">
                <path fill="none" d="M-50.28,0 L50.28,0 " class="primitive"/>
              </g>
              <g transform="translate(75.19,46.86)" id="img-08963f48-31">
                <path fill="none" d="M-50.28,0 L50.28,0 " class="primitive"/>
              </g>
            </g>
            <g class="guide xgridlines yfixed" stroke-dasharray="0.5,0.5" stroke-width="0.2" stroke="#D0D0E0" id="img-08963f48-32">
              <g transform="translate(26.9,62.79)" id="img-08963f48-33">
                <path fill="none" d="M0,-17.93 L0,17.93 " class="primitive"/>
              </g>
              <g transform="translate(75.19,62.79)" id="img-08963f48-34">
                <path fill="none" d="M0,-17.93 L0,17.93 " class="primitive"/>
              </g>
              <g transform="translate(123.47,62.79)" id="img-08963f48-35">
                <path fill="none" d="M0,-17.93 L0,17.93 " class="primitive"/>
              </g>
            </g>
            <g class="plotpanel" id="img-08963f48-36">
              <metadata>
                <boundingbox value="24.904999999999987mm 44.8575mm 100.56968957064285mm 35.8575mm"/>
                <unitbox value="-5.207104321127279 0.5313897826257553 10.414208642254557 -0.5627795652515106"/>
              </metadata>
              <g stroke-width="0.3" fill="#000000" fill-opacity="0.000" class="geometry" id="img-08963f48-37">
                <g transform="translate(72.85,71.15)" id="img-08963f48-38" stroke="#D4CA3A" stroke-dasharray="none" stroke-opacity="1" class="color_2">
                  <path fill="none" d="M-40.5,7.57 L-40.18,7.57 -39.87,7.57 -39.55,7.57 -39.23,7.57 -38.91,7.56 -38.6,7.56 -38.28,7.56 -37.96,7.56 -37.64,7.56 -37.32,7.56 -37.01,7.56 -36.69,7.55 -36.37,7.55 -36.05,7.54 -35.74,7.54 -35.42,7.53 -35.1,7.52 -34.78,7.51 -34.47,7.49 -34.15,7.47 -33.83,7.45 -33.51,7.43 -33.2,7.41 -32.88,7.38 -32.56,7.34 -32.24,7.31 -31.92,7.27 -31.61,7.23 -31.29,7.18 -30.97,7.14 -30.65,7.09 -30.34,7.04 -30.02,6.99 -29.7,6.94 -29.38,6.89 -29.07,6.85 -28.75,6.8 -28.43,6.75 -28.11,6.71 -27.8,6.67 -27.48,6.62 -27.16,6.57 -26.84,6.53 -26.52,6.47 -26.21,6.41 -25.89,6.35 -25.57,6.27 -25.25,6.18 -24.94,6.08 -24.62,5.97 -24.3,5.83 -23.98,5.68 -23.67,5.52 -23.35,5.34 -23.03,5.14 -22.71,4.93 -22.39,4.7 -22.08,4.47 -21.76,4.23 -21.44,3.98 -21.12,3.74 -20.81,3.5 -20.49,3.27 -20.17,3.05 -19.85,2.84 -19.54,2.65 -19.22,2.48 -18.9,2.32 -18.58,2.19 -18.27,2.08 -17.95,1.99 -17.63,1.92 -17.31,1.86 -16.99,1.82 -16.68,1.79 -16.36,1.77 -16.04,1.75 -15.72,1.74 -15.41,1.73 -15.09,1.71 -14.77,1.7 -14.45,1.67 -14.14,1.64 -13.82,1.61 -13.5,1.57 -13.18,1.52 -12.87,1.46 -12.55,1.41 -12.23,1.34 -11.91,1.27 -11.59,1.19 -11.28,1.11 -10.96,1.02 -10.64,0.92 -10.32,0.81 -10.01,0.68 -9.69,0.53 -9.37,0.37 -9.05,0.18 -8.74,-0.04 -8.42,-0.29 -8.1,-0.58 -7.78,-0.9 -7.46,-1.26 -7.15,-1.66 -6.83,-2.1 -6.51,-2.58 -6.19,-3.09 -5.88,-3.65 -5.56,-4.23 -5.24,-4.85 -4.92,-5.49 -4.61,-6.16 -4.29,-6.84 -3.97,-7.55 -3.65,-8.26 -3.34,-8.98 -3.02,-9.7 -2.7,-10.43 -2.38,-11.16 -2.06,-11.88 -1.75,-12.59 -1.43,-13.29 -1.11,-13.98 -0.79,-14.65 -0.48,-15.31 -0.16,-15.93 0.16,-16.53 0.48,-17.09 0.79,-17.6 1.11,-18.07 1.43,-18.49 1.75,-18.85 2.06,-19.14 2.38,-19.36 2.7,-19.5 3.02,-19.57 3.34,-19.57 3.65,-19.48 3.97,-19.32 4.29,-19.09 4.61,-18.79 4.92,-18.42 5.24,-18.01 5.56,-17.54 5.88,-17.04 6.19,-16.5 6.51,-15.94 6.83,-15.36 7.15,-14.77 7.46,-14.18 7.78,-13.59 8.1,-13.01 8.42,-12.44 8.74,-11.89 9.05,-11.35 9.37,-10.83 9.69,-10.32 10.01,-9.83 10.32,-9.37 10.64,-8.91 10.96,-8.48 11.28,-8.05 11.59,-7.64 11.91,-7.24 12.23,-6.86 12.55,-6.48 12.87,-6.11 13.18,-5.74 13.5,-5.38 13.82,-5.02 14.14,-4.67 14.45,-4.31 14.77,-3.96 15.09,-3.62 15.41,-3.27 15.72,-2.93 16.04,-2.59 16.36,-2.26 16.68,-1.93 16.99,-1.62 17.31,-1.31 17.63,-1.02 17.95,-0.73 18.27,-0.47 18.58,-0.22 18.9,0.02 19.22,0.24 19.54,0.44 19.85,0.63 20.17,0.8 20.49,0.96 20.81,1.11 21.12,1.26 21.44,1.4 21.76,1.54 22.08,1.68 22.39,1.82 22.71,1.97 23.03,2.12 23.35,2.28 23.67,2.46 23.98,2.64 24.3,2.83 24.62,3.03 24.94,3.24 25.25,3.45 25.57,3.67 25.89,3.9 26.21,4.13 26.52,4.36 26.84,4.59 27.16,4.81 27.48,5.03 27.8,5.25 28.11,5.45 28.43,5.65 28.75,5.84 29.07,6.02 29.38,6.19 29.7,6.34 30.02,6.49 30.34,6.62 30.65,6.74 30.97,6.85 31.29,6.95 31.61,7.04 31.92,7.12 32.24,7.19 32.56,7.25 32.88,7.31 33.2,7.35 33.51,7.39 33.83,7.42 34.15,7.45 34.47,7.47 34.78,7.49 35.1,7.51 35.42,7.52 35.74,7.53 36.05,7.54 36.37,7.55 36.69,7.55 37.01,7.55 37.32,7.56 37.64,7.56 37.96,7.56 38.28,7.56 38.6,7.56 38.91,7.56 39.23,7.57 39.55,7.57 39.87,7.57 40.18,7.57 40.5,7.57 " class="primitive"/>
                </g>
                <g transform="translate(79.29,70.15)" id="img-08963f48-39" stroke="#FF6DAE" stroke-dasharray="none" stroke-opacity="1" class="color_3">
                  <path fill="none" d="M-35.79,8.56 L-35.51,8.56 -35.23,8.56 -34.95,8.56 -34.67,8.56 -34.39,8.56 -34.11,8.56 -33.82,8.56 -33.54,8.56 -33.26,8.56 -32.98,8.55 -32.7,8.55 -32.42,8.55 -32.14,8.54 -31.86,8.53 -31.58,8.53 -31.3,8.51 -31.02,8.5 -30.74,8.49 -30.46,8.47 -30.18,8.44 -29.89,8.41 -29.61,8.38 -29.33,8.34 -29.05,8.29 -28.77,8.24 -28.49,8.18 -28.21,8.11 -27.93,8.03 -27.65,7.94 -27.37,7.84 -27.09,7.74 -26.81,7.62 -26.53,7.48 -26.25,7.34 -25.96,7.19 -25.68,7.02 -25.4,6.84 -25.12,6.65 -24.84,6.45 -24.56,6.24 -24.28,6.01 -24,5.77 -23.72,5.52 -23.44,5.26 -23.16,4.98 -22.88,4.7 -22.6,4.4 -22.32,4.09 -22.03,3.78 -21.75,3.45 -21.47,3.12 -21.19,2.79 -20.91,2.46 -20.63,2.12 -20.35,1.79 -20.07,1.46 -19.79,1.14 -19.51,0.83 -19.23,0.52 -18.95,0.23 -18.67,-0.06 -18.39,-0.33 -18.11,-0.6 -17.82,-0.87 -17.54,-1.13 -17.26,-1.4 -16.98,-1.67 -16.7,-1.96 -16.42,-2.27 -16.14,-2.6 -15.86,-2.96 -15.58,-3.35 -15.3,-3.78 -15.02,-4.25 -14.74,-4.76 -14.46,-5.31 -14.18,-5.89 -13.89,-6.52 -13.61,-7.18 -13.33,-7.86 -13.05,-8.56 -12.77,-9.28 -12.49,-10 -12.21,-10.72 -11.93,-11.42 -11.65,-12.11 -11.37,-12.76 -11.09,-13.39 -10.81,-13.97 -10.53,-14.5 -10.25,-14.99 -9.96,-15.42 -9.68,-15.79 -9.4,-16.12 -9.12,-16.38 -8.84,-16.6 -8.56,-16.76 -8.28,-16.88 -8,-16.96 -7.72,-16.99 -7.44,-17 -7.16,-16.97 -6.88,-16.93 -6.6,-16.86 -6.32,-16.78 -6.04,-16.7 -5.75,-16.61 -5.47,-16.52 -5.19,-16.43 -4.91,-16.35 -4.63,-16.28 -4.35,-16.21 -4.07,-16.16 -3.79,-16.12 -3.51,-16.09 -3.23,-16.06 -2.95,-16.04 -2.67,-16.02 -2.39,-16.01 -2.11,-15.99 -1.82,-15.97 -1.54,-15.93 -1.26,-15.88 -0.98,-15.82 -0.7,-15.73 -0.42,-15.63 -0.14,-15.5 0.14,-15.35 0.42,-15.17 0.7,-14.97 0.98,-14.74 1.26,-14.49 1.54,-14.21 1.82,-13.92 2.11,-13.61 2.39,-13.28 2.67,-12.93 2.95,-12.57 3.23,-12.2 3.51,-11.83 3.79,-11.44 4.07,-11.04 4.35,-10.64 4.63,-10.23 4.91,-9.81 5.19,-9.38 5.47,-8.94 5.75,-8.48 6.04,-8.01 6.32,-7.52 6.6,-7.01 6.88,-6.48 7.16,-5.93 7.44,-5.36 7.72,-4.76 8,-4.15 8.28,-3.51 8.56,-2.86 8.84,-2.19 9.12,-1.52 9.4,-0.84 9.68,-0.15 9.96,0.52 10.25,1.19 10.53,1.84 10.81,2.48 11.09,3.08 11.37,3.66 11.65,4.21 11.93,4.72 12.21,5.2 12.49,5.64 12.77,6.03 13.05,6.39 13.33,6.72 13.61,7 13.89,7.25 14.18,7.47 14.46,7.66 14.74,7.82 15.02,7.95 15.3,8.06 15.58,8.15 15.86,8.23 16.14,8.29 16.42,8.33 16.7,8.36 16.98,8.38 17.26,8.39 17.54,8.39 17.82,8.39 18.11,8.38 18.39,8.36 18.67,8.34 18.95,8.31 19.23,8.28 19.51,8.24 19.79,8.2 20.07,8.16 20.35,8.12 20.63,8.07 20.91,8.03 21.19,7.98 21.47,7.94 21.75,7.9 22.03,7.86 22.32,7.83 22.6,7.8 22.88,7.78 23.16,7.76 23.44,7.75 23.72,7.75 24,7.76 24.28,7.77 24.56,7.79 24.84,7.81 25.12,7.84 25.4,7.87 25.68,7.91 25.96,7.95 26.25,8 26.53,8.04 26.81,8.09 27.09,8.13 27.37,8.18 27.65,8.22 27.93,8.26 28.21,8.3 28.49,8.33 28.77,8.37 29.05,8.39 29.33,8.42 29.61,8.44 29.89,8.46 30.18,8.48 30.46,8.5 30.74,8.51 31.02,8.52 31.3,8.53 31.58,8.54 31.86,8.54 32.14,8.55 32.42,8.55 32.7,8.55 32.98,8.56 33.26,8.56 33.54,8.56 33.82,8.56 34.11,8.56 34.39,8.56 34.67,8.56 34.95,8.56 35.23,8.56 35.51,8.56 35.79,8.56 " class="primitive"/>
                </g>
                <g transform="translate(77.18,70.35)" id="img-08963f48-40" stroke="#00BFFF" stroke-dasharray="none" stroke-opacity="1" class="color_1">
                  <path fill="none" d="M-36.65,8.36 L-36.36,8.36 -36.07,8.36 -35.79,8.36 -35.5,8.36 -35.21,8.36 -34.93,8.36 -34.64,8.36 -34.35,8.36 -34.06,8.36 -33.78,8.35 -33.49,8.35 -33.2,8.35 -32.91,8.34 -32.63,8.34 -32.34,8.33 -32.05,8.32 -31.76,8.31 -31.48,8.3 -31.19,8.28 -30.9,8.26 -30.61,8.24 -30.33,8.21 -30.04,8.18 -29.75,8.14 -29.46,8.1 -29.18,8.05 -28.89,8 -28.6,7.94 -28.31,7.87 -28.03,7.8 -27.74,7.72 -27.45,7.63 -27.16,7.54 -26.88,7.44 -26.59,7.34 -26.3,7.23 -26.01,7.11 -25.73,6.99 -25.44,6.86 -25.15,6.74 -24.86,6.6 -24.58,6.47 -24.29,6.33 -24,6.18 -23.71,6.04 -23.43,5.88 -23.14,5.73 -22.85,5.57 -22.56,5.4 -22.28,5.22 -21.99,5.04 -21.7,4.85 -21.41,4.65 -21.13,4.45 -20.84,4.23 -20.55,4 -20.27,3.75 -19.98,3.5 -19.69,3.23 -19.4,2.95 -19.12,2.65 -18.83,2.33 -18.54,2 -18.25,1.66 -17.97,1.29 -17.68,0.91 -17.39,0.52 -17.1,0.11 -16.82,-0.32 -16.53,-0.76 -16.24,-1.22 -15.95,-1.68 -15.67,-2.16 -15.38,-2.65 -15.09,-3.14 -14.8,-3.63 -14.52,-4.13 -14.23,-4.63 -13.94,-5.13 -13.65,-5.62 -13.37,-6.1 -13.08,-6.58 -12.79,-7.05 -12.5,-7.51 -12.22,-7.97 -11.93,-8.41 -11.64,-8.85 -11.35,-9.27 -11.07,-9.7 -10.78,-10.11 -10.49,-10.53 -10.2,-10.93 -9.92,-11.34 -9.63,-11.74 -9.34,-12.14 -9.05,-12.54 -8.77,-12.92 -8.48,-13.3 -8.19,-13.68 -7.9,-14.03 -7.62,-14.37 -7.33,-14.7 -7.04,-15 -6.76,-15.28 -6.47,-15.53 -6.18,-15.75 -5.89,-15.95 -5.61,-16.12 -5.32,-16.26 -5.03,-16.37 -4.74,-16.47 -4.46,-16.54 -4.17,-16.6 -3.88,-16.64 -3.59,-16.68 -3.31,-16.71 -3.02,-16.73 -2.73,-16.75 -2.44,-16.77 -2.16,-16.79 -1.87,-16.8 -1.58,-16.8 -1.29,-16.8 -1.01,-16.78 -0.72,-16.73 -0.43,-16.66 -0.14,-16.56 0.14,-16.43 0.43,-16.25 0.72,-16.03 1.01,-15.76 1.29,-15.44 1.58,-15.08 1.87,-14.67 2.16,-14.21 2.44,-13.72 2.73,-13.2 3.02,-12.65 3.31,-12.08 3.59,-11.5 3.88,-10.91 4.17,-10.32 4.46,-9.75 4.74,-9.19 5.03,-8.64 5.32,-8.12 5.61,-7.63 5.89,-7.17 6.18,-6.74 6.47,-6.33 6.76,-5.96 7.04,-5.61 7.33,-5.3 7.62,-5 7.9,-4.72 8.19,-4.46 8.48,-4.22 8.77,-3.98 9.05,-3.74 9.34,-3.51 9.63,-3.27 9.92,-3.03 10.2,-2.78 10.49,-2.51 10.78,-2.23 11.07,-1.93 11.35,-1.62 11.64,-1.29 11.93,-0.93 12.22,-0.57 12.5,-0.18 12.79,0.21 13.08,0.62 13.37,1.04 13.65,1.46 13.94,1.89 14.23,2.31 14.52,2.73 14.8,3.13 15.09,3.53 15.38,3.9 15.67,4.27 15.95,4.61 16.24,4.93 16.53,5.23 16.82,5.5 17.1,5.75 17.39,5.98 17.68,6.19 17.97,6.38 18.25,6.55 18.54,6.7 18.83,6.83 19.12,6.94 19.4,7.04 19.69,7.13 19.98,7.2 20.27,7.26 20.55,7.31 20.84,7.35 21.13,7.38 21.41,7.4 21.7,7.42 21.99,7.43 22.28,7.43 22.56,7.44 22.85,7.44 23.14,7.45 23.43,7.45 23.71,7.46 24,7.46 24.29,7.48 24.58,7.49 24.86,7.51 25.15,7.54 25.44,7.57 25.73,7.6 26.01,7.64 26.3,7.68 26.59,7.72 26.88,7.77 27.16,7.82 27.45,7.86 27.74,7.91 28.03,7.96 28.31,8 28.6,8.04 28.89,8.08 29.18,8.12 29.46,8.15 29.75,8.18 30.04,8.21 30.33,8.24 30.61,8.26 30.9,8.28 31.19,8.29 31.48,8.31 31.76,8.32 32.05,8.33 32.34,8.33 32.63,8.34 32.91,8.34 33.2,8.35 33.49,8.35 33.78,8.35 34.06,8.36 34.35,8.36 34.64,8.36 34.93,8.36 35.21,8.36 35.5,8.36 35.79,8.36 36.07,8.36 36.36,8.36 36.65,8.36 " class="primitive"/>
                </g>
              </g>
            </g>
          </g>
        </g>
        <g class="guide ylabels" font-size="2.82" font-family="'PT Sans Caption','Helvetica Neue','Helvetica',sans-serif" fill="#6C606B" id="img-08963f48-41">
          <g transform="translate(23.9,78.72)" id="img-08963f48-42">
            <g class="primitive">
              <text text-anchor="end" dy="0.35em">0.0</text>
            </g>
          </g>
          <g transform="translate(23.9,72.34)" id="img-08963f48-43">
            <g class="primitive">
              <text text-anchor="end" dy="0.35em">0.1</text>
            </g>
          </g>
          <g transform="translate(23.9,65.97)" id="img-08963f48-44">
            <g class="primitive">
              <text text-anchor="end" dy="0.35em">0.2</text>
            </g>
          </g>
          <g transform="translate(23.9,59.6)" id="img-08963f48-45">
            <g class="primitive">
              <text text-anchor="end" dy="0.35em">0.3</text>
            </g>
          </g>
          <g transform="translate(23.9,53.23)" id="img-08963f48-46">
            <g class="primitive">
              <text text-anchor="end" dy="0.35em">0.4</text>
            </g>
          </g>
          <g transform="translate(23.9,46.86)" id="img-08963f48-47">
            <g class="primitive">
              <text text-anchor="end" dy="0.35em">0.5</text>
            </g>
          </g>
        </g>
        <g font-size="3.88" font-family="'PT Sans','Helvetica Neue','Helvetica',sans-serif" fill="#564A55" stroke="#000000" stroke-opacity="0.000" id="img-08963f48-48">
          <g transform="translate(16.88,62.79)" id="img-08963f48-49">
            <g class="primitive">
              <text text-anchor="end" dy="0.35em">B</text>
            </g>
          </g>
        </g>
        <g clip-path="url(#img-08963f48-50)">
          <g id="img-08963f48-51">
            <g pointer-events="visible" stroke-width="0.3" fill="#000000" fill-opacity="0.000" stroke="#000000" stroke-opacity="0.000" class="guide background" id="img-08963f48-52">
              <g transform="translate(75.19,23.93)" id="img-08963f48-53">
                <path d="M-50.28,-16.93 L50.28,-16.93 50.28,16.93 -50.28,16.93  z" class="primitive"/>
              </g>
            </g>
            <g class="guide ygridlines xfixed" stroke-dasharray="0.5,0.5" stroke-width="0.2" stroke="#D0D0E0" id="img-08963f48-54">
              <g transform="translate(75.19,38.86)" id="img-08963f48-55">
                <path fill="none" d="M-50.28,0 L50.28,0 " class="primitive"/>
              </g>
              <g transform="translate(75.19,32.89)" id="img-08963f48-56">
                <path fill="none" d="M-50.28,0 L50.28,0 " class="primitive"/>
              </g>
              <g transform="translate(75.19,26.91)" id="img-08963f48-57">
                <path fill="none" d="M-50.28,0 L50.28,0 " class="primitive"/>
              </g>
              <g transform="translate(75.19,20.94)" id="img-08963f48-58">
                <path fill="none" d="M-50.28,0 L50.28,0 " class="primitive"/>
              </g>
              <g transform="translate(75.19,14.97)" id="img-08963f48-59">
                <path fill="none" d="M-50.28,0 L50.28,0 " class="primitive"/>
              </g>
              <g transform="translate(75.19,9)" id="img-08963f48-60">
                <path fill="none" d="M-50.28,0 L50.28,0 " class="primitive"/>
              </g>
            </g>
            <g class="guide xgridlines yfixed" stroke-dasharray="0.5,0.5" stroke-width="0.2" stroke="#D0D0E0" id="img-08963f48-61">
              <g transform="translate(26.9,23.93)" id="img-08963f48-62">
                <path fill="none" d="M0,-16.93 L0,16.93 " class="primitive"/>
              </g>
              <g transform="translate(75.19,23.93)" id="img-08963f48-63">
                <path fill="none" d="M0,-16.93 L0,16.93 " class="primitive"/>
              </g>
              <g transform="translate(123.47,23.93)" id="img-08963f48-64">
                <path fill="none" d="M0,-16.93 L0,16.93 " class="primitive"/>
              </g>
            </g>
            <g class="plotpanel" id="img-08963f48-65">
              <metadata>
                <boundingbox value="24.904999999999987mm 7.0mm 100.56968957064285mm 33.8575mm"/>
                <unitbox value="-5.207104321127279 0.5334924223394457 10.414208642254557 -0.5669848446788914"/>
              </metadata>
              <g stroke-width="0.3" fill="#000000" fill-opacity="0.000" class="geometry" id="img-08963f48-66">
                <g transform="translate(76.03,32.18)" id="img-08963f48-67" stroke="#D4CA3A" stroke-dasharray="none" stroke-opacity="1" class="color_2">
                  <path fill="none" d="M-43.03,6.67 L-42.69,6.67 -42.36,6.67 -42.02,6.67 -41.68,6.67 -41.34,6.67 -41.01,6.67 -40.67,6.67 -40.33,6.67 -39.99,6.67 -39.66,6.66 -39.32,6.66 -38.98,6.66 -38.64,6.65 -38.31,6.64 -37.97,6.63 -37.63,6.62 -37.29,6.61 -36.96,6.59 -36.62,6.57 -36.28,6.55 -35.94,6.52 -35.61,6.49 -35.27,6.45 -34.93,6.41 -34.59,6.36 -34.26,6.31 -33.92,6.25 -33.58,6.19 -33.24,6.13 -32.91,6.06 -32.57,5.99 -32.23,5.92 -31.89,5.84 -31.56,5.76 -31.22,5.68 -30.88,5.6 -30.54,5.52 -30.21,5.43 -29.87,5.35 -29.53,5.26 -29.19,5.17 -28.86,5.08 -28.52,4.99 -28.18,4.9 -27.84,4.8 -27.51,4.7 -27.17,4.6 -26.83,4.5 -26.49,4.39 -26.16,4.27 -25.82,4.16 -25.48,4.03 -25.14,3.9 -24.81,3.75 -24.47,3.6 -24.13,3.43 -23.79,3.25 -23.46,3.05 -23.12,2.84 -22.78,2.61 -22.44,2.37 -22.11,2.11 -21.77,1.84 -21.43,1.55 -21.09,1.26 -20.76,0.96 -20.42,0.66 -20.08,0.36 -19.74,0.07 -19.41,-0.2 -19.07,-0.47 -18.73,-0.71 -18.39,-0.93 -18.06,-1.13 -17.72,-1.3 -17.38,-1.45 -17.04,-1.57 -16.71,-1.67 -16.37,-1.75 -16.03,-1.82 -15.69,-1.87 -15.36,-1.92 -15.02,-1.98 -14.68,-2.04 -14.34,-2.12 -14.01,-2.22 -13.67,-2.35 -13.33,-2.52 -12.99,-2.72 -12.66,-2.98 -12.32,-3.28 -11.98,-3.63 -11.64,-4.03 -11.31,-4.49 -10.97,-4.99 -10.63,-5.53 -10.29,-6.12 -9.96,-6.75 -9.62,-7.4 -9.28,-8.07 -8.94,-8.75 -8.61,-9.44 -8.27,-10.13 -7.93,-10.81 -7.59,-11.47 -7.26,-12.11 -6.92,-12.72 -6.58,-13.3 -6.24,-13.84 -5.91,-14.35 -5.57,-14.82 -5.23,-15.25 -4.89,-15.64 -4.56,-16 -4.22,-16.32 -3.88,-16.6 -3.54,-16.85 -3.21,-17.06 -2.87,-17.24 -2.53,-17.38 -2.19,-17.48 -1.86,-17.55 -1.52,-17.58 -1.18,-17.57 -0.84,-17.52 -0.51,-17.43 -0.17,-17.3 0.17,-17.13 0.51,-16.92 0.84,-16.68 1.18,-16.41 1.52,-16.11 1.86,-15.78 2.19,-15.42 2.53,-15.04 2.87,-14.64 3.21,-14.21 3.54,-13.77 3.88,-13.3 4.22,-12.81 4.56,-12.31 4.89,-11.78 5.23,-11.23 5.57,-10.66 5.91,-10.07 6.24,-9.47 6.58,-8.85 6.92,-8.21 7.26,-7.57 7.59,-6.92 7.93,-6.27 8.27,-5.63 8.61,-4.99 8.94,-4.37 9.28,-3.78 9.62,-3.2 9.96,-2.66 10.29,-2.14 10.63,-1.67 10.97,-1.22 11.31,-0.82 11.64,-0.45 11.98,-0.12 12.32,0.17 12.66,0.44 12.99,0.68 13.33,0.89 13.67,1.08 14.01,1.26 14.34,1.43 14.68,1.59 15.02,1.75 15.36,1.91 15.69,2.08 16.03,2.25 16.37,2.43 16.71,2.62 17.04,2.81 17.38,3.01 17.72,3.22 18.06,3.43 18.39,3.64 18.73,3.85 19.07,4.05 19.41,4.24 19.74,4.43 20.08,4.6 20.42,4.76 20.76,4.9 21.09,5.04 21.43,5.15 21.77,5.26 22.11,5.35 22.44,5.44 22.78,5.51 23.12,5.58 23.46,5.63 23.79,5.68 24.13,5.73 24.47,5.77 24.81,5.8 25.14,5.83 25.48,5.86 25.82,5.88 26.16,5.89 26.49,5.9 26.83,5.91 27.17,5.91 27.51,5.91 27.84,5.9 28.18,5.9 28.52,5.89 28.86,5.89 29.19,5.88 29.53,5.88 29.87,5.89 30.21,5.9 30.54,5.91 30.88,5.93 31.22,5.96 31.56,5.99 31.89,6.03 32.23,6.07 32.57,6.11 32.91,6.16 33.24,6.2 33.58,6.25 33.92,6.3 34.26,6.34 34.59,6.39 34.93,6.43 35.27,6.46 35.61,6.5 35.94,6.53 36.28,6.55 36.62,6.57 36.96,6.59 37.29,6.61 37.63,6.62 37.97,6.64 38.31,6.64 38.64,6.65 38.98,6.66 39.32,6.66 39.66,6.66 39.99,6.67 40.33,6.67 40.67,6.67 41.01,6.67 41.34,6.67 41.68,6.67 42.02,6.67 42.36,6.67 42.69,6.67 43.03,6.67 " class="primitive"/>
                </g>
                <g transform="translate(72.51,31.98)" id="img-08963f48-68" stroke="#FF6DAE" stroke-dasharray="none" stroke-opacity="1" class="color_3">
                  <path fill="none" d="M-41.78,6.87 L-41.45,6.87 -41.13,6.87 -40.8,6.87 -40.47,6.87 -40.14,6.87 -39.82,6.87 -39.49,6.87 -39.16,6.87 -38.83,6.87 -38.51,6.87 -38.18,6.86 -37.85,6.86 -37.52,6.85 -37.19,6.85 -36.87,6.84 -36.54,6.83 -36.21,6.82 -35.88,6.8 -35.56,6.79 -35.23,6.77 -34.9,6.75 -34.57,6.72 -34.25,6.69 -33.92,6.66 -33.59,6.62 -33.26,6.58 -32.93,6.54 -32.61,6.5 -32.28,6.46 -31.95,6.41 -31.62,6.37 -31.3,6.33 -30.97,6.29 -30.64,6.25 -30.31,6.22 -29.98,6.19 -29.66,6.17 -29.33,6.16 -29,6.16 -28.67,6.16 -28.35,6.17 -28.02,6.19 -27.69,6.21 -27.36,6.24 -27.04,6.27 -26.71,6.31 -26.38,6.35 -26.05,6.39 -25.72,6.44 -25.4,6.48 -25.07,6.52 -24.74,6.56 -24.41,6.6 -24.09,6.63 -23.76,6.66 -23.43,6.68 -23.1,6.7 -22.78,6.71 -22.45,6.72 -22.12,6.72 -21.79,6.71 -21.46,6.69 -21.14,6.67 -20.81,6.63 -20.48,6.59 -20.15,6.53 -19.83,6.46 -19.5,6.38 -19.17,6.29 -18.84,6.18 -18.52,6.05 -18.19,5.91 -17.86,5.75 -17.53,5.57 -17.2,5.37 -16.88,5.16 -16.55,4.92 -16.22,4.66 -15.89,4.38 -15.57,4.08 -15.24,3.76 -14.91,3.41 -14.58,3.05 -14.26,2.65 -13.93,2.24 -13.6,1.8 -13.27,1.33 -12.94,0.84 -12.62,0.32 -12.29,-0.22 -11.96,-0.78 -11.63,-1.37 -11.31,-1.97 -10.98,-2.59 -10.65,-3.22 -10.32,-3.85 -9.99,-4.48 -9.67,-5.11 -9.34,-5.72 -9.01,-6.32 -8.68,-6.89 -8.36,-7.43 -8.03,-7.95 -7.7,-8.42 -7.37,-8.87 -7.05,-9.27 -6.72,-9.64 -6.39,-9.98 -6.06,-10.29 -5.73,-10.57 -5.41,-10.83 -5.08,-11.09 -4.75,-11.33 -4.42,-11.57 -4.1,-11.82 -3.77,-12.08 -3.44,-12.36 -3.11,-12.65 -2.79,-12.97 -2.46,-13.31 -2.13,-13.67 -1.8,-14.05 -1.47,-14.45 -1.15,-14.87 -0.82,-15.29 -0.49,-15.72 -0.16,-16.14 0.16,-16.55 0.49,-16.95 0.82,-17.31 1.15,-17.65 1.47,-17.94 1.8,-18.19 2.13,-18.4 2.46,-18.54 2.79,-18.64 3.11,-18.67 3.44,-18.65 3.77,-18.57 4.1,-18.44 4.42,-18.25 4.75,-18.02 5.08,-17.73 5.41,-17.4 5.73,-17.04 6.06,-16.63 6.39,-16.2 6.72,-15.74 7.05,-15.25 7.37,-14.75 7.7,-14.23 8.03,-13.69 8.36,-13.15 8.68,-12.59 9.01,-12.03 9.34,-11.46 9.67,-10.9 9.99,-10.32 10.32,-9.75 10.65,-9.18 10.98,-8.6 11.31,-8.03 11.63,-7.46 11.96,-6.89 12.29,-6.32 12.62,-5.75 12.94,-5.19 13.27,-4.64 13.6,-4.09 13.93,-3.56 14.26,-3.03 14.58,-2.52 14.91,-2.04 15.24,-1.57 15.57,-1.13 15.89,-0.71 16.22,-0.33 16.55,0.03 16.88,0.35 17.2,0.64 17.53,0.9 17.86,1.14 18.19,1.35 18.52,1.53 18.84,1.7 19.17,1.86 19.5,2.02 19.83,2.17 20.15,2.32 20.48,2.47 20.81,2.64 21.14,2.81 21.46,2.99 21.79,3.19 22.12,3.39 22.45,3.6 22.78,3.81 23.1,4.03 23.43,4.24 23.76,4.45 24.09,4.65 24.41,4.83 24.74,5.01 25.07,5.17 25.4,5.31 25.72,5.44 26.05,5.55 26.38,5.64 26.71,5.72 27.04,5.79 27.36,5.84 27.69,5.89 28.02,5.93 28.35,5.97 28.67,6 29,6.04 29.33,6.07 29.66,6.1 29.98,6.14 30.31,6.18 30.64,6.22 30.97,6.27 31.3,6.31 31.62,6.36 31.95,6.4 32.28,6.45 32.61,6.5 32.93,6.54 33.26,6.58 33.59,6.62 33.92,6.66 34.25,6.69 34.57,6.72 34.9,6.75 35.23,6.77 35.56,6.79 35.88,6.8 36.21,6.82 36.54,6.83 36.87,6.84 37.19,6.85 37.52,6.85 37.85,6.86 38.18,6.86 38.51,6.87 38.83,6.87 39.16,6.87 39.49,6.87 39.82,6.87 40.14,6.87 40.47,6.87 40.8,6.87 41.13,6.87 41.45,6.87 41.78,6.87 " class="primitive"/>
                </g>
                <g transform="translate(75.48,30.59)" id="img-08963f48-69" stroke="#00BFFF" stroke-dasharray="none" stroke-opacity="1" class="color_1">
                  <path fill="none" d="M-34.74,8.27 L-34.47,8.27 -34.19,8.27 -33.92,8.27 -33.65,8.27 -33.38,8.27 -33.1,8.27 -32.83,8.27 -32.56,8.26 -32.29,8.26 -32.01,8.26 -31.74,8.26 -31.47,8.26 -31.2,8.26 -30.92,8.25 -30.65,8.25 -30.38,8.24 -30.11,8.24 -29.83,8.23 -29.56,8.22 -29.29,8.21 -29.02,8.2 -28.74,8.19 -28.47,8.17 -28.2,8.15 -27.93,8.13 -27.65,8.11 -27.38,8.08 -27.11,8.06 -26.84,8.03 -26.56,7.99 -26.29,7.96 -26.02,7.92 -25.75,7.88 -25.48,7.84 -25.2,7.8 -24.93,7.76 -24.66,7.72 -24.39,7.68 -24.11,7.64 -23.84,7.6 -23.57,7.56 -23.3,7.52 -23.02,7.48 -22.75,7.45 -22.48,7.41 -22.21,7.38 -21.93,7.34 -21.66,7.3 -21.39,7.26 -21.12,7.21 -20.84,7.16 -20.57,7.1 -20.3,7.04 -20.03,6.96 -19.75,6.87 -19.48,6.77 -19.21,6.65 -18.94,6.52 -18.66,6.38 -18.39,6.21 -18.12,6.03 -17.85,5.84 -17.57,5.63 -17.3,5.4 -17.03,5.16 -16.76,4.91 -16.48,4.65 -16.21,4.37 -15.94,4.08 -15.67,3.79 -15.39,3.49 -15.12,3.18 -14.85,2.87 -14.58,2.55 -14.3,2.23 -14.03,1.9 -13.76,1.56 -13.49,1.22 -13.21,0.86 -12.94,0.5 -12.67,0.14 -12.4,-0.24 -12.12,-0.63 -11.85,-1.03 -11.58,-1.44 -11.31,-1.87 -11.03,-2.3 -10.76,-2.74 -10.49,-3.19 -10.22,-3.64 -9.94,-4.1 -9.67,-4.56 -9.4,-5.03 -9.13,-5.49 -8.85,-5.95 -8.58,-6.4 -8.31,-6.85 -8.04,-7.29 -7.77,-7.72 -7.49,-8.15 -7.22,-8.57 -6.95,-8.97 -6.68,-9.37 -6.4,-9.77 -6.13,-10.16 -5.86,-10.54 -5.59,-10.91 -5.31,-11.28 -5.04,-11.65 -4.77,-12 -4.5,-12.35 -4.22,-12.7 -3.95,-13.03 -3.68,-13.35 -3.41,-13.65 -3.13,-13.94 -2.86,-14.2 -2.59,-14.45 -2.32,-14.67 -2.04,-14.86 -1.77,-15.03 -1.5,-15.16 -1.23,-15.26 -0.95,-15.33 -0.68,-15.37 -0.41,-15.38 -0.14,-15.36 0.14,-15.32 0.41,-15.25 0.68,-15.16 0.95,-15.04 1.23,-14.92 1.5,-14.78 1.77,-14.63 2.04,-14.48 2.32,-14.32 2.59,-14.17 2.86,-14.01 3.13,-13.85 3.41,-13.7 3.68,-13.55 3.95,-13.4 4.22,-13.25 4.5,-13.1 4.77,-12.95 5.04,-12.8 5.31,-12.64 5.59,-12.47 5.86,-12.28 6.13,-12.09 6.4,-11.88 6.68,-11.66 6.95,-11.42 7.22,-11.16 7.49,-10.89 7.77,-10.6 8.04,-10.3 8.31,-9.99 8.58,-9.67 8.85,-9.33 9.13,-9 9.4,-8.65 9.67,-8.31 9.94,-7.96 10.22,-7.61 10.49,-7.26 10.76,-6.91 11.03,-6.56 11.31,-6.2 11.58,-5.85 11.85,-5.5 12.12,-5.14 12.4,-4.77 12.67,-4.4 12.94,-4.03 13.21,-3.65 13.49,-3.26 13.76,-2.87 14.03,-2.47 14.3,-2.07 14.58,-1.67 14.85,-1.26 15.12,-0.86 15.39,-0.47 15.67,-0.07 15.94,0.31 16.21,0.68 16.48,1.03 16.76,1.37 17.03,1.69 17.3,1.99 17.57,2.27 17.85,2.53 18.12,2.77 18.39,2.99 18.66,3.19 18.94,3.38 19.21,3.55 19.48,3.7 19.75,3.85 20.03,3.99 20.3,4.12 20.57,4.26 20.84,4.39 21.12,4.52 21.39,4.65 21.66,4.79 21.93,4.94 22.21,5.09 22.48,5.24 22.75,5.4 23.02,5.57 23.3,5.73 23.57,5.91 23.84,6.08 24.11,6.25 24.39,6.42 24.66,6.58 24.93,6.74 25.2,6.9 25.48,7.04 25.75,7.18 26.02,7.31 26.29,7.43 26.56,7.54 26.84,7.64 27.11,7.73 27.38,7.81 27.65,7.88 27.93,7.94 28.2,7.99 28.47,8.04 28.74,8.08 29.02,8.12 29.29,8.14 29.56,8.17 29.83,8.19 30.11,8.2 30.38,8.22 30.65,8.23 30.92,8.24 31.2,8.24 31.47,8.25 31.74,8.25 32.01,8.26 32.29,8.26 32.56,8.26 32.83,8.26 33.1,8.26 33.38,8.27 33.65,8.27 33.92,8.27 34.19,8.27 34.47,8.27 34.74,8.27 " class="primitive"/>
                </g>
              </g>
            </g>
          </g>
        </g>
        <g class="guide ylabels" font-size="2.82" font-family="'PT Sans Caption','Helvetica Neue','Helvetica',sans-serif" fill="#6C606B" id="img-08963f48-70">
          <g transform="translate(23.9,38.86)" id="img-08963f48-71">
            <g class="primitive">
              <text text-anchor="end" dy="0.35em">0.0</text>
            </g>
          </g>
          <g transform="translate(23.9,32.89)" id="img-08963f48-72">
            <g class="primitive">
              <text text-anchor="end" dy="0.35em">0.1</text>
            </g>
          </g>
          <g transform="translate(23.9,26.91)" id="img-08963f48-73">
            <g class="primitive">
              <text text-anchor="end" dy="0.35em">0.2</text>
            </g>
          </g>
          <g transform="translate(23.9,20.94)" id="img-08963f48-74">
            <g class="primitive">
              <text text-anchor="end" dy="0.35em">0.3</text>
            </g>
          </g>
          <g transform="translate(23.9,14.97)" id="img-08963f48-75">
            <g class="primitive">
              <text text-anchor="end" dy="0.35em">0.4</text>
            </g>
          </g>
          <g transform="translate(23.9,9)" id="img-08963f48-76">
            <g class="primitive">
              <text text-anchor="end" dy="0.35em">0.5</text>
            </g>
          </g>
        </g>
        <g font-size="3.88" font-family="'PT Sans','Helvetica Neue','Helvetica',sans-serif" fill="#564A55" stroke="#000000" stroke-opacity="0.000" id="img-08963f48-77">
          <g transform="translate(16.88,23.93)" id="img-08963f48-78">
            <g class="primitive">
              <text text-anchor="end" dy="0.35em">A</text>
            </g>
          </g>
        </g>
      </g>
    </g>
  </g>
  <g font-size="3.88" font-family="'PT Sans','Helvetica Neue','Helvetica',sans-serif" fill="#564A55" stroke="#000000" stroke-opacity="0.000" id="img-08963f48-79">
    <g transform="translate(8.81,43.19)" id="img-08963f48-80">
      <g class="primitive">
        <text text-anchor="middle" dy="0.35em" transform="rotate(-90,0, 2)">Density</text>
      </g>
    </g>
  </g>
</g>
<defs>
  <clipPath id="img-08963f48-14">
    <path d="M12.61,5 L127.47,5 127.47,85.39 12.61,85.39 " />
  </clipPath>
  <clipPath id="img-08963f48-21">
    <path d="M24.9,44.86 L125.47,44.86 125.47,80.72 24.9,80.72 " />
  </clipPath>
  <clipPath id="img-08963f48-50">
    <path d="M24.9,7 L125.47,7 125.47,40.86 24.9,40.86 " />
  </clipPath>
</defs>
</svg>
