<?xml version="1.0" encoding="UTF-8"?>
<svg xmlns="http://www.w3.org/2000/svg"
     xmlns:xlink="http://www.w3.org/1999/xlink"
     xmlns:gadfly="http://www.gadflyjl.org/ns"
     version="1.2"
     width="141.42mm" height="100mm" viewBox="0 0 141.42 100"
     stroke="none"
     fill="#000000"
     stroke-width="0.3"
     font-size="3.88"
>
<defs>
  <marker id="arrow" markerWidth="15" markerHeight="7" refX="5" refY="3.5" orient="auto" markerUnits="strokeWidth">
    <path d="M0,0 L15,3.5 L0,7 z" stroke="context-stroke" fill="context-stroke"/>
  </marker>
</defs>
<g class="plotroot xscalable yscalable" id="img-d4479b2a-1">
  <g font-size="3.88" font-family="'PT Sans','Helvetica Neue','Helvetica',sans-serif" fill="#564A55" stroke="#000000" stroke-opacity="0.000" id="img-d4479b2a-2">
    <g transform="translate(74.52,88.39)">
      <g class="primitive">
        <text text-anchor="middle" dy="0.6em">Parameter</text>
      </g>
    </g>
  </g>
  <g clip-path="url(#img-d4479b2a-3)">
    <g id="img-d4479b2a-4">
      <g class="plotpanel" id="img-d4479b2a-5">
        <metadata>
          <boundingbox value="12.611666666666665mm 5.0mm 123.80968957064285mm 80.38833333333332mm"/>
          <unitbox value="0.0 0.0 1.0 1.0"/>
        </metadata>
        <g font-size="3.88" font-family="'PT Sans','Helvetica Neue','Helvetica',sans-serif" fill="#564A55" stroke="#000000" stroke-opacity="0.000" id="img-d4479b2a-6">
          <g transform="translate(108.5,78.78)" id="img-d4479b2a-7">
            <g class="primitive">
              <text text-anchor="middle" dy="0.6em">B</text>
            </g>
          </g>
        </g>
        <g font-size="3.88" font-family="'PT Sans','Helvetica Neue','Helvetica',sans-serif" fill="#564A55" stroke="#000000" stroke-opacity="0.000" id="img-d4479b2a-8">
          <g transform="translate(51.67,78.78)" id="img-d4479b2a-9">
            <g class="primitive">
              <text text-anchor="middle" dy="0.6em">A</text>
            </g>
          </g>
        </g>
        <g class="guide xlabels" font-size="2.82" font-family="'PT Sans Caption','Helvetica Neue','Helvetica',sans-serif" fill="#6C606B" id="img-d4479b2a-10">
          <g transform="translate(84.59,72.1)" id="img-d4479b2a-11">
            <g class="primitive">
              <text text-anchor="middle" dy="0.6em">-5</text>
            </g>
          </g>
          <g transform="translate(108.5,72.1)" id="img-d4479b2a-12">
            <g class="primitive">
              <text text-anchor="middle" dy="0.6em">0</text>
            </g>
          </g>
          <g transform="translate(132.42,72.1)" id="img-d4479b2a-13">
            <g class="primitive">
              <text text-anchor="middle" dy="0.6em">5</text>
            </g>
          </g>
        </g>
        <g class="guide xlabels" font-size="2.82" font-family="'PT Sans Caption','Helvetica Neue','Helvetica',sans-serif" fill="#6C606B" id="img-d4479b2a-14">
          <g transform="translate(26.75,72.1)" id="img-d4479b2a-15">
            <g class="primitive">
              <text text-anchor="middle" dy="0.6em">-5</text>
            </g>
          </g>
          <g transform="translate(51.67,72.1)" id="img-d4479b2a-16">
            <g class="primitive">
              <text text-anchor="middle" dy="0.6em">0</text>
            </g>
          </g>
          <g transform="translate(76.59,72.1)" id="img-d4479b2a-17">
            <g class="primitive">
              <text text-anchor="middle" dy="0.6em">5</text>
            </g>
          </g>
        </g>
        <g clip-path="url(#img-d4479b2a-18)">
          <g id="img-d4479b2a-19">
            <g pointer-events="visible" stroke-width="0.3" fill="#000000" fill-opacity="0.000" stroke="#000000" stroke-opacity="0.000" class="guide background" id="img-d4479b2a-20">
              <g transform="translate(108.5,55.58)" id="img-d4479b2a-21">
                <path d="M-25.92,-15.53 L25.92,-15.53 25.92,15.53 -25.92,15.53  z" class="primitive"/>
              </g>
            </g>
            <g class="guide ygridlines xfixed" stroke-dasharray="0.5,0.5" stroke-width="0.2" stroke="#D0D0E0" id="img-d4479b2a-22">
              <g transform="translate(108.5,69.1)" id="img-d4479b2a-23">
                <path fill="none" d="M-25.92,0 L25.92,0 " class="primitive"/>
              </g>
              <g transform="translate(108.5,63.69)" id="img-d4479b2a-24">
                <path fill="none" d="M-25.92,0 L25.92,0 " class="primitive"/>
              </g>
              <g transform="translate(108.5,58.28)" id="img-d4479b2a-25">
                <path fill="none" d="M-25.92,0 L25.92,0 " class="primitive"/>
              </g>
              <g transform="translate(108.5,52.87)" id="img-d4479b2a-26">
                <path fill="none" d="M-25.92,0 L25.92,0 " class="primitive"/>
              </g>
              <g transform="translate(108.5,47.46)" id="img-d4479b2a-27">
                <path fill="none" d="M-25.92,0 L25.92,0 " class="primitive"/>
              </g>
              <g transform="translate(108.5,42.05)" id="img-d4479b2a-28">
                <path fill="none" d="M-25.92,0 L25.92,0 " class="primitive"/>
              </g>
            </g>
            <g class="guide xgridlines yfixed" stroke-dasharray="0.5,0.5" stroke-width="0.2" stroke="#D0D0E0" id="img-d4479b2a-29">
              <g transform="translate(84.59,55.58)" id="img-d4479b2a-30">
                <path fill="none" d="M0,-15.53 L0,15.53 " class="primitive"/>
              </g>
              <g transform="translate(108.5,55.58)" id="img-d4479b2a-31">
                <path fill="none" d="M0,-15.53 L0,15.53 " class="primitive"/>
              </g>
              <g transform="translate(132.42,55.58)" id="img-d4479b2a-32">
                <path fill="none" d="M0,-15.53 L0,15.53 " class="primitive"/>
              </g>
            </g>
            <g class="plotpanel" id="img-d4479b2a-33">
              <metadata>
                <boundingbox value="82.5852614519881mm 40.05166666666666mm 51.83609478532142mm 31.051666666666662mm"/>
                <unitbox value="-5.418094330019119 0.5369662990573594 10.836188660038237 -0.5739325981147188"/>
              </metadata>
              <g stroke-width="0.3" fill="#000000" fill-opacity="0.000" class="geometry" id="img-d4479b2a-34">
                <g class="color_LCHab{Float32}(70.0,_60.0,_240.0)" stroke-dasharray="none" stroke-opacity="1" stroke="#00BFFF" id="img-d4479b2a-35">
                  <g transform="translate(107.34,62.68)" id="img-d4479b2a-36">
                    <path fill="none" d="M-20.06,6.42 L-19.91,6.42 -19.75,6.42 -19.59,6.42 -19.43,6.42 -19.28,6.42 -19.12,6.42 -18.96,6.42 -18.8,6.42 -18.65,6.42 -18.49,6.42 -18.33,6.42 -18.17,6.41 -18.02,6.41 -17.86,6.41 -17.7,6.4 -17.54,6.39 -17.39,6.38 -17.23,6.37 -17.07,6.36 -16.92,6.35 -16.76,6.33 -16.6,6.31 -16.44,6.29 -16.29,6.26 -16.13,6.24 -15.97,6.21 -15.81,6.17 -15.66,6.14 -15.5,6.1 -15.34,6.06 -15.18,6.02 -15.03,5.98 -14.87,5.94 -14.71,5.89 -14.56,5.85 -14.4,5.81 -14.24,5.77 -14.08,5.73 -13.93,5.7 -13.77,5.66 -13.61,5.62 -13.45,5.58 -13.3,5.54 -13.14,5.5 -12.98,5.45 -12.82,5.39 -12.67,5.33 -12.51,5.25 -12.35,5.16 -12.19,5.07 -12.04,4.95 -11.88,4.83 -11.72,4.69 -11.57,4.53 -11.41,4.36 -11.25,4.18 -11.09,3.99 -10.94,3.79 -10.78,3.59 -10.62,3.38 -10.46,3.18 -10.31,2.97 -10.15,2.77 -9.99,2.59 -9.83,2.41 -9.68,2.25 -9.52,2.1 -9.36,1.97 -9.21,1.86 -9.05,1.77 -8.89,1.69 -8.73,1.63 -8.58,1.58 -8.42,1.55 -8.26,1.52 -8.1,1.5 -7.95,1.49 -7.79,1.48 -7.63,1.47 -7.47,1.45 -7.32,1.44 -7.16,1.42 -7,1.4 -6.84,1.37 -6.69,1.33 -6.53,1.29 -6.37,1.24 -6.22,1.19 -6.06,1.14 -5.9,1.08 -5.74,1.01 -5.59,0.94 -5.43,0.87 -5.27,0.78 -5.11,0.69 -4.96,0.58 -4.8,0.45 -4.64,0.31 -4.48,0.15 -4.33,-0.04 -4.17,-0.25 -4.01,-0.49 -3.86,-0.76 -3.7,-1.07 -3.54,-1.41 -3.38,-1.78 -3.23,-2.19 -3.07,-2.63 -2.91,-3.1 -2.75,-3.59 -2.6,-4.12 -2.44,-4.66 -2.28,-5.23 -2.12,-5.81 -1.97,-6.41 -1.81,-7.01 -1.65,-7.62 -1.49,-8.24 -1.34,-8.86 -1.18,-9.47 -1.02,-10.08 -0.87,-10.69 -0.71,-11.29 -0.55,-11.87 -0.39,-12.44 -0.24,-13 -0.08,-13.53 0.08,-14.03 0.24,-14.51 0.39,-14.95 0.55,-15.35 0.71,-15.7 0.87,-16 1.02,-16.25 1.18,-16.44 1.34,-16.56 1.49,-16.62 1.65,-16.61 1.81,-16.54 1.97,-16.41 2.12,-16.21 2.28,-15.95 2.44,-15.64 2.6,-15.29 2.75,-14.89 2.91,-14.47 3.07,-14.01 3.23,-13.53 3.38,-13.04 3.54,-12.54 3.7,-12.04 3.86,-11.54 4.01,-11.05 4.17,-10.57 4.33,-10.09 4.48,-9.64 4.64,-9.19 4.8,-8.76 4.96,-8.35 5.11,-7.95 5.27,-7.57 5.43,-7.2 5.59,-6.84 5.74,-6.49 5.9,-6.15 6.06,-5.82 6.22,-5.5 6.37,-5.18 6.53,-4.87 6.69,-4.57 6.84,-4.26 7,-3.96 7.16,-3.66 7.32,-3.37 7.47,-3.07 7.63,-2.78 7.79,-2.49 7.95,-2.2 8.1,-1.92 8.26,-1.64 8.42,-1.37 8.58,-1.11 8.73,-0.86 8.89,-0.62 9.05,-0.4 9.21,-0.18 9.36,0.01 9.52,0.2 9.68,0.37 9.83,0.53 9.99,0.68 10.15,0.82 10.31,0.95 10.46,1.07 10.62,1.19 10.78,1.31 10.94,1.42 11.09,1.55 11.25,1.67 11.41,1.8 11.57,1.94 11.72,2.09 11.88,2.24 12.04,2.4 12.19,2.57 12.35,2.75 12.51,2.93 12.67,3.12 12.82,3.31 12.98,3.51 13.14,3.7 13.3,3.89 13.45,4.08 13.61,4.27 13.77,4.45 13.93,4.63 14.08,4.8 14.24,4.96 14.4,5.11 14.56,5.25 14.71,5.39 14.87,5.51 15.03,5.62 15.18,5.73 15.34,5.82 15.5,5.91 15.66,5.98 15.81,6.05 15.97,6.11 16.13,6.16 16.29,6.2 16.44,6.24 16.6,6.28 16.76,6.3 16.92,6.33 17.07,6.35 17.23,6.36 17.39,6.38 17.54,6.39 17.7,6.4 17.86,6.4 18.02,6.41 18.17,6.41 18.33,6.42 18.49,6.42 18.65,6.42 18.8,6.42 18.96,6.42 19.12,6.42 19.28,6.42 19.43,6.42 19.59,6.42 19.75,6.42 19.91,6.42 20.06,6.42 " class="primitive"/>
                  </g>
                </g>
              </g>
            </g>
          </g>
        </g>
        <g clip-path="url(#img-d4479b2a-37)">
          <g id="img-d4479b2a-38">
            <g pointer-events="visible" stroke-width="0.3" fill="#000000" fill-opacity="0.000" stroke="#000000" stroke-opacity="0.000" class="guide background" id="img-d4479b2a-39">
              <g transform="translate(51.67,55.58)" id="img-d4479b2a-40">
                <path d="M-26.92,-15.53 L26.92,-15.53 26.92,15.53 -26.92,15.53  z" class="primitive"/>
              </g>
            </g>
            <g class="guide ygridlines xfixed" stroke-dasharray="0.5,0.5" stroke-width="0.2" stroke="#D0D0E0" id="img-d4479b2a-41">
              <g transform="translate(51.67,69.1)" id="img-d4479b2a-42">
                <path fill="none" d="M-26.92,0 L26.92,0 " class="primitive"/>
              </g>
              <g transform="translate(51.67,63.69)" id="img-d4479b2a-43">
                <path fill="none" d="M-26.92,0 L26.92,0 " class="primitive"/>
              </g>
              <g transform="translate(51.67,58.28)" id="img-d4479b2a-44">
                <path fill="none" d="M-26.92,0 L26.92,0 " class="primitive"/>
              </g>
              <g transform="translate(51.67,52.87)" id="img-d4479b2a-45">
                <path fill="none" d="M-26.92,0 L26.92,0 " class="primitive"/>
              </g>
              <g transform="translate(51.67,47.46)" id="img-d4479b2a-46">
                <path fill="none" d="M-26.92,0 L26.92,0 " class="primitive"/>
              </g>
              <g transform="translate(51.67,42.05)" id="img-d4479b2a-47">
                <path fill="none" d="M-26.92,0 L26.92,0 " class="primitive"/>
              </g>
            </g>
            <g class="guide xgridlines yfixed" stroke-dasharray="0.5,0.5" stroke-width="0.2" stroke="#D0D0E0" id="img-d4479b2a-48">
              <g transform="translate(26.75,55.58)" id="img-d4479b2a-49">
                <path fill="none" d="M0,-15.53 L0,15.53 " class="primitive"/>
              </g>
              <g transform="translate(51.67,55.58)" id="img-d4479b2a-50">
                <path fill="none" d="M0,-15.53 L0,15.53 " class="primitive"/>
              </g>
              <g transform="translate(76.59,55.58)" id="img-d4479b2a-51">
                <path fill="none" d="M0,-15.53 L0,15.53 " class="primitive"/>
              </g>
            </g>
            <g class="plotpanel" id="img-d4479b2a-52">
              <metadata>
                <boundingbox value="24.749166666666667mm 40.05166666666666mm 53.83609478532142mm 31.051666666666662mm"/>
                <unitbox value="-5.401315554241436 0.5369662990573594 10.802631108482872 -0.5739325981147188"/>
              </metadata>
              <g stroke-width="0.3" fill="#000000" fill-opacity="0.000" class="geometry" id="img-d4479b2a-53">
                <g class="color_LCHab{Float32}(70.0,_60.0,_240.0)" stroke-dasharray="none" stroke-opacity="1" stroke="#00BFFF" id="img-d4479b2a-54">
                  <g transform="translate(52.1,63.06)" id="img-d4479b2a-55">
                    <path fill="none" d="M-22.21,6.05 L-22.03,6.05 -21.86,6.05 -21.68,6.05 -21.51,6.05 -21.34,6.05 -21.16,6.05 -20.99,6.04 -20.81,6.04 -20.64,6.04 -20.46,6.04 -20.29,6.04 -20.12,6.03 -19.94,6.03 -19.77,6.02 -19.59,6.01 -19.42,6 -19.25,5.99 -19.07,5.97 -18.9,5.95 -18.72,5.93 -18.55,5.91 -18.37,5.88 -18.2,5.84 -18.03,5.81 -17.85,5.76 -17.68,5.72 -17.5,5.67 -17.33,5.61 -17.16,5.55 -16.98,5.49 -16.81,5.43 -16.63,5.36 -16.46,5.29 -16.28,5.22 -16.11,5.15 -15.94,5.07 -15.76,5 -15.59,4.92 -15.41,4.84 -15.24,4.76 -15.07,4.68 -14.89,4.6 -14.72,4.52 -14.54,4.44 -14.37,4.35 -14.19,4.26 -14.02,4.17 -13.85,4.07 -13.67,3.98 -13.5,3.87 -13.32,3.77 -13.15,3.65 -12.98,3.53 -12.8,3.4 -12.63,3.26 -12.45,3.11 -12.28,2.94 -12.1,2.77 -11.93,2.57 -11.76,2.37 -11.58,2.15 -11.41,1.91 -11.23,1.66 -11.06,1.41 -10.89,1.14 -10.71,0.87 -10.54,0.6 -10.36,0.33 -10.19,0.07 -10.01,-0.18 -9.84,-0.42 -9.67,-0.64 -9.49,-0.85 -9.32,-1.02 -9.14,-1.18 -8.97,-1.31 -8.8,-1.42 -8.62,-1.51 -8.45,-1.59 -8.27,-1.65 -8.1,-1.7 -7.92,-1.74 -7.75,-1.79 -7.58,-1.85 -7.4,-1.92 -7.23,-2.01 -7.05,-2.13 -6.88,-2.28 -6.71,-2.47 -6.53,-2.7 -6.36,-2.97 -6.18,-3.29 -6.01,-3.65 -5.83,-4.06 -5.66,-4.52 -5.49,-5.01 -5.31,-5.55 -5.14,-6.11 -4.96,-6.7 -4.79,-7.31 -4.62,-7.93 -4.44,-8.56 -4.27,-9.18 -4.09,-9.79 -3.92,-10.39 -3.74,-10.97 -3.57,-11.52 -3.4,-12.05 -3.22,-12.54 -3.05,-13 -2.87,-13.42 -2.7,-13.81 -2.53,-14.17 -2.35,-14.49 -2.18,-14.78 -2,-15.04 -1.83,-15.26 -1.65,-15.46 -1.48,-15.62 -1.31,-15.75 -1.13,-15.84 -0.96,-15.9 -0.78,-15.93 -0.61,-15.92 -0.44,-15.87 -0.26,-15.79 -0.09,-15.67 0.09,-15.52 0.26,-15.33 0.44,-15.12 0.61,-14.87 0.78,-14.6 0.96,-14.3 1.13,-13.97 1.31,-13.63 1.48,-13.26 1.65,-12.88 1.83,-12.47 2,-12.05 2.18,-11.61 2.35,-11.15 2.53,-10.67 2.7,-10.18 2.87,-9.66 3.05,-9.13 3.22,-8.58 3.4,-8.01 3.57,-7.44 3.74,-6.86 3.92,-6.27 4.09,-5.68 4.27,-5.1 4.44,-4.52 4.62,-3.96 4.79,-3.42 4.96,-2.9 5.14,-2.41 5.31,-1.94 5.49,-1.51 5.66,-1.11 5.83,-0.74 6.01,-0.41 6.18,-0.11 6.36,0.16 6.53,0.4 6.71,0.61 6.88,0.81 7.05,0.98 7.23,1.14 7.4,1.3 7.58,1.44 7.75,1.59 7.92,1.73 8.1,1.88 8.27,2.04 8.45,2.2 8.62,2.37 8.8,2.55 8.97,2.73 9.14,2.92 9.32,3.11 9.49,3.3 9.67,3.48 9.84,3.67 10.01,3.84 10.19,4.01 10.36,4.17 10.54,4.31 10.71,4.44 10.89,4.56 11.06,4.67 11.23,4.77 11.41,4.85 11.58,4.93 11.76,4.99 11.93,5.05 12.1,5.1 12.28,5.15 12.45,5.19 12.63,5.23 12.8,5.26 12.98,5.29 13.15,5.31 13.32,5.33 13.5,5.34 13.67,5.35 13.85,5.35 14.02,5.35 14.19,5.35 14.37,5.35 14.54,5.34 14.72,5.34 14.89,5.33 15.07,5.33 15.24,5.33 15.41,5.33 15.59,5.34 15.76,5.36 15.94,5.38 16.11,5.4 16.28,5.43 16.46,5.46 16.63,5.5 16.81,5.54 16.98,5.58 17.16,5.62 17.33,5.66 17.5,5.71 17.68,5.75 17.85,5.79 18.03,5.82 18.2,5.85 18.37,5.89 18.55,5.91 18.72,5.94 18.9,5.96 19.07,5.97 19.25,5.99 19.42,6 19.59,6.01 19.77,6.02 19.94,6.03 20.12,6.03 20.29,6.04 20.46,6.04 20.64,6.04 20.81,6.04 20.99,6.04 21.16,6.05 21.34,6.05 21.51,6.05 21.68,6.05 21.86,6.05 22.03,6.05 22.21,6.05 " class="primitive"/>
                  </g>
                </g>
              </g>
            </g>
          </g>
        </g>
        <g class="guide ylabels" font-size="2.82" font-family="'PT Sans Caption','Helvetica Neue','Helvetica',sans-serif" fill="#6C606B" id="img-d4479b2a-56">
          <g transform="translate(23.75,69.1)" id="img-d4479b2a-57">
            <g class="primitive">
              <text text-anchor="end" dy="0.35em">0.0</text>
            </g>
          </g>
          <g transform="translate(23.75,63.69)" id="img-d4479b2a-58">
            <g class="primitive">
              <text text-anchor="end" dy="0.35em">0.1</text>
            </g>
          </g>
          <g transform="translate(23.75,58.28)" id="img-d4479b2a-59">
            <g class="primitive">
              <text text-anchor="end" dy="0.35em">0.2</text>
            </g>
          </g>
          <g transform="translate(23.75,52.87)" id="img-d4479b2a-60">
            <g class="primitive">
              <text text-anchor="end" dy="0.35em">0.3</text>
            </g>
          </g>
          <g transform="translate(23.75,47.46)" id="img-d4479b2a-61">
            <g class="primitive">
              <text text-anchor="end" dy="0.35em">0.4</text>
            </g>
          </g>
          <g transform="translate(23.75,42.05)" id="img-d4479b2a-62">
            <g class="primitive">
              <text text-anchor="end" dy="0.35em">0.5</text>
            </g>
          </g>
        </g>
        <g font-size="3.88" font-family="'PT Sans','Helvetica Neue','Helvetica',sans-serif" fill="#564A55" stroke="#000000" stroke-opacity="0.000" id="img-d4479b2a-63">
          <g transform="translate(16.73,55.58)" id="img-d4479b2a-64">
            <g class="primitive">
              <text text-anchor="end" dy="0.35em">2</text>
            </g>
          </g>
        </g>
        <g clip-path="url(#img-d4479b2a-65)">
          <g id="img-d4479b2a-66">
            <g pointer-events="visible" stroke-width="0.3" fill="#000000" fill-opacity="0.000" stroke="#000000" stroke-opacity="0.000" class="guide background" id="img-d4479b2a-67">
              <g transform="translate(108.5,21.53)" id="img-d4479b2a-68">
                <path d="M-25.92,-14.53 L25.92,-14.53 25.92,14.53 -25.92,14.53  z" class="primitive"/>
              </g>
            </g>
            <g class="guide ygridlines xfixed" stroke-dasharray="0.5,0.5" stroke-width="0.2" stroke="#D0D0E0" id="img-d4479b2a-69">
              <g transform="translate(108.5,34.05)" id="img-d4479b2a-70">
                <path fill="none" d="M-25.92,0 L25.92,0 " class="primitive"/>
              </g>
              <g transform="translate(108.5,29.04)" id="img-d4479b2a-71">
                <path fill="none" d="M-25.92,0 L25.92,0 " class="primitive"/>
              </g>
              <g transform="translate(108.5,24.03)" id="img-d4479b2a-72">
                <path fill="none" d="M-25.92,0 L25.92,0 " class="primitive"/>
              </g>
              <g transform="translate(108.5,19.02)" id="img-d4479b2a-73">
                <path fill="none" d="M-25.92,0 L25.92,0 " class="primitive"/>
              </g>
              <g transform="translate(108.5,14.01)" id="img-d4479b2a-74">
                <path fill="none" d="M-25.92,0 L25.92,0 " class="primitive"/>
              </g>
              <g transform="translate(108.5,9)" id="img-d4479b2a-75">
                <path fill="none" d="M-25.92,0 L25.92,0 " class="primitive"/>
              </g>
            </g>
            <g class="guide xgridlines yfixed" stroke-dasharray="0.5,0.5" stroke-width="0.2" stroke="#D0D0E0" id="img-d4479b2a-76">
              <g transform="translate(84.59,21.53)" id="img-d4479b2a-77">
                <path fill="none" d="M0,-14.53 L0,14.53 " class="primitive"/>
              </g>
              <g transform="translate(108.5,21.53)" id="img-d4479b2a-78">
                <path fill="none" d="M0,-14.53 L0,14.53 " class="primitive"/>
              </g>
              <g transform="translate(132.42,21.53)" id="img-d4479b2a-79">
                <path fill="none" d="M0,-14.53 L0,14.53 " class="primitive"/>
              </g>
            </g>
            <g class="plotpanel" id="img-d4479b2a-80">
              <metadata>
                <boundingbox value="82.5852614519881mm 7.0mm 51.83609478532142mm 29.051666666666662mm"/>
                <unitbox value="-5.418094330019119 0.5399175038254275 10.836188660038237 -0.5798350076508549"/>
              </metadata>
              <g stroke-width="0.3" fill="#000000" fill-opacity="0.000" class="geometry" id="img-d4479b2a-81">
                <g class="color_LCHab{Float32}(70.0,_60.0,_240.0)" stroke-dasharray="none" stroke-opacity="1" stroke="#00BFFF" id="img-d4479b2a-82">
                  <g transform="translate(109.49,27.48)" id="img-d4479b2a-83">
                    <path fill="none" d="M-18.15,6.57 L-18.01,6.57 -17.87,6.57 -17.73,6.57 -17.59,6.57 -17.44,6.57 -17.3,6.57 -17.16,6.57 -17.02,6.57 -16.87,6.57 -16.73,6.57 -16.59,6.57 -16.45,6.56 -16.3,6.56 -16.16,6.56 -16.02,6.55 -15.88,6.54 -15.73,6.53 -15.59,6.52 -15.45,6.51 -15.31,6.5 -15.16,6.48 -15.02,6.46 -14.88,6.43 -14.74,6.4 -14.59,6.37 -14.45,6.33 -14.31,6.29 -14.17,6.24 -14.03,6.19 -13.88,6.13 -13.74,6.07 -13.6,6 -13.46,5.93 -13.31,5.85 -13.17,5.77 -13.03,5.68 -12.89,5.59 -12.74,5.5 -12.6,5.4 -12.46,5.3 -12.32,5.19 -12.17,5.09 -12.03,4.98 -11.89,4.86 -11.75,4.75 -11.6,4.63 -11.46,4.5 -11.32,4.38 -11.18,4.24 -11.04,4.11 -10.89,3.97 -10.75,3.82 -10.61,3.66 -10.47,3.5 -10.32,3.32 -10.18,3.14 -10.04,2.95 -9.9,2.75 -9.75,2.54 -9.61,2.32 -9.47,2.08 -9.33,1.83 -9.18,1.58 -9.04,1.3 -8.9,1.02 -8.76,0.72 -8.61,0.41 -8.47,0.08 -8.33,-0.25 -8.19,-0.6 -8.04,-0.96 -7.9,-1.32 -7.76,-1.7 -7.62,-2.08 -7.48,-2.47 -7.33,-2.86 -7.19,-3.25 -7.05,-3.64 -6.91,-4.03 -6.76,-4.42 -6.62,-4.8 -6.48,-5.18 -6.34,-5.55 -6.19,-5.91 -6.05,-6.26 -5.91,-6.61 -5.77,-6.96 -5.62,-7.29 -5.48,-7.62 -5.34,-7.95 -5.2,-8.28 -5.05,-8.6 -4.91,-8.92 -4.77,-9.23 -4.63,-9.55 -4.49,-9.86 -4.34,-10.16 -4.2,-10.46 -4.06,-10.75 -3.92,-11.04 -3.77,-11.3 -3.63,-11.56 -3.49,-11.8 -3.35,-12.01 -3.2,-12.21 -3.06,-12.39 -2.92,-12.54 -2.78,-12.67 -2.63,-12.78 -2.49,-12.87 -2.35,-12.95 -2.21,-13.01 -2.06,-13.05 -1.92,-13.09 -1.78,-13.11 -1.64,-13.14 -1.5,-13.16 -1.35,-13.17 -1.21,-13.19 -1.07,-13.2 -0.93,-13.21 -0.78,-13.21 -0.64,-13.21 -0.5,-13.19 -0.36,-13.16 -0.21,-13.1 -0.07,-13.02 0.07,-12.92 0.21,-12.78 0.36,-12.6 0.5,-12.39 0.64,-12.14 0.78,-11.85 0.93,-11.53 1.07,-11.18 1.21,-10.79 1.35,-10.38 1.5,-9.95 1.64,-9.5 1.78,-9.04 1.92,-8.58 2.06,-8.12 2.21,-7.67 2.35,-7.22 2.49,-6.8 2.63,-6.39 2.78,-6 2.92,-5.64 3.06,-5.3 3.2,-4.98 3.35,-4.69 3.49,-4.42 3.63,-4.16 3.77,-3.93 3.92,-3.71 4.06,-3.51 4.2,-3.32 4.34,-3.13 4.49,-2.94 4.63,-2.76 4.77,-2.57 4.91,-2.38 5.05,-2.18 5.2,-1.97 5.34,-1.75 5.48,-1.52 5.62,-1.27 5.77,-1.01 5.91,-0.74 6.05,-0.45 6.19,-0.14 6.34,0.17 6.48,0.49 6.62,0.82 6.76,1.15 6.91,1.48 7.05,1.82 7.19,2.14 7.33,2.46 7.48,2.77 7.62,3.07 7.76,3.35 7.9,3.62 8.04,3.87 8.19,4.11 8.33,4.33 8.47,4.52 8.61,4.71 8.76,4.87 8.9,5.02 9.04,5.15 9.18,5.27 9.33,5.37 9.47,5.46 9.61,5.54 9.75,5.6 9.9,5.66 10.04,5.71 10.18,5.75 10.32,5.78 10.47,5.8 10.61,5.82 10.75,5.83 10.89,5.84 11.04,5.85 11.18,5.85 11.32,5.85 11.46,5.85 11.6,5.86 11.75,5.86 11.89,5.87 12.03,5.88 12.17,5.89 12.32,5.91 12.46,5.93 12.6,5.95 12.74,5.98 12.89,6.01 13.03,6.04 13.17,6.07 13.31,6.11 13.46,6.15 13.6,6.18 13.74,6.22 13.88,6.26 14.03,6.29 14.17,6.33 14.31,6.36 14.45,6.39 14.59,6.41 14.74,6.44 14.88,6.46 15.02,6.48 15.16,6.49 15.31,6.51 15.45,6.52 15.59,6.53 15.73,6.54 15.88,6.55 16.02,6.55 16.16,6.56 16.3,6.56 16.45,6.56 16.59,6.57 16.73,6.57 16.87,6.57 17.02,6.57 17.16,6.57 17.3,6.57 17.44,6.57 17.59,6.57 17.73,6.57 17.87,6.57 18.01,6.57 18.15,6.57 " class="primitive"/>
                  </g>
                </g>
              </g>
            </g>
          </g>
        </g>
        <g clip-path="url(#img-d4479b2a-84)">
          <g id="img-d4479b2a-85">
            <g pointer-events="visible" stroke-width="0.3" fill="#000000" fill-opacity="0.000" stroke="#000000" stroke-opacity="0.000" class="guide background" id="img-d4479b2a-86">
              <g transform="translate(51.67,21.53)" id="img-d4479b2a-87">
                <path d="M-26.92,-14.53 L26.92,-14.53 26.92,14.53 -26.92,14.53  z" class="primitive"/>
              </g>
            </g>
            <g class="guide ygridlines xfixed" stroke-dasharray="0.5,0.5" stroke-width="0.2" stroke="#D0D0E0" id="img-d4479b2a-88">
              <g transform="translate(51.67,34.05)" id="img-d4479b2a-89">
                <path fill="none" d="M-26.92,0 L26.92,0 " class="primitive"/>
              </g>
              <g transform="translate(51.67,29.04)" id="img-d4479b2a-90">
                <path fill="none" d="M-26.92,0 L26.92,0 " class="primitive"/>
              </g>
              <g transform="translate(51.67,24.03)" id="img-d4479b2a-91">
                <path fill="none" d="M-26.92,0 L26.92,0 " class="primitive"/>
              </g>
              <g transform="translate(51.67,19.02)" id="img-d4479b2a-92">
                <path fill="none" d="M-26.92,0 L26.92,0 " class="primitive"/>
              </g>
              <g transform="translate(51.67,14.01)" id="img-d4479b2a-93">
                <path fill="none" d="M-26.92,0 L26.92,0 " class="primitive"/>
              </g>
              <g transform="translate(51.67,9)" id="img-d4479b2a-94">
                <path fill="none" d="M-26.92,0 L26.92,0 " class="primitive"/>
              </g>
            </g>
            <g class="guide xgridlines yfixed" stroke-dasharray="0.5,0.5" stroke-width="0.2" stroke="#D0D0E0" id="img-d4479b2a-95">
              <g transform="translate(26.75,21.53)" id="img-d4479b2a-96">
                <path fill="none" d="M0,-14.53 L0,14.53 " class="primitive"/>
              </g>
              <g transform="translate(51.67,21.53)" id="img-d4479b2a-97">
                <path fill="none" d="M0,-14.53 L0,14.53 " class="primitive"/>
              </g>
              <g transform="translate(76.59,21.53)" id="img-d4479b2a-98">
                <path fill="none" d="M0,-14.53 L0,14.53 " class="primitive"/>
              </g>
            </g>
            <g class="plotpanel" id="img-d4479b2a-99">
              <metadata>
                <boundingbox value="24.749166666666667mm 7.0mm 53.83609478532142mm 29.051666666666662mm"/>
                <unitbox value="-5.401315554241436 0.5399175038254275 10.802631108482872 -0.5798350076508549"/>
              </metadata>
              <g stroke-width="0.3" fill="#000000" fill-opacity="0.000" class="geometry" id="img-d4479b2a-100">
                <g class="color_LCHab{Float32}(70.0,_60.0,_240.0)" stroke-dasharray="none" stroke-opacity="1" stroke="#00BFFF" id="img-d4479b2a-101">
                  <g transform="translate(51.82,27.11)" id="img-d4479b2a-102">
                    <path fill="none" d="M-17.93,6.94 L-17.79,6.94 -17.65,6.94 -17.51,6.94 -17.36,6.94 -17.22,6.94 -17.08,6.94 -16.94,6.93 -16.8,6.93 -16.66,6.93 -16.52,6.93 -16.38,6.93 -16.24,6.93 -16.1,6.93 -15.96,6.92 -15.82,6.92 -15.68,6.92 -15.54,6.91 -15.4,6.91 -15.26,6.9 -15.12,6.89 -14.97,6.88 -14.83,6.87 -14.69,6.86 -14.55,6.84 -14.41,6.82 -14.27,6.8 -14.13,6.78 -13.99,6.76 -13.85,6.73 -13.71,6.71 -13.57,6.68 -13.43,6.65 -13.29,6.61 -13.15,6.58 -13.01,6.55 -12.87,6.51 -12.72,6.48 -12.58,6.44 -12.44,6.41 -12.3,6.37 -12.16,6.34 -12.02,6.31 -11.88,6.28 -11.74,6.25 -11.6,6.22 -11.46,6.19 -11.32,6.16 -11.18,6.13 -11.04,6.09 -10.9,6.05 -10.76,6.01 -10.62,5.96 -10.48,5.9 -10.33,5.84 -10.19,5.76 -10.05,5.68 -9.91,5.58 -9.77,5.47 -9.63,5.35 -9.49,5.21 -9.35,5.06 -9.21,4.9 -9.07,4.72 -8.93,4.53 -8.79,4.33 -8.65,4.12 -8.51,3.9 -8.37,3.67 -8.23,3.43 -8.08,3.18 -7.94,2.93 -7.8,2.67 -7.66,2.41 -7.52,2.14 -7.38,1.87 -7.24,1.59 -7.1,1.31 -6.96,1.02 -6.82,0.73 -6.68,0.42 -6.54,0.11 -6.4,-0.2 -6.26,-0.53 -6.12,-0.87 -5.98,-1.21 -5.84,-1.57 -5.69,-1.93 -5.55,-2.3 -5.41,-2.67 -5.27,-3.06 -5.13,-3.44 -4.99,-3.83 -4.85,-4.22 -4.71,-4.61 -4.57,-4.99 -4.43,-5.37 -4.29,-5.75 -4.15,-6.12 -4.01,-6.48 -3.87,-6.84 -3.73,-7.19 -3.59,-7.53 -3.44,-7.87 -3.3,-8.2 -3.16,-8.52 -3.02,-8.84 -2.88,-9.16 -2.74,-9.47 -2.6,-9.77 -2.46,-10.07 -2.32,-10.37 -2.18,-10.65 -2.04,-10.93 -1.9,-11.2 -1.76,-11.45 -1.62,-11.69 -1.48,-11.92 -1.34,-12.12 -1.2,-12.31 -1.05,-12.47 -0.91,-12.61 -0.77,-12.72 -0.63,-12.81 -0.49,-12.86 -0.35,-12.9 -0.21,-12.91 -0.07,-12.89 0.07,-12.85 0.21,-12.79 0.35,-12.72 0.49,-12.62 0.63,-12.52 0.77,-12.4 0.91,-12.28 1.05,-12.15 1.2,-12.02 1.34,-11.89 1.48,-11.75 1.62,-11.62 1.76,-11.49 1.9,-11.37 2.04,-11.24 2.18,-11.12 2.32,-10.99 2.46,-10.87 2.6,-10.74 2.74,-10.6 2.88,-10.46 3.02,-10.31 3.16,-10.14 3.3,-9.97 3.44,-9.78 3.59,-9.58 3.73,-9.36 3.87,-9.14 4.01,-8.9 4.15,-8.64 4.29,-8.38 4.43,-8.11 4.57,-7.83 4.71,-7.55 4.85,-7.26 4.99,-6.97 5.13,-6.68 5.27,-6.38 5.41,-6.09 5.55,-5.79 5.69,-5.5 5.84,-5.21 5.98,-4.91 6.12,-4.61 6.26,-4.31 6.4,-4 6.54,-3.7 6.68,-3.38 6.82,-3.06 6.96,-2.74 7.1,-2.41 7.24,-2.08 7.38,-1.74 7.52,-1.4 7.66,-1.06 7.8,-0.72 7.94,-0.39 8.08,-0.06 8.23,0.26 8.37,0.57 8.51,0.86 8.65,1.15 8.79,1.42 8.93,1.67 9.07,1.91 9.21,2.12 9.35,2.32 9.49,2.51 9.63,2.68 9.77,2.83 9.91,2.98 10.05,3.11 10.19,3.23 10.33,3.35 10.48,3.46 10.62,3.57 10.76,3.68 10.9,3.79 11.04,3.9 11.18,4.02 11.32,4.14 11.46,4.27 11.6,4.4 11.74,4.53 11.88,4.67 12.02,4.81 12.16,4.96 12.3,5.1 12.44,5.24 12.58,5.38 12.72,5.52 12.87,5.66 13.01,5.79 13.15,5.91 13.29,6.02 13.43,6.13 13.57,6.23 13.71,6.32 13.85,6.41 13.99,6.48 14.13,6.55 14.27,6.61 14.41,6.66 14.55,6.71 14.69,6.75 14.83,6.78 14.97,6.81 15.12,6.83 15.26,6.85 15.4,6.87 15.54,6.88 15.68,6.9 15.82,6.9 15.96,6.91 16.1,6.92 16.24,6.92 16.38,6.93 16.52,6.93 16.66,6.93 16.8,6.93 16.94,6.93 17.08,6.93 17.22,6.93 17.36,6.94 17.51,6.94 17.65,6.94 17.79,6.94 17.93,6.94 " class="primitive"/>
                  </g>
                </g>
              </g>
            </g>
          </g>
        </g>
        <g class="guide ylabels" font-size="2.82" font-family="'PT Sans Caption','Helvetica Neue','Helvetica',sans-serif" fill="#6C606B" id="img-d4479b2a-103">
          <g transform="translate(23.75,34.05)" id="img-d4479b2a-104">
            <g class="primitive">
              <text text-anchor="end" dy="0.35em">0.0</text>
            </g>
          </g>
          <g transform="translate(23.75,29.04)" id="img-d4479b2a-105">
            <g class="primitive">
              <text text-anchor="end" dy="0.35em">0.1</text>
            </g>
          </g>
          <g transform="translate(23.75,24.03)" id="img-d4479b2a-106">
            <g class="primitive">
              <text text-anchor="end" dy="0.35em">0.2</text>
            </g>
          </g>
          <g transform="translate(23.75,19.02)" id="img-d4479b2a-107">
            <g class="primitive">
              <text text-anchor="end" dy="0.35em">0.3</text>
            </g>
          </g>
          <g transform="translate(23.75,14.01)" id="img-d4479b2a-108">
            <g class="primitive">
              <text text-anchor="end" dy="0.35em">0.4</text>
            </g>
          </g>
          <g transform="translate(23.75,9)" id="img-d4479b2a-109">
            <g class="primitive">
              <text text-anchor="end" dy="0.35em">0.5</text>
            </g>
          </g>
        </g>
        <g font-size="3.88" font-family="'PT Sans','Helvetica Neue','Helvetica',sans-serif" fill="#564A55" stroke="#000000" stroke-opacity="0.000" id="img-d4479b2a-110">
          <g transform="translate(16.73,21.53)" id="img-d4479b2a-111">
            <g class="primitive">
              <text text-anchor="end" dy="0.35em">1</text>
            </g>
          </g>
        </g>
      </g>
    </g>
  </g>
  <g font-size="3.88" font-family="'PT Sans','Helvetica Neue','Helvetica',sans-serif" fill="#564A55" stroke="#000000" stroke-opacity="0.000" id="img-d4479b2a-112">
    <g transform="translate(8.81,43.19)" id="img-d4479b2a-113">
      <g class="primitive">
        <text text-anchor="middle" dy="0.35em" transform="rotate(-90,0, 2)">Chain</text>
      </g>
    </g>
  </g>
</g>
<defs>
  <clipPath id="img-d4479b2a-3">
    <path d="M12.61,5 L136.42,5 136.42,85.39 12.61,85.39 " />
  </clipPath>
  <clipPath id="img-d4479b2a-18">
    <path d="M82.59,40.05 L134.42,40.05 134.42,71.1 82.59,71.1 " />
  </clipPath>
  <clipPath id="img-d4479b2a-37">
    <path d="M24.75,40.05 L78.59,40.05 78.59,71.1 24.75,71.1 " />
  </clipPath>
  <clipPath id="img-d4479b2a-65">
    <path d="M82.59,7 L134.42,7 134.42,36.05 82.59,36.05 " />
  </clipPath>
  <clipPath id="img-d4479b2a-84">
    <path d="M24.75,7 L78.59,7 78.59,36.05 24.75,36.05 " />
  </clipPath>
</defs>
</svg>
