<?xml version="1.0" encoding="UTF-8"?>
<svg xmlns="http://www.w3.org/2000/svg"
     xmlns:xlink="http://www.w3.org/1999/xlink"
     xmlns:gadfly="http://www.gadflyjl.org/ns"
     version="1.2"
     width="141.42mm" height="100mm" viewBox="0 0 141.42 100"
     stroke="none"
     fill="#000000"
     stroke-width="0.3"
     font-size="3.88"
>
<defs>
  <marker id="arrow" markerWidth="15" markerHeight="7" refX="5" refY="3.5" orient="auto" markerUnits="strokeWidth">
    <path d="M0,0 L15,3.5 L0,7 z" stroke="context-stroke" fill="context-stroke"/>
  </marker>
</defs>
<g class="plotroot xscalable yscalable" id="img-3dc35cd1-1">
  <g font-size="3.88" font-family="'PT Sans','Helvetica Neue','Helvetica',sans-serif" fill="#564A55" stroke="#000000" stroke-opacity="0.000" id="img-3dc35cd1-2">
    <g transform="translate(73.05,88.39)">
      <g class="primitive">
        <text text-anchor="middle" dy="0.6em">A</text>
      </g>
    </g>
  </g>
  <g class="guide xlabels" font-size="2.82" font-family="'PT Sans Caption','Helvetica Neue','Helvetica',sans-serif" fill="#6C606B" id="img-3dc35cd1-3">
    <g transform="translate(20.63,81.72)">
      <g class="primitive">
        <text text-anchor="middle" dy="0.6em">-5</text>
      </g>
    </g>
    <g transform="translate(73.05,81.72)">
      <g class="primitive">
        <text text-anchor="middle" dy="0.6em">0</text>
      </g>
    </g>
    <g transform="translate(125.47,81.72)">
      <g class="primitive">
        <text text-anchor="middle" dy="0.6em">5</text>
      </g>
    </g>
  </g>
  <g class="guide colorkey" id="img-3dc35cd1-4">
    <g fill="#4C404B" font-size="2.82" font-family="'PT Sans','Helvetica Neue','Helvetica',sans-serif" id="img-3dc35cd1-5">
      <g transform="translate(131.29,41.04)" id="img-3dc35cd1-6" class="color_1">
        <g class="primitive">
          <text dy="0.35em">1</text>
        </g>
      </g>
      <g transform="translate(131.29,44.67)" id="img-3dc35cd1-7" class="color_2">
        <g class="primitive">
          <text dy="0.35em">2</text>
        </g>
      </g>
      <g transform="translate(131.29,48.3)" id="img-3dc35cd1-8" class="color_3">
        <g class="primitive">
          <text dy="0.35em">3</text>
        </g>
      </g>
    </g>
    <g fill-opacity="1" id="img-3dc35cd1-9">
      <g transform="translate(129.38,41.04)" id="img-3dc35cd1-10" class="color_1" fill="#00BFFF" stroke="#FFFFFF">
        <path d="M-0.91,-0.91 L0.91,-0.91 0.91,0.91 -0.91,0.91  z" class="primitive"/>
      </g>
      <g transform="translate(129.38,44.67)" id="img-3dc35cd1-11" class="color_2" fill="#D4CA3A" stroke="#FFFFFF">
        <path d="M-0.91,-0.91 L0.91,-0.91 0.91,0.91 -0.91,0.91  z" class="primitive"/>
      </g>
      <g transform="translate(129.38,48.3)" id="img-3dc35cd1-12" class="color_3" fill="#FF6DAE" stroke="#FFFFFF">
        <path d="M-0.91,-0.91 L0.91,-0.91 0.91,0.91 -0.91,0.91  z" class="primitive"/>
      </g>
    </g>
    <g fill="#362A35" font-size="3.88" font-family="'PT Sans','Helvetica Neue','Helvetica',sans-serif" stroke="#000000" stroke-opacity="0.000" id="img-3dc35cd1-13">
      <g transform="translate(128.47,37.22)" id="img-3dc35cd1-14">
        <g class="primitive">
          <text dy="-0em">chain</text>
        </g>
      </g>
    </g>
  </g>
  <g clip-path="url(#img-3dc35cd1-15)">
    <g id="img-3dc35cd1-16">
      <g pointer-events="visible" stroke-width="0.3" fill="#000000" fill-opacity="0.000" stroke="#000000" stroke-opacity="0.000" class="guide background" id="img-3dc35cd1-17">
        <g transform="translate(73.05,42.86)" id="img-3dc35cd1-18">
          <path d="M-54.42,-37.86 L54.42,-37.86 54.42,37.86 -54.42,37.86  z" class="primitive"/>
        </g>
      </g>
      <g class="guide ygridlines xfixed" stroke-dasharray="0.5,0.5" stroke-width="0.2" stroke="#D0D0E0" id="img-3dc35cd1-19">
        <g transform="translate(73.05,78.71)" id="img-3dc35cd1-20">
          <path fill="none" d="M-54.42,0 L54.42,0 " class="primitive"/>
        </g>
        <g transform="translate(73.05,64.37)" id="img-3dc35cd1-21">
          <path fill="none" d="M-54.42,0 L54.42,0 " class="primitive"/>
        </g>
        <g transform="translate(73.05,50.03)" id="img-3dc35cd1-22">
          <path fill="none" d="M-54.42,0 L54.42,0 " class="primitive"/>
        </g>
        <g transform="translate(73.05,35.69)" id="img-3dc35cd1-23">
          <path fill="none" d="M-54.42,0 L54.42,0 " class="primitive"/>
        </g>
        <g transform="translate(73.05,21.34)" id="img-3dc35cd1-24">
          <path fill="none" d="M-54.42,0 L54.42,0 " class="primitive"/>
        </g>
        <g transform="translate(73.05,7)" id="img-3dc35cd1-25">
          <path fill="none" d="M-54.42,0 L54.42,0 " class="primitive"/>
        </g>
      </g>
      <g class="guide xgridlines yfixed" stroke-dasharray="0.5,0.5" stroke-width="0.2" stroke="#D0D0E0" id="img-3dc35cd1-26">
        <g transform="translate(20.63,42.86)" id="img-3dc35cd1-27">
          <path fill="none" d="M0,-37.86 L0,37.86 " class="primitive"/>
        </g>
        <g transform="translate(73.05,42.86)" id="img-3dc35cd1-28">
          <path fill="none" d="M0,-37.86 L0,37.86 " class="primitive"/>
        </g>
        <g transform="translate(125.47,42.86)" id="img-3dc35cd1-29">
          <path fill="none" d="M0,-37.86 L0,37.86 " class="primitive"/>
        </g>
      </g>
      <g class="plotpanel" id="img-3dc35cd1-30">
        <metadata>
          <boundingbox value="18.63166666666666mm 5.0mm 108.84302290397619mm 75.715mm"/>
          <unitbox value="-5.190761382551108 0.5139440842222687 10.381522765102215 -0.5278881684445375"/>
        </metadata>
        <g stroke-width="0.3" fill="#000000" fill-opacity="0.000" class="geometry" id="img-3dc35cd1-31">
          <g transform="translate(73.96,62.68)" id="img-3dc35cd1-32" stroke="#D4CA3A" stroke-dasharray="none" stroke-opacity="1" class="color_2">
            <path fill="none" d="M-46.72,16.03 L-46.35,16.03 -45.98,16.03 -45.62,16.03 -45.25,16.03 -44.88,16.03 -44.52,16.03 -44.15,16.02 -43.79,16.02 -43.42,16.01 -43.05,16.01 -42.69,16 -42.32,15.99 -41.95,15.98 -41.59,15.96 -41.22,15.94 -40.85,15.91 -40.49,15.87 -40.12,15.83 -39.75,15.78 -39.39,15.73 -39.02,15.66 -38.66,15.58 -38.29,15.49 -37.92,15.39 -37.56,15.28 -37.19,15.15 -36.82,15.02 -36.46,14.88 -36.09,14.72 -35.72,14.56 -35.36,14.39 -34.99,14.21 -34.63,14.03 -34.26,13.84 -33.89,13.65 -33.53,13.45 -33.16,13.25 -32.79,13.05 -32.43,12.84 -32.06,12.63 -31.69,12.42 -31.33,12.2 -30.96,11.98 -30.59,11.76 -30.23,11.53 -29.86,11.29 -29.5,11.05 -29.13,10.8 -28.76,10.54 -28.4,10.27 -28.03,9.98 -27.66,9.68 -27.3,9.36 -26.93,9.01 -26.56,8.64 -26.2,8.24 -25.83,7.8 -25.47,7.33 -25.1,6.82 -24.73,6.28 -24.37,5.69 -24,5.07 -23.63,4.41 -23.27,3.73 -22.9,3.03 -22.53,2.31 -22.17,1.59 -21.8,0.88 -21.43,0.18 -21.07,-0.49 -20.7,-1.12 -20.34,-1.71 -19.97,-2.24 -19.6,-2.72 -19.24,-3.13 -18.87,-3.48 -18.5,-3.78 -18.14,-4.01 -17.77,-4.21 -17.4,-4.36 -17.04,-4.5 -16.67,-4.62 -16.31,-4.75 -15.94,-4.9 -15.57,-5.09 -15.21,-5.33 -14.84,-5.64 -14.47,-6.05 -14.11,-6.54 -13.74,-7.15 -13.37,-7.87 -13.01,-8.72 -12.64,-9.68 -12.27,-10.77 -11.91,-11.98 -11.54,-13.29 -11.18,-14.71 -10.81,-16.2 -10.44,-17.77 -10.08,-19.38 -9.71,-21.03 -9.34,-22.69 -8.98,-24.34 -8.61,-25.97 -8.24,-27.55 -7.88,-29.08 -7.51,-30.55 -7.14,-31.94 -6.78,-33.24 -6.41,-34.46 -6.05,-35.59 -5.68,-36.62 -5.31,-37.57 -4.95,-38.42 -4.58,-39.19 -4.21,-39.87 -3.85,-40.47 -3.48,-40.98 -3.11,-41.4 -2.75,-41.74 -2.38,-41.99 -2.02,-42.15 -1.65,-42.22 -1.28,-42.19 -0.92,-42.07 -0.55,-41.85 -0.18,-41.54 0.18,-41.14 0.55,-40.65 0.92,-40.07 1.28,-39.42 1.65,-38.69 2.02,-37.9 2.38,-37.04 2.75,-36.13 3.11,-35.16 3.48,-34.14 3.85,-33.07 4.21,-31.95 4.58,-30.78 4.95,-29.56 5.31,-28.29 5.68,-26.97 6.05,-25.61 6.41,-24.2 6.78,-22.74 7.14,-21.25 7.51,-19.72 7.88,-18.18 8.24,-16.62 8.61,-15.06 8.98,-13.51 9.34,-11.99 9.71,-10.51 10.08,-9.07 10.44,-7.69 10.81,-6.38 11.18,-5.15 11.54,-4 11.91,-2.94 12.27,-1.97 12.64,-1.09 13.01,-0.29 13.37,0.42 13.74,1.06 14.11,1.63 14.47,2.14 14.84,2.6 15.21,3.03 15.57,3.44 15.94,3.83 16.31,4.21 16.67,4.6 17.04,4.99 17.4,5.4 17.77,5.83 18.14,6.28 18.5,6.75 18.87,7.24 19.24,7.73 19.6,8.24 19.97,8.74 20.34,9.24 20.7,9.72 21.07,10.19 21.43,10.63 21.8,11.04 22.17,11.43 22.53,11.78 22.9,12.09 23.27,12.38 23.63,12.63 24,12.86 24.37,13.06 24.73,13.24 25.1,13.39 25.47,13.53 25.83,13.65 26.2,13.76 26.56,13.86 26.93,13.94 27.3,14.01 27.66,14.07 28.03,14.12 28.4,14.15 28.76,14.18 29.13,14.19 29.5,14.19 29.86,14.19 30.23,14.18 30.59,14.17 30.96,14.15 31.33,14.14 31.69,14.13 32.06,14.13 32.43,14.14 32.79,14.17 33.16,14.2 33.53,14.25 33.89,14.31 34.26,14.39 34.63,14.47 34.99,14.57 35.36,14.68 35.72,14.79 36.09,14.9 36.46,15.01 36.82,15.12 37.19,15.23 37.56,15.34 37.92,15.43 38.29,15.52 38.66,15.6 39.02,15.67 39.39,15.74 39.75,15.79 40.12,15.84 40.49,15.88 40.85,15.91 41.22,15.94 41.59,15.96 41.95,15.98 42.32,15.99 42.69,16 43.05,16.01 43.42,16.01 43.79,16.02 44.15,16.02 44.52,16.03 44.88,16.03 45.25,16.03 45.62,16.03 45.98,16.03 46.35,16.03 46.72,16.03 " class="primitive"/>
          </g>
          <g transform="translate(70.14,62.2)" id="img-3dc35cd1-33" stroke="#FF6DAE" stroke-dasharray="none" stroke-opacity="1" class="color_3">
            <path fill="none" d="M-45.36,16.51 L-45.01,16.51 -44.65,16.51 -44.29,16.51 -43.94,16.51 -43.58,16.51 -43.23,16.5 -42.87,16.5 -42.52,16.5 -42.16,16.5 -41.8,16.49 -41.45,16.48 -41.09,16.47 -40.74,16.46 -40.38,16.45 -40.03,16.43 -39.67,16.41 -39.31,16.38 -38.96,16.34 -38.6,16.3 -38.25,16.26 -37.89,16.2 -37.53,16.14 -37.18,16.07 -36.82,15.99 -36.47,15.91 -36.11,15.81 -35.76,15.71 -35.4,15.61 -35.04,15.51 -34.69,15.4 -34.33,15.3 -33.98,15.19 -33.62,15.1 -33.27,15.01 -32.91,14.94 -32.55,14.88 -32.2,14.83 -31.84,14.8 -31.49,14.79 -31.13,14.8 -30.77,14.82 -30.42,14.86 -30.06,14.92 -29.71,14.99 -29.35,15.07 -29,15.16 -28.64,15.26 -28.28,15.36 -27.93,15.46 -27.57,15.57 -27.22,15.67 -26.86,15.76 -26.51,15.85 -26.15,15.93 -25.79,16 -25.44,16.05 -25.08,16.09 -24.73,16.12 -24.37,16.14 -24.02,16.14 -23.66,16.11 -23.3,16.08 -22.95,16.02 -22.59,15.93 -22.24,15.83 -21.88,15.69 -21.52,15.53 -21.17,15.33 -20.81,15.11 -20.46,14.84 -20.1,14.54 -19.75,14.2 -19.39,13.81 -19.03,13.38 -18.68,12.91 -18.32,12.38 -17.97,11.81 -17.61,11.19 -17.26,10.52 -16.9,9.8 -16.54,9.03 -16.19,8.2 -15.83,7.32 -15.48,6.38 -15.12,5.38 -14.76,4.32 -14.41,3.2 -14.05,2.02 -13.7,0.77 -13.34,-0.53 -12.99,-1.88 -12.63,-3.29 -12.27,-4.74 -11.92,-6.22 -11.56,-7.73 -11.21,-9.25 -10.85,-10.76 -10.5,-12.27 -10.14,-13.74 -9.78,-15.17 -9.43,-16.55 -9.07,-17.85 -8.72,-19.08 -8.36,-20.23 -8.01,-21.29 -7.65,-22.27 -7.29,-23.16 -6.94,-23.97 -6.58,-24.71 -6.23,-25.39 -5.87,-26.02 -5.51,-26.63 -5.16,-27.21 -4.8,-27.8 -4.45,-28.4 -4.09,-29.02 -3.74,-29.68 -3.38,-30.39 -3.02,-31.15 -2.67,-31.96 -2.31,-32.83 -1.96,-33.75 -1.6,-34.72 -1.25,-35.72 -0.89,-36.73 -0.53,-37.76 -0.18,-38.77 0.18,-39.76 0.53,-40.71 0.89,-41.59 1.25,-42.39 1.6,-43.1 1.96,-43.7 2.31,-44.18 2.67,-44.54 3.02,-44.77 3.38,-44.85 3.74,-44.8 4.09,-44.61 4.45,-44.29 4.8,-43.84 5.16,-43.27 5.51,-42.59 5.87,-41.8 6.23,-40.92 6.58,-39.95 6.94,-38.91 7.29,-37.8 7.65,-36.64 8.01,-35.42 8.36,-34.17 8.72,-32.89 9.07,-31.58 9.43,-30.24 9.78,-28.9 10.14,-27.54 10.5,-26.17 10.85,-24.8 11.21,-23.42 11.56,-22.04 11.92,-20.67 12.27,-19.29 12.63,-17.92 12.99,-16.54 13.34,-15.18 13.7,-13.82 14.05,-12.47 14.41,-11.14 14.76,-9.83 15.12,-8.54 15.48,-7.28 15.83,-6.06 16.19,-4.89 16.54,-3.77 16.9,-2.71 17.26,-1.71 17.61,-0.79 17.97,0.06 18.32,0.84 18.68,1.54 19.03,2.17 19.39,2.73 19.75,3.23 20.1,3.68 20.46,4.1 20.81,4.48 21.17,4.84 21.52,5.2 21.88,5.57 22.24,5.94 22.59,6.33 22.95,6.75 23.3,7.19 23.66,7.65 24.02,8.14 24.37,8.64 24.73,9.15 25.08,9.67 25.44,10.18 25.79,10.68 26.15,11.16 26.51,11.61 26.86,12.03 27.22,12.41 27.57,12.76 27.93,13.06 28.28,13.32 28.64,13.55 29,13.74 29.35,13.9 29.71,14.04 30.06,14.15 30.42,14.25 30.77,14.34 31.13,14.42 31.49,14.5 31.84,14.58 32.2,14.66 32.55,14.75 32.91,14.84 33.27,14.94 33.62,15.05 33.98,15.16 34.33,15.27 34.69,15.38 35.04,15.49 35.4,15.6 35.76,15.71 36.11,15.81 36.47,15.9 36.82,15.99 37.18,16.07 37.53,16.14 37.89,16.2 38.25,16.26 38.6,16.3 38.96,16.34 39.31,16.38 39.67,16.41 40.03,16.43 40.38,16.45 40.74,16.46 41.09,16.47 41.45,16.48 41.8,16.49 42.16,16.5 42.52,16.5 42.87,16.5 43.23,16.5 43.58,16.51 43.94,16.51 44.29,16.51 44.65,16.51 45.01,16.51 45.36,16.51 " class="primitive"/>
          </g>
          <g transform="translate(73.37,58.86)" id="img-3dc35cd1-34" stroke="#00BFFF" stroke-dasharray="none" stroke-opacity="1" class="color_1">
            <path fill="none" d="M-37.71,19.86 L-37.42,19.86 -37.12,19.86 -36.83,19.86 -36.53,19.86 -36.24,19.85 -35.94,19.85 -35.64,19.85 -35.35,19.85 -35.05,19.85 -34.76,19.85 -34.46,19.84 -34.17,19.84 -33.87,19.83 -33.57,19.82 -33.28,19.81 -32.98,19.8 -32.69,19.79 -32.39,19.77 -32.09,19.75 -31.8,19.72 -31.5,19.7 -31.21,19.66 -30.91,19.62 -30.62,19.58 -30.32,19.53 -30.02,19.48 -29.73,19.42 -29.43,19.35 -29.14,19.28 -28.84,19.2 -28.54,19.11 -28.25,19.03 -27.95,18.93 -27.66,18.84 -27.36,18.74 -27.07,18.64 -26.77,18.54 -26.47,18.44 -26.18,18.34 -25.88,18.25 -25.59,18.15 -25.29,18.06 -25,17.97 -24.7,17.89 -24.4,17.8 -24.11,17.72 -23.81,17.63 -23.52,17.54 -23.22,17.44 -22.92,17.33 -22.63,17.2 -22.33,17.06 -22.04,16.9 -21.74,16.71 -21.45,16.5 -21.15,16.26 -20.85,15.98 -20.56,15.66 -20.26,15.31 -19.97,14.92 -19.67,14.49 -19.38,14.03 -19.08,13.52 -18.78,12.98 -18.49,12.4 -18.19,11.79 -17.9,11.16 -17.6,10.5 -17.3,9.81 -17.01,9.11 -16.71,8.38 -16.42,7.64 -16.12,6.89 -15.83,6.13 -15.53,5.35 -15.23,4.55 -14.94,3.74 -14.64,2.92 -14.35,2.08 -14.05,1.21 -13.75,0.33 -13.46,-0.58 -13.16,-1.52 -12.87,-2.48 -12.57,-3.47 -12.28,-4.48 -11.98,-5.52 -11.68,-6.58 -11.39,-7.66 -11.09,-8.75 -10.8,-9.85 -10.5,-10.96 -10.21,-12.08 -9.91,-13.19 -9.61,-14.29 -9.32,-15.38 -9.02,-16.45 -8.73,-17.51 -8.43,-18.55 -8.13,-19.57 -7.84,-20.57 -7.54,-21.55 -7.25,-22.52 -6.95,-23.46 -6.66,-24.39 -6.36,-25.31 -6.06,-26.21 -5.77,-27.1 -5.47,-27.97 -5.18,-28.83 -4.88,-29.67 -4.58,-30.49 -4.29,-31.29 -3.99,-32.06 -3.7,-32.79 -3.4,-33.48 -3.11,-34.12 -2.81,-34.71 -2.51,-35.23 -2.22,-35.7 -1.92,-36.09 -1.63,-36.41 -1.33,-36.66 -1.04,-36.83 -0.74,-36.92 -0.44,-36.95 -0.15,-36.9 0.15,-36.79 0.44,-36.62 0.74,-36.4 1.04,-36.14 1.33,-35.83 1.63,-35.5 1.92,-35.15 2.22,-34.78 2.51,-34.4 2.81,-34.03 3.11,-33.65 3.4,-33.27 3.7,-32.91 3.99,-32.54 4.29,-32.19 4.58,-31.83 4.88,-31.47 5.18,-31.11 5.47,-30.74 5.77,-30.35 6.06,-29.94 6.36,-29.5 6.66,-29.04 6.95,-28.54 7.25,-28 7.54,-27.42 7.84,-26.81 8.13,-26.15 8.43,-25.46 8.73,-24.74 9.02,-23.99 9.32,-23.22 9.61,-22.42 9.91,-21.61 10.21,-20.78 10.5,-19.95 10.8,-19.11 11.09,-18.27 11.39,-17.43 11.68,-16.59 11.98,-15.75 12.28,-14.9 12.57,-14.05 12.87,-13.2 13.16,-12.34 13.46,-11.46 13.75,-10.58 14.05,-9.68 14.35,-8.77 14.64,-7.84 14.94,-6.9 15.23,-5.94 15.53,-4.98 15.83,-4.01 16.12,-3.04 16.42,-2.07 16.71,-1.12 17.01,-0.18 17.3,0.74 17.6,1.62 17.9,2.48 18.19,3.29 18.49,4.06 18.78,4.78 19.08,5.45 19.38,6.08 19.67,6.66 19.97,7.18 20.26,7.67 20.56,8.11 20.85,8.52 21.15,8.9 21.45,9.25 21.74,9.58 22.04,9.91 22.33,10.22 22.63,10.54 22.92,10.85 23.22,11.18 23.52,11.51 23.81,11.86 24.11,12.22 24.4,12.59 24.7,12.97 25,13.37 25.29,13.77 25.59,14.18 25.88,14.6 26.18,15.01 26.47,15.41 26.77,15.81 27.07,16.19 27.36,16.56 27.66,16.91 27.95,17.25 28.25,17.55 28.54,17.84 28.84,18.1 29.14,18.34 29.43,18.56 29.73,18.75 30.02,18.92 30.32,19.07 30.62,19.2 30.91,19.32 31.21,19.41 31.5,19.49 31.8,19.56 32.09,19.62 32.39,19.67 32.69,19.71 32.98,19.74 33.28,19.77 33.57,19.79 33.87,19.8 34.17,19.82 34.46,19.83 34.76,19.83 35.05,19.84 35.35,19.84 35.64,19.85 35.94,19.85 36.24,19.85 36.53,19.85 36.83,19.86 37.12,19.86 37.42,19.86 37.71,19.86 " class="primitive"/>
          </g>
        </g>
      </g>
    </g>
  </g>
  <g class="guide ylabels" font-size="2.82" font-family="'PT Sans Caption','Helvetica Neue','Helvetica',sans-serif" fill="#6C606B" id="img-3dc35cd1-35">
    <g transform="translate(17.63,78.71)" id="img-3dc35cd1-36">
      <g class="primitive">
        <text text-anchor="end" dy="0.35em">0.0</text>
      </g>
    </g>
    <g transform="translate(17.63,64.37)" id="img-3dc35cd1-37">
      <g class="primitive">
        <text text-anchor="end" dy="0.35em">0.1</text>
      </g>
    </g>
    <g transform="translate(17.63,50.03)" id="img-3dc35cd1-38">
      <g class="primitive">
        <text text-anchor="end" dy="0.35em">0.2</text>
      </g>
    </g>
    <g transform="translate(17.63,35.69)" id="img-3dc35cd1-39">
      <g class="primitive">
        <text text-anchor="end" dy="0.35em">0.3</text>
      </g>
    </g>
    <g transform="translate(17.63,21.34)" id="img-3dc35cd1-40">
      <g class="primitive">
        <text text-anchor="end" dy="0.35em">0.4</text>
      </g>
    </g>
    <g transform="translate(17.63,7)" id="img-3dc35cd1-41">
      <g class="primitive">
        <text text-anchor="end" dy="0.35em">0.5</text>
      </g>
    </g>
  </g>
  <g font-size="3.88" font-family="'PT Sans','Helvetica Neue','Helvetica',sans-serif" fill="#564A55" stroke="#000000" stroke-opacity="0.000" id="img-3dc35cd1-42">
    <g transform="translate(8.81,40.86)" id="img-3dc35cd1-43">
      <g class="primitive">
        <text text-anchor="middle" dy="0.35em" transform="rotate(-90,0, 2)">Density</text>
      </g>
    </g>
  </g>
</g>
<defs>
  <clipPath id="img-3dc35cd1-15">
    <path d="M18.63,5 L127.47,5 127.47,80.72 18.63,80.72 " />
  </clipPath>
</defs>
</svg>
